<?xml version="1.0" encoding="UTF-8" standalone="no"?>
<!DOCTYPE svg PUBLIC "-//W3C//DTD SVG 1.1//EN" "http://www.w3.org/Graphics/SVG/1.1/DTD/svg11.dtd">
<!-- 由 Microsoft Visio, SVG Export 生成 Bidirectional .svg 页-1 -->
<svg xmlns="http://www.w3.org/2000/svg" xmlns:xlink="http://www.w3.org/1999/xlink" xmlns:ev="http://www.w3.org/2001/xml-events"
		xmlns:v="http://schemas.microsoft.com/visio/2003/SVGExtensions/" width="5.59491in" height="2.66603in"
		viewBox="0 0 402.833 191.954" xml:space="preserve" color-interpolation-filters="sRGB" class="st16">
	<v:documentProperties v:langID="2052" v:metric="true" v:viewMarkup="false"/>

	<style type="text/css">
	<![CDATA[
		.st1 {fill:#e2efd9;stroke:#000000;stroke-width:1}
		.st2 {fill:#000000;font-family:Times New Roman;font-size:1.16666em;font-style:italic;font-weight:bold}
		.st3 {baseline-shift:-32.4943%;font-size:0.649886em;font-style:normal;font-weight:normal}
		.st4 {fill:#deebf6;stroke:#000000;stroke-width:1}
		.st5 {fill:none;stroke:none;stroke-width:1}
		.st6 {fill:#000000;font-family:宋体;font-size:1.16666em}
		.st7 {baseline-shift:-32.4943%;font-size:0.649886em;font-weight:normal}
		.st8 {marker-end:url(#mrkr4-65);stroke:#000000;stroke-linecap:round;stroke-linejoin:round;stroke-width:1}
		.st9 {fill:#000000;fill-opacity:1;stroke:#000000;stroke-opacity:1;stroke-width:0.35714285714286}
		.st10 {fill:#fcd6d3;stroke:#000000;stroke-width:1}
		.st11 {fill:#fbe5d5;stroke:#000000;stroke-width:1}
		.st12 {fill:#000000;font-family:Times New Roman;font-size:1.16666em;font-style:italic}
		.st13 {baseline-shift:-32.4943%;font-size:0.649886em;font-style:normal}
		.st14 {baseline-shift:-32.4943%;font-size:0.649886em}
		.st15 {marker-end:url(#mrkr4-180);stroke:#000000;stroke-linecap:round;stroke-linejoin:round;stroke-width:1}
		.st16 {fill:none;fill-rule:evenodd;font-size:12px;overflow:visible;stroke-linecap:square;stroke-miterlimit:3}
	]]>
	</style>

	<defs id="Markers">
		<g id="lend4">
			<path d="M 2 1 L 0 0 L 2 -1 L 2 1 " style="stroke:none"/>
		</g>
		<marker id="mrkr4-65" class="st9" v:arrowType="4" v:arrowSize="1" v:setback="5.6" refX="-5.6" orient="auto"
				markerUnits="strokeWidth" overflow="visible">
			<use xlink:href="#lend4" transform="scale(-2.8,-2.8) "/>
		</marker>
		<marker id="mrkr4-180" class="st9" v:arrowType="4" v:arrowSize="1" v:setback="5.24" refX="-5.24" orient="auto"
				markerUnits="strokeWidth" overflow="visible">
			<use xlink:href="#lend4" transform="scale(-2.8,-2.8) "/>
		</marker>
	</defs>
	<g v:mID="0" v:index="1" v:groupContext="foregroundPage">
		<title>页-1</title>
		<v:pageProperties v:drawingScale="0.0393701" v:pageScale="0.0393701" v:drawingUnits="24" v:shadowOffsetX="8.50394"
				v:shadowOffsetY="-8.50394"/>
		<v:layer v:name="连接线" v:index="0"/>
		<g id="shape1-1" v:mID="1" v:groupContext="shape" transform="translate(3.95769,-1)">
			<title>矩形.21</title>
			<desc>x1</desc>
			<v:userDefs>
				<v:ud v:nameU="visVersion" v:val="VT0(15):26"/>
			</v:userDefs>
			<v:textBlock v:margins="rect(4,4,4,4)" v:tabSpace="42.5197"/>
			<v:textRect cx="32.9657" cy="180.366" width="65.94" height="23.1766"/>
			<rect x="0" y="168.777" width="65.9314" height="23.1766" rx="5.66929" ry="5.66929" class="st1"/>
			<text x="27.19" y="184.58" class="st2" v:langID="2052"><v:paragraph v:horizAlign="1"/><v:tabList/>x<tspan dy="-0.279em"
						class="st3" v:baseFontSize="14">1</tspan></text>		</g>
		<g id="shape2-5" v:mID="2" v:groupContext="shape" transform="translate(3.95769,-42.811)">
			<title>矩形.2</title>
			<desc>h1, 1</desc>
			<v:userDefs>
				<v:ud v:nameU="visVersion" v:val="VT0(15):26"/>
			</v:userDefs>
			<v:textBlock v:margins="rect(4,4,4,4)" v:tabSpace="42.5197"/>
			<v:textRect cx="32.9657" cy="180.366" width="65.94" height="23.1766"/>
			<rect x="0" y="168.777" width="65.9314" height="23.1766" rx="5.66929" ry="5.66929" class="st4"/>
			<text x="22.25" y="184.58" class="st2" v:langID="2052"><v:paragraph v:horizAlign="1"/><v:tabList/>h<tspan dy="-0.279em"
						class="st3" v:baseFontSize="14">1, 1</tspan></text>		</g>
		<g id="shape3-9" v:mID="3" v:groupContext="shape" transform="translate(3.95769,-84.622)">
			<title>矩形.3</title>
			<desc>h1, 2</desc>
			<v:userDefs>
				<v:ud v:nameU="visVersion" v:val="VT0(15):26"/>
			</v:userDefs>
			<v:textBlock v:margins="rect(4,4,4,4)" v:tabSpace="42.5197"/>
			<v:textRect cx="32.9657" cy="180.366" width="65.94" height="23.1766"/>
			<rect x="0" y="168.777" width="65.9314" height="23.1766" rx="5.66929" ry="5.66929" class="st4"/>
			<text x="22.25" y="184.58" class="st2" v:langID="2052"><v:paragraph v:horizAlign="1"/><v:tabList/>h<tspan dy="-0.279em"
						class="st3" v:baseFontSize="14">1, 2</tspan></text>		</g>
		<g id="shape5-13" v:mID="5" v:groupContext="shape" transform="translate(86.4285,-1)">
			<title>矩形.5</title>
			<desc>x2</desc>
			<v:userDefs>
				<v:ud v:nameU="visVersion" v:val="VT0(15):26"/>
			</v:userDefs>
			<v:textBlock v:margins="rect(4,4,4,4)" v:tabSpace="42.5197"/>
			<v:textRect cx="32.9657" cy="180.366" width="65.94" height="23.1766"/>
			<rect x="0" y="168.777" width="65.9314" height="23.1766" rx="5.66929" ry="5.66929" class="st1"/>
			<text x="27.19" y="184.58" class="st2" v:langID="2052"><v:paragraph v:horizAlign="1"/><v:tabList/>x<tspan dy="-0.279em"
						class="st3" v:baseFontSize="14">2</tspan></text>		</g>
		<g id="shape6-17" v:mID="6" v:groupContext="shape" transform="translate(86.4285,-42.811)">
			<title>矩形.6</title>
			<desc>h2, 1</desc>
			<v:userDefs>
				<v:ud v:nameU="visVersion" v:val="VT0(15):26"/>
			</v:userDefs>
			<v:textBlock v:margins="rect(4,4,4,4)" v:tabSpace="42.5197"/>
			<v:textRect cx="32.9657" cy="180.366" width="65.94" height="23.1766"/>
			<rect x="0" y="168.777" width="65.9314" height="23.1766" rx="5.66929" ry="5.66929" class="st4"/>
			<text x="22.25" y="184.58" class="st2" v:langID="2052"><v:paragraph v:horizAlign="1"/><v:tabList/>h<tspan dy="-0.279em"
						class="st3" v:baseFontSize="14">2, 1</tspan></text>		</g>
		<g id="shape7-21" v:mID="7" v:groupContext="shape" transform="translate(86.4285,-84.622)">
			<title>矩形.7</title>
			<desc>h2, 2</desc>
			<v:userDefs>
				<v:ud v:nameU="visVersion" v:val="VT0(15):26"/>
			</v:userDefs>
			<v:textBlock v:margins="rect(4,4,4,4)" v:tabSpace="42.5197"/>
			<v:textRect cx="32.9657" cy="180.366" width="65.94" height="23.1766"/>
			<rect x="0" y="168.777" width="65.9314" height="23.1766" rx="5.66929" ry="5.66929" class="st4"/>
			<text x="22.25" y="184.58" class="st2" v:langID="2052"><v:paragraph v:horizAlign="1"/><v:tabList/>h<tspan dy="-0.279em"
						class="st3" v:baseFontSize="14">2, 2</tspan></text>		</g>
		<g id="shape9-25" v:mID="9" v:groupContext="shape" transform="translate(168.899,-1)">
			<title>矩形.9</title>
			<desc>x3</desc>
			<v:userDefs>
				<v:ud v:nameU="visVersion" v:val="VT0(15):26"/>
			</v:userDefs>
			<v:textBlock v:margins="rect(4,4,4,4)" v:tabSpace="42.5197"/>
			<v:textRect cx="32.9657" cy="180.366" width="65.94" height="23.1766"/>
			<rect x="0" y="168.777" width="65.9314" height="23.1766" rx="5.66929" ry="5.66929" class="st1"/>
			<text x="27.19" y="184.58" class="st2" v:langID="2052"><v:paragraph v:horizAlign="1"/><v:tabList/>x<tspan dy="-0.279em"
						class="st3" v:baseFontSize="14">3</tspan></text>		</g>
		<g id="shape10-29" v:mID="10" v:groupContext="shape" transform="translate(168.899,-42.811)">
			<title>矩形.10</title>
			<desc>h3, 1</desc>
			<v:userDefs>
				<v:ud v:nameU="visVersion" v:val="VT0(15):26"/>
			</v:userDefs>
			<v:textBlock v:margins="rect(4,4,4,4)" v:tabSpace="42.5197"/>
			<v:textRect cx="32.9657" cy="180.366" width="65.94" height="23.1766"/>
			<rect x="0" y="168.777" width="65.9314" height="23.1766" rx="5.66929" ry="5.66929" class="st4"/>
			<text x="22.25" y="184.58" class="st2" v:langID="2052"><v:paragraph v:horizAlign="1"/><v:tabList/>h<tspan dy="-0.279em"
						class="st3" v:baseFontSize="14">3, 1</tspan></text>		</g>
		<g id="shape11-33" v:mID="11" v:groupContext="shape" transform="translate(168.899,-84.622)">
			<title>矩形.11</title>
			<desc>h3, 2</desc>
			<v:userDefs>
				<v:ud v:nameU="visVersion" v:val="VT0(15):26"/>
			</v:userDefs>
			<v:textBlock v:margins="rect(4,4,4,4)" v:tabSpace="42.5197"/>
			<v:textRect cx="32.9657" cy="180.366" width="65.94" height="23.1766"/>
			<rect x="0" y="168.777" width="65.9314" height="23.1766" rx="5.66929" ry="5.66929" class="st4"/>
			<text x="22.25" y="184.58" class="st2" v:langID="2052"><v:paragraph v:horizAlign="1"/><v:tabList/>h<tspan dy="-0.279em"
						class="st3" v:baseFontSize="14">3, 2</tspan></text>		</g>
		<g id="shape13-37" v:mID="13" v:groupContext="shape" transform="translate(251.37,-1)">
			<title>矩形.13</title>
			<desc>…</desc>
			<v:userDefs>
				<v:ud v:nameU="visVersion" v:val="VT0(15):26"/>
			</v:userDefs>
			<v:textBlock v:margins="rect(4,4,4,4)" v:tabSpace="42.5197"/>
			<v:textRect cx="32.9657" cy="180.366" width="65.94" height="23.1766"/>
			<rect x="0" y="168.777" width="65.9314" height="23.1766" rx="5.66929" ry="5.66929" class="st5"/>
			<text x="25.97" y="184.97" class="st6" v:langID="2052"><v:paragraph v:horizAlign="1"/><v:tabList/>…</text>		</g>
		<g id="shape14-40" v:mID="14" v:groupContext="shape" transform="translate(251.37,-42.811)">
			<title>矩形.14</title>
			<desc>…</desc>
			<v:userDefs>
				<v:ud v:nameU="visVersion" v:val="VT0(15):26"/>
			</v:userDefs>
			<v:textBlock v:margins="rect(4,4,4,4)" v:tabSpace="42.5197"/>
			<v:textRect cx="32.9657" cy="180.366" width="65.94" height="23.1766"/>
			<rect x="0" y="168.777" width="65.9314" height="23.1766" rx="5.66929" ry="5.66929" class="st5"/>
			<text x="25.97" y="184.97" class="st6" v:langID="2052"><v:paragraph v:horizAlign="1"/><v:tabList/>…</text>		</g>
		<g id="shape15-43" v:mID="15" v:groupContext="shape" transform="translate(251.37,-84.622)">
			<title>矩形.15</title>
			<desc>…</desc>
			<v:userDefs>
				<v:ud v:nameU="visVersion" v:val="VT0(15):26"/>
			</v:userDefs>
			<v:textBlock v:margins="rect(4,4,4,4)" v:tabSpace="42.5197"/>
			<v:textRect cx="32.9657" cy="180.366" width="65.94" height="23.1766"/>
			<rect x="0" y="168.777" width="65.9314" height="23.1766" rx="5.66929" ry="5.66929" class="st5"/>
			<text x="25.97" y="184.97" class="st6" v:langID="2052"><v:paragraph v:horizAlign="1"/><v:tabList/>…</text>		</g>
		<g id="shape17-46" v:mID="17" v:groupContext="shape" transform="translate(333.841,-1)">
			<title>矩形.17</title>
			<desc>xT</desc>
			<v:userDefs>
				<v:ud v:nameU="visVersion" v:val="VT0(15):26"/>
			</v:userDefs>
			<v:textBlock v:margins="rect(4,4,4,4)" v:tabSpace="42.5197"/>
			<v:textRect cx="32.9657" cy="180.366" width="65.94" height="23.1766"/>
			<rect x="0" y="168.777" width="65.9314" height="23.1766" rx="5.66929" ry="5.66929" class="st1"/>
			<text x="26.94" y="184.58" class="st2" v:langID="2052"><v:paragraph v:horizAlign="1"/><v:tabList/>x<tspan dy="-0.279em"
						class="st7" v:baseFontSize="14">T</tspan></text>		</g>
		<g id="shape18-50" v:mID="18" v:groupContext="shape" transform="translate(333.841,-42.811)">
			<title>矩形.18</title>
			<desc>hT, 1</desc>
			<v:userDefs>
				<v:ud v:nameU="visVersion" v:val="VT0(15):26"/>
			</v:userDefs>
			<v:textBlock v:margins="rect(4,4,4,4)" v:tabSpace="42.5197"/>
			<v:textRect cx="32.9657" cy="180.366" width="65.94" height="23.1766"/>
			<rect x="0" y="168.777" width="65.9314" height="23.1766" rx="5.66929" ry="5.66929" class="st4"/>
			<text x="21.99" y="184.58" class="st2" v:langID="2052"><v:paragraph v:horizAlign="1"/><v:tabList/>h<tspan dy="-0.279em"
						class="st7" v:baseFontSize="14">T</tspan><tspan class="st3" v:baseFontSize="14">, 1</tspan></text>		</g>
		<g id="shape19-55" v:mID="19" v:groupContext="shape" transform="translate(333.841,-84.622)">
			<title>矩形.19</title>
			<desc>hT, 2</desc>
			<v:userDefs>
				<v:ud v:nameU="visVersion" v:val="VT0(15):26"/>
			</v:userDefs>
			<v:textBlock v:margins="rect(4,4,4,4)" v:tabSpace="42.5197"/>
			<v:textRect cx="32.9657" cy="180.366" width="65.94" height="23.1766"/>
			<rect x="0" y="168.777" width="65.9314" height="23.1766" rx="5.66929" ry="5.66929" class="st4"/>
			<text x="21.99" y="184.58" class="st2" v:langID="2052"><v:paragraph v:horizAlign="1"/><v:tabList/>h<tspan dy="-0.279em"
						class="st7" v:baseFontSize="14">T</tspan><tspan class="st3" v:baseFontSize="14">, 2</tspan></text>		</g>
		<g id="shape20-60" v:mID="20" v:groupContext="shape" v:layerMember="0" transform="translate(29.8368,-24.1766)">
			<title>动态连接线.20</title>
			<path d="M7.09 191.95 L7.09 178.92" class="st8"/>
		</g>
		<g id="shape21-66" v:mID="21" v:groupContext="shape" v:layerMember="0" transform="translate(69.889,-47.3127)">
			<title>动态连接线.21</title>
			<path d="M0 184.87 L10.94 184.87" class="st8"/>
		</g>
		<g id="shape22-71" v:mID="22" v:groupContext="shape" v:layerMember="0" transform="translate(112.308,-24.1766)">
			<title>动态连接线.22</title>
			<path d="M7.09 191.95 L7.09 178.92" class="st8"/>
		</g>
		<g id="shape23-76" v:mID="23" v:groupContext="shape" v:layerMember="0" transform="translate(194.778,-24.1766)">
			<title>动态连接线.23</title>
			<path d="M7.09 191.95 L7.09 178.92" class="st8"/>
		</g>
		<g id="shape24-81" v:mID="24" v:groupContext="shape" v:layerMember="0" transform="translate(152.36,-47.3127)">
			<title>动态连接线.24</title>
			<path d="M0 184.87 L10.94 184.87" class="st8"/>
		</g>
		<g id="shape25-86" v:mID="25" v:groupContext="shape" v:layerMember="0" transform="translate(234.831,-47.3127)">
			<title>动态连接线.28</title>
			<path d="M0 184.87 L10.94 184.87" class="st8"/>
		</g>
		<g id="shape26-91" v:mID="26" v:groupContext="shape" v:layerMember="0" transform="translate(317.301,-47.3127)">
			<title>动态连接线.29</title>
			<path d="M0 184.87 L10.94 184.87" class="st8"/>
		</g>
		<g id="shape27-96" v:mID="27" v:groupContext="shape" v:layerMember="0" transform="translate(359.72,-24.1766)">
			<title>动态连接线.30</title>
			<path d="M7.09 191.95 L7.09 178.92" class="st8"/>
		</g>
		<g id="shape28-101" v:mID="28" v:groupContext="shape" transform="translate(25.3351,-125.966)">
			<title>圆形</title>
			<desc>+</desc>
			<v:userDefs>
				<v:ud v:nameU="visVersion" v:val="VT0(15):26"/>
			</v:userDefs>
			<v:textBlock v:margins="rect(4,4,4,4)" v:tabSpace="42.5197"/>
			<v:textRect cx="11.5883" cy="180.366" width="20.28" height="17.3824"/>
			<path d="M0 180.37 A11.5883 11.5883 0 0 1 23.18 180.37 A11.5883 11.5883 0 1 1 0 180.37 Z" class="st10"/>
			<text x="7.6" y="184.57" class="st2" v:langID="2052"><v:paragraph v:horizAlign="1"/><v:tabList/>+</text>		</g>
		<g id="shape29-104" v:mID="29" v:groupContext="shape" transform="translate(3.95769,-167.777)">
			<title>矩形.53</title>
			<desc>y1</desc>
			<v:userDefs>
				<v:ud v:nameU="visVersion" v:val="VT0(15):26"/>
			</v:userDefs>
			<v:textBlock v:margins="rect(4,4,4,4)" v:tabSpace="42.5197"/>
			<v:textRect cx="32.9657" cy="180.366" width="65.94" height="23.1766"/>
			<rect x="0" y="168.777" width="65.9314" height="23.1766" rx="5.66929" ry="5.66929" class="st11"/>
			<text x="27.58" y="184.57" class="st12" v:langID="2052"><v:paragraph v:horizAlign="1"/><v:tabList/>y<tspan
						dy="-0.279em" class="st13" v:baseFontSize="14">1</tspan></text>		</g>
		<g id="shape30-108" v:mID="30" v:groupContext="shape" transform="translate(107.806,-125.966)">
			<title>圆形.91</title>
			<desc>+</desc>
			<v:userDefs>
				<v:ud v:nameU="visVersion" v:val="VT0(15):26"/>
			</v:userDefs>
			<v:textBlock v:margins="rect(4,4,4,4)" v:tabSpace="42.5197"/>
			<v:textRect cx="11.5883" cy="180.366" width="20.28" height="17.3824"/>
			<path d="M0 180.37 A11.5883 11.5883 0 0 1 23.18 180.37 A11.5883 11.5883 0 1 1 0 180.37 Z" class="st10"/>
			<text x="7.6" y="184.58" class="st2" v:langID="2052"><v:paragraph v:horizAlign="1"/><v:tabList/>+</text>		</g>
		<g id="shape31-111" v:mID="31" v:groupContext="shape" transform="translate(86.4285,-167.777)">
			<title>矩形.57</title>
			<desc>y2</desc>
			<v:userDefs>
				<v:ud v:nameU="visVersion" v:val="VT0(15):26"/>
			</v:userDefs>
			<v:textBlock v:margins="rect(4,4,4,4)" v:tabSpace="42.5197"/>
			<v:textRect cx="32.9657" cy="180.366" width="65.94" height="23.1766"/>
			<rect x="0" y="168.777" width="65.9314" height="23.1766" rx="5.66929" ry="5.66929" class="st11"/>
			<text x="27.58" y="184.57" class="st12" v:langID="2052"><v:paragraph v:horizAlign="1"/><v:tabList/>y<tspan
						dy="-0.279em" class="st13" v:baseFontSize="14">2</tspan></text>		</g>
		<g id="shape32-115" v:mID="32" v:groupContext="shape" transform="translate(190.277,-125.966)">
			<title>圆形.92</title>
			<desc>+</desc>
			<v:userDefs>
				<v:ud v:nameU="visVersion" v:val="VT0(15):26"/>
			</v:userDefs>
			<v:textBlock v:margins="rect(4,4,4,4)" v:tabSpace="42.5197"/>
			<v:textRect cx="11.5883" cy="180.366" width="20.28" height="17.3824"/>
			<path d="M0 180.37 A11.5883 11.5883 0 0 1 23.18 180.37 A11.5883 11.5883 0 1 1 0 180.37 Z" class="st10"/>
			<text x="7.6" y="184.58" class="st2" v:langID="2052"><v:paragraph v:horizAlign="1"/><v:tabList/>+</text>		</g>
		<g id="shape33-118" v:mID="33" v:groupContext="shape" transform="translate(168.899,-167.777)">
			<title>矩形.61</title>
			<desc>y3</desc>
			<v:userDefs>
				<v:ud v:nameU="visVersion" v:val="VT0(15):26"/>
			</v:userDefs>
			<v:textBlock v:margins="rect(4,4,4,4)" v:tabSpace="42.5197"/>
			<v:textRect cx="32.9657" cy="180.366" width="65.94" height="23.1766"/>
			<rect x="0" y="168.777" width="65.9314" height="23.1766" rx="5.66929" ry="5.66929" class="st11"/>
			<text x="27.58" y="184.57" class="st12" v:langID="2052"><v:paragraph v:horizAlign="1"/><v:tabList/>y<tspan
						dy="-0.279em" class="st13" v:baseFontSize="14">3</tspan></text>		</g>
		<g id="shape34-122" v:mID="34" v:groupContext="shape" transform="translate(272.747,-125.966)">
			<title>圆形.93</title>
			<desc>…</desc>
			<v:userDefs>
				<v:ud v:nameU="visVersion" v:val="VT0(15):26"/>
			</v:userDefs>
			<v:textBlock v:margins="rect(4,4,4,4)" v:tabSpace="42.5197"/>
			<v:textRect cx="11.5883" cy="180.366" width="20.28" height="17.3824"/>
			<path d="M0 180.37 A11.5883 11.5883 0 0 1 23.18 180.37 A11.5883 11.5883 0 1 1 0 180.37 Z" class="st5"/>
			<text x="5.45" y="184.97" class="st6" v:langID="2052"><v:paragraph v:horizAlign="1"/><v:tabList/>…</text>		</g>
		<g id="shape35-125" v:mID="35" v:groupContext="shape" transform="translate(251.37,-167.777)">
			<title>矩形.65</title>
			<desc>…</desc>
			<v:userDefs>
				<v:ud v:nameU="visVersion" v:val="VT0(15):26"/>
			</v:userDefs>
			<v:textBlock v:margins="rect(4,4,4,4)" v:tabSpace="42.5197"/>
			<v:textRect cx="32.9657" cy="180.366" width="65.94" height="23.1766"/>
			<rect x="0" y="168.777" width="65.9314" height="23.1766" rx="5.66929" ry="5.66929" class="st5"/>
			<text x="25.97" y="184.97" class="st6" v:langID="2052"><v:paragraph v:horizAlign="1"/><v:tabList/>…</text>		</g>
		<g id="shape36-128" v:mID="36" v:groupContext="shape" transform="translate(355.218,-125.966)">
			<title>圆形.94</title>
			<desc>+</desc>
			<v:userDefs>
				<v:ud v:nameU="visVersion" v:val="VT0(15):26"/>
			</v:userDefs>
			<v:textBlock v:margins="rect(4,4,4,4)" v:tabSpace="42.5197"/>
			<v:textRect cx="11.5883" cy="180.366" width="20.28" height="17.3824"/>
			<path d="M0 180.37 A11.5883 11.5883 0 0 1 23.18 180.37 A11.5883 11.5883 0 1 1 0 180.37 Z" class="st10"/>
			<text x="7.6" y="184.58" class="st2" v:langID="2052"><v:paragraph v:horizAlign="1"/><v:tabList/>+</text>		</g>
		<g id="shape37-131" v:mID="37" v:groupContext="shape" transform="translate(333.841,-167.777)">
			<title>矩形.69</title>
			<desc>yT</desc>
			<v:userDefs>
				<v:ud v:nameU="visVersion" v:val="VT0(15):26"/>
			</v:userDefs>
			<v:textBlock v:margins="rect(4,4,4,4)" v:tabSpace="42.5197"/>
			<v:textRect cx="32.9657" cy="180.366" width="65.94" height="23.1766"/>
			<rect x="0" y="168.777" width="65.9314" height="23.1766" rx="5.66929" ry="5.66929" class="st11"/>
			<text x="27.33" y="184.57" class="st12" v:langID="2052"><v:paragraph v:horizAlign="1"/><v:tabList/>y<tspan
						dy="-0.279em" class="st14" v:baseFontSize="14">T</tspan></text>		</g>
		<g id="shape38-135" v:mID="38" v:groupContext="shape" v:layerMember="0" transform="translate(29.8368,-149.143)">
			<title>动态连接线.38</title>
			<path d="M7.09 191.95 L7.09 178.92" class="st8"/>
		</g>
		<g id="shape39-140" v:mID="39" v:groupContext="shape" v:layerMember="0" transform="translate(112.308,-149.143)">
			<title>动态连接线.39</title>
			<path d="M7.09 191.95 L7.09 178.92" class="st8"/>
		</g>
		<g id="shape40-145" v:mID="40" v:groupContext="shape" v:layerMember="0" transform="translate(194.778,-149.143)">
			<title>动态连接线.27</title>
			<path d="M7.09 191.95 L7.09 178.92" class="st8"/>
		</g>
		<g id="shape41-150" v:mID="41" v:groupContext="shape" v:layerMember="0" transform="translate(359.72,-149.143)">
			<title>动态连接线.31</title>
			<path d="M7.09 191.95 L7.09 178.92" class="st8"/>
		</g>
		<g id="shape42-155" v:mID="42" v:groupContext="shape" v:layerMember="0" transform="translate(333.841,-89.1237)">
			<title>动态连接线</title>
			<path d="M0 184.87 L-10.94 184.87" class="st8"/>
		</g>
		<g id="shape43-160" v:mID="43" v:groupContext="shape" v:layerMember="0" transform="translate(251.37,-89.1237)">
			<title>动态连接线.87</title>
			<path d="M0 184.87 L-10.94 184.87" class="st8"/>
		</g>
		<g id="shape44-165" v:mID="44" v:groupContext="shape" v:layerMember="0" transform="translate(168.899,-89.1237)">
			<title>动态连接线.88</title>
			<path d="M0 184.87 L-10.94 184.87" class="st8"/>
		</g>
		<g id="shape45-170" v:mID="45" v:groupContext="shape" v:layerMember="0" transform="translate(86.4285,-89.1237)">
			<title>动态连接线.89</title>
			<path d="M0 184.87 L-10.94 184.87" class="st8"/>
		</g>
		<g id="shape46-175" v:mID="46" v:groupContext="shape" v:layerMember="0" transform="translate(29.8368,-24.1766)">
			<title>动态连接线.98</title>
			<path d="M7.09 191.95 C1.5 184.24 -9.87 172.87 -9.84 161.49 C-9.81 152.24 -2.22 142.98 3.59 135.88 L3.81 135.6"
					class="st15"/>
		</g>
		<g id="shape47-181" v:mID="47" v:groupContext="shape" v:layerMember="0" transform="translate(112.308,-24.1766)">
			<title>动态连接线.99</title>
			<path d="M7.09 191.95 C4.07 184.24 -5.6 172.87 -5.57 161.49 C-5.54 152.5 0.54 143.51 4.54 136.5 L4.71 136.18"
					class="st15"/>
		</g>
		<g id="shape48-186" v:mID="48" v:groupContext="shape" v:layerMember="0" transform="translate(194.778,-24.1766)">
			<title>动态连接线.100</title>
			<path d="M7.09 191.95 C3.8 187.08 -5.88 173.92 -6.1 162.12 C-6.29 152.27 0.12 143.36 4.39 136.41 L4.56 136.1"
					class="st15"/>
		</g>
		<g id="shape49-191" v:mID="49" v:groupContext="shape" v:layerMember="0" transform="translate(359.72,-24.1766)">
			<title>动态连接线.101</title>
			<path d="M7.09 191.95 C3.27 184.24 -8.11 172.87 -8.07 161.49 C-8.04 152.4 -0.72 143.31 4.13 136.26 L4.32 135.96"
					class="st15"/>
		</g>
		<g id="shape50-196" v:mID="50" v:groupContext="shape" v:layerMember="0" transform="translate(29.8368,-65.9876)">
			<title>动态连接线.102</title>
			<path d="M7.09 191.95 C10.01 186.37 20.65 173.49 21.31 162.45 C21.9 152.77 14.82 144.5 9.87 136.83 L9.7 136.52"
					class="st15"/>
		</g>
		<g id="shape51-201" v:mID="51" v:groupContext="shape" v:layerMember="0" transform="translate(112.308,-65.9876)">
			<title>动态连接线.103</title>
			<path d="M7.09 191.95 C12.57 183.53 24.15 172.85 23.91 161.26 C23.72 152.29 16.47 142.78 10.79 136.18 L10.55 135.91"
					class="st15"/>
		</g>
		<g id="shape52-206" v:mID="52" v:groupContext="shape" v:layerMember="0" transform="translate(194.778,-65.9876)">
			<title>动态连接线.104</title>
			<path d="M7.09 191.95 C12.31 180.7 23.9 171.45 23.64 161.29 C23.44 153.21 15.74 144.55 10.15 136.66 L9.95 136.36"
					class="st15"/>
		</g>
		<g id="shape53-211" v:mID="53" v:groupContext="shape" v:layerMember="0" transform="translate(373.893,-65.9876)">
			<title>动态连接线.105</title>
			<path d="M-7.09 191.95 C-2.4 183.53 8.51 172.41 8.94 161.82 C9.31 152.89 2.21 144.34 -3.77 136.49 L-3.98 136.2"
					class="st15"/>
		</g>
		<g id="shape54-216" v:mID="54" v:groupContext="shape" v:layerMember="0" transform="translate(29.8368,-107.799)">
			<title>动态连接线.106</title>
			<path d="M7.09 191.95 L7.09 179.39" class="st8"/>
		</g>
		<g id="shape55-221" v:mID="55" v:groupContext="shape" v:layerMember="0" transform="translate(112.308,-107.799)">
			<title>动态连接线.107</title>
			<path d="M7.09 191.95 L7.09 179.39" class="st8"/>
		</g>
		<g id="shape56-226" v:mID="56" v:groupContext="shape" v:layerMember="0" transform="translate(194.778,-107.799)">
			<title>动态连接线.108</title>
			<path d="M7.09 191.95 L7.09 179.39" class="st8"/>
		</g>
		<g id="shape57-231" v:mID="57" v:groupContext="shape" v:layerMember="0" transform="translate(359.72,-107.799)">
			<title>动态连接线.109</title>
			<path d="M7.09 191.95 L7.09 179.39" class="st8"/>
		</g>
	</g>
</svg>
