<?xml version="1.0" encoding="UTF-8" standalone="no"?>
<!DOCTYPE svg PUBLIC "-//W3C//DTD SVG 1.1//EN" "http://www.w3.org/Graphics/SVG/1.1/DTD/svg11.dtd">
<!-- 由 Microsoft Visio, SVG Export 生成 Dropout.svg Page-2 -->
<svg xmlns="http://www.w3.org/2000/svg" xmlns:xlink="http://www.w3.org/1999/xlink" xmlns:ev="http://www.w3.org/2001/xml-events"
		xmlns:v="http://schemas.microsoft.com/visio/2003/SVGExtensions/" width="6.0252in" height="4.68629in"
		viewBox="0 0 433.815 337.413" xml:space="preserve" color-interpolation-filters="sRGB" class="st15">
	<v:documentProperties v:langID="2052" v:metric="true" v:viewMarkup="false">
		<v:userDefs>
			<v:ud v:nameU="msvSubprocessMaster" v:prompt="" v:val="VT4(Rectangle)"/>
			<v:ud v:nameU="msvNoAutoConnect" v:val="VT0(1):26"/>
		</v:userDefs>
	</v:documentProperties>

	<style type="text/css">
	<![CDATA[
		.st1 {fill:#e2efd9;stroke:#000000;stroke-width:1}
		.st2 {fill:#000000;font-family:Times New Roman;font-size:1.16666em;font-style:italic;font-weight:bold}
		.st3 {baseline-shift:-32.4943%;font-size:0.649886em;font-style:normal;font-weight:normal}
		.st4 {fill:#fff2cc;stroke:#000000;stroke-width:1}
		.st5 {fill:#000000;font-family:Times New Roman;font-size:1.16666em}
		.st6 {baseline-shift:-32.4943%;font-size:0.649886em}
		.st7 {fill:#deebf6;stroke:#000000;stroke-width:1}
		.st8 {baseline-shift:-32.4943%;font-size:0.649886em;font-weight:normal}
		.st9 {marker-end:url(#mrkr4-55);stroke:#000000;stroke-linecap:round;stroke-linejoin:round;stroke-width:1}
		.st10 {fill:#000000;fill-opacity:1;stroke:#000000;stroke-opacity:1;stroke-width:0.28409090909091}
		.st11 {fill:#f2f2f2;stroke:#000000;stroke-width:1}
		.st12 {marker-end:url(#mrkr4-233);stroke:#000000;stroke-linecap:round;stroke-linejoin:round;stroke-width:1}
		.st13 {fill:none;stroke:none;stroke-width:1}
		.st14 {fill:#000000;font-family:宋体;font-size:1.16666em}
		.st15 {fill:none;fill-rule:evenodd;font-size:12px;overflow:visible;stroke-linecap:square;stroke-miterlimit:3}
	]]>
	</style>

	<defs id="Markers">
		<g id="lend4">
			<path d="M 2 1 L 0 0 L 2 -1 L 2 1 " style="stroke:none"/>
		</g>
		<marker id="mrkr4-55" class="st10" v:arrowType="4" v:arrowSize="2" v:setback="7.04" refX="-7.04" orient="auto"
				markerUnits="strokeWidth" overflow="visible">
			<use xlink:href="#lend4" transform="scale(-3.52,-3.52) "/>
		</marker>
		<marker id="mrkr4-233" class="st10" v:arrowType="4" v:arrowSize="2" v:setback="0" refX="-0" orient="auto"
				markerUnits="strokeWidth" overflow="visible">
			<use xlink:href="#lend4" transform="scale(-3.52,-3.52) "/>
		</marker>
	</defs>
	<g v:mID="4" v:index="2" v:groupContext="foregroundPage">
		<v:userDefs>
			<v:ud v:nameU="msvThemeOrder" v:val="VT0(0):26"/>
		</v:userDefs>
		<title>页-2</title>
		<v:pageProperties v:drawingScale="0.0393701" v:pageScale="0.0393701" v:drawingUnits="24" v:shadowOffsetX="8.50394"
				v:shadowOffsetY="-8.50394"/>
		<v:layer v:name="连接线" v:index="0"/>
		<g id="shape1-1" v:mID="1" v:groupContext="shape" transform="translate(19,-19)">
			<title>矩形.1</title>
			<desc>x1</desc>
			<v:userDefs>
				<v:ud v:nameU="visVersion" v:val="VT0(15):26"/>
			</v:userDefs>
			<v:textBlock v:margins="rect(4,4,4,4)" v:tabSpace="42.5197"/>
			<v:textRect cx="32.9657" cy="325.825" width="65.94" height="23.1766"/>
			<rect x="0" y="314.237" width="65.9314" height="23.1766" rx="5.66929" ry="5.66929" class="st1"/>
			<text x="27.19" y="330.04" class="st2" v:langID="2052"><v:paragraph v:horizAlign="1"/><v:tabList/>x<tspan dy="-0.279em"
						class="st3" v:baseFontSize="14">1</tspan></text>		</g>
		<g id="shape2-5" v:mID="2" v:groupContext="shape" transform="translate(19,-60.811)">
			<title>矩形.2</title>
			<desc>RNN1</desc>
			<v:userDefs>
				<v:ud v:nameU="visVersion" v:val="VT0(15):26"/>
			</v:userDefs>
			<v:textBlock v:margins="rect(4,4,4,4)" v:tabSpace="42.5197"/>
			<v:textRect cx="32.9657" cy="325.825" width="65.94" height="23.1766"/>
			<rect x="0" y="314.237" width="65.9314" height="23.1766" rx="5.66929" ry="5.66929" class="st4"/>
			<text x="15.91" y="330.03" class="st5" v:langID="2052"><v:paragraph v:horizAlign="1"/><v:tabList/>RNN<tspan
						dy="-0.279em" class="st6" v:baseFontSize="14">1</tspan></text>		</g>
		<g id="shape3-9" v:mID="3" v:groupContext="shape" transform="translate(19,-102.622)">
			<title>矩形.3</title>
			<desc>h1, 1</desc>
			<v:userDefs>
				<v:ud v:nameU="visVersion" v:val="VT0(15):26"/>
			</v:userDefs>
			<v:textBlock v:margins="rect(4,4,4,4)" v:tabSpace="42.5197"/>
			<v:textRect cx="32.9657" cy="325.825" width="65.94" height="23.1766"/>
			<rect x="0" y="314.237" width="65.9314" height="23.1766" rx="5.66929" ry="5.66929" class="st7"/>
			<text x="22.25" y="330.04" class="st2" v:langID="2052"><v:paragraph v:horizAlign="1"/><v:tabList/>h<tspan dy="-0.279em"
						class="st3" v:baseFontSize="14">1, 1</tspan></text>		</g>
		<g id="shape4-13" v:mID="4" v:groupContext="shape" transform="translate(101.471,-19)">
			<title>矩形.4</title>
			<desc>x2</desc>
			<v:userDefs>
				<v:ud v:nameU="visVersion" v:val="VT0(15):26"/>
			</v:userDefs>
			<v:textBlock v:margins="rect(4,4,4,4)" v:tabSpace="42.5197"/>
			<v:textRect cx="32.9657" cy="325.825" width="65.94" height="23.1766"/>
			<rect x="0" y="314.237" width="65.9314" height="23.1766" rx="5.66929" ry="5.66929" class="st1"/>
			<text x="27.19" y="330.04" class="st2" v:langID="2052"><v:paragraph v:horizAlign="1"/><v:tabList/>x<tspan dy="-0.279em"
						class="st3" v:baseFontSize="14">2</tspan></text>		</g>
		<g id="shape5-17" v:mID="5" v:groupContext="shape" transform="translate(101.471,-60.811)">
			<title>矩形.5</title>
			<desc>RNN1</desc>
			<v:userDefs>
				<v:ud v:nameU="visVersion" v:val="VT0(15):26"/>
			</v:userDefs>
			<v:textBlock v:margins="rect(4,4,4,4)" v:tabSpace="42.5197"/>
			<v:textRect cx="32.9657" cy="325.825" width="65.94" height="23.1766"/>
			<rect x="0" y="314.237" width="65.9314" height="23.1766" rx="5.66929" ry="5.66929" class="st4"/>
			<text x="15.91" y="330.03" class="st5" v:langID="2052"><v:paragraph v:horizAlign="1"/><v:tabList/>RNN<tspan
						dy="-0.279em" class="st6" v:baseFontSize="14">1</tspan></text>		</g>
		<g id="shape6-21" v:mID="6" v:groupContext="shape" transform="translate(101.471,-102.622)">
			<title>矩形.6</title>
			<desc>h2, 1</desc>
			<v:userDefs>
				<v:ud v:nameU="visVersion" v:val="VT0(15):26"/>
			</v:userDefs>
			<v:textBlock v:margins="rect(4,4,4,4)" v:tabSpace="42.5197"/>
			<v:textRect cx="32.9657" cy="325.825" width="65.94" height="23.1766"/>
			<rect x="0" y="314.237" width="65.9314" height="23.1766" rx="5.66929" ry="5.66929" class="st7"/>
			<text x="22.25" y="330.04" class="st2" v:langID="2052"><v:paragraph v:horizAlign="1"/><v:tabList/>h<tspan dy="-0.279em"
						class="st3" v:baseFontSize="14">2, 1</tspan></text>		</g>
		<g id="shape7-25" v:mID="7" v:groupContext="shape" transform="translate(183.942,-19)">
			<title>矩形.7</title>
			<desc>x3</desc>
			<v:userDefs>
				<v:ud v:nameU="visVersion" v:val="VT0(15):26"/>
			</v:userDefs>
			<v:textBlock v:margins="rect(4,4,4,4)" v:tabSpace="42.5197"/>
			<v:textRect cx="32.9657" cy="325.825" width="65.94" height="23.1766"/>
			<rect x="0" y="314.237" width="65.9314" height="23.1766" rx="5.66929" ry="5.66929" class="st1"/>
			<text x="27.19" y="330.04" class="st2" v:langID="2052"><v:paragraph v:horizAlign="1"/><v:tabList/>x<tspan dy="-0.279em"
						class="st3" v:baseFontSize="14">3</tspan></text>		</g>
		<g id="shape8-29" v:mID="8" v:groupContext="shape" transform="translate(183.942,-60.811)">
			<title>矩形.8</title>
			<desc>RNN1</desc>
			<v:userDefs>
				<v:ud v:nameU="visVersion" v:val="VT0(15):26"/>
			</v:userDefs>
			<v:textBlock v:margins="rect(4,4,4,4)" v:tabSpace="42.5197"/>
			<v:textRect cx="32.9657" cy="325.825" width="65.94" height="23.1766"/>
			<rect x="0" y="314.237" width="65.9314" height="23.1766" rx="5.66929" ry="5.66929" class="st4"/>
			<text x="15.91" y="330.03" class="st5" v:langID="2052"><v:paragraph v:horizAlign="1"/><v:tabList/>RNN<tspan
						dy="-0.279em" class="st6" v:baseFontSize="14">1</tspan></text>		</g>
		<g id="shape9-33" v:mID="9" v:groupContext="shape" transform="translate(183.942,-102.622)">
			<title>矩形.9</title>
			<desc>h3, 1</desc>
			<v:userDefs>
				<v:ud v:nameU="visVersion" v:val="VT0(15):26"/>
			</v:userDefs>
			<v:textBlock v:margins="rect(4,4,4,4)" v:tabSpace="42.5197"/>
			<v:textRect cx="32.9657" cy="325.825" width="65.94" height="23.1766"/>
			<rect x="0" y="314.237" width="65.9314" height="23.1766" rx="5.66929" ry="5.66929" class="st7"/>
			<text x="22.25" y="330.04" class="st2" v:langID="2052"><v:paragraph v:horizAlign="1"/><v:tabList/>h<tspan dy="-0.279em"
						class="st3" v:baseFontSize="14">3, 1</tspan></text>		</g>
		<g id="shape13-37" v:mID="13" v:groupContext="shape" transform="translate(348.883,-19)">
			<title>矩形.19</title>
			<desc>xT</desc>
			<v:userDefs>
				<v:ud v:nameU="visVersion" v:val="VT0(15):26"/>
			</v:userDefs>
			<v:textBlock v:margins="rect(4,4,4,4)" v:tabSpace="42.5197"/>
			<v:textRect cx="32.9657" cy="325.825" width="65.94" height="23.1766"/>
			<rect x="0" y="314.237" width="65.9314" height="23.1766" rx="5.66929" ry="5.66929" class="st1"/>
			<text x="26.94" y="330.04" class="st2" v:langID="2052"><v:paragraph v:horizAlign="1"/><v:tabList/>x<tspan dy="-0.279em"
						class="st8" v:baseFontSize="14">T</tspan></text>		</g>
		<g id="shape14-41" v:mID="14" v:groupContext="shape" transform="translate(348.883,-60.811)">
			<title>矩形.20</title>
			<desc>RNN1</desc>
			<v:userDefs>
				<v:ud v:nameU="visVersion" v:val="VT0(15):26"/>
			</v:userDefs>
			<v:textBlock v:margins="rect(4,4,4,4)" v:tabSpace="42.5197"/>
			<v:textRect cx="32.9657" cy="325.825" width="65.94" height="23.1766"/>
			<rect x="0" y="314.237" width="65.9314" height="23.1766" rx="5.66929" ry="5.66929" class="st4"/>
			<text x="15.91" y="330.03" class="st5" v:langID="2052"><v:paragraph v:horizAlign="1"/><v:tabList/>RNN<tspan
						dy="-0.279em" class="st6" v:baseFontSize="14">1</tspan></text>		</g>
		<g id="shape15-45" v:mID="15" v:groupContext="shape" transform="translate(348.883,-102.622)">
			<title>矩形.21</title>
			<desc>hT, 1</desc>
			<v:userDefs>
				<v:ud v:nameU="visVersion" v:val="VT0(15):26"/>
			</v:userDefs>
			<v:textBlock v:margins="rect(4,4,4,4)" v:tabSpace="42.5197"/>
			<v:textRect cx="32.9657" cy="325.825" width="65.94" height="23.1766"/>
			<rect x="0" y="314.237" width="65.9314" height="23.1766" rx="5.66929" ry="5.66929" class="st7"/>
			<text x="21.99" y="330.04" class="st2" v:langID="2052"><v:paragraph v:horizAlign="1"/><v:tabList/>h<tspan dy="-0.279em"
						class="st8" v:baseFontSize="14">T</tspan><tspan class="st3" v:baseFontSize="14">, 1</tspan></text>		</g>
		<g id="shape16-50" v:mID="16" v:groupContext="shape" v:layerMember="0" transform="translate(44.8791,-42.1766)">
			<title>动态连接线.16</title>
			<path d="M7.09 337.41 L7.09 325.82" class="st9"/>
		</g>
		<g id="shape17-56" v:mID="17" v:groupContext="shape" v:layerMember="0" transform="translate(44.8791,-83.9876)">
			<title>动态连接线.17</title>
			<path d="M7.09 337.41 L7.09 325.82" class="st9"/>
		</g>
		<g id="shape19-61" v:mID="19" v:groupContext="shape" v:layerMember="0" transform="translate(127.35,-83.9876)">
			<title>动态连接线.19</title>
			<path d="M7.09 337.41 L7.09 325.82" class="st9"/>
		</g>
		<g id="shape20-66" v:mID="20" v:groupContext="shape" v:layerMember="0" transform="translate(127.35,-42.1766)">
			<title>动态连接线.20</title>
			<path d="M7.09 337.41 L7.09 325.82" class="st9"/>
		</g>
		<g id="shape21-71" v:mID="21" v:groupContext="shape" v:layerMember="0" transform="translate(209.821,-42.1766)">
			<title>动态连接线.21</title>
			<path d="M7.09 337.41 L7.09 325.82" class="st9"/>
		</g>
		<g id="shape23-76" v:mID="23" v:groupContext="shape" v:layerMember="0" transform="translate(209.821,-83.9876)">
			<title>动态连接线.29</title>
			<path d="M7.09 337.41 L7.09 325.82" class="st9"/>
		</g>
		<g id="shape26-81" v:mID="26" v:groupContext="shape" v:layerMember="0" transform="translate(374.762,-42.1766)">
			<title>动态连接线.32</title>
			<path d="M7.09 337.41 L7.09 325.82" class="st9"/>
		</g>
		<g id="shape27-86" v:mID="27" v:groupContext="shape" v:layerMember="0" transform="translate(374.762,-83.9876)">
			<title>动态连接线.33</title>
			<path d="M7.09 337.41 L7.09 325.82" class="st9"/>
		</g>
		<g id="shape28-91" v:mID="28" v:groupContext="shape" transform="translate(19,-144.366)">
			<title>矩形.28</title>
			<desc>Dropout</desc>
			<v:userDefs>
				<v:ud v:nameU="visVersion" v:val="VT0(15):26"/>
			</v:userDefs>
			<v:textBlock v:margins="rect(4,4,4,4)" v:tabSpace="42.5197"/>
			<v:textRect cx="32.9657" cy="325.825" width="65.94" height="23.1766"/>
			<rect x="0" y="314.237" width="65.9314" height="23.1766" rx="5.66929" ry="5.66929" class="st11"/>
			<text x="9.64" y="330.03" class="st5" v:langID="2052"><v:paragraph v:horizAlign="1"/><v:tabList/>Dropout</text>		</g>
		<g id="shape30-94" v:mID="30" v:groupContext="shape" transform="translate(101.471,-144.366)">
			<title>矩形.41</title>
			<desc>Dropout</desc>
			<v:userDefs>
				<v:ud v:nameU="visVersion" v:val="VT0(15):26"/>
			</v:userDefs>
			<v:textBlock v:margins="rect(4,4,4,4)" v:tabSpace="42.5197"/>
			<v:textRect cx="32.9657" cy="325.825" width="65.94" height="23.1766"/>
			<rect x="0" y="314.237" width="65.9314" height="23.1766" rx="5.66929" ry="5.66929" class="st11"/>
			<text x="9.64" y="330.03" class="st5" v:langID="2052"><v:paragraph v:horizAlign="1"/><v:tabList/>Dropout</text>		</g>
		<g id="shape32-97" v:mID="32" v:groupContext="shape" transform="translate(183.942,-144.366)">
			<title>矩形.45</title>
			<desc>Dropout</desc>
			<v:userDefs>
				<v:ud v:nameU="visVersion" v:val="VT0(15):26"/>
			</v:userDefs>
			<v:textBlock v:margins="rect(4,4,4,4)" v:tabSpace="42.5197"/>
			<v:textRect cx="32.9657" cy="325.825" width="65.94" height="23.1766"/>
			<rect x="0" y="314.237" width="65.9314" height="23.1766" rx="5.66929" ry="5.66929" class="st11"/>
			<text x="9.64" y="330.03" class="st5" v:langID="2052"><v:paragraph v:horizAlign="1"/><v:tabList/>Dropout</text>		</g>
		<g id="shape36-100" v:mID="36" v:groupContext="shape" transform="translate(348.883,-144.366)">
			<title>矩形.53</title>
			<desc>Dropout</desc>
			<v:userDefs>
				<v:ud v:nameU="visVersion" v:val="VT0(15):26"/>
			</v:userDefs>
			<v:textBlock v:margins="rect(4,4,4,4)" v:tabSpace="42.5197"/>
			<v:textRect cx="32.9657" cy="325.825" width="65.94" height="23.1766"/>
			<rect x="0" y="314.237" width="65.9314" height="23.1766" rx="5.66929" ry="5.66929" class="st11"/>
			<text x="9.64" y="330.03" class="st5" v:langID="2052"><v:paragraph v:horizAlign="1"/><v:tabList/>Dropout</text>		</g>
		<g id="shape46-103" v:mID="46" v:groupContext="shape" v:layerMember="0" transform="translate(44.8791,-125.799)">
			<title>动态连接线.202</title>
			<path d="M7.09 337.41 L7.09 325.89" class="st9"/>
		</g>
		<g id="shape47-108" v:mID="47" v:groupContext="shape" v:layerMember="0" transform="translate(127.35,-125.799)">
			<title>动态连接线.203</title>
			<path d="M7.09 337.41 L7.09 325.89" class="st9"/>
		</g>
		<g id="shape48-113" v:mID="48" v:groupContext="shape" v:layerMember="0" transform="translate(209.821,-125.799)">
			<title>动态连接线.204</title>
			<path d="M7.09 337.41 L7.09 325.89" class="st9"/>
		</g>
		<g id="shape49-118" v:mID="49" v:groupContext="shape" v:layerMember="0" transform="translate(374.762,-125.799)">
			<title>动态连接线.205</title>
			<path d="M7.09 337.41 L7.09 325.89" class="st9"/>
		</g>
		<g id="shape59-123" v:mID="59" v:groupContext="shape" transform="translate(19,-186.177)">
			<title>矩形.59</title>
			<desc>RNN2</desc>
			<v:userDefs>
				<v:ud v:nameU="visVersion" v:val="VT0(15):26"/>
			</v:userDefs>
			<v:textBlock v:margins="rect(4,4,4,4)" v:tabSpace="42.5197"/>
			<v:textRect cx="32.9657" cy="325.825" width="65.94" height="23.1766"/>
			<rect x="0" y="314.237" width="65.9314" height="23.1766" rx="5.66929" ry="5.66929" class="st4"/>
			<text x="15.91" y="330.03" class="st5" v:langID="2052"><v:paragraph v:horizAlign="1"/><v:tabList/>RNN<tspan
						dy="-0.279em" class="st6" v:baseFontSize="14">2</tspan></text>		</g>
		<g id="shape60-127" v:mID="60" v:groupContext="shape" transform="translate(19,-227.988)">
			<title>矩形.60</title>
			<desc>h1, 2</desc>
			<v:userDefs>
				<v:ud v:nameU="visVersion" v:val="VT0(15):26"/>
			</v:userDefs>
			<v:textBlock v:margins="rect(4,4,4,4)" v:tabSpace="42.5197"/>
			<v:textRect cx="32.9657" cy="325.825" width="65.94" height="23.1766"/>
			<rect x="0" y="314.237" width="65.9314" height="23.1766" rx="5.66929" ry="5.66929" class="st7"/>
			<text x="22.25" y="330.04" class="st2" v:langID="2052"><v:paragraph v:horizAlign="1"/><v:tabList/>h<tspan dy="-0.279em"
						class="st3" v:baseFontSize="14">1, 2</tspan></text>		</g>
		<g id="shape61-131" v:mID="61" v:groupContext="shape" transform="translate(19,-269.799)">
			<title>矩形.61</title>
			<desc>Dropout</desc>
			<v:userDefs>
				<v:ud v:nameU="visVersion" v:val="VT0(15):26"/>
			</v:userDefs>
			<v:textBlock v:margins="rect(4,4,4,4)" v:tabSpace="42.5197"/>
			<v:textRect cx="32.9657" cy="325.825" width="65.94" height="23.1766"/>
			<rect x="0" y="314.237" width="65.9314" height="23.1766" rx="5.66929" ry="5.66929" class="st11"/>
			<text x="9.64" y="330.03" class="st5" v:langID="2052"><v:paragraph v:horizAlign="1"/><v:tabList/>Dropout</text>		</g>
		<g id="shape62-134" v:mID="62" v:groupContext="shape" transform="translate(101.471,-186.177)">
			<title>矩形.62</title>
			<desc>RNN2</desc>
			<v:userDefs>
				<v:ud v:nameU="visVersion" v:val="VT0(15):26"/>
			</v:userDefs>
			<v:textBlock v:margins="rect(4,4,4,4)" v:tabSpace="42.5197"/>
			<v:textRect cx="32.9657" cy="325.825" width="65.94" height="23.1766"/>
			<rect x="0" y="314.237" width="65.9314" height="23.1766" rx="5.66929" ry="5.66929" class="st4"/>
			<text x="15.91" y="330.03" class="st5" v:langID="2052"><v:paragraph v:horizAlign="1"/><v:tabList/>RNN<tspan
						dy="-0.279em" class="st6" v:baseFontSize="14">2</tspan></text>		</g>
		<g id="shape63-138" v:mID="63" v:groupContext="shape" transform="translate(101.471,-227.988)">
			<title>矩形.63</title>
			<desc>h2, 2</desc>
			<v:userDefs>
				<v:ud v:nameU="visVersion" v:val="VT0(15):26"/>
			</v:userDefs>
			<v:textBlock v:margins="rect(4,4,4,4)" v:tabSpace="42.5197"/>
			<v:textRect cx="32.9657" cy="325.825" width="65.94" height="23.1766"/>
			<rect x="0" y="314.237" width="65.9314" height="23.1766" rx="5.66929" ry="5.66929" class="st7"/>
			<text x="22.25" y="330.04" class="st2" v:langID="2052"><v:paragraph v:horizAlign="1"/><v:tabList/>h<tspan dy="-0.279em"
						class="st3" v:baseFontSize="14">2, 2</tspan></text>		</g>
		<g id="shape64-142" v:mID="64" v:groupContext="shape" transform="translate(101.471,-269.799)">
			<title>矩形.64</title>
			<desc>Dropout</desc>
			<v:userDefs>
				<v:ud v:nameU="visVersion" v:val="VT0(15):26"/>
			</v:userDefs>
			<v:textBlock v:margins="rect(4,4,4,4)" v:tabSpace="42.5197"/>
			<v:textRect cx="32.9657" cy="325.825" width="65.94" height="23.1766"/>
			<rect x="0" y="314.237" width="65.9314" height="23.1766" rx="5.66929" ry="5.66929" class="st11"/>
			<text x="9.64" y="330.03" class="st5" v:langID="2052"><v:paragraph v:horizAlign="1"/><v:tabList/>Dropout</text>		</g>
		<g id="shape65-145" v:mID="65" v:groupContext="shape" transform="translate(183.942,-186.177)">
			<title>矩形.65</title>
			<desc>RNN2</desc>
			<v:userDefs>
				<v:ud v:nameU="visVersion" v:val="VT0(15):26"/>
			</v:userDefs>
			<v:textBlock v:margins="rect(4,4,4,4)" v:tabSpace="42.5197"/>
			<v:textRect cx="32.9657" cy="325.825" width="65.94" height="23.1766"/>
			<rect x="0" y="314.237" width="65.9314" height="23.1766" rx="5.66929" ry="5.66929" class="st4"/>
			<text x="15.91" y="330.03" class="st5" v:langID="2052"><v:paragraph v:horizAlign="1"/><v:tabList/>RNN<tspan
						dy="-0.279em" class="st6" v:baseFontSize="14">2</tspan></text>		</g>
		<g id="shape66-149" v:mID="66" v:groupContext="shape" transform="translate(183.942,-227.988)">
			<title>矩形.66</title>
			<desc>h3, 2</desc>
			<v:userDefs>
				<v:ud v:nameU="visVersion" v:val="VT0(15):26"/>
			</v:userDefs>
			<v:textBlock v:margins="rect(4,4,4,4)" v:tabSpace="42.5197"/>
			<v:textRect cx="32.9657" cy="325.825" width="65.94" height="23.1766"/>
			<rect x="0" y="314.237" width="65.9314" height="23.1766" rx="5.66929" ry="5.66929" class="st7"/>
			<text x="22.25" y="330.04" class="st2" v:langID="2052"><v:paragraph v:horizAlign="1"/><v:tabList/>h<tspan dy="-0.279em"
						class="st3" v:baseFontSize="14">3, 2</tspan></text>		</g>
		<g id="shape67-153" v:mID="67" v:groupContext="shape" transform="translate(183.942,-269.799)">
			<title>矩形.67</title>
			<desc>Dropout</desc>
			<v:userDefs>
				<v:ud v:nameU="visVersion" v:val="VT0(15):26"/>
			</v:userDefs>
			<v:textBlock v:margins="rect(4,4,4,4)" v:tabSpace="42.5197"/>
			<v:textRect cx="32.9657" cy="325.825" width="65.94" height="23.1766"/>
			<rect x="0" y="314.237" width="65.9314" height="23.1766" rx="5.66929" ry="5.66929" class="st11"/>
			<text x="9.64" y="330.03" class="st5" v:langID="2052"><v:paragraph v:horizAlign="1"/><v:tabList/>Dropout</text>		</g>
		<g id="shape71-156" v:mID="71" v:groupContext="shape" transform="translate(348.883,-186.177)">
			<title>矩形.71</title>
			<desc>RNN2</desc>
			<v:userDefs>
				<v:ud v:nameU="visVersion" v:val="VT0(15):26"/>
			</v:userDefs>
			<v:textBlock v:margins="rect(4,4,4,4)" v:tabSpace="42.5197"/>
			<v:textRect cx="32.9657" cy="325.825" width="65.94" height="23.1766"/>
			<rect x="0" y="314.237" width="65.9314" height="23.1766" rx="5.66929" ry="5.66929" class="st4"/>
			<text x="15.91" y="330.03" class="st5" v:langID="2052"><v:paragraph v:horizAlign="1"/><v:tabList/>RNN<tspan
						dy="-0.279em" class="st6" v:baseFontSize="14">2</tspan></text>		</g>
		<g id="shape72-160" v:mID="72" v:groupContext="shape" transform="translate(348.883,-227.988)">
			<title>矩形.72</title>
			<desc>hT, 2</desc>
			<v:userDefs>
				<v:ud v:nameU="visVersion" v:val="VT0(15):26"/>
			</v:userDefs>
			<v:textBlock v:margins="rect(4,4,4,4)" v:tabSpace="42.5197"/>
			<v:textRect cx="32.9657" cy="325.825" width="65.94" height="23.1766"/>
			<rect x="0" y="314.237" width="65.9314" height="23.1766" rx="5.66929" ry="5.66929" class="st7"/>
			<text x="21.99" y="330.04" class="st2" v:langID="2052"><v:paragraph v:horizAlign="1"/><v:tabList/>h<tspan dy="-0.279em"
						class="st8" v:baseFontSize="14">T</tspan><tspan class="st3" v:baseFontSize="14">, 2</tspan></text>		</g>
		<g id="shape73-165" v:mID="73" v:groupContext="shape" transform="translate(348.883,-269.799)">
			<title>矩形.73</title>
			<desc>Dropout</desc>
			<v:userDefs>
				<v:ud v:nameU="visVersion" v:val="VT0(15):26"/>
			</v:userDefs>
			<v:textBlock v:margins="rect(4,4,4,4)" v:tabSpace="42.5197"/>
			<v:textRect cx="32.9657" cy="325.825" width="65.94" height="23.1766"/>
			<rect x="0" y="314.237" width="65.9314" height="23.1766" rx="5.66929" ry="5.66929" class="st11"/>
			<text x="9.64" y="330.03" class="st5" v:langID="2052"><v:paragraph v:horizAlign="1"/><v:tabList/>Dropout</text>		</g>
		<g id="shape74-168" v:mID="74" v:groupContext="shape" v:layerMember="0" transform="translate(44.8791,-209.353)">
			<title>动态连接线.74</title>
			<path d="M7.09 337.41 L7.09 325.82" class="st9"/>
		</g>
		<g id="shape75-173" v:mID="75" v:groupContext="shape" v:layerMember="0" transform="translate(44.8791,-251.164)">
			<title>动态连接线.75</title>
			<path d="M7.09 337.41 L7.09 325.82" class="st9"/>
		</g>
		<g id="shape77-178" v:mID="77" v:groupContext="shape" v:layerMember="0" transform="translate(127.35,-251.164)">
			<title>动态连接线.77</title>
			<path d="M7.09 337.41 L7.09 325.82" class="st9"/>
		</g>
		<g id="shape78-183" v:mID="78" v:groupContext="shape" v:layerMember="0" transform="translate(127.35,-209.353)">
			<title>动态连接线.78</title>
			<path d="M7.09 337.41 L7.09 325.82" class="st9"/>
		</g>
		<g id="shape79-188" v:mID="79" v:groupContext="shape" v:layerMember="0" transform="translate(209.821,-209.353)">
			<title>动态连接线.79</title>
			<path d="M7.09 337.41 L7.09 325.82" class="st9"/>
		</g>
		<g id="shape81-193" v:mID="81" v:groupContext="shape" v:layerMember="0" transform="translate(209.821,-251.164)">
			<title>动态连接线.81</title>
			<path d="M7.09 337.41 L7.09 325.82" class="st9"/>
		</g>
		<g id="shape84-198" v:mID="84" v:groupContext="shape" v:layerMember="0" transform="translate(374.762,-209.353)">
			<title>动态连接线.84</title>
			<path d="M7.09 337.41 L7.09 325.82" class="st9"/>
		</g>
		<g id="shape85-203" v:mID="85" v:groupContext="shape" v:layerMember="0" transform="translate(374.762,-251.164)">
			<title>动态连接线.85</title>
			<path d="M7.09 337.41 L7.09 325.82" class="st9"/>
		</g>
		<g id="shape104-208" v:mID="104" v:groupContext="shape" v:layerMember="0" transform="translate(44.8791,-292.975)">
			<title>动态连接线.104</title>
			<path d="M7.09 337.41 L7.09 325.89" class="st9"/>
		</g>
		<g id="shape105-213" v:mID="105" v:groupContext="shape" v:layerMember="0" transform="translate(127.35,-292.975)">
			<title>动态连接线.105</title>
			<path d="M7.09 337.41 L7.09 325.89" class="st9"/>
		</g>
		<g id="shape106-218" v:mID="106" v:groupContext="shape" v:layerMember="0" transform="translate(209.821,-292.975)">
			<title>动态连接线.106</title>
			<path d="M7.09 337.41 L7.09 325.89" class="st9"/>
		</g>
		<g id="shape107-223" v:mID="107" v:groupContext="shape" v:layerMember="0" transform="translate(374.762,-292.975)">
			<title>动态连接线.107</title>
			<path d="M7.09 337.41 L7.09 325.89" class="st9"/>
		</g>
		<g id="shape135-228" v:mID="135" v:groupContext="shape" v:layerMember="0" transform="translate(84.9314,-114.21)">
			<title>动态连接线</title>
			<path d="M0 337.41 L3.17 337.41 A3.168 3.168 0 0 1 6.34 340.58 L6.34 374.12 A5.10173 5.10173 -180 0 0 11.44 379.22 L16.54
						 379.22" class="st12"/>
		</g>
		<g id="shape136-234" v:mID="136" v:groupContext="shape" v:layerMember="0" transform="translate(167.402,-114.21)">
			<title>动态连接线.136</title>
			<path d="M0 337.41 L3.17 337.41 A3.168 3.168 0 0 1 6.34 340.58 L6.34 374.12 A5.10173 5.10173 -180 0 0 11.44 379.22 L16.54
						 379.22" class="st12"/>
		</g>
		<g id="shape137-239" v:mID="137" v:groupContext="shape" v:layerMember="0" transform="translate(249.873,-114.21)">
			<title>动态连接线.137</title>
			<path d="M0 337.41 L3.17 337.41 A3.168 3.168 0 0 1 6.34 340.58 L6.34 374.12 A5.10173 5.10173 -180 0 0 11.44 379.22 L16.54
						 379.22" class="st12"/>
		</g>
		<g id="shape138-244" v:mID="138" v:groupContext="shape" v:layerMember="0" transform="translate(332.344,-114.21)">
			<title>动态连接线.138</title>
			<path d="M0 337.41 L3.17 337.41 A3.168 3.168 0 0 1 6.34 340.58 L6.34 374.12 A5.10173 5.10173 -180 0 0 11.44 379.22 L16.54
						 379.22" class="st12"/>
		</g>
		<g id="shape139-249" v:mID="139" v:groupContext="shape" v:layerMember="0" transform="translate(84.9314,-239.576)">
			<title>动态连接线.139</title>
			<path d="M0 337.41 L3.17 337.41 A3.168 3.168 0 0 1 6.34 340.58 L6.34 374.12 A5.10173 5.10173 -180 0 0 11.44 379.22 L16.54
						 379.22" class="st12"/>
		</g>
		<g id="shape140-254" v:mID="140" v:groupContext="shape" v:layerMember="0" transform="translate(167.402,-239.576)">
			<title>动态连接线.140</title>
			<path d="M0 337.41 L3.17 337.41 A3.168 3.168 0 0 1 6.34 340.58 L6.34 374.12 A5.10173 5.10173 -180 0 0 11.44 379.22 L16.54
						 379.22" class="st12"/>
		</g>
		<g id="shape141-259" v:mID="141" v:groupContext="shape" v:layerMember="0" transform="translate(249.873,-239.576)">
			<title>动态连接线.141</title>
			<path d="M0 337.41 L3.17 337.41 A3.168 3.168 0 0 1 6.34 340.58 L6.34 374.12 A5.10173 5.10173 -180 0 0 11.44 379.22 L16.54
						 379.22" class="st12"/>
		</g>
		<g id="shape142-264" v:mID="142" v:groupContext="shape" v:layerMember="0" transform="translate(332.344,-239.576)">
			<title>动态连接线.142</title>
			<path d="M0 337.41 L3.17 337.41 A3.168 3.168 0 0 1 6.34 340.58 L6.34 374.12 A5.10173 5.10173 -180 0 0 11.44 379.22 L16.54
						 379.22" class="st12"/>
		</g>
		<g id="shape143-269" v:mID="143" v:groupContext="shape" v:layerMember="0" transform="translate(44.8791,-167.542)">
			<title>动态连接线.143</title>
			<path d="M7.09 337.41 L7.09 325.82" class="st9"/>
		</g>
		<g id="shape144-274" v:mID="144" v:groupContext="shape" v:layerMember="0" transform="translate(127.35,-167.542)">
			<title>动态连接线.144</title>
			<path d="M7.09 337.41 L7.09 325.82" class="st9"/>
		</g>
		<g id="shape145-279" v:mID="145" v:groupContext="shape" v:layerMember="0" transform="translate(209.821,-167.542)">
			<title>动态连接线.145</title>
			<path d="M7.09 337.41 L7.09 325.82" class="st9"/>
		</g>
		<g id="shape146-284" v:mID="146" v:groupContext="shape" v:layerMember="0" transform="translate(374.762,-167.542)">
			<title>动态连接线.146</title>
			<path d="M7.09 337.41 L7.09 325.82" class="st9"/>
		</g>
		<g id="group147-289" transform="translate(19,-311.542)" v:mID="147" v:groupContext="group">
			<title>工作表.147</title>
			<g id="shape86-290" v:mID="86" v:groupContext="shape">
				<title>矩形.86</title>
				<v:userDefs>
					<v:ud v:nameU="visVersion" v:val="VT0(15):26"/>
				</v:userDefs>
				<rect x="0" y="337.348" width="65.9314" height="0.0649789" rx="0.0324895" ry="0.0324895" class="st13"/>
			</g>
			<g id="shape88-292" v:mID="88" v:groupContext="shape" transform="translate(82.4708,0)">
				<title>矩形.88</title>
				<v:userDefs>
					<v:ud v:nameU="visVersion" v:val="VT0(15):26"/>
				</v:userDefs>
				<rect x="0" y="337.348" width="65.9314" height="0.0649789" rx="0.0324895" ry="0.0324895" class="st13"/>
			</g>
			<g id="shape90-294" v:mID="90" v:groupContext="shape" transform="translate(164.942,0)">
				<title>矩形.90</title>
				<v:userDefs>
					<v:ud v:nameU="visVersion" v:val="VT0(15):26"/>
				</v:userDefs>
				<rect x="0" y="337.348" width="65.9314" height="0.0649789" rx="0.0324895" ry="0.0324895" class="st13"/>
			</g>
			<g id="shape94-296" v:mID="94" v:groupContext="shape" transform="translate(329.883,0)">
				<title>矩形.94</title>
				<v:userDefs>
					<v:ud v:nameU="visVersion" v:val="VT0(15):26"/>
				</v:userDefs>
				<rect x="0" y="337.348" width="65.9314" height="0.0649789" rx="0.0324895" ry="0.0324895" class="st13"/>
			</g>
		</g>
		<g id="group148-298" transform="translate(266.412,-19)" v:mID="148" v:groupContext="group">
			<title>工作表.148</title>
			<g id="shape10-299" v:mID="10" v:groupContext="shape">
				<title>矩形.10</title>
				<desc>…</desc>
				<v:userDefs>
					<v:ud v:nameU="visVersion" v:val="VT0(15):26"/>
				</v:userDefs>
				<v:textBlock v:margins="rect(4,4,4,4)" v:tabSpace="42.5197"/>
				<v:textRect cx="32.9657" cy="325.825" width="65.94" height="23.1766"/>
				<rect x="0" y="314.237" width="65.9314" height="23.1766" rx="5.66929" ry="5.66929" class="st13"/>
				<text x="25.97" y="330.43" class="st14" v:langID="2052"><v:paragraph v:horizAlign="1"/><v:tabList/>…</text>			</g>
			<g id="shape11-302" v:mID="11" v:groupContext="shape" transform="translate(1.51879E-13,-41.811)">
				<title>矩形.16</title>
				<desc>…</desc>
				<v:userDefs>
					<v:ud v:nameU="visVersion" v:val="VT0(15):26"/>
				</v:userDefs>
				<v:textBlock v:margins="rect(4,4,4,4)" v:tabSpace="42.5197"/>
				<v:textRect cx="32.9657" cy="325.825" width="65.94" height="23.1766"/>
				<rect x="0" y="314.237" width="65.9314" height="23.1766" rx="5.66929" ry="5.66929" class="st13"/>
				<text x="25.97" y="330.43" class="st14" v:langID="2052"><v:paragraph v:horizAlign="1"/><v:tabList/>…</text>			</g>
			<g id="shape12-305" v:mID="12" v:groupContext="shape" transform="translate(1.51879E-13,-83.622)">
				<title>矩形.17</title>
				<desc>…</desc>
				<v:userDefs>
					<v:ud v:nameU="visVersion" v:val="VT0(15):26"/>
				</v:userDefs>
				<v:textBlock v:margins="rect(4,4,4,4)" v:tabSpace="42.5197"/>
				<v:textRect cx="32.9657" cy="325.825" width="65.94" height="23.1766"/>
				<rect x="0" y="314.237" width="65.9314" height="23.1766" rx="5.66929" ry="5.66929" class="st13"/>
				<text x="25.97" y="330.43" class="st14" v:langID="2052"><v:paragraph v:horizAlign="1"/><v:tabList/>…</text>			</g>
			<g id="shape34-308" v:mID="34" v:groupContext="shape" transform="translate(2.71783E-13,-125.366)">
				<title>矩形.49</title>
				<desc>…</desc>
				<v:userDefs>
					<v:ud v:nameU="visVersion" v:val="VT0(15):26"/>
				</v:userDefs>
				<v:textBlock v:margins="rect(4,4,4,4)" v:tabSpace="42.5197"/>
				<v:textRect cx="32.9657" cy="325.825" width="65.94" height="23.1766"/>
				<rect x="0" y="314.237" width="65.9314" height="23.1766" rx="5.66929" ry="5.66929" class="st13"/>
				<text x="25.97" y="330.43" class="st14" v:langID="2052"><v:paragraph v:horizAlign="1"/><v:tabList/>…</text>			</g>
			<g id="shape68-311" v:mID="68" v:groupContext="shape" transform="translate(1.9984E-14,-167.177)">
				<title>矩形.68</title>
				<desc>…</desc>
				<v:userDefs>
					<v:ud v:nameU="visVersion" v:val="VT0(15):26"/>
				</v:userDefs>
				<v:textBlock v:margins="rect(4,4,4,4)" v:tabSpace="42.5197"/>
				<v:textRect cx="32.9657" cy="325.825" width="65.94" height="23.1766"/>
				<rect x="0" y="314.237" width="65.9314" height="23.1766" rx="5.66929" ry="5.66929" class="st13"/>
				<text x="25.97" y="330.43" class="st14" v:langID="2052"><v:paragraph v:horizAlign="1"/><v:tabList/>…</text>			</g>
			<g id="shape69-314" v:mID="69" v:groupContext="shape" transform="translate(1.9984E-14,-208.988)">
				<title>矩形.69</title>
				<desc>…</desc>
				<v:userDefs>
					<v:ud v:nameU="visVersion" v:val="VT0(15):26"/>
				</v:userDefs>
				<v:textBlock v:margins="rect(4,4,4,4)" v:tabSpace="42.5197"/>
				<v:textRect cx="32.9657" cy="325.825" width="65.94" height="23.1766"/>
				<rect x="0" y="314.237" width="65.9314" height="23.1766" rx="5.66929" ry="5.66929" class="st13"/>
				<text x="25.97" y="330.43" class="st14" v:langID="2052"><v:paragraph v:horizAlign="1"/><v:tabList/>…</text>			</g>
			<g id="shape70-317" v:mID="70" v:groupContext="shape" transform="translate(1.9984E-14,-250.799)">
				<title>矩形.70</title>
				<desc>…</desc>
				<v:userDefs>
					<v:ud v:nameU="visVersion" v:val="VT0(15):26"/>
				</v:userDefs>
				<v:textBlock v:margins="rect(4,4,4,4)" v:tabSpace="42.5197"/>
				<v:textRect cx="32.9657" cy="325.825" width="65.94" height="23.1766"/>
				<rect x="0" y="314.237" width="65.9314" height="23.1766" rx="5.66929" ry="5.66929" class="st13"/>
				<text x="25.97" y="330.43" class="st14" v:langID="2052"><v:paragraph v:horizAlign="1"/><v:tabList/>…</text>			</g>
		</g>
	</g>
</svg>
