<?xml version="1.0" encoding="UTF-8" standalone="no"?>
<!DOCTYPE svg PUBLIC "-//W3C//DTD SVG 1.1//EN" "http://www.w3.org/Graphics/SVG/1.1/DTD/svg11.dtd">
<!-- 由 Microsoft Visio, SVG Export 生成 MyModel.svg 页-1 -->
<svg xmlns="http://www.w3.org/2000/svg" xmlns:xlink="http://www.w3.org/1999/xlink" xmlns:ev="http://www.w3.org/2001/xml-events"
		xmlns:v="http://schemas.microsoft.com/visio/2003/SVGExtensions/" width="7.33779in" height="4.83093in"
		viewBox="0 0 528.321 347.827" xml:space="preserve" color-interpolation-filters="sRGB" class="st18">
	<v:documentProperties v:langID="2052" v:metric="true" v:viewMarkup="false"/>

	<style type="text/css">
	<![CDATA[
		.st1 {fill:#fce0e1;stroke:#000000;stroke-width:1}
		.st2 {fill:#000000;font-family:宋体;font-size:1.16666em}
		.st3 {fill:none;stroke:none;stroke-width:1}
		.st4 {fill:#fff2cc;stroke:#000000;stroke-width:1}
		.st5 {fill:#000000;font-family:Times New Roman;font-size:1.16666em}
		.st6 {fill:#deebf6;stroke:#000000;stroke-width:1}
		.st7 {font-family:Times New Roman;font-size:1em}
		.st8 {font-family:Times New Roman;font-size:1em;font-style:italic}
		.st9 {fill:#fbe5d5;stroke:#000000;stroke-width:1}
		.st10 {fill:#dae2f3;stroke:#000000;stroke-width:1}
		.st11 {font-size:1em}
		.st12 {fill:#dbdfef;stroke:#000000;stroke-width:1}
		.st13 {fill:#c5bedf;stroke:#000000;stroke-width:1}
		.st14 {fill:#e2efd9;stroke:#000000;stroke-width:1}
		.st15 {marker-end:url(#mrkr4-154);stroke:#000000;stroke-linecap:round;stroke-linejoin:round;stroke-width:1}
		.st16 {fill:#000000;fill-opacity:1;stroke:#000000;stroke-opacity:1;stroke-width:0.28409090909091}
		.st17 {marker-end:url(#mrkr4-275);stroke:#000000;stroke-linecap:round;stroke-linejoin:round;stroke-width:1}
		.st18 {fill:none;fill-rule:evenodd;font-size:12px;overflow:visible;stroke-linecap:square;stroke-miterlimit:3}
	]]>
	</style>

	<defs id="Markers">
		<g id="lend4">
			<path d="M 2 1 L 0 0 L 2 -1 L 2 1 " style="stroke:none"/>
		</g>
		<marker id="mrkr4-154" class="st16" v:arrowType="4" v:arrowSize="2" v:setback="7.04" refX="-7.04" orient="auto"
				markerUnits="strokeWidth" overflow="visible">
			<use xlink:href="#lend4" transform="scale(-3.52,-3.52) "/>
		</marker>
		<marker id="mrkr4-275" class="st16" v:arrowType="4" v:arrowSize="2" v:setback="0" refX="-0" orient="auto"
				markerUnits="strokeWidth" overflow="visible">
			<use xlink:href="#lend4" transform="scale(-3.52,-3.52) "/>
		</marker>
	</defs>
	<g v:mID="0" v:index="1" v:groupContext="foregroundPage">
		<title>页-1</title>
		<v:pageProperties v:drawingScale="0.0393701" v:pageScale="0.0393701" v:drawingUnits="24" v:shadowOffsetX="8.50394"
				v:shadowOffsetY="-8.50394"/>
		<v:layer v:name="连接线" v:index="0"/>
		<g id="shape13-1" v:mID="13" v:groupContext="shape" transform="translate(1.69861,-46.5568)">
			<title>工作表.13</title>
			<desc>嵌入层</desc>
			<v:userDefs>
				<v:ud v:nameU="visVersion" v:val="VT0(15):26"/>
			</v:userDefs>
			<v:textBlock v:margins="rect(4,4,4,4)" v:tabSpace="42.5197"/>
			<v:textRect cx="262.572" cy="332.236" width="525.15" height="31.1811"/>
			<rect x="0" y="316.646" width="525.145" height="31.1811" rx="5.66929" ry="5.66929" class="st1"/>
			<text x="241.57" y="336.84" class="st2" v:langID="2052"><v:paragraph v:horizAlign="1"/><v:tabList/>嵌入层</text>		</g>
		<g id="group14-4" transform="translate(1.44286,-46.5568)" v:mID="14" v:groupContext="group">
			<title>工作表.14</title>
			<g id="shape8-5" v:mID="8" v:groupContext="shape">
				<title>工作表.8</title>
				<v:userDefs>
					<v:ud v:nameU="visVersion" v:val="VT0(15):26"/>
				</v:userDefs>
				<rect x="0" y="316.646" width="110.723" height="31.1811" rx="5.66929" ry="5.66929" class="st3"/>
			</g>
			<g id="shape9-7" v:mID="9" v:groupContext="shape" transform="translate(125.064,5.68434E-14)">
				<title>工作表.9</title>
				<v:userDefs>
					<v:ud v:nameU="visVersion" v:val="VT0(15):26"/>
				</v:userDefs>
				<rect x="0" y="316.646" width="110.723" height="31.1811" rx="5.66929" ry="5.66929" class="st3"/>
			</g>
			<g id="shape10-9" v:mID="10" v:groupContext="shape" transform="translate(250.128,5.68434E-14)">
				<title>工作表.10</title>
				<v:userDefs>
					<v:ud v:nameU="visVersion" v:val="VT0(15):26"/>
				</v:userDefs>
				<rect x="0" y="316.646" width="110.723" height="31.1811" rx="5.66929" ry="5.66929" class="st3"/>
			</g>
			<g id="shape12-11" v:mID="12" v:groupContext="shape" transform="translate(414.934,5.68434E-14)">
				<title>工作表.12</title>
				<v:userDefs>
					<v:ud v:nameU="visVersion" v:val="VT0(15):26"/>
				</v:userDefs>
				<rect x="0" y="316.646" width="110.723" height="31.1811" rx="5.66929" ry="5.66929" class="st3"/>
			</g>
		</g>
		<g id="shape17-13" v:mID="17" v:groupContext="shape" transform="translate(1.69861,-92.1136)">
			<title>工作表.17</title>
			<desc>BERT</desc>
			<v:userDefs>
				<v:ud v:nameU="visVersion" v:val="VT0(15):26"/>
			</v:userDefs>
			<v:textBlock v:margins="rect(4,4,4,4)" v:tabSpace="42.5197"/>
			<v:textRect cx="262.572" cy="332.236" width="525.15" height="31.1811"/>
			<rect x="0" y="316.646" width="525.145" height="31.1811" rx="5.66929" ry="5.66929" class="st4"/>
			<text x="244.68" y="336.44" class="st5" v:langID="2052"><v:paragraph v:horizAlign="1"/><v:tabList/>BERT</text>		</g>
		<g id="group18-16" transform="translate(1.44286,-92.1136)" v:mID="18" v:groupContext="group">
			<title>工作表.18</title>
			<g id="shape19-17" v:mID="19" v:groupContext="shape">
				<title>工作表.19</title>
				<v:userDefs>
					<v:ud v:nameU="visVersion" v:val="VT0(15):26"/>
				</v:userDefs>
				<rect x="0" y="316.646" width="110.723" height="31.1811" rx="5.66929" ry="5.66929" class="st3"/>
			</g>
			<g id="shape20-19" v:mID="20" v:groupContext="shape" transform="translate(125.064,5.68434E-14)">
				<title>工作表.20</title>
				<v:userDefs>
					<v:ud v:nameU="visVersion" v:val="VT0(15):26"/>
				</v:userDefs>
				<rect x="0" y="316.646" width="110.723" height="31.1811" rx="5.66929" ry="5.66929" class="st3"/>
			</g>
			<g id="shape21-21" v:mID="21" v:groupContext="shape" transform="translate(250.128,5.68434E-14)">
				<title>工作表.21</title>
				<v:userDefs>
					<v:ud v:nameU="visVersion" v:val="VT0(15):26"/>
				</v:userDefs>
				<rect x="0" y="316.646" width="110.723" height="31.1811" rx="5.66929" ry="5.66929" class="st3"/>
			</g>
			<g id="shape22-23" v:mID="22" v:groupContext="shape" transform="translate(414.934,5.68434E-14)">
				<title>工作表.22</title>
				<v:userDefs>
					<v:ud v:nameU="visVersion" v:val="VT0(15):26"/>
				</v:userDefs>
				<rect x="0" y="316.646" width="110.723" height="31.1811" rx="5.66929" ry="5.66929" class="st3"/>
			</g>
		</g>
		<g id="shape24-25" v:mID="24" v:groupContext="shape" transform="translate(1.44286,-137.67)">
			<title>工作表.24</title>
			<desc>句子1编码信息</desc>
			<v:userDefs>
				<v:ud v:nameU="visVersion" v:val="VT0(15):26"/>
			</v:userDefs>
			<v:textBlock v:margins="rect(4,4,4,4)" v:tabSpace="42.5197"/>
			<v:textRect cx="55.3615" cy="332.236" width="110.73" height="31.1811"/>
			<rect x="0" y="316.646" width="110.723" height="31.1811" rx="5.66929" ry="5.66929" class="st6"/>
			<text x="9.86" y="336.84" class="st2" v:langID="2052"><v:paragraph v:horizAlign="1"/><v:tabList/>句子<tspan class="st7">1</tspan>编码信息</text>		</g>
		<g id="shape25-29" v:mID="25" v:groupContext="shape" transform="translate(126.507,-137.67)">
			<title>工作表.25</title>
			<desc>句子2编码信息</desc>
			<v:userDefs>
				<v:ud v:nameU="visVersion" v:val="VT0(15):26"/>
			</v:userDefs>
			<v:textBlock v:margins="rect(4,4,4,4)" v:tabSpace="42.5197"/>
			<v:textRect cx="55.3615" cy="332.236" width="110.73" height="31.1811"/>
			<rect x="0" y="316.646" width="110.723" height="31.1811" rx="5.66929" ry="5.66929" class="st6"/>
			<text x="9.86" y="336.84" class="st2" v:langID="2052"><v:paragraph v:horizAlign="1"/><v:tabList/>句子<tspan class="st7">2</tspan>编码信息</text>		</g>
		<g id="shape26-33" v:mID="26" v:groupContext="shape" transform="translate(251.571,-137.67)">
			<title>工作表.26</title>
			<desc>句子3编码信息</desc>
			<v:userDefs>
				<v:ud v:nameU="visVersion" v:val="VT0(15):26"/>
			</v:userDefs>
			<v:textBlock v:margins="rect(4,4,4,4)" v:tabSpace="42.5197"/>
			<v:textRect cx="55.3615" cy="332.236" width="110.73" height="31.1811"/>
			<rect x="0" y="316.646" width="110.723" height="31.1811" rx="5.66929" ry="5.66929" class="st6"/>
			<text x="9.86" y="336.84" class="st2" v:langID="2052"><v:paragraph v:horizAlign="1"/><v:tabList/>句子<tspan class="st7">3</tspan>编码信息</text>		</g>
		<g id="shape27-37" v:mID="27" v:groupContext="shape" transform="translate(376.635,-137.67)">
			<title>工作表.27</title>
			<desc>…</desc>
			<v:userDefs>
				<v:ud v:nameU="visVersion" v:val="VT0(15):26"/>
			</v:userDefs>
			<v:textBlock v:margins="rect(4,4,4,4)" v:tabSpace="42.5197"/>
			<v:textRect cx="12.7004" cy="332.236" width="25.41" height="31.1811"/>
			<rect x="0" y="316.646" width="25.4007" height="31.1811" rx="5.66929" ry="5.66929" class="st3"/>
			<text x="5.7" y="336.84" class="st2" v:langID="2052"><v:paragraph v:horizAlign="1"/><v:tabList/>…</text>		</g>
		<g id="shape28-40" v:mID="28" v:groupContext="shape" transform="translate(416.376,-137.67)">
			<title>工作表.28</title>
			<desc>句子n编码信息</desc>
			<v:userDefs>
				<v:ud v:nameU="visVersion" v:val="VT0(15):26"/>
			</v:userDefs>
			<v:textBlock v:margins="rect(4,4,4,4)" v:tabSpace="42.5197"/>
			<v:textRect cx="55.3615" cy="332.236" width="110.73" height="31.1811"/>
			<rect x="0" y="316.646" width="110.723" height="31.1811" rx="5.66929" ry="5.66929" class="st6"/>
			<text x="9.86" y="336.84" class="st2" v:langID="2052"><v:paragraph v:horizAlign="1"/><v:tabList/>句子<tspan class="st8">n</tspan>编码信息</text>		</g>
		<g id="shape39-44" v:mID="39" v:groupContext="shape" transform="translate(1.44286,-183.227)">
			<title>工作表.39</title>
			<desc>LSTM</desc>
			<v:userDefs>
				<v:ud v:nameU="visVersion" v:val="VT0(15):26"/>
			</v:userDefs>
			<v:textBlock v:margins="rect(4,4,4,4)" v:tabSpace="42.5197"/>
			<v:textRect cx="55.3615" cy="332.236" width="110.73" height="31.1811"/>
			<rect x="0" y="316.646" width="110.723" height="31.1811" rx="5.66929" ry="5.66929" class="st9"/>
			<text x="36.69" y="336.44" class="st5" v:langID="2052"><v:paragraph v:horizAlign="1"/><v:tabList/>LSTM</text>		</g>
		<g id="shape40-47" v:mID="40" v:groupContext="shape" transform="translate(126.507,-183.227)">
			<title>工作表.40</title>
			<desc>LSTM</desc>
			<v:userDefs>
				<v:ud v:nameU="visVersion" v:val="VT0(15):26"/>
			</v:userDefs>
			<v:textBlock v:margins="rect(4,4,4,4)" v:tabSpace="42.5197"/>
			<v:textRect cx="55.3615" cy="332.236" width="110.73" height="31.1811"/>
			<rect x="0" y="316.646" width="110.723" height="31.1811" rx="5.66929" ry="5.66929" class="st9"/>
			<text x="36.69" y="336.44" class="st5" v:langID="2052"><v:paragraph v:horizAlign="1"/><v:tabList/>LSTM</text>		</g>
		<g id="shape41-50" v:mID="41" v:groupContext="shape" transform="translate(251.571,-183.227)">
			<title>工作表.41</title>
			<desc>LSTM</desc>
			<v:userDefs>
				<v:ud v:nameU="visVersion" v:val="VT0(15):26"/>
			</v:userDefs>
			<v:textBlock v:margins="rect(4,4,4,4)" v:tabSpace="42.5197"/>
			<v:textRect cx="55.3615" cy="332.236" width="110.73" height="31.1811"/>
			<rect x="0" y="316.646" width="110.723" height="31.1811" rx="5.66929" ry="5.66929" class="st9"/>
			<text x="36.69" y="336.44" class="st5" v:langID="1033"><v:paragraph v:horizAlign="1"/><v:tabList/>LSTM</text>		</g>
		<g id="shape42-53" v:mID="42" v:groupContext="shape" transform="translate(376.635,-183.227)">
			<title>工作表.42</title>
			<desc>…</desc>
			<v:userDefs>
				<v:ud v:nameU="visVersion" v:val="VT0(15):26"/>
			</v:userDefs>
			<v:textBlock v:margins="rect(4,4,4,4)" v:tabSpace="42.5197"/>
			<v:textRect cx="12.7004" cy="332.236" width="25.41" height="31.1811"/>
			<rect x="0" y="316.646" width="25.4007" height="31.1811" rx="5.66929" ry="5.66929" class="st3"/>
			<text x="5.7" y="336.84" class="st2" v:langID="2052"><v:paragraph v:horizAlign="1"/><v:tabList/>…</text>		</g>
		<g id="shape43-56" v:mID="43" v:groupContext="shape" transform="translate(416.376,-183.227)">
			<title>工作表.43</title>
			<desc>LSTM</desc>
			<v:userDefs>
				<v:ud v:nameU="visVersion" v:val="VT0(15):26"/>
			</v:userDefs>
			<v:textBlock v:margins="rect(4,4,4,4)" v:tabSpace="42.5197"/>
			<v:textRect cx="55.3615" cy="332.236" width="110.73" height="31.1811"/>
			<rect x="0" y="316.646" width="110.723" height="31.1811" rx="5.66929" ry="5.66929" class="st9"/>
			<text x="36.69" y="336.44" class="st5" v:langID="1033"><v:paragraph v:horizAlign="1"/><v:tabList/>LSTM</text>		</g>
		<g id="shape46-59" v:mID="46" v:groupContext="shape" transform="translate(1.44286,-228.784)">
			<title>工作表.46</title>
			<desc>融合了上下文的 句子1编码信息</desc>
			<v:userDefs>
				<v:ud v:nameU="visVersion" v:val="VT0(15):26"/>
			</v:userDefs>
			<v:textBlock v:margins="rect(4,4,4,4)" v:tabSpace="42.5197"/>
			<v:textRect cx="55.3615" cy="328.693" width="110.73" height="38.2677"/>
			<rect x="0" y="309.559" width="110.723" height="38.2677" rx="5.66929" ry="5.66929" class="st10"/>
			<text x="6.36" y="324.09" class="st2" v:langID="2052"><v:paragraph v:horizAlign="1"/><v:tabList/>融合了上下文的<v:lf/><tspan
						x="9.86" dy="1.316em" class="st11">句子</tspan><tspan class="st7">1</tspan>编码信息</text>		</g>
		<g id="shape47-64" v:mID="47" v:groupContext="shape" transform="translate(126.507,-228.784)">
			<title>工作表.47</title>
			<desc>融合了上下文的 句子2编码信息</desc>
			<v:userDefs>
				<v:ud v:nameU="visVersion" v:val="VT0(15):26"/>
			</v:userDefs>
			<v:textBlock v:margins="rect(4,4,4,4)" v:tabSpace="42.5197"/>
			<v:textRect cx="55.3615" cy="328.693" width="110.73" height="38.2677"/>
			<rect x="0" y="309.559" width="110.723" height="38.2677" rx="5.66929" ry="5.66929" class="st10"/>
			<text x="6.36" y="324.09" class="st2" v:langID="2052"><v:paragraph v:horizAlign="1"/><v:tabList/>融合了上下文的<v:lf/><tspan
						x="9.86" dy="1.316em" class="st11">句子</tspan><tspan class="st7">2</tspan>编码信息</text>		</g>
		<g id="shape48-69" v:mID="48" v:groupContext="shape" transform="translate(251.571,-228.784)">
			<title>工作表.48</title>
			<desc>融合了上下文的 句子3编码信息</desc>
			<v:userDefs>
				<v:ud v:nameU="visVersion" v:val="VT0(15):26"/>
			</v:userDefs>
			<v:textBlock v:margins="rect(4,4,4,4)" v:tabSpace="42.5197"/>
			<v:textRect cx="55.3615" cy="328.693" width="110.73" height="38.2677"/>
			<rect x="0" y="309.559" width="110.723" height="38.2677" rx="5.66929" ry="5.66929" class="st10"/>
			<text x="6.36" y="324.09" class="st2" v:langID="2052"><v:paragraph v:horizAlign="1"/><v:tabList/>融合了上下文的<v:lf/><tspan
						x="9.86" dy="1.316em" class="st11">句子</tspan><tspan class="st7">3</tspan>编码信息</text>		</g>
		<g id="shape49-74" v:mID="49" v:groupContext="shape" transform="translate(376.635,-228.784)">
			<title>工作表.49</title>
			<desc>…</desc>
			<v:userDefs>
				<v:ud v:nameU="visVersion" v:val="VT0(15):26"/>
			</v:userDefs>
			<v:textBlock v:margins="rect(4,4,4,4)" v:tabSpace="42.5197"/>
			<v:textRect cx="12.7004" cy="328.693" width="25.41" height="38.2677"/>
			<rect x="0" y="309.559" width="25.4007" height="38.2677" rx="5.66929" ry="5.66929" class="st3"/>
			<text x="5.7" y="333.3" class="st2" v:langID="2052"><v:paragraph v:horizAlign="1"/><v:tabList/>…</text>		</g>
		<g id="shape50-77" v:mID="50" v:groupContext="shape" transform="translate(416.376,-228.784)">
			<title>工作表.50</title>
			<desc>融合了上下文的 句子n编码信息</desc>
			<v:userDefs>
				<v:ud v:nameU="visVersion" v:val="VT0(15):26"/>
			</v:userDefs>
			<v:textBlock v:margins="rect(4,4,4,4)" v:tabSpace="42.5197"/>
			<v:textRect cx="55.3615" cy="328.693" width="110.73" height="38.2677"/>
			<rect x="0" y="309.559" width="110.723" height="38.2677" rx="5.66929" ry="5.66929" class="st10"/>
			<text x="6.36" y="324.09" class="st2" v:langID="2052"><v:paragraph v:horizAlign="1"/><v:tabList/>融合了上下文的<v:lf/><tspan
						x="9.86" dy="1.316em" class="st11">句子</tspan><tspan class="st8">n</tspan>编码信息</text>		</g>
		<g id="shape87-82" v:mID="87" v:groupContext="shape" transform="translate(1,-326.984)">
			<title>工作表.87</title>
			<desc>情感</desc>
			<v:userDefs>
				<v:ud v:nameU="visVersion" v:val="VT0(15):26"/>
			</v:userDefs>
			<v:textBlock v:margins="rect(4,4,4,4)" v:tabSpace="42.5197"/>
			<v:textRect cx="25.9876" cy="337.906" width="51.98" height="19.8425"/>
			<rect x="0" y="327.984" width="51.9752" height="19.8425" rx="5.66929" ry="5.66929" class="st3"/>
			<text x="11.99" y="342.51" class="st2" v:langID="2052"><v:paragraph v:horizAlign="1"/><v:tabList/>情感</text>		</g>
		<g id="shape88-85" v:mID="88" v:groupContext="shape" transform="translate(60.1905,-326.984)">
			<title>工作表.88</title>
			<desc>行动</desc>
			<v:userDefs>
				<v:ud v:nameU="visVersion" v:val="VT0(15):26"/>
			</v:userDefs>
			<v:textBlock v:margins="rect(4,4,4,4)" v:tabSpace="42.5197"/>
			<v:textRect cx="25.9876" cy="337.906" width="51.98" height="19.8425"/>
			<rect x="0" y="327.984" width="51.9752" height="19.8425" rx="5.66929" ry="5.66929" class="st3"/>
			<text x="11.99" y="342.51" class="st2" v:langID="2052"><v:paragraph v:horizAlign="1"/><v:tabList/>行动</text>		</g>
		<g id="shape90-88" v:mID="90" v:groupContext="shape" transform="translate(126.285,-326.984)">
			<title>工作表.90</title>
			<desc>情感</desc>
			<v:userDefs>
				<v:ud v:nameU="visVersion" v:val="VT0(15):26"/>
			</v:userDefs>
			<v:textBlock v:margins="rect(4,4,4,4)" v:tabSpace="42.5197"/>
			<v:textRect cx="25.9876" cy="337.906" width="51.98" height="19.8425"/>
			<rect x="0" y="327.984" width="51.9752" height="19.8425" rx="5.66929" ry="5.66929" class="st3"/>
			<text x="11.99" y="342.51" class="st2" v:langID="2052"><v:paragraph v:horizAlign="1"/><v:tabList/>情感</text>		</g>
		<g id="shape91-91" v:mID="91" v:groupContext="shape" transform="translate(185.476,-326.984)">
			<title>工作表.91</title>
			<desc>行动</desc>
			<v:userDefs>
				<v:ud v:nameU="visVersion" v:val="VT0(15):26"/>
			</v:userDefs>
			<v:textBlock v:margins="rect(4,4,4,4)" v:tabSpace="42.5197"/>
			<v:textRect cx="25.9876" cy="337.906" width="51.98" height="19.8425"/>
			<rect x="0" y="327.984" width="51.9752" height="19.8425" rx="5.66929" ry="5.66929" class="st3"/>
			<text x="11.99" y="342.51" class="st2" v:langID="2052"><v:paragraph v:horizAlign="1"/><v:tabList/>行动</text>		</g>
		<g id="shape93-94" v:mID="93" v:groupContext="shape" transform="translate(251.349,-326.984)">
			<title>工作表.93</title>
			<desc>情感</desc>
			<v:userDefs>
				<v:ud v:nameU="visVersion" v:val="VT0(15):26"/>
			</v:userDefs>
			<v:textBlock v:margins="rect(4,4,4,4)" v:tabSpace="42.5197"/>
			<v:textRect cx="25.9876" cy="337.906" width="51.98" height="19.8425"/>
			<rect x="0" y="327.984" width="51.9752" height="19.8425" rx="5.66929" ry="5.66929" class="st3"/>
			<text x="11.99" y="342.51" class="st2" v:langID="2052"><v:paragraph v:horizAlign="1"/><v:tabList/>情感</text>		</g>
		<g id="shape94-97" v:mID="94" v:groupContext="shape" transform="translate(310.54,-326.984)">
			<title>工作表.94</title>
			<desc>行动</desc>
			<v:userDefs>
				<v:ud v:nameU="visVersion" v:val="VT0(15):26"/>
			</v:userDefs>
			<v:textBlock v:margins="rect(4,4,4,4)" v:tabSpace="42.5197"/>
			<v:textRect cx="25.9876" cy="337.906" width="51.98" height="19.8425"/>
			<rect x="0" y="327.984" width="51.9752" height="19.8425" rx="5.66929" ry="5.66929" class="st3"/>
			<text x="11.99" y="342.51" class="st2" v:langID="2052"><v:paragraph v:horizAlign="1"/><v:tabList/>行动</text>		</g>
		<g id="shape96-100" v:mID="96" v:groupContext="shape" transform="translate(416.155,-326.984)">
			<title>工作表.96</title>
			<desc>情感</desc>
			<v:userDefs>
				<v:ud v:nameU="visVersion" v:val="VT0(15):26"/>
			</v:userDefs>
			<v:textBlock v:margins="rect(4,4,4,4)" v:tabSpace="42.5197"/>
			<v:textRect cx="25.9876" cy="337.906" width="51.98" height="19.8425"/>
			<rect x="0" y="327.984" width="51.9752" height="19.8425" rx="5.66929" ry="5.66929" class="st3"/>
			<text x="11.99" y="342.51" class="st2" v:langID="2052"><v:paragraph v:horizAlign="1"/><v:tabList/>情感</text>		</g>
		<g id="shape97-103" v:mID="97" v:groupContext="shape" transform="translate(475.345,-326.984)">
			<title>工作表.97</title>
			<desc>行动</desc>
			<v:userDefs>
				<v:ud v:nameU="visVersion" v:val="VT0(15):26"/>
			</v:userDefs>
			<v:textBlock v:margins="rect(4,4,4,4)" v:tabSpace="42.5197"/>
			<v:textRect cx="25.9876" cy="337.906" width="51.98" height="19.8425"/>
			<rect x="0" y="327.984" width="51.9752" height="19.8425" rx="5.66929" ry="5.66929" class="st3"/>
			<text x="11.99" y="342.51" class="st2" v:langID="2052"><v:paragraph v:horizAlign="1"/><v:tabList/>行动</text>		</g>
		<g id="shape55-106" v:mID="55" v:groupContext="shape" transform="translate(1,-281.427)">
			<title>工作表.55</title>
			<desc>线性层</desc>
			<v:userDefs>
				<v:ud v:nameU="visVersion" v:val="VT0(15):26"/>
			</v:userDefs>
			<v:textBlock v:margins="rect(4,4,4,4)" v:tabSpace="42.5197"/>
			<v:textRect cx="25.9876" cy="332.236" width="51.98" height="31.1811"/>
			<rect x="0" y="316.646" width="51.9752" height="31.1811" rx="5.66929" ry="5.66929" class="st12"/>
			<text x="4.99" y="336.84" class="st2" v:langID="2052"><v:paragraph v:horizAlign="1"/><v:tabList/>线性层</text>		</g>
		<g id="shape60-109" v:mID="60" v:groupContext="shape" transform="translate(60.1905,-281.427)">
			<title>工作表.60</title>
			<desc>线性层</desc>
			<v:userDefs>
				<v:ud v:nameU="visVersion" v:val="VT0(15):26"/>
			</v:userDefs>
			<v:textBlock v:margins="rect(4,4,4,4)" v:tabSpace="42.5197"/>
			<v:textRect cx="25.9876" cy="332.236" width="51.98" height="31.1811"/>
			<rect x="0" y="316.646" width="51.9752" height="31.1811" rx="5.66929" ry="5.66929" class="st13"/>
			<text x="4.99" y="336.84" class="st2" v:langID="2052"><v:paragraph v:horizAlign="1"/><v:tabList/>线性层</text>		</g>
		<g id="shape63-112" v:mID="63" v:groupContext="shape" transform="translate(126.285,-281.427)">
			<title>工作表.63</title>
			<desc>线性层</desc>
			<v:userDefs>
				<v:ud v:nameU="visVersion" v:val="VT0(15):26"/>
			</v:userDefs>
			<v:textBlock v:margins="rect(4,4,4,4)" v:tabSpace="42.5197"/>
			<v:textRect cx="25.9876" cy="332.236" width="51.98" height="31.1811"/>
			<rect x="0" y="316.646" width="51.9752" height="31.1811" rx="5.66929" ry="5.66929" class="st12"/>
			<text x="4.99" y="336.84" class="st2" v:langID="2052"><v:paragraph v:horizAlign="1"/><v:tabList/>线性层</text>		</g>
		<g id="shape64-115" v:mID="64" v:groupContext="shape" transform="translate(185.476,-281.427)">
			<title>工作表.64</title>
			<desc>线性层</desc>
			<v:userDefs>
				<v:ud v:nameU="visVersion" v:val="VT0(15):26"/>
			</v:userDefs>
			<v:textBlock v:margins="rect(4,4,4,4)" v:tabSpace="42.5197"/>
			<v:textRect cx="25.9876" cy="332.236" width="51.98" height="31.1811"/>
			<rect x="0" y="316.646" width="51.9752" height="31.1811" rx="5.66929" ry="5.66929" class="st13"/>
			<text x="4.99" y="336.84" class="st2" v:langID="2052"><v:paragraph v:horizAlign="1"/><v:tabList/>线性层</text>		</g>
		<g id="shape66-118" v:mID="66" v:groupContext="shape" transform="translate(251.349,-281.427)">
			<title>工作表.66</title>
			<desc>线性层</desc>
			<v:userDefs>
				<v:ud v:nameU="visVersion" v:val="VT0(15):26"/>
			</v:userDefs>
			<v:textBlock v:margins="rect(4,4,4,4)" v:tabSpace="42.5197"/>
			<v:textRect cx="25.9876" cy="332.236" width="51.98" height="31.1811"/>
			<rect x="0" y="316.646" width="51.9752" height="31.1811" rx="5.66929" ry="5.66929" class="st12"/>
			<text x="4.99" y="336.84" class="st2" v:langID="2052"><v:paragraph v:horizAlign="1"/><v:tabList/>线性层</text>		</g>
		<g id="shape67-121" v:mID="67" v:groupContext="shape" transform="translate(310.54,-281.427)">
			<title>工作表.67</title>
			<desc>线性层</desc>
			<v:userDefs>
				<v:ud v:nameU="visVersion" v:val="VT0(15):26"/>
			</v:userDefs>
			<v:textBlock v:margins="rect(4,4,4,4)" v:tabSpace="42.5197"/>
			<v:textRect cx="25.9876" cy="332.236" width="51.98" height="31.1811"/>
			<rect x="0" y="316.646" width="51.9752" height="31.1811" rx="5.66929" ry="5.66929" class="st13"/>
			<text x="4.99" y="336.84" class="st2" v:langID="2052"><v:paragraph v:horizAlign="1"/><v:tabList/>线性层</text>		</g>
		<g id="shape69-124" v:mID="69" v:groupContext="shape" transform="translate(416.155,-281.427)">
			<title>工作表.69</title>
			<desc>线性层</desc>
			<v:userDefs>
				<v:ud v:nameU="visVersion" v:val="VT0(15):26"/>
			</v:userDefs>
			<v:textBlock v:margins="rect(4,4,4,4)" v:tabSpace="42.5197"/>
			<v:textRect cx="25.9876" cy="332.236" width="51.98" height="31.1811"/>
			<rect x="0" y="316.646" width="51.9752" height="31.1811" rx="5.66929" ry="5.66929" class="st12"/>
			<text x="4.99" y="336.84" class="st2" v:langID="2052"><v:paragraph v:horizAlign="1"/><v:tabList/>线性层</text>		</g>
		<g id="shape70-127" v:mID="70" v:groupContext="shape" transform="translate(475.345,-281.427)">
			<title>工作表.70</title>
			<desc>线性层</desc>
			<v:userDefs>
				<v:ud v:nameU="visVersion" v:val="VT0(15):26"/>
			</v:userDefs>
			<v:textBlock v:margins="rect(4,4,4,4)" v:tabSpace="42.5197"/>
			<v:textRect cx="25.9876" cy="332.236" width="51.98" height="31.1811"/>
			<rect x="0" y="316.646" width="51.9752" height="31.1811" rx="5.66929" ry="5.66929" class="st13"/>
			<text x="4.99" y="336.84" class="st2" v:langID="2052"><v:paragraph v:horizAlign="1"/><v:tabList/>线性层</text>		</g>
		<g id="shape1-130" v:mID="1" v:groupContext="shape" transform="translate(1.44286,-1)">
			<title>工作表.1</title>
			<desc>句子1</desc>
			<v:userDefs>
				<v:ud v:nameU="visVersion" v:val="VT0(15):26"/>
			</v:userDefs>
			<v:textBlock v:margins="rect(4,4,4,4)" v:tabSpace="42.5197"/>
			<v:textRect cx="55.3615" cy="332.236" width="110.73" height="31.1811"/>
			<rect x="0" y="316.646" width="110.723" height="31.1811" rx="5.66929" ry="5.66929" class="st14"/>
			<text x="37.86" y="336.84" class="st2" v:langID="2052"><v:paragraph v:horizAlign="1"/><v:tabList/>句子<tspan class="st7">1</tspan></text>		</g>
		<g id="shape2-134" v:mID="2" v:groupContext="shape" transform="translate(126.507,-1)">
			<title>工作表.2</title>
			<desc>句子2</desc>
			<v:userDefs>
				<v:ud v:nameU="visVersion" v:val="VT0(15):26"/>
			</v:userDefs>
			<v:textBlock v:margins="rect(4,4,4,4)" v:tabSpace="42.5197"/>
			<v:textRect cx="55.3615" cy="332.236" width="110.73" height="31.1811"/>
			<rect x="0" y="316.646" width="110.723" height="31.1811" rx="5.66929" ry="5.66929" class="st14"/>
			<text x="37.86" y="336.84" class="st2" v:langID="2052"><v:paragraph v:horizAlign="1"/><v:tabList/>句子<tspan class="st7">2</tspan></text>		</g>
		<g id="shape3-138" v:mID="3" v:groupContext="shape" transform="translate(251.571,-1)">
			<title>工作表.3</title>
			<desc>句子3</desc>
			<v:userDefs>
				<v:ud v:nameU="visVersion" v:val="VT0(15):26"/>
			</v:userDefs>
			<v:textBlock v:margins="rect(4,4,4,4)" v:tabSpace="42.5197"/>
			<v:textRect cx="55.3615" cy="332.236" width="110.73" height="31.1811"/>
			<rect x="0" y="316.646" width="110.723" height="31.1811" rx="5.66929" ry="5.66929" class="st14"/>
			<text x="37.86" y="336.84" class="st2" v:langID="2052"><v:paragraph v:horizAlign="1"/><v:tabList/>句子<tspan class="st7">3</tspan></text>		</g>
		<g id="shape4-142" v:mID="4" v:groupContext="shape" transform="translate(376.635,-1)">
			<title>工作表.4</title>
			<desc>…</desc>
			<v:userDefs>
				<v:ud v:nameU="visVersion" v:val="VT0(15):26"/>
			</v:userDefs>
			<v:textBlock v:margins="rect(4,4,4,4)" v:tabSpace="42.5197"/>
			<v:textRect cx="12.7004" cy="332.236" width="25.41" height="31.1811"/>
			<rect x="0" y="316.646" width="25.4007" height="31.1811" rx="5.66929" ry="5.66929" class="st3"/>
			<text x="5.7" y="336.84" class="st2" v:langID="2052"><v:paragraph v:horizAlign="1"/><v:tabList/>…</text>		</g>
		<g id="shape5-145" v:mID="5" v:groupContext="shape" transform="translate(416.376,-1)">
			<title>工作表.5</title>
			<desc>句子n</desc>
			<v:userDefs>
				<v:ud v:nameU="visVersion" v:val="VT0(15):26"/>
			</v:userDefs>
			<v:textBlock v:margins="rect(4,4,4,4)" v:tabSpace="42.5197"/>
			<v:textRect cx="55.3615" cy="332.236" width="110.73" height="31.1811"/>
			<rect x="0" y="316.646" width="110.723" height="31.1811" rx="5.66929" ry="5.66929" class="st14"/>
			<text x="37.86" y="336.84" class="st2" v:langID="2052"><v:paragraph v:horizAlign="1"/><v:tabList/>句子<tspan class="st8">n</tspan></text>		</g>
		<g id="shape107-149" v:mID="107" v:groupContext="shape" v:layerMember="0" transform="translate(49.7177,-32.1811)">
			<title>动态连接线</title>
			<path d="M7.09 347.83 L7.09 340.49" class="st15"/>
		</g>
		<g id="shape108-155" v:mID="108" v:groupContext="shape" v:layerMember="0" transform="translate(174.782,-32.1811)">
			<title>动态连接线.108</title>
			<path d="M7.09 347.83 L7.09 340.49" class="st15"/>
		</g>
		<g id="shape109-160" v:mID="109" v:groupContext="shape" v:layerMember="0" transform="translate(299.846,-32.1811)">
			<title>动态连接线.109</title>
			<path d="M7.09 347.83 L7.09 340.49" class="st15"/>
		</g>
		<g id="shape110-165" v:mID="110" v:groupContext="shape" v:layerMember="0" transform="translate(464.651,-32.1811)">
			<title>动态连接线.110</title>
			<path d="M7.09 347.83 L7.09 340.49" class="st15"/>
		</g>
		<g id="shape111-170" v:mID="111" v:groupContext="shape" v:layerMember="0" transform="translate(464.651,-77.7379)">
			<title>动态连接线.111</title>
			<path d="M7.09 347.83 L7.09 340.49" class="st15"/>
		</g>
		<g id="shape112-175" v:mID="112" v:groupContext="shape" v:layerMember="0" transform="translate(299.846,-77.7379)">
			<title>动态连接线.112</title>
			<path d="M7.09 347.83 L7.09 340.49" class="st15"/>
		</g>
		<g id="shape113-180" v:mID="113" v:groupContext="shape" v:layerMember="0" transform="translate(174.782,-77.7379)">
			<title>动态连接线.113</title>
			<path d="M7.09 347.83 L7.09 340.49" class="st15"/>
		</g>
		<g id="shape114-185" v:mID="114" v:groupContext="shape" v:layerMember="0" transform="translate(49.7177,-77.7379)">
			<title>动态连接线.114</title>
			<path d="M7.09 347.83 L7.09 340.49" class="st15"/>
		</g>
		<g id="shape115-190" v:mID="115" v:groupContext="shape" v:layerMember="0" transform="translate(49.7177,-123.295)">
			<title>动态连接线.115</title>
			<path d="M7.09 347.83 L7.09 340.49" class="st15"/>
		</g>
		<g id="shape116-195" v:mID="116" v:groupContext="shape" v:layerMember="0" transform="translate(174.782,-123.295)">
			<title>动态连接线.116</title>
			<path d="M7.09 347.83 L7.09 340.49" class="st15"/>
		</g>
		<g id="shape117-200" v:mID="117" v:groupContext="shape" v:layerMember="0" transform="translate(299.846,-123.295)">
			<title>动态连接线.117</title>
			<path d="M7.09 347.83 L7.09 340.49" class="st15"/>
		</g>
		<g id="shape118-205" v:mID="118" v:groupContext="shape" v:layerMember="0" transform="translate(464.651,-123.295)">
			<title>动态连接线.118</title>
			<path d="M7.09 347.83 L7.09 340.49" class="st15"/>
		</g>
		<g id="shape119-210" v:mID="119" v:groupContext="shape" v:layerMember="0" transform="translate(464.651,-168.852)">
			<title>动态连接线.119</title>
			<path d="M7.09 347.83 L7.09 340.49" class="st15"/>
		</g>
		<g id="shape122-215" v:mID="122" v:groupContext="shape" v:layerMember="0" transform="translate(299.846,-168.852)">
			<title>动态连接线.122</title>
			<path d="M7.09 347.83 L7.09 340.49" class="st15"/>
		</g>
		<g id="shape123-220" v:mID="123" v:groupContext="shape" v:layerMember="0" transform="translate(174.782,-168.852)">
			<title>动态连接线.123</title>
			<path d="M7.09 347.83 L7.09 340.49" class="st15"/>
		</g>
		<g id="shape124-225" v:mID="124" v:groupContext="shape" v:layerMember="0" transform="translate(49.7177,-168.852)">
			<title>动态连接线.124</title>
			<path d="M7.09 347.83 L7.09 340.49" class="st15"/>
		</g>
		<g id="shape125-230" v:mID="125" v:groupContext="shape" v:layerMember="0" transform="translate(49.7177,-214.408)">
			<title>动态连接线.125</title>
			<path d="M7.09 347.83 L7.09 340.49" class="st15"/>
		</g>
		<g id="shape126-235" v:mID="126" v:groupContext="shape" v:layerMember="0" transform="translate(112.166,-191.731)">
			<title>动态连接线.126</title>
			<path d="M0 340.74 L7.3 340.74" class="st15"/>
		</g>
		<g id="shape127-240" v:mID="127" v:groupContext="shape" v:layerMember="0" transform="translate(237.23,-191.731)">
			<title>动态连接线.127</title>
			<path d="M0 340.74 L7.3 340.74" class="st15"/>
		</g>
		<g id="shape128-245" v:mID="128" v:groupContext="shape" v:layerMember="0" transform="translate(362.294,-191.731)">
			<title>动态连接线.128</title>
			<path d="M0 340.74 L7.3 340.74" class="st15"/>
		</g>
		<g id="shape129-250" v:mID="129" v:groupContext="shape" v:layerMember="0" transform="translate(402.035,-191.731)">
			<title>动态连接线.129</title>
			<path d="M0 340.74 L7.3 340.74" class="st15"/>
		</g>
		<g id="shape130-255" v:mID="130" v:groupContext="shape" v:layerMember="0" transform="translate(464.651,-214.408)">
			<title>动态连接线.130</title>
			<path d="M7.09 347.83 L7.09 340.49" class="st15"/>
		</g>
		<g id="shape131-260" v:mID="131" v:groupContext="shape" v:layerMember="0" transform="translate(299.846,-214.408)">
			<title>动态连接线.131</title>
			<path d="M7.09 347.83 L7.09 340.49" class="st15"/>
		</g>
		<g id="shape132-265" v:mID="132" v:groupContext="shape" v:layerMember="0" transform="translate(174.782,-214.408)">
			<title>动态连接线.132</title>
			<path d="M7.09 347.83 L7.09 340.49" class="st15"/>
		</g>
		<g id="shape133-270" v:mID="133" v:groupContext="shape" v:layerMember="0" transform="translate(56.8043,-267.052)">
			<title>动态连接线.133</title>
			<path d="M0 347.83 L0 345.5 A2.32846 2.32846 -180 0 0 -2.33 343.17 L-24.96 343.17 A4.85939 4.85939 0 0 1 -29.82 338.31
						 L-29.82 333.45" class="st17"/>
		</g>
		<g id="shape134-276" v:mID="134" v:groupContext="shape" v:layerMember="0" transform="translate(56.8043,-267.052)">
			<title>动态连接线.134</title>
			<path d="M0 347.83 L0 345.5 A2.32846 2.32846 0 0 1 2.33 343.17 L24.51 343.17 A4.85939 4.85939 -180 0 0 29.37 338.31 L29.37
						 333.45" class="st17"/>
		</g>
		<g id="shape135-281" v:mID="135" v:groupContext="shape" v:layerMember="0" transform="translate(181.868,-267.052)">
			<title>动态连接线.135</title>
			<path d="M0 347.83 L0 345.5 A2.32846 2.32846 -180 0 0 -2.33 343.17 L-24.74 343.17 A4.85939 4.85939 0 0 1 -29.6 338.31
						 L-29.6 333.45" class="st17"/>
		</g>
		<g id="shape136-286" v:mID="136" v:groupContext="shape" v:layerMember="0" transform="translate(181.868,-267.052)">
			<title>动态连接线.136</title>
			<path d="M0 347.83 L0 345.5 A2.32846 2.32846 0 0 1 2.33 343.17 L24.74 343.17 A4.85939 4.85939 -180 0 0 29.6 338.31 L29.6
						 333.45" class="st17"/>
		</g>
		<g id="shape137-291" v:mID="137" v:groupContext="shape" v:layerMember="0" transform="translate(306.932,-267.052)">
			<title>动态连接线.137</title>
			<path d="M0 347.83 L0 345.5 A2.32846 2.32846 -180 0 0 -2.33 343.17 L-24.74 343.17 A4.85939 4.85939 0 0 1 -29.6 338.31
						 L-29.6 333.45" class="st17"/>
		</g>
		<g id="shape138-296" v:mID="138" v:groupContext="shape" v:layerMember="0" transform="translate(306.932,-267.052)">
			<title>动态连接线.138</title>
			<path d="M0 347.83 L0 345.5 A2.32846 2.32846 0 0 1 2.33 343.17 L24.74 343.17 A4.85939 4.85939 -180 0 0 29.6 338.31 L29.6
						 333.45" class="st17"/>
		</g>
		<g id="shape139-301" v:mID="139" v:groupContext="shape" v:layerMember="0" transform="translate(471.738,-267.052)">
			<title>动态连接线.139</title>
			<path d="M0 347.83 L0 345.5 A2.32846 2.32846 -180 0 0 -2.33 343.17 L-24.74 343.17 A4.85939 4.85939 0 0 1 -29.6 338.31
						 L-29.6 333.45" class="st17"/>
		</g>
		<g id="shape140-306" v:mID="140" v:groupContext="shape" v:layerMember="0" transform="translate(471.738,-267.052)">
			<title>动态连接线.140</title>
			<path d="M0 347.83 L0 345.5 A2.32846 2.32846 0 0 1 2.33 343.17 L24.74 343.17 A4.85939 4.85939 -180 0 0 29.6 338.31 L29.6
						 333.45" class="st17"/>
		</g>
		<g id="shape141-311" v:mID="141" v:groupContext="shape" v:layerMember="0" transform="translate(494.246,-312.609)">
			<title>动态连接线.141</title>
			<path d="M7.09 347.83 L7.09 340.49" class="st15"/>
		</g>
		<g id="shape142-316" v:mID="142" v:groupContext="shape" v:layerMember="0" transform="translate(435.056,-312.609)">
			<title>动态连接线.142</title>
			<path d="M7.09 347.83 L7.09 340.49" class="st15"/>
		</g>
		<g id="shape143-321" v:mID="143" v:groupContext="shape" v:layerMember="0" transform="translate(329.441,-312.609)">
			<title>动态连接线.143</title>
			<path d="M7.09 347.83 L7.09 340.49" class="st15"/>
		</g>
		<g id="shape144-326" v:mID="144" v:groupContext="shape" v:layerMember="0" transform="translate(270.25,-312.609)">
			<title>动态连接线.144</title>
			<path d="M7.09 347.83 L7.09 340.49" class="st15"/>
		</g>
		<g id="shape145-331" v:mID="145" v:groupContext="shape" v:layerMember="0" transform="translate(204.377,-312.609)">
			<title>动态连接线.145</title>
			<path d="M7.09 347.83 L7.09 340.49" class="st15"/>
		</g>
		<g id="shape146-336" v:mID="146" v:groupContext="shape" v:layerMember="0" transform="translate(145.186,-312.609)">
			<title>动态连接线.146</title>
			<path d="M7.09 347.83 L7.09 340.49" class="st15"/>
		</g>
		<g id="shape147-341" v:mID="147" v:groupContext="shape" v:layerMember="0" transform="translate(79.0915,-312.609)">
			<title>动态连接线.147</title>
			<path d="M7.09 347.83 L7.09 340.49" class="st15"/>
		</g>
		<g id="shape148-346" v:mID="148" v:groupContext="shape" v:layerMember="0" transform="translate(19.901,-312.609)">
			<title>动态连接线.148</title>
			<path d="M7.09 347.83 L7.09 340.49" class="st15"/>
		</g>
	</g>
</svg>
