<?xml version="1.0" encoding="UTF-8" standalone="no"?>
<!DOCTYPE svg PUBLIC "-//W3C//DTD SVG 1.1//EN" "http://www.w3.org/Graphics/SVG/1.1/DTD/svg11.dtd">
<!-- 由 Microsoft Visio, SVG Export 生成 RNN.svg Page-1 -->
<svg xmlns="http://www.w3.org/2000/svg" xmlns:xlink="http://www.w3.org/1999/xlink" xmlns:ev="http://www.w3.org/2001/xml-events"
		xmlns:v="http://schemas.microsoft.com/visio/2003/SVGExtensions/" width="6.0252in" height="2.36533in"
		viewBox="0 0 433.815 170.304" xml:space="preserve" color-interpolation-filters="sRGB" class="st13">
	<v:documentProperties v:langID="2052" v:metric="true" v:viewMarkup="false">
		<v:userDefs>
			<v:ud v:nameU="msvSubprocessMaster" v:prompt="" v:val="VT4(Rectangle)"/>
			<v:ud v:nameU="msvNoAutoConnect" v:val="VT0(1):26"/>
		</v:userDefs>
	</v:documentProperties>

	<style type="text/css">
	<![CDATA[
		.st1 {fill:#e2efd9;stroke:#000000;stroke-width:1}
		.st2 {fill:#000000;font-family:Times New Roman;font-size:1.16666em;font-style:italic;font-weight:bold}
		.st3 {baseline-shift:-32.4943%;font-size:0.649886em;font-style:normal;font-weight:normal}
		.st4 {fill:#fff2cc;stroke:#000000;stroke-width:1}
		.st5 {fill:#000000;font-family:Times New Roman;font-size:1.16666em}
		.st6 {fill:#deebf6;stroke:#000000;stroke-width:1}
		.st7 {fill:none;stroke:none;stroke-width:1}
		.st8 {fill:#000000;font-family:宋体;font-size:1.16666em}
		.st9 {baseline-shift:-32.4943%;font-size:0.649886em;font-weight:normal}
		.st10 {marker-end:url(#mrkr4-59);stroke:#000000;stroke-linecap:round;stroke-linejoin:round;stroke-width:1}
		.st11 {fill:#000000;fill-opacity:1;stroke:#000000;stroke-opacity:1;stroke-width:0.28409090909091}
		.st12 {marker-end:url(#mrkr4-100);stroke:#000000;stroke-linecap:round;stroke-linejoin:round;stroke-width:1}
		.st13 {fill:none;fill-rule:evenodd;font-size:12px;overflow:visible;stroke-linecap:square;stroke-miterlimit:3}
	]]>
	</style>

	<defs id="Markers">
		<g id="lend4">
			<path d="M 2 1 L 0 0 L 2 -1 L 2 1 " style="stroke:none"/>
		</g>
		<marker id="mrkr4-59" class="st11" v:arrowType="4" v:arrowSize="2" v:setback="7.04" refX="-7.04" orient="auto"
				markerUnits="strokeWidth" overflow="visible">
			<use xlink:href="#lend4" transform="scale(-3.52,-3.52) "/>
		</marker>
		<marker id="mrkr4-100" class="st11" v:arrowType="4" v:arrowSize="2" v:setback="0" refX="-0" orient="auto"
				markerUnits="strokeWidth" overflow="visible">
			<use xlink:href="#lend4" transform="scale(-3.52,-3.52) "/>
		</marker>
	</defs>
	<g v:mID="0" v:index="1" v:groupContext="foregroundPage">
		<v:userDefs>
			<v:ud v:nameU="msvThemeOrder" v:val="VT0(0):26"/>
		</v:userDefs>
		<title>页-1</title>
		<v:pageProperties v:drawingScale="0.0393701" v:pageScale="0.0393701" v:drawingUnits="24" v:shadowOffsetX="8.50394"
				v:shadowOffsetY="-8.50394"/>
		<v:layer v:name="连接线" v:index="0"/>
		<g id="shape3-1" v:mID="3" v:groupContext="shape" transform="translate(19,-19)">
			<title>矩形.3</title>
			<desc>x1</desc>
			<v:userDefs>
				<v:ud v:nameU="visVersion" v:val="VT0(15):26"/>
			</v:userDefs>
			<v:textBlock v:margins="rect(4,4,4,4)" v:tabSpace="42.5197"/>
			<v:textRect cx="32.9657" cy="158.716" width="65.94" height="23.1766"/>
			<rect x="0" y="147.127" width="65.9314" height="23.1766" rx="5.66929" ry="5.66929" class="st1"/>
			<text x="27.19" y="162.93" class="st2" v:langID="2052"><v:paragraph v:horizAlign="1"/><v:tabList/>x<tspan dy="-0.279em"
						class="st3" v:baseFontSize="14">1</tspan></text>		</g>
		<g id="shape4-5" v:mID="4" v:groupContext="shape" transform="translate(19,-60.811)">
			<title>矩形.4</title>
			<desc>RNN</desc>
			<v:userDefs>
				<v:ud v:nameU="visVersion" v:val="VT0(15):26"/>
			</v:userDefs>
			<v:textBlock v:margins="rect(4,4,4,4)" v:tabSpace="42.5197"/>
			<v:textRect cx="32.9657" cy="158.716" width="65.94" height="23.1766"/>
			<rect x="0" y="147.127" width="65.9314" height="23.1766" rx="5.66929" ry="5.66929" class="st4"/>
			<text x="18.19" y="162.92" class="st5" v:langID="2052"><v:paragraph v:horizAlign="1"/><v:tabList/>RNN</text>		</g>
		<g id="shape5-8" v:mID="5" v:groupContext="shape" transform="translate(19,-102.622)">
			<title>矩形.5</title>
			<desc>h1</desc>
			<v:userDefs>
				<v:ud v:nameU="visVersion" v:val="VT0(15):26"/>
			</v:userDefs>
			<v:textBlock v:margins="rect(4,4,4,4)" v:tabSpace="42.5197"/>
			<v:textRect cx="32.9657" cy="158.716" width="65.94" height="23.1766"/>
			<rect x="0" y="147.127" width="65.9314" height="23.1766" rx="5.66929" ry="5.66929" class="st6"/>
			<text x="26.8" y="162.93" class="st2" v:langID="2052"><v:paragraph v:horizAlign="1"/><v:tabList/>h<tspan dy="-0.279em"
						class="st3" v:baseFontSize="14">1</tspan></text>		</g>
		<g id="shape7-12" v:mID="7" v:groupContext="shape" transform="translate(101.471,-19)">
			<title>矩形.7</title>
			<desc>x2</desc>
			<v:userDefs>
				<v:ud v:nameU="visVersion" v:val="VT0(15):26"/>
			</v:userDefs>
			<v:textBlock v:margins="rect(4,4,4,4)" v:tabSpace="42.5197"/>
			<v:textRect cx="32.9657" cy="158.716" width="65.94" height="23.1766"/>
			<rect x="0" y="147.127" width="65.9314" height="23.1766" rx="5.66929" ry="5.66929" class="st1"/>
			<text x="27.19" y="162.93" class="st2" v:langID="2052"><v:paragraph v:horizAlign="1"/><v:tabList/>x<tspan dy="-0.279em"
						class="st3" v:baseFontSize="14">2</tspan></text>		</g>
		<g id="shape8-16" v:mID="8" v:groupContext="shape" transform="translate(101.471,-60.811)">
			<title>矩形.8</title>
			<desc>RNN</desc>
			<v:userDefs>
				<v:ud v:nameU="visVersion" v:val="VT0(15):26"/>
			</v:userDefs>
			<v:textBlock v:margins="rect(4,4,4,4)" v:tabSpace="42.5197"/>
			<v:textRect cx="32.9657" cy="158.716" width="65.94" height="23.1766"/>
			<rect x="0" y="147.127" width="65.9314" height="23.1766" rx="5.66929" ry="5.66929" class="st4"/>
			<text x="18.19" y="162.92" class="st5" v:langID="2052"><v:paragraph v:horizAlign="1"/><v:tabList/>RNN</text>		</g>
		<g id="shape9-19" v:mID="9" v:groupContext="shape" transform="translate(101.471,-102.622)">
			<title>矩形.9</title>
			<desc>h2</desc>
			<v:userDefs>
				<v:ud v:nameU="visVersion" v:val="VT0(15):26"/>
			</v:userDefs>
			<v:textBlock v:margins="rect(4,4,4,4)" v:tabSpace="42.5197"/>
			<v:textRect cx="32.9657" cy="158.716" width="65.94" height="23.1766"/>
			<rect x="0" y="147.127" width="65.9314" height="23.1766" rx="5.66929" ry="5.66929" class="st6"/>
			<text x="26.8" y="162.93" class="st2" v:langID="2052"><v:paragraph v:horizAlign="1"/><v:tabList/>h<tspan dy="-0.279em"
						class="st3" v:baseFontSize="14">2</tspan></text>		</g>
		<g id="shape11-23" v:mID="11" v:groupContext="shape" transform="translate(183.942,-19)">
			<title>矩形.11</title>
			<desc>x3</desc>
			<v:userDefs>
				<v:ud v:nameU="visVersion" v:val="VT0(15):26"/>
			</v:userDefs>
			<v:textBlock v:margins="rect(4,4,4,4)" v:tabSpace="42.5197"/>
			<v:textRect cx="32.9657" cy="158.716" width="65.94" height="23.1766"/>
			<rect x="0" y="147.127" width="65.9314" height="23.1766" rx="5.66929" ry="5.66929" class="st1"/>
			<text x="27.19" y="162.93" class="st2" v:langID="2052"><v:paragraph v:horizAlign="1"/><v:tabList/>x<tspan dy="-0.279em"
						class="st3" v:baseFontSize="14">3</tspan></text>		</g>
		<g id="shape12-27" v:mID="12" v:groupContext="shape" transform="translate(183.942,-60.811)">
			<title>矩形.12</title>
			<desc>RNN</desc>
			<v:userDefs>
				<v:ud v:nameU="visVersion" v:val="VT0(15):26"/>
			</v:userDefs>
			<v:textBlock v:margins="rect(4,4,4,4)" v:tabSpace="42.5197"/>
			<v:textRect cx="32.9657" cy="158.716" width="65.94" height="23.1766"/>
			<rect x="0" y="147.127" width="65.9314" height="23.1766" rx="5.66929" ry="5.66929" class="st4"/>
			<text x="18.19" y="162.92" class="st5" v:langID="2052"><v:paragraph v:horizAlign="1"/><v:tabList/>RNN</text>		</g>
		<g id="shape13-30" v:mID="13" v:groupContext="shape" transform="translate(183.942,-102.622)">
			<title>矩形.13</title>
			<desc>h3</desc>
			<v:userDefs>
				<v:ud v:nameU="visVersion" v:val="VT0(15):26"/>
			</v:userDefs>
			<v:textBlock v:margins="rect(4,4,4,4)" v:tabSpace="42.5197"/>
			<v:textRect cx="32.9657" cy="158.716" width="65.94" height="23.1766"/>
			<rect x="0" y="147.127" width="65.9314" height="23.1766" rx="5.66929" ry="5.66929" class="st6"/>
			<text x="26.8" y="162.93" class="st2" v:langID="2052"><v:paragraph v:horizAlign="1"/><v:tabList/>h<tspan dy="-0.279em"
						class="st3" v:baseFontSize="14">3</tspan></text>		</g>
		<g id="shape15-34" v:mID="15" v:groupContext="shape" transform="translate(266.412,-19)">
			<title>矩形.21</title>
			<desc>…</desc>
			<v:userDefs>
				<v:ud v:nameU="visVersion" v:val="VT0(15):26"/>
			</v:userDefs>
			<v:textBlock v:margins="rect(4,4,4,4)" v:tabSpace="42.5197"/>
			<v:textRect cx="32.9657" cy="158.716" width="65.94" height="23.1766"/>
			<rect x="0" y="147.127" width="65.9314" height="23.1766" rx="5.66929" ry="5.66929" class="st7"/>
			<text x="25.97" y="163.32" class="st8" v:langID="2052"><v:paragraph v:horizAlign="1"/><v:tabList/>…</text>		</g>
		<g id="shape16-37" v:mID="16" v:groupContext="shape" transform="translate(266.412,-60.811)">
			<title>矩形.16</title>
			<desc>…</desc>
			<v:userDefs>
				<v:ud v:nameU="visVersion" v:val="VT0(15):26"/>
			</v:userDefs>
			<v:textBlock v:margins="rect(4,4,4,4)" v:tabSpace="42.5197"/>
			<v:textRect cx="32.9657" cy="158.716" width="65.94" height="23.1766"/>
			<rect x="0" y="147.127" width="65.9314" height="23.1766" rx="5.66929" ry="5.66929" class="st7"/>
			<text x="25.97" y="163.32" class="st8" v:langID="2052"><v:paragraph v:horizAlign="1"/><v:tabList/>…</text>		</g>
		<g id="shape17-40" v:mID="17" v:groupContext="shape" transform="translate(266.412,-102.622)">
			<title>矩形.17</title>
			<desc>…</desc>
			<v:userDefs>
				<v:ud v:nameU="visVersion" v:val="VT0(15):26"/>
			</v:userDefs>
			<v:textBlock v:margins="rect(4,4,4,4)" v:tabSpace="42.5197"/>
			<v:textRect cx="32.9657" cy="158.716" width="65.94" height="23.1766"/>
			<rect x="0" y="147.127" width="65.9314" height="23.1766" rx="5.66929" ry="5.66929" class="st7"/>
			<text x="25.97" y="163.32" class="st8" v:langID="2052"><v:paragraph v:horizAlign="1"/><v:tabList/>…</text>		</g>
		<g id="shape19-43" v:mID="19" v:groupContext="shape" transform="translate(348.883,-19)">
			<title>矩形.19</title>
			<desc>xT</desc>
			<v:userDefs>
				<v:ud v:nameU="visVersion" v:val="VT0(15):26"/>
			</v:userDefs>
			<v:textBlock v:margins="rect(4,4,4,4)" v:tabSpace="42.5197"/>
			<v:textRect cx="32.9657" cy="158.716" width="65.94" height="23.1766"/>
			<rect x="0" y="147.127" width="65.9314" height="23.1766" rx="5.66929" ry="5.66929" class="st1"/>
			<text x="26.94" y="162.93" class="st2" v:langID="2052"><v:paragraph v:horizAlign="1"/><v:tabList/>x<tspan dy="-0.279em"
						class="st9" v:baseFontSize="14">T</tspan></text>		</g>
		<g id="shape20-47" v:mID="20" v:groupContext="shape" transform="translate(348.883,-60.811)">
			<title>矩形.2</title>
			<desc>RNN</desc>
			<v:userDefs>
				<v:ud v:nameU="visVersion" v:val="VT0(15):26"/>
			</v:userDefs>
			<v:textBlock v:margins="rect(4,4,4,4)" v:tabSpace="42.5197"/>
			<v:textRect cx="32.9657" cy="158.716" width="65.94" height="23.1766"/>
			<rect x="0" y="147.127" width="65.9314" height="23.1766" rx="5.66929" ry="5.66929" class="st4"/>
			<text x="18.19" y="162.92" class="st5" v:langID="2052"><v:paragraph v:horizAlign="1"/><v:tabList/>RNN</text>		</g>
		<g id="shape21-50" v:mID="21" v:groupContext="shape" transform="translate(348.883,-102.622)">
			<title>矩形.3</title>
			<desc>hT</desc>
			<v:userDefs>
				<v:ud v:nameU="visVersion" v:val="VT0(15):26"/>
			</v:userDefs>
			<v:textBlock v:margins="rect(4,4,4,4)" v:tabSpace="42.5197"/>
			<v:textRect cx="32.9657" cy="158.716" width="65.94" height="23.1766"/>
			<rect x="0" y="147.127" width="65.9314" height="23.1766" rx="5.66929" ry="5.66929" class="st6"/>
			<text x="26.54" y="162.93" class="st2" v:langID="2052"><v:paragraph v:horizAlign="1"/><v:tabList/>h<tspan dy="-0.279em"
						class="st9" v:baseFontSize="14">T</tspan></text>		</g>
		<g id="shape22-54" v:mID="22" v:groupContext="shape" v:layerMember="0" transform="translate(44.8791,-42.1766)">
			<title>动态连接线</title>
			<path d="M7.09 170.3 L7.09 158.71" class="st10"/>
		</g>
		<g id="shape23-60" v:mID="23" v:groupContext="shape" v:layerMember="0" transform="translate(44.8791,-83.9876)">
			<title>动态连接线.23</title>
			<path d="M7.09 170.3 L7.09 158.71" class="st10"/>
		</g>
		<g id="shape25-65" v:mID="25" v:groupContext="shape" v:layerMember="0" transform="translate(127.35,-83.9876)">
			<title>动态连接线.25</title>
			<path d="M7.09 170.3 L7.09 158.71" class="st10"/>
		</g>
		<g id="shape26-70" v:mID="26" v:groupContext="shape" v:layerMember="0" transform="translate(127.35,-42.1766)">
			<title>动态连接线.26</title>
			<path d="M7.09 170.3 L7.09 158.71" class="st10"/>
		</g>
		<g id="shape27-75" v:mID="27" v:groupContext="shape" v:layerMember="0" transform="translate(209.821,-42.1766)">
			<title>动态连接线.27</title>
			<path d="M7.09 170.3 L7.09 158.71" class="st10"/>
		</g>
		<g id="shape29-80" v:mID="29" v:groupContext="shape" v:layerMember="0" transform="translate(209.821,-83.9876)">
			<title>动态连接线.29</title>
			<path d="M7.09 170.3 L7.09 158.71" class="st10"/>
		</g>
		<g id="shape32-85" v:mID="32" v:groupContext="shape" v:layerMember="0" transform="translate(374.762,-42.1766)">
			<title>动态连接线.36</title>
			<path d="M7.09 170.3 L7.09 158.71" class="st10"/>
		</g>
		<g id="shape33-90" v:mID="33" v:groupContext="shape" v:layerMember="0" transform="translate(374.762,-83.9876)">
			<title>动态连接线.37</title>
			<path d="M7.09 170.3 L7.09 158.71" class="st10"/>
		</g>
		<g id="shape44-95" v:mID="44" v:groupContext="shape" v:layerMember="0" transform="translate(84.9314,-114.21)">
			<title>动态连接线.44</title>
			<path d="M0 170.3 L3.17 170.3 A3.168 3.168 0 0 1 6.34 173.47 L6.34 207.01 A5.10173 5.10173 -180 0 0 11.44 212.12 L16.54
						 212.12" class="st12"/>
		</g>
		<g id="shape45-101" v:mID="45" v:groupContext="shape" v:layerMember="0" transform="translate(167.402,-114.21)">
			<title>动态连接线.45</title>
			<path d="M0 170.3 L3.17 170.3 A3.168 3.168 0 0 1 6.34 173.47 L6.34 207.01 A5.10173 5.10173 -180 0 0 11.44 212.12 L16.54
						 212.12" class="st12"/>
		</g>
		<g id="shape46-106" v:mID="46" v:groupContext="shape" v:layerMember="0" transform="translate(249.873,-114.21)">
			<title>动态连接线.46</title>
			<path d="M0 170.3 L3.17 170.3 A3.168 3.168 0 0 1 6.34 173.47 L6.34 207.01 A5.10173 5.10173 -180 0 0 11.44 212.12 L16.54
						 212.12" class="st12"/>
		</g>
		<g id="shape47-111" v:mID="47" v:groupContext="shape" v:layerMember="0" transform="translate(332.344,-114.21)">
			<title>动态连接线.47</title>
			<path d="M0 170.3 L3.17 170.3 A3.168 3.168 0 0 1 6.34 173.47 L6.34 207.01 A5.10173 5.10173 -180 0 0 11.44 212.12 L16.54
						 212.12" class="st12"/>
		</g>
		<g id="group67-116" transform="translate(19,-144.433)" v:mID="67" v:groupContext="group">
			<title>工作表.67</title>
			<g id="shape49-117" v:mID="49" v:groupContext="shape">
				<title>矩形.49</title>
				<v:userDefs>
					<v:ud v:nameU="visVersion" v:val="VT0(15):26"/>
				</v:userDefs>
				<path d="M0 170.3 L65.93 170.3 L0 170.3 Z" class="st7"/>
			</g>
			<g id="shape51-119" v:mID="51" v:groupContext="shape" transform="translate(82.4708,0)">
				<title>矩形.51</title>
				<v:userDefs>
					<v:ud v:nameU="visVersion" v:val="VT0(15):26"/>
				</v:userDefs>
				<path d="M0 170.3 L65.93 170.3 L0 170.3 Z" class="st7"/>
			</g>
			<g id="shape53-121" v:mID="53" v:groupContext="shape" transform="translate(164.942,0)">
				<title>矩形.53</title>
				<v:userDefs>
					<v:ud v:nameU="visVersion" v:val="VT0(15):26"/>
				</v:userDefs>
				<path d="M0 170.3 L65.93 170.3 L0 170.3 Z" class="st7"/>
			</g>
			<g id="shape57-123" v:mID="57" v:groupContext="shape" transform="translate(329.883,0)">
				<title>矩形.57</title>
				<v:userDefs>
					<v:ud v:nameU="visVersion" v:val="VT0(15):26"/>
				</v:userDefs>
				<path d="M0 170.3 L65.93 170.3 L0 170.3 Z" class="st7"/>
			</g>
		</g>
		<g id="shape68-125" v:mID="68" v:groupContext="shape" v:layerMember="0" transform="translate(44.8791,-125.799)">
			<title>动态连接线.68</title>
			<path d="M7.09 170.3 L7.09 158.71" class="st10"/>
		</g>
		<g id="shape69-130" v:mID="69" v:groupContext="shape" v:layerMember="0" transform="translate(127.35,-125.799)">
			<title>动态连接线.69</title>
			<path d="M7.09 170.3 L7.09 158.71" class="st10"/>
		</g>
		<g id="shape70-135" v:mID="70" v:groupContext="shape" v:layerMember="0" transform="translate(209.821,-125.799)">
			<title>动态连接线.70</title>
			<path d="M7.09 170.3 L7.09 158.71" class="st10"/>
		</g>
		<g id="shape71-140" v:mID="71" v:groupContext="shape" v:layerMember="0" transform="translate(374.762,-125.799)">
			<title>动态连接线.71</title>
			<path d="M7.09 170.3 L7.09 158.71" class="st10"/>
		</g>
	</g>
</svg>
