<?xml version="1.0" encoding="UTF-8" standalone="no"?>
<!DOCTYPE svg PUBLIC "-//W3C//DTD SVG 1.1//EN" "http://www.w3.org/Graphics/SVG/1.1/DTD/svg11.dtd">
<!-- 由 Microsoft Visio, SVG Export 生成 分词器.svg 页-1 -->
<svg xmlns="http://www.w3.org/2000/svg" xmlns:xlink="http://www.w3.org/1999/xlink" xmlns:ev="http://www.w3.org/2001/xml-events"
		xmlns:v="http://schemas.microsoft.com/visio/2003/SVGExtensions/" width="4.79824in" height="2.41062in"
		viewBox="0 0 345.473 173.565" xml:space="preserve" color-interpolation-filters="sRGB" class="st9">
	<v:documentProperties v:langID="2052" v:metric="true" v:viewMarkup="false"/>

	<style type="text/css">
	<![CDATA[
		.st1 {fill:#e2efd9;stroke:#000000;stroke-width:1}
		.st2 {fill:#000000;font-family:宋体;font-size:1.16666em}
		.st3 {fill:#dae2f3;stroke:#000000;stroke-width:1}
		.st4 {fill:#000000;font-family:Times New Roman;font-size:1.16666em}
		.st5 {fill:#deebf6;stroke:#000000;stroke-width:1}
		.st6 {marker-end:url(#mrkr4-32);stroke:#000000;stroke-linecap:round;stroke-linejoin:round;stroke-width:1}
		.st7 {fill:#000000;fill-opacity:1;stroke:#000000;stroke-opacity:1;stroke-width:0.28409090909091}
		.st8 {marker-end:url(#mrkr4-38);stroke:#000000;stroke-linecap:round;stroke-linejoin:round;stroke-width:1}
		.st9 {fill:none;fill-rule:evenodd;font-size:12px;overflow:visible;stroke-linecap:square;stroke-miterlimit:3}
	]]>
	</style>

	<defs id="Markers">
		<g id="lend4">
			<path d="M 2 1 L 0 0 L 2 -1 L 2 1 " style="stroke:none"/>
		</g>
		<marker id="mrkr4-32" class="st7" v:arrowType="4" v:arrowSize="2" v:setback="0" refX="-0" orient="auto"
				markerUnits="strokeWidth" overflow="visible">
			<use xlink:href="#lend4" transform="scale(-3.52,-3.52) "/>
		</marker>
		<marker id="mrkr4-38" class="st7" v:arrowType="4" v:arrowSize="2" v:setback="7.04" refX="-7.04" orient="auto"
				markerUnits="strokeWidth" overflow="visible">
			<use xlink:href="#lend4" transform="scale(-3.52,-3.52) "/>
		</marker>
	</defs>
	<g v:mID="0" v:index="1" v:groupContext="foregroundPage">
		<title>页-1</title>
		<v:pageProperties v:drawingScale="0.0393701" v:pageScale="0.0393701" v:drawingUnits="24" v:shadowOffsetX="8.50394"
				v:shadowOffsetY="-8.50394"/>
		<v:layer v:name="连接线" v:index="0"/>
		<g id="shape5-1" v:mID="5" v:groupContext="shape" transform="translate(1,-100.327)">
			<title>工作表.5</title>
			<desc>分词器</desc>
			<v:userDefs>
				<v:ud v:nameU="visVersion" v:val="VT0(15):26"/>
			</v:userDefs>
			<v:textBlock v:margins="rect(4,4,4,4)" v:tabSpace="42.5197"/>
			<v:textRect cx="49.3936" cy="157.311" width="98.79" height="32.507"/>
			<rect x="0" y="141.058" width="98.7871" height="32.507" rx="5.66929" ry="5.66929" class="st1"/>
			<text x="28.39" y="161.92" class="st2" v:langID="2052"><v:paragraph v:horizAlign="1"/><v:tabList/>分词器</text>		</g>
		<g id="group13-4" transform="translate(245.686,-1)" v:mID="13" v:groupContext="group">
			<title>工作表.13</title>
			<g id="shape7-5" v:mID="7" v:groupContext="shape" transform="translate(1.03917E-13,-119.192)">
				<title>工作表.7</title>
				<desc>BPE</desc>
				<v:userDefs>
					<v:ud v:nameU="visVersion" v:val="VT0(15):26"/>
				</v:userDefs>
				<v:textBlock v:margins="rect(4,4,4,4)" v:tabSpace="42.5197"/>
				<v:textRect cx="49.3936" cy="157.311" width="98.79" height="32.507"/>
				<rect x="0" y="141.058" width="98.7871" height="32.507" rx="5.66929" ry="5.66929" class="st3"/>
				<text x="36.56" y="161.51" class="st4" v:langID="1033"><v:paragraph v:horizAlign="1"/><v:tabList/>BPE</text>			</g>
			<g id="shape8-8" v:mID="8" v:groupContext="shape" transform="translate(1.03917E-13,-79.4615)">
				<title>工作表.8</title>
				<desc>WordPiece</desc>
				<v:userDefs>
					<v:ud v:nameU="visVersion" v:val="VT0(15):26"/>
				</v:userDefs>
				<v:textBlock v:margins="rect(4,4,4,4)" v:tabSpace="42.5197"/>
				<v:textRect cx="49.3936" cy="157.311" width="98.79" height="32.507"/>
				<rect x="0" y="141.058" width="98.7871" height="32.507" rx="5.66929" ry="5.66929" class="st3"/>
				<text x="18.3" y="161.51" class="st4" v:langID="1033"><v:paragraph v:horizAlign="1"/><v:tabList/>WordPiece</text>			</g>
			<g id="shape9-11" v:mID="9" v:groupContext="shape" transform="translate(1.03917E-13,-39.7308)">
				<title>工作表.9</title>
				<desc>WordPiece</desc>
				<v:userDefs>
					<v:ud v:nameU="visVersion" v:val="VT0(15):26"/>
				</v:userDefs>
				<v:textBlock v:margins="rect(4,4,4,4)" v:tabSpace="42.5197"/>
				<v:textRect cx="49.3936" cy="157.311" width="98.79" height="32.507"/>
				<rect x="0" y="141.058" width="98.7871" height="32.507" rx="5.66929" ry="5.66929" class="st3"/>
				<text x="18.3" y="161.51" class="st4" v:langID="1033"><v:paragraph v:horizAlign="1"/><v:tabList/>WordPiece</text>			</g>
			<g id="shape11-14" v:mID="11" v:groupContext="shape">
				<title>工作表.11</title>
				<desc>SentencePiece</desc>
				<v:userDefs>
					<v:ud v:nameU="visVersion" v:val="VT0(15):26"/>
				</v:userDefs>
				<v:textBlock v:margins="rect(4,4,4,4)" v:tabSpace="42.5197"/>
				<v:textRect cx="49.3936" cy="157.311" width="98.79" height="32.507"/>
				<rect x="0" y="141.058" width="98.7871" height="32.507" rx="5.66929" ry="5.66929" class="st3"/>
				<text x="8.97" y="161.51" class="st4" v:langID="1033"><v:paragraph v:horizAlign="1"/><v:tabList/>SentencePiece</text>			</g>
		</g>
		<g id="group14-17" transform="translate(123.343,-60.5961)" v:mID="14" v:groupContext="group">
			<title>工作表.14</title>
			<g id="shape1-18" v:mID="1" v:groupContext="shape" transform="translate(-7.99361E-15,-79.4615)">
				<title>工作表.1</title>
				<desc>基于词</desc>
				<v:userDefs>
					<v:ud v:nameU="visVersion" v:val="VT0(15):26"/>
				</v:userDefs>
				<v:textBlock v:margins="rect(4,4,4,4)" v:tabSpace="42.5197"/>
				<v:textRect cx="49.3936" cy="157.311" width="98.79" height="32.507"/>
				<rect x="0" y="141.058" width="98.7871" height="32.507" rx="5.66929" ry="5.66929" class="st5"/>
				<text x="28.39" y="161.92" class="st2" v:langID="2052"><v:paragraph v:horizAlign="1"/><v:tabList/>基于词</text>			</g>
			<g id="shape2-21" v:mID="2" v:groupContext="shape" transform="translate(-7.99361E-15,-39.7308)">
				<title>工作表.2</title>
				<desc>基于字符</desc>
				<v:userDefs>
					<v:ud v:nameU="visVersion" v:val="VT0(15):26"/>
				</v:userDefs>
				<v:textBlock v:margins="rect(4,4,4,4)" v:tabSpace="42.5197"/>
				<v:textRect cx="49.3936" cy="157.311" width="98.79" height="32.507"/>
				<rect x="0" y="141.058" width="98.7871" height="32.507" rx="5.66929" ry="5.66929" class="st5"/>
				<text x="21.39" y="161.92" class="st2" v:langID="2052"><v:paragraph v:horizAlign="1"/><v:tabList/>基于字符</text>			</g>
			<g id="shape3-24" v:mID="3" v:groupContext="shape">
				<title>工作表.3</title>
				<desc>基于子词</desc>
				<v:userDefs>
					<v:ud v:nameU="visVersion" v:val="VT0(15):26"/>
				</v:userDefs>
				<v:textBlock v:margins="rect(4,4,4,4)" v:tabSpace="42.5197"/>
				<v:textRect cx="49.3936" cy="157.311" width="98.79" height="32.507"/>
				<rect x="0" y="141.058" width="98.7871" height="32.507" rx="5.66929" ry="5.66929" class="st5"/>
				<text x="21.39" y="161.92" class="st2" v:langID="2052"><v:paragraph v:horizAlign="1"/><v:tabList/>基于子词</text>			</g>
		</g>
		<g id="shape15-27" v:mID="15" v:groupContext="shape" v:layerMember="0" transform="translate(99.7871,-116.58)">
			<title>动态连接线</title>
			<path d="M0 173.56 L7 173.56 A5.66929 5.66929 -180 0 0 12.67 167.9 L12.67 139.28 A5.44195 5.44195 0 0 1 18.11 133.83
						 L23.56 133.83" class="st6"/>
		</g>
		<g id="shape16-33" v:mID="16" v:groupContext="shape" v:layerMember="0" transform="translate(99.7871,-109.494)">
			<title>动态连接线.16</title>
			<path d="M0 166.48 L16.52 166.48" class="st8"/>
		</g>
		<g id="shape17-39" v:mID="17" v:groupContext="shape" v:layerMember="0" transform="translate(99.7871,-116.58)">
			<title>动态连接线.17</title>
			<path d="M0 173.56 L7 173.56 A5.66929 5.66929 0 0 1 12.67 179.23 L12.67 207.85 A5.44195 5.44195 -180 0 0 18.11 213.3
						 L23.56 213.3" class="st6"/>
		</g>
		<g id="shape18-44" v:mID="18" v:groupContext="shape" v:layerMember="0" transform="translate(222.13,-76.8496)">
			<title>动态连接线.18</title>
			<path d="M0 173.56 L7 173.56 A5.66929 5.66929 -180 0 0 12.67 167.9 L12.67 119.41 A5.44195 5.44195 0 0 1 18.11 113.97
						 L23.56 113.97" class="st6"/>
		</g>
		<g id="shape19-49" v:mID="19" v:groupContext="shape" v:layerMember="0" transform="translate(222.13,-76.8496)">
			<title>动态连接线.19</title>
			<path d="M0 173.56 L7 173.56 A5.66929 5.66929 -180 0 0 12.67 167.9 L12.67 159.14 A5.44195 5.44195 0 0 1 18.11 153.7 L23.56
						 153.7" class="st6"/>
		</g>
		<g id="shape20-54" v:mID="20" v:groupContext="shape" v:layerMember="0" transform="translate(222.13,-76.8496)">
			<title>动态连接线.20</title>
			<path d="M0 173.56 L7 173.56 A5.66929 5.66929 0 0 1 12.67 179.23 L12.67 187.99 A5.44195 5.44195 -180 0 0 18.11 193.43
						 L23.56 193.43" class="st6"/>
		</g>
		<g id="shape21-59" v:mID="21" v:groupContext="shape" v:layerMember="0" transform="translate(222.13,-76.8496)">
			<title>动态连接线.21</title>
			<path d="M0 173.56 L7 173.56 A5.66929 5.66929 0 0 1 12.67 179.23 L12.67 227.72 A5.44195 5.44195 -180 0 0 18.11 233.16
						 L23.56 233.16" class="st6"/>
		</g>
	</g>
</svg>
