<?xml version="1.0" encoding="utf-8" standalone="no"?>
<!DOCTYPE svg PUBLIC "-//W3C//DTD SVG 1.1//EN"
  "http://www.w3.org/Graphics/SVG/1.1/DTD/svg11.dtd">
<svg xmlns:xlink="http://www.w3.org/1999/xlink" width="1080pt" height="360pt" viewBox="0 0 1080 360" xmlns="http://www.w3.org/2000/svg" version="1.1">
 <metadata>
  <rdf:RDF xmlns:dc="http://purl.org/dc/elements/1.1/" xmlns:cc="http://creativecommons.org/ns#" xmlns:rdf="http://www.w3.org/1999/02/22-rdf-syntax-ns#">
   <cc:Work>
    <dc:type rdf:resource="http://purl.org/dc/dcmitype/StillImage"/>
    <dc:date>2023-09-24T13:38:12.475800</dc:date>
    <dc:format>image/svg+xml</dc:format>
    <dc:creator>
     <cc:Agent>
      <dc:title>Matplotlib v3.5.0, https://matplotlib.org/</dc:title>
     </cc:Agent>
    </dc:creator>
   </cc:Work>
  </rdf:RDF>
 </metadata>
 <defs>
  <style type="text/css">*{stroke-linejoin: round; stroke-linecap: butt}</style>
 </defs>
 <g id="figure_1">
  <g id="patch_1">
   <path d="M 0 360 
L 1080 360 
L 1080 0 
L 0 0 
L 0 360 
z
" style="fill: none"/>
  </g>
  <g id="axes_1">
   <g id="patch_2">
    <path d="M 135 315 
L 972 315 
L 972 43.2 
L 135 43.2 
z
" style="fill: #ffffff"/>
   </g>
   <g id="matplotlib.axis_1"/>
   <g id="matplotlib.axis_2"/>
   <g id="line2d_1">
    <path d="M 173.045455 179.10004 
L 190.208817 155.121025 
L 199.744019 142.136054 
L 207.37218 132.053999 
L 215.000342 122.326288 
L 222.628503 113.026188 
L 228.349624 106.374006 
L 234.070745 100.030025 
L 239.791866 94.021129 
L 245.512987 88.372783 
L 251.234108 83.108923 
L 256.955229 78.251857 
L 260.76931 75.250048 
L 264.58339 72.443876 
L 268.397471 69.838629 
L 272.211552 67.439214 
L 276.025632 65.25015 
L 279.839713 63.275563 
L 283.653794 61.519171 
L 287.467874 59.984284 
L 291.281955 58.673793 
L 295.096036 57.590167 
L 298.910116 56.735447 
L 302.724197 56.111243 
L 306.538278 55.718732 
L 310.352358 55.558652 
L 314.166439 55.631306 
L 317.980519 55.936556 
L 321.7946 56.473828 
L 325.608681 57.242108 
L 329.422761 58.239951 
L 333.236842 59.465476 
L 337.050923 60.916374 
L 340.865003 62.589912 
L 344.679084 64.482938 
L 348.493165 66.591885 
L 352.307245 68.91278 
L 356.121326 71.441251 
L 359.935407 74.172536 
L 363.749487 77.101487 
L 369.470608 81.853372 
L 375.191729 87.017372 
L 380.91285 92.571602 
L 386.633971 98.492525 
L 392.355092 104.755049 
L 398.076213 111.332633 
L 403.797334 118.197405 
L 411.425496 127.746726 
L 419.053657 137.682833 
L 428.588859 150.532641 
L 440.0311 166.38243 
L 470.543746 208.962797 
L 480.078947 221.770841 
L 487.707109 231.662889 
L 495.33527 241.159041 
L 501.056391 247.978196 
L 506.777512 254.505457 
L 512.498633 260.713163 
L 518.219754 266.575006 
L 523.940875 272.066146 
L 529.661996 277.163311 
L 535.383117 281.844901 
L 539.197198 284.725213 
L 543.011278 287.406544 
L 546.825359 289.883841 
L 550.63944 292.152439 
L 554.45352 294.208063 
L 558.267601 296.046841 
L 562.081681 297.665309 
L 565.895762 299.060418 
L 569.709843 300.229539 
L 573.523923 301.170471 
L 577.338004 301.881441 
L 581.152085 302.361109 
L 584.966165 302.608572 
L 588.780246 302.623364 
L 592.594327 302.405456 
L 596.408407 301.955259 
L 600.222488 301.273622 
L 604.036569 300.361829 
L 607.850649 299.221596 
L 611.66473 297.855073 
L 615.478811 296.264833 
L 619.292891 294.453873 
L 623.106972 292.425603 
L 626.921053 290.183845 
L 630.735133 287.732822 
L 634.549214 285.077151 
L 638.363295 282.221836 
L 642.177375 279.172254 
L 647.898496 274.246298 
L 653.619617 268.917129 
L 659.340738 263.20733 
L 665.061859 257.141099 
L 670.78298 250.744143 
L 676.504101 244.043572 
L 684.132262 234.686437 
L 691.760424 224.910633 
L 699.388585 214.789791 
L 708.923787 201.769859 
L 722.273069 183.128855 
L 743.250513 153.814622 
L 752.785714 140.866123 
L 760.413876 130.82403 
L 768.042037 121.145544 
L 775.670198 111.903562 
L 781.391319 105.300545 
L 787.11244 99.010277 
L 792.833561 93.059416 
L 798.554682 87.47318 
L 804.275803 82.275243 
L 809.996924 77.487633 
L 813.811005 74.533945 
L 817.625085 71.777245 
L 821.439166 69.222724 
L 825.253247 66.875195 
L 829.067327 64.739081 
L 832.881408 62.818406 
L 836.695489 61.116788 
L 840.509569 59.637432 
L 844.32365 58.383126 
L 848.137731 57.356233 
L 851.951811 56.558686 
L 855.765892 55.991988 
L 859.579973 55.657208 
L 863.394053 55.554975 
L 867.208134 55.685482 
L 871.022215 56.048484 
L 874.836295 56.643296 
L 878.650376 57.468798 
L 882.464457 58.523435 
L 886.278537 59.80522 
L 890.092618 61.311739 
L 893.906699 63.040153 
L 897.720779 64.987206 
L 901.53486 67.14923 
L 905.348941 69.522153 
L 909.163021 72.101504 
L 912.977102 74.882424 
L 916.791183 77.859674 
L 922.512303 82.6813 
L 928.233424 87.911533 
L 933.954545 93.528207 
L 933.954545 93.528207 
" clip-path="url(#p32129c2dc1)" style="fill: none; stroke: #1f77b4; stroke-linecap: square"/>
   </g>
   <g id="line2d_2">
    <path d="M 173.045455 55.554545 
L 176.859535 55.662838 
L 180.673616 55.987525 
L 184.487697 56.528038 
L 188.301777 57.283428 
L 192.115858 58.252373 
L 195.929938 59.433173 
L 199.744019 60.823757 
L 203.5581 62.421689 
L 207.37218 64.224168 
L 211.186261 66.228032 
L 215.000342 68.429769 
L 218.814422 70.82552 
L 222.628503 73.411084 
L 226.442584 76.181929 
L 232.163705 80.674886 
L 237.884826 85.556002 
L 243.605947 90.806027 
L 249.327068 96.404258 
L 255.048189 102.328616 
L 260.76931 108.555738 
L 266.490431 115.061065 
L 274.118592 124.123111 
L 281.746753 133.570504 
L 291.281955 145.820537 
L 302.724197 160.989425 
L 321.7946 186.784947 
L 335.143882 204.709072 
L 344.679084 217.197886 
L 352.307245 226.895042 
L 359.935407 236.257192 
L 367.563568 245.218714 
L 373.284689 251.639039 
L 379.00581 257.773292 
L 384.726931 263.597282 
L 390.448052 269.088039 
L 396.169173 274.223911 
L 401.890294 278.984643 
L 407.611415 283.35146 
L 411.425496 286.035259 
L 415.239576 288.531592 
L 419.053657 290.836084 
L 422.867738 292.944694 
L 426.681818 294.853726 
L 430.495899 296.559832 
L 434.309979 298.060023 
L 438.12406 299.351668 
L 441.938141 300.432502 
L 445.752221 301.300632 
L 449.566302 301.954534 
L 453.380383 302.393064 
L 457.194463 302.615451 
L 461.008544 302.621306 
L 464.822625 302.410619 
L 468.636705 301.98376 
L 472.450786 301.341476 
L 476.264867 300.484893 
L 480.078947 299.415514 
L 483.893028 298.135212 
L 487.707109 296.646232 
L 491.521189 294.951186 
L 495.33527 293.053043 
L 499.149351 290.955132 
L 502.963431 288.661131 
L 506.777512 286.17506 
L 510.591593 283.501279 
L 516.312714 279.148992 
L 522.033835 274.402141 
L 527.754956 269.279448 
L 533.476077 263.801114 
L 539.197198 257.988744 
L 544.918319 251.865261 
L 550.63944 245.454814 
L 558.267601 236.505007 
L 565.895762 227.152837 
L 573.523923 217.463853 
L 583.059125 204.982626 
L 596.408407 187.06408 
L 621.199932 153.627834 
L 630.735133 141.135249 
L 638.363295 131.434026 
L 645.991456 122.066905 
L 653.619617 113.099542 
L 659.340738 106.674291 
L 665.061859 100.534664 
L 670.78298 94.704876 
L 676.504101 89.207917 
L 682.225222 84.065466 
L 687.946343 79.297803 
L 693.667464 74.92373 
L 697.481545 72.234927 
L 701.295625 69.733467 
L 705.109706 67.423734 
L 708.923787 65.309779 
L 712.737867 63.395306 
L 716.551948 61.683673 
L 720.366029 60.17788 
L 724.180109 58.880566 
L 727.99419 57.794006 
L 731.808271 56.920104 
L 735.622351 56.260394 
L 739.436432 55.816031 
L 743.250513 55.587793 
L 747.064593 55.576083 
L 750.878674 55.780919 
L 754.692755 56.201943 
L 758.506835 56.838416 
L 762.320916 57.689224 
L 766.134997 58.752874 
L 769.949077 60.027502 
L 773.763158 61.510872 
L 777.577239 63.200386 
L 781.391319 65.093081 
L 785.2054 67.185638 
L 789.019481 69.47439 
L 792.833561 71.955324 
L 796.647642 74.62409 
L 802.368763 78.969105 
L 808.089884 83.709006 
L 813.811005 88.8251 
L 819.532126 94.297212 
L 825.253247 100.103761 
L 830.974368 106.221847 
L 836.695489 112.627343 
L 844.32365 121.571274 
L 851.951811 130.918438 
L 859.579973 140.603317 
L 869.115174 153.080726 
L 882.464457 170.996448 
L 907.255981 204.435386 
L 916.791183 216.931725 
L 924.419344 226.637003 
L 932.047505 236.009083 
L 933.954545 238.292285 
L 933.954545 238.292285 
" clip-path="url(#p32129c2dc1)" style="fill: none; stroke: #ff7f0e; stroke-linecap: square"/>
   </g>
   <g id="line2d_3">
    <path d="M 173.045455 179.10004 
L 192.115858 154.317403 
L 201.651059 142.242041 
L 211.186261 130.54222 
L 218.814422 121.533019 
L 226.442584 112.899321 
L 232.163705 106.70445 
L 237.884826 100.775269 
L 243.605947 95.133539 
L 249.327068 89.799965 
L 255.048189 84.79412 
L 260.76931 80.134376 
L 266.490431 75.837834 
L 272.211552 71.920263 
L 276.025632 69.526247 
L 279.839713 67.310987 
L 283.653794 65.278097 
L 287.467874 63.430895 
L 291.281955 61.772392 
L 295.096036 60.305296 
L 298.910116 59.031999 
L 302.724197 57.954579 
L 306.538278 57.074793 
L 310.352358 56.394077 
L 314.166439 55.91354 
L 317.980519 55.633968 
L 321.7946 55.555815 
L 325.608681 55.679211 
L 329.422761 56.003952 
L 333.236842 56.52951 
L 337.050923 57.255028 
L 340.865003 58.17932 
L 344.679084 59.300881 
L 348.493165 60.617879 
L 352.307245 62.128167 
L 356.121326 63.82928 
L 359.935407 65.718444 
L 363.749487 67.792576 
L 367.563568 70.048293 
L 371.377649 72.481915 
L 377.09877 76.457157 
L 382.819891 80.809096 
L 388.541012 85.521761 
L 394.262133 90.577857 
L 399.983254 95.958828 
L 405.704375 101.644925 
L 411.425496 107.615281 
L 417.146617 113.847985 
L 424.774778 122.526689 
L 432.402939 131.574414 
L 440.0311 140.932142 
L 449.566302 152.972093 
L 462.915584 170.24724 
L 489.614149 204.979246 
L 499.149351 217.025863 
L 508.684552 228.68606 
L 516.312714 237.655996 
L 523.940875 246.243978 
L 529.661996 252.400507 
L 535.383117 258.288024 
L 541.104238 263.884923 
L 546.825359 269.170663 
L 552.54648 274.125845 
L 558.267601 278.732284 
L 563.988722 282.973075 
L 569.709843 286.832654 
L 573.523923 289.186868 
L 577.338004 291.361489 
L 581.152085 293.352968 
L 584.966165 295.158058 
L 588.780246 296.773812 
L 592.594327 298.197596 
L 596.408407 299.427087 
L 600.222488 300.460279 
L 604.036569 301.295486 
L 607.850649 301.931345 
L 611.66473 302.366821 
L 615.478811 302.601201 
L 619.292891 302.634104 
L 623.106972 302.465476 
L 626.921053 302.095591 
L 630.735133 301.525055 
L 634.549214 300.754797 
L 638.363295 299.786073 
L 642.177375 298.620465 
L 645.991456 297.259874 
L 649.805537 295.706519 
L 653.619617 293.962934 
L 657.433698 292.031964 
L 661.247779 289.91676 
L 665.061859 287.620771 
L 670.78298 283.846091 
L 676.504101 279.686994 
L 682.225222 275.158745 
L 687.946343 270.277963 
L 693.667464 265.062559 
L 699.388585 259.531674 
L 705.109706 253.705607 
L 710.830827 247.605739 
L 718.458988 239.085495 
L 726.08715 230.173975 
L 733.715311 220.929307 
L 743.250513 208.997024 
L 754.692755 194.287122 
L 792.833561 144.875369 
L 802.368763 133.082387 
L 809.996924 123.979969 
L 817.625085 115.237091 
L 825.253247 106.910782 
L 830.974368 100.972207 
L 836.695489 95.32036 
L 842.41661 89.975984 
L 848.137731 84.95869 
L 853.858852 80.286894 
L 859.579973 75.97774 
L 865.301094 72.047043 
L 869.115174 69.644015 
L 872.929255 67.419551 
L 876.743336 65.377281 
L 880.557416 63.520535 
L 884.371497 61.852344 
L 888.185578 60.375428 
L 891.999658 59.092197 
L 895.813739 58.004744 
L 899.62782 57.114844 
L 903.4419 56.423949 
L 907.255981 55.933184 
L 911.070062 55.643352 
L 914.884142 55.554924 
L 918.698223 55.668045 
L 922.512303 55.982531 
L 926.326384 56.497868 
L 930.140465 57.213216 
L 933.954545 58.127408 
L 933.954545 58.127408 
" clip-path="url(#p32129c2dc1)" style="fill: none; stroke: #2ca02c; stroke-linecap: square"/>
   </g>
   <g id="line2d_4">
    <path d="M 173.045455 55.554545 
L 176.859535 55.648325 
L 180.673616 55.92952 
L 184.487697 56.397704 
L 188.301777 57.052166 
L 192.115858 57.891913 
L 195.929938 58.915669 
L 199.744019 60.121882 
L 203.5581 61.508718 
L 207.37218 63.074074 
L 211.186261 64.815572 
L 215.000342 66.73057 
L 218.814422 68.816158 
L 224.535543 72.257405 
L 230.256664 76.063546 
L 235.977785 80.221584 
L 241.698906 84.717316 
L 247.420027 89.535389 
L 253.141148 94.659349 
L 258.862269 100.071695 
L 264.58339 105.753943 
L 270.304511 111.686686 
L 277.932673 119.951535 
L 285.560834 128.575429 
L 293.188995 137.506018 
L 302.724197 149.017808 
L 314.166439 163.198665 
L 354.214286 213.251178 
L 363.749487 224.637121 
L 371.377649 233.440044 
L 379.00581 241.913111 
L 386.633971 250.004889 
L 392.355092 255.793858 
L 398.076213 261.320898 
L 403.797334 266.567133 
L 409.518455 271.514646 
L 415.239576 276.146539 
L 420.960697 280.446993 
L 426.681818 284.401322 
L 432.402939 287.996021 
L 438.12406 291.218812 
L 441.938141 293.155235 
L 445.752221 294.918507 
L 449.566302 296.505952 
L 453.380383 297.915159 
L 457.194463 299.143989 
L 461.008544 300.190577 
L 464.822625 301.053334 
L 468.636705 301.730949 
L 472.450786 302.222395 
L 476.264867 302.526925 
L 480.078947 302.644077 
L 483.893028 302.573672 
L 487.707109 302.315819 
L 491.521189 301.870908 
L 495.33527 301.239614 
L 499.149351 300.422897 
L 502.963431 299.421996 
L 506.777512 298.23843 
L 510.591593 296.873996 
L 514.405673 295.330766 
L 518.219754 293.611083 
L 522.033835 291.717557 
L 525.847915 289.653063 
L 531.569036 286.242682 
L 537.290157 282.466382 
L 543.011278 278.33706 
L 548.732399 273.868817 
L 554.45352 269.076916 
L 560.174641 263.97772 
L 565.895762 258.588646 
L 571.616883 252.928097 
L 577.338004 247.015407 
L 584.966165 238.774618 
L 592.594327 230.171591 
L 600.222488 221.258548 
L 609.75769 209.763863 
L 621.199932 195.596241 
L 663.154819 143.216017 
L 672.690021 131.888105 
L 680.318182 123.143072 
L 687.946343 114.737711 
L 695.574504 106.723043 
L 701.295625 100.997798 
L 707.016746 95.539293 
L 712.737867 90.366169 
L 718.458988 85.496094 
L 724.180109 80.9457 
L 729.90123 76.730528 
L 735.622351 72.864974 
L 741.343472 69.36224 
L 747.064593 66.234288 
L 750.878674 64.362529 
L 754.692755 62.664956 
L 758.506835 61.144147 
L 762.320916 59.80241 
L 766.134997 58.641783 
L 769.949077 57.664027 
L 773.763158 56.870627 
L 777.577239 56.262788 
L 781.391319 55.841431 
L 785.2054 55.607197 
L 789.019481 55.560441 
L 792.833561 55.701235 
L 796.647642 56.029364 
L 800.461722 56.544331 
L 804.275803 57.245353 
L 808.089884 58.131367 
L 811.903964 59.201027 
L 815.718045 60.452709 
L 819.532126 61.884513 
L 823.346206 63.494266 
L 827.160287 65.279524 
L 830.974368 67.237576 
L 836.695489 70.492071 
L 842.41661 74.11749 
L 848.137731 78.10145 
L 853.858852 82.430347 
L 859.579973 87.089395 
L 865.301094 92.062683 
L 871.022215 97.333226 
L 876.743336 102.883023 
L 882.464457 108.693121 
L 890.092618 116.810414 
L 897.720779 125.305818 
L 905.348941 134.127765 
L 914.884142 145.532655 
L 926.326384 159.628921 
L 933.954545 169.186136 
L 933.954545 169.186136 
" clip-path="url(#p32129c2dc1)" style="fill: none; stroke: #d62728; stroke-linecap: square"/>
   </g>
   <g id="patch_3">
    <path d="M 173.045455 315 
L 173.045455 43.2 
" style="fill: none; stroke: #808080; stroke-width: 0.8; stroke-linejoin: miter; stroke-linecap: square"/>
   </g>
   <g id="patch_4">
    <path d="M 972 315 
L 972 43.2 
" style="fill: none"/>
   </g>
   <g id="patch_5">
    <path d="M 135 179.10004 
L 972 179.10004 
" style="fill: none; stroke: #808080; stroke-width: 0.8; stroke-linejoin: miter; stroke-linecap: square"/>
   </g>
   <g id="patch_6">
    <path d="M 135 43.2 
L 972 43.2 
" style="fill: none"/>
   </g>
   <g id="legend_1">
    <g id="patch_7">
     <path d="M 142 310 
L 197.05625 310 
Q 199.05625 310 199.05625 308 
L 199.05625 252.44375 
Q 199.05625 250.44375 197.05625 250.44375 
L 142 250.44375 
Q 140 250.44375 140 252.44375 
L 140 308 
Q 140 310 142 310 
z
" style="fill: #ffffff; opacity: 0.8; stroke: #cccccc; stroke-linejoin: miter"/>
    </g>
    <g id="line2d_5">
     <path d="M 144 257.94375 
L 154 257.94375 
L 164 257.94375 
" style="fill: none; stroke: #1f77b4; stroke-linecap: square"/>
    </g>
    <g id="text_1">
     <!-- dim 4 -->
     <g transform="translate(172 261.44375)scale(0.1 -0.1)">
      <defs>
       <path id="TimesNewRomanPSMT-64" d="M 2222 322 
Q 2013 103 1813 7 
Q 1613 -88 1381 -88 
Q 913 -88 563 304 
Q 213 697 213 1313 
Q 213 1928 600 2439 
Q 988 2950 1597 2950 
Q 1975 2950 2222 2709 
L 2222 3238 
Q 2222 3728 2198 3840 
Q 2175 3953 2125 3993 
Q 2075 4034 2000 4034 
Q 1919 4034 1784 3984 
L 1744 4094 
L 2597 4444 
L 2738 4444 
L 2738 1134 
Q 2738 631 2761 520 
Q 2784 409 2836 365 
Q 2888 322 2956 322 
Q 3041 322 3181 375 
L 3216 266 
L 2366 -88 
L 2222 -88 
L 2222 322 
z
M 2222 541 
L 2222 2016 
Q 2203 2228 2109 2403 
Q 2016 2578 1861 2667 
Q 1706 2756 1559 2756 
Q 1284 2756 1069 2509 
Q 784 2184 784 1559 
Q 784 928 1059 592 
Q 1334 256 1672 256 
Q 1956 256 2222 541 
z
" transform="scale(0.015625)"/>
       <path id="TimesNewRomanPSMT-69" d="M 928 4444 
Q 1059 4444 1151 4351 
Q 1244 4259 1244 4128 
Q 1244 3997 1151 3903 
Q 1059 3809 928 3809 
Q 797 3809 703 3903 
Q 609 3997 609 4128 
Q 609 4259 701 4351 
Q 794 4444 928 4444 
z
M 1188 2947 
L 1188 647 
Q 1188 378 1227 289 
Q 1266 200 1342 156 
Q 1419 113 1622 113 
L 1622 0 
L 231 0 
L 231 113 
Q 441 113 512 153 
Q 584 194 626 287 
Q 669 381 669 647 
L 669 1750 
Q 669 2216 641 2353 
Q 619 2453 572 2492 
Q 525 2531 444 2531 
Q 356 2531 231 2484 
L 188 2597 
L 1050 2947 
L 1188 2947 
z
" transform="scale(0.015625)"/>
       <path id="TimesNewRomanPSMT-6d" d="M 1050 2338 
Q 1363 2650 1419 2697 
Q 1559 2816 1721 2881 
Q 1884 2947 2044 2947 
Q 2313 2947 2506 2790 
Q 2700 2634 2766 2338 
Q 3088 2713 3309 2830 
Q 3531 2947 3766 2947 
Q 3994 2947 4170 2830 
Q 4347 2713 4450 2447 
Q 4519 2266 4519 1878 
L 4519 647 
Q 4519 378 4559 278 
Q 4591 209 4675 161 
Q 4759 113 4950 113 
L 4950 0 
L 3538 0 
L 3538 113 
L 3597 113 
Q 3781 113 3884 184 
Q 3956 234 3988 344 
Q 4000 397 4000 647 
L 4000 1878 
Q 4000 2228 3916 2372 
Q 3794 2572 3525 2572 
Q 3359 2572 3192 2489 
Q 3025 2406 2788 2181 
L 2781 2147 
L 2788 2013 
L 2788 647 
Q 2788 353 2820 281 
Q 2853 209 2943 161 
Q 3034 113 3253 113 
L 3253 0 
L 1806 0 
L 1806 113 
Q 2044 113 2133 169 
Q 2222 225 2256 338 
Q 2272 391 2272 647 
L 2272 1878 
Q 2272 2228 2169 2381 
Q 2031 2581 1784 2581 
Q 1616 2581 1450 2491 
Q 1191 2353 1050 2181 
L 1050 647 
Q 1050 366 1089 281 
Q 1128 197 1204 155 
Q 1281 113 1516 113 
L 1516 0 
L 100 0 
L 100 113 
Q 297 113 375 155 
Q 453 197 493 289 
Q 534 381 534 647 
L 534 1741 
Q 534 2213 506 2350 
Q 484 2453 437 2492 
Q 391 2531 309 2531 
Q 222 2531 100 2484 
L 53 2597 
L 916 2947 
L 1050 2947 
L 1050 2338 
z
" transform="scale(0.015625)"/>
       <path id="TimesNewRomanPSMT-20" transform="scale(0.015625)"/>
       <path id="TimesNewRomanPSMT-34" d="M 2978 1563 
L 2978 1119 
L 2409 1119 
L 2409 0 
L 1894 0 
L 1894 1119 
L 100 1119 
L 100 1519 
L 2066 4325 
L 2409 4325 
L 2409 1563 
L 2978 1563 
z
M 1894 1563 
L 1894 3666 
L 406 1563 
L 1894 1563 
z
" transform="scale(0.015625)"/>
      </defs>
      <use xlink:href="#TimesNewRomanPSMT-64"/>
      <use xlink:href="#TimesNewRomanPSMT-69" x="50"/>
      <use xlink:href="#TimesNewRomanPSMT-6d" x="77.783203"/>
      <use xlink:href="#TimesNewRomanPSMT-20" x="155.566406"/>
      <use xlink:href="#TimesNewRomanPSMT-34" x="180.566406"/>
     </g>
    </g>
    <g id="line2d_6">
     <path d="M 144 272.082812 
L 154 272.082812 
L 164 272.082812 
" style="fill: none; stroke: #ff7f0e; stroke-linecap: square"/>
    </g>
    <g id="text_2">
     <!-- dim 5 -->
     <g transform="translate(172 275.582812)scale(0.1 -0.1)">
      <defs>
       <path id="TimesNewRomanPSMT-35" d="M 2778 4238 
L 2534 3706 
L 1259 3706 
L 981 3138 
Q 1809 3016 2294 2522 
Q 2709 2097 2709 1522 
Q 2709 1188 2573 903 
Q 2438 619 2231 419 
Q 2025 219 1772 97 
Q 1413 -75 1034 -75 
Q 653 -75 479 54 
Q 306 184 306 341 
Q 306 428 378 495 
Q 450 563 559 563 
Q 641 563 702 538 
Q 763 513 909 409 
Q 1144 247 1384 247 
Q 1750 247 2026 523 
Q 2303 800 2303 1197 
Q 2303 1581 2056 1914 
Q 1809 2247 1375 2428 
Q 1034 2569 447 2591 
L 1259 4238 
L 2778 4238 
z
" transform="scale(0.015625)"/>
      </defs>
      <use xlink:href="#TimesNewRomanPSMT-64"/>
      <use xlink:href="#TimesNewRomanPSMT-69" x="50"/>
      <use xlink:href="#TimesNewRomanPSMT-6d" x="77.783203"/>
      <use xlink:href="#TimesNewRomanPSMT-20" x="155.566406"/>
      <use xlink:href="#TimesNewRomanPSMT-35" x="180.566406"/>
     </g>
    </g>
    <g id="line2d_7">
     <path d="M 144 286.221875 
L 154 286.221875 
L 164 286.221875 
" style="fill: none; stroke: #2ca02c; stroke-linecap: square"/>
    </g>
    <g id="text_3">
     <!-- dim 6 -->
     <g transform="translate(172 289.721875)scale(0.1 -0.1)">
      <defs>
       <path id="TimesNewRomanPSMT-36" d="M 2869 4325 
L 2869 4209 
Q 2456 4169 2195 4045 
Q 1934 3922 1679 3669 
Q 1425 3416 1258 3105 
Q 1091 2794 978 2366 
Q 1428 2675 1881 2675 
Q 2316 2675 2634 2325 
Q 2953 1975 2953 1425 
Q 2953 894 2631 456 
Q 2244 -75 1606 -75 
Q 1172 -75 869 213 
Q 275 772 275 1663 
Q 275 2231 503 2743 
Q 731 3256 1154 3653 
Q 1578 4050 1965 4187 
Q 2353 4325 2688 4325 
L 2869 4325 
z
M 925 2138 
Q 869 1716 869 1456 
Q 869 1156 980 804 
Q 1091 453 1309 247 
Q 1469 100 1697 100 
Q 1969 100 2183 356 
Q 2397 613 2397 1088 
Q 2397 1622 2184 2012 
Q 1972 2403 1581 2403 
Q 1463 2403 1327 2353 
Q 1191 2303 925 2138 
z
" transform="scale(0.015625)"/>
      </defs>
      <use xlink:href="#TimesNewRomanPSMT-64"/>
      <use xlink:href="#TimesNewRomanPSMT-69" x="50"/>
      <use xlink:href="#TimesNewRomanPSMT-6d" x="77.783203"/>
      <use xlink:href="#TimesNewRomanPSMT-20" x="155.566406"/>
      <use xlink:href="#TimesNewRomanPSMT-36" x="180.566406"/>
     </g>
    </g>
    <g id="line2d_8">
     <path d="M 144 300.360937 
L 154 300.360937 
L 164 300.360937 
" style="fill: none; stroke: #d62728; stroke-linecap: square"/>
    </g>
    <g id="text_4">
     <!-- dim 7 -->
     <g transform="translate(172 303.860937)scale(0.1 -0.1)">
      <defs>
       <path id="TimesNewRomanPSMT-37" d="M 644 4238 
L 2916 4238 
L 2916 4119 
L 1503 -88 
L 1153 -88 
L 2419 3728 
L 1253 3728 
Q 900 3728 750 3644 
Q 488 3500 328 3200 
L 238 3234 
L 644 4238 
z
" transform="scale(0.015625)"/>
      </defs>
      <use xlink:href="#TimesNewRomanPSMT-64"/>
      <use xlink:href="#TimesNewRomanPSMT-69" x="50"/>
      <use xlink:href="#TimesNewRomanPSMT-6d" x="77.783203"/>
      <use xlink:href="#TimesNewRomanPSMT-20" x="155.566406"/>
      <use xlink:href="#TimesNewRomanPSMT-37" x="180.566406"/>
     </g>
    </g>
   </g>
  </g>
 </g>
 <defs>
  <clipPath id="p32129c2dc1">
   <rect x="135" y="43.2" width="837" height="271.8"/>
  </clipPath>
 </defs>
</svg>
