<?xml version="1.0" encoding="utf-8" standalone="no"?>
<!DOCTYPE svg PUBLIC "-//W3C//DTD SVG 1.1//EN"
  "http://www.w3.org/Graphics/SVG/1.1/DTD/svg11.dtd">
<svg xmlns:xlink="http://www.w3.org/1999/xlink" width="319.864pt" height="236.16pt" viewBox="0 0 319.864 236.16" xmlns="http://www.w3.org/2000/svg" version="1.1">
 <metadata>
  <rdf:RDF xmlns:dc="http://purl.org/dc/elements/1.1/" xmlns:cc="http://creativecommons.org/ns#" xmlns:rdf="http://www.w3.org/1999/02/22-rdf-syntax-ns#">
   <cc:Work>
    <dc:type rdf:resource="http://purl.org/dc/dcmitype/StillImage"/>
    <dc:date>2024-01-10T21:08:37.800926</dc:date>
    <dc:format>image/svg+xml</dc:format>
    <dc:creator>
     <cc:Agent>
      <dc:title>Matplotlib v3.8.2, https://matplotlib.org/</dc:title>
     </cc:Agent>
    </dc:creator>
   </cc:Work>
  </rdf:RDF>
 </metadata>
 <defs>
  <style type="text/css">*{stroke-linejoin: round; stroke-linecap: butt}</style>
 </defs>
 <g id="figure_1">
  <g id="patch_1">
   <path d="M 0 236.16 
L 319.864 236.16 
L 319.864 0 
L 0 0 
z
" style="fill: #ffffff"/>
  </g>
  <g id="axes_1">
   <g id="patch_2">
    <path d="M 206.784 118.08 
C 206.784 112.623461 206.28052 107.178542 205.279965 101.814522 
C 204.27941 96.450502 202.786042 91.190228 200.818863 86.100629 
L 118.08 118.08 
z
" style="fill: #ff9999"/>
   </g>
   <g id="patch_3">
    <path d="M 200.818863 86.100629 
C 200.138984 84.341608 199.403184 82.604715 198.612583 80.8926 
C 197.821982 79.180484 196.976983 77.494016 196.078874 75.835767 
L 118.08 118.08 
z
" style="fill: #66b3ff"/>
   </g>
   <g id="patch_4">
    <path d="M 196.078874 75.835767 
C 195.636485 75.018948 195.181292 74.209129 194.713463 73.406609 
C 194.245635 72.604088 193.765229 71.808966 193.272424 71.021537 
L 118.08 118.08 
z
" style="fill: #99ff99"/>
   </g>
   <g id="patch_5">
    <path d="M 193.272424 71.021537 
C 184.089539 56.348651 170.809556 44.679642 155.07755 37.460021 
C 139.345543 30.2404 121.839097 27.78112 104.726843 30.386826 
C 87.614588 32.992532 71.633558 40.550995 58.763419 52.125903 
C 45.893281 63.700812 36.688357 78.793627 32.288919 95.534711 
C 27.889481 112.275796 28.485013 129.944102 34.001744 146.350949 
C 39.518476 162.757796 49.718798 177.196534 63.339134 187.878547 
C 76.95947 198.56056 93.413186 205.02577 110.662059 206.47329 
C 127.910933 207.920811 145.212047 204.288298 160.422207 196.025732 
L 118.08 118.08 
z
" style="fill: #ffcc99"/>
   </g>
   <g id="patch_6">
    <path d="M 160.422207 196.025732 
C 165.822435 193.092184 170.903209 189.605355 175.582609 185.621466 
C 180.262009 181.637576 184.514749 177.178154 188.27226 172.315102 
L 118.08 118.08 
z
" style="fill: #c2c2f0"/>
   </g>
   <g id="patch_7">
    <path d="M 188.27226 172.315102 
C 194.232053 164.601807 198.879897 155.958627 202.028595 146.733673 
C 205.177293 137.50872 206.783999 127.827526 206.784 118.08001 
L 118.08 118.08 
z
" style="fill: #ffb3e6"/>
   </g>
   <g id="matplotlib.axis_1"/>
   <g id="matplotlib.axis_2"/>
   <g id="legend_1">
    <g id="patch_8">
     <path d="M 221.174938 165.450312 
L 310.664 165.450312 
Q 312.664 165.450312 312.664 163.450312 
L 312.664 72.709688 
Q 312.664 70.709688 310.664 70.709688 
L 221.174938 70.709688 
Q 219.174938 70.709688 219.174938 72.709688 
L 219.174938 163.450312 
Q 219.174938 165.450312 221.174938 165.450312 
z
" style="fill: #ffffff; opacity: 0.8; stroke: #cccccc; stroke-linejoin: miter"/>
    </g>
    <g id="patch_9">
     <path d="M 223.174938 82.87375 
L 243.174938 82.87375 
L 243.174938 75.87375 
L 223.174938 75.87375 
z
" style="fill: #ff9999"/>
    </g>
    <g id="text_1">
     <!-- 愤怒(5.87%) -->
     <g transform="translate(251.174938 82.87375) scale(0.1 -0.1)">
      <defs>
       <path id="SimSun-6124" d="M 4200 4300 
Q 4200 3975 4225 3725 
L 3850 3625 
Q 3875 4050 3875 4300 
L 3075 4300 
Q 2750 4300 2475 4225 
L 2250 4450 
L 3875 4450 
Q 3875 4800 3850 5200 
L 4400 4925 
L 4200 4800 
L 4200 4450 
L 5150 4450 
L 5425 4725 
L 5850 4300 
L 4200 4300 
z
M 5025 3225 
Q 5025 3050 5050 2800 
L 4700 2675 
L 4700 3225 
L 3275 3225 
L 3275 2775 
L 2925 2675 
Q 2950 2975 2950 3225 
L 2525 3225 
L 2300 3175 
L 2100 3375 
L 2950 3375 
Q 2950 3725 2925 4050 
L 3450 3775 
L 3275 3625 
L 3275 3375 
L 4700 3375 
Q 4700 3650 4675 4025 
L 5225 3750 
L 5025 3600 
L 5025 3375 
L 5350 3375 
L 5650 3675 
L 6100 3225 
L 5025 3225 
z
M 5525 2200 
Q 5525 1300 5550 675 
L 5175 500 
L 5175 2325 
L 2775 2325 
L 2775 600 
L 2425 425 
Q 2450 950 2450 1537 
Q 2450 2125 2425 2675 
L 2775 2475 
L 5150 2475 
L 5375 2700 
L 5725 2350 
L 5525 2200 
z
M 3725 2100 
L 4325 1850 
L 4125 1675 
Q 4000 550 3537 62 
Q 3075 -425 1725 -625 
L 1725 -525 
Q 2350 -400 2875 -100 
Q 3400 200 3575 725 
Q 3750 1250 3725 2100 
z
M 4300 475 
Q 5250 250 5600 62 
Q 5950 -125 5962 -337 
Q 5975 -550 5887 -600 
Q 5800 -650 5450 -300 
Q 5075 50 4275 375 
L 4300 475 
z
M 1050 575 
L 1050 4075 
Q 1050 4775 1000 5125 
L 1575 4850 
L 1375 4675 
L 1375 3875 
Q 1875 3700 1987 3525 
Q 2100 3350 2050 3212 
Q 2000 3075 1900 3062 
Q 1800 3050 1725 3275 
Q 1650 3475 1375 3775 
L 1375 400 
Q 1375 0 1400 -500 
L 1025 -650 
Q 1050 125 1050 575 
z
M 750 3625 
Q 800 3100 800 3000 
Q 800 2775 737 2625 
Q 675 2475 525 2425 
Q 375 2375 312 2437 
Q 250 2500 250 2550 
Q 250 2650 375 2800 
Q 575 3000 650 3625 
L 750 3625 
z
" transform="scale(0.015625)"/>
       <path id="SimSun-6012" d="M 1950 1500 
L 2525 1225 
L 2325 1050 
L 2325 225 
Q 2300 -150 2575 -100 
L 4000 -100 
Q 4350 -125 4412 125 
Q 4475 375 4500 800 
L 4550 800 
L 4600 800 
Q 4600 400 4662 175 
Q 4725 -50 4925 -100 
Q 4675 -450 4150 -425 
L 2475 -425 
Q 1950 -450 1975 0 
Q 1975 975 1950 1500 
z
M 2900 1750 
L 2975 1825 
Q 3550 1475 3675 1325 
Q 3800 1175 3800 1050 
Q 3800 900 3700 762 
Q 3600 625 3550 625 
Q 3475 625 3400 875 
Q 3275 1250 2900 1750 
z
M 4725 1400 
L 4800 1475 
Q 5575 1025 5700 862 
Q 5825 700 5825 600 
Q 5825 500 5725 350 
Q 5625 200 5575 200 
Q 5475 200 5400 425 
Q 5275 775 4725 1400 
z
M 1250 1275 
L 1350 1275 
Q 1350 650 1250 375 
Q 1150 100 950 50 
Q 750 0 675 75 
Q 600 150 600 175 
Q 600 275 800 450 
Q 1050 650 1250 1275 
z
M 4350 2800 
Q 3575 2125 2375 1800 
L 2325 1875 
Q 3425 2275 4150 3025 
Q 3650 3650 3425 4450 
L 3175 4400 
L 2975 4600 
L 4975 4600 
L 5200 4850 
L 5600 4475 
L 5375 4325 
Q 5000 3525 4575 3025 
Q 5300 2375 6075 2325 
L 6075 2225 
Q 5650 2125 5625 1900 
Q 4850 2300 4350 2800 
z
M 3525 4450 
Q 3925 3600 4350 3250 
Q 4725 3750 5025 4450 
L 3525 4450 
z
M 2425 2975 
Q 2750 2850 2875 2725 
Q 3000 2600 2962 2437 
Q 2925 2275 2875 2275 
Q 2800 2275 2725 2375 
Q 2525 2575 2250 2750 
Q 1550 2050 325 1725 
L 275 1800 
Q 1425 2225 1975 2875 
Q 1550 3050 1025 3175 
L 1400 4125 
L 800 4125 
L 525 4075 
L 325 4275 
L 1450 4275 
Q 1675 4925 1700 5225 
L 2200 4950 
L 2000 4825 
Q 1875 4550 1775 4275 
L 2550 4275 
L 2725 4500 
L 3100 4175 
L 2925 4050 
Q 2675 3350 2425 2975 
z
M 1725 4125 
L 1350 3250 
Q 1700 3175 2125 3075 
Q 2375 3500 2575 4125 
L 1725 4125 
z
" transform="scale(0.015625)"/>
       <path id="TimesNewRomanPSMT-28" d="M 1988 -1253 
L 1988 -1369 
Q 1516 -1131 1200 -813 
Q 750 -359 506 256 
Q 263 872 263 1534 
Q 263 2503 741 3301 
Q 1219 4100 1988 4444 
L 1988 4313 
Q 1603 4100 1356 3731 
Q 1109 3363 987 2797 
Q 866 2231 866 1616 
Q 866 947 969 400 
Q 1050 -31 1165 -292 
Q 1281 -553 1476 -793 
Q 1672 -1034 1988 -1253 
z
" transform="scale(0.015625)"/>
       <path id="TimesNewRomanPSMT-35" d="M 2778 4238 
L 2534 3706 
L 1259 3706 
L 981 3138 
Q 1809 3016 2294 2522 
Q 2709 2097 2709 1522 
Q 2709 1188 2573 903 
Q 2438 619 2231 419 
Q 2025 219 1772 97 
Q 1413 -75 1034 -75 
Q 653 -75 479 54 
Q 306 184 306 341 
Q 306 428 378 495 
Q 450 563 559 563 
Q 641 563 702 538 
Q 763 513 909 409 
Q 1144 247 1384 247 
Q 1750 247 2026 523 
Q 2303 800 2303 1197 
Q 2303 1581 2056 1914 
Q 1809 2247 1375 2428 
Q 1034 2569 447 2591 
L 1259 4238 
L 2778 4238 
z
" transform="scale(0.015625)"/>
       <path id="TimesNewRomanPSMT-2e" d="M 800 606 
Q 947 606 1047 504 
Q 1147 403 1147 259 
Q 1147 116 1045 14 
Q 944 -88 800 -88 
Q 656 -88 554 14 
Q 453 116 453 259 
Q 453 406 554 506 
Q 656 606 800 606 
z
" transform="scale(0.015625)"/>
       <path id="TimesNewRomanPSMT-38" d="M 1228 2134 
Q 725 2547 579 2797 
Q 434 3047 434 3316 
Q 434 3728 753 4026 
Q 1072 4325 1600 4325 
Q 2113 4325 2425 4047 
Q 2738 3769 2738 3413 
Q 2738 3175 2569 2928 
Q 2400 2681 1866 2347 
Q 2416 1922 2594 1678 
Q 2831 1359 2831 1006 
Q 2831 559 2490 242 
Q 2150 -75 1597 -75 
Q 994 -75 656 303 
Q 388 606 388 966 
Q 388 1247 577 1523 
Q 766 1800 1228 2134 
z
M 1719 2469 
Q 2094 2806 2194 3001 
Q 2294 3197 2294 3444 
Q 2294 3772 2109 3958 
Q 1925 4144 1606 4144 
Q 1288 4144 1088 3959 
Q 888 3775 888 3528 
Q 888 3366 970 3203 
Q 1053 3041 1206 2894 
L 1719 2469 
z
M 1375 2016 
Q 1116 1797 991 1539 
Q 866 1281 866 981 
Q 866 578 1086 336 
Q 1306 94 1647 94 
Q 1984 94 2187 284 
Q 2391 475 2391 747 
Q 2391 972 2272 1150 
Q 2050 1481 1375 2016 
z
" transform="scale(0.015625)"/>
       <path id="TimesNewRomanPSMT-37" d="M 644 4238 
L 2916 4238 
L 2916 4119 
L 1503 -88 
L 1153 -88 
L 2419 3728 
L 1253 3728 
Q 900 3728 750 3644 
Q 488 3500 328 3200 
L 238 3234 
L 644 4238 
z
" transform="scale(0.015625)"/>
       <path id="TimesNewRomanPSMT-25" d="M 4350 4334 
L 1263 -175 
L 984 -175 
L 4072 4334 
L 4350 4334 
z
M 1138 4334 
Q 1559 4334 1792 3984 
Q 2025 3634 2025 3181 
Q 2025 2638 1762 2341 
Q 1500 2044 1131 2044 
Q 884 2044 678 2180 
Q 472 2316 348 2584 
Q 225 2853 225 3181 
Q 225 3509 350 3786 
Q 475 4063 692 4198 
Q 909 4334 1138 4334 
z
M 1128 4159 
Q 969 4159 845 3971 
Q 722 3784 722 3184 
Q 722 2750 791 2522 
Q 844 2350 956 2256 
Q 1022 2200 1119 2200 
Q 1269 2200 1375 2363 
Q 1531 2603 1531 3166 
Q 1531 3759 1378 4000 
Q 1278 4159 1128 4159 
z
M 4206 2103 
Q 4428 2103 4648 1962 
Q 4869 1822 4989 1553 
Q 5109 1284 5109 963 
Q 5109 409 4843 117 
Q 4578 -175 4216 -175 
Q 3988 -175 3773 -34 
Q 3559 106 3436 367 
Q 3313 628 3313 963 
Q 3313 1291 3436 1562 
Q 3559 1834 3773 1968 
Q 3988 2103 4206 2103 
z
M 4209 1938 
Q 4059 1938 3950 1769 
Q 3809 1550 3809 941 
Q 3809 381 3953 159 
Q 4059 0 4209 0 
Q 4353 0 4466 172 
Q 4616 400 4616 956 
Q 4616 1544 4466 1778 
Q 4363 1938 4209 1938 
z
" transform="scale(0.015625)"/>
       <path id="TimesNewRomanPSMT-29" d="M 144 4313 
L 144 4444 
Q 619 4209 934 3891 
Q 1381 3434 1625 2820 
Q 1869 2206 1869 1541 
Q 1869 572 1392 -226 
Q 916 -1025 144 -1369 
L 144 -1253 
Q 528 -1038 776 -670 
Q 1025 -303 1145 264 
Q 1266 831 1266 1447 
Q 1266 2113 1163 2663 
Q 1084 3094 967 3353 
Q 850 3613 656 3853 
Q 463 4094 144 4313 
z
" transform="scale(0.015625)"/>
      </defs>
      <use xlink:href="#SimSun-6124"/>
      <use xlink:href="#SimSun-6012" x="100"/>
      <use xlink:href="#TimesNewRomanPSMT-28" x="200"/>
      <use xlink:href="#TimesNewRomanPSMT-35" x="233.300781"/>
      <use xlink:href="#TimesNewRomanPSMT-2e" x="283.300781"/>
      <use xlink:href="#TimesNewRomanPSMT-38" x="308.300781"/>
      <use xlink:href="#TimesNewRomanPSMT-37" x="358.300781"/>
      <use xlink:href="#TimesNewRomanPSMT-25" x="408.300781"/>
      <use xlink:href="#TimesNewRomanPSMT-29" x="491.601562"/>
     </g>
    </g>
    <g id="patch_10">
     <path d="M 223.174938 98.059687 
L 243.174938 98.059687 
L 243.174938 91.059687 
L 223.174938 91.059687 
z
" style="fill: #66b3ff"/>
    </g>
    <g id="text_2">
     <!-- 厌恶(2.03%) -->
     <g transform="translate(251.174938 98.059687) scale(0.1 -0.1)">
      <defs>
       <path id="SimSun-538c" d="M 4200 4250 
Q 4675 4050 4912 3900 
Q 5150 3750 5150 3550 
Q 5150 3450 5075 3287 
Q 5000 3125 4975 3125 
Q 4900 3125 4800 3350 
Q 4650 3675 4150 4175 
L 4200 4250 
z
M 3225 2775 
Q 3225 3900 3200 4450 
L 3800 4200 
L 3600 4000 
Q 3575 3475 3575 2775 
L 5025 2775 
L 5375 3125 
L 5850 2625 
L 3900 2625 
Q 4200 1425 4787 825 
Q 5375 225 6075 50 
L 6075 -50 
Q 5725 -75 5550 -400 
Q 4925 -25 4425 700 
Q 3925 1425 3775 2625 
L 3575 2625 
Q 3525 1325 2900 600 
Q 2275 -125 975 -550 
L 925 -475 
Q 2050 50 2612 762 
Q 3175 1475 3225 2625 
L 2350 2625 
Q 2025 2625 1750 2550 
L 1525 2775 
L 3225 2775 
z
M 1125 4150 
Q 1125 4425 1100 5000 
L 1475 4750 
L 4925 4750 
L 5325 5150 
L 5875 4600 
L 1475 4600 
L 1475 2325 
Q 1500 1350 1187 650 
Q 875 -50 350 -550 
L 275 -500 
Q 675 50 900 712 
Q 1125 1375 1125 2500 
L 1125 4150 
z
" transform="scale(0.015625)"/>
       <path id="SimSun-6076" d="M 4975 4025 
L 5450 3575 
Q 5150 3500 4850 3225 
Q 4550 2950 4050 2525 
L 4000 2600 
Q 4300 2975 4562 3350 
Q 4825 3725 4975 4025 
z
M 675 4725 
L 4850 4725 
L 5200 5075 
L 5700 4575 
L 3925 4575 
L 3925 2200 
L 5125 2200 
L 5525 2600 
L 6075 2050 
L 1100 2050 
Q 775 2050 500 1975 
L 275 2200 
L 2300 2200 
L 2300 4575 
L 1500 4575 
Q 1175 4575 900 4500 
L 675 4725 
z
M 2650 4575 
L 2650 2200 
L 3575 2200 
L 3575 4575 
L 2650 4575 
z
M 975 3875 
L 1025 3950 
Q 1700 3425 1812 3200 
Q 1925 2975 1875 2787 
Q 1825 2600 1700 2550 
Q 1575 2500 1450 2975 
Q 1300 3425 975 3875 
z
M 1350 1500 
Q 1300 875 1200 562 
Q 1100 250 937 175 
Q 775 100 750 100 
Q 650 100 587 187 
Q 525 275 525 325 
Q 525 450 750 625 
Q 1050 850 1250 1500 
L 1350 1500 
z
M 2750 1875 
L 2800 1950 
Q 3325 1600 3512 1387 
Q 3700 1175 3650 950 
Q 3600 725 3462 712 
Q 3325 700 3225 1075 
Q 3100 1425 2750 1875 
z
M 4575 1725 
L 4625 1800 
Q 5400 1425 5662 1175 
Q 5925 925 5887 712 
Q 5850 500 5712 437 
Q 5575 375 5375 775 
Q 5175 1150 4575 1725 
z
M 1900 175 
Q 1900 1375 1875 1650 
L 2475 1350 
L 2250 1150 
L 2250 350 
Q 2200 -50 2600 0 
L 4050 0 
Q 4325 -25 4362 287 
Q 4400 600 4400 1125 
L 4500 1125 
Q 4550 650 4637 437 
Q 4725 225 4925 100 
Q 4650 -350 4050 -325 
L 2525 -325 
Q 1900 -375 1900 175 
z
" transform="scale(0.015625)"/>
       <path id="TimesNewRomanPSMT-32" d="M 2934 816 
L 2638 0 
L 138 0 
L 138 116 
Q 1241 1122 1691 1759 
Q 2141 2397 2141 2925 
Q 2141 3328 1894 3587 
Q 1647 3847 1303 3847 
Q 991 3847 742 3664 
Q 494 3481 375 3128 
L 259 3128 
Q 338 3706 661 4015 
Q 984 4325 1469 4325 
Q 1984 4325 2329 3994 
Q 2675 3663 2675 3213 
Q 2675 2891 2525 2569 
Q 2294 2063 1775 1497 
Q 997 647 803 472 
L 1909 472 
Q 2247 472 2383 497 
Q 2519 522 2628 598 
Q 2738 675 2819 816 
L 2934 816 
z
" transform="scale(0.015625)"/>
       <path id="TimesNewRomanPSMT-30" d="M 231 2094 
Q 231 2819 450 3342 
Q 669 3866 1031 4122 
Q 1313 4325 1613 4325 
Q 2100 4325 2488 3828 
Q 2972 3213 2972 2159 
Q 2972 1422 2759 906 
Q 2547 391 2217 158 
Q 1888 -75 1581 -75 
Q 975 -75 572 641 
Q 231 1244 231 2094 
z
M 844 2016 
Q 844 1141 1059 588 
Q 1238 122 1591 122 
Q 1759 122 1940 273 
Q 2122 425 2216 781 
Q 2359 1319 2359 2297 
Q 2359 3022 2209 3506 
Q 2097 3866 1919 4016 
Q 1791 4119 1609 4119 
Q 1397 4119 1231 3928 
Q 1006 3669 925 3112 
Q 844 2556 844 2016 
z
" transform="scale(0.015625)"/>
       <path id="TimesNewRomanPSMT-33" d="M 325 3431 
Q 506 3859 782 4092 
Q 1059 4325 1472 4325 
Q 1981 4325 2253 3994 
Q 2459 3747 2459 3466 
Q 2459 3003 1878 2509 
Q 2269 2356 2469 2072 
Q 2669 1788 2669 1403 
Q 2669 853 2319 450 
Q 1863 -75 997 -75 
Q 569 -75 414 31 
Q 259 138 259 259 
Q 259 350 332 419 
Q 406 488 509 488 
Q 588 488 669 463 
Q 722 447 909 348 
Q 1097 250 1169 231 
Q 1284 197 1416 197 
Q 1734 197 1970 444 
Q 2206 691 2206 1028 
Q 2206 1275 2097 1509 
Q 2016 1684 1919 1775 
Q 1784 1900 1550 2001 
Q 1316 2103 1072 2103 
L 972 2103 
L 972 2197 
Q 1219 2228 1467 2375 
Q 1716 2522 1828 2728 
Q 1941 2934 1941 3181 
Q 1941 3503 1739 3701 
Q 1538 3900 1238 3900 
Q 753 3900 428 3381 
L 325 3431 
z
" transform="scale(0.015625)"/>
      </defs>
      <use xlink:href="#SimSun-538c"/>
      <use xlink:href="#SimSun-6076" x="100"/>
      <use xlink:href="#TimesNewRomanPSMT-28" x="200"/>
      <use xlink:href="#TimesNewRomanPSMT-32" x="233.300781"/>
      <use xlink:href="#TimesNewRomanPSMT-2e" x="283.300781"/>
      <use xlink:href="#TimesNewRomanPSMT-30" x="308.300781"/>
      <use xlink:href="#TimesNewRomanPSMT-33" x="358.300781"/>
      <use xlink:href="#TimesNewRomanPSMT-25" x="408.300781"/>
      <use xlink:href="#TimesNewRomanPSMT-29" x="491.601562"/>
     </g>
    </g>
    <g id="patch_11">
     <path d="M 223.174938 113.284688 
L 243.174938 113.284688 
L 243.174938 106.284688 
L 223.174938 106.284688 
z
" style="fill: #99ff99"/>
    </g>
    <g id="text_3">
     <!-- 恐惧(1.00%) -->
     <g transform="translate(251.174938 113.284688) scale(0.1 -0.1)">
      <defs>
       <path id="SimSun-6050" d="M 1775 2875 
L 2650 3075 
L 2675 2975 
Q 800 2350 675 2150 
L 375 2600 
Q 800 2675 1425 2800 
L 1425 4350 
L 825 4350 
L 600 4300 
L 400 4500 
L 2075 4500 
L 2350 4775 
L 2775 4350 
L 1775 4350 
L 1775 2875 
z
M 3450 3775 
Q 3950 3450 4075 3300 
Q 4200 3150 4200 3075 
Q 4200 2975 4112 2850 
Q 4025 2725 3975 2725 
Q 3875 2725 3825 2925 
Q 3725 3250 3375 3700 
L 3450 3775 
z
M 1475 1675 
Q 2300 2125 2587 2587 
Q 2875 3050 2900 3775 
Q 2925 4500 2900 4975 
L 3275 4725 
L 4350 4725 
L 4550 4975 
L 4950 4650 
L 4750 4500 
L 4750 2500 
Q 4725 2175 5025 2200 
L 5350 2200 
Q 5575 2225 5612 2500 
Q 5650 2775 5650 3200 
L 5775 3200 
Q 5775 2825 5812 2587 
Q 5850 2350 6100 2250 
Q 5875 1850 5475 1875 
L 4900 1875 
Q 4350 1850 4400 2350 
L 4400 4575 
L 3275 4575 
Q 3325 3150 2912 2575 
Q 2500 2000 1525 1600 
L 1475 1675 
z
M 1200 1325 
L 1300 1325 
Q 1300 675 1187 362 
Q 1075 50 850 0 
Q 625 -50 550 37 
Q 475 125 475 150 
Q 475 250 725 450 
Q 1025 700 1200 1325 
z
M 1875 125 
Q 1875 1100 1850 1600 
L 2425 1325 
L 2225 1150 
L 2225 300 
Q 2200 -150 2500 -150 
L 3875 -150 
Q 4150 -175 4200 162 
Q 4250 500 4275 950 
L 4375 950 
Q 4400 575 4450 287 
Q 4500 0 4750 -25 
Q 4600 -475 3850 -425 
L 2400 -425 
Q 1850 -475 1875 125 
z
M 2625 1825 
L 2675 1900 
Q 3200 1650 3412 1487 
Q 3625 1325 3625 1150 
Q 3625 975 3525 862 
Q 3425 750 3375 750 
Q 3300 750 3200 1000 
Q 3075 1350 2625 1825 
z
M 4575 1325 
L 4625 1400 
Q 5300 1050 5512 875 
Q 5725 700 5725 500 
Q 5725 300 5625 200 
Q 5525 100 5500 100 
Q 5375 100 5275 375 
Q 5125 750 4575 1325 
z
" transform="scale(0.015625)"/>
       <path id="SimSun-60e7" d="M 1550 3900 
L 1550 600 
Q 1550 100 1575 -375 
L 1175 -575 
Q 1200 225 1200 775 
L 1200 3975 
Q 1200 4600 1175 5175 
L 1750 4900 
L 1550 4725 
L 1550 4000 
Q 2025 3775 2200 3587 
Q 2375 3400 2300 3212 
Q 2225 3025 2125 3025 
Q 2025 3025 1950 3300 
Q 1850 3575 1550 3900 
z
M 725 3850 
L 825 3850 
Q 850 3125 812 2912 
Q 775 2700 650 2662 
Q 525 2625 425 2625 
Q 325 2625 275 2712 
Q 225 2800 425 3000 
Q 600 3200 725 3850 
z
M 2750 1275 
L 2750 4000 
Q 2750 4425 2725 4900 
L 3100 4675 
L 4850 4675 
L 5050 4900 
L 5425 4575 
L 5200 4425 
L 5200 1275 
L 5300 1275 
L 5650 1625 
L 6150 1125 
L 2650 1125 
Q 2325 1125 2050 1050 
L 1825 1275 
L 2750 1275 
z
M 3625 575 
L 3350 525 
Q 2775 50 2450 -162 
Q 2125 -375 1700 -575 
L 1675 -475 
Q 2050 -250 2487 175 
Q 2925 600 3175 1000 
L 3625 575 
z
M 4525 900 
Q 5200 575 5587 287 
Q 5975 0 5925 -237 
Q 5875 -475 5787 -500 
Q 5700 -525 5550 -275 
Q 5400 -25 5150 237 
Q 4900 500 4475 825 
L 4525 900 
z
M 3075 4525 
L 3075 3850 
L 4875 3850 
L 4875 4525 
L 3075 4525 
z
M 3075 3700 
L 3075 2975 
L 4875 2975 
L 4875 3700 
L 3075 3700 
z
M 3075 2825 
L 3075 2150 
L 4875 2150 
L 4875 2825 
L 3075 2825 
z
M 3075 2000 
L 3075 1275 
L 4875 1275 
L 4875 2000 
L 3075 2000 
z
" transform="scale(0.015625)"/>
       <path id="TimesNewRomanPSMT-31" d="M 750 3822 
L 1781 4325 
L 1884 4325 
L 1884 747 
Q 1884 391 1914 303 
Q 1944 216 2037 169 
Q 2131 122 2419 116 
L 2419 0 
L 825 0 
L 825 116 
Q 1125 122 1212 167 
Q 1300 213 1334 289 
Q 1369 366 1369 747 
L 1369 3034 
Q 1369 3497 1338 3628 
Q 1316 3728 1258 3775 
Q 1200 3822 1119 3822 
Q 1003 3822 797 3725 
L 750 3822 
z
" transform="scale(0.015625)"/>
      </defs>
      <use xlink:href="#SimSun-6050"/>
      <use xlink:href="#SimSun-60e7" x="100"/>
      <use xlink:href="#TimesNewRomanPSMT-28" x="200"/>
      <use xlink:href="#TimesNewRomanPSMT-31" x="233.300781"/>
      <use xlink:href="#TimesNewRomanPSMT-2e" x="283.300781"/>
      <use xlink:href="#TimesNewRomanPSMT-30" x="308.300781"/>
      <use xlink:href="#TimesNewRomanPSMT-30" x="358.300781"/>
      <use xlink:href="#TimesNewRomanPSMT-25" x="408.300781"/>
      <use xlink:href="#TimesNewRomanPSMT-29" x="491.601562"/>
     </g>
    </g>
    <g id="patch_12">
     <path d="M 223.174938 128.626875 
L 243.174938 128.626875 
L 243.174938 121.626875 
L 223.174938 121.626875 
z
" style="fill: #ffcc99"/>
    </g>
    <g id="text_4">
     <!-- 快乐(74.02%) -->
     <g transform="translate(251.174938 128.626875) scale(0.1 -0.1)">
      <defs>
       <path id="SimSun-5feb" d="M 1575 3700 
L 1575 500 
Q 1575 50 1600 -450 
L 1200 -625 
Q 1225 175 1225 700 
L 1225 4250 
Q 1225 4775 1200 5250 
L 1800 5000 
L 1575 4800 
L 1575 3825 
Q 2025 3650 2225 3500 
Q 2425 3350 2425 3162 
Q 2425 2975 2337 2875 
Q 2250 2775 2225 2775 
Q 2150 2775 2075 3025 
Q 1950 3350 1575 3700 
z
M 875 3525 
Q 925 3100 925 2950 
Q 925 2800 875 2587 
Q 825 2375 700 2325 
Q 575 2275 525 2275 
Q 475 2275 400 2325 
Q 325 2375 325 2425 
Q 325 2525 475 2725 
Q 700 3000 775 3525 
L 875 3525 
z
M 3475 4000 
Q 3475 4625 3450 5250 
L 4050 5000 
L 3825 4800 
L 3825 4000 
L 4925 4000 
L 5125 4250 
L 5550 3925 
L 5325 3750 
L 5325 2125 
L 5375 2125 
L 5700 2450 
L 6175 1975 
L 4050 1975 
Q 4500 850 5037 387 
Q 5575 -75 6125 -150 
L 6125 -250 
Q 5650 -300 5550 -575 
Q 4275 275 3925 1975 
L 3750 1975 
Q 3425 150 1750 -625 
L 1700 -550 
Q 3150 425 3400 1975 
L 2725 1975 
Q 2400 1975 2125 1900 
L 1900 2125 
L 3425 2125 
Q 3475 2825 3475 3850 
L 2700 3850 
L 2475 3800 
L 2275 4000 
L 3475 4000 
z
M 3825 3850 
Q 3825 2900 3775 2125 
L 4975 2125 
L 4975 3850 
L 3825 3850 
z
" transform="scale(0.015625)"/>
       <path id="SimSun-4e50" d="M 3300 2550 
Q 3300 3625 3275 4075 
L 3900 3775 
L 3650 3600 
L 3650 2550 
L 5100 2550 
L 5450 2900 
L 5950 2400 
L 3650 2400 
L 3650 50 
Q 3650 -425 3050 -625 
Q 3075 -250 2200 -25 
L 2200 100 
Q 2725 25 3025 12 
Q 3325 0 3300 250 
L 3300 2400 
L 1550 2400 
L 1350 2175 
L 975 2500 
L 1175 2650 
Q 1325 3700 1450 4725 
L 1775 4450 
Q 3025 4550 3775 4712 
Q 4525 4875 4825 5075 
L 5250 4625 
Q 4825 4600 3825 4475 
Q 2800 4350 1775 4325 
L 1525 2550 
L 3300 2550 
z
M 2425 1450 
Q 1500 425 500 -150 
L 450 -75 
Q 1025 375 1487 912 
Q 1950 1450 2200 1950 
L 2700 1525 
L 2425 1450 
z
M 4225 1825 
Q 5550 900 5612 712 
Q 5675 525 5675 375 
Q 5675 175 5587 37 
Q 5500 -100 5450 -100 
Q 5350 -100 5175 350 
Q 4950 925 4150 1750 
L 4225 1825 
z
" transform="scale(0.015625)"/>
       <path id="TimesNewRomanPSMT-34" d="M 2978 1563 
L 2978 1119 
L 2409 1119 
L 2409 0 
L 1894 0 
L 1894 1119 
L 100 1119 
L 100 1519 
L 2066 4325 
L 2409 4325 
L 2409 1563 
L 2978 1563 
z
M 1894 1563 
L 1894 3666 
L 406 1563 
L 1894 1563 
z
" transform="scale(0.015625)"/>
      </defs>
      <use xlink:href="#SimSun-5feb"/>
      <use xlink:href="#SimSun-4e50" x="100"/>
      <use xlink:href="#TimesNewRomanPSMT-28" x="200"/>
      <use xlink:href="#TimesNewRomanPSMT-37" x="233.300781"/>
      <use xlink:href="#TimesNewRomanPSMT-34" x="283.300781"/>
      <use xlink:href="#TimesNewRomanPSMT-2e" x="333.300781"/>
      <use xlink:href="#TimesNewRomanPSMT-30" x="358.300781"/>
      <use xlink:href="#TimesNewRomanPSMT-32" x="408.300781"/>
      <use xlink:href="#TimesNewRomanPSMT-25" x="458.300781"/>
      <use xlink:href="#TimesNewRomanPSMT-29" x="541.601562"/>
     </g>
    </g>
    <g id="patch_13">
     <path d="M 223.174938 144.008125 
L 243.174938 144.008125 
L 243.174938 137.008125 
L 223.174938 137.008125 
z
" style="fill: #c2c2f0"/>
    </g>
    <g id="text_5">
     <!-- 悲伤(6.61%) -->
     <g transform="translate(251.174938 144.008125) scale(0.1 -0.1)">
      <defs>
       <path id="SimSun-60b2" d="M 2325 4425 
Q 2325 4850 2300 5250 
L 2875 4975 
L 2675 4800 
L 2675 2975 
Q 2675 2500 2700 1875 
L 2300 1700 
Q 2325 2150 2325 2475 
L 900 2475 
L 625 2425 
L 425 2625 
L 2325 2625 
L 2325 3425 
L 1350 3425 
L 1050 3375 
L 850 3575 
L 2325 3575 
L 2325 4275 
L 1075 4275 
L 750 4225 
L 550 4425 
L 2325 4425 
z
M 4025 2475 
Q 4025 2275 4050 1925 
L 3650 1750 
Q 3675 2275 3675 2750 
L 3675 4250 
Q 3675 4875 3650 5250 
L 4250 5000 
L 4025 4850 
L 4025 4425 
L 5125 4425 
L 5400 4700 
L 5825 4275 
L 4025 4275 
L 4025 3575 
L 4875 3575 
L 5150 3850 
L 5575 3425 
L 4025 3425 
L 4025 2625 
L 5175 2625 
L 5475 2925 
L 5925 2475 
L 4025 2475 
z
M 1225 1325 
Q 1200 475 1087 262 
Q 975 50 800 0 
Q 625 -50 550 37 
Q 475 125 475 175 
Q 475 275 675 450 
Q 925 650 1125 1325 
L 1225 1325 
z
M 2925 1800 
L 3000 1850 
Q 3575 1500 3687 1337 
Q 3800 1175 3800 1075 
Q 3800 950 3712 825 
Q 3625 700 3600 700 
Q 3500 700 3425 950 
Q 3275 1325 2925 1800 
z
M 4875 1525 
L 4950 1575 
Q 5450 1300 5662 1100 
Q 5875 900 5875 700 
Q 5875 575 5812 437 
Q 5750 300 5725 300 
Q 5650 300 5525 575 
Q 5350 975 4875 1525 
z
M 1900 125 
Q 1900 1250 1875 1550 
L 2425 1325 
L 2250 1125 
L 2250 150 
Q 2225 -175 2575 -150 
L 4175 -150 
Q 4450 -125 4487 150 
Q 4525 425 4525 850 
L 4650 850 
Q 4675 375 4750 212 
Q 4825 50 5000 -50 
Q 4800 -450 4275 -450 
L 2350 -450 
Q 1850 -500 1900 125 
z
" transform="scale(0.015625)"/>
       <path id="SimSun-4f24" d="M 1275 -650 
Q 1300 150 1300 625 
L 1300 3275 
Q 825 2500 325 1975 
L 250 2025 
Q 825 2875 1225 3825 
Q 1625 4775 1725 5250 
L 2275 4950 
Q 2100 4875 1837 4375 
Q 1575 3875 1450 3550 
L 1825 3325 
L 1650 3150 
L 1650 -500 
L 1275 -650 
z
M 3175 5275 
L 3700 4950 
L 3500 4825 
Q 3325 4525 3125 4125 
L 5275 4125 
L 5600 4450 
L 6075 3975 
L 3075 3975 
Q 2575 3175 1950 2600 
L 1875 2675 
Q 2375 3250 2700 3950 
Q 3025 4650 3175 5275 
z
M 3600 2625 
Q 3625 3275 3625 3825 
L 4200 3575 
L 4000 3425 
Q 3975 3150 3950 2625 
L 5225 2625 
L 5425 2900 
L 5825 2575 
L 5625 2425 
Q 5550 1100 5450 537 
Q 5350 -25 5137 -212 
Q 4925 -400 4625 -475 
Q 4675 -175 3925 150 
L 3950 250 
Q 4450 125 4712 100 
Q 4975 75 5075 525 
Q 5175 975 5275 2475 
L 3950 2475 
Q 3875 1025 3337 412 
Q 2800 -200 1925 -575 
L 1875 -500 
Q 2525 -150 3012 462 
Q 3500 1075 3600 2475 
L 3150 2475 
Q 2825 2475 2550 2400 
L 2325 2625 
L 3600 2625 
z
" transform="scale(0.015625)"/>
       <path id="TimesNewRomanPSMT-36" d="M 2869 4325 
L 2869 4209 
Q 2456 4169 2195 4045 
Q 1934 3922 1679 3669 
Q 1425 3416 1258 3105 
Q 1091 2794 978 2366 
Q 1428 2675 1881 2675 
Q 2316 2675 2634 2325 
Q 2953 1975 2953 1425 
Q 2953 894 2631 456 
Q 2244 -75 1606 -75 
Q 1172 -75 869 213 
Q 275 772 275 1663 
Q 275 2231 503 2743 
Q 731 3256 1154 3653 
Q 1578 4050 1965 4187 
Q 2353 4325 2688 4325 
L 2869 4325 
z
M 925 2138 
Q 869 1716 869 1456 
Q 869 1156 980 804 
Q 1091 453 1309 247 
Q 1469 100 1697 100 
Q 1969 100 2183 356 
Q 2397 613 2397 1088 
Q 2397 1622 2184 2012 
Q 1972 2403 1581 2403 
Q 1463 2403 1327 2353 
Q 1191 2303 925 2138 
z
" transform="scale(0.015625)"/>
      </defs>
      <use xlink:href="#SimSun-60b2"/>
      <use xlink:href="#SimSun-4f24" x="100"/>
      <use xlink:href="#TimesNewRomanPSMT-28" x="200"/>
      <use xlink:href="#TimesNewRomanPSMT-36" x="233.300781"/>
      <use xlink:href="#TimesNewRomanPSMT-2e" x="283.300781"/>
      <use xlink:href="#TimesNewRomanPSMT-36" x="308.300781"/>
      <use xlink:href="#TimesNewRomanPSMT-31" x="358.300781"/>
      <use xlink:href="#TimesNewRomanPSMT-25" x="408.300781"/>
      <use xlink:href="#TimesNewRomanPSMT-29" x="491.601562"/>
     </g>
    </g>
    <g id="patch_14">
     <path d="M 223.174938 159.31125 
L 243.174938 159.31125 
L 243.174938 152.31125 
L 223.174938 152.31125 
z
" style="fill: #ffb3e6"/>
    </g>
    <g id="text_6">
     <!-- 惊讶(10.47%) -->
     <g transform="translate(251.174938 159.31125) scale(0.1 -0.1)">
      <defs>
       <path id="SimSun-60ca" d="M 2050 4175 
L 5275 4175 
L 5600 4500 
L 6075 4025 
L 2850 4025 
Q 2500 4025 2275 3950 
L 2050 4175 
z
M 3400 1100 
L 3175 1025 
Q 2400 150 1825 -175 
L 1775 -100 
Q 2200 300 2500 700 
Q 2800 1100 2950 1475 
L 3400 1100 
z
M 4625 1275 
L 4700 1350 
Q 5075 1075 5387 812 
Q 5700 550 5750 337 
Q 5800 125 5687 0 
Q 5575 -125 5550 -125 
Q 5425 -125 5325 200 
Q 5150 650 4625 1275 
z
M 2975 3150 
L 2975 2100 
L 4975 2100 
L 4975 3150 
L 2975 3150 
z
M 2925 0 
Q 3500 -125 3662 -125 
Q 3825 -125 3850 100 
L 3850 1950 
L 2975 1950 
L 2975 1675 
L 2600 1525 
Q 2625 2050 2625 2537 
Q 2625 3025 2600 3525 
L 3025 3300 
L 4950 3300 
L 5175 3525 
L 5525 3200 
L 5325 3075 
Q 5325 2175 5350 1800 
L 4975 1650 
L 4975 1950 
L 4200 1950 
L 4200 -25 
Q 4175 -500 3700 -650 
Q 3700 -400 2925 -125 
L 2925 0 
z
M 1250 700 
L 1250 4125 
Q 1250 4675 1225 5225 
L 1825 4925 
L 1600 4775 
L 1600 4100 
Q 2100 3775 2225 3587 
Q 2350 3400 2300 3237 
Q 2250 3075 2125 3025 
Q 2000 2975 1950 3300 
Q 1875 3600 1600 4000 
L 1600 550 
Q 1600 100 1625 -425 
L 1225 -625 
Q 1250 150 1250 700 
z
M 925 3900 
Q 950 3275 875 3050 
Q 800 2825 687 2775 
Q 575 2725 475 2725 
Q 375 2725 325 2750 
Q 275 2775 275 2825 
Q 275 2900 450 3075 
Q 700 3325 825 3900 
L 925 3900 
z
M 3375 5150 
L 3425 5225 
Q 3975 4950 4100 4812 
Q 4225 4675 4225 4600 
Q 4225 4500 4125 4362 
Q 4025 4225 3975 4225 
Q 3875 4225 3825 4425 
Q 3725 4725 3375 5150 
z
" transform="scale(0.015625)"/>
       <path id="SimSun-8bb6" d="M 900 4900 
L 975 4950 
Q 1400 4675 1575 4487 
Q 1750 4300 1712 4125 
Q 1675 3950 1587 3875 
Q 1500 3800 1450 3800 
Q 1350 3800 1300 4075 
Q 1225 4425 900 4900 
z
M 275 3125 
L 1225 3125 
L 1400 3375 
L 1800 3075 
L 1600 2875 
L 1600 650 
L 2625 1575 
L 2700 1500 
Q 2200 925 1937 587 
Q 1675 250 1500 -75 
L 1150 325 
Q 1250 450 1250 725 
L 1250 2975 
L 975 2975 
Q 775 2975 500 2900 
L 275 3125 
z
M 2300 4650 
L 5100 4650 
L 5425 4975 
L 5875 4500 
L 5000 4500 
L 5000 2850 
L 5300 2850 
L 5650 3175 
L 6075 2700 
L 5000 2700 
L 5000 125 
Q 5000 -350 4475 -575 
Q 4400 -175 3625 -25 
L 3625 100 
Q 4400 25 4525 75 
Q 4650 125 4650 325 
L 4650 2575 
Q 3675 700 1875 -300 
L 1800 -225 
Q 3500 1050 4275 2700 
L 3050 2700 
L 2825 2450 
L 2500 2825 
L 2675 2925 
Q 2875 3575 3000 4175 
L 3525 3875 
L 3325 3725 
L 3050 2850 
L 4650 2850 
L 4650 4500 
L 3000 4500 
Q 2800 4500 2525 4425 
L 2300 4650 
z
" transform="scale(0.015625)"/>
      </defs>
      <use xlink:href="#SimSun-60ca"/>
      <use xlink:href="#SimSun-8bb6" x="100"/>
      <use xlink:href="#TimesNewRomanPSMT-28" x="200"/>
      <use xlink:href="#TimesNewRomanPSMT-31" x="233.300781"/>
      <use xlink:href="#TimesNewRomanPSMT-30" x="283.300781"/>
      <use xlink:href="#TimesNewRomanPSMT-2e" x="333.300781"/>
      <use xlink:href="#TimesNewRomanPSMT-34" x="358.300781"/>
      <use xlink:href="#TimesNewRomanPSMT-37" x="408.300781"/>
      <use xlink:href="#TimesNewRomanPSMT-25" x="458.300781"/>
      <use xlink:href="#TimesNewRomanPSMT-29" x="541.601562"/>
     </g>
    </g>
   </g>
  </g>
 </g>
</svg>
