<?xml version="1.0" encoding="utf-8" standalone="no"?>
<!DOCTYPE svg PUBLIC "-//W3C//DTD SVG 1.1//EN"
  "http://www.w3.org/Graphics/SVG/1.1/DTD/svg11.dtd">
<svg xmlns:xlink="http://www.w3.org/1999/xlink" width="703.5pt" height="252.242813pt" viewBox="0 0 703.5 252.242813" xmlns="http://www.w3.org/2000/svg" version="1.1">
 <metadata>
  <rdf:RDF xmlns:dc="http://purl.org/dc/elements/1.1/" xmlns:cc="http://creativecommons.org/ns#" xmlns:rdf="http://www.w3.org/1999/02/22-rdf-syntax-ns#">
   <cc:Work>
    <dc:type rdf:resource="http://purl.org/dc/dcmitype/StillImage"/>
    <dc:date>2024-01-10T15:36:27.760687</dc:date>
    <dc:format>image/svg+xml</dc:format>
    <dc:creator>
     <cc:Agent>
      <dc:title>Matplotlib v3.8.2, https://matplotlib.org/</dc:title>
     </cc:Agent>
    </dc:creator>
   </cc:Work>
  </rdf:RDF>
 </metadata>
 <defs>
  <style type="text/css">*{stroke-linejoin: round; stroke-linecap: butt}</style>
 </defs>
 <g id="figure_1">
  <g id="patch_1">
   <path d="M 0 252.242813 
L 703.5 252.242813 
L 703.5 0 
L 0 0 
z
" style="fill: #ffffff"/>
  </g>
  <g id="axes_1">
   <g id="patch_2">
    <path d="M 26.7 228.96 
L 696.3 228.96 
L 696.3 7.2 
L 26.7 7.2 
z
" style="fill: #ffffff"/>
   </g>
   <g id="PathCollection_1">
    <defs>
     <path id="m7e8f103024" d="M 0 3 
C 0.795609 3 1.55874 2.683901 2.12132 2.12132 
C 2.683901 1.55874 3 0.795609 3 0 
C 3 -0.795609 2.683901 -1.55874 2.12132 -2.12132 
C 1.55874 -2.683901 0.795609 -3 0 -3 
C -0.795609 -3 -1.55874 -2.683901 -2.12132 -2.12132 
C -2.683901 -1.55874 -3 -0.795609 -3 0 
C -3 0.795609 -2.683901 1.55874 -2.12132 2.12132 
C -1.55874 2.683901 -0.795609 3 0 3 
z
" style="stroke: #e86254; stroke-opacity: 0.5"/>
    </defs>
    <g clip-path="url(#p564829011a)">
     <use xlink:href="#m7e8f103024" x="132.056643" y="19.367574" style="fill: #e86254; fill-opacity: 0.5; stroke: #e86254; stroke-opacity: 0.5"/>
    </g>
   </g>
   <g id="matplotlib.axis_1">
    <g id="xtick_1">
     <g id="line2d_1">
      <defs>
       <path id="m289d77f216" d="M 0 0 
L 0 3.5 
" style="stroke: #000000; stroke-width: 0.8"/>
      </defs>
      <g>
       <use xlink:href="#m289d77f216" x="57.136364" y="228.96" style="stroke: #000000; stroke-width: 0.8"/>
      </g>
     </g>
     <g id="text_1">
      <!-- 0 -->
      <g transform="translate(54.636364 242.90375) scale(0.1 -0.1)">
       <defs>
        <path id="TimesNewRomanPSMT-30" d="M 231 2094 
Q 231 2819 450 3342 
Q 669 3866 1031 4122 
Q 1313 4325 1613 4325 
Q 2100 4325 2488 3828 
Q 2972 3213 2972 2159 
Q 2972 1422 2759 906 
Q 2547 391 2217 158 
Q 1888 -75 1581 -75 
Q 975 -75 572 641 
Q 231 1244 231 2094 
z
M 844 2016 
Q 844 1141 1059 588 
Q 1238 122 1591 122 
Q 1759 122 1940 273 
Q 2122 425 2216 781 
Q 2359 1319 2359 2297 
Q 2359 3022 2209 3506 
Q 2097 3866 1919 4016 
Q 1791 4119 1609 4119 
Q 1397 4119 1231 3928 
Q 1006 3669 925 3112 
Q 844 2556 844 2016 
z
" transform="scale(0.015625)"/>
       </defs>
       <use xlink:href="#TimesNewRomanPSMT-30"/>
      </g>
     </g>
    </g>
    <g id="xtick_2">
     <g id="line2d_2">
      <g>
       <use xlink:href="#m289d77f216" x="150.786713" y="228.96" style="stroke: #000000; stroke-width: 0.8"/>
      </g>
     </g>
     <g id="text_2">
      <!-- 200 -->
      <g transform="translate(143.286713 242.90375) scale(0.1 -0.1)">
       <defs>
        <path id="TimesNewRomanPSMT-32" d="M 2934 816 
L 2638 0 
L 138 0 
L 138 116 
Q 1241 1122 1691 1759 
Q 2141 2397 2141 2925 
Q 2141 3328 1894 3587 
Q 1647 3847 1303 3847 
Q 991 3847 742 3664 
Q 494 3481 375 3128 
L 259 3128 
Q 338 3706 661 4015 
Q 984 4325 1469 4325 
Q 1984 4325 2329 3994 
Q 2675 3663 2675 3213 
Q 2675 2891 2525 2569 
Q 2294 2063 1775 1497 
Q 997 647 803 472 
L 1909 472 
Q 2247 472 2383 497 
Q 2519 522 2628 598 
Q 2738 675 2819 816 
L 2934 816 
z
" transform="scale(0.015625)"/>
       </defs>
       <use xlink:href="#TimesNewRomanPSMT-32"/>
       <use xlink:href="#TimesNewRomanPSMT-30" x="50"/>
       <use xlink:href="#TimesNewRomanPSMT-30" x="100"/>
      </g>
     </g>
    </g>
    <g id="xtick_3">
     <g id="line2d_3">
      <g>
       <use xlink:href="#m289d77f216" x="244.437063" y="228.96" style="stroke: #000000; stroke-width: 0.8"/>
      </g>
     </g>
     <g id="text_3">
      <!-- 400 -->
      <g transform="translate(236.937063 242.90375) scale(0.1 -0.1)">
       <defs>
        <path id="TimesNewRomanPSMT-34" d="M 2978 1563 
L 2978 1119 
L 2409 1119 
L 2409 0 
L 1894 0 
L 1894 1119 
L 100 1119 
L 100 1519 
L 2066 4325 
L 2409 4325 
L 2409 1563 
L 2978 1563 
z
M 1894 1563 
L 1894 3666 
L 406 1563 
L 1894 1563 
z
" transform="scale(0.015625)"/>
       </defs>
       <use xlink:href="#TimesNewRomanPSMT-34"/>
       <use xlink:href="#TimesNewRomanPSMT-30" x="50"/>
       <use xlink:href="#TimesNewRomanPSMT-30" x="100"/>
      </g>
     </g>
    </g>
    <g id="xtick_4">
     <g id="line2d_4">
      <g>
       <use xlink:href="#m289d77f216" x="338.087413" y="228.96" style="stroke: #000000; stroke-width: 0.8"/>
      </g>
     </g>
     <g id="text_4">
      <!-- 600 -->
      <g transform="translate(330.587413 242.90375) scale(0.1 -0.1)">
       <defs>
        <path id="TimesNewRomanPSMT-36" d="M 2869 4325 
L 2869 4209 
Q 2456 4169 2195 4045 
Q 1934 3922 1679 3669 
Q 1425 3416 1258 3105 
Q 1091 2794 978 2366 
Q 1428 2675 1881 2675 
Q 2316 2675 2634 2325 
Q 2953 1975 2953 1425 
Q 2953 894 2631 456 
Q 2244 -75 1606 -75 
Q 1172 -75 869 213 
Q 275 772 275 1663 
Q 275 2231 503 2743 
Q 731 3256 1154 3653 
Q 1578 4050 1965 4187 
Q 2353 4325 2688 4325 
L 2869 4325 
z
M 925 2138 
Q 869 1716 869 1456 
Q 869 1156 980 804 
Q 1091 453 1309 247 
Q 1469 100 1697 100 
Q 1969 100 2183 356 
Q 2397 613 2397 1088 
Q 2397 1622 2184 2012 
Q 1972 2403 1581 2403 
Q 1463 2403 1327 2353 
Q 1191 2303 925 2138 
z
" transform="scale(0.015625)"/>
       </defs>
       <use xlink:href="#TimesNewRomanPSMT-36"/>
       <use xlink:href="#TimesNewRomanPSMT-30" x="50"/>
       <use xlink:href="#TimesNewRomanPSMT-30" x="100"/>
      </g>
     </g>
    </g>
    <g id="xtick_5">
     <g id="line2d_5">
      <g>
       <use xlink:href="#m289d77f216" x="431.737762" y="228.96" style="stroke: #000000; stroke-width: 0.8"/>
      </g>
     </g>
     <g id="text_5">
      <!-- 800 -->
      <g transform="translate(424.237762 242.90375) scale(0.1 -0.1)">
       <defs>
        <path id="TimesNewRomanPSMT-38" d="M 1228 2134 
Q 725 2547 579 2797 
Q 434 3047 434 3316 
Q 434 3728 753 4026 
Q 1072 4325 1600 4325 
Q 2113 4325 2425 4047 
Q 2738 3769 2738 3413 
Q 2738 3175 2569 2928 
Q 2400 2681 1866 2347 
Q 2416 1922 2594 1678 
Q 2831 1359 2831 1006 
Q 2831 559 2490 242 
Q 2150 -75 1597 -75 
Q 994 -75 656 303 
Q 388 606 388 966 
Q 388 1247 577 1523 
Q 766 1800 1228 2134 
z
M 1719 2469 
Q 2094 2806 2194 3001 
Q 2294 3197 2294 3444 
Q 2294 3772 2109 3958 
Q 1925 4144 1606 4144 
Q 1288 4144 1088 3959 
Q 888 3775 888 3528 
Q 888 3366 970 3203 
Q 1053 3041 1206 2894 
L 1719 2469 
z
M 1375 2016 
Q 1116 1797 991 1539 
Q 866 1281 866 981 
Q 866 578 1086 336 
Q 1306 94 1647 94 
Q 1984 94 2187 284 
Q 2391 475 2391 747 
Q 2391 972 2272 1150 
Q 2050 1481 1375 2016 
z
" transform="scale(0.015625)"/>
       </defs>
       <use xlink:href="#TimesNewRomanPSMT-38"/>
       <use xlink:href="#TimesNewRomanPSMT-30" x="50"/>
       <use xlink:href="#TimesNewRomanPSMT-30" x="100"/>
      </g>
     </g>
    </g>
    <g id="xtick_6">
     <g id="line2d_6">
      <g>
       <use xlink:href="#m289d77f216" x="525.388112" y="228.96" style="stroke: #000000; stroke-width: 0.8"/>
      </g>
     </g>
     <g id="text_6">
      <!-- 1000 -->
      <g transform="translate(515.388112 242.90375) scale(0.1 -0.1)">
       <defs>
        <path id="TimesNewRomanPSMT-31" d="M 750 3822 
L 1781 4325 
L 1884 4325 
L 1884 747 
Q 1884 391 1914 303 
Q 1944 216 2037 169 
Q 2131 122 2419 116 
L 2419 0 
L 825 0 
L 825 116 
Q 1125 122 1212 167 
Q 1300 213 1334 289 
Q 1369 366 1369 747 
L 1369 3034 
Q 1369 3497 1338 3628 
Q 1316 3728 1258 3775 
Q 1200 3822 1119 3822 
Q 1003 3822 797 3725 
L 750 3822 
z
" transform="scale(0.015625)"/>
       </defs>
       <use xlink:href="#TimesNewRomanPSMT-31"/>
       <use xlink:href="#TimesNewRomanPSMT-30" x="50"/>
       <use xlink:href="#TimesNewRomanPSMT-30" x="100"/>
       <use xlink:href="#TimesNewRomanPSMT-30" x="150"/>
      </g>
     </g>
    </g>
    <g id="xtick_7">
     <g id="line2d_7">
      <g>
       <use xlink:href="#m289d77f216" x="619.038462" y="228.96" style="stroke: #000000; stroke-width: 0.8"/>
      </g>
     </g>
     <g id="text_7">
      <!-- 1200 -->
      <g transform="translate(609.038462 242.90375) scale(0.1 -0.1)">
       <use xlink:href="#TimesNewRomanPSMT-31"/>
       <use xlink:href="#TimesNewRomanPSMT-32" x="50"/>
       <use xlink:href="#TimesNewRomanPSMT-30" x="100"/>
       <use xlink:href="#TimesNewRomanPSMT-30" x="150"/>
      </g>
     </g>
    </g>
   </g>
   <g id="matplotlib.axis_2">
    <g id="ytick_1">
     <g id="line2d_8">
      <defs>
       <path id="md577ae7469" d="M 0 0 
L -3.5 0 
" style="stroke: #000000; stroke-width: 0.8"/>
      </defs>
      <g>
       <use xlink:href="#md577ae7469" x="26.7" y="228.236805" style="stroke: #000000; stroke-width: 0.8"/>
      </g>
     </g>
     <g id="text_8">
      <!-- 0.1 -->
      <g transform="translate(7.2 231.70868) scale(0.1 -0.1)">
       <defs>
        <path id="TimesNewRomanPSMT-2e" d="M 800 606 
Q 947 606 1047 504 
Q 1147 403 1147 259 
Q 1147 116 1045 14 
Q 944 -88 800 -88 
Q 656 -88 554 14 
Q 453 116 453 259 
Q 453 406 554 506 
Q 656 606 800 606 
z
" transform="scale(0.015625)"/>
       </defs>
       <use xlink:href="#TimesNewRomanPSMT-30"/>
       <use xlink:href="#TimesNewRomanPSMT-2e" x="50"/>
       <use xlink:href="#TimesNewRomanPSMT-31" x="75"/>
      </g>
     </g>
    </g>
    <g id="ytick_2">
     <g id="line2d_9">
      <g>
       <use xlink:href="#md577ae7469" x="26.7" y="190.958698" style="stroke: #000000; stroke-width: 0.8"/>
      </g>
     </g>
     <g id="text_9">
      <!-- 0.2 -->
      <g transform="translate(7.2 194.430573) scale(0.1 -0.1)">
       <use xlink:href="#TimesNewRomanPSMT-30"/>
       <use xlink:href="#TimesNewRomanPSMT-2e" x="50"/>
       <use xlink:href="#TimesNewRomanPSMT-32" x="75"/>
      </g>
     </g>
    </g>
    <g id="ytick_3">
     <g id="line2d_10">
      <g>
       <use xlink:href="#md577ae7469" x="26.7" y="153.680592" style="stroke: #000000; stroke-width: 0.8"/>
      </g>
     </g>
     <g id="text_10">
      <!-- 0.3 -->
      <g transform="translate(7.2 157.152467) scale(0.1 -0.1)">
       <defs>
        <path id="TimesNewRomanPSMT-33" d="M 325 3431 
Q 506 3859 782 4092 
Q 1059 4325 1472 4325 
Q 1981 4325 2253 3994 
Q 2459 3747 2459 3466 
Q 2459 3003 1878 2509 
Q 2269 2356 2469 2072 
Q 2669 1788 2669 1403 
Q 2669 853 2319 450 
Q 1863 -75 997 -75 
Q 569 -75 414 31 
Q 259 138 259 259 
Q 259 350 332 419 
Q 406 488 509 488 
Q 588 488 669 463 
Q 722 447 909 348 
Q 1097 250 1169 231 
Q 1284 197 1416 197 
Q 1734 197 1970 444 
Q 2206 691 2206 1028 
Q 2206 1275 2097 1509 
Q 2016 1684 1919 1775 
Q 1784 1900 1550 2001 
Q 1316 2103 1072 2103 
L 972 2103 
L 972 2197 
Q 1219 2228 1467 2375 
Q 1716 2522 1828 2728 
Q 1941 2934 1941 3181 
Q 1941 3503 1739 3701 
Q 1538 3900 1238 3900 
Q 753 3900 428 3381 
L 325 3431 
z
" transform="scale(0.015625)"/>
       </defs>
       <use xlink:href="#TimesNewRomanPSMT-30"/>
       <use xlink:href="#TimesNewRomanPSMT-2e" x="50"/>
       <use xlink:href="#TimesNewRomanPSMT-33" x="75"/>
      </g>
     </g>
    </g>
    <g id="ytick_4">
     <g id="line2d_11">
      <g>
       <use xlink:href="#md577ae7469" x="26.7" y="116.402485" style="stroke: #000000; stroke-width: 0.8"/>
      </g>
     </g>
     <g id="text_11">
      <!-- 0.4 -->
      <g transform="translate(7.2 119.87436) scale(0.1 -0.1)">
       <use xlink:href="#TimesNewRomanPSMT-30"/>
       <use xlink:href="#TimesNewRomanPSMT-2e" x="50"/>
       <use xlink:href="#TimesNewRomanPSMT-34" x="75"/>
      </g>
     </g>
    </g>
    <g id="ytick_5">
     <g id="line2d_12">
      <g>
       <use xlink:href="#md577ae7469" x="26.7" y="79.124379" style="stroke: #000000; stroke-width: 0.8"/>
      </g>
     </g>
     <g id="text_12">
      <!-- 0.5 -->
      <g transform="translate(7.2 82.596254) scale(0.1 -0.1)">
       <defs>
        <path id="TimesNewRomanPSMT-35" d="M 2778 4238 
L 2534 3706 
L 1259 3706 
L 981 3138 
Q 1809 3016 2294 2522 
Q 2709 2097 2709 1522 
Q 2709 1188 2573 903 
Q 2438 619 2231 419 
Q 2025 219 1772 97 
Q 1413 -75 1034 -75 
Q 653 -75 479 54 
Q 306 184 306 341 
Q 306 428 378 495 
Q 450 563 559 563 
Q 641 563 702 538 
Q 763 513 909 409 
Q 1144 247 1384 247 
Q 1750 247 2026 523 
Q 2303 800 2303 1197 
Q 2303 1581 2056 1914 
Q 1809 2247 1375 2428 
Q 1034 2569 447 2591 
L 1259 4238 
L 2778 4238 
z
" transform="scale(0.015625)"/>
       </defs>
       <use xlink:href="#TimesNewRomanPSMT-30"/>
       <use xlink:href="#TimesNewRomanPSMT-2e" x="50"/>
       <use xlink:href="#TimesNewRomanPSMT-35" x="75"/>
      </g>
     </g>
    </g>
    <g id="ytick_6">
     <g id="line2d_13">
      <g>
       <use xlink:href="#md577ae7469" x="26.7" y="41.846272" style="stroke: #000000; stroke-width: 0.8"/>
      </g>
     </g>
     <g id="text_13">
      <!-- 0.6 -->
      <g transform="translate(7.2 45.318147) scale(0.1 -0.1)">
       <use xlink:href="#TimesNewRomanPSMT-30"/>
       <use xlink:href="#TimesNewRomanPSMT-2e" x="50"/>
       <use xlink:href="#TimesNewRomanPSMT-36" x="75"/>
      </g>
     </g>
    </g>
   </g>
   <g id="line2d_14">
    <path d="M 57.136364 122.21787 
L 57.604615 118.490059 
L 58.072867 111.817278 
L 58.541119 100.55929 
L 59.009371 97.651598 
L 59.477622 89.33858 
L 59.945874 90.978817 
L 60.414126 84.343314 
L 60.882378 86.840947 
L 61.350629 83.895976 
L 61.818881 80.578225 
L 62.287133 77.670533 
L 62.755385 72.265207 
L 63.223636 68.500118 
L 63.691888 68.500118 
L 64.16014 70.177633 
L 64.628392 63.914911 
L 65.096643 63.504852 
L 65.564895 61.007219 
L 66.033147 62.237396 
L 66.501399 60.59716 
L 66.96965 61.417278 
L 67.437902 53.10426 
L 67.906154 58.509586 
L 68.374406 54.334438 
L 68.842657 49.749231 
L 69.310909 51.426746 
L 69.779161 47.661657 
L 70.247413 53.10426 
L 70.715664 53.10426 
L 71.183916 47.661657 
L 71.652168 46.02142 
L 72.12042 46.431479 
L 72.588671 45.164024 
L 73.056923 43.523787 
L 73.525175 43.523787 
L 73.993427 42.256331 
L 74.461678 42.256331 
L 74.92993 42.666391 
L 75.398182 39.348639 
L 75.866434 39.348639 
L 76.334685 40.578817 
L 76.802937 41.436213 
L 77.271189 37.261065 
L 77.739441 41.436213 
L 78.207692 37.671124 
L 78.675944 38.081183 
L 79.144196 36.851006 
L 79.612448 38.93858 
L 80.080699 34.353373 
L 80.548951 34.763432 
L 82.89021 30.588284 
L 85.231469 33.533254 
L 87.572727 32.675858 
L 89.913986 29.768166 
L 92.255245 28.090651 
L 94.596503 27.680592 
L 96.937762 26.860473 
L 99.279021 26.860473 
L 101.62028 27.270533 
L 103.961538 27.680592 
L 106.302797 23.952781 
L 108.644056 24.36284 
L 110.985315 26.003077 
L 113.326573 23.095385 
L 115.667832 23.952781 
L 118.009091 23.505444 
L 120.35035 23.505444 
L 122.691608 23.505444 
L 125.032867 19.777633 
L 127.374126 21.865207 
L 129.715385 21.455148 
L 132.056643 19.367574 
L 134.397902 22.685325 
L 136.739161 22.275266 
L 139.08042 20.597751 
L 141.421678 22.275266 
L 143.762937 23.095385 
L 146.104196 21.865207 
L 148.445455 22.275266 
L 150.786713 21.007811 
L 197.611888 21.007811 
L 244.437063 22.275266 
L 291.262238 21.865207 
L 338.087413 20.597751 
L 384.912587 22.275266 
L 431.737762 22.685325 
L 478.562937 21.455148 
L 525.388112 21.007811 
L 572.213287 23.095385 
L 619.038462 23.505444 
L 665.863636 22.685325 
" clip-path="url(#p564829011a)" style="fill: none; stroke: #e86254; stroke-width: 1.5; stroke-linecap: square"/>
   </g>
   <g id="LineCollection_1">
    <path d="M 57.136364 29.432663 
L 665.863636 29.432663 
" clip-path="url(#p564829011a)" style="fill: none; stroke-dasharray: 1.5,2.475; stroke-dashoffset: 0; stroke: #e86254; stroke-opacity: 0.5; stroke-width: 1.5"/>
   </g>
   <g id="line2d_15">
    <path d="M 57.136364 207.211953 
L 57.604615 178.470533 
L 58.072867 167.622604 
L 58.541119 155.134438 
L 59.009371 140.558698 
L 59.477622 136.793609 
L 59.945874 130.158107 
L 60.414126 120.987692 
L 60.882378 122.21787 
L 61.350629 118.900118 
L 61.818881 107.64213 
L 62.287133 102.646864 
L 62.755385 91.836213 
L 63.223636 96.42142 
L 63.691888 88.928521 
L 64.16014 87.251006 
L 64.628392 87.251006 
L 65.096643 85.163432 
L 65.564895 81.84568 
L 66.033147 76.850414 
L 66.501399 76.850414 
L 66.96965 76.403077 
L 67.437902 76.850414 
L 67.906154 79.348047 
L 68.374406 79.348047 
L 68.842657 78.080592 
L 69.310909 77.260473 
L 69.779161 75.993018 
L 70.247413 73.495385 
L 70.715664 75.993018 
L 71.183916 71.81787 
L 71.652168 73.905444 
L 72.12042 76.850414 
L 72.588671 72.675266 
L 73.056923 67.68 
L 73.525175 70.997751 
L 73.993427 69.767574 
L 74.461678 68.910178 
L 74.92993 67.269941 
L 75.398182 65.592426 
L 75.866434 68.910178 
L 76.334685 65.182367 
L 76.802937 67.269941 
L 77.271189 62.237396 
L 77.739441 64.772308 
L 78.207692 63.504852 
L 78.675944 60.59716 
L 79.144196 61.007219 
L 79.612448 61.007219 
L 80.080699 61.007219 
L 80.548951 58.919645 
L 82.89021 48.108994 
L 85.231469 51.836805 
L 87.572727 46.02142 
L 89.913986 39.758698 
L 92.255245 32.675858 
L 94.596503 32.675858 
L 96.937762 31.44568 
L 99.279021 26.860473 
L 101.62028 28.948047 
L 103.961538 24.36284 
L 106.302797 21.865207 
L 108.644056 24.772899 
L 110.985315 22.685325 
L 113.326573 22.275266 
L 115.667832 19.777633 
L 118.009091 21.865207 
L 120.35035 18.920237 
L 122.691608 22.275266 
L 125.032867 19.367574 
L 127.374126 20.597751 
L 129.715385 20.187692 
L 132.056643 21.865207 
L 134.397902 20.597751 
L 136.739161 20.187692 
L 139.08042 21.865207 
L 141.421678 19.367574 
L 143.762937 20.187692 
L 146.104196 19.367574 
L 148.445455 21.865207 
L 150.786713 19.777633 
L 197.611888 18.920237 
L 244.437063 18.920237 
L 291.262238 23.095385 
L 338.087413 20.597751 
L 384.912587 21.455148 
L 431.737762 21.865207 
L 478.562937 21.007811 
L 525.388112 19.777633 
L 572.213287 23.952781 
L 619.038462 19.777633 
L 665.863636 19.777633 
" clip-path="url(#p564829011a)" style="fill: none; stroke: #1f466f; stroke-opacity: 0.5; stroke-width: 1.5; stroke-linecap: square"/>
   </g>
   <g id="LineCollection_2">
    <path d="M 57.136364 34.278817 
L 665.863636 34.278817 
" clip-path="url(#p564829011a)" style="fill: none; stroke-dasharray: 1.5,2.475; stroke-dashoffset: 0; stroke: #1f466f; stroke-opacity: 0.5; stroke-width: 1.5"/>
   </g>
   <g id="line2d_16">
    <path d="M 57.136364 128.890651 
L 57.604615 124.715503 
L 58.072867 123.485325 
L 58.541119 119.720237 
L 59.009371 118.900118 
L 59.477622 110.139763 
L 59.945874 113.494793 
L 60.414126 106.822012 
L 60.882378 109.729704 
L 61.350629 105.144497 
L 61.818881 93.923787 
L 62.287133 91.836213 
L 62.755385 83.895976 
L 63.223636 78.490651 
L 63.691888 76.850414 
L 64.16014 72.675266 
L 64.628392 75.993018 
L 65.096643 69.320237 
L 65.564895 66.822604 
L 66.033147 65.182367 
L 66.501399 68.090059 
L 66.96965 62.237396 
L 67.437902 66.412544 
L 67.906154 62.237396 
L 68.374406 65.182367 
L 68.842657 60.187101 
L 69.310909 58.919645 
L 69.779161 57.24213 
L 70.247413 59.329704 
L 70.715664 60.187101 
L 71.183916 56.011953 
L 71.652168 57.689467 
L 72.12042 56.422012 
L 72.588671 53.924379 
L 73.056923 56.011953 
L 73.525175 55.191834 
L 73.993427 53.51432 
L 74.461678 54.334438 
L 74.92993 48.519053 
L 75.398182 52.246864 
L 75.866434 55.191834 
L 76.334685 55.191834 
L 76.802937 52.694201 
L 77.271189 51.016686 
L 77.739441 50.15929 
L 78.207692 50.15929 
L 78.675944 54.334438 
L 79.144196 50.606627 
L 79.612448 49.339172 
L 80.080699 49.339172 
L 80.548951 46.431479 
L 82.89021 41.846272 
L 85.231469 36.440947 
L 87.572727 34.763432 
L 89.913986 33.533254 
L 92.255245 30.588284 
L 94.596503 31.44568 
L 96.937762 31.44568 
L 99.279021 33.533254 
L 101.62028 33.943314 
L 103.961538 33.943314 
L 106.302797 29.768166 
L 108.644056 32.265799 
L 110.985315 29.358107 
L 113.326573 27.680592 
L 115.667832 25.182959 
L 118.009091 23.095385 
L 120.35035 22.685325 
L 122.691608 23.095385 
L 125.032867 22.275266 
L 127.374126 22.685325 
L 129.715385 24.36284 
L 132.056643 25.593018 
L 134.397902 22.685325 
L 136.739161 21.007811 
L 139.08042 21.455148 
L 141.421678 23.095385 
L 143.762937 23.095385 
L 146.104196 20.187692 
L 148.445455 21.865207 
L 150.786713 21.007811 
L 197.611888 19.367574 
L 244.437063 19.367574 
L 291.262238 20.597751 
L 338.087413 21.455148 
L 384.912587 19.777633 
L 431.737762 20.187692 
L 478.562937 21.865207 
L 525.388112 20.597751 
L 572.213287 19.777633 
L 619.038462 19.777633 
L 665.863636 20.187692 
" clip-path="url(#p564829011a)" style="fill: none; stroke: #386795; stroke-opacity: 0.5; stroke-width: 1.5; stroke-linecap: square"/>
   </g>
   <g id="LineCollection_3">
    <path d="M 57.136364 33.980592 
L 665.863636 33.980592 
" clip-path="url(#p564829011a)" style="fill: none; stroke-dasharray: 1.5,2.475; stroke-dashoffset: 0; stroke: #386795; stroke-opacity: 0.5; stroke-width: 1.5"/>
   </g>
   <g id="line2d_17">
    <path d="M 57.136364 164.714911 
L 57.604615 155.954556 
L 58.072867 144.733846 
L 58.541119 138.471124 
L 59.009371 129.30071 
L 59.477622 114.72497 
L 59.945874 110.99716 
L 60.414126 102.236805 
L 60.882378 100.55929 
L 61.350629 101.006627 
L 61.818881 91.836213 
L 62.287133 78.90071 
L 62.755385 71.407811 
L 63.223636 59.739763 
L 63.691888 58.509586 
L 64.16014 57.24213 
L 64.628392 52.694201 
L 65.096643 48.929112 
L 65.564895 43.523787 
L 66.033147 43.523787 
L 66.501399 41.436213 
L 66.96965 41.436213 
L 67.437902 38.528521 
L 67.906154 37.671124 
L 68.374406 37.261065 
L 68.842657 36.440947 
L 69.310909 35.173491 
L 69.779161 37.261065 
L 70.247413 33.085917 
L 70.715664 33.085917 
L 71.183916 32.675858 
L 71.652168 33.533254 
L 72.12042 30.588284 
L 72.588671 29.358107 
L 73.056923 29.768166 
L 73.525175 31.85574 
L 73.993427 29.358107 
L 74.461678 29.358107 
L 74.92993 25.593018 
L 75.398182 25.593018 
L 75.866434 26.450414 
L 76.334685 26.860473 
L 76.802937 24.772899 
L 77.271189 26.003077 
L 77.739441 25.182959 
L 78.207692 23.952781 
L 78.675944 23.952781 
L 79.144196 25.593018 
L 79.612448 23.952781 
L 80.080699 23.505444 
L 80.548951 23.952781 
L 82.89021 21.865207 
L 85.231469 23.505444 
L 87.572727 21.455148 
L 89.913986 19.367574 
L 92.255245 21.865207 
L 94.596503 21.007811 
L 96.937762 22.275266 
L 99.279021 21.455148 
L 101.62028 22.275266 
L 103.961538 21.455148 
L 106.302797 21.865207 
L 108.644056 24.36284 
L 110.985315 21.455148 
L 113.326573 21.865207 
L 115.667832 21.455148 
L 118.009091 21.007811 
L 120.35035 20.187692 
L 122.691608 17.28 
L 125.032867 19.367574 
L 127.374126 20.187692 
L 129.715385 19.777633 
L 132.056643 19.367574 
L 134.397902 23.095385 
L 136.739161 21.455148 
L 139.08042 22.685325 
L 141.421678 20.597751 
L 143.762937 20.187692 
L 146.104196 20.597751 
L 148.445455 21.865207 
L 150.786713 22.275266 
L 197.611888 23.505444 
L 244.437063 23.095385 
L 291.262238 22.275266 
L 338.087413 23.505444 
L 384.912587 24.36284 
L 431.737762 23.505444 
L 478.562937 22.275266 
L 525.388112 23.095385 
L 572.213287 22.685325 
L 619.038462 23.095385 
L 665.863636 23.505444 
" clip-path="url(#p564829011a)" style="fill: none; stroke: #528fac; stroke-opacity: 0.5; stroke-width: 1.5; stroke-linecap: square"/>
   </g>
   <g id="LineCollection_4">
    <path d="M 57.136364 33.42142 
L 665.863636 33.42142 
" clip-path="url(#p564829011a)" style="fill: none; stroke-dasharray: 1.5,2.475; stroke-dashoffset: 0; stroke: #528fac; stroke-opacity: 0.5; stroke-width: 1.5"/>
   </g>
   <g id="line2d_18">
    <path d="M 57.136364 218.88 
L 57.604615 213.027337 
L 58.072867 205.124379 
L 58.541119 193.456331 
L 59.009371 182.64568 
L 59.477622 176.382959 
L 59.945874 173.475266 
L 60.414126 159.719645 
L 60.882378 155.134438 
L 61.350629 150.139172 
L 61.818881 138.061065 
L 62.287133 128.070533 
L 62.755385 123.485325 
L 63.223636 118.490059 
L 63.691888 114.72497 
L 64.16014 113.084734 
L 64.628392 105.144497 
L 65.096643 99.739172 
L 65.564895 99.739172 
L 66.033147 90.978817 
L 66.501399 89.748639 
L 66.96965 85.163432 
L 67.437902 80.988284 
L 67.906154 85.163432 
L 68.374406 80.168166 
L 68.842657 76.850414 
L 69.310909 76.403077 
L 69.779161 72.265207 
L 70.247413 75.582959 
L 70.715664 76.850414 
L 71.183916 69.320237 
L 71.652168 70.177633 
L 72.12042 64.32497 
L 72.588671 70.587692 
L 73.056923 64.32497 
L 73.525175 63.094793 
L 73.993427 64.772308 
L 74.461678 63.504852 
L 74.92993 63.504852 
L 75.398182 66.822604 
L 75.866434 62.237396 
L 76.334685 66.002485 
L 76.802937 62.684734 
L 77.271189 59.739763 
L 77.739441 57.689467 
L 78.207692 57.689467 
L 78.675944 53.10426 
L 79.144196 52.694201 
L 79.612448 57.24213 
L 80.080699 57.24213 
L 80.548951 56.422012 
L 82.89021 48.929112 
L 85.231469 49.339172 
L 87.572727 48.519053 
L 89.913986 44.343905 
L 92.255245 45.611361 
L 94.596503 43.523787 
L 96.937762 43.933846 
L 99.279021 44.753964 
L 101.62028 45.611361 
L 103.961538 45.164024 
L 106.302797 41.026154 
L 108.644056 42.256331 
L 110.985315 44.343905 
L 113.326573 45.611361 
L 115.667832 42.256331 
L 118.009091 43.113728 
L 120.35035 45.164024 
L 122.691608 42.666391 
L 125.032867 41.026154 
L 127.374126 42.256331 
L 129.715385 43.933846 
L 132.056643 42.256331 
L 134.397902 43.113728 
L 136.739161 41.026154 
L 139.08042 41.026154 
L 141.421678 36.030888 
L 143.762937 30.178225 
L 146.104196 26.860473 
L 148.445455 29.358107 
L 150.786713 26.003077 
L 197.611888 21.007811 
L 244.437063 23.952781 
L 291.262238 23.952781 
L 338.087413 21.865207 
L 384.912587 20.597751 
L 431.737762 23.095385 
L 478.562937 22.275266 
L 525.388112 22.275266 
L 572.213287 21.007811 
L 619.038462 21.455148 
L 665.863636 21.007811 
" clip-path="url(#p564829011a)" style="fill: none; stroke: #73bcd5; stroke-opacity: 0.5; stroke-width: 1.5; stroke-linecap: square"/>
   </g>
   <g id="LineCollection_5">
    <path d="M 57.136364 32.564024 
L 665.863636 32.564024 
" clip-path="url(#p564829011a)" style="fill: none; stroke-dasharray: 1.5,2.475; stroke-dashoffset: 0; stroke: #73bcd5; stroke-opacity: 0.5; stroke-width: 1.5"/>
   </g>
   <g id="patch_3">
    <path d="M 26.7 228.96 
L 26.7 7.2 
" style="fill: none; stroke: #000000; stroke-width: 0.8; stroke-linejoin: miter; stroke-linecap: square"/>
   </g>
   <g id="patch_4">
    <path d="M 696.3 228.96 
L 696.3 7.2 
" style="fill: none; stroke: #000000; stroke-width: 0.8; stroke-linejoin: miter; stroke-linecap: square"/>
   </g>
   <g id="patch_5">
    <path d="M 26.7 228.96 
L 696.3 228.96 
" style="fill: none; stroke: #000000; stroke-width: 0.8; stroke-linejoin: miter; stroke-linecap: square"/>
   </g>
   <g id="patch_6">
    <path d="M 26.7 7.2 
L 696.3 7.2 
" style="fill: none; stroke: #000000; stroke-width: 0.8; stroke-linejoin: miter; stroke-linecap: square"/>
   </g>
   <g id="legend_1">
    <g id="patch_7">
     <path d="M 605.83125 223.96 
L 689.3 223.96 
Q 691.3 223.96 691.3 221.96 
L 691.3 150.55375 
Q 691.3 148.55375 689.3 148.55375 
L 605.83125 148.55375 
Q 603.83125 148.55375 603.83125 150.55375 
L 603.83125 221.96 
Q 603.83125 223.96 605.83125 223.96 
z
" style="fill: #ffffff; opacity: 0.8; stroke: #cccccc; stroke-linejoin: miter"/>
    </g>
    <g id="line2d_19">
     <path d="M 607.83125 157.31625 
L 617.83125 157.31625 
L 627.83125 157.31625 
" style="fill: none; stroke: #e86254; stroke-width: 1.5; stroke-linecap: square"/>
    </g>
    <g id="text_14">
     <!-- 单层全连接 -->
     <g transform="translate(635.83125 160.81625) scale(0.1 -0.1)">
      <defs>
       <path id="SourceHanSerifCN-Heavy-5355" d="M 1478 5375 
Q 1991 5306 2292 5151 
Q 2594 4997 2723 4806 
Q 2853 4616 2847 4436 
Q 2841 4256 2733 4132 
Q 2625 4009 2450 3989 
Q 2275 3969 2075 4103 
Q 1997 4428 1808 4761 
Q 1619 5094 1428 5344 
L 1478 5375 
z
M 4519 2894 
L 4519 3725 
L 3669 3725 
L 3669 2894 
L 4519 2894 
z
M 4519 2713 
L 3669 2713 
L 3669 1844 
L 4519 1844 
L 4519 2713 
z
M 1863 2894 
L 2706 2894 
L 2706 3725 
L 1863 3725 
L 1863 2894 
z
M 1863 2713 
L 1863 1844 
L 2706 1844 
L 2706 2713 
L 1863 2713 
z
M 5313 1528 
Q 5313 1528 5405 1461 
Q 5497 1394 5640 1286 
Q 5784 1178 5943 1056 
Q 6103 934 6234 825 
Q 6206 722 6041 722 
L 3669 722 
L 3669 -366 
Q 3669 -403 3462 -498 
Q 3256 -594 2888 -594 
L 2706 -594 
L 2706 722 
L 206 722 
L 153 903 
L 2706 903 
L 2706 1663 
L 1863 1663 
L 1863 1575 
Q 1863 1528 1744 1459 
Q 1625 1391 1442 1336 
Q 1259 1281 1069 1281 
L 934 1281 
L 934 4281 
L 1919 3903 
L 3431 3903 
Q 3584 4188 3767 4619 
Q 3950 5050 4103 5472 
L 5228 4978 
Q 5200 4925 5131 4892 
Q 5063 4859 4953 4872 
Q 4641 4588 4291 4338 
Q 3941 4088 3609 3903 
L 4453 3903 
L 4863 4341 
L 5684 3719 
Q 5659 3684 5604 3650 
Q 5550 3616 5459 3597 
L 5459 1656 
Q 5456 1625 5329 1564 
Q 5203 1503 5023 1453 
Q 4844 1403 4684 1403 
L 4519 1403 
L 4519 1663 
L 3669 1663 
L 3669 903 
L 4806 903 
L 5313 1528 
z
" transform="scale(0.015625)"/>
       <path id="SourceHanSerifCN-Heavy-5c42" d="M 781 5088 
L 781 5381 
L 1838 5025 
L 4738 5025 
L 5147 5478 
L 6016 4831 
Q 5988 4794 5923 4755 
Q 5859 4716 5759 4691 
L 5759 3647 
Q 5756 3625 5620 3581 
Q 5484 3538 5300 3500 
Q 5116 3463 4966 3463 
L 4872 3463 
Q 4947 3403 5087 3290 
Q 5228 3178 5383 3050 
Q 5538 2922 5656 2809 
Q 5647 2756 5595 2731 
Q 5544 2706 5472 2706 
L 1997 2706 
L 1947 2888 
L 4325 2888 
L 4800 3519 
L 4800 3744 
L 1703 3744 
L 1703 3256 
Q 1703 2941 1690 2592 
Q 1678 2244 1625 1888 
L 4928 1888 
L 5416 2534 
Q 5416 2534 5505 2464 
Q 5594 2394 5731 2283 
Q 5869 2172 6019 2047 
Q 6169 1922 6291 1813 
Q 6263 1709 6106 1709 
L 3284 1709 
L 4063 1306 
Q 4041 1263 3984 1236 
Q 3928 1209 3834 1222 
Q 3575 1016 3175 794 
Q 2775 572 2369 409 
Q 2847 406 3484 412 
Q 4122 419 4819 428 
Q 4672 653 4509 861 
Q 4347 1069 4191 1241 
L 4244 1281 
Q 4869 1169 5251 969 
Q 5634 769 5820 533 
Q 6006 297 6031 76 
Q 6056 -144 5957 -298 
Q 5859 -453 5675 -489 
Q 5491 -525 5259 -391 
Q 5203 -241 5126 -89 
Q 5050 63 4953 213 
Q 4416 78 3669 -86 
Q 2922 -250 2009 -422 
Q 1966 -481 1911 -515 
Q 1856 -550 1806 -569 
L 1522 409 
Q 1522 409 1615 429 
Q 1709 450 1766 481 
Q 1963 569 2184 781 
Q 2406 994 2603 1245 
Q 2800 1497 2919 1709 
L 1672 1709 
L 1619 1881 
Q 1553 1428 1390 979 
Q 1228 531 928 125 
Q 628 -281 141 -616 
L 91 -575 
Q 413 -13 558 632 
Q 703 1278 742 1948 
Q 781 2619 781 3250 
L 781 5088 
z
M 1703 3922 
L 4800 3922 
L 4800 4844 
L 1703 4844 
L 1703 3922 
z
" transform="scale(0.015625)"/>
       <path id="SourceHanSerifCN-Heavy-5168" d="M 3519 4863 
Q 3275 4472 2901 4094 
Q 2528 3716 2073 3375 
Q 1619 3034 1123 2756 
Q 628 2478 141 2291 
L 103 2356 
Q 513 2641 914 3027 
Q 1316 3413 1659 3842 
Q 2003 4272 2243 4692 
Q 2484 5113 2572 5466 
L 3969 5100 
Q 3950 5028 3872 4993 
Q 3794 4959 3616 4941 
Q 3838 4644 4163 4423 
Q 4488 4203 4864 4045 
Q 5241 3888 5623 3780 
Q 6006 3672 6344 3597 
L 6338 3494 
Q 6128 3434 5973 3281 
Q 5819 3128 5722 2934 
Q 5625 2741 5594 2553 
Q 5144 2803 4736 3129 
Q 4328 3456 4012 3882 
Q 3697 4309 3519 4863 
z
M 409 -197 
L 2694 -197 
L 2694 1203 
L 1153 1203 
L 1100 1381 
L 2694 1381 
L 2694 2591 
L 1388 2591 
L 1338 2772 
L 3897 2772 
L 4325 3316 
Q 4325 3316 4406 3256 
Q 4488 3197 4611 3101 
Q 4734 3006 4868 2898 
Q 5003 2791 5113 2694 
Q 5084 2591 4934 2591 
L 3675 2591 
L 3675 1381 
L 4288 1381 
L 4750 1959 
Q 4750 1959 4833 1895 
Q 4916 1831 5047 1732 
Q 5178 1634 5323 1520 
Q 5469 1406 5588 1306 
Q 5559 1203 5403 1203 
L 3675 1203 
L 3675 -197 
L 4825 -197 
L 5306 422 
Q 5306 422 5393 355 
Q 5481 288 5618 180 
Q 5756 72 5904 -48 
Q 6053 -169 6175 -275 
Q 6163 -328 6109 -353 
Q 6056 -378 5991 -378 
L 459 -378 
L 409 -197 
z
" transform="scale(0.015625)"/>
       <path id="SourceHanSerifCN-Heavy-8fde" d="M 441 5325 
Q 956 5216 1257 5030 
Q 1559 4844 1684 4634 
Q 1809 4425 1800 4234 
Q 1791 4044 1678 3919 
Q 1566 3794 1391 3780 
Q 1216 3766 1019 3909 
Q 950 4272 765 4640 
Q 581 5009 384 5294 
L 441 5325 
z
M 5209 4978 
Q 5209 4978 5295 4908 
Q 5381 4838 5514 4725 
Q 5647 4613 5789 4488 
Q 5931 4363 6047 4256 
Q 6019 4153 5863 4153 
L 3578 4153 
Q 3453 3797 3325 3440 
Q 3197 3084 3097 2809 
L 3622 2809 
L 3622 3859 
L 4769 3756 
Q 4759 3694 4712 3645 
Q 4666 3597 4531 3578 
L 4531 2809 
L 4641 2809 
L 5063 3391 
Q 5063 3391 5141 3327 
Q 5219 3263 5337 3161 
Q 5456 3059 5586 2945 
Q 5716 2831 5819 2731 
Q 5791 2631 5638 2631 
L 4531 2631 
L 4531 1684 
L 4947 1684 
L 5388 2291 
Q 5388 2291 5469 2223 
Q 5550 2156 5675 2051 
Q 5800 1947 5936 1828 
Q 6072 1709 6181 1606 
Q 6153 1503 5997 1503 
L 4531 1503 
L 4531 569 
Q 4531 538 4417 484 
Q 4303 431 4131 389 
Q 3959 347 3781 347 
L 3622 347 
L 3622 1503 
L 1931 1503 
L 1881 1684 
L 3622 1684 
L 3622 2631 
L 3072 2631 
L 2747 2247 
L 1913 2759 
Q 1963 2797 2023 2842 
Q 2084 2888 2156 2925 
Q 2263 3169 2386 3494 
Q 2509 3819 2625 4153 
L 1997 4153 
L 1947 4331 
L 2688 4331 
Q 2803 4678 2893 4986 
Q 2984 5294 3028 5484 
L 4159 5172 
Q 4138 5109 4075 5065 
Q 4013 5022 3878 5038 
L 3641 4331 
L 4744 4331 
L 5209 4978 
z
M 831 684 
L 831 2913 
L 197 2913 
L 159 3097 
L 728 3097 
L 1153 3653 
L 2041 2944 
Q 1997 2897 1919 2859 
Q 1841 2822 1703 2797 
L 1703 819 
Q 1950 603 2287 479 
Q 2625 356 3111 306 
Q 3597 256 4288 256 
Q 4816 256 5291 267 
Q 5766 278 6297 306 
L 6297 238 
Q 6044 175 5900 -33 
Q 5756 -241 5728 -506 
Q 5522 -506 5222 -506 
Q 4922 -506 4600 -506 
Q 4278 -506 4006 -506 
Q 3322 -506 2876 -389 
Q 2431 -272 2128 -23 
Q 1825 225 1569 616 
Q 1500 719 1444 712 
Q 1388 706 1331 616 
Q 1272 500 1165 320 
Q 1059 141 942 -64 
Q 825 -269 728 -459 
Q 747 -553 659 -609 
L 97 263 
Q 259 344 454 459 
Q 650 575 831 684 
z
" transform="scale(0.015625)"/>
       <path id="SourceHanSerifCN-Heavy-63a5" d="M 2956 4313 
Q 3372 4203 3592 4040 
Q 3813 3878 3881 3708 
Q 3950 3538 3906 3392 
Q 3863 3247 3741 3162 
Q 3619 3078 3459 3090 
Q 3300 3103 3144 3250 
Q 3144 3525 3067 3801 
Q 2991 4078 2900 4288 
L 2956 4313 
z
M 5491 2597 
Q 5491 2597 5572 2534 
Q 5653 2472 5778 2370 
Q 5903 2269 6040 2156 
Q 6178 2044 6291 1947 
Q 6281 1894 6229 1869 
Q 6178 1844 6113 1844 
L 5522 1844 
Q 5409 1469 5257 1162 
Q 5106 856 4897 603 
Q 5350 463 5584 306 
Q 5819 150 5881 -1 
Q 5944 -153 5881 -278 
Q 5819 -403 5673 -478 
Q 5528 -553 5347 -556 
Q 5166 -559 4997 -469 
Q 4863 -344 4678 -208 
Q 4494 -72 4263 63 
Q 3859 -175 3286 -342 
Q 2713 -509 1906 -616 
L 1869 -531 
Q 2475 -350 2925 -131 
Q 3375 88 3694 372 
Q 3416 506 3098 632 
Q 2781 759 2431 863 
Q 2531 1038 2654 1302 
Q 2778 1566 2900 1844 
L 2059 1844 
L 2009 2022 
L 2975 2022 
Q 3188 2525 3272 2816 
L 4378 2566 
Q 4363 2509 4308 2467 
Q 4253 2425 4097 2419 
L 3916 2022 
L 5050 2022 
L 5491 2597 
z
M 3366 897 
Q 3563 872 3741 847 
Q 3919 822 4078 794 
Q 4397 1238 4538 1844 
L 3834 1844 
Q 3722 1597 3600 1347 
Q 3478 1097 3366 897 
z
M 5288 5088 
Q 5288 5088 5364 5027 
Q 5441 4966 5559 4870 
Q 5678 4775 5808 4665 
Q 5938 4556 6041 4459 
Q 6013 4359 5863 4359 
L 2484 4359 
L 2431 4538 
L 3969 4538 
Q 3838 4569 3731 4659 
Q 3738 4872 3656 5083 
Q 3575 5294 3469 5428 
L 3506 5459 
Q 3919 5459 4161 5379 
Q 4403 5300 4504 5176 
Q 4606 5053 4597 4922 
Q 4588 4791 4495 4686 
Q 4403 4581 4263 4538 
L 4872 4538 
L 5288 5088 
z
M 1984 4500 
Q 1984 4500 2090 4392 
Q 2197 4284 2337 4134 
Q 2478 3984 2578 3859 
Q 2559 3756 2413 3756 
L 1691 3756 
L 1691 2900 
L 2456 3156 
L 2472 3097 
L 2388 3022 
L 4306 3022 
Q 4409 3319 4493 3687 
Q 4578 4056 4622 4347 
L 5691 4084 
Q 5659 3950 5453 3950 
Q 5275 3744 5008 3491 
Q 4741 3238 4459 3022 
L 4934 3022 
L 5363 3559 
Q 5363 3559 5442 3500 
Q 5522 3441 5644 3347 
Q 5766 3253 5897 3147 
Q 6028 3041 6138 2944 
Q 6109 2841 5959 2841 
L 2400 2841 
L 2356 2994 
Q 2225 2875 2058 2734 
Q 1891 2594 1691 2431 
L 1691 459 
Q 1691 150 1623 -69 
Q 1556 -288 1336 -419 
Q 1116 -550 659 -594 
Q 644 -359 616 -193 
Q 588 -28 525 84 
Q 456 197 348 272 
Q 241 347 25 391 
L 25 481 
Q 25 481 111 476 
Q 197 472 317 464 
Q 438 456 547 451 
Q 656 447 703 447 
Q 775 447 800 472 
Q 825 497 825 544 
L 825 1772 
L 634 1631 
Q 591 1484 459 1434 
L 97 2419 
Q 213 2447 402 2503 
Q 591 2559 825 2631 
L 825 3756 
L 178 3756 
L 128 3938 
L 825 3938 
L 825 5472 
L 1925 5369 
Q 1916 5297 1862 5251 
Q 1809 5206 1691 5191 
L 1691 4019 
L 1984 4500 
z
" transform="scale(0.015625)"/>
      </defs>
      <use xlink:href="#SourceHanSerifCN-Heavy-5355"/>
      <use xlink:href="#SourceHanSerifCN-Heavy-5c42" x="100"/>
      <use xlink:href="#SourceHanSerifCN-Heavy-5168" x="200"/>
      <use xlink:href="#SourceHanSerifCN-Heavy-8fde" x="300"/>
      <use xlink:href="#SourceHanSerifCN-Heavy-63a5" x="400"/>
     </g>
    </g>
    <g id="line2d_20">
     <path d="M 607.83125 171.90375 
L 617.83125 171.90375 
L 627.83125 171.90375 
" style="fill: none; stroke: #1f466f; stroke-opacity: 0.5; stroke-width: 1.5; stroke-linecap: square"/>
    </g>
    <g id="text_15">
     <!-- Dropout=0 -->
     <g transform="translate(635.83125 175.40375) scale(0.1 -0.1)">
      <defs>
       <path id="TimesNewRomanPSMT-44" d="M 109 0 
L 109 116 
L 269 116 
Q 538 116 650 288 
Q 719 391 719 750 
L 719 3488 
Q 719 3884 631 3984 
Q 509 4122 269 4122 
L 109 4122 
L 109 4238 
L 1834 4238 
Q 2784 4238 3279 4022 
Q 3775 3806 4076 3303 
Q 4378 2800 4378 2141 
Q 4378 1256 3841 663 
Q 3238 0 2003 0 
L 109 0 
z
M 1319 306 
Q 1716 219 1984 219 
Q 2709 219 3187 728 
Q 3666 1238 3666 2109 
Q 3666 2988 3187 3494 
Q 2709 4000 1959 4000 
Q 1678 4000 1319 3909 
L 1319 306 
z
" transform="scale(0.015625)"/>
       <path id="TimesNewRomanPSMT-72" d="M 1038 2947 
L 1038 2303 
Q 1397 2947 1775 2947 
Q 1947 2947 2059 2842 
Q 2172 2738 2172 2600 
Q 2172 2478 2090 2393 
Q 2009 2309 1897 2309 
Q 1788 2309 1652 2417 
Q 1516 2525 1450 2525 
Q 1394 2525 1328 2463 
Q 1188 2334 1038 2041 
L 1038 669 
Q 1038 431 1097 309 
Q 1138 225 1241 169 
Q 1344 113 1538 113 
L 1538 0 
L 72 0 
L 72 113 
Q 291 113 397 181 
Q 475 231 506 341 
Q 522 394 522 644 
L 522 1753 
Q 522 2253 501 2348 
Q 481 2444 426 2487 
Q 372 2531 291 2531 
Q 194 2531 72 2484 
L 41 2597 
L 906 2947 
L 1038 2947 
z
" transform="scale(0.015625)"/>
       <path id="TimesNewRomanPSMT-6f" d="M 1600 2947 
Q 2250 2947 2644 2453 
Q 2978 2031 2978 1484 
Q 2978 1100 2793 706 
Q 2609 313 2286 112 
Q 1963 -88 1566 -88 
Q 919 -88 538 428 
Q 216 863 216 1403 
Q 216 1797 411 2186 
Q 606 2575 925 2761 
Q 1244 2947 1600 2947 
z
M 1503 2744 
Q 1338 2744 1170 2645 
Q 1003 2547 900 2300 
Q 797 2053 797 1666 
Q 797 1041 1045 587 
Q 1294 134 1700 134 
Q 2003 134 2200 384 
Q 2397 634 2397 1244 
Q 2397 2006 2069 2444 
Q 1847 2744 1503 2744 
z
" transform="scale(0.015625)"/>
       <path id="TimesNewRomanPSMT-70" d="M -6 2578 
L 875 2934 
L 994 2934 
L 994 2266 
Q 1216 2644 1439 2795 
Q 1663 2947 1909 2947 
Q 2341 2947 2628 2609 
Q 2981 2197 2981 1534 
Q 2981 794 2556 309 
Q 2206 -88 1675 -88 
Q 1444 -88 1275 -22 
Q 1150 25 994 166 
L 994 -706 
Q 994 -1000 1030 -1079 
Q 1066 -1159 1155 -1206 
Q 1244 -1253 1478 -1253 
L 1478 -1369 
L -22 -1369 
L -22 -1253 
L 56 -1253 
Q 228 -1256 350 -1188 
Q 409 -1153 442 -1076 
Q 475 -1000 475 -688 
L 475 2019 
Q 475 2297 450 2372 
Q 425 2447 370 2484 
Q 316 2522 222 2522 
Q 147 2522 31 2478 
L -6 2578 
z
M 994 2081 
L 994 1013 
Q 994 666 1022 556 
Q 1066 375 1236 237 
Q 1406 100 1666 100 
Q 1978 100 2172 344 
Q 2425 663 2425 1241 
Q 2425 1897 2138 2250 
Q 1938 2494 1663 2494 
Q 1513 2494 1366 2419 
Q 1253 2363 994 2081 
z
" transform="scale(0.015625)"/>
       <path id="TimesNewRomanPSMT-75" d="M 2709 2863 
L 2709 1128 
Q 2709 631 2732 520 
Q 2756 409 2807 365 
Q 2859 322 2928 322 
Q 3025 322 3147 375 
L 3191 266 
L 2334 -88 
L 2194 -88 
L 2194 519 
Q 1825 119 1631 15 
Q 1438 -88 1222 -88 
Q 981 -88 804 51 
Q 628 191 559 409 
Q 491 628 491 1028 
L 491 2306 
Q 491 2509 447 2587 
Q 403 2666 317 2708 
Q 231 2750 6 2747 
L 6 2863 
L 1009 2863 
L 1009 947 
Q 1009 547 1148 422 
Q 1288 297 1484 297 
Q 1619 297 1789 381 
Q 1959 466 2194 703 
L 2194 2325 
Q 2194 2569 2105 2655 
Q 2016 2741 1734 2747 
L 1734 2863 
L 2709 2863 
z
" transform="scale(0.015625)"/>
       <path id="TimesNewRomanPSMT-74" d="M 1031 3803 
L 1031 2863 
L 1700 2863 
L 1700 2644 
L 1031 2644 
L 1031 788 
Q 1031 509 1111 412 
Q 1191 316 1316 316 
Q 1419 316 1516 380 
Q 1613 444 1666 569 
L 1788 569 
Q 1678 263 1478 108 
Q 1278 -47 1066 -47 
Q 922 -47 784 33 
Q 647 113 581 261 
Q 516 409 516 719 
L 516 2644 
L 63 2644 
L 63 2747 
Q 234 2816 414 2980 
Q 594 3144 734 3369 
Q 806 3488 934 3803 
L 1031 3803 
z
" transform="scale(0.015625)"/>
       <path id="TimesNewRomanPSMT-3d" d="M 116 2759 
L 3488 2759 
L 3488 2503 
L 116 2503 
L 116 2759 
z
M 116 1741 
L 3488 1741 
L 3488 1484 
L 116 1484 
L 116 1741 
z
" transform="scale(0.015625)"/>
      </defs>
      <use xlink:href="#TimesNewRomanPSMT-44"/>
      <use xlink:href="#TimesNewRomanPSMT-72" x="72.216797"/>
      <use xlink:href="#TimesNewRomanPSMT-6f" x="105.517578"/>
      <use xlink:href="#TimesNewRomanPSMT-70" x="155.517578"/>
      <use xlink:href="#TimesNewRomanPSMT-6f" x="205.517578"/>
      <use xlink:href="#TimesNewRomanPSMT-75" x="255.517578"/>
      <use xlink:href="#TimesNewRomanPSMT-74" x="305.517578"/>
      <use xlink:href="#TimesNewRomanPSMT-3d" x="333.300781"/>
      <use xlink:href="#TimesNewRomanPSMT-30" x="389.697266"/>
     </g>
    </g>
    <g id="line2d_21">
     <path d="M 607.83125 186.042813 
L 617.83125 186.042813 
L 627.83125 186.042813 
" style="fill: none; stroke: #386795; stroke-opacity: 0.5; stroke-width: 1.5; stroke-linecap: square"/>
    </g>
    <g id="text_16">
     <!-- Dropout=0.1 -->
     <g transform="translate(635.83125 189.542813) scale(0.1 -0.1)">
      <use xlink:href="#TimesNewRomanPSMT-44"/>
      <use xlink:href="#TimesNewRomanPSMT-72" x="72.216797"/>
      <use xlink:href="#TimesNewRomanPSMT-6f" x="105.517578"/>
      <use xlink:href="#TimesNewRomanPSMT-70" x="155.517578"/>
      <use xlink:href="#TimesNewRomanPSMT-6f" x="205.517578"/>
      <use xlink:href="#TimesNewRomanPSMT-75" x="255.517578"/>
      <use xlink:href="#TimesNewRomanPSMT-74" x="305.517578"/>
      <use xlink:href="#TimesNewRomanPSMT-3d" x="333.300781"/>
      <use xlink:href="#TimesNewRomanPSMT-30" x="389.697266"/>
      <use xlink:href="#TimesNewRomanPSMT-2e" x="439.697266"/>
      <use xlink:href="#TimesNewRomanPSMT-31" x="464.697266"/>
     </g>
    </g>
    <g id="line2d_22">
     <path d="M 607.83125 200.181875 
L 617.83125 200.181875 
L 627.83125 200.181875 
" style="fill: none; stroke: #528fac; stroke-opacity: 0.5; stroke-width: 1.5; stroke-linecap: square"/>
    </g>
    <g id="text_17">
     <!-- Dropout=0.5 -->
     <g transform="translate(635.83125 203.681875) scale(0.1 -0.1)">
      <use xlink:href="#TimesNewRomanPSMT-44"/>
      <use xlink:href="#TimesNewRomanPSMT-72" x="72.216797"/>
      <use xlink:href="#TimesNewRomanPSMT-6f" x="105.517578"/>
      <use xlink:href="#TimesNewRomanPSMT-70" x="155.517578"/>
      <use xlink:href="#TimesNewRomanPSMT-6f" x="205.517578"/>
      <use xlink:href="#TimesNewRomanPSMT-75" x="255.517578"/>
      <use xlink:href="#TimesNewRomanPSMT-74" x="305.517578"/>
      <use xlink:href="#TimesNewRomanPSMT-3d" x="333.300781"/>
      <use xlink:href="#TimesNewRomanPSMT-30" x="389.697266"/>
      <use xlink:href="#TimesNewRomanPSMT-2e" x="439.697266"/>
      <use xlink:href="#TimesNewRomanPSMT-35" x="464.697266"/>
     </g>
    </g>
    <g id="line2d_23">
     <path d="M 607.83125 214.320938 
L 617.83125 214.320938 
L 627.83125 214.320938 
" style="fill: none; stroke: #73bcd5; stroke-opacity: 0.5; stroke-width: 1.5; stroke-linecap: square"/>
    </g>
    <g id="text_18">
     <!-- Dropout=0.7 -->
     <g transform="translate(635.83125 217.820938) scale(0.1 -0.1)">
      <defs>
       <path id="TimesNewRomanPSMT-37" d="M 644 4238 
L 2916 4238 
L 2916 4119 
L 1503 -88 
L 1153 -88 
L 2419 3728 
L 1253 3728 
Q 900 3728 750 3644 
Q 488 3500 328 3200 
L 238 3234 
L 644 4238 
z
" transform="scale(0.015625)"/>
      </defs>
      <use xlink:href="#TimesNewRomanPSMT-44"/>
      <use xlink:href="#TimesNewRomanPSMT-72" x="72.216797"/>
      <use xlink:href="#TimesNewRomanPSMT-6f" x="105.517578"/>
      <use xlink:href="#TimesNewRomanPSMT-70" x="155.517578"/>
      <use xlink:href="#TimesNewRomanPSMT-6f" x="205.517578"/>
      <use xlink:href="#TimesNewRomanPSMT-75" x="255.517578"/>
      <use xlink:href="#TimesNewRomanPSMT-74" x="305.517578"/>
      <use xlink:href="#TimesNewRomanPSMT-3d" x="333.300781"/>
      <use xlink:href="#TimesNewRomanPSMT-30" x="389.697266"/>
      <use xlink:href="#TimesNewRomanPSMT-2e" x="439.697266"/>
      <use xlink:href="#TimesNewRomanPSMT-37" x="464.697266"/>
     </g>
    </g>
   </g>
  </g>
 </g>
 <defs>
  <clipPath id="p564829011a">
   <rect x="26.7" y="7.2" width="669.6" height="221.76"/>
  </clipPath>
 </defs>
</svg>
