<?xml version="1.0" encoding="utf-8" standalone="no"?>
<!DOCTYPE svg PUBLIC "-//W3C//DTD SVG 1.1//EN"
  "http://www.w3.org/Graphics/SVG/1.1/DTD/svg11.dtd">
<svg xmlns:xlink="http://www.w3.org/1999/xlink" width="703.5pt" height="252.242812pt" viewBox="0 0 703.5 252.242812" xmlns="http://www.w3.org/2000/svg" version="1.1">
 <metadata>
  <rdf:RDF xmlns:dc="http://purl.org/dc/elements/1.1/" xmlns:cc="http://creativecommons.org/ns#" xmlns:rdf="http://www.w3.org/1999/02/22-rdf-syntax-ns#">
   <cc:Work>
    <dc:type rdf:resource="http://purl.org/dc/dcmitype/StillImage"/>
    <dc:date>2024-01-10T15:36:30.577238</dc:date>
    <dc:format>image/svg+xml</dc:format>
    <dc:creator>
     <cc:Agent>
      <dc:title>Matplotlib v3.8.2, https://matplotlib.org/</dc:title>
     </cc:Agent>
    </dc:creator>
   </cc:Work>
  </rdf:RDF>
 </metadata>
 <defs>
  <style type="text/css">*{stroke-linejoin: round; stroke-linecap: butt}</style>
 </defs>
 <g id="figure_1">
  <g id="patch_1">
   <path d="M 0 252.242812 
L 703.5 252.242812 
L 703.5 0 
L 0 0 
z
" style="fill: #ffffff"/>
  </g>
  <g id="axes_1">
   <g id="patch_2">
    <path d="M 26.7 228.96 
L 696.3 228.96 
L 696.3 7.2 
L 26.7 7.2 
z
" style="fill: #ffffff"/>
   </g>
   <g id="PathCollection_1">
    <defs>
     <path id="m79d8821591" d="M 0 3 
C 0.795609 3 1.55874 2.683901 2.12132 2.12132 
C 2.683901 1.55874 3 0.795609 3 0 
C 3 -0.795609 2.683901 -1.55874 2.12132 -2.12132 
C 1.55874 -2.683901 0.795609 -3 0 -3 
C -0.795609 -3 -1.55874 -2.683901 -2.12132 -2.12132 
C -2.683901 -1.55874 -3 -0.795609 -3 0 
C -3 0.795609 -2.683901 1.55874 -2.12132 2.12132 
C -1.55874 2.683901 -0.795609 3 0 3 
z
" style="stroke: #386795; stroke-opacity: 0.5"/>
    </defs>
    <g clip-path="url(#p0f3a2d7074)">
     <use xlink:href="#m79d8821591" x="384.912587" y="27.502795" style="fill: #386795; fill-opacity: 0.5; stroke: #386795; stroke-opacity: 0.5"/>
    </g>
   </g>
   <g id="matplotlib.axis_1">
    <g id="xtick_1">
     <g id="line2d_1">
      <defs>
       <path id="m4f6dadb39e" d="M 0 0 
L 0 3.5 
" style="stroke: #000000; stroke-width: 0.8"/>
      </defs>
      <g>
       <use xlink:href="#m4f6dadb39e" x="57.136364" y="228.96" style="stroke: #000000; stroke-width: 0.8"/>
      </g>
     </g>
     <g id="text_1">
      <!-- 0 -->
      <g transform="translate(54.636364 242.90375) scale(0.1 -0.1)">
       <defs>
        <path id="TimesNewRomanPSMT-30" d="M 231 2094 
Q 231 2819 450 3342 
Q 669 3866 1031 4122 
Q 1313 4325 1613 4325 
Q 2100 4325 2488 3828 
Q 2972 3213 2972 2159 
Q 2972 1422 2759 906 
Q 2547 391 2217 158 
Q 1888 -75 1581 -75 
Q 975 -75 572 641 
Q 231 1244 231 2094 
z
M 844 2016 
Q 844 1141 1059 588 
Q 1238 122 1591 122 
Q 1759 122 1940 273 
Q 2122 425 2216 781 
Q 2359 1319 2359 2297 
Q 2359 3022 2209 3506 
Q 2097 3866 1919 4016 
Q 1791 4119 1609 4119 
Q 1397 4119 1231 3928 
Q 1006 3669 925 3112 
Q 844 2556 844 2016 
z
" transform="scale(0.015625)"/>
       </defs>
       <use xlink:href="#TimesNewRomanPSMT-30"/>
      </g>
     </g>
    </g>
    <g id="xtick_2">
     <g id="line2d_2">
      <g>
       <use xlink:href="#m4f6dadb39e" x="150.786713" y="228.96" style="stroke: #000000; stroke-width: 0.8"/>
      </g>
     </g>
     <g id="text_2">
      <!-- 200 -->
      <g transform="translate(143.286713 242.90375) scale(0.1 -0.1)">
       <defs>
        <path id="TimesNewRomanPSMT-32" d="M 2934 816 
L 2638 0 
L 138 0 
L 138 116 
Q 1241 1122 1691 1759 
Q 2141 2397 2141 2925 
Q 2141 3328 1894 3587 
Q 1647 3847 1303 3847 
Q 991 3847 742 3664 
Q 494 3481 375 3128 
L 259 3128 
Q 338 3706 661 4015 
Q 984 4325 1469 4325 
Q 1984 4325 2329 3994 
Q 2675 3663 2675 3213 
Q 2675 2891 2525 2569 
Q 2294 2063 1775 1497 
Q 997 647 803 472 
L 1909 472 
Q 2247 472 2383 497 
Q 2519 522 2628 598 
Q 2738 675 2819 816 
L 2934 816 
z
" transform="scale(0.015625)"/>
       </defs>
       <use xlink:href="#TimesNewRomanPSMT-32"/>
       <use xlink:href="#TimesNewRomanPSMT-30" x="50"/>
       <use xlink:href="#TimesNewRomanPSMT-30" x="100"/>
      </g>
     </g>
    </g>
    <g id="xtick_3">
     <g id="line2d_3">
      <g>
       <use xlink:href="#m4f6dadb39e" x="244.437063" y="228.96" style="stroke: #000000; stroke-width: 0.8"/>
      </g>
     </g>
     <g id="text_3">
      <!-- 400 -->
      <g transform="translate(236.937063 242.90375) scale(0.1 -0.1)">
       <defs>
        <path id="TimesNewRomanPSMT-34" d="M 2978 1563 
L 2978 1119 
L 2409 1119 
L 2409 0 
L 1894 0 
L 1894 1119 
L 100 1119 
L 100 1519 
L 2066 4325 
L 2409 4325 
L 2409 1563 
L 2978 1563 
z
M 1894 1563 
L 1894 3666 
L 406 1563 
L 1894 1563 
z
" transform="scale(0.015625)"/>
       </defs>
       <use xlink:href="#TimesNewRomanPSMT-34"/>
       <use xlink:href="#TimesNewRomanPSMT-30" x="50"/>
       <use xlink:href="#TimesNewRomanPSMT-30" x="100"/>
      </g>
     </g>
    </g>
    <g id="xtick_4">
     <g id="line2d_4">
      <g>
       <use xlink:href="#m4f6dadb39e" x="338.087413" y="228.96" style="stroke: #000000; stroke-width: 0.8"/>
      </g>
     </g>
     <g id="text_4">
      <!-- 600 -->
      <g transform="translate(330.587413 242.90375) scale(0.1 -0.1)">
       <defs>
        <path id="TimesNewRomanPSMT-36" d="M 2869 4325 
L 2869 4209 
Q 2456 4169 2195 4045 
Q 1934 3922 1679 3669 
Q 1425 3416 1258 3105 
Q 1091 2794 978 2366 
Q 1428 2675 1881 2675 
Q 2316 2675 2634 2325 
Q 2953 1975 2953 1425 
Q 2953 894 2631 456 
Q 2244 -75 1606 -75 
Q 1172 -75 869 213 
Q 275 772 275 1663 
Q 275 2231 503 2743 
Q 731 3256 1154 3653 
Q 1578 4050 1965 4187 
Q 2353 4325 2688 4325 
L 2869 4325 
z
M 925 2138 
Q 869 1716 869 1456 
Q 869 1156 980 804 
Q 1091 453 1309 247 
Q 1469 100 1697 100 
Q 1969 100 2183 356 
Q 2397 613 2397 1088 
Q 2397 1622 2184 2012 
Q 1972 2403 1581 2403 
Q 1463 2403 1327 2353 
Q 1191 2303 925 2138 
z
" transform="scale(0.015625)"/>
       </defs>
       <use xlink:href="#TimesNewRomanPSMT-36"/>
       <use xlink:href="#TimesNewRomanPSMT-30" x="50"/>
       <use xlink:href="#TimesNewRomanPSMT-30" x="100"/>
      </g>
     </g>
    </g>
    <g id="xtick_5">
     <g id="line2d_5">
      <g>
       <use xlink:href="#m4f6dadb39e" x="431.737762" y="228.96" style="stroke: #000000; stroke-width: 0.8"/>
      </g>
     </g>
     <g id="text_5">
      <!-- 800 -->
      <g transform="translate(424.237762 242.90375) scale(0.1 -0.1)">
       <defs>
        <path id="TimesNewRomanPSMT-38" d="M 1228 2134 
Q 725 2547 579 2797 
Q 434 3047 434 3316 
Q 434 3728 753 4026 
Q 1072 4325 1600 4325 
Q 2113 4325 2425 4047 
Q 2738 3769 2738 3413 
Q 2738 3175 2569 2928 
Q 2400 2681 1866 2347 
Q 2416 1922 2594 1678 
Q 2831 1359 2831 1006 
Q 2831 559 2490 242 
Q 2150 -75 1597 -75 
Q 994 -75 656 303 
Q 388 606 388 966 
Q 388 1247 577 1523 
Q 766 1800 1228 2134 
z
M 1719 2469 
Q 2094 2806 2194 3001 
Q 2294 3197 2294 3444 
Q 2294 3772 2109 3958 
Q 1925 4144 1606 4144 
Q 1288 4144 1088 3959 
Q 888 3775 888 3528 
Q 888 3366 970 3203 
Q 1053 3041 1206 2894 
L 1719 2469 
z
M 1375 2016 
Q 1116 1797 991 1539 
Q 866 1281 866 981 
Q 866 578 1086 336 
Q 1306 94 1647 94 
Q 1984 94 2187 284 
Q 2391 475 2391 747 
Q 2391 972 2272 1150 
Q 2050 1481 1375 2016 
z
" transform="scale(0.015625)"/>
       </defs>
       <use xlink:href="#TimesNewRomanPSMT-38"/>
       <use xlink:href="#TimesNewRomanPSMT-30" x="50"/>
       <use xlink:href="#TimesNewRomanPSMT-30" x="100"/>
      </g>
     </g>
    </g>
    <g id="xtick_6">
     <g id="line2d_6">
      <g>
       <use xlink:href="#m4f6dadb39e" x="525.388112" y="228.96" style="stroke: #000000; stroke-width: 0.8"/>
      </g>
     </g>
     <g id="text_6">
      <!-- 1000 -->
      <g transform="translate(515.388112 242.90375) scale(0.1 -0.1)">
       <defs>
        <path id="TimesNewRomanPSMT-31" d="M 750 3822 
L 1781 4325 
L 1884 4325 
L 1884 747 
Q 1884 391 1914 303 
Q 1944 216 2037 169 
Q 2131 122 2419 116 
L 2419 0 
L 825 0 
L 825 116 
Q 1125 122 1212 167 
Q 1300 213 1334 289 
Q 1369 366 1369 747 
L 1369 3034 
Q 1369 3497 1338 3628 
Q 1316 3728 1258 3775 
Q 1200 3822 1119 3822 
Q 1003 3822 797 3725 
L 750 3822 
z
" transform="scale(0.015625)"/>
       </defs>
       <use xlink:href="#TimesNewRomanPSMT-31"/>
       <use xlink:href="#TimesNewRomanPSMT-30" x="50"/>
       <use xlink:href="#TimesNewRomanPSMT-30" x="100"/>
       <use xlink:href="#TimesNewRomanPSMT-30" x="150"/>
      </g>
     </g>
    </g>
    <g id="xtick_7">
     <g id="line2d_7">
      <g>
       <use xlink:href="#m4f6dadb39e" x="619.038462" y="228.96" style="stroke: #000000; stroke-width: 0.8"/>
      </g>
     </g>
     <g id="text_7">
      <!-- 1200 -->
      <g transform="translate(609.038462 242.90375) scale(0.1 -0.1)">
       <use xlink:href="#TimesNewRomanPSMT-31"/>
       <use xlink:href="#TimesNewRomanPSMT-32" x="50"/>
       <use xlink:href="#TimesNewRomanPSMT-30" x="100"/>
       <use xlink:href="#TimesNewRomanPSMT-30" x="150"/>
      </g>
     </g>
    </g>
   </g>
   <g id="matplotlib.axis_2">
    <g id="ytick_1">
     <g id="line2d_8">
      <defs>
       <path id="m0bfc0b0e31" d="M 0 0 
L -3.5 0 
" style="stroke: #000000; stroke-width: 0.8"/>
      </defs>
      <g>
       <use xlink:href="#m0bfc0b0e31" x="26.7" y="213.265576" style="stroke: #000000; stroke-width: 0.8"/>
      </g>
     </g>
     <g id="text_8">
      <!-- 0.1 -->
      <g transform="translate(7.2 216.737451) scale(0.1 -0.1)">
       <defs>
        <path id="TimesNewRomanPSMT-2e" d="M 800 606 
Q 947 606 1047 504 
Q 1147 403 1147 259 
Q 1147 116 1045 14 
Q 944 -88 800 -88 
Q 656 -88 554 14 
Q 453 116 453 259 
Q 453 406 554 506 
Q 656 606 800 606 
z
" transform="scale(0.015625)"/>
       </defs>
       <use xlink:href="#TimesNewRomanPSMT-30"/>
       <use xlink:href="#TimesNewRomanPSMT-2e" x="50"/>
       <use xlink:href="#TimesNewRomanPSMT-31" x="75"/>
      </g>
     </g>
    </g>
    <g id="ytick_2">
     <g id="line2d_9">
      <g>
       <use xlink:href="#m0bfc0b0e31" x="26.7" y="180.81226" style="stroke: #000000; stroke-width: 0.8"/>
      </g>
     </g>
     <g id="text_9">
      <!-- 0.2 -->
      <g transform="translate(7.2 184.284135) scale(0.1 -0.1)">
       <use xlink:href="#TimesNewRomanPSMT-30"/>
       <use xlink:href="#TimesNewRomanPSMT-2e" x="50"/>
       <use xlink:href="#TimesNewRomanPSMT-32" x="75"/>
      </g>
     </g>
    </g>
    <g id="ytick_3">
     <g id="line2d_10">
      <g>
       <use xlink:href="#m0bfc0b0e31" x="26.7" y="148.358944" style="stroke: #000000; stroke-width: 0.8"/>
      </g>
     </g>
     <g id="text_10">
      <!-- 0.3 -->
      <g transform="translate(7.2 151.830819) scale(0.1 -0.1)">
       <defs>
        <path id="TimesNewRomanPSMT-33" d="M 325 3431 
Q 506 3859 782 4092 
Q 1059 4325 1472 4325 
Q 1981 4325 2253 3994 
Q 2459 3747 2459 3466 
Q 2459 3003 1878 2509 
Q 2269 2356 2469 2072 
Q 2669 1788 2669 1403 
Q 2669 853 2319 450 
Q 1863 -75 997 -75 
Q 569 -75 414 31 
Q 259 138 259 259 
Q 259 350 332 419 
Q 406 488 509 488 
Q 588 488 669 463 
Q 722 447 909 348 
Q 1097 250 1169 231 
Q 1284 197 1416 197 
Q 1734 197 1970 444 
Q 2206 691 2206 1028 
Q 2206 1275 2097 1509 
Q 2016 1684 1919 1775 
Q 1784 1900 1550 2001 
Q 1316 2103 1072 2103 
L 972 2103 
L 972 2197 
Q 1219 2228 1467 2375 
Q 1716 2522 1828 2728 
Q 1941 2934 1941 3181 
Q 1941 3503 1739 3701 
Q 1538 3900 1238 3900 
Q 753 3900 428 3381 
L 325 3431 
z
" transform="scale(0.015625)"/>
       </defs>
       <use xlink:href="#TimesNewRomanPSMT-30"/>
       <use xlink:href="#TimesNewRomanPSMT-2e" x="50"/>
       <use xlink:href="#TimesNewRomanPSMT-33" x="75"/>
      </g>
     </g>
    </g>
    <g id="ytick_4">
     <g id="line2d_11">
      <g>
       <use xlink:href="#m0bfc0b0e31" x="26.7" y="115.905628" style="stroke: #000000; stroke-width: 0.8"/>
      </g>
     </g>
     <g id="text_11">
      <!-- 0.4 -->
      <g transform="translate(7.2 119.377503) scale(0.1 -0.1)">
       <use xlink:href="#TimesNewRomanPSMT-30"/>
       <use xlink:href="#TimesNewRomanPSMT-2e" x="50"/>
       <use xlink:href="#TimesNewRomanPSMT-34" x="75"/>
      </g>
     </g>
    </g>
    <g id="ytick_5">
     <g id="line2d_12">
      <g>
       <use xlink:href="#m0bfc0b0e31" x="26.7" y="83.452312" style="stroke: #000000; stroke-width: 0.8"/>
      </g>
     </g>
     <g id="text_12">
      <!-- 0.5 -->
      <g transform="translate(7.2 86.924187) scale(0.1 -0.1)">
       <defs>
        <path id="TimesNewRomanPSMT-35" d="M 2778 4238 
L 2534 3706 
L 1259 3706 
L 981 3138 
Q 1809 3016 2294 2522 
Q 2709 2097 2709 1522 
Q 2709 1188 2573 903 
Q 2438 619 2231 419 
Q 2025 219 1772 97 
Q 1413 -75 1034 -75 
Q 653 -75 479 54 
Q 306 184 306 341 
Q 306 428 378 495 
Q 450 563 559 563 
Q 641 563 702 538 
Q 763 513 909 409 
Q 1144 247 1384 247 
Q 1750 247 2026 523 
Q 2303 800 2303 1197 
Q 2303 1581 2056 1914 
Q 1809 2247 1375 2428 
Q 1034 2569 447 2591 
L 1259 4238 
L 2778 4238 
z
" transform="scale(0.015625)"/>
       </defs>
       <use xlink:href="#TimesNewRomanPSMT-30"/>
       <use xlink:href="#TimesNewRomanPSMT-2e" x="50"/>
       <use xlink:href="#TimesNewRomanPSMT-35" x="75"/>
      </g>
     </g>
    </g>
    <g id="ytick_6">
     <g id="line2d_13">
      <g>
       <use xlink:href="#m0bfc0b0e31" x="26.7" y="50.998995" style="stroke: #000000; stroke-width: 0.8"/>
      </g>
     </g>
     <g id="text_13">
      <!-- 0.6 -->
      <g transform="translate(7.2 54.47087) scale(0.1 -0.1)">
       <use xlink:href="#TimesNewRomanPSMT-30"/>
       <use xlink:href="#TimesNewRomanPSMT-2e" x="50"/>
       <use xlink:href="#TimesNewRomanPSMT-36" x="75"/>
      </g>
     </g>
    </g>
    <g id="ytick_7">
     <g id="line2d_14">
      <g>
       <use xlink:href="#m0bfc0b0e31" x="26.7" y="18.545679" style="stroke: #000000; stroke-width: 0.8"/>
      </g>
     </g>
     <g id="text_14">
      <!-- 0.7 -->
      <g transform="translate(7.2 22.017554) scale(0.1 -0.1)">
       <defs>
        <path id="TimesNewRomanPSMT-37" d="M 644 4238 
L 2916 4238 
L 2916 4119 
L 1503 -88 
L 1153 -88 
L 2419 3728 
L 1253 3728 
Q 900 3728 750 3644 
Q 488 3500 328 3200 
L 238 3234 
L 644 4238 
z
" transform="scale(0.015625)"/>
       </defs>
       <use xlink:href="#TimesNewRomanPSMT-30"/>
       <use xlink:href="#TimesNewRomanPSMT-2e" x="50"/>
       <use xlink:href="#TimesNewRomanPSMT-37" x="75"/>
      </g>
     </g>
    </g>
   </g>
   <g id="line2d_15">
    <path d="M 57.136364 218.523014 
L 57.604615 218.523014 
L 58.072867 218.523014 
L 58.541119 218.523014 
L 59.009371 218.523014 
L 59.477622 218.523014 
L 59.945874 218.523014 
L 60.414126 218.523014 
L 60.882378 218.523014 
L 61.350629 218.523014 
L 61.818881 218.523014 
L 62.287133 218.523014 
L 62.755385 218.523014 
L 63.223636 218.88 
L 63.691888 218.88 
L 64.16014 218.88 
L 64.628392 218.88 
L 65.096643 218.88 
L 65.564895 218.88 
L 66.033147 218.523014 
L 66.501399 218.523014 
L 66.96965 218.523014 
L 67.437902 218.523014 
L 67.906154 218.523014 
L 68.374406 218.523014 
L 68.842657 218.523014 
L 69.310909 218.523014 
L 69.779161 218.166027 
L 70.247413 218.166027 
L 70.715664 218.166027 
L 71.183916 217.419601 
L 71.652168 217.419601 
L 72.12042 217.419601 
L 72.588671 217.062614 
L 73.056923 216.705628 
L 73.525175 216.348641 
L 73.993427 216.348641 
L 74.461678 216.348641 
L 74.92993 215.991655 
L 75.398182 214.888242 
L 75.866434 214.888242 
L 76.334685 214.531256 
L 76.802937 214.174269 
L 77.271189 213.817283 
L 77.739441 213.460296 
L 78.207692 212.356883 
L 78.675944 210.182511 
L 79.144196 209.111552 
L 79.612448 208.008139 
L 80.080699 206.54774 
L 80.548951 204.730354 
L 82.89021 196.779292 
L 85.231469 174.64613 
L 87.572727 139.466735 
L 89.913986 100.685023 
L 92.255245 69.854372 
L 94.596503 37.952762 
L 96.937762 27.437888 
L 99.279021 20.914771 
L 101.62028 19.454372 
L 103.961538 19.454372 
L 106.302797 18.740399 
L 108.644056 18.740399 
L 110.985315 18.740399 
L 113.326573 19.097386 
L 115.667832 19.097386 
L 118.009091 19.097386 
L 120.35035 19.097386 
L 122.691608 19.097386 
L 125.032867 19.097386 
L 127.374126 19.097386 
L 129.715385 19.097386 
L 132.056643 19.097386 
L 134.397902 19.097386 
L 136.739161 19.097386 
L 139.08042 19.097386 
L 141.421678 19.097386 
L 143.762937 19.097386 
L 146.104196 19.097386 
L 148.445455 19.097386 
L 150.786713 19.097386 
L 197.611888 19.097386 
L 244.437063 19.097386 
L 291.262238 19.097386 
L 338.087413 19.097386 
L 384.912587 19.097386 
L 431.737762 19.097386 
L 478.562937 19.097386 
L 525.388112 19.097386 
L 572.213287 19.097386 
L 619.038462 19.097386 
L 665.863636 19.097386 
" clip-path="url(#p0f3a2d7074)" style="fill: none; stroke: #e86254; stroke-width: 1.5; stroke-linecap: square"/>
   </g>
   <g id="LineCollection_1">
    <path d="M 57.136364 17.28 
L 665.863636 17.28 
" clip-path="url(#p0f3a2d7074)" style="fill: none; stroke-dasharray: 1.5,2.475; stroke-dashoffset: 0; stroke: #e86254; stroke-opacity: 0.5; stroke-width: 1.5"/>
   </g>
   <g id="line2d_16">
    <path d="M 57.136364 202.523529 
L 57.604615 201.971822 
L 58.072867 201.647289 
L 58.541119 201.355209 
L 59.009371 201.063129 
L 59.477622 200.706143 
L 59.945874 200.251797 
L 60.414126 200.121983 
L 60.882378 199.732543 
L 61.350629 199.570277 
L 61.818881 197.720438 
L 62.287133 195.286439 
L 62.755385 193.663773 
L 63.223636 192.106014 
L 63.691888 190.678068 
L 64.16014 188.925589 
L 64.628392 187.238017 
L 65.096643 184.739111 
L 65.564895 182.954179 
L 66.033147 181.526233 
L 66.501399 179.514127 
L 66.96965 178.021275 
L 67.437902 175.13293 
L 67.906154 172.763838 
L 68.374406 170.621919 
L 68.842657 167.9932 
L 69.310909 165.656561 
L 69.779161 162.962936 
L 70.247413 160.691204 
L 70.715664 157.900219 
L 71.183916 156.05038 
L 71.652168 152.934862 
L 72.12042 150.306143 
L 72.588671 148.261584 
L 73.056923 145.178519 
L 73.525175 142.127907 
L 73.993427 139.109749 
L 74.461678 135.734604 
L 74.92993 133.787405 
L 75.398182 130.8017 
L 75.866434 128.692234 
L 76.334685 126.355596 
L 76.802937 124.797836 
L 77.271189 123.369891 
L 77.739441 122.006851 
L 78.207692 120.124559 
L 78.675944 118.729066 
L 79.144196 117.041494 
L 79.612448 115.710908 
L 80.080699 114.542589 
L 80.548951 113.244456 
L 82.89021 106.169633 
L 85.231469 100.133316 
L 87.572727 94.324173 
L 89.913986 90.721854 
L 92.255245 84.231191 
L 94.596503 79.006207 
L 96.937762 72.807624 
L 99.279021 65.538081 
L 101.62028 59.404404 
L 103.961538 55.73718 
L 106.302797 51.842782 
L 108.644056 48.79217 
L 110.985315 47.201958 
L 113.326573 45.060039 
L 115.667832 43.275106 
L 118.009091 42.269053 
L 120.35035 42.04188 
L 122.691608 41.84716 
L 125.032867 41.392814 
L 127.374126 40.743748 
L 129.715385 40.321854 
L 132.056643 39.770148 
L 134.397902 39.542975 
L 136.739161 39.185988 
L 139.08042 38.699189 
L 141.421678 38.050122 
L 143.762937 37.595776 
L 146.104196 37.108976 
L 148.445455 36.881803 
L 150.786713 36.395003 
L 197.611888 35.908203 
L 244.437063 35.908203 
L 291.262238 35.908203 
L 338.087413 35.908203 
L 384.912587 35.908203 
L 431.737762 35.908203 
L 478.562937 35.908203 
L 525.388112 35.908203 
L 572.213287 35.908203 
L 619.038462 35.908203 
L 665.863636 35.908203 
" clip-path="url(#p0f3a2d7074)" style="fill: none; stroke: #ffd06e; stroke-width: 1.5; stroke-linecap: square"/>
   </g>
   <g id="LineCollection_2">
    <path d="M 57.136364 52.978648 
L 665.863636 52.978648 
" clip-path="url(#p0f3a2d7074)" style="fill: none; stroke-dasharray: 1.5,2.475; stroke-dashoffset: 0; stroke: #ffd06e; stroke-opacity: 0.5; stroke-width: 1.5"/>
   </g>
   <g id="line2d_17">
    <path d="M 57.136364 210.539498 
L 57.604615 210.247418 
L 58.072867 210.085151 
L 58.541119 209.922885 
L 59.009371 209.793071 
L 59.477622 209.630805 
L 59.945874 209.403632 
L 60.414126 209.338725 
L 60.882378 209.144005 
L 61.350629 209.046645 
L 61.818881 208.137952 
L 62.287133 206.904726 
L 62.755385 206.093393 
L 63.223636 205.509234 
L 63.691888 204.795261 
L 64.16014 203.886568 
L 64.628392 203.042782 
L 65.096643 201.809556 
L 65.564895 200.933316 
L 66.033147 200.024623 
L 66.501399 199.018571 
L 66.96965 198.272144 
L 67.437902 196.811745 
L 67.906154 195.643426 
L 68.374406 194.572466 
L 68.842657 193.24188 
L 69.310909 192.106014 
L 69.779161 190.580708 
L 70.247413 189.412389 
L 70.715664 188.04935 
L 71.183916 186.751217 
L 71.652168 185.193458 
L 72.12042 183.862872 
L 72.588671 182.662099 
L 73.056923 180.942073 
L 73.525175 179.254501 
L 73.993427 177.729195 
L 74.461678 176.041623 
L 74.92993 174.873303 
L 75.398182 172.861198 
L 75.866434 171.790238 
L 76.334685 170.459652 
L 76.802937 169.486053 
L 77.271189 168.57736 
L 77.739441 167.733574 
L 78.207692 166.240721 
L 78.675944 164.455789 
L 79.144196 163.060296 
L 79.612448 161.859524 
L 80.080699 160.561391 
L 80.548951 159.003632 
L 82.89021 151.474462 
L 85.231469 137.389723 
L 87.572727 116.879227 
L 89.913986 95.687212 
L 92.255245 77.059008 
L 94.596503 58.463258 
L 96.937762 50.122756 
L 99.279021 43.2102 
L 101.62028 39.413162 
L 103.961538 37.595776 
L 106.302797 35.29159 
L 108.644056 33.766285 
L 110.985315 32.954952 
L 113.326573 32.078712 
L 115.667832 31.170019 
L 118.009091 30.68322 
L 120.35035 30.58586 
L 122.691608 30.456046 
L 125.032867 30.228873 
L 127.374126 29.90434 
L 129.715385 29.70962 
L 132.056643 29.449994 
L 134.397902 29.32018 
L 136.739161 29.12546 
L 139.08042 28.898287 
L 141.421678 28.573754 
L 143.762937 28.346581 
L 146.104196 28.119408 
L 148.445455 27.989594 
L 150.786713 27.762421 
L 197.611888 27.502795 
L 244.437063 27.502795 
L 291.262238 27.502795 
L 338.087413 27.502795 
L 384.912587 27.502795 
L 431.737762 27.502795 
L 478.562937 27.502795 
L 525.388112 27.502795 
L 572.213287 27.502795 
L 619.038462 27.502795 
L 665.863636 27.502795 
" clip-path="url(#p0f3a2d7074)" style="fill: none; stroke: #386795; stroke-width: 1.5; stroke-linecap: square"/>
   </g>
   <g id="LineCollection_3">
    <path d="M 57.136364 35.129324 
L 665.863636 35.129324 
" clip-path="url(#p0f3a2d7074)" style="fill: none; stroke-dasharray: 1.5,2.475; stroke-dashoffset: 0; stroke: #386795; stroke-opacity: 0.5; stroke-width: 1.5"/>
   </g>
   <g id="patch_3">
    <path d="M 26.7 228.96 
L 26.7 7.2 
" style="fill: none; stroke: #000000; stroke-width: 0.8; stroke-linejoin: miter; stroke-linecap: square"/>
   </g>
   <g id="patch_4">
    <path d="M 696.3 228.96 
L 696.3 7.2 
" style="fill: none; stroke: #000000; stroke-width: 0.8; stroke-linejoin: miter; stroke-linecap: square"/>
   </g>
   <g id="patch_5">
    <path d="M 26.7 228.96 
L 696.3 228.96 
" style="fill: none; stroke: #000000; stroke-width: 0.8; stroke-linejoin: miter; stroke-linecap: square"/>
   </g>
   <g id="patch_6">
    <path d="M 26.7 7.2 
L 696.3 7.2 
" style="fill: none; stroke: #000000; stroke-width: 0.8; stroke-linejoin: miter; stroke-linecap: square"/>
   </g>
   <g id="legend_1">
    <g id="patch_7">
     <path d="M 587.3 223.96 
L 689.3 223.96 
Q 691.3 223.96 691.3 221.96 
L 691.3 180.264687 
Q 691.3 178.264687 689.3 178.264687 
L 587.3 178.264687 
Q 585.3 178.264687 585.3 180.264687 
L 585.3 221.96 
Q 585.3 223.96 587.3 223.96 
z
" style="fill: #ffffff; opacity: 0.8; stroke: #cccccc; stroke-linejoin: miter"/>
    </g>
    <g id="line2d_18">
     <path d="M 589.3 185.883437 
L 599.3 185.883437 
L 609.3 185.883437 
" style="fill: none; stroke: #e86254; stroke-width: 1.5; stroke-linecap: square"/>
    </g>
    <g id="text_15">
     <!-- 情感分类准确率 -->
     <g transform="translate(617.3 189.383437) scale(0.1 -0.1)">
      <defs>
       <path id="SimSun-60c5" d="M 1175 4225 
Q 1175 4725 1150 5225 
L 1750 4950 
L 1525 4775 
L 1525 4100 
Q 2050 3900 2150 3762 
Q 2250 3625 2237 3500 
Q 2225 3375 2162 3300 
Q 2100 3225 2050 3225 
Q 1975 3225 1900 3425 
Q 1775 3700 1525 3975 
L 1525 400 
Q 1525 0 1550 -450 
L 1150 -625 
Q 1175 25 1175 550 
L 1175 4225 
z
M 800 3825 
Q 875 3100 825 2887 
Q 775 2675 687 2625 
Q 600 2575 500 2575 
Q 400 2575 337 2612 
Q 275 2650 275 2675 
Q 275 2775 400 2925 
Q 600 3175 700 3825 
L 800 3825 
z
M 4325 4950 
L 4100 4800 
L 4100 4350 
L 5075 4350 
L 5375 4650 
L 5825 4200 
L 4100 4200 
L 4100 3600 
L 4850 3600 
L 5125 3875 
L 5550 3450 
L 4100 3450 
L 4100 2825 
L 5350 2825 
L 5650 3125 
L 6100 2675 
L 2750 2675 
Q 2425 2675 2150 2600 
L 1925 2825 
L 3750 2825 
L 3750 3450 
L 3375 3450 
Q 3050 3450 2775 3375 
L 2550 3600 
L 3750 3600 
L 3750 4200 
L 3025 4200 
Q 2700 4200 2425 4125 
L 2200 4350 
L 3750 4350 
Q 3750 4775 3725 5250 
L 4325 4950 
z
M 2975 2050 
L 2975 1550 
L 4925 1550 
L 4925 2050 
L 2975 2050 
z
M 2975 1400 
L 2975 825 
L 4925 825 
L 4925 1400 
L 2975 1400 
z
M 2625 2425 
L 2975 2200 
L 4875 2200 
L 5050 2450 
L 5450 2150 
L 5275 2000 
L 5275 50 
Q 5300 -475 4750 -625 
Q 4775 -375 4125 -175 
L 4125 -50 
Q 4500 -125 4725 -112 
Q 4950 -100 4925 175 
L 4925 675 
L 2975 675 
L 2975 -450 
L 2625 -625 
Q 2650 100 2650 1000 
Q 2650 1900 2625 2425 
z
" transform="scale(0.015625)"/>
       <path id="SimSun-611f" d="M 1525 3600 
L 3075 3600 
L 3325 3850 
L 3725 3450 
L 2225 3450 
Q 1950 3450 1725 3400 
L 1525 3600 
z
M 3475 2675 
Q 3475 2050 3500 1775 
L 3150 1625 
L 3150 1875 
L 2175 1875 
L 2175 1650 
L 1825 1500 
Q 1850 1925 1850 2325 
Q 1850 2725 1825 3125 
L 2200 2925 
L 3125 2925 
L 3300 3125 
L 3650 2825 
L 3475 2675 
z
M 2175 2775 
L 2175 2025 
L 3150 2025 
L 3150 2775 
L 2175 2775 
z
M 4525 5225 
Q 4925 5000 5050 4900 
Q 5175 4800 5175 4700 
Q 5175 4650 5137 4562 
Q 5100 4475 5000 4425 
Q 4900 4375 4825 4625 
Q 4725 4850 4475 5150 
L 4525 5225 
z
M 5625 1550 
L 5775 2450 
L 5875 2450 
Q 5850 2200 5875 1800 
Q 5900 1400 6050 1225 
Q 6100 1150 6100 1125 
Q 6100 1050 5837 1087 
Q 5575 1125 5150 1375 
Q 4725 1625 4375 2075 
Q 3875 1625 3225 1250 
L 3150 1300 
Q 3800 1825 4200 2300 
Q 4050 2575 3925 3087 
Q 3800 3600 3775 4200 
L 1400 4200 
Q 1400 3050 1237 2375 
Q 1075 1700 350 1000 
L 275 1050 
Q 825 1800 925 2412 
Q 1025 3025 1037 3450 
Q 1050 3875 1025 4600 
L 1400 4350 
L 3750 4350 
Q 3725 4900 3700 5275 
L 4225 5050 
L 4050 4900 
Q 4050 4725 4075 4350 
L 5275 4350 
L 5600 4675 
L 6075 4200 
L 4100 4200 
Q 4150 3275 4450 2600 
Q 4775 3075 4912 3325 
Q 5050 3575 5175 3875 
L 5675 3525 
L 5450 3450 
Q 5000 2750 4600 2325 
Q 5025 1775 5625 1550 
z
M 1150 1025 
L 1250 1025 
Q 1225 250 1100 50 
Q 975 -150 800 -187 
Q 625 -225 562 -137 
Q 500 -50 500 0 
Q 500 100 700 225 
Q 950 400 1150 1025 
z
M 2750 1275 
L 2800 1350 
Q 3350 1125 3512 987 
Q 3675 850 3675 750 
Q 3675 675 3600 537 
Q 3525 400 3475 400 
Q 3400 400 3325 575 
Q 3175 850 2750 1275 
z
M 4750 1100 
L 4825 1175 
Q 5550 725 5612 600 
Q 5675 475 5675 375 
Q 5675 225 5587 125 
Q 5500 25 5450 25 
Q 5350 25 5275 275 
Q 5150 650 4750 1100 
z
M 1850 -25 
Q 1850 775 1825 1175 
L 2400 900 
L 2175 725 
L 2175 150 
Q 2125 -225 2575 -175 
L 3925 -175 
Q 4200 -200 4262 37 
Q 4325 275 4350 700 
L 4450 700 
Q 4475 325 4525 150 
Q 4575 -25 4750 -100 
Q 4525 -500 3925 -450 
L 2425 -450 
Q 1850 -500 1850 -25 
z
" transform="scale(0.015625)"/>
       <path id="SimSun-5206" d="M 2350 5050 
L 2850 4675 
L 2625 4550 
Q 2200 3750 1687 3125 
Q 1175 2500 375 2025 
L 325 2100 
Q 975 2625 1475 3337 
Q 1975 4050 2350 5050 
z
M 4100 4975 
L 3900 4850 
Q 4175 3850 4800 3300 
Q 5425 2750 6125 2625 
L 6125 2550 
Q 5750 2500 5600 2225 
Q 4775 2675 4287 3425 
Q 3800 4175 3625 5175 
L 4100 4975 
z
M 1375 2625 
L 4225 2625 
L 4475 2875 
L 4825 2525 
L 4625 2375 
Q 4575 400 4375 -12 
Q 4175 -425 3675 -600 
Q 3600 -200 2975 -25 
L 2975 75 
Q 3600 -25 3787 -12 
Q 3975 0 4075 275 
Q 4175 550 4275 2475 
L 2975 2475 
Q 2825 1400 2375 662 
Q 1925 -75 650 -625 
L 600 -525 
Q 1725 50 2112 837 
Q 2500 1625 2575 2475 
L 1800 2475 
L 1575 2425 
L 1375 2625 
z
" transform="scale(0.015625)"/>
       <path id="SimSun-7c7b" d="M 1375 4925 
L 1425 5000 
Q 1975 4775 2200 4612 
Q 2425 4450 2412 4287 
Q 2400 4125 2325 4012 
Q 2250 3900 2200 3900 
Q 2125 3900 2025 4150 
Q 1850 4500 1375 4925 
z
M 3075 3750 
L 3075 4825 
Q 3075 5000 3050 5225 
L 3700 4975 
L 3425 4775 
L 3425 3750 
L 3900 3750 
Q 4475 4525 4750 5075 
L 5250 4650 
L 4975 4575 
Q 4700 4375 4050 3750 
L 5275 3750 
L 5625 4075 
L 6075 3600 
L 3425 3600 
L 3425 3450 
Q 5000 3025 5300 2850 
Q 5600 2675 5625 2550 
Q 5650 2425 5650 2375 
Q 5650 2250 5612 2175 
Q 5575 2100 5550 2100 
Q 5425 2100 5150 2400 
Q 4775 2775 3425 3350 
Q 3425 2575 3450 2400 
L 3050 2250 
Q 3075 2575 3075 3575 
Q 2625 3000 2037 2575 
Q 1450 2150 400 1850 
L 375 1925 
Q 1300 2325 1812 2725 
Q 2325 3125 2675 3600 
L 1250 3600 
Q 925 3600 650 3525 
L 425 3750 
L 3075 3750 
z
M 3250 1775 
Q 3200 1625 3150 1500 
L 5300 1500 
L 5650 1850 
L 6100 1350 
L 3500 1350 
Q 3925 750 4550 375 
Q 5175 0 6125 -100 
L 6125 -200 
Q 5650 -225 5525 -550 
Q 4700 -225 4137 325 
Q 3575 875 3375 1350 
L 3125 1350 
Q 2825 375 2175 -37 
Q 1525 -450 300 -650 
L 275 -575 
Q 1175 -350 1825 62 
Q 2475 475 2750 1350 
L 1075 1350 
Q 750 1350 475 1275 
L 250 1500 
L 2775 1500 
Q 2825 1850 2850 2225 
L 3475 1925 
L 3250 1775 
z
" transform="scale(0.015625)"/>
       <path id="SimSun-51c6" d="M 2575 -600 
Q 2600 300 2600 550 
L 2600 3375 
Q 2200 2725 1675 2200 
L 1600 2250 
Q 2100 2950 2462 3812 
Q 2825 4675 2925 5175 
L 3450 4850 
L 3250 4725 
Q 3025 4275 2875 3950 
L 5175 3950 
L 5525 4300 
L 6025 3800 
L 4450 3800 
L 4450 2775 
L 5000 2775 
L 5325 3100 
L 5800 2625 
L 4450 2625 
L 4450 1450 
L 5100 1450 
L 5425 1775 
L 5900 1300 
L 4450 1300 
L 4450 100 
L 5250 100 
L 5600 450 
L 6100 -50 
L 2950 -50 
L 2950 -425 
L 2575 -600 
z
M 4100 3800 
L 2950 3800 
L 2950 2775 
L 4100 2775 
L 4100 3800 
z
M 2950 2625 
L 2950 1450 
L 4100 1450 
L 4100 2625 
L 2950 2625 
z
M 2950 1300 
L 2950 100 
L 4100 100 
L 4100 1300 
L 2950 1300 
z
M 3875 5150 
L 3950 5200 
Q 4675 4725 4650 4500 
Q 4625 4275 4525 4187 
Q 4425 4100 4375 4100 
Q 4275 4100 4250 4350 
Q 4175 4675 3875 5150 
z
M 500 4875 
Q 1350 4375 1337 4137 
Q 1325 3900 1225 3787 
Q 1125 3675 1075 3675 
Q 1000 3675 925 3925 
Q 825 4275 450 4825 
L 500 4875 
z
M 300 1825 
Q 625 1825 862 1887 
Q 1100 1950 2100 4500 
L 2200 4475 
Q 1750 3150 1500 2450 
Q 1225 1750 1200 1137 
Q 1175 525 1200 175 
Q 1200 -200 1012 -137 
Q 825 -75 750 37 
Q 675 150 675 300 
Q 675 450 700 550 
Q 775 850 825 1100 
Q 875 1350 787 1500 
Q 700 1650 300 1725 
L 300 1825 
z
" transform="scale(0.015625)"/>
       <path id="SimSun-786e" d="M 3625 4300 
Q 3350 3925 3075 3575 
L 3400 3375 
L 4250 3375 
L 4750 4300 
L 3625 4300 
z
M 3675 5250 
L 4175 4925 
L 3950 4850 
Q 3825 4675 3700 4450 
L 4725 4450 
L 4950 4700 
L 5375 4275 
Q 5000 4250 4400 3375 
L 5350 3375 
L 5525 3625 
L 5900 3350 
L 5725 3175 
L 5725 25 
Q 5750 -375 5275 -575 
Q 5250 -250 4650 -125 
L 4650 -25 
Q 4950 -50 5150 -50 
Q 5275 -50 5337 -25 
Q 5400 0 5400 150 
L 5400 1200 
L 4525 1200 
L 4525 -275 
L 4225 -450 
L 4225 1200 
L 3325 1200 
Q 3250 625 2962 175 
Q 2675 -275 2150 -625 
L 2100 -575 
Q 2575 -100 2800 425 
Q 3025 950 3037 1925 
Q 3050 2900 3050 3550 
Q 2775 3225 2500 2975 
L 2425 3025 
Q 2800 3475 3137 4062 
Q 3475 4650 3675 5250 
z
M 3375 3225 
L 3375 2350 
L 4225 2350 
L 4225 3225 
L 3375 3225 
z
M 4525 3225 
L 4525 2350 
L 5400 2350 
L 5400 3225 
L 4525 3225 
z
M 3375 2200 
L 3350 1350 
L 4225 1350 
L 4225 2200 
L 3375 2200 
z
M 4525 2200 
L 4525 1350 
L 5400 1350 
L 5400 2200 
L 4525 2200 
z
M 1250 2625 
L 1250 850 
L 2025 850 
L 2025 2625 
L 1250 2625 
z
M 925 -125 
Q 950 675 950 2275 
Q 650 1750 300 1400 
L 250 1450 
Q 950 2550 1325 4250 
L 1175 4250 
Q 850 4250 575 4175 
L 350 4400 
L 2150 4400 
L 2475 4700 
L 2875 4250 
L 1725 4250 
Q 1475 3525 1200 2775 
L 2000 2775 
L 2175 3000 
L 2550 2700 
L 2350 2550 
Q 2350 1200 2375 475 
L 2025 325 
L 2025 700 
L 1250 700 
L 1250 25 
L 925 -125 
z
" transform="scale(0.015625)"/>
       <path id="SimSun-7387" d="M 875 3725 
L 925 3800 
Q 1375 3650 1550 3525 
Q 1725 3400 1725 3250 
Q 1725 3175 1662 3025 
Q 1600 2875 1550 2875 
Q 1500 2875 1425 3050 
Q 1275 3325 875 3725 
z
M 550 1850 
Q 875 1925 2000 2575 
L 2050 2500 
Q 1675 2225 1337 1937 
Q 1000 1650 875 1425 
L 550 1850 
z
M 5200 3450 
Q 4800 3150 4275 2800 
L 4225 2875 
Q 4775 3400 5050 3925 
L 5450 3525 
L 5200 3450 
z
M 4325 2500 
L 4350 2575 
Q 5225 2350 5375 2212 
Q 5525 2075 5525 1900 
Q 5525 1775 5487 1662 
Q 5450 1550 5400 1550 
Q 5325 1550 5200 1800 
Q 4975 2150 4325 2500 
z
M 3150 3900 
Q 2500 3300 2300 3150 
Q 2800 3150 3400 3175 
Q 3700 3500 3850 3825 
L 4250 3450 
Q 4050 3400 3450 2825 
Q 2850 2250 2475 1950 
Q 3150 1975 3850 2000 
Q 3750 2175 3550 2450 
L 3600 2500 
Q 4050 2250 4200 2100 
Q 4350 1950 4350 1850 
Q 4350 1775 4250 1625 
Q 4150 1475 4100 1475 
Q 4075 1475 4050 1550 
Q 4000 1700 3900 1900 
Q 3650 1875 3075 1800 
L 3500 1550 
L 3325 1425 
L 3325 975 
L 5325 975 
L 5650 1300 
L 6100 825 
L 3325 825 
Q 3325 -275 3350 -525 
L 2975 -650 
Q 3000 0 3000 825 
L 1125 825 
Q 800 825 525 750 
L 300 975 
L 3000 975 
L 3000 1775 
Q 2450 1700 2200 1525 
L 1950 1950 
Q 2275 1950 2675 2350 
Q 3075 2750 3325 3050 
Q 2400 2950 2150 2775 
L 1950 3175 
Q 2150 3150 2475 3575 
Q 2800 4000 2900 4225 
L 1450 4225 
Q 1125 4225 850 4150 
L 625 4375 
L 3100 4375 
Q 3050 4800 2675 5200 
L 2725 5250 
Q 3225 5050 3337 4912 
Q 3450 4775 3450 4700 
Q 3450 4550 3250 4375 
L 5025 4375 
L 5350 4675 
L 5775 4225 
L 3050 4225 
L 3375 3950 
L 3150 3900 
z
" transform="scale(0.015625)"/>
      </defs>
      <use xlink:href="#SimSun-60c5"/>
      <use xlink:href="#SimSun-611f" x="100"/>
      <use xlink:href="#SimSun-5206" x="200"/>
      <use xlink:href="#SimSun-7c7b" x="300"/>
      <use xlink:href="#SimSun-51c6" x="400"/>
      <use xlink:href="#SimSun-786e" x="500"/>
      <use xlink:href="#SimSun-7387" x="600"/>
     </g>
    </g>
    <g id="line2d_19">
     <path d="M 589.3 200.102187 
L 599.3 200.102187 
L 609.3 200.102187 
" style="fill: none; stroke: #ffd06e; stroke-width: 1.5; stroke-linecap: square"/>
    </g>
    <g id="text_16">
     <!-- 行动分类准确率 -->
     <g transform="translate(617.3 203.602187) scale(0.1 -0.1)">
      <defs>
       <path id="SimSun-884c" d="M 2825 4550 
L 4950 4550 
L 5300 4875 
L 5725 4400 
L 3650 4400 
Q 3325 4400 3050 4325 
L 2825 4550 
z
M 3050 100 
Q 3725 50 3950 50 
Q 4175 50 4175 350 
L 4175 2900 
L 3225 2900 
Q 2900 2900 2625 2825 
L 2400 3050 
L 5275 3050 
L 5650 3400 
L 6075 2900 
L 4525 2900 
L 4525 225 
Q 4550 -450 3900 -575 
Q 3900 -225 3050 -25 
L 3050 100 
z
M 1825 5175 
L 2275 4825 
Q 2100 4775 1675 4300 
Q 1250 3800 600 3325 
L 550 3400 
Q 975 3800 1337 4312 
Q 1700 4825 1825 5175 
z
M 1875 2325 
L 1875 -400 
L 1500 -625 
Q 1525 -75 1525 2425 
Q 950 1825 400 1450 
L 350 1525 
Q 875 2050 1362 2700 
Q 1850 3350 2100 3950 
L 2525 3575 
L 2300 3450 
Q 1975 2975 1750 2700 
L 2025 2475 
L 1875 2325 
z
" transform="scale(0.015625)"/>
       <path id="SimSun-52a8" d="M 5950 3500 
L 5750 3325 
Q 5725 675 5587 137 
Q 5450 -400 4850 -575 
Q 4825 -300 4075 25 
L 4100 150 
Q 4625 25 4925 25 
Q 5075 25 5162 87 
Q 5250 150 5312 737 
Q 5375 1325 5425 3425 
L 4375 3425 
Q 4350 2475 4162 1725 
Q 3975 975 3487 400 
Q 3000 -175 2200 -625 
L 2125 -550 
Q 2925 0 3312 562 
Q 3700 1125 3862 1825 
Q 4025 2525 4050 3425 
L 3600 3425 
L 3300 3375 
L 3100 3575 
L 4050 3575 
Q 4050 4625 4025 5175 
L 4550 4925 
L 4375 4750 
L 4375 3575 
L 5375 3575 
L 5575 3800 
L 5950 3500 
z
M 475 4325 
L 2275 4325 
L 2575 4625 
L 3025 4175 
L 1200 4175 
Q 925 4175 700 4100 
L 475 4325 
z
M 275 3050 
L 2625 3050 
L 2925 3350 
L 3375 2900 
L 1700 2900 
L 2100 2600 
Q 1850 2500 1450 1875 
Q 1025 1250 675 875 
L 2650 1100 
Q 2400 1600 2125 2025 
L 2200 2075 
Q 3075 1275 3125 987 
Q 3175 700 3062 587 
Q 2950 475 2925 475 
Q 2850 475 2825 600 
Q 2775 775 2700 975 
Q 875 650 600 350 
L 325 850 
Q 600 925 1025 1687 
Q 1450 2450 1550 2900 
L 750 2900 
L 475 2850 
L 275 3050 
z
" transform="scale(0.015625)"/>
      </defs>
      <use xlink:href="#SimSun-884c"/>
      <use xlink:href="#SimSun-52a8" x="100"/>
      <use xlink:href="#SimSun-5206" x="200"/>
      <use xlink:href="#SimSun-7c7b" x="300"/>
      <use xlink:href="#SimSun-51c6" x="400"/>
      <use xlink:href="#SimSun-786e" x="500"/>
      <use xlink:href="#SimSun-7387" x="600"/>
     </g>
    </g>
    <g id="line2d_20">
     <path d="M 589.3 214.320937 
L 599.3 214.320937 
L 609.3 214.320937 
" style="fill: none; stroke: #386795; stroke-width: 1.5; stroke-linecap: square"/>
    </g>
    <g id="text_17">
     <!-- 总分类准确率 -->
     <g transform="translate(617.3 217.820937) scale(0.1 -0.1)">
      <defs>
       <path id="SimSun-603b" d="M 1875 1500 
L 2450 1200 
L 2250 1050 
L 2250 275 
Q 2250 0 2500 -25 
L 4050 -25 
Q 4275 0 4337 250 
Q 4400 500 4425 1050 
L 4525 1050 
Q 4550 550 4587 325 
Q 4625 100 4850 50 
Q 4675 -325 4275 -325 
L 2400 -325 
Q 1850 -325 1900 175 
Q 1900 1200 1875 1500 
z
M 2625 1775 
L 2675 1850 
Q 3275 1550 3450 1400 
Q 3625 1250 3625 1100 
Q 3625 975 3550 837 
Q 3475 700 3425 700 
Q 3350 700 3250 925 
Q 3100 1275 2625 1775 
z
M 4650 1300 
L 4700 1375 
Q 5175 1175 5462 1000 
Q 5750 825 5800 637 
Q 5850 450 5762 300 
Q 5675 150 5600 150 
Q 5500 150 5400 400 
Q 5225 775 4650 1300 
z
M 1150 1300 
L 1250 1300 
Q 1200 525 1087 300 
Q 975 75 787 37 
Q 600 0 512 62 
Q 425 125 425 175 
Q 425 275 650 475 
Q 950 725 1150 1300 
z
M 2000 5100 
Q 2400 4850 2600 4637 
Q 2800 4425 2750 4225 
Q 2700 4025 2600 3950 
Q 2500 3875 2475 3875 
Q 2400 3875 2350 4150 
Q 2275 4500 1925 5050 
L 2000 5100 
z
M 1475 1625 
Q 1500 2225 1500 2800 
Q 1500 3375 1475 3900 
L 1850 3700 
L 3400 3700 
Q 3850 4525 4050 5225 
L 4575 4850 
L 4325 4775 
Q 3900 4175 3550 3700 
L 4550 3700 
L 4725 3950 
L 5125 3650 
L 4925 3475 
Q 4925 2225 4950 1825 
L 4575 1675 
L 4575 1950 
L 1850 1950 
L 1850 1750 
L 1475 1625 
z
M 1850 3550 
L 1850 2100 
L 4575 2100 
L 4575 3550 
L 1850 3550 
z
" transform="scale(0.015625)"/>
      </defs>
      <use xlink:href="#SimSun-603b"/>
      <use xlink:href="#SimSun-5206" x="100"/>
      <use xlink:href="#SimSun-7c7b" x="200"/>
      <use xlink:href="#SimSun-51c6" x="300"/>
      <use xlink:href="#SimSun-786e" x="400"/>
      <use xlink:href="#SimSun-7387" x="500"/>
     </g>
    </g>
   </g>
  </g>
 </g>
 <defs>
  <clipPath id="p0f3a2d7074">
   <rect x="26.7" y="7.2" width="669.6" height="221.76"/>
  </clipPath>
 </defs>
</svg>
