<?xml version="1.0" encoding="utf-8" standalone="no"?>
<!DOCTYPE svg PUBLIC "-//W3C//DTD SVG 1.1//EN"
  "http://www.w3.org/Graphics/SVG/1.1/DTD/svg11.dtd">
<svg xmlns:xlink="http://www.w3.org/1999/xlink" width="703.5pt" height="252.242813pt" viewBox="0 0 703.5 252.242813" xmlns="http://www.w3.org/2000/svg" version="1.1">
 <metadata>
  <rdf:RDF xmlns:dc="http://purl.org/dc/elements/1.1/" xmlns:cc="http://creativecommons.org/ns#" xmlns:rdf="http://www.w3.org/1999/02/22-rdf-syntax-ns#">
   <cc:Work>
    <dc:type rdf:resource="http://purl.org/dc/dcmitype/StillImage"/>
    <dc:date>2024-01-10T15:36:23.639099</dc:date>
    <dc:format>image/svg+xml</dc:format>
    <dc:creator>
     <cc:Agent>
      <dc:title>Matplotlib v3.8.2, https://matplotlib.org/</dc:title>
     </cc:Agent>
    </dc:creator>
   </cc:Work>
  </rdf:RDF>
 </metadata>
 <defs>
  <style type="text/css">*{stroke-linejoin: round; stroke-linecap: butt}</style>
 </defs>
 <g id="figure_1">
  <g id="patch_1">
   <path d="M 0 252.242813 
L 703.5 252.242813 
L 703.5 0 
L 0 0 
z
" style="fill: #ffffff"/>
  </g>
  <g id="axes_1">
   <g id="patch_2">
    <path d="M 26.7 228.96 
L 696.3 228.96 
L 696.3 7.2 
L 26.7 7.2 
z
" style="fill: #ffffff"/>
   </g>
   <g id="PathCollection_1">
    <defs>
     <path id="m0875a070f3" d="M 0 3 
C 0.795609 3 1.55874 2.683901 2.12132 2.12132 
C 2.683901 1.55874 3 0.795609 3 0 
C 3 -0.795609 2.683901 -1.55874 2.12132 -2.12132 
C 1.55874 -2.683901 0.795609 -3 0 -3 
C -0.795609 -3 -1.55874 -2.683901 -2.12132 -2.12132 
C -2.683901 -1.55874 -3 -0.795609 -3 0 
C -3 0.795609 -2.683901 1.55874 -2.12132 2.12132 
C -1.55874 2.683901 -0.795609 3 0 3 
z
" style="stroke: #ef8a46; stroke-opacity: 0.5"/>
    </defs>
    <g clip-path="url(#p863c732fef)">
     <use xlink:href="#m0875a070f3" x="115.667832" y="22.975455" style="fill: #ef8a46; fill-opacity: 0.5; stroke: #ef8a46; stroke-opacity: 0.5"/>
    </g>
   </g>
   <g id="PathCollection_2">
    <defs>
     <path id="mf120f9238a" d="M 0 3 
C 0.795609 3 1.55874 2.683901 2.12132 2.12132 
C 2.683901 1.55874 3 0.795609 3 0 
C 3 -0.795609 2.683901 -1.55874 2.12132 -2.12132 
C 1.55874 -2.683901 0.795609 -3 0 -3 
C -0.795609 -3 -1.55874 -2.683901 -2.12132 -2.12132 
C -2.683901 -1.55874 -3 -0.795609 -3 0 
C -3 0.795609 -2.683901 1.55874 -2.12132 2.12132 
C -1.55874 2.683901 -0.795609 3 0 3 
z
" style="stroke: #f8aa59; stroke-opacity: 0.5"/>
    </defs>
    <g clip-path="url(#p863c732fef)">
     <use xlink:href="#mf120f9238a" x="384.912587" y="17.28" style="fill: #f8aa59; fill-opacity: 0.5; stroke: #f8aa59; stroke-opacity: 0.5"/>
    </g>
   </g>
   <g id="matplotlib.axis_1">
    <g id="xtick_1">
     <g id="line2d_1">
      <defs>
       <path id="ma1bbd5abb1" d="M 0 0 
L 0 3.5 
" style="stroke: #000000; stroke-width: 0.8"/>
      </defs>
      <g>
       <use xlink:href="#ma1bbd5abb1" x="57.136364" y="228.96" style="stroke: #000000; stroke-width: 0.8"/>
      </g>
     </g>
     <g id="text_1">
      <!-- 0 -->
      <g transform="translate(54.636364 242.90375) scale(0.1 -0.1)">
       <defs>
        <path id="TimesNewRomanPSMT-30" d="M 231 2094 
Q 231 2819 450 3342 
Q 669 3866 1031 4122 
Q 1313 4325 1613 4325 
Q 2100 4325 2488 3828 
Q 2972 3213 2972 2159 
Q 2972 1422 2759 906 
Q 2547 391 2217 158 
Q 1888 -75 1581 -75 
Q 975 -75 572 641 
Q 231 1244 231 2094 
z
M 844 2016 
Q 844 1141 1059 588 
Q 1238 122 1591 122 
Q 1759 122 1940 273 
Q 2122 425 2216 781 
Q 2359 1319 2359 2297 
Q 2359 3022 2209 3506 
Q 2097 3866 1919 4016 
Q 1791 4119 1609 4119 
Q 1397 4119 1231 3928 
Q 1006 3669 925 3112 
Q 844 2556 844 2016 
z
" transform="scale(0.015625)"/>
       </defs>
       <use xlink:href="#TimesNewRomanPSMT-30"/>
      </g>
     </g>
    </g>
    <g id="xtick_2">
     <g id="line2d_2">
      <g>
       <use xlink:href="#ma1bbd5abb1" x="150.786713" y="228.96" style="stroke: #000000; stroke-width: 0.8"/>
      </g>
     </g>
     <g id="text_2">
      <!-- 200 -->
      <g transform="translate(143.286713 242.90375) scale(0.1 -0.1)">
       <defs>
        <path id="TimesNewRomanPSMT-32" d="M 2934 816 
L 2638 0 
L 138 0 
L 138 116 
Q 1241 1122 1691 1759 
Q 2141 2397 2141 2925 
Q 2141 3328 1894 3587 
Q 1647 3847 1303 3847 
Q 991 3847 742 3664 
Q 494 3481 375 3128 
L 259 3128 
Q 338 3706 661 4015 
Q 984 4325 1469 4325 
Q 1984 4325 2329 3994 
Q 2675 3663 2675 3213 
Q 2675 2891 2525 2569 
Q 2294 2063 1775 1497 
Q 997 647 803 472 
L 1909 472 
Q 2247 472 2383 497 
Q 2519 522 2628 598 
Q 2738 675 2819 816 
L 2934 816 
z
" transform="scale(0.015625)"/>
       </defs>
       <use xlink:href="#TimesNewRomanPSMT-32"/>
       <use xlink:href="#TimesNewRomanPSMT-30" x="50"/>
       <use xlink:href="#TimesNewRomanPSMT-30" x="100"/>
      </g>
     </g>
    </g>
    <g id="xtick_3">
     <g id="line2d_3">
      <g>
       <use xlink:href="#ma1bbd5abb1" x="244.437063" y="228.96" style="stroke: #000000; stroke-width: 0.8"/>
      </g>
     </g>
     <g id="text_3">
      <!-- 400 -->
      <g transform="translate(236.937063 242.90375) scale(0.1 -0.1)">
       <defs>
        <path id="TimesNewRomanPSMT-34" d="M 2978 1563 
L 2978 1119 
L 2409 1119 
L 2409 0 
L 1894 0 
L 1894 1119 
L 100 1119 
L 100 1519 
L 2066 4325 
L 2409 4325 
L 2409 1563 
L 2978 1563 
z
M 1894 1563 
L 1894 3666 
L 406 1563 
L 1894 1563 
z
" transform="scale(0.015625)"/>
       </defs>
       <use xlink:href="#TimesNewRomanPSMT-34"/>
       <use xlink:href="#TimesNewRomanPSMT-30" x="50"/>
       <use xlink:href="#TimesNewRomanPSMT-30" x="100"/>
      </g>
     </g>
    </g>
    <g id="xtick_4">
     <g id="line2d_4">
      <g>
       <use xlink:href="#ma1bbd5abb1" x="338.087413" y="228.96" style="stroke: #000000; stroke-width: 0.8"/>
      </g>
     </g>
     <g id="text_4">
      <!-- 600 -->
      <g transform="translate(330.587413 242.90375) scale(0.1 -0.1)">
       <defs>
        <path id="TimesNewRomanPSMT-36" d="M 2869 4325 
L 2869 4209 
Q 2456 4169 2195 4045 
Q 1934 3922 1679 3669 
Q 1425 3416 1258 3105 
Q 1091 2794 978 2366 
Q 1428 2675 1881 2675 
Q 2316 2675 2634 2325 
Q 2953 1975 2953 1425 
Q 2953 894 2631 456 
Q 2244 -75 1606 -75 
Q 1172 -75 869 213 
Q 275 772 275 1663 
Q 275 2231 503 2743 
Q 731 3256 1154 3653 
Q 1578 4050 1965 4187 
Q 2353 4325 2688 4325 
L 2869 4325 
z
M 925 2138 
Q 869 1716 869 1456 
Q 869 1156 980 804 
Q 1091 453 1309 247 
Q 1469 100 1697 100 
Q 1969 100 2183 356 
Q 2397 613 2397 1088 
Q 2397 1622 2184 2012 
Q 1972 2403 1581 2403 
Q 1463 2403 1327 2353 
Q 1191 2303 925 2138 
z
" transform="scale(0.015625)"/>
       </defs>
       <use xlink:href="#TimesNewRomanPSMT-36"/>
       <use xlink:href="#TimesNewRomanPSMT-30" x="50"/>
       <use xlink:href="#TimesNewRomanPSMT-30" x="100"/>
      </g>
     </g>
    </g>
    <g id="xtick_5">
     <g id="line2d_5">
      <g>
       <use xlink:href="#ma1bbd5abb1" x="431.737762" y="228.96" style="stroke: #000000; stroke-width: 0.8"/>
      </g>
     </g>
     <g id="text_5">
      <!-- 800 -->
      <g transform="translate(424.237762 242.90375) scale(0.1 -0.1)">
       <defs>
        <path id="TimesNewRomanPSMT-38" d="M 1228 2134 
Q 725 2547 579 2797 
Q 434 3047 434 3316 
Q 434 3728 753 4026 
Q 1072 4325 1600 4325 
Q 2113 4325 2425 4047 
Q 2738 3769 2738 3413 
Q 2738 3175 2569 2928 
Q 2400 2681 1866 2347 
Q 2416 1922 2594 1678 
Q 2831 1359 2831 1006 
Q 2831 559 2490 242 
Q 2150 -75 1597 -75 
Q 994 -75 656 303 
Q 388 606 388 966 
Q 388 1247 577 1523 
Q 766 1800 1228 2134 
z
M 1719 2469 
Q 2094 2806 2194 3001 
Q 2294 3197 2294 3444 
Q 2294 3772 2109 3958 
Q 1925 4144 1606 4144 
Q 1288 4144 1088 3959 
Q 888 3775 888 3528 
Q 888 3366 970 3203 
Q 1053 3041 1206 2894 
L 1719 2469 
z
M 1375 2016 
Q 1116 1797 991 1539 
Q 866 1281 866 981 
Q 866 578 1086 336 
Q 1306 94 1647 94 
Q 1984 94 2187 284 
Q 2391 475 2391 747 
Q 2391 972 2272 1150 
Q 2050 1481 1375 2016 
z
" transform="scale(0.015625)"/>
       </defs>
       <use xlink:href="#TimesNewRomanPSMT-38"/>
       <use xlink:href="#TimesNewRomanPSMT-30" x="50"/>
       <use xlink:href="#TimesNewRomanPSMT-30" x="100"/>
      </g>
     </g>
    </g>
    <g id="xtick_6">
     <g id="line2d_6">
      <g>
       <use xlink:href="#ma1bbd5abb1" x="525.388112" y="228.96" style="stroke: #000000; stroke-width: 0.8"/>
      </g>
     </g>
     <g id="text_6">
      <!-- 1000 -->
      <g transform="translate(515.388112 242.90375) scale(0.1 -0.1)">
       <defs>
        <path id="TimesNewRomanPSMT-31" d="M 750 3822 
L 1781 4325 
L 1884 4325 
L 1884 747 
Q 1884 391 1914 303 
Q 1944 216 2037 169 
Q 2131 122 2419 116 
L 2419 0 
L 825 0 
L 825 116 
Q 1125 122 1212 167 
Q 1300 213 1334 289 
Q 1369 366 1369 747 
L 1369 3034 
Q 1369 3497 1338 3628 
Q 1316 3728 1258 3775 
Q 1200 3822 1119 3822 
Q 1003 3822 797 3725 
L 750 3822 
z
" transform="scale(0.015625)"/>
       </defs>
       <use xlink:href="#TimesNewRomanPSMT-31"/>
       <use xlink:href="#TimesNewRomanPSMT-30" x="50"/>
       <use xlink:href="#TimesNewRomanPSMT-30" x="100"/>
       <use xlink:href="#TimesNewRomanPSMT-30" x="150"/>
      </g>
     </g>
    </g>
    <g id="xtick_7">
     <g id="line2d_7">
      <g>
       <use xlink:href="#ma1bbd5abb1" x="619.038462" y="228.96" style="stroke: #000000; stroke-width: 0.8"/>
      </g>
     </g>
     <g id="text_7">
      <!-- 1200 -->
      <g transform="translate(609.038462 242.90375) scale(0.1 -0.1)">
       <use xlink:href="#TimesNewRomanPSMT-31"/>
       <use xlink:href="#TimesNewRomanPSMT-32" x="50"/>
       <use xlink:href="#TimesNewRomanPSMT-30" x="100"/>
       <use xlink:href="#TimesNewRomanPSMT-30" x="150"/>
      </g>
     </g>
    </g>
   </g>
   <g id="matplotlib.axis_2">
    <g id="ytick_1">
     <g id="line2d_8">
      <defs>
       <path id="m7c687a3f2d" d="M 0 0 
L -3.5 0 
" style="stroke: #000000; stroke-width: 0.8"/>
      </defs>
      <g>
       <use xlink:href="#m7c687a3f2d" x="26.7" y="198.070909" style="stroke: #000000; stroke-width: 0.8"/>
      </g>
     </g>
     <g id="text_8">
      <!-- 0.1 -->
      <g transform="translate(7.2 201.542784) scale(0.1 -0.1)">
       <defs>
        <path id="TimesNewRomanPSMT-2e" d="M 800 606 
Q 947 606 1047 504 
Q 1147 403 1147 259 
Q 1147 116 1045 14 
Q 944 -88 800 -88 
Q 656 -88 554 14 
Q 453 116 453 259 
Q 453 406 554 506 
Q 656 606 800 606 
z
" transform="scale(0.015625)"/>
       </defs>
       <use xlink:href="#TimesNewRomanPSMT-30"/>
       <use xlink:href="#TimesNewRomanPSMT-2e" x="50"/>
       <use xlink:href="#TimesNewRomanPSMT-31" x="75"/>
      </g>
     </g>
    </g>
    <g id="ytick_2">
     <g id="line2d_9">
      <g>
       <use xlink:href="#m7c687a3f2d" x="26.7" y="166.252727" style="stroke: #000000; stroke-width: 0.8"/>
      </g>
     </g>
     <g id="text_9">
      <!-- 0.2 -->
      <g transform="translate(7.2 169.724602) scale(0.1 -0.1)">
       <use xlink:href="#TimesNewRomanPSMT-30"/>
       <use xlink:href="#TimesNewRomanPSMT-2e" x="50"/>
       <use xlink:href="#TimesNewRomanPSMT-32" x="75"/>
      </g>
     </g>
    </g>
    <g id="ytick_3">
     <g id="line2d_10">
      <g>
       <use xlink:href="#m7c687a3f2d" x="26.7" y="134.434545" style="stroke: #000000; stroke-width: 0.8"/>
      </g>
     </g>
     <g id="text_10">
      <!-- 0.3 -->
      <g transform="translate(7.2 137.90642) scale(0.1 -0.1)">
       <defs>
        <path id="TimesNewRomanPSMT-33" d="M 325 3431 
Q 506 3859 782 4092 
Q 1059 4325 1472 4325 
Q 1981 4325 2253 3994 
Q 2459 3747 2459 3466 
Q 2459 3003 1878 2509 
Q 2269 2356 2469 2072 
Q 2669 1788 2669 1403 
Q 2669 853 2319 450 
Q 1863 -75 997 -75 
Q 569 -75 414 31 
Q 259 138 259 259 
Q 259 350 332 419 
Q 406 488 509 488 
Q 588 488 669 463 
Q 722 447 909 348 
Q 1097 250 1169 231 
Q 1284 197 1416 197 
Q 1734 197 1970 444 
Q 2206 691 2206 1028 
Q 2206 1275 2097 1509 
Q 2016 1684 1919 1775 
Q 1784 1900 1550 2001 
Q 1316 2103 1072 2103 
L 972 2103 
L 972 2197 
Q 1219 2228 1467 2375 
Q 1716 2522 1828 2728 
Q 1941 2934 1941 3181 
Q 1941 3503 1739 3701 
Q 1538 3900 1238 3900 
Q 753 3900 428 3381 
L 325 3431 
z
" transform="scale(0.015625)"/>
       </defs>
       <use xlink:href="#TimesNewRomanPSMT-30"/>
       <use xlink:href="#TimesNewRomanPSMT-2e" x="50"/>
       <use xlink:href="#TimesNewRomanPSMT-33" x="75"/>
      </g>
     </g>
    </g>
    <g id="ytick_4">
     <g id="line2d_11">
      <g>
       <use xlink:href="#m7c687a3f2d" x="26.7" y="102.616364" style="stroke: #000000; stroke-width: 0.8"/>
      </g>
     </g>
     <g id="text_11">
      <!-- 0.4 -->
      <g transform="translate(7.2 106.088239) scale(0.1 -0.1)">
       <use xlink:href="#TimesNewRomanPSMT-30"/>
       <use xlink:href="#TimesNewRomanPSMT-2e" x="50"/>
       <use xlink:href="#TimesNewRomanPSMT-34" x="75"/>
      </g>
     </g>
    </g>
    <g id="ytick_5">
     <g id="line2d_12">
      <g>
       <use xlink:href="#m7c687a3f2d" x="26.7" y="70.798182" style="stroke: #000000; stroke-width: 0.8"/>
      </g>
     </g>
     <g id="text_12">
      <!-- 0.5 -->
      <g transform="translate(7.2 74.270057) scale(0.1 -0.1)">
       <defs>
        <path id="TimesNewRomanPSMT-35" d="M 2778 4238 
L 2534 3706 
L 1259 3706 
L 981 3138 
Q 1809 3016 2294 2522 
Q 2709 2097 2709 1522 
Q 2709 1188 2573 903 
Q 2438 619 2231 419 
Q 2025 219 1772 97 
Q 1413 -75 1034 -75 
Q 653 -75 479 54 
Q 306 184 306 341 
Q 306 428 378 495 
Q 450 563 559 563 
Q 641 563 702 538 
Q 763 513 909 409 
Q 1144 247 1384 247 
Q 1750 247 2026 523 
Q 2303 800 2303 1197 
Q 2303 1581 2056 1914 
Q 1809 2247 1375 2428 
Q 1034 2569 447 2591 
L 1259 4238 
L 2778 4238 
z
" transform="scale(0.015625)"/>
       </defs>
       <use xlink:href="#TimesNewRomanPSMT-30"/>
       <use xlink:href="#TimesNewRomanPSMT-2e" x="50"/>
       <use xlink:href="#TimesNewRomanPSMT-35" x="75"/>
      </g>
     </g>
    </g>
    <g id="ytick_6">
     <g id="line2d_13">
      <g>
       <use xlink:href="#m7c687a3f2d" x="26.7" y="38.98" style="stroke: #000000; stroke-width: 0.8"/>
      </g>
     </g>
     <g id="text_13">
      <!-- 0.6 -->
      <g transform="translate(7.2 42.451875) scale(0.1 -0.1)">
       <use xlink:href="#TimesNewRomanPSMT-30"/>
       <use xlink:href="#TimesNewRomanPSMT-2e" x="50"/>
       <use xlink:href="#TimesNewRomanPSMT-36" x="75"/>
      </g>
     </g>
    </g>
   </g>
   <g id="line2d_14">
    <path d="M 57.136364 218.498182 
L 57.604615 218.148182 
L 58.072867 217.798182 
L 58.541119 217.798182 
L 59.009371 217.448182 
L 59.477622 216.016364 
L 59.945874 217.098182 
L 60.414126 218.498182 
L 60.882378 218.498182 
L 61.350629 218.88 
L 61.818881 216.748182 
L 62.287133 211.052727 
L 62.755385 205.357273 
L 63.223636 197.18 
L 63.691888 191.834545 
L 64.16014 185.820909 
L 64.628392 175.511818 
L 65.096643 170.166364 
L 65.564895 164.820909 
L 66.033147 158.775455 
L 66.501399 150.248182 
L 66.96965 146.684545 
L 67.437902 141.720909 
L 67.906154 132.111818 
L 68.374406 129.28 
L 68.842657 119.670909 
L 69.310909 116.489091 
L 69.779161 113.625455 
L 70.247413 111.143636 
L 70.715664 106.53 
L 71.183916 105.448182 
L 71.652168 101.184545 
L 72.12042 103.316364 
L 72.588671 100.134545 
L 73.056923 95.520909 
L 73.525175 98.352727 
L 73.993427 91.225455 
L 74.461678 93.357273 
L 74.92993 88.393636 
L 75.398182 84.48 
L 75.866434 90.175455 
L 76.334685 79.516364 
L 76.802937 86.961818 
L 77.271189 79.866364 
L 77.739441 76.652727 
L 78.207692 81.648182 
L 78.675944 71.689091 
L 79.144196 72.739091 
L 79.612448 78.434545 
L 80.080699 71.689091 
L 80.548951 73.120909 
L 82.89021 67.075455 
L 85.231469 65.643636 
L 87.572727 64.561818 
L 89.913986 59.248182 
L 92.255245 52.852727 
L 94.596503 43.243636 
L 96.937762 41.111818 
L 99.279021 36.498182 
L 101.62028 34.016364 
L 103.961538 29.720909 
L 106.302797 31.152727 
L 108.644056 29.370909 
L 110.985315 25.839091 
L 113.326573 24.757273 
L 115.667832 22.975455 
L 118.009091 22.275455 
L 120.35035 20.843636 
L 122.691608 21.925455 
L 125.032867 19.411818 
L 127.374126 18.011818 
L 129.715385 19.411818 
L 132.056643 19.061818 
L 134.397902 20.843636 
L 136.739161 18.711818 
L 139.08042 20.493636 
L 141.421678 20.143636 
L 143.762937 18.711818 
L 146.104196 18.711818 
L 148.445455 19.793636 
L 150.786713 18.711818 
L 197.611888 19.411818 
L 244.437063 21.193636 
L 291.262238 19.411818 
L 338.087413 19.411818 
L 384.912587 17.28 
L 431.737762 19.793636 
L 478.562937 19.793636 
L 525.388112 18.011818 
L 572.213287 19.793636 
L 619.038462 19.411818 
L 665.863636 20.143636 
" clip-path="url(#p863c732fef)" style="fill: none; stroke: #e86254; stroke-width: 1.5; stroke-linecap: square"/>
   </g>
   <g id="LineCollection_1">
    <path d="M 57.136364 29.116364 
L 665.863636 29.116364 
" clip-path="url(#p863c732fef)" style="fill: none; stroke-dasharray: 1.5,2.475; stroke-dashoffset: 0; stroke: #e86254; stroke-opacity: 0.5; stroke-width: 1.5"/>
   </g>
   <g id="line2d_15">
    <path d="M 57.136364 121.070909 
L 57.604615 119.861818 
L 58.072867 118.939091 
L 58.541119 117.952727 
L 59.009371 117.348182 
L 59.477622 117.984545 
L 59.945874 116.711818 
L 60.414126 115.184545 
L 60.882378 115.693636 
L 61.350629 114.866364 
L 61.818881 114.802727 
L 62.287133 115.057273 
L 62.755385 114.675455 
L 63.223636 113.975455 
L 63.691888 114.198182 
L 64.16014 113.752727 
L 64.628392 112.702727 
L 65.096643 113.402727 
L 65.564895 112.13 
L 66.033147 112.320909 
L 66.501399 111.302727 
L 66.96965 111.461818 
L 67.437902 111.43 
L 67.906154 111.78 
L 68.374406 111.175455 
L 68.842657 110.793636 
L 69.310909 111.684545 
L 69.779161 109.839091 
L 70.247413 111.207273 
L 70.715664 109.234545 
L 71.183916 110.793636 
L 71.652168 110.602727 
L 72.12042 109.68 
L 72.588671 110.157273 
L 73.056923 109.011818 
L 73.525175 109.775455 
L 73.993427 109.107273 
L 74.461678 108.852727 
L 74.92993 109.934545 
L 75.398182 109.266364 
L 75.866434 109.552727 
L 76.334685 108.566364 
L 76.802937 109.33 
L 77.271189 108.725455 
L 77.739441 108.566364 
L 78.207692 108.120909 
L 78.675944 108.661818 
L 79.144196 108.025455 
L 79.612448 108.184545 
L 80.080699 108.502727 
L 80.548951 108.248182 
L 82.89021 107.961818 
L 85.231469 107.198182 
L 87.572727 106.53 
L 89.913986 106.339091 
L 92.255245 105.766364 
L 94.596503 104.78 
L 96.937762 105.002727 
L 99.279021 104.461818 
L 101.62028 104.43 
L 103.961538 104.302727 
L 106.302797 103.061818 
L 108.644056 102.998182 
L 110.985315 102.170909 
L 113.326573 102.011818 
L 115.667832 102.33 
L 118.009091 102.298182 
L 120.35035 102.33 
L 122.691608 101.661818 
L 125.032867 101.343636 
L 127.374126 102.075455 
L 129.715385 101.948182 
L 132.056643 102.075455 
L 134.397902 101.598182 
L 136.739161 101.407273 
L 139.08042 101.089091 
L 141.421678 101.184545 
L 143.762937 100.707273 
L 146.104196 100.802727 
L 148.445455 100.770909 
L 150.786713 100.770909 
L 197.611888 100.23 
L 244.437063 100.707273 
L 291.262238 100.770909 
L 338.087413 100.420909 
L 384.912587 100.802727 
L 431.737762 100.58 
L 478.562937 100.548182 
L 525.388112 100.93 
L 572.213287 100.166364 
L 619.038462 100.166364 
L 665.863636 100.643636 
" clip-path="url(#p863c732fef)" style="fill: none; stroke: #ffd06e; stroke-width: 1.5; stroke-linecap: square"/>
   </g>
   <g id="LineCollection_2">
    <path d="M 57.136364 82.570909 
L 665.863636 82.570909 
" clip-path="url(#p863c732fef)" style="fill: none; stroke-dasharray: 1.5,2.475; stroke-dashoffset: 0; stroke: #ffd06e; stroke-opacity: 0.5; stroke-width: 1.5"/>
   </g>
   <g id="line2d_16">
    <path d="M 57.136364 169.784545 
L 57.604615 169.020909 
L 58.072867 168.384545 
L 58.541119 167.875455 
L 59.009371 167.398182 
L 59.477622 167.016364 
L 59.945874 166.889091 
L 60.414126 166.857273 
L 60.882378 167.111818 
L 61.350629 166.857273 
L 61.818881 165.775455 
L 62.287133 163.039091 
L 62.755385 160.016364 
L 63.223636 155.593636 
L 63.691888 153.016364 
L 64.16014 149.770909 
L 64.628392 144.107273 
L 65.096643 141.784545 
L 65.564895 138.475455 
L 66.033147 135.548182 
L 66.501399 130.775455 
L 66.96965 129.089091 
L 67.437902 126.575455 
L 67.906154 121.961818 
L 68.374406 120.211818 
L 68.842657 115.248182 
L 69.310909 114.070909 
L 69.779161 111.748182 
L 70.247413 111.175455 
L 70.715664 107.866364 
L 71.183916 108.120909 
L 71.652168 105.893636 
L 72.12042 106.498182 
L 72.588671 105.13 
L 73.056923 102.266364 
L 73.525175 104.048182 
L 73.993427 100.166364 
L 74.461678 101.120909 
L 74.92993 99.18 
L 75.398182 96.889091 
L 75.866434 99.88 
L 76.334685 94.025455 
L 76.802937 98.13 
L 77.271189 94.311818 
L 77.739441 92.625455 
L 78.207692 94.884545 
L 78.675944 90.175455 
L 79.144196 90.398182 
L 79.612448 93.325455 
L 80.080699 90.08 
L 80.548951 90.684545 
L 82.89021 87.502727 
L 85.231469 86.420909 
L 87.572727 85.561818 
L 89.913986 82.793636 
L 92.255245 79.293636 
L 94.596503 74.011818 
L 96.937762 73.057273 
L 99.279021 70.48 
L 101.62028 69.207273 
L 103.961538 67.011818 
L 106.302797 67.107273 
L 108.644056 66.184545 
L 110.985315 63.989091 
L 113.326573 63.384545 
L 115.667832 62.652727 
L 118.009091 62.270909 
L 120.35035 61.602727 
L 122.691608 61.793636 
L 125.032867 60.393636 
L 127.374126 60.043636 
L 129.715385 60.68 
L 132.056643 60.584545 
L 134.397902 61.220909 
L 136.739161 60.075455 
L 139.08042 60.775455 
L 141.421678 60.648182 
L 143.762937 59.725455 
L 146.104196 59.757273 
L 148.445455 60.266364 
L 150.786713 59.725455 
L 197.611888 59.820909 
L 244.437063 60.966364 
L 291.262238 60.075455 
L 338.087413 59.916364 
L 384.912587 59.057273 
L 431.737762 60.170909 
L 478.562937 60.170909 
L 525.388112 59.470909 
L 572.213287 59.98 
L 619.038462 59.789091 
L 665.863636 60.393636 
" clip-path="url(#p863c732fef)" style="fill: none; stroke: #386795; stroke-width: 1.5; stroke-linecap: square"/>
   </g>
   <g id="LineCollection_3">
    <path d="M 57.136364 55.843636 
L 665.863636 55.843636 
" clip-path="url(#p863c732fef)" style="fill: none; stroke-dasharray: 1.5,2.475; stroke-dashoffset: 0; stroke: #386795; stroke-opacity: 0.5; stroke-width: 1.5"/>
   </g>
   <g id="patch_3">
    <path d="M 26.7 228.96 
L 26.7 7.2 
" style="fill: none; stroke: #000000; stroke-width: 0.8; stroke-linejoin: miter; stroke-linecap: square"/>
   </g>
   <g id="patch_4">
    <path d="M 696.3 228.96 
L 696.3 7.2 
" style="fill: none; stroke: #000000; stroke-width: 0.8; stroke-linejoin: miter; stroke-linecap: square"/>
   </g>
   <g id="patch_5">
    <path d="M 26.7 228.96 
L 696.3 228.96 
" style="fill: none; stroke: #000000; stroke-width: 0.8; stroke-linejoin: miter; stroke-linecap: square"/>
   </g>
   <g id="patch_6">
    <path d="M 26.7 7.2 
L 696.3 7.2 
" style="fill: none; stroke: #000000; stroke-width: 0.8; stroke-linejoin: miter; stroke-linecap: square"/>
   </g>
   <g id="legend_1">
    <g id="patch_7">
     <path d="M 587.3 223.96 
L 689.3 223.96 
Q 691.3 223.96 691.3 221.96 
L 691.3 178.6725 
Q 691.3 176.6725 689.3 176.6725 
L 587.3 176.6725 
Q 585.3 176.6725 585.3 178.6725 
L 585.3 221.96 
Q 585.3 223.96 587.3 223.96 
z
" style="fill: #ffffff; opacity: 0.8; stroke: #cccccc; stroke-linejoin: miter"/>
    </g>
    <g id="line2d_17">
     <path d="M 589.3 185.435 
L 599.3 185.435 
L 609.3 185.435 
" style="fill: none; stroke: #e86254; stroke-width: 1.5; stroke-linecap: square"/>
    </g>
    <g id="text_14">
     <!-- 情感分类准确率 -->
     <g transform="translate(617.3 188.935) scale(0.1 -0.1)">
      <defs>
       <path id="SourceHanSerifCN-Heavy-60c5" d="M 572 4319 
L 669 4319 
Q 894 3763 883 3347 
Q 872 2931 731 2719 
Q 631 2572 448 2550 
Q 266 2528 169 2669 
Q 91 2794 133 2926 
Q 175 3059 291 3163 
Q 372 3259 444 3448 
Q 516 3638 555 3867 
Q 594 4097 572 4319 
z
M 4859 2394 
L 3575 2394 
L 3575 1869 
L 4859 1869 
L 4859 2394 
z
M 3709 5422 
L 4809 5331 
Q 4803 5269 4761 5226 
Q 4719 5184 4603 5166 
L 4603 4672 
L 5053 4672 
L 5475 5222 
Q 5475 5222 5553 5161 
Q 5631 5100 5751 5004 
Q 5872 4909 6003 4800 
Q 6134 4691 6244 4594 
Q 6216 4494 6063 4494 
L 4603 4494 
L 4603 3956 
L 4956 3956 
L 5347 4469 
Q 5347 4469 5470 4372 
Q 5594 4275 5761 4137 
Q 5928 4000 6063 3878 
Q 6034 3775 5884 3775 
L 4603 3775 
L 4603 3181 
L 5128 3181 
L 5550 3731 
Q 5550 3731 5628 3670 
Q 5706 3609 5825 3514 
Q 5944 3419 6075 3309 
Q 6206 3200 6313 3103 
Q 6284 3003 6134 3003 
L 5206 3003 
L 6019 2388 
Q 5984 2350 5923 2311 
Q 5863 2272 5763 2247 
L 5763 378 
Q 5763 91 5692 -115 
Q 5622 -322 5397 -444 
Q 5172 -566 4706 -609 
Q 4697 -388 4672 -230 
Q 4647 -72 4584 25 
Q 4519 125 4420 198 
Q 4322 272 4106 313 
L 4106 391 
Q 4106 391 4186 386 
Q 4266 381 4380 376 
Q 4494 372 4597 369 
Q 4700 366 4744 366 
Q 4859 366 4859 481 
L 4859 947 
L 3575 947 
L 3575 -300 
Q 3575 -347 3464 -415 
Q 3353 -484 3179 -539 
Q 3006 -594 2819 -594 
L 2684 -594 
L 2684 2938 
L 3613 2572 
L 4797 2572 
L 5175 3003 
L 2231 3003 
L 2178 3181 
L 3709 3181 
L 3709 3775 
L 2659 3775 
L 2606 3956 
L 3709 3956 
L 3709 4494 
L 2397 4494 
L 2344 4672 
L 3709 4672 
L 3709 5422 
z
M 3575 1691 
L 3575 1125 
L 4859 1125 
L 4859 1691 
L 3575 1691 
z
M 1859 4403 
Q 2244 4247 2414 4053 
Q 2584 3859 2600 3682 
Q 2616 3506 2527 3389 
Q 2438 3272 2292 3259 
Q 2147 3247 2006 3391 
Q 2016 3609 1964 3839 
Q 1913 4069 1841 4256 
L 1841 -372 
Q 1841 -406 1737 -462 
Q 1634 -519 1476 -564 
Q 1319 -609 1153 -609 
L 981 -609 
L 981 5466 
L 2075 5356 
Q 2066 5291 2017 5244 
Q 1969 5197 1841 5178 
L 1841 4397 
L 1859 4403 
z
" transform="scale(0.015625)"/>
       <path id="SourceHanSerifCN-Heavy-611f" d="M 2822 1466 
Q 2803 1331 2616 1306 
L 2616 441 
Q 2616 378 2655 354 
Q 2694 331 2847 331 
L 3569 331 
Q 3719 331 3869 332 
Q 4019 334 4094 341 
Q 4234 347 4300 428 
Q 4422 578 4672 1131 
L 4728 1131 
L 4747 409 
Q 4944 338 5009 258 
Q 5075 178 5075 63 
Q 5075 -125 4933 -225 
Q 4791 -325 4437 -361 
Q 4084 -397 3456 -397 
L 2681 -397 
Q 2281 -397 2065 -339 
Q 1850 -281 1769 -131 
Q 1688 19 1688 300 
L 1688 1550 
L 2822 1466 
z
M 1131 1434 
Q 1306 1016 1300 687 
Q 1294 359 1170 137 
Q 1047 -84 863 -178 
Q 681 -284 479 -228 
Q 278 -172 209 25 
Q 153 219 247 359 
Q 341 500 506 575 
Q 634 638 761 764 
Q 888 891 970 1062 
Q 1053 1234 1050 1434 
L 1131 1434 
z
M 4631 1422 
Q 5216 1341 5566 1158 
Q 5916 975 6073 750 
Q 6231 525 6236 314 
Q 6241 103 6130 -44 
Q 6019 -191 5834 -219 
Q 5650 -247 5431 -97 
Q 5356 303 5117 706 
Q 4878 1109 4581 1381 
L 4631 1422 
z
M 2822 1747 
Q 3306 1703 3587 1568 
Q 3869 1434 3987 1259 
Q 4106 1084 4095 915 
Q 4084 747 3978 630 
Q 3872 513 3705 494 
Q 3538 475 3347 603 
Q 3297 900 3130 1201 
Q 2963 1503 2769 1709 
L 2822 1747 
z
M 3047 4306 
Q 3047 4306 3137 4237 
Q 3228 4169 3362 4062 
Q 3497 3956 3628 3847 
Q 3594 3991 3566 4139 
Q 3538 4288 3519 4434 
L 1559 4434 
L 1559 3794 
L 2644 3794 
L 3047 4306 
z
M 4519 5466 
Q 4894 5431 5091 5332 
Q 5288 5234 5345 5114 
Q 5403 4994 5356 4881 
Q 5309 4769 5192 4701 
Q 5075 4634 4926 4643 
Q 4778 4653 4631 4781 
Q 4638 4925 4602 5070 
Q 4566 5216 4519 5331 
Q 4478 5244 4325 5216 
Q 4334 4909 4363 4616 
L 5284 4616 
L 5650 5147 
Q 5650 5147 5764 5045 
Q 5878 4944 6031 4801 
Q 6184 4659 6303 4538 
Q 6275 4434 6131 4434 
L 4391 4434 
Q 4431 4131 4515 3840 
Q 4600 3550 4728 3291 
Q 4841 3519 4922 3772 
Q 5003 4025 5063 4294 
L 6138 3903 
Q 6113 3847 6048 3812 
Q 5984 3778 5875 3788 
Q 5725 3447 5547 3170 
Q 5369 2894 5163 2669 
Q 5347 2488 5566 2344 
Q 5641 2294 5684 2297 
Q 5728 2300 5772 2363 
Q 5844 2469 5953 2662 
Q 6063 2856 6144 3041 
L 6200 3022 
L 6084 2138 
Q 6272 1884 6305 1734 
Q 6338 1584 6266 1484 
Q 6131 1313 5920 1300 
Q 5709 1288 5492 1367 
Q 5275 1447 5125 1550 
Q 4763 1806 4506 2100 
Q 4288 1959 4053 1848 
Q 3819 1738 3569 1644 
L 3513 1709 
Q 3900 2009 4228 2444 
Q 3863 2981 3684 3628 
Q 3634 3616 3597 3616 
L 1575 3616 
L 1559 3659 
Q 1559 3363 1521 3006 
Q 1484 2650 1359 2279 
Q 1234 1909 978 1567 
Q 722 1225 288 959 
L 234 1006 
Q 463 1413 563 1875 
Q 663 2338 686 2803 
Q 709 3269 709 3681 
L 709 4947 
L 1681 4616 
L 3500 4616 
Q 3453 5038 3444 5478 
L 4484 5403 
L 4466 5441 
L 4519 5466 
z
M 2822 2303 
L 2822 3009 
L 2413 3009 
L 2413 2303 
L 2822 2303 
z
M 2413 1966 
Q 2413 1931 2311 1875 
Q 2209 1819 2053 1773 
Q 1897 1728 1734 1728 
L 1625 1728 
L 1625 3500 
L 2438 3188 
L 2763 3188 
L 3109 3553 
L 3825 3022 
Q 3806 2991 3756 2958 
Q 3706 2925 3628 2913 
L 3628 2047 
Q 3625 2022 3512 1978 
Q 3400 1934 3245 1898 
Q 3091 1863 2963 1863 
L 2822 1863 
L 2822 2125 
L 2413 2125 
L 2413 1966 
z
" transform="scale(0.015625)"/>
       <path id="SourceHanSerifCN-Heavy-5206" d="M 3188 4959 
Q 3169 4913 3116 4878 
Q 3063 4844 2944 4844 
Q 2691 4375 2305 3895 
Q 1919 3416 1389 3003 
Q 859 2591 178 2322 
L 134 2381 
Q 619 2778 991 3301 
Q 1363 3825 1617 4378 
Q 1872 4931 2003 5422 
L 3188 4959 
z
M 4319 5338 
Q 4244 5184 4056 4959 
Q 4284 4559 4650 4221 
Q 5016 3884 5450 3625 
Q 5884 3366 6322 3200 
L 6309 3122 
Q 6109 3031 5911 2790 
Q 5713 2550 5631 2284 
Q 4888 2769 4409 3537 
Q 3931 4306 3706 5491 
L 3769 5522 
L 4319 5338 
z
M 3163 2747 
L 4031 2747 
L 4506 3200 
L 5288 2528 
Q 5247 2484 5184 2453 
Q 5122 2422 5019 2406 
Q 4975 1578 4908 1020 
Q 4841 463 4723 133 
Q 4606 -197 4416 -347 
Q 4234 -491 4007 -556 
Q 3781 -622 3419 -622 
Q 3422 -419 3389 -261 
Q 3356 -103 3263 -6 
Q 3053 216 2547 313 
L 2547 384 
Q 2713 372 2911 359 
Q 3109 347 3278 339 
Q 3447 331 3525 331 
Q 3663 331 3744 397 
Q 3884 506 3965 1065 
Q 4047 1625 4097 2566 
L 3144 2566 
Q 3091 2141 2964 1706 
Q 2838 1272 2548 858 
Q 2259 444 1734 67 
Q 1209 -309 366 -622 
L 306 -538 
Q 916 -150 1275 250 
Q 1634 650 1811 1048 
Q 1988 1447 2048 1830 
Q 2109 2213 2125 2566 
L 1113 2566 
L 1056 2747 
L 3163 2747 
z
" transform="scale(0.015625)"/>
       <path id="SourceHanSerifCN-Heavy-7c7b" d="M 1075 5216 
Q 1566 5194 1855 5075 
Q 2144 4956 2267 4790 
Q 2391 4625 2384 4458 
Q 2378 4291 2273 4172 
Q 2169 4053 2000 4028 
Q 1831 4003 1631 4122 
Q 1556 4409 1379 4695 
Q 1203 4981 1031 5184 
L 1075 5216 
z
M 5331 4494 
Q 5331 4494 5414 4430 
Q 5497 4366 5625 4267 
Q 5753 4169 5893 4055 
Q 6034 3941 6150 3841 
Q 6122 3738 5966 3738 
L 3616 3738 
L 3616 3653 
Q 4281 3653 4717 3525 
Q 5153 3397 5392 3201 
Q 5631 3006 5704 2795 
Q 5778 2584 5715 2414 
Q 5653 2244 5483 2164 
Q 5313 2084 5069 2156 
Q 4900 2384 4658 2623 
Q 4416 2863 4145 3084 
Q 3875 3306 3616 3481 
L 3616 2497 
Q 3616 2463 3497 2408 
Q 3378 2353 3200 2309 
Q 3022 2266 2841 2266 
L 2700 2266 
L 3725 2194 
Q 3716 2128 3664 2079 
Q 3613 2031 3500 2016 
L 3444 1556 
L 4997 1556 
L 5447 2150 
Q 5447 2150 5528 2084 
Q 5609 2019 5734 1916 
Q 5859 1813 5996 1695 
Q 6134 1578 6247 1478 
Q 6219 1375 6059 1375 
L 3525 1375 
Q 3791 997 4225 783 
Q 4659 569 5189 469 
Q 5719 369 6272 331 
L 6272 263 
Q 6003 175 5831 -48 
Q 5659 -272 5594 -609 
Q 5053 -441 4629 -206 
Q 4206 28 3900 400 
Q 3594 772 3406 1344 
Q 3328 988 3154 691 
Q 2981 394 2629 151 
Q 2278 -91 1681 -280 
Q 1084 -469 159 -603 
L 128 -513 
Q 753 -319 1172 -111 
Q 1591 97 1848 326 
Q 2106 556 2242 817 
Q 2378 1078 2438 1375 
L 219 1375 
L 166 1556 
L 2463 1556 
Q 2488 1722 2498 1905 
Q 2509 2088 2516 2278 
L 2669 2266 
L 2669 3128 
Q 2197 2731 1573 2425 
Q 950 2119 225 1906 
L 184 1984 
Q 784 2309 1278 2782 
Q 1772 3256 2081 3738 
L 341 3738 
L 288 3916 
L 2669 3916 
L 2669 5459 
L 3834 5356 
Q 3825 5300 3783 5254 
Q 3741 5209 3616 5191 
L 3616 3916 
L 3781 3916 
Q 3897 4116 4015 4353 
Q 4134 4591 4239 4827 
Q 4344 5063 4416 5253 
L 5522 4863 
Q 5472 4738 5269 4756 
Q 5031 4578 4673 4343 
Q 4316 4109 3975 3916 
L 4884 3916 
L 5331 4494 
z
" transform="scale(0.015625)"/>
       <path id="SourceHanSerifCN-Heavy-51c6" d="M 359 5197 
Q 881 5119 1179 4951 
Q 1478 4784 1595 4582 
Q 1713 4381 1688 4193 
Q 1663 4006 1538 3882 
Q 1413 3759 1225 3751 
Q 1038 3744 831 3903 
Q 797 4241 648 4578 
Q 500 4916 306 5166 
L 359 5197 
z
M 469 1381 
Q 550 1381 586 1398 
Q 622 1416 678 1516 
Q 716 1584 750 1646 
Q 784 1709 834 1815 
Q 884 1922 971 2115 
Q 1059 2309 1203 2636 
Q 1347 2963 1567 3464 
Q 1788 3966 2106 4691 
L 2194 4672 
Q 2122 4416 2033 4089 
Q 1944 3763 1853 3419 
Q 1763 3075 1680 2758 
Q 1597 2441 1537 2195 
Q 1478 1950 1453 1831 
Q 1416 1647 1384 1467 
Q 1353 1288 1356 1159 
Q 1363 1025 1413 915 
Q 1463 806 1523 692 
Q 1584 578 1629 429 
Q 1675 281 1672 72 
Q 1659 -178 1478 -339 
Q 1297 -500 1006 -500 
Q 881 -500 748 -436 
Q 616 -372 556 -178 
Q 625 134 639 423 
Q 653 713 620 913 
Q 588 1113 513 1166 
Q 444 1213 359 1238 
Q 275 1263 172 1275 
L 172 1381 
Q 172 1381 231 1381 
Q 291 1381 361 1381 
Q 431 1381 469 1381 
z
M 5466 4716 
Q 5466 4716 5545 4650 
Q 5625 4584 5748 4481 
Q 5872 4378 6005 4259 
Q 6138 4141 6247 4038 
Q 6219 3938 6069 3938 
L 4763 3938 
L 4763 2809 
L 4978 2809 
L 5388 3397 
Q 5388 3397 5463 3331 
Q 5538 3266 5652 3164 
Q 5766 3063 5889 2947 
Q 6013 2831 6113 2731 
Q 6084 2631 5931 2631 
L 4763 2631 
L 4763 1478 
L 4978 1478 
L 5388 2069 
Q 5388 2069 5463 2001 
Q 5538 1934 5652 1832 
Q 5766 1731 5889 1615 
Q 6013 1500 6113 1403 
Q 6084 1300 5931 1300 
L 4763 1300 
L 4763 116 
L 5075 116 
L 5528 744 
Q 5528 744 5611 673 
Q 5694 603 5822 495 
Q 5950 388 6087 266 
Q 6225 144 6338 38 
Q 6309 -63 6156 -63 
L 3175 -63 
L 3175 -353 
Q 3175 -400 2987 -504 
Q 2800 -609 2463 -609 
L 2303 -609 
L 2303 2688 
Q 1978 2313 1600 2028 
L 1544 2081 
Q 1772 2444 1959 2883 
Q 2147 3322 2294 3783 
Q 2441 4244 2541 4680 
Q 2641 5116 2694 5472 
L 3891 5153 
Q 3841 5331 3763 5478 
L 3809 5503 
Q 4297 5406 4556 5237 
Q 4816 5069 4892 4880 
Q 4969 4691 4909 4525 
Q 4850 4359 4701 4264 
Q 4553 4169 4361 4187 
Q 4169 4206 3981 4391 
Q 3994 4578 3972 4765 
Q 3950 4953 3897 5125 
Q 3884 5078 3837 5043 
Q 3791 5009 3681 4997 
Q 3597 4791 3497 4569 
Q 3397 4347 3278 4116 
L 5031 4116 
L 5466 4716 
z
M 3175 3928 
L 3175 2809 
L 3891 2809 
L 3891 3938 
L 3181 3938 
L 3175 3928 
z
M 3175 116 
L 3891 116 
L 3891 1300 
L 3175 1300 
L 3175 116 
z
M 3175 1478 
L 3891 1478 
L 3891 2631 
L 3175 2631 
L 3175 1478 
z
" transform="scale(0.015625)"/>
       <path id="SourceHanSerifCN-Heavy-786e" d="M 1447 709 
L 1791 709 
L 1791 2803 
L 1447 2803 
L 1447 709 
z
M 2228 5331 
Q 2228 5331 2304 5272 
Q 2381 5213 2503 5117 
Q 2625 5022 2756 4915 
Q 2888 4809 2994 4716 
Q 2969 4616 2816 4616 
L 1888 4616 
Q 1756 3772 1434 3022 
L 1528 2981 
L 1728 2981 
L 2094 3378 
L 2834 2809 
Q 2806 2772 2747 2736 
Q 2688 2700 2591 2681 
L 2591 306 
Q 2588 281 2478 232 
Q 2369 184 2214 143 
Q 2059 103 1925 103 
L 1791 103 
L 1791 531 
L 1447 531 
L 1447 -44 
Q 1447 -84 1278 -179 
Q 1109 -275 813 -275 
L 672 -275 
L 672 1691 
Q 450 1403 191 1131 
L 116 1184 
Q 338 1647 503 2222 
Q 669 2797 784 3412 
Q 900 4028 966 4616 
L 197 4616 
L 147 4794 
L 1806 4794 
L 2228 5331 
z
M 4788 1388 
L 5166 1388 
L 5166 2413 
L 4788 2413 
L 4788 1388 
z
M 4347 5125 
Q 4303 4991 4091 4991 
L 3938 4691 
L 4422 4691 
L 4850 5125 
L 5613 4481 
Q 5547 4406 5363 4397 
Q 5172 4228 4917 4037 
Q 4663 3847 4403 3713 
L 5172 3713 
L 5491 4128 
L 6284 3519 
Q 6247 3472 6183 3439 
Q 6119 3406 6047 3384 
L 6047 231 
Q 6047 -181 5856 -375 
Q 5666 -569 5131 -588 
Q 5131 -406 5128 -300 
Q 5125 -194 5100 -84 
Q 5078 22 5020 103 
Q 4963 184 4831 225 
L 4831 294 
Q 4831 294 4917 291 
Q 5003 288 5075 288 
Q 5166 288 5166 359 
L 5166 1209 
L 4788 1209 
L 4788 -134 
Q 4781 -169 4614 -258 
Q 4447 -347 4159 -347 
L 4019 -347 
L 4019 1209 
L 3647 1209 
Q 3606 875 3482 551 
Q 3359 228 3095 -62 
Q 2831 -353 2375 -588 
L 2316 -538 
Q 2581 -209 2700 183 
Q 2819 575 2850 1006 
Q 2881 1438 2881 1888 
L 2881 3469 
Q 2778 3397 2673 3330 
Q 2569 3263 2456 3206 
L 2388 3256 
Q 2650 3666 2867 4256 
Q 3084 4847 3175 5484 
L 4347 5125 
z
M 4019 1388 
L 4019 2413 
L 3681 2413 
L 3681 1888 
Q 3681 1763 3679 1638 
Q 3678 1513 3669 1388 
L 4019 1388 
z
M 4788 2591 
L 5166 2591 
L 5166 3531 
L 4788 3531 
L 4788 2591 
z
M 4019 2591 
L 4019 3531 
L 3681 3531 
L 3681 2591 
L 4019 2591 
z
M 3341 3872 
L 3809 3713 
L 4219 3713 
Q 4284 3881 4351 4103 
Q 4419 4325 4459 4513 
L 3834 4513 
Q 3722 4328 3598 4170 
Q 3475 4013 3341 3872 
z
" transform="scale(0.015625)"/>
       <path id="SourceHanSerifCN-Heavy-7387" d="M 666 4238 
Q 1128 4159 1386 4007 
Q 1644 3856 1736 3679 
Q 1828 3503 1797 3342 
Q 1766 3181 1644 3079 
Q 1522 2978 1350 2976 
Q 1178 2975 997 3122 
Q 975 3413 862 3700 
Q 750 3988 616 4206 
L 666 4238 
z
M 4353 3066 
Q 4916 3059 5278 2942 
Q 5641 2825 5831 2651 
Q 6022 2478 6069 2293 
Q 6116 2109 6047 1964 
Q 5978 1819 5822 1761 
Q 5666 1703 5453 1784 
Q 5328 2000 5133 2228 
Q 4938 2456 4719 2664 
Q 4500 2872 4306 3022 
L 4353 3066 
z
M 141 2344 
Q 306 2391 609 2487 
Q 913 2584 1291 2712 
Q 1669 2841 2059 2981 
L 2081 2925 
Q 1894 2713 1589 2402 
Q 1284 2091 838 1684 
Q 819 1547 697 1491 
L 141 2344 
z
M 2578 5503 
Q 3069 5509 3323 5403 
Q 3578 5297 3650 5142 
Q 3722 4988 3656 4841 
Q 3591 4694 3438 4616 
L 4666 4616 
L 5159 5216 
Q 5159 5216 5248 5150 
Q 5338 5084 5477 4979 
Q 5616 4875 5769 4758 
Q 5922 4641 6047 4538 
Q 6019 4434 5863 4434 
L 3022 4434 
L 3688 4116 
Q 3669 4072 3614 4045 
Q 3559 4019 3469 4031 
Q 3281 3903 3022 3768 
Q 2763 3634 2509 3541 
L 3359 3541 
Q 3591 3806 3725 4025 
L 4594 3525 
Q 4681 3713 4770 3927 
Q 4859 4141 4947 4353 
L 5978 3794 
Q 5950 3744 5881 3716 
Q 5813 3688 5703 3706 
Q 5416 3547 5097 3398 
Q 4778 3250 4500 3156 
L 4434 3206 
L 4550 3438 
Q 4488 3406 4391 3425 
Q 4181 3253 3878 3062 
Q 3575 2872 3226 2690 
Q 2878 2509 2534 2369 
L 3841 2369 
Q 3803 2506 3751 2631 
Q 3700 2756 3641 2859 
L 3694 2894 
Q 4144 2794 4384 2634 
Q 4625 2475 4700 2295 
Q 4775 2116 4728 1959 
Q 4681 1803 4550 1711 
Q 4419 1619 4245 1631 
Q 4072 1644 3897 1806 
Q 3906 1981 3878 2163 
Q 3572 2053 3155 1915 
Q 2738 1778 2253 1638 
Q 2216 1591 2156 1569 
L 1813 2388 
Q 1813 2388 1898 2405 
Q 1984 2422 2047 2450 
Q 2269 2553 2526 2750 
Q 2784 2947 3022 3181 
L 2338 2969 
Q 2284 2900 2209 2869 
L 1894 3584 
Q 1894 3584 1953 3601 
Q 2013 3619 2053 3641 
Q 2169 3700 2294 3836 
Q 2419 3972 2526 4134 
Q 2634 4297 2700 4434 
L 397 4434 
L 347 4616 
L 2938 4616 
Q 2903 4628 2870 4651 
Q 2838 4675 2803 4697 
Q 2809 4919 2732 5128 
Q 2656 5338 2541 5472 
L 2578 5503 
z
M 5350 1691 
Q 5350 1691 5440 1623 
Q 5531 1556 5672 1450 
Q 5813 1344 5967 1223 
Q 6122 1103 6253 997 
Q 6225 897 6059 897 
L 3653 897 
L 3653 -397 
Q 3653 -422 3531 -470 
Q 3409 -519 3226 -556 
Q 3044 -594 2859 -594 
L 2694 -594 
L 2694 897 
L 225 897 
L 172 1075 
L 2694 1075 
L 2694 1716 
L 3866 1619 
Q 3856 1563 3815 1519 
Q 3775 1475 3653 1459 
L 3653 1075 
L 4856 1075 
L 5350 1691 
z
" transform="scale(0.015625)"/>
      </defs>
      <use xlink:href="#SourceHanSerifCN-Heavy-60c5"/>
      <use xlink:href="#SourceHanSerifCN-Heavy-611f" x="100"/>
      <use xlink:href="#SourceHanSerifCN-Heavy-5206" x="200"/>
      <use xlink:href="#SourceHanSerifCN-Heavy-7c7b" x="300"/>
      <use xlink:href="#SourceHanSerifCN-Heavy-51c6" x="400"/>
      <use xlink:href="#SourceHanSerifCN-Heavy-786e" x="500"/>
      <use xlink:href="#SourceHanSerifCN-Heavy-7387" x="600"/>
     </g>
    </g>
    <g id="line2d_18">
     <path d="M 589.3 200.102188 
L 599.3 200.102188 
L 609.3 200.102188 
" style="fill: none; stroke: #ffd06e; stroke-width: 1.5; stroke-linecap: square"/>
    </g>
    <g id="text_15">
     <!-- 行动分类准确率 -->
     <g transform="translate(617.3 203.602188) scale(0.1 -0.1)">
      <defs>
       <path id="SimSun-884c" d="M 2825 4550 
L 4950 4550 
L 5300 4875 
L 5725 4400 
L 3650 4400 
Q 3325 4400 3050 4325 
L 2825 4550 
z
M 3050 100 
Q 3725 50 3950 50 
Q 4175 50 4175 350 
L 4175 2900 
L 3225 2900 
Q 2900 2900 2625 2825 
L 2400 3050 
L 5275 3050 
L 5650 3400 
L 6075 2900 
L 4525 2900 
L 4525 225 
Q 4550 -450 3900 -575 
Q 3900 -225 3050 -25 
L 3050 100 
z
M 1825 5175 
L 2275 4825 
Q 2100 4775 1675 4300 
Q 1250 3800 600 3325 
L 550 3400 
Q 975 3800 1337 4312 
Q 1700 4825 1825 5175 
z
M 1875 2325 
L 1875 -400 
L 1500 -625 
Q 1525 -75 1525 2425 
Q 950 1825 400 1450 
L 350 1525 
Q 875 2050 1362 2700 
Q 1850 3350 2100 3950 
L 2525 3575 
L 2300 3450 
Q 1975 2975 1750 2700 
L 2025 2475 
L 1875 2325 
z
" transform="scale(0.015625)"/>
       <path id="SimSun-52a8" d="M 5950 3500 
L 5750 3325 
Q 5725 675 5587 137 
Q 5450 -400 4850 -575 
Q 4825 -300 4075 25 
L 4100 150 
Q 4625 25 4925 25 
Q 5075 25 5162 87 
Q 5250 150 5312 737 
Q 5375 1325 5425 3425 
L 4375 3425 
Q 4350 2475 4162 1725 
Q 3975 975 3487 400 
Q 3000 -175 2200 -625 
L 2125 -550 
Q 2925 0 3312 562 
Q 3700 1125 3862 1825 
Q 4025 2525 4050 3425 
L 3600 3425 
L 3300 3375 
L 3100 3575 
L 4050 3575 
Q 4050 4625 4025 5175 
L 4550 4925 
L 4375 4750 
L 4375 3575 
L 5375 3575 
L 5575 3800 
L 5950 3500 
z
M 475 4325 
L 2275 4325 
L 2575 4625 
L 3025 4175 
L 1200 4175 
Q 925 4175 700 4100 
L 475 4325 
z
M 275 3050 
L 2625 3050 
L 2925 3350 
L 3375 2900 
L 1700 2900 
L 2100 2600 
Q 1850 2500 1450 1875 
Q 1025 1250 675 875 
L 2650 1100 
Q 2400 1600 2125 2025 
L 2200 2075 
Q 3075 1275 3125 987 
Q 3175 700 3062 587 
Q 2950 475 2925 475 
Q 2850 475 2825 600 
Q 2775 775 2700 975 
Q 875 650 600 350 
L 325 850 
Q 600 925 1025 1687 
Q 1450 2450 1550 2900 
L 750 2900 
L 475 2850 
L 275 3050 
z
" transform="scale(0.015625)"/>
       <path id="SimSun-5206" d="M 2350 5050 
L 2850 4675 
L 2625 4550 
Q 2200 3750 1687 3125 
Q 1175 2500 375 2025 
L 325 2100 
Q 975 2625 1475 3337 
Q 1975 4050 2350 5050 
z
M 4100 4975 
L 3900 4850 
Q 4175 3850 4800 3300 
Q 5425 2750 6125 2625 
L 6125 2550 
Q 5750 2500 5600 2225 
Q 4775 2675 4287 3425 
Q 3800 4175 3625 5175 
L 4100 4975 
z
M 1375 2625 
L 4225 2625 
L 4475 2875 
L 4825 2525 
L 4625 2375 
Q 4575 400 4375 -12 
Q 4175 -425 3675 -600 
Q 3600 -200 2975 -25 
L 2975 75 
Q 3600 -25 3787 -12 
Q 3975 0 4075 275 
Q 4175 550 4275 2475 
L 2975 2475 
Q 2825 1400 2375 662 
Q 1925 -75 650 -625 
L 600 -525 
Q 1725 50 2112 837 
Q 2500 1625 2575 2475 
L 1800 2475 
L 1575 2425 
L 1375 2625 
z
" transform="scale(0.015625)"/>
       <path id="SimSun-7c7b" d="M 1375 4925 
L 1425 5000 
Q 1975 4775 2200 4612 
Q 2425 4450 2412 4287 
Q 2400 4125 2325 4012 
Q 2250 3900 2200 3900 
Q 2125 3900 2025 4150 
Q 1850 4500 1375 4925 
z
M 3075 3750 
L 3075 4825 
Q 3075 5000 3050 5225 
L 3700 4975 
L 3425 4775 
L 3425 3750 
L 3900 3750 
Q 4475 4525 4750 5075 
L 5250 4650 
L 4975 4575 
Q 4700 4375 4050 3750 
L 5275 3750 
L 5625 4075 
L 6075 3600 
L 3425 3600 
L 3425 3450 
Q 5000 3025 5300 2850 
Q 5600 2675 5625 2550 
Q 5650 2425 5650 2375 
Q 5650 2250 5612 2175 
Q 5575 2100 5550 2100 
Q 5425 2100 5150 2400 
Q 4775 2775 3425 3350 
Q 3425 2575 3450 2400 
L 3050 2250 
Q 3075 2575 3075 3575 
Q 2625 3000 2037 2575 
Q 1450 2150 400 1850 
L 375 1925 
Q 1300 2325 1812 2725 
Q 2325 3125 2675 3600 
L 1250 3600 
Q 925 3600 650 3525 
L 425 3750 
L 3075 3750 
z
M 3250 1775 
Q 3200 1625 3150 1500 
L 5300 1500 
L 5650 1850 
L 6100 1350 
L 3500 1350 
Q 3925 750 4550 375 
Q 5175 0 6125 -100 
L 6125 -200 
Q 5650 -225 5525 -550 
Q 4700 -225 4137 325 
Q 3575 875 3375 1350 
L 3125 1350 
Q 2825 375 2175 -37 
Q 1525 -450 300 -650 
L 275 -575 
Q 1175 -350 1825 62 
Q 2475 475 2750 1350 
L 1075 1350 
Q 750 1350 475 1275 
L 250 1500 
L 2775 1500 
Q 2825 1850 2850 2225 
L 3475 1925 
L 3250 1775 
z
" transform="scale(0.015625)"/>
       <path id="SimSun-51c6" d="M 2575 -600 
Q 2600 300 2600 550 
L 2600 3375 
Q 2200 2725 1675 2200 
L 1600 2250 
Q 2100 2950 2462 3812 
Q 2825 4675 2925 5175 
L 3450 4850 
L 3250 4725 
Q 3025 4275 2875 3950 
L 5175 3950 
L 5525 4300 
L 6025 3800 
L 4450 3800 
L 4450 2775 
L 5000 2775 
L 5325 3100 
L 5800 2625 
L 4450 2625 
L 4450 1450 
L 5100 1450 
L 5425 1775 
L 5900 1300 
L 4450 1300 
L 4450 100 
L 5250 100 
L 5600 450 
L 6100 -50 
L 2950 -50 
L 2950 -425 
L 2575 -600 
z
M 4100 3800 
L 2950 3800 
L 2950 2775 
L 4100 2775 
L 4100 3800 
z
M 2950 2625 
L 2950 1450 
L 4100 1450 
L 4100 2625 
L 2950 2625 
z
M 2950 1300 
L 2950 100 
L 4100 100 
L 4100 1300 
L 2950 1300 
z
M 3875 5150 
L 3950 5200 
Q 4675 4725 4650 4500 
Q 4625 4275 4525 4187 
Q 4425 4100 4375 4100 
Q 4275 4100 4250 4350 
Q 4175 4675 3875 5150 
z
M 500 4875 
Q 1350 4375 1337 4137 
Q 1325 3900 1225 3787 
Q 1125 3675 1075 3675 
Q 1000 3675 925 3925 
Q 825 4275 450 4825 
L 500 4875 
z
M 300 1825 
Q 625 1825 862 1887 
Q 1100 1950 2100 4500 
L 2200 4475 
Q 1750 3150 1500 2450 
Q 1225 1750 1200 1137 
Q 1175 525 1200 175 
Q 1200 -200 1012 -137 
Q 825 -75 750 37 
Q 675 150 675 300 
Q 675 450 700 550 
Q 775 850 825 1100 
Q 875 1350 787 1500 
Q 700 1650 300 1725 
L 300 1825 
z
" transform="scale(0.015625)"/>
       <path id="SimSun-786e" d="M 3625 4300 
Q 3350 3925 3075 3575 
L 3400 3375 
L 4250 3375 
L 4750 4300 
L 3625 4300 
z
M 3675 5250 
L 4175 4925 
L 3950 4850 
Q 3825 4675 3700 4450 
L 4725 4450 
L 4950 4700 
L 5375 4275 
Q 5000 4250 4400 3375 
L 5350 3375 
L 5525 3625 
L 5900 3350 
L 5725 3175 
L 5725 25 
Q 5750 -375 5275 -575 
Q 5250 -250 4650 -125 
L 4650 -25 
Q 4950 -50 5150 -50 
Q 5275 -50 5337 -25 
Q 5400 0 5400 150 
L 5400 1200 
L 4525 1200 
L 4525 -275 
L 4225 -450 
L 4225 1200 
L 3325 1200 
Q 3250 625 2962 175 
Q 2675 -275 2150 -625 
L 2100 -575 
Q 2575 -100 2800 425 
Q 3025 950 3037 1925 
Q 3050 2900 3050 3550 
Q 2775 3225 2500 2975 
L 2425 3025 
Q 2800 3475 3137 4062 
Q 3475 4650 3675 5250 
z
M 3375 3225 
L 3375 2350 
L 4225 2350 
L 4225 3225 
L 3375 3225 
z
M 4525 3225 
L 4525 2350 
L 5400 2350 
L 5400 3225 
L 4525 3225 
z
M 3375 2200 
L 3350 1350 
L 4225 1350 
L 4225 2200 
L 3375 2200 
z
M 4525 2200 
L 4525 1350 
L 5400 1350 
L 5400 2200 
L 4525 2200 
z
M 1250 2625 
L 1250 850 
L 2025 850 
L 2025 2625 
L 1250 2625 
z
M 925 -125 
Q 950 675 950 2275 
Q 650 1750 300 1400 
L 250 1450 
Q 950 2550 1325 4250 
L 1175 4250 
Q 850 4250 575 4175 
L 350 4400 
L 2150 4400 
L 2475 4700 
L 2875 4250 
L 1725 4250 
Q 1475 3525 1200 2775 
L 2000 2775 
L 2175 3000 
L 2550 2700 
L 2350 2550 
Q 2350 1200 2375 475 
L 2025 325 
L 2025 700 
L 1250 700 
L 1250 25 
L 925 -125 
z
" transform="scale(0.015625)"/>
       <path id="SimSun-7387" d="M 875 3725 
L 925 3800 
Q 1375 3650 1550 3525 
Q 1725 3400 1725 3250 
Q 1725 3175 1662 3025 
Q 1600 2875 1550 2875 
Q 1500 2875 1425 3050 
Q 1275 3325 875 3725 
z
M 550 1850 
Q 875 1925 2000 2575 
L 2050 2500 
Q 1675 2225 1337 1937 
Q 1000 1650 875 1425 
L 550 1850 
z
M 5200 3450 
Q 4800 3150 4275 2800 
L 4225 2875 
Q 4775 3400 5050 3925 
L 5450 3525 
L 5200 3450 
z
M 4325 2500 
L 4350 2575 
Q 5225 2350 5375 2212 
Q 5525 2075 5525 1900 
Q 5525 1775 5487 1662 
Q 5450 1550 5400 1550 
Q 5325 1550 5200 1800 
Q 4975 2150 4325 2500 
z
M 3150 3900 
Q 2500 3300 2300 3150 
Q 2800 3150 3400 3175 
Q 3700 3500 3850 3825 
L 4250 3450 
Q 4050 3400 3450 2825 
Q 2850 2250 2475 1950 
Q 3150 1975 3850 2000 
Q 3750 2175 3550 2450 
L 3600 2500 
Q 4050 2250 4200 2100 
Q 4350 1950 4350 1850 
Q 4350 1775 4250 1625 
Q 4150 1475 4100 1475 
Q 4075 1475 4050 1550 
Q 4000 1700 3900 1900 
Q 3650 1875 3075 1800 
L 3500 1550 
L 3325 1425 
L 3325 975 
L 5325 975 
L 5650 1300 
L 6100 825 
L 3325 825 
Q 3325 -275 3350 -525 
L 2975 -650 
Q 3000 0 3000 825 
L 1125 825 
Q 800 825 525 750 
L 300 975 
L 3000 975 
L 3000 1775 
Q 2450 1700 2200 1525 
L 1950 1950 
Q 2275 1950 2675 2350 
Q 3075 2750 3325 3050 
Q 2400 2950 2150 2775 
L 1950 3175 
Q 2150 3150 2475 3575 
Q 2800 4000 2900 4225 
L 1450 4225 
Q 1125 4225 850 4150 
L 625 4375 
L 3100 4375 
Q 3050 4800 2675 5200 
L 2725 5250 
Q 3225 5050 3337 4912 
Q 3450 4775 3450 4700 
Q 3450 4550 3250 4375 
L 5025 4375 
L 5350 4675 
L 5775 4225 
L 3050 4225 
L 3375 3950 
L 3150 3900 
z
" transform="scale(0.015625)"/>
      </defs>
      <use xlink:href="#SimSun-884c"/>
      <use xlink:href="#SimSun-52a8" x="100"/>
      <use xlink:href="#SimSun-5206" x="200"/>
      <use xlink:href="#SimSun-7c7b" x="300"/>
      <use xlink:href="#SimSun-51c6" x="400"/>
      <use xlink:href="#SimSun-786e" x="500"/>
      <use xlink:href="#SimSun-7387" x="600"/>
     </g>
    </g>
    <g id="line2d_19">
     <path d="M 589.3 214.320938 
L 599.3 214.320938 
L 609.3 214.320938 
" style="fill: none; stroke: #386795; stroke-width: 1.5; stroke-linecap: square"/>
    </g>
    <g id="text_16">
     <!-- 总分类准确率 -->
     <g transform="translate(617.3 217.820938) scale(0.1 -0.1)">
      <defs>
       <path id="SimSun-603b" d="M 1875 1500 
L 2450 1200 
L 2250 1050 
L 2250 275 
Q 2250 0 2500 -25 
L 4050 -25 
Q 4275 0 4337 250 
Q 4400 500 4425 1050 
L 4525 1050 
Q 4550 550 4587 325 
Q 4625 100 4850 50 
Q 4675 -325 4275 -325 
L 2400 -325 
Q 1850 -325 1900 175 
Q 1900 1200 1875 1500 
z
M 2625 1775 
L 2675 1850 
Q 3275 1550 3450 1400 
Q 3625 1250 3625 1100 
Q 3625 975 3550 837 
Q 3475 700 3425 700 
Q 3350 700 3250 925 
Q 3100 1275 2625 1775 
z
M 4650 1300 
L 4700 1375 
Q 5175 1175 5462 1000 
Q 5750 825 5800 637 
Q 5850 450 5762 300 
Q 5675 150 5600 150 
Q 5500 150 5400 400 
Q 5225 775 4650 1300 
z
M 1150 1300 
L 1250 1300 
Q 1200 525 1087 300 
Q 975 75 787 37 
Q 600 0 512 62 
Q 425 125 425 175 
Q 425 275 650 475 
Q 950 725 1150 1300 
z
M 2000 5100 
Q 2400 4850 2600 4637 
Q 2800 4425 2750 4225 
Q 2700 4025 2600 3950 
Q 2500 3875 2475 3875 
Q 2400 3875 2350 4150 
Q 2275 4500 1925 5050 
L 2000 5100 
z
M 1475 1625 
Q 1500 2225 1500 2800 
Q 1500 3375 1475 3900 
L 1850 3700 
L 3400 3700 
Q 3850 4525 4050 5225 
L 4575 4850 
L 4325 4775 
Q 3900 4175 3550 3700 
L 4550 3700 
L 4725 3950 
L 5125 3650 
L 4925 3475 
Q 4925 2225 4950 1825 
L 4575 1675 
L 4575 1950 
L 1850 1950 
L 1850 1750 
L 1475 1625 
z
M 1850 3550 
L 1850 2100 
L 4575 2100 
L 4575 3550 
L 1850 3550 
z
" transform="scale(0.015625)"/>
      </defs>
      <use xlink:href="#SimSun-603b"/>
      <use xlink:href="#SimSun-5206" x="100"/>
      <use xlink:href="#SimSun-7c7b" x="200"/>
      <use xlink:href="#SimSun-51c6" x="300"/>
      <use xlink:href="#SimSun-786e" x="400"/>
      <use xlink:href="#SimSun-7387" x="500"/>
     </g>
    </g>
   </g>
  </g>
 </g>
 <defs>
  <clipPath id="p863c732fef">
   <rect x="26.7" y="7.2" width="669.6" height="221.76"/>
  </clipPath>
 </defs>
</svg>
