<?xml version="1.0" encoding="utf-8" standalone="no"?>
<!DOCTYPE svg PUBLIC "-//W3C//DTD SVG 1.1//EN"
  "http://www.w3.org/Graphics/SVG/1.1/DTD/svg11.dtd">
<svg xmlns:xlink="http://www.w3.org/1999/xlink" width="485.3pt" height="307.857813pt" viewBox="0 0 485.3 307.857813" xmlns="http://www.w3.org/2000/svg" version="1.1">
 <metadata>
  <rdf:RDF xmlns:dc="http://purl.org/dc/elements/1.1/" xmlns:cc="http://creativecommons.org/ns#" xmlns:rdf="http://www.w3.org/1999/02/22-rdf-syntax-ns#">
   <cc:Work>
    <dc:type rdf:resource="http://purl.org/dc/dcmitype/StillImage"/>
    <dc:date>2024-01-10T15:36:25.587298</dc:date>
    <dc:format>image/svg+xml</dc:format>
    <dc:creator>
     <cc:Agent>
      <dc:title>Matplotlib v3.8.2, https://matplotlib.org/</dc:title>
     </cc:Agent>
    </dc:creator>
   </cc:Work>
  </rdf:RDF>
 </metadata>
 <defs>
  <style type="text/css">*{stroke-linejoin: round; stroke-linecap: butt}</style>
 </defs>
 <g id="figure_1">
  <g id="patch_1">
   <path d="M 0 307.857813 
L 485.3 307.857813 
L 485.3 0 
L 0 0 
z
" style="fill: #ffffff"/>
  </g>
  <g id="axes_1">
   <g id="patch_2">
    <path d="M 31.7 284.4 
L 478.1 284.4 
L 478.1 7.2 
L 31.7 7.2 
z
" style="fill: #ffffff"/>
   </g>
   <g id="patch_3">
    <path d="M 51.990909 522.680802 
L 92.572727 522.680802 
L 92.572727 27.533295 
L 51.990909 27.533295 
z
" clip-path="url(#p679fa52578)" style="fill: #e86254"/>
   </g>
   <g id="patch_4">
    <path d="M 92.572727 522.680802 
L 133.154545 522.680802 
L 133.154545 19.670029 
L 92.572727 19.670029 
z
" clip-path="url(#p679fa52578)" style="fill: #ef8a46"/>
   </g>
   <g id="patch_5">
    <path d="M 133.154545 522.680802 
L 173.736364 522.680802 
L 173.736364 21.496848 
L 133.154545 21.496848 
z
" clip-path="url(#p679fa52578)" style="fill: #f8aa59"/>
   </g>
   <g id="patch_6">
    <path d="M 173.736364 522.680802 
L 214.318182 522.680802 
L 214.318182 35.95255 
L 173.736364 35.95255 
z
" clip-path="url(#p679fa52578)" style="fill: #ffd06e"/>
   </g>
   <g id="patch_7">
    <path d="M 214.318182 522.680802 
L 254.9 522.680802 
L 254.9 522.680802 
L 214.318182 522.680802 
z
" clip-path="url(#p679fa52578)" style="fill: #fee6b5"/>
   </g>
   <g id="patch_8">
    <path d="M 254.9 522.680802 
L 295.481818 522.680802 
L 295.481818 522.680802 
L 254.9 522.680802 
z
" clip-path="url(#p679fa52578)" style="fill: #e86254"/>
   </g>
   <g id="patch_9">
    <path d="M 295.481818 522.680802 
L 336.063636 522.680802 
L 336.063636 218.237364 
L 295.481818 218.237364 
z
" clip-path="url(#p679fa52578)" style="fill: #ef8a46"/>
   </g>
   <g id="patch_10">
    <path d="M 336.063636 522.680802 
L 376.645455 522.680802 
L 376.645455 154.934097 
L 336.063636 154.934097 
z
" clip-path="url(#p679fa52578)" style="fill: #f8aa59"/>
   </g>
   <g id="patch_11">
    <path d="M 376.645455 522.680802 
L 417.227273 522.680802 
L 417.227273 151.518739 
L 376.645455 151.518739 
z
" clip-path="url(#p679fa52578)" style="fill: #ffd06e"/>
   </g>
   <g id="patch_12">
    <path d="M 417.227273 522.680802 
L 457.809091 522.680802 
L 457.809091 151.915874 
L 417.227273 151.915874 
z
" clip-path="url(#p679fa52578)" style="fill: #fee6b5"/>
   </g>
   <g id="matplotlib.axis_1">
    <g id="xtick_1">
     <g id="line2d_1">
      <defs>
       <path id="m2e4104f31c" d="M 0 0 
L 0 3.5 
" style="stroke: #000000; stroke-width: 0.8"/>
      </defs>
      <g>
       <use xlink:href="#m2e4104f31c" x="153.445455" y="284.4" style="stroke: #000000; stroke-width: 0.8"/>
      </g>
     </g>
     <g id="text_1">
      <!-- 情感分类准确率 -->
      <g transform="translate(118.445455 298.51875) scale(0.1 -0.1)">
       <defs>
        <path id="SimSun-60c5" d="M 1175 4225 
Q 1175 4725 1150 5225 
L 1750 4950 
L 1525 4775 
L 1525 4100 
Q 2050 3900 2150 3762 
Q 2250 3625 2237 3500 
Q 2225 3375 2162 3300 
Q 2100 3225 2050 3225 
Q 1975 3225 1900 3425 
Q 1775 3700 1525 3975 
L 1525 400 
Q 1525 0 1550 -450 
L 1150 -625 
Q 1175 25 1175 550 
L 1175 4225 
z
M 800 3825 
Q 875 3100 825 2887 
Q 775 2675 687 2625 
Q 600 2575 500 2575 
Q 400 2575 337 2612 
Q 275 2650 275 2675 
Q 275 2775 400 2925 
Q 600 3175 700 3825 
L 800 3825 
z
M 4325 4950 
L 4100 4800 
L 4100 4350 
L 5075 4350 
L 5375 4650 
L 5825 4200 
L 4100 4200 
L 4100 3600 
L 4850 3600 
L 5125 3875 
L 5550 3450 
L 4100 3450 
L 4100 2825 
L 5350 2825 
L 5650 3125 
L 6100 2675 
L 2750 2675 
Q 2425 2675 2150 2600 
L 1925 2825 
L 3750 2825 
L 3750 3450 
L 3375 3450 
Q 3050 3450 2775 3375 
L 2550 3600 
L 3750 3600 
L 3750 4200 
L 3025 4200 
Q 2700 4200 2425 4125 
L 2200 4350 
L 3750 4350 
Q 3750 4775 3725 5250 
L 4325 4950 
z
M 2975 2050 
L 2975 1550 
L 4925 1550 
L 4925 2050 
L 2975 2050 
z
M 2975 1400 
L 2975 825 
L 4925 825 
L 4925 1400 
L 2975 1400 
z
M 2625 2425 
L 2975 2200 
L 4875 2200 
L 5050 2450 
L 5450 2150 
L 5275 2000 
L 5275 50 
Q 5300 -475 4750 -625 
Q 4775 -375 4125 -175 
L 4125 -50 
Q 4500 -125 4725 -112 
Q 4950 -100 4925 175 
L 4925 675 
L 2975 675 
L 2975 -450 
L 2625 -625 
Q 2650 100 2650 1000 
Q 2650 1900 2625 2425 
z
" transform="scale(0.015625)"/>
        <path id="SimSun-611f" d="M 1525 3600 
L 3075 3600 
L 3325 3850 
L 3725 3450 
L 2225 3450 
Q 1950 3450 1725 3400 
L 1525 3600 
z
M 3475 2675 
Q 3475 2050 3500 1775 
L 3150 1625 
L 3150 1875 
L 2175 1875 
L 2175 1650 
L 1825 1500 
Q 1850 1925 1850 2325 
Q 1850 2725 1825 3125 
L 2200 2925 
L 3125 2925 
L 3300 3125 
L 3650 2825 
L 3475 2675 
z
M 2175 2775 
L 2175 2025 
L 3150 2025 
L 3150 2775 
L 2175 2775 
z
M 4525 5225 
Q 4925 5000 5050 4900 
Q 5175 4800 5175 4700 
Q 5175 4650 5137 4562 
Q 5100 4475 5000 4425 
Q 4900 4375 4825 4625 
Q 4725 4850 4475 5150 
L 4525 5225 
z
M 5625 1550 
L 5775 2450 
L 5875 2450 
Q 5850 2200 5875 1800 
Q 5900 1400 6050 1225 
Q 6100 1150 6100 1125 
Q 6100 1050 5837 1087 
Q 5575 1125 5150 1375 
Q 4725 1625 4375 2075 
Q 3875 1625 3225 1250 
L 3150 1300 
Q 3800 1825 4200 2300 
Q 4050 2575 3925 3087 
Q 3800 3600 3775 4200 
L 1400 4200 
Q 1400 3050 1237 2375 
Q 1075 1700 350 1000 
L 275 1050 
Q 825 1800 925 2412 
Q 1025 3025 1037 3450 
Q 1050 3875 1025 4600 
L 1400 4350 
L 3750 4350 
Q 3725 4900 3700 5275 
L 4225 5050 
L 4050 4900 
Q 4050 4725 4075 4350 
L 5275 4350 
L 5600 4675 
L 6075 4200 
L 4100 4200 
Q 4150 3275 4450 2600 
Q 4775 3075 4912 3325 
Q 5050 3575 5175 3875 
L 5675 3525 
L 5450 3450 
Q 5000 2750 4600 2325 
Q 5025 1775 5625 1550 
z
M 1150 1025 
L 1250 1025 
Q 1225 250 1100 50 
Q 975 -150 800 -187 
Q 625 -225 562 -137 
Q 500 -50 500 0 
Q 500 100 700 225 
Q 950 400 1150 1025 
z
M 2750 1275 
L 2800 1350 
Q 3350 1125 3512 987 
Q 3675 850 3675 750 
Q 3675 675 3600 537 
Q 3525 400 3475 400 
Q 3400 400 3325 575 
Q 3175 850 2750 1275 
z
M 4750 1100 
L 4825 1175 
Q 5550 725 5612 600 
Q 5675 475 5675 375 
Q 5675 225 5587 125 
Q 5500 25 5450 25 
Q 5350 25 5275 275 
Q 5150 650 4750 1100 
z
M 1850 -25 
Q 1850 775 1825 1175 
L 2400 900 
L 2175 725 
L 2175 150 
Q 2125 -225 2575 -175 
L 3925 -175 
Q 4200 -200 4262 37 
Q 4325 275 4350 700 
L 4450 700 
Q 4475 325 4525 150 
Q 4575 -25 4750 -100 
Q 4525 -500 3925 -450 
L 2425 -450 
Q 1850 -500 1850 -25 
z
" transform="scale(0.015625)"/>
        <path id="SimSun-5206" d="M 2350 5050 
L 2850 4675 
L 2625 4550 
Q 2200 3750 1687 3125 
Q 1175 2500 375 2025 
L 325 2100 
Q 975 2625 1475 3337 
Q 1975 4050 2350 5050 
z
M 4100 4975 
L 3900 4850 
Q 4175 3850 4800 3300 
Q 5425 2750 6125 2625 
L 6125 2550 
Q 5750 2500 5600 2225 
Q 4775 2675 4287 3425 
Q 3800 4175 3625 5175 
L 4100 4975 
z
M 1375 2625 
L 4225 2625 
L 4475 2875 
L 4825 2525 
L 4625 2375 
Q 4575 400 4375 -12 
Q 4175 -425 3675 -600 
Q 3600 -200 2975 -25 
L 2975 75 
Q 3600 -25 3787 -12 
Q 3975 0 4075 275 
Q 4175 550 4275 2475 
L 2975 2475 
Q 2825 1400 2375 662 
Q 1925 -75 650 -625 
L 600 -525 
Q 1725 50 2112 837 
Q 2500 1625 2575 2475 
L 1800 2475 
L 1575 2425 
L 1375 2625 
z
" transform="scale(0.015625)"/>
        <path id="SimSun-7c7b" d="M 1375 4925 
L 1425 5000 
Q 1975 4775 2200 4612 
Q 2425 4450 2412 4287 
Q 2400 4125 2325 4012 
Q 2250 3900 2200 3900 
Q 2125 3900 2025 4150 
Q 1850 4500 1375 4925 
z
M 3075 3750 
L 3075 4825 
Q 3075 5000 3050 5225 
L 3700 4975 
L 3425 4775 
L 3425 3750 
L 3900 3750 
Q 4475 4525 4750 5075 
L 5250 4650 
L 4975 4575 
Q 4700 4375 4050 3750 
L 5275 3750 
L 5625 4075 
L 6075 3600 
L 3425 3600 
L 3425 3450 
Q 5000 3025 5300 2850 
Q 5600 2675 5625 2550 
Q 5650 2425 5650 2375 
Q 5650 2250 5612 2175 
Q 5575 2100 5550 2100 
Q 5425 2100 5150 2400 
Q 4775 2775 3425 3350 
Q 3425 2575 3450 2400 
L 3050 2250 
Q 3075 2575 3075 3575 
Q 2625 3000 2037 2575 
Q 1450 2150 400 1850 
L 375 1925 
Q 1300 2325 1812 2725 
Q 2325 3125 2675 3600 
L 1250 3600 
Q 925 3600 650 3525 
L 425 3750 
L 3075 3750 
z
M 3250 1775 
Q 3200 1625 3150 1500 
L 5300 1500 
L 5650 1850 
L 6100 1350 
L 3500 1350 
Q 3925 750 4550 375 
Q 5175 0 6125 -100 
L 6125 -200 
Q 5650 -225 5525 -550 
Q 4700 -225 4137 325 
Q 3575 875 3375 1350 
L 3125 1350 
Q 2825 375 2175 -37 
Q 1525 -450 300 -650 
L 275 -575 
Q 1175 -350 1825 62 
Q 2475 475 2750 1350 
L 1075 1350 
Q 750 1350 475 1275 
L 250 1500 
L 2775 1500 
Q 2825 1850 2850 2225 
L 3475 1925 
L 3250 1775 
z
" transform="scale(0.015625)"/>
        <path id="SimSun-51c6" d="M 2575 -600 
Q 2600 300 2600 550 
L 2600 3375 
Q 2200 2725 1675 2200 
L 1600 2250 
Q 2100 2950 2462 3812 
Q 2825 4675 2925 5175 
L 3450 4850 
L 3250 4725 
Q 3025 4275 2875 3950 
L 5175 3950 
L 5525 4300 
L 6025 3800 
L 4450 3800 
L 4450 2775 
L 5000 2775 
L 5325 3100 
L 5800 2625 
L 4450 2625 
L 4450 1450 
L 5100 1450 
L 5425 1775 
L 5900 1300 
L 4450 1300 
L 4450 100 
L 5250 100 
L 5600 450 
L 6100 -50 
L 2950 -50 
L 2950 -425 
L 2575 -600 
z
M 4100 3800 
L 2950 3800 
L 2950 2775 
L 4100 2775 
L 4100 3800 
z
M 2950 2625 
L 2950 1450 
L 4100 1450 
L 4100 2625 
L 2950 2625 
z
M 2950 1300 
L 2950 100 
L 4100 100 
L 4100 1300 
L 2950 1300 
z
M 3875 5150 
L 3950 5200 
Q 4675 4725 4650 4500 
Q 4625 4275 4525 4187 
Q 4425 4100 4375 4100 
Q 4275 4100 4250 4350 
Q 4175 4675 3875 5150 
z
M 500 4875 
Q 1350 4375 1337 4137 
Q 1325 3900 1225 3787 
Q 1125 3675 1075 3675 
Q 1000 3675 925 3925 
Q 825 4275 450 4825 
L 500 4875 
z
M 300 1825 
Q 625 1825 862 1887 
Q 1100 1950 2100 4500 
L 2200 4475 
Q 1750 3150 1500 2450 
Q 1225 1750 1200 1137 
Q 1175 525 1200 175 
Q 1200 -200 1012 -137 
Q 825 -75 750 37 
Q 675 150 675 300 
Q 675 450 700 550 
Q 775 850 825 1100 
Q 875 1350 787 1500 
Q 700 1650 300 1725 
L 300 1825 
z
" transform="scale(0.015625)"/>
        <path id="SimSun-786e" d="M 3625 4300 
Q 3350 3925 3075 3575 
L 3400 3375 
L 4250 3375 
L 4750 4300 
L 3625 4300 
z
M 3675 5250 
L 4175 4925 
L 3950 4850 
Q 3825 4675 3700 4450 
L 4725 4450 
L 4950 4700 
L 5375 4275 
Q 5000 4250 4400 3375 
L 5350 3375 
L 5525 3625 
L 5900 3350 
L 5725 3175 
L 5725 25 
Q 5750 -375 5275 -575 
Q 5250 -250 4650 -125 
L 4650 -25 
Q 4950 -50 5150 -50 
Q 5275 -50 5337 -25 
Q 5400 0 5400 150 
L 5400 1200 
L 4525 1200 
L 4525 -275 
L 4225 -450 
L 4225 1200 
L 3325 1200 
Q 3250 625 2962 175 
Q 2675 -275 2150 -625 
L 2100 -575 
Q 2575 -100 2800 425 
Q 3025 950 3037 1925 
Q 3050 2900 3050 3550 
Q 2775 3225 2500 2975 
L 2425 3025 
Q 2800 3475 3137 4062 
Q 3475 4650 3675 5250 
z
M 3375 3225 
L 3375 2350 
L 4225 2350 
L 4225 3225 
L 3375 3225 
z
M 4525 3225 
L 4525 2350 
L 5400 2350 
L 5400 3225 
L 4525 3225 
z
M 3375 2200 
L 3350 1350 
L 4225 1350 
L 4225 2200 
L 3375 2200 
z
M 4525 2200 
L 4525 1350 
L 5400 1350 
L 5400 2200 
L 4525 2200 
z
M 1250 2625 
L 1250 850 
L 2025 850 
L 2025 2625 
L 1250 2625 
z
M 925 -125 
Q 950 675 950 2275 
Q 650 1750 300 1400 
L 250 1450 
Q 950 2550 1325 4250 
L 1175 4250 
Q 850 4250 575 4175 
L 350 4400 
L 2150 4400 
L 2475 4700 
L 2875 4250 
L 1725 4250 
Q 1475 3525 1200 2775 
L 2000 2775 
L 2175 3000 
L 2550 2700 
L 2350 2550 
Q 2350 1200 2375 475 
L 2025 325 
L 2025 700 
L 1250 700 
L 1250 25 
L 925 -125 
z
" transform="scale(0.015625)"/>
        <path id="SimSun-7387" d="M 875 3725 
L 925 3800 
Q 1375 3650 1550 3525 
Q 1725 3400 1725 3250 
Q 1725 3175 1662 3025 
Q 1600 2875 1550 2875 
Q 1500 2875 1425 3050 
Q 1275 3325 875 3725 
z
M 550 1850 
Q 875 1925 2000 2575 
L 2050 2500 
Q 1675 2225 1337 1937 
Q 1000 1650 875 1425 
L 550 1850 
z
M 5200 3450 
Q 4800 3150 4275 2800 
L 4225 2875 
Q 4775 3400 5050 3925 
L 5450 3525 
L 5200 3450 
z
M 4325 2500 
L 4350 2575 
Q 5225 2350 5375 2212 
Q 5525 2075 5525 1900 
Q 5525 1775 5487 1662 
Q 5450 1550 5400 1550 
Q 5325 1550 5200 1800 
Q 4975 2150 4325 2500 
z
M 3150 3900 
Q 2500 3300 2300 3150 
Q 2800 3150 3400 3175 
Q 3700 3500 3850 3825 
L 4250 3450 
Q 4050 3400 3450 2825 
Q 2850 2250 2475 1950 
Q 3150 1975 3850 2000 
Q 3750 2175 3550 2450 
L 3600 2500 
Q 4050 2250 4200 2100 
Q 4350 1950 4350 1850 
Q 4350 1775 4250 1625 
Q 4150 1475 4100 1475 
Q 4075 1475 4050 1550 
Q 4000 1700 3900 1900 
Q 3650 1875 3075 1800 
L 3500 1550 
L 3325 1425 
L 3325 975 
L 5325 975 
L 5650 1300 
L 6100 825 
L 3325 825 
Q 3325 -275 3350 -525 
L 2975 -650 
Q 3000 0 3000 825 
L 1125 825 
Q 800 825 525 750 
L 300 975 
L 3000 975 
L 3000 1775 
Q 2450 1700 2200 1525 
L 1950 1950 
Q 2275 1950 2675 2350 
Q 3075 2750 3325 3050 
Q 2400 2950 2150 2775 
L 1950 3175 
Q 2150 3150 2475 3575 
Q 2800 4000 2900 4225 
L 1450 4225 
Q 1125 4225 850 4150 
L 625 4375 
L 3100 4375 
Q 3050 4800 2675 5200 
L 2725 5250 
Q 3225 5050 3337 4912 
Q 3450 4775 3450 4700 
Q 3450 4550 3250 4375 
L 5025 4375 
L 5350 4675 
L 5775 4225 
L 3050 4225 
L 3375 3950 
L 3150 3900 
z
" transform="scale(0.015625)"/>
       </defs>
       <use xlink:href="#SimSun-60c5"/>
       <use xlink:href="#SimSun-611f" x="100"/>
       <use xlink:href="#SimSun-5206" x="200"/>
       <use xlink:href="#SimSun-7c7b" x="300"/>
       <use xlink:href="#SimSun-51c6" x="400"/>
       <use xlink:href="#SimSun-786e" x="500"/>
       <use xlink:href="#SimSun-7387" x="600"/>
      </g>
     </g>
    </g>
    <g id="xtick_2">
     <g id="line2d_2">
      <g>
       <use xlink:href="#m2e4104f31c" x="356.354545" y="284.4" style="stroke: #000000; stroke-width: 0.8"/>
      </g>
     </g>
     <g id="text_2">
      <!-- 行动分类准确率 -->
      <g transform="translate(321.354545 298.479688) scale(0.1 -0.1)">
       <defs>
        <path id="SimSun-884c" d="M 2825 4550 
L 4950 4550 
L 5300 4875 
L 5725 4400 
L 3650 4400 
Q 3325 4400 3050 4325 
L 2825 4550 
z
M 3050 100 
Q 3725 50 3950 50 
Q 4175 50 4175 350 
L 4175 2900 
L 3225 2900 
Q 2900 2900 2625 2825 
L 2400 3050 
L 5275 3050 
L 5650 3400 
L 6075 2900 
L 4525 2900 
L 4525 225 
Q 4550 -450 3900 -575 
Q 3900 -225 3050 -25 
L 3050 100 
z
M 1825 5175 
L 2275 4825 
Q 2100 4775 1675 4300 
Q 1250 3800 600 3325 
L 550 3400 
Q 975 3800 1337 4312 
Q 1700 4825 1825 5175 
z
M 1875 2325 
L 1875 -400 
L 1500 -625 
Q 1525 -75 1525 2425 
Q 950 1825 400 1450 
L 350 1525 
Q 875 2050 1362 2700 
Q 1850 3350 2100 3950 
L 2525 3575 
L 2300 3450 
Q 1975 2975 1750 2700 
L 2025 2475 
L 1875 2325 
z
" transform="scale(0.015625)"/>
        <path id="SimSun-52a8" d="M 5950 3500 
L 5750 3325 
Q 5725 675 5587 137 
Q 5450 -400 4850 -575 
Q 4825 -300 4075 25 
L 4100 150 
Q 4625 25 4925 25 
Q 5075 25 5162 87 
Q 5250 150 5312 737 
Q 5375 1325 5425 3425 
L 4375 3425 
Q 4350 2475 4162 1725 
Q 3975 975 3487 400 
Q 3000 -175 2200 -625 
L 2125 -550 
Q 2925 0 3312 562 
Q 3700 1125 3862 1825 
Q 4025 2525 4050 3425 
L 3600 3425 
L 3300 3375 
L 3100 3575 
L 4050 3575 
Q 4050 4625 4025 5175 
L 4550 4925 
L 4375 4750 
L 4375 3575 
L 5375 3575 
L 5575 3800 
L 5950 3500 
z
M 475 4325 
L 2275 4325 
L 2575 4625 
L 3025 4175 
L 1200 4175 
Q 925 4175 700 4100 
L 475 4325 
z
M 275 3050 
L 2625 3050 
L 2925 3350 
L 3375 2900 
L 1700 2900 
L 2100 2600 
Q 1850 2500 1450 1875 
Q 1025 1250 675 875 
L 2650 1100 
Q 2400 1600 2125 2025 
L 2200 2075 
Q 3075 1275 3125 987 
Q 3175 700 3062 587 
Q 2950 475 2925 475 
Q 2850 475 2825 600 
Q 2775 775 2700 975 
Q 875 650 600 350 
L 325 850 
Q 600 925 1025 1687 
Q 1450 2450 1550 2900 
L 750 2900 
L 475 2850 
L 275 3050 
z
" transform="scale(0.015625)"/>
       </defs>
       <use xlink:href="#SimSun-884c"/>
       <use xlink:href="#SimSun-52a8" x="100"/>
       <use xlink:href="#SimSun-5206" x="200"/>
       <use xlink:href="#SimSun-7c7b" x="300"/>
       <use xlink:href="#SimSun-51c6" x="400"/>
       <use xlink:href="#SimSun-786e" x="500"/>
       <use xlink:href="#SimSun-7387" x="600"/>
      </g>
     </g>
    </g>
   </g>
   <g id="matplotlib.axis_2">
    <g id="ytick_1">
     <g id="line2d_3">
      <defs>
       <path id="mb658c08b09" d="M 0 0 
L -3.5 0 
" style="stroke: #000000; stroke-width: 0.8"/>
      </defs>
      <g>
       <use xlink:href="#mb658c08b09" x="31.7" y="284.4" style="stroke: #000000; stroke-width: 0.8"/>
      </g>
     </g>
     <g id="text_3">
      <!-- 0.30 -->
      <g transform="translate(7.2 287.871875) scale(0.1 -0.1)">
       <defs>
        <path id="TimesNewRomanPSMT-30" d="M 231 2094 
Q 231 2819 450 3342 
Q 669 3866 1031 4122 
Q 1313 4325 1613 4325 
Q 2100 4325 2488 3828 
Q 2972 3213 2972 2159 
Q 2972 1422 2759 906 
Q 2547 391 2217 158 
Q 1888 -75 1581 -75 
Q 975 -75 572 641 
Q 231 1244 231 2094 
z
M 844 2016 
Q 844 1141 1059 588 
Q 1238 122 1591 122 
Q 1759 122 1940 273 
Q 2122 425 2216 781 
Q 2359 1319 2359 2297 
Q 2359 3022 2209 3506 
Q 2097 3866 1919 4016 
Q 1791 4119 1609 4119 
Q 1397 4119 1231 3928 
Q 1006 3669 925 3112 
Q 844 2556 844 2016 
z
" transform="scale(0.015625)"/>
        <path id="TimesNewRomanPSMT-2e" d="M 800 606 
Q 947 606 1047 504 
Q 1147 403 1147 259 
Q 1147 116 1045 14 
Q 944 -88 800 -88 
Q 656 -88 554 14 
Q 453 116 453 259 
Q 453 406 554 506 
Q 656 606 800 606 
z
" transform="scale(0.015625)"/>
        <path id="TimesNewRomanPSMT-33" d="M 325 3431 
Q 506 3859 782 4092 
Q 1059 4325 1472 4325 
Q 1981 4325 2253 3994 
Q 2459 3747 2459 3466 
Q 2459 3003 1878 2509 
Q 2269 2356 2469 2072 
Q 2669 1788 2669 1403 
Q 2669 853 2319 450 
Q 1863 -75 997 -75 
Q 569 -75 414 31 
Q 259 138 259 259 
Q 259 350 332 419 
Q 406 488 509 488 
Q 588 488 669 463 
Q 722 447 909 348 
Q 1097 250 1169 231 
Q 1284 197 1416 197 
Q 1734 197 1970 444 
Q 2206 691 2206 1028 
Q 2206 1275 2097 1509 
Q 2016 1684 1919 1775 
Q 1784 1900 1550 2001 
Q 1316 2103 1072 2103 
L 972 2103 
L 972 2197 
Q 1219 2228 1467 2375 
Q 1716 2522 1828 2728 
Q 1941 2934 1941 3181 
Q 1941 3503 1739 3701 
Q 1538 3900 1238 3900 
Q 753 3900 428 3381 
L 325 3431 
z
" transform="scale(0.015625)"/>
       </defs>
       <use xlink:href="#TimesNewRomanPSMT-30"/>
       <use xlink:href="#TimesNewRomanPSMT-2e" x="50"/>
       <use xlink:href="#TimesNewRomanPSMT-33" x="75"/>
       <use xlink:href="#TimesNewRomanPSMT-30" x="125"/>
      </g>
     </g>
    </g>
    <g id="ytick_2">
     <g id="line2d_4">
      <g>
       <use xlink:href="#mb658c08b09" x="31.7" y="244.686533" style="stroke: #000000; stroke-width: 0.8"/>
      </g>
     </g>
     <g id="text_4">
      <!-- 0.35 -->
      <g transform="translate(7.2 248.158408) scale(0.1 -0.1)">
       <defs>
        <path id="TimesNewRomanPSMT-35" d="M 2778 4238 
L 2534 3706 
L 1259 3706 
L 981 3138 
Q 1809 3016 2294 2522 
Q 2709 2097 2709 1522 
Q 2709 1188 2573 903 
Q 2438 619 2231 419 
Q 2025 219 1772 97 
Q 1413 -75 1034 -75 
Q 653 -75 479 54 
Q 306 184 306 341 
Q 306 428 378 495 
Q 450 563 559 563 
Q 641 563 702 538 
Q 763 513 909 409 
Q 1144 247 1384 247 
Q 1750 247 2026 523 
Q 2303 800 2303 1197 
Q 2303 1581 2056 1914 
Q 1809 2247 1375 2428 
Q 1034 2569 447 2591 
L 1259 4238 
L 2778 4238 
z
" transform="scale(0.015625)"/>
       </defs>
       <use xlink:href="#TimesNewRomanPSMT-30"/>
       <use xlink:href="#TimesNewRomanPSMT-2e" x="50"/>
       <use xlink:href="#TimesNewRomanPSMT-33" x="75"/>
       <use xlink:href="#TimesNewRomanPSMT-35" x="125"/>
      </g>
     </g>
    </g>
    <g id="ytick_3">
     <g id="line2d_5">
      <g>
       <use xlink:href="#mb658c08b09" x="31.7" y="204.973066" style="stroke: #000000; stroke-width: 0.8"/>
      </g>
     </g>
     <g id="text_5">
      <!-- 0.40 -->
      <g transform="translate(7.2 208.444941) scale(0.1 -0.1)">
       <defs>
        <path id="TimesNewRomanPSMT-34" d="M 2978 1563 
L 2978 1119 
L 2409 1119 
L 2409 0 
L 1894 0 
L 1894 1119 
L 100 1119 
L 100 1519 
L 2066 4325 
L 2409 4325 
L 2409 1563 
L 2978 1563 
z
M 1894 1563 
L 1894 3666 
L 406 1563 
L 1894 1563 
z
" transform="scale(0.015625)"/>
       </defs>
       <use xlink:href="#TimesNewRomanPSMT-30"/>
       <use xlink:href="#TimesNewRomanPSMT-2e" x="50"/>
       <use xlink:href="#TimesNewRomanPSMT-34" x="75"/>
       <use xlink:href="#TimesNewRomanPSMT-30" x="125"/>
      </g>
     </g>
    </g>
    <g id="ytick_4">
     <g id="line2d_6">
      <g>
       <use xlink:href="#mb658c08b09" x="31.7" y="165.259599" style="stroke: #000000; stroke-width: 0.8"/>
      </g>
     </g>
     <g id="text_6">
      <!-- 0.45 -->
      <g transform="translate(7.2 168.731474) scale(0.1 -0.1)">
       <use xlink:href="#TimesNewRomanPSMT-30"/>
       <use xlink:href="#TimesNewRomanPSMT-2e" x="50"/>
       <use xlink:href="#TimesNewRomanPSMT-34" x="75"/>
       <use xlink:href="#TimesNewRomanPSMT-35" x="125"/>
      </g>
     </g>
    </g>
    <g id="ytick_5">
     <g id="line2d_7">
      <g>
       <use xlink:href="#mb658c08b09" x="31.7" y="125.546132" style="stroke: #000000; stroke-width: 0.8"/>
      </g>
     </g>
     <g id="text_7">
      <!-- 0.50 -->
      <g transform="translate(7.2 129.018007) scale(0.1 -0.1)">
       <use xlink:href="#TimesNewRomanPSMT-30"/>
       <use xlink:href="#TimesNewRomanPSMT-2e" x="50"/>
       <use xlink:href="#TimesNewRomanPSMT-35" x="75"/>
       <use xlink:href="#TimesNewRomanPSMT-30" x="125"/>
      </g>
     </g>
    </g>
    <g id="ytick_6">
     <g id="line2d_8">
      <g>
       <use xlink:href="#mb658c08b09" x="31.7" y="85.832665" style="stroke: #000000; stroke-width: 0.8"/>
      </g>
     </g>
     <g id="text_8">
      <!-- 0.55 -->
      <g transform="translate(7.2 89.30454) scale(0.1 -0.1)">
       <use xlink:href="#TimesNewRomanPSMT-30"/>
       <use xlink:href="#TimesNewRomanPSMT-2e" x="50"/>
       <use xlink:href="#TimesNewRomanPSMT-35" x="75"/>
       <use xlink:href="#TimesNewRomanPSMT-35" x="125"/>
      </g>
     </g>
    </g>
    <g id="ytick_7">
     <g id="line2d_9">
      <g>
       <use xlink:href="#mb658c08b09" x="31.7" y="46.119198" style="stroke: #000000; stroke-width: 0.8"/>
      </g>
     </g>
     <g id="text_9">
      <!-- 0.60 -->
      <g transform="translate(7.2 49.591073) scale(0.1 -0.1)">
       <defs>
        <path id="TimesNewRomanPSMT-36" d="M 2869 4325 
L 2869 4209 
Q 2456 4169 2195 4045 
Q 1934 3922 1679 3669 
Q 1425 3416 1258 3105 
Q 1091 2794 978 2366 
Q 1428 2675 1881 2675 
Q 2316 2675 2634 2325 
Q 2953 1975 2953 1425 
Q 2953 894 2631 456 
Q 2244 -75 1606 -75 
Q 1172 -75 869 213 
Q 275 772 275 1663 
Q 275 2231 503 2743 
Q 731 3256 1154 3653 
Q 1578 4050 1965 4187 
Q 2353 4325 2688 4325 
L 2869 4325 
z
M 925 2138 
Q 869 1716 869 1456 
Q 869 1156 980 804 
Q 1091 453 1309 247 
Q 1469 100 1697 100 
Q 1969 100 2183 356 
Q 2397 613 2397 1088 
Q 2397 1622 2184 2012 
Q 1972 2403 1581 2403 
Q 1463 2403 1327 2353 
Q 1191 2303 925 2138 
z
" transform="scale(0.015625)"/>
       </defs>
       <use xlink:href="#TimesNewRomanPSMT-30"/>
       <use xlink:href="#TimesNewRomanPSMT-2e" x="50"/>
       <use xlink:href="#TimesNewRomanPSMT-36" x="75"/>
       <use xlink:href="#TimesNewRomanPSMT-30" x="125"/>
      </g>
     </g>
    </g>
   </g>
   <g id="patch_13">
    <path d="M 31.7 284.4 
L 31.7 7.2 
" style="fill: none; stroke: #000000; stroke-width: 0.8; stroke-linejoin: miter; stroke-linecap: square"/>
   </g>
   <g id="patch_14">
    <path d="M 478.1 284.4 
L 478.1 7.2 
" style="fill: none; stroke: #000000; stroke-width: 0.8; stroke-linejoin: miter; stroke-linecap: square"/>
   </g>
   <g id="patch_15">
    <path d="M 31.7 284.4 
L 478.1 284.4 
" style="fill: none; stroke: #000000; stroke-width: 0.8; stroke-linejoin: miter; stroke-linecap: square"/>
   </g>
   <g id="patch_16">
    <path d="M 31.7 7.2 
L 478.1 7.2 
" style="fill: none; stroke: #000000; stroke-width: 0.8; stroke-linejoin: miter; stroke-linecap: square"/>
   </g>
   <g id="text_10">
    <!-- 0.6234 -->
    <g transform="translate(58.531818 25.150487) scale(0.1 -0.1)">
     <defs>
      <path id="TimesNewRomanPSMT-32" d="M 2934 816 
L 2638 0 
L 138 0 
L 138 116 
Q 1241 1122 1691 1759 
Q 2141 2397 2141 2925 
Q 2141 3328 1894 3587 
Q 1647 3847 1303 3847 
Q 991 3847 742 3664 
Q 494 3481 375 3128 
L 259 3128 
Q 338 3706 661 4015 
Q 984 4325 1469 4325 
Q 1984 4325 2329 3994 
Q 2675 3663 2675 3213 
Q 2675 2891 2525 2569 
Q 2294 2063 1775 1497 
Q 997 647 803 472 
L 1909 472 
Q 2247 472 2383 497 
Q 2519 522 2628 598 
Q 2738 675 2819 816 
L 2934 816 
z
" transform="scale(0.015625)"/>
     </defs>
     <use xlink:href="#TimesNewRomanPSMT-30"/>
     <use xlink:href="#TimesNewRomanPSMT-2e" x="50"/>
     <use xlink:href="#TimesNewRomanPSMT-36" x="75"/>
     <use xlink:href="#TimesNewRomanPSMT-32" x="125"/>
     <use xlink:href="#TimesNewRomanPSMT-33" x="175"/>
     <use xlink:href="#TimesNewRomanPSMT-34" x="225"/>
    </g>
   </g>
   <g id="text_11">
    <!-- 0.6333 -->
    <g transform="translate(99.113636 17.287221) scale(0.1 -0.1)">
     <use xlink:href="#TimesNewRomanPSMT-30"/>
     <use xlink:href="#TimesNewRomanPSMT-2e" x="50"/>
     <use xlink:href="#TimesNewRomanPSMT-36" x="75"/>
     <use xlink:href="#TimesNewRomanPSMT-33" x="125"/>
     <use xlink:href="#TimesNewRomanPSMT-33" x="175"/>
     <use xlink:href="#TimesNewRomanPSMT-33" x="225"/>
    </g>
   </g>
   <g id="text_12">
    <!-- 0.631 -->
    <g transform="translate(142.195455 19.11404) scale(0.1 -0.1)">
     <defs>
      <path id="TimesNewRomanPSMT-31" d="M 750 3822 
L 1781 4325 
L 1884 4325 
L 1884 747 
Q 1884 391 1914 303 
Q 1944 216 2037 169 
Q 2131 122 2419 116 
L 2419 0 
L 825 0 
L 825 116 
Q 1125 122 1212 167 
Q 1300 213 1334 289 
Q 1369 366 1369 747 
L 1369 3034 
Q 1369 3497 1338 3628 
Q 1316 3728 1258 3775 
Q 1200 3822 1119 3822 
Q 1003 3822 797 3725 
L 750 3822 
z
" transform="scale(0.015625)"/>
     </defs>
     <use xlink:href="#TimesNewRomanPSMT-30"/>
     <use xlink:href="#TimesNewRomanPSMT-2e" x="50"/>
     <use xlink:href="#TimesNewRomanPSMT-36" x="75"/>
     <use xlink:href="#TimesNewRomanPSMT-33" x="125"/>
     <use xlink:href="#TimesNewRomanPSMT-31" x="175"/>
    </g>
   </g>
   <g id="text_13">
    <!-- 0.6128 -->
    <g transform="translate(180.277273 33.569742) scale(0.1 -0.1)">
     <defs>
      <path id="TimesNewRomanPSMT-38" d="M 1228 2134 
Q 725 2547 579 2797 
Q 434 3047 434 3316 
Q 434 3728 753 4026 
Q 1072 4325 1600 4325 
Q 2113 4325 2425 4047 
Q 2738 3769 2738 3413 
Q 2738 3175 2569 2928 
Q 2400 2681 1866 2347 
Q 2416 1922 2594 1678 
Q 2831 1359 2831 1006 
Q 2831 559 2490 242 
Q 2150 -75 1597 -75 
Q 994 -75 656 303 
Q 388 606 388 966 
Q 388 1247 577 1523 
Q 766 1800 1228 2134 
z
M 1719 2469 
Q 2094 2806 2194 3001 
Q 2294 3197 2294 3444 
Q 2294 3772 2109 3958 
Q 1925 4144 1606 4144 
Q 1288 4144 1088 3959 
Q 888 3775 888 3528 
Q 888 3366 970 3203 
Q 1053 3041 1206 2894 
L 1719 2469 
z
M 1375 2016 
Q 1116 1797 991 1539 
Q 866 1281 866 981 
Q 866 578 1086 336 
Q 1306 94 1647 94 
Q 1984 94 2187 284 
Q 2391 475 2391 747 
Q 2391 972 2272 1150 
Q 2050 1481 1375 2016 
z
" transform="scale(0.015625)"/>
     </defs>
     <use xlink:href="#TimesNewRomanPSMT-30"/>
     <use xlink:href="#TimesNewRomanPSMT-2e" x="50"/>
     <use xlink:href="#TimesNewRomanPSMT-36" x="75"/>
     <use xlink:href="#TimesNewRomanPSMT-31" x="125"/>
     <use xlink:href="#TimesNewRomanPSMT-32" x="175"/>
     <use xlink:href="#TimesNewRomanPSMT-38" x="225"/>
    </g>
   </g>
   <g id="text_14">
    <!-- 0 -->
    <g transform="translate(232.109091 282.811461) scale(0.1 -0.1)">
     <use xlink:href="#TimesNewRomanPSMT-30"/>
    </g>
   </g>
   <g id="text_15">
    <!-- 0 -->
    <g transform="translate(272.690909 282.811461) scale(0.1 -0.1)">
     <use xlink:href="#TimesNewRomanPSMT-30"/>
    </g>
   </g>
   <g id="text_16">
    <!-- 0.3833 -->
    <g transform="translate(302.022727 215.854556) scale(0.1 -0.1)">
     <use xlink:href="#TimesNewRomanPSMT-30"/>
     <use xlink:href="#TimesNewRomanPSMT-2e" x="50"/>
     <use xlink:href="#TimesNewRomanPSMT-33" x="75"/>
     <use xlink:href="#TimesNewRomanPSMT-38" x="125"/>
     <use xlink:href="#TimesNewRomanPSMT-33" x="175"/>
     <use xlink:href="#TimesNewRomanPSMT-33" x="225"/>
    </g>
   </g>
   <g id="text_17">
    <!-- 0.463 -->
    <g transform="translate(345.104545 152.551289) scale(0.1 -0.1)">
     <use xlink:href="#TimesNewRomanPSMT-30"/>
     <use xlink:href="#TimesNewRomanPSMT-2e" x="50"/>
     <use xlink:href="#TimesNewRomanPSMT-34" x="75"/>
     <use xlink:href="#TimesNewRomanPSMT-36" x="125"/>
     <use xlink:href="#TimesNewRomanPSMT-33" x="175"/>
    </g>
   </g>
   <g id="text_18">
    <!-- 0.4673 -->
    <g transform="translate(383.186364 149.135931) scale(0.1 -0.1)">
     <defs>
      <path id="TimesNewRomanPSMT-37" d="M 644 4238 
L 2916 4238 
L 2916 4119 
L 1503 -88 
L 1153 -88 
L 2419 3728 
L 1253 3728 
Q 900 3728 750 3644 
Q 488 3500 328 3200 
L 238 3234 
L 644 4238 
z
" transform="scale(0.015625)"/>
     </defs>
     <use xlink:href="#TimesNewRomanPSMT-30"/>
     <use xlink:href="#TimesNewRomanPSMT-2e" x="50"/>
     <use xlink:href="#TimesNewRomanPSMT-34" x="75"/>
     <use xlink:href="#TimesNewRomanPSMT-36" x="125"/>
     <use xlink:href="#TimesNewRomanPSMT-37" x="175"/>
     <use xlink:href="#TimesNewRomanPSMT-33" x="225"/>
    </g>
   </g>
   <g id="text_19">
    <!-- 0.4668 -->
    <g transform="translate(423.768182 149.533066) scale(0.1 -0.1)">
     <use xlink:href="#TimesNewRomanPSMT-30"/>
     <use xlink:href="#TimesNewRomanPSMT-2e" x="50"/>
     <use xlink:href="#TimesNewRomanPSMT-34" x="75"/>
     <use xlink:href="#TimesNewRomanPSMT-36" x="125"/>
     <use xlink:href="#TimesNewRomanPSMT-36" x="175"/>
     <use xlink:href="#TimesNewRomanPSMT-38" x="225"/>
    </g>
   </g>
   <g id="legend_1">
    <g id="patch_17">
     <path d="M 408.6 85.895312 
L 471.1 85.895312 
Q 473.1 85.895312 473.1 83.895312 
L 473.1 14.2 
Q 473.1 12.2 471.1 12.2 
L 408.6 12.2 
Q 406.6 12.2 406.6 14.2 
L 406.6 83.895312 
Q 406.6 85.895312 408.6 85.895312 
z
" style="fill: #ffffff; opacity: 0.8; stroke: #cccccc; stroke-linejoin: miter"/>
    </g>
    <g id="patch_18">
     <path d="M 410.6 23.2 
L 430.6 23.2 
L 430.6 16.2 
L 410.6 16.2 
z
" style="fill: #e86254"/>
    </g>
    <g id="text_20">
     <!-- $\alpha=0$ -->
     <g transform="translate(438.6 23.2) scale(0.1 -0.1)">
      <defs>
       <path id="Cmmi10-ae" d="M 1288 -72 
Q 984 -72 748 72 
Q 513 216 384 459 
Q 256 703 256 1013 
Q 256 1447 498 1872 
Q 741 2297 1142 2562 
Q 1544 2828 1984 2828 
Q 2309 2828 2556 2658 
Q 2803 2488 2931 2205 
Q 3059 1922 3059 1600 
L 3066 1172 
Q 3284 1475 3436 1801 
Q 3588 2128 3669 2478 
Q 3681 2516 3719 2516 
L 3794 2516 
Q 3853 2516 3853 2456 
Q 3853 2450 3847 2438 
Q 3772 2144 3659 1873 
Q 3547 1603 3395 1350 
Q 3244 1097 3066 891 
Q 3066 97 3250 97 
Q 3369 97 3445 167 
Q 3522 238 3580 341 
Q 3638 444 3653 447 
L 3731 447 
Q 3781 447 3781 384 
Q 3781 225 3598 76 
Q 3416 -72 3238 -72 
Q 3006 -72 2853 78 
Q 2700 228 2644 469 
Q 2344 213 1994 70 
Q 1644 -72 1288 -72 
z
M 1300 97 
Q 1984 97 2613 659 
Q 2609 697 2603 751 
Q 2597 806 2597 813 
L 2597 1503 
Q 2597 2663 1972 2663 
Q 1597 2663 1315 2342 
Q 1034 2022 892 1576 
Q 750 1131 750 763 
Q 750 484 892 290 
Q 1034 97 1300 97 
z
" transform="scale(0.015625)"/>
       <path id="Cmr10-3d" d="M 481 850 
Q 428 850 393 890 
Q 359 931 359 978 
Q 359 1031 393 1068 
Q 428 1106 481 1106 
L 4500 1106 
Q 4547 1106 4581 1068 
Q 4616 1031 4616 978 
Q 4616 931 4581 890 
Q 4547 850 4500 850 
L 481 850 
z
M 481 2094 
Q 428 2094 393 2131 
Q 359 2169 359 2222 
Q 359 2269 393 2309 
Q 428 2350 481 2350 
L 4500 2350 
Q 4547 2350 4581 2309 
Q 4616 2269 4616 2222 
Q 4616 2169 4581 2131 
Q 4547 2094 4500 2094 
L 481 2094 
z
" transform="scale(0.015625)"/>
       <path id="Cmr10-30" d="M 1600 -141 
Q 816 -141 533 504 
Q 250 1150 250 2041 
Q 250 2597 351 3087 
Q 453 3578 754 3920 
Q 1056 4263 1600 4263 
Q 2022 4263 2290 4056 
Q 2559 3850 2700 3523 
Q 2841 3197 2892 2823 
Q 2944 2450 2944 2041 
Q 2944 1491 2842 1011 
Q 2741 531 2444 195 
Q 2147 -141 1600 -141 
z
M 1600 25 
Q 1956 25 2131 390 
Q 2306 756 2347 1200 
Q 2388 1644 2388 2144 
Q 2388 2625 2347 3031 
Q 2306 3438 2132 3767 
Q 1959 4097 1600 4097 
Q 1238 4097 1063 3765 
Q 888 3434 847 3029 
Q 806 2625 806 2144 
Q 806 1788 823 1472 
Q 841 1156 916 820 
Q 991 484 1158 254 
Q 1325 25 1600 25 
z
" transform="scale(0.015625)"/>
      </defs>
      <use xlink:href="#Cmmi10-ae" transform="translate(0 0.390625)"/>
      <use xlink:href="#Cmr10-3d" transform="translate(81.474609 0.390625)"/>
      <use xlink:href="#Cmr10-30" transform="translate(176.71875 0.390625)"/>
     </g>
    </g>
    <g id="patch_19">
     <path d="M 410.6 37.339063 
L 430.6 37.339063 
L 430.6 30.339063 
L 410.6 30.339063 
z
" style="fill: #ef8a46"/>
    </g>
    <g id="text_21">
     <!-- $\alpha=0.5$ -->
     <g transform="translate(438.6 37.339063) scale(0.1 -0.1)">
      <defs>
       <path id="Cmmi10-3a" d="M 538 353 
Q 538 497 644 600 
Q 750 703 891 703 
Q 978 703 1062 656 
Q 1147 609 1194 525 
Q 1241 441 1241 353 
Q 1241 213 1137 106 
Q 1034 0 891 0 
Q 750 0 644 106 
Q 538 213 538 353 
z
" transform="scale(0.015625)"/>
       <path id="Cmr10-35" d="M 556 728 
Q 622 541 758 387 
Q 894 234 1080 148 
Q 1266 63 1466 63 
Q 1928 63 2103 422 
Q 2278 781 2278 1294 
Q 2278 1516 2270 1667 
Q 2263 1819 2228 1959 
Q 2169 2184 2020 2353 
Q 1872 2522 1656 2522 
Q 1441 2522 1286 2456 
Q 1131 2391 1034 2303 
Q 938 2216 863 2119 
Q 788 2022 769 2016 
L 697 2016 
Q 681 2016 657 2036 
Q 634 2056 634 2075 
L 634 4213 
Q 634 4228 654 4245 
Q 675 4263 697 4263 
L 716 4263 
Q 1147 4056 1631 4056 
Q 2106 4056 2547 4263 
L 2566 4263 
Q 2588 4263 2606 4247 
Q 2625 4231 2625 4213 
L 2625 4153 
Q 2625 4122 2613 4122 
Q 2394 3831 2064 3668 
Q 1734 3506 1381 3506 
Q 1125 3506 856 3578 
L 856 2369 
Q 1069 2541 1236 2614 
Q 1403 2688 1663 2688 
Q 2016 2688 2295 2484 
Q 2575 2281 2725 1954 
Q 2875 1628 2875 1288 
Q 2875 903 2686 575 
Q 2497 247 2172 53 
Q 1847 -141 1466 -141 
Q 1150 -141 886 21 
Q 622 184 470 459 
Q 319 734 319 1044 
Q 319 1188 412 1278 
Q 506 1369 647 1369 
Q 788 1369 883 1276 
Q 978 1184 978 1044 
Q 978 906 883 811 
Q 788 716 647 716 
Q 625 716 597 720 
Q 569 725 556 728 
z
" transform="scale(0.015625)"/>
      </defs>
      <use xlink:href="#Cmmi10-ae" transform="translate(0 0.390625)"/>
      <use xlink:href="#Cmr10-3d" transform="translate(81.474609 0.390625)"/>
      <use xlink:href="#Cmr10-30" transform="translate(176.71875 0.390625)"/>
      <use xlink:href="#Cmmi10-3a" transform="translate(226.71875 0.390625)"/>
      <use xlink:href="#Cmr10-35" transform="translate(254.404297 0.390625)"/>
     </g>
    </g>
    <g id="patch_20">
     <path d="M 410.6 51.478125 
L 430.6 51.478125 
L 430.6 44.478125 
L 410.6 44.478125 
z
" style="fill: #f8aa59"/>
    </g>
    <g id="text_22">
     <!-- $\alpha=1$ -->
     <g transform="translate(438.6 51.478125) scale(0.1 -0.1)">
      <defs>
       <path id="Cmr10-31" d="M 594 0 
L 594 225 
Q 1394 225 1394 428 
L 1394 3788 
Q 1063 3628 556 3628 
L 556 3853 
Q 1341 3853 1741 4263 
L 1831 4263 
Q 1853 4263 1873 4245 
Q 1894 4228 1894 4206 
L 1894 428 
Q 1894 225 2694 225 
L 2694 0 
L 594 0 
z
" transform="scale(0.015625)"/>
      </defs>
      <use xlink:href="#Cmmi10-ae" transform="translate(0 0.390625)"/>
      <use xlink:href="#Cmr10-3d" transform="translate(81.474609 0.390625)"/>
      <use xlink:href="#Cmr10-31" transform="translate(176.71875 0.390625)"/>
     </g>
    </g>
    <g id="patch_21">
     <path d="M 410.6 65.617188 
L 430.6 65.617188 
L 430.6 58.617188 
L 410.6 58.617188 
z
" style="fill: #ffd06e"/>
    </g>
    <g id="text_23">
     <!-- $\alpha=5$ -->
     <g transform="translate(438.6 65.617188) scale(0.1 -0.1)">
      <use xlink:href="#Cmmi10-ae" transform="translate(0 0.390625)"/>
      <use xlink:href="#Cmr10-3d" transform="translate(81.474609 0.390625)"/>
      <use xlink:href="#Cmr10-35" transform="translate(176.71875 0.390625)"/>
     </g>
    </g>
    <g id="patch_22">
     <path d="M 410.6 79.75625 
L 430.6 79.75625 
L 430.6 72.75625 
L 410.6 72.75625 
z
" style="fill: #fee6b5"/>
    </g>
    <g id="text_24">
     <!-- $\alpha=\infty$ -->
     <g transform="translate(438.6 79.75625) scale(0.1 -0.1)">
      <defs>
       <path id="Cmsy10-31" d="M 1575 -72 
Q 1213 -72 933 140 
Q 653 353 506 690 
Q 359 1028 359 1381 
Q 359 1653 445 1912 
Q 531 2172 693 2378 
Q 856 2584 1086 2706 
Q 1316 2828 1594 2828 
Q 1881 2828 2150 2718 
Q 2419 2609 2642 2428 
Q 2866 2247 3059 2009 
L 3250 1753 
Q 3441 2056 3672 2295 
Q 3903 2534 4195 2681 
Q 4488 2828 4819 2828 
Q 5097 2828 5325 2704 
Q 5553 2581 5712 2368 
Q 5872 2156 5953 1898 
Q 6034 1641 6034 1381 
Q 6034 1019 5882 683 
Q 5731 347 5451 137 
Q 5172 -72 4800 -72 
Q 4381 -72 4004 153 
Q 3628 378 3334 750 
L 3144 1006 
Q 2850 528 2451 228 
Q 2053 -72 1575 -72 
z
M 1509 153 
Q 2322 153 2963 1241 
L 2625 1672 
Q 2331 2059 2078 2278 
Q 1825 2497 1491 2497 
Q 1206 2497 986 2336 
Q 766 2175 645 1915 
Q 525 1656 525 1375 
Q 525 1159 592 942 
Q 659 725 787 547 
Q 916 369 1098 261 
Q 1281 153 1509 153 
z
M 3769 1088 
Q 4063 700 4316 481 
Q 4569 263 4903 263 
Q 5116 263 5294 356 
Q 5472 450 5601 609 
Q 5731 769 5800 969 
Q 5869 1169 5869 1381 
Q 5869 1678 5750 1961 
Q 5631 2244 5407 2425 
Q 5184 2606 4884 2606 
Q 4072 2606 3431 1516 
L 3769 1088 
z
" transform="scale(0.015625)"/>
      </defs>
      <use xlink:href="#Cmmi10-ae" transform="translate(0 0.8125)"/>
      <use xlink:href="#Cmr10-3d" transform="translate(81.474609 0.8125)"/>
      <use xlink:href="#Cmsy10-31" transform="translate(176.71875 0.8125)"/>
     </g>
    </g>
   </g>
  </g>
 </g>
 <defs>
  <clipPath id="p679fa52578">
   <rect x="31.7" y="7.2" width="446.4" height="277.2"/>
  </clipPath>
 </defs>
</svg>
