<?xml version="1.0" encoding="utf-8" standalone="no"?>
<!DOCTYPE svg PUBLIC "-//W3C//DTD SVG 1.1//EN"
  "http://www.w3.org/Graphics/SVG/1.1/DTD/svg11.dtd">
<svg xmlns:xlink="http://www.w3.org/1999/xlink" width="703.5pt" height="252.242813pt" viewBox="0 0 703.5 252.242813" xmlns="http://www.w3.org/2000/svg" version="1.1">
 <metadata>
  <rdf:RDF xmlns:dc="http://purl.org/dc/elements/1.1/" xmlns:cc="http://creativecommons.org/ns#" xmlns:rdf="http://www.w3.org/1999/02/22-rdf-syntax-ns#">
   <cc:Work>
    <dc:type rdf:resource="http://purl.org/dc/dcmitype/StillImage"/>
    <dc:date>2024-01-10T15:36:26.524828</dc:date>
    <dc:format>image/svg+xml</dc:format>
    <dc:creator>
     <cc:Agent>
      <dc:title>Matplotlib v3.8.2, https://matplotlib.org/</dc:title>
     </cc:Agent>
    </dc:creator>
   </cc:Work>
  </rdf:RDF>
 </metadata>
 <defs>
  <style type="text/css">*{stroke-linejoin: round; stroke-linecap: butt}</style>
 </defs>
 <g id="figure_1">
  <g id="patch_1">
   <path d="M 0 252.242813 
L 703.5 252.242813 
L 703.5 0 
L 0 0 
z
" style="fill: #ffffff"/>
  </g>
  <g id="axes_1">
   <g id="patch_2">
    <path d="M 26.7 228.96 
L 696.3 228.96 
L 696.3 7.2 
L 26.7 7.2 
z
" style="fill: #ffffff"/>
   </g>
   <g id="PathCollection_1">
    <defs>
     <path id="m06b454c8e8" d="M 0 3 
C 0.795609 3 1.55874 2.683901 2.12132 2.12132 
C 2.683901 1.55874 3 0.795609 3 0 
C 3 -0.795609 2.683901 -1.55874 2.12132 -2.12132 
C 1.55874 -2.683901 0.795609 -3 0 -3 
C -0.795609 -3 -1.55874 -2.683901 -2.12132 -2.12132 
C -2.683901 -1.55874 -3 -0.795609 -3 0 
C -3 0.795609 -2.683901 1.55874 -2.12132 2.12132 
C -1.55874 2.683901 -0.795609 3 0 3 
z
" style="stroke: #e86254; stroke-opacity: 0.5"/>
    </defs>
    <g clip-path="url(#p57f963f26e)">
     <use xlink:href="#m06b454c8e8" x="132.056643" y="29.046025" style="fill: #e86254; fill-opacity: 0.5; stroke: #e86254; stroke-opacity: 0.5"/>
    </g>
   </g>
   <g id="PathCollection_2">
    <defs>
     <path id="mf443c08e39" d="M 0 3 
C 0.795609 3 1.55874 2.683901 2.12132 2.12132 
C 2.683901 1.55874 3 0.795609 3 0 
C 3 -0.795609 2.683901 -1.55874 2.12132 -2.12132 
C 1.55874 -2.683901 0.795609 -3 0 -3 
C -0.795609 -3 -1.55874 -2.683901 -2.12132 -2.12132 
C -2.683901 -1.55874 -3 -0.795609 -3 0 
C -3 0.795609 -2.683901 1.55874 -2.12132 2.12132 
C -1.55874 2.683901 -0.795609 3 0 3 
z
" style="stroke: #ffd06e; stroke-opacity: 0.5"/>
    </defs>
    <g clip-path="url(#p57f963f26e)">
     <use xlink:href="#mf443c08e39" x="125.032867" y="32.332625" style="fill: #ffd06e; fill-opacity: 0.5; stroke: #ffd06e; stroke-opacity: 0.5"/>
    </g>
   </g>
   <g id="PathCollection_3">
    <defs>
     <path id="m142ec075d5" d="M 0 3 
C 0.795609 3 1.55874 2.683901 2.12132 2.12132 
C 2.683901 1.55874 3 0.795609 3 0 
C 3 -0.795609 2.683901 -1.55874 2.12132 -2.12132 
C 1.55874 -2.683901 0.795609 -3 0 -3 
C -0.795609 -3 -1.55874 -2.683901 -2.12132 -2.12132 
C -2.683901 -1.55874 -3 -0.795609 -3 0 
C -3 0.795609 -2.683901 1.55874 -2.12132 2.12132 
C -1.55874 2.683901 -0.795609 3 0 3 
z
" style="stroke: #386795; stroke-opacity: 0.5"/>
    </defs>
    <g clip-path="url(#p57f963f26e)">
     <use xlink:href="#m142ec075d5" x="197.611888" y="17.28" style="fill: #386795; fill-opacity: 0.5; stroke: #386795; stroke-opacity: 0.5"/>
    </g>
   </g>
   <g id="matplotlib.axis_1">
    <g id="xtick_1">
     <g id="line2d_1">
      <defs>
       <path id="m46e870b282" d="M 0 0 
L 0 3.5 
" style="stroke: #000000; stroke-width: 0.8"/>
      </defs>
      <g>
       <use xlink:href="#m46e870b282" x="57.136364" y="228.96" style="stroke: #000000; stroke-width: 0.8"/>
      </g>
     </g>
     <g id="text_1">
      <!-- 0 -->
      <g transform="translate(54.636364 242.90375) scale(0.1 -0.1)">
       <defs>
        <path id="TimesNewRomanPSMT-30" d="M 231 2094 
Q 231 2819 450 3342 
Q 669 3866 1031 4122 
Q 1313 4325 1613 4325 
Q 2100 4325 2488 3828 
Q 2972 3213 2972 2159 
Q 2972 1422 2759 906 
Q 2547 391 2217 158 
Q 1888 -75 1581 -75 
Q 975 -75 572 641 
Q 231 1244 231 2094 
z
M 844 2016 
Q 844 1141 1059 588 
Q 1238 122 1591 122 
Q 1759 122 1940 273 
Q 2122 425 2216 781 
Q 2359 1319 2359 2297 
Q 2359 3022 2209 3506 
Q 2097 3866 1919 4016 
Q 1791 4119 1609 4119 
Q 1397 4119 1231 3928 
Q 1006 3669 925 3112 
Q 844 2556 844 2016 
z
" transform="scale(0.015625)"/>
       </defs>
       <use xlink:href="#TimesNewRomanPSMT-30"/>
      </g>
     </g>
    </g>
    <g id="xtick_2">
     <g id="line2d_2">
      <g>
       <use xlink:href="#m46e870b282" x="150.786713" y="228.96" style="stroke: #000000; stroke-width: 0.8"/>
      </g>
     </g>
     <g id="text_2">
      <!-- 200 -->
      <g transform="translate(143.286713 242.90375) scale(0.1 -0.1)">
       <defs>
        <path id="TimesNewRomanPSMT-32" d="M 2934 816 
L 2638 0 
L 138 0 
L 138 116 
Q 1241 1122 1691 1759 
Q 2141 2397 2141 2925 
Q 2141 3328 1894 3587 
Q 1647 3847 1303 3847 
Q 991 3847 742 3664 
Q 494 3481 375 3128 
L 259 3128 
Q 338 3706 661 4015 
Q 984 4325 1469 4325 
Q 1984 4325 2329 3994 
Q 2675 3663 2675 3213 
Q 2675 2891 2525 2569 
Q 2294 2063 1775 1497 
Q 997 647 803 472 
L 1909 472 
Q 2247 472 2383 497 
Q 2519 522 2628 598 
Q 2738 675 2819 816 
L 2934 816 
z
" transform="scale(0.015625)"/>
       </defs>
       <use xlink:href="#TimesNewRomanPSMT-32"/>
       <use xlink:href="#TimesNewRomanPSMT-30" x="50"/>
       <use xlink:href="#TimesNewRomanPSMT-30" x="100"/>
      </g>
     </g>
    </g>
    <g id="xtick_3">
     <g id="line2d_3">
      <g>
       <use xlink:href="#m46e870b282" x="244.437063" y="228.96" style="stroke: #000000; stroke-width: 0.8"/>
      </g>
     </g>
     <g id="text_3">
      <!-- 400 -->
      <g transform="translate(236.937063 242.90375) scale(0.1 -0.1)">
       <defs>
        <path id="TimesNewRomanPSMT-34" d="M 2978 1563 
L 2978 1119 
L 2409 1119 
L 2409 0 
L 1894 0 
L 1894 1119 
L 100 1119 
L 100 1519 
L 2066 4325 
L 2409 4325 
L 2409 1563 
L 2978 1563 
z
M 1894 1563 
L 1894 3666 
L 406 1563 
L 1894 1563 
z
" transform="scale(0.015625)"/>
       </defs>
       <use xlink:href="#TimesNewRomanPSMT-34"/>
       <use xlink:href="#TimesNewRomanPSMT-30" x="50"/>
       <use xlink:href="#TimesNewRomanPSMT-30" x="100"/>
      </g>
     </g>
    </g>
    <g id="xtick_4">
     <g id="line2d_4">
      <g>
       <use xlink:href="#m46e870b282" x="338.087413" y="228.96" style="stroke: #000000; stroke-width: 0.8"/>
      </g>
     </g>
     <g id="text_4">
      <!-- 600 -->
      <g transform="translate(330.587413 242.90375) scale(0.1 -0.1)">
       <defs>
        <path id="TimesNewRomanPSMT-36" d="M 2869 4325 
L 2869 4209 
Q 2456 4169 2195 4045 
Q 1934 3922 1679 3669 
Q 1425 3416 1258 3105 
Q 1091 2794 978 2366 
Q 1428 2675 1881 2675 
Q 2316 2675 2634 2325 
Q 2953 1975 2953 1425 
Q 2953 894 2631 456 
Q 2244 -75 1606 -75 
Q 1172 -75 869 213 
Q 275 772 275 1663 
Q 275 2231 503 2743 
Q 731 3256 1154 3653 
Q 1578 4050 1965 4187 
Q 2353 4325 2688 4325 
L 2869 4325 
z
M 925 2138 
Q 869 1716 869 1456 
Q 869 1156 980 804 
Q 1091 453 1309 247 
Q 1469 100 1697 100 
Q 1969 100 2183 356 
Q 2397 613 2397 1088 
Q 2397 1622 2184 2012 
Q 1972 2403 1581 2403 
Q 1463 2403 1327 2353 
Q 1191 2303 925 2138 
z
" transform="scale(0.015625)"/>
       </defs>
       <use xlink:href="#TimesNewRomanPSMT-36"/>
       <use xlink:href="#TimesNewRomanPSMT-30" x="50"/>
       <use xlink:href="#TimesNewRomanPSMT-30" x="100"/>
      </g>
     </g>
    </g>
    <g id="xtick_5">
     <g id="line2d_5">
      <g>
       <use xlink:href="#m46e870b282" x="431.737762" y="228.96" style="stroke: #000000; stroke-width: 0.8"/>
      </g>
     </g>
     <g id="text_5">
      <!-- 800 -->
      <g transform="translate(424.237762 242.90375) scale(0.1 -0.1)">
       <defs>
        <path id="TimesNewRomanPSMT-38" d="M 1228 2134 
Q 725 2547 579 2797 
Q 434 3047 434 3316 
Q 434 3728 753 4026 
Q 1072 4325 1600 4325 
Q 2113 4325 2425 4047 
Q 2738 3769 2738 3413 
Q 2738 3175 2569 2928 
Q 2400 2681 1866 2347 
Q 2416 1922 2594 1678 
Q 2831 1359 2831 1006 
Q 2831 559 2490 242 
Q 2150 -75 1597 -75 
Q 994 -75 656 303 
Q 388 606 388 966 
Q 388 1247 577 1523 
Q 766 1800 1228 2134 
z
M 1719 2469 
Q 2094 2806 2194 3001 
Q 2294 3197 2294 3444 
Q 2294 3772 2109 3958 
Q 1925 4144 1606 4144 
Q 1288 4144 1088 3959 
Q 888 3775 888 3528 
Q 888 3366 970 3203 
Q 1053 3041 1206 2894 
L 1719 2469 
z
M 1375 2016 
Q 1116 1797 991 1539 
Q 866 1281 866 981 
Q 866 578 1086 336 
Q 1306 94 1647 94 
Q 1984 94 2187 284 
Q 2391 475 2391 747 
Q 2391 972 2272 1150 
Q 2050 1481 1375 2016 
z
" transform="scale(0.015625)"/>
       </defs>
       <use xlink:href="#TimesNewRomanPSMT-38"/>
       <use xlink:href="#TimesNewRomanPSMT-30" x="50"/>
       <use xlink:href="#TimesNewRomanPSMT-30" x="100"/>
      </g>
     </g>
    </g>
    <g id="xtick_6">
     <g id="line2d_6">
      <g>
       <use xlink:href="#m46e870b282" x="525.388112" y="228.96" style="stroke: #000000; stroke-width: 0.8"/>
      </g>
     </g>
     <g id="text_6">
      <!-- 1000 -->
      <g transform="translate(515.388112 242.90375) scale(0.1 -0.1)">
       <defs>
        <path id="TimesNewRomanPSMT-31" d="M 750 3822 
L 1781 4325 
L 1884 4325 
L 1884 747 
Q 1884 391 1914 303 
Q 1944 216 2037 169 
Q 2131 122 2419 116 
L 2419 0 
L 825 0 
L 825 116 
Q 1125 122 1212 167 
Q 1300 213 1334 289 
Q 1369 366 1369 747 
L 1369 3034 
Q 1369 3497 1338 3628 
Q 1316 3728 1258 3775 
Q 1200 3822 1119 3822 
Q 1003 3822 797 3725 
L 750 3822 
z
" transform="scale(0.015625)"/>
       </defs>
       <use xlink:href="#TimesNewRomanPSMT-31"/>
       <use xlink:href="#TimesNewRomanPSMT-30" x="50"/>
       <use xlink:href="#TimesNewRomanPSMT-30" x="100"/>
       <use xlink:href="#TimesNewRomanPSMT-30" x="150"/>
      </g>
     </g>
    </g>
    <g id="xtick_7">
     <g id="line2d_7">
      <g>
       <use xlink:href="#m46e870b282" x="619.038462" y="228.96" style="stroke: #000000; stroke-width: 0.8"/>
      </g>
     </g>
     <g id="text_7">
      <!-- 1200 -->
      <g transform="translate(609.038462 242.90375) scale(0.1 -0.1)">
       <use xlink:href="#TimesNewRomanPSMT-31"/>
       <use xlink:href="#TimesNewRomanPSMT-32" x="50"/>
       <use xlink:href="#TimesNewRomanPSMT-30" x="100"/>
       <use xlink:href="#TimesNewRomanPSMT-30" x="150"/>
      </g>
     </g>
    </g>
   </g>
   <g id="matplotlib.axis_2">
    <g id="ytick_1">
     <g id="line2d_8">
      <defs>
       <path id="m726a96ee58" d="M 0 0 
L -3.5 0 
" style="stroke: #000000; stroke-width: 0.8"/>
      </defs>
      <g>
       <use xlink:href="#m726a96ee58" x="26.7" y="213.194183" style="stroke: #000000; stroke-width: 0.8"/>
      </g>
     </g>
     <g id="text_8">
      <!-- 0.1 -->
      <g transform="translate(7.2 216.666058) scale(0.1 -0.1)">
       <defs>
        <path id="TimesNewRomanPSMT-2e" d="M 800 606 
Q 947 606 1047 504 
Q 1147 403 1147 259 
Q 1147 116 1045 14 
Q 944 -88 800 -88 
Q 656 -88 554 14 
Q 453 116 453 259 
Q 453 406 554 506 
Q 656 606 800 606 
z
" transform="scale(0.015625)"/>
       </defs>
       <use xlink:href="#TimesNewRomanPSMT-30"/>
       <use xlink:href="#TimesNewRomanPSMT-2e" x="50"/>
       <use xlink:href="#TimesNewRomanPSMT-31" x="75"/>
      </g>
     </g>
    </g>
    <g id="ytick_2">
     <g id="line2d_9">
      <g>
       <use xlink:href="#m726a96ee58" x="26.7" y="180.32819" style="stroke: #000000; stroke-width: 0.8"/>
      </g>
     </g>
     <g id="text_9">
      <!-- 0.2 -->
      <g transform="translate(7.2 183.800065) scale(0.1 -0.1)">
       <use xlink:href="#TimesNewRomanPSMT-30"/>
       <use xlink:href="#TimesNewRomanPSMT-2e" x="50"/>
       <use xlink:href="#TimesNewRomanPSMT-32" x="75"/>
      </g>
     </g>
    </g>
    <g id="ytick_3">
     <g id="line2d_10">
      <g>
       <use xlink:href="#m726a96ee58" x="26.7" y="147.462198" style="stroke: #000000; stroke-width: 0.8"/>
      </g>
     </g>
     <g id="text_10">
      <!-- 0.3 -->
      <g transform="translate(7.2 150.934073) scale(0.1 -0.1)">
       <defs>
        <path id="TimesNewRomanPSMT-33" d="M 325 3431 
Q 506 3859 782 4092 
Q 1059 4325 1472 4325 
Q 1981 4325 2253 3994 
Q 2459 3747 2459 3466 
Q 2459 3003 1878 2509 
Q 2269 2356 2469 2072 
Q 2669 1788 2669 1403 
Q 2669 853 2319 450 
Q 1863 -75 997 -75 
Q 569 -75 414 31 
Q 259 138 259 259 
Q 259 350 332 419 
Q 406 488 509 488 
Q 588 488 669 463 
Q 722 447 909 348 
Q 1097 250 1169 231 
Q 1284 197 1416 197 
Q 1734 197 1970 444 
Q 2206 691 2206 1028 
Q 2206 1275 2097 1509 
Q 2016 1684 1919 1775 
Q 1784 1900 1550 2001 
Q 1316 2103 1072 2103 
L 972 2103 
L 972 2197 
Q 1219 2228 1467 2375 
Q 1716 2522 1828 2728 
Q 1941 2934 1941 3181 
Q 1941 3503 1739 3701 
Q 1538 3900 1238 3900 
Q 753 3900 428 3381 
L 325 3431 
z
" transform="scale(0.015625)"/>
       </defs>
       <use xlink:href="#TimesNewRomanPSMT-30"/>
       <use xlink:href="#TimesNewRomanPSMT-2e" x="50"/>
       <use xlink:href="#TimesNewRomanPSMT-33" x="75"/>
      </g>
     </g>
    </g>
    <g id="ytick_4">
     <g id="line2d_11">
      <g>
       <use xlink:href="#m726a96ee58" x="26.7" y="114.596205" style="stroke: #000000; stroke-width: 0.8"/>
      </g>
     </g>
     <g id="text_11">
      <!-- 0.4 -->
      <g transform="translate(7.2 118.06808) scale(0.1 -0.1)">
       <use xlink:href="#TimesNewRomanPSMT-30"/>
       <use xlink:href="#TimesNewRomanPSMT-2e" x="50"/>
       <use xlink:href="#TimesNewRomanPSMT-34" x="75"/>
      </g>
     </g>
    </g>
    <g id="ytick_5">
     <g id="line2d_12">
      <g>
       <use xlink:href="#m726a96ee58" x="26.7" y="81.730212" style="stroke: #000000; stroke-width: 0.8"/>
      </g>
     </g>
     <g id="text_12">
      <!-- 0.5 -->
      <g transform="translate(7.2 85.202087) scale(0.1 -0.1)">
       <defs>
        <path id="TimesNewRomanPSMT-35" d="M 2778 4238 
L 2534 3706 
L 1259 3706 
L 981 3138 
Q 1809 3016 2294 2522 
Q 2709 2097 2709 1522 
Q 2709 1188 2573 903 
Q 2438 619 2231 419 
Q 2025 219 1772 97 
Q 1413 -75 1034 -75 
Q 653 -75 479 54 
Q 306 184 306 341 
Q 306 428 378 495 
Q 450 563 559 563 
Q 641 563 702 538 
Q 763 513 909 409 
Q 1144 247 1384 247 
Q 1750 247 2026 523 
Q 2303 800 2303 1197 
Q 2303 1581 2056 1914 
Q 1809 2247 1375 2428 
Q 1034 2569 447 2591 
L 1259 4238 
L 2778 4238 
z
" transform="scale(0.015625)"/>
       </defs>
       <use xlink:href="#TimesNewRomanPSMT-30"/>
       <use xlink:href="#TimesNewRomanPSMT-2e" x="50"/>
       <use xlink:href="#TimesNewRomanPSMT-35" x="75"/>
      </g>
     </g>
    </g>
    <g id="ytick_6">
     <g id="line2d_13">
      <g>
       <use xlink:href="#m726a96ee58" x="26.7" y="48.864219" style="stroke: #000000; stroke-width: 0.8"/>
      </g>
     </g>
     <g id="text_13">
      <!-- 0.6 -->
      <g transform="translate(7.2 52.336094) scale(0.1 -0.1)">
       <use xlink:href="#TimesNewRomanPSMT-30"/>
       <use xlink:href="#TimesNewRomanPSMT-2e" x="50"/>
       <use xlink:href="#TimesNewRomanPSMT-36" x="75"/>
      </g>
     </g>
    </g>
    <g id="ytick_7">
     <g id="line2d_14">
      <g>
       <use xlink:href="#m726a96ee58" x="26.7" y="15.998226" style="stroke: #000000; stroke-width: 0.8"/>
      </g>
     </g>
     <g id="text_14">
      <!-- 0.7 -->
      <g transform="translate(7.2 19.470101) scale(0.1 -0.1)">
       <defs>
        <path id="TimesNewRomanPSMT-37" d="M 644 4238 
L 2916 4238 
L 2916 4119 
L 1503 -88 
L 1153 -88 
L 2419 3728 
L 1253 3728 
Q 900 3728 750 3644 
Q 488 3500 328 3200 
L 238 3234 
L 644 4238 
z
" transform="scale(0.015625)"/>
       </defs>
       <use xlink:href="#TimesNewRomanPSMT-30"/>
       <use xlink:href="#TimesNewRomanPSMT-2e" x="50"/>
       <use xlink:href="#TimesNewRomanPSMT-37" x="75"/>
      </g>
     </g>
    </g>
   </g>
   <g id="line2d_15">
    <path d="M 57.136364 119.7233 
L 57.604615 116.4367 
L 58.072867 110.553688 
L 58.541119 100.628158 
L 59.009371 98.06461 
L 59.477622 90.735494 
L 59.945874 92.181598 
L 60.414126 86.331451 
L 60.882378 88.533472 
L 61.350629 85.937059 
L 61.818881 83.011986 
L 62.287133 80.448438 
L 62.755385 75.682869 
L 63.223636 72.363404 
L 63.691888 72.363404 
L 64.16014 73.842374 
L 64.628392 68.320887 
L 65.096643 67.959361 
L 65.564895 65.757339 
L 66.033147 66.841917 
L 66.501399 65.395813 
L 66.96965 66.118865 
L 67.437902 58.789749 
L 67.906154 63.555318 
L 68.374406 59.874327 
L 68.842657 55.83181 
L 69.310909 57.310779 
L 69.779161 53.991314 
L 70.247413 58.789749 
L 70.715664 58.789749 
L 71.183916 53.991314 
L 71.652168 52.54521 
L 72.12042 52.906736 
L 72.588671 51.789292 
L 73.056923 50.343189 
L 73.525175 50.343189 
L 73.993427 49.225745 
L 74.461678 49.225745 
L 74.92993 49.587271 
L 75.398182 46.662198 
L 75.866434 46.662198 
L 76.334685 47.746775 
L 76.802937 48.502693 
L 77.271189 44.821702 
L 77.739441 48.502693 
L 78.207692 45.183228 
L 78.675944 45.544754 
L 79.144196 44.460176 
L 79.612448 46.300672 
L 80.080699 42.258155 
L 80.548951 42.61968 
L 82.89021 38.938689 
L 85.231469 41.535103 
L 87.572727 40.779185 
L 89.913986 38.215637 
L 92.255245 36.736668 
L 94.596503 36.375142 
L 96.937762 35.65209 
L 99.279021 35.65209 
L 101.62028 36.013616 
L 103.961538 36.375142 
L 106.302797 33.088543 
L 108.644056 33.450068 
L 110.985315 34.896172 
L 113.326573 32.332625 
L 115.667832 33.088543 
L 118.009091 32.694151 
L 120.35035 32.694151 
L 122.691608 32.694151 
L 125.032867 29.407551 
L 127.374126 31.248047 
L 129.715385 30.886521 
L 132.056643 29.046025 
L 134.397902 31.971099 
L 136.739161 31.609573 
L 139.08042 30.130603 
L 141.421678 31.609573 
L 143.762937 32.332625 
L 146.104196 31.248047 
L 148.445455 31.609573 
L 150.786713 30.492129 
L 197.611888 30.492129 
L 244.437063 31.609573 
L 291.262238 31.248047 
L 338.087413 30.130603 
L 384.912587 31.609573 
L 431.737762 31.971099 
L 478.562937 30.886521 
L 525.388112 30.492129 
L 572.213287 32.332625 
L 619.038462 32.694151 
L 665.863636 31.971099 
" clip-path="url(#p57f963f26e)" style="fill: none; stroke: #e86254; stroke-width: 1.5; stroke-linecap: square"/>
   </g>
   <g id="LineCollection_1">
    <path d="M 57.136364 37.919843 
L 665.863636 37.919843 
" clip-path="url(#p57f963f26e)" style="fill: none; stroke-dasharray: 1.5,2.475; stroke-dashoffset: 0; stroke: #e86254; stroke-opacity: 0.5; stroke-width: 1.5"/>
   </g>
   <g id="line2d_16">
    <path d="M 57.136364 218.88 
L 57.604615 218.156948 
L 58.072867 215.593401 
L 58.541119 212.996987 
L 59.009371 214.837483 
L 59.477622 209.348862 
L 59.945874 204.550427 
L 60.414126 202.742798 
L 60.882378 200.540776 
L 61.350629 197.944363 
L 61.818881 186.211203 
L 62.287133 175.562621 
L 62.755385 167.839113 
L 63.223636 157.552057 
L 63.691888 145.457372 
L 64.16014 135.170316 
L 64.628392 127.446808 
L 65.096643 122.319713 
L 65.564895 120.840743 
L 66.033147 110.192162 
L 66.501399 115.319257 
L 66.96965 107.267088 
L 67.437902 111.671131 
L 67.906154 103.224571 
L 68.374406 109.074718 
L 68.842657 102.468653 
L 69.310909 100.628158 
L 69.779161 102.468653 
L 70.247413 99.182054 
L 70.715664 102.107127 
L 71.183916 95.862589 
L 71.652168 104.670675 
L 72.12042 92.57599 
L 72.588671 96.224115 
L 73.056923 91.458546 
L 73.525175 91.09702 
L 73.993427 88.894998 
L 74.461678 93.660567 
L 74.92993 89.979576 
L 75.398182 92.937515 
L 75.866434 89.256524 
L 76.334685 94.383619 
L 76.802937 89.256524 
L 77.271189 88.533472 
L 77.739441 87.054503 
L 78.207692 89.256524 
L 78.675944 88.533472 
L 79.144196 86.331451 
L 79.612448 84.852481 
L 80.080699 81.17149 
L 80.548951 86.331451 
L 82.89021 76.767447 
L 85.231469 74.2039 
L 87.572727 69.438331 
L 89.913986 56.193336 
L 92.255245 52.54521 
L 94.596503 49.587271 
L 96.937762 44.09865 
L 99.279021 47.023724 
L 101.62028 52.183684 
L 103.961538 46.300672 
L 106.302797 51.427767 
L 108.644056 45.939146 
L 110.985315 44.09865 
L 113.326573 41.896629 
L 115.667832 40.417659 
L 118.009091 39.694607 
L 120.35035 36.736668 
L 122.691608 35.290564 
L 125.032867 32.332625 
L 127.374126 34.896172 
L 129.715385 33.088543 
L 132.056643 33.811594 
L 134.397902 33.088543 
L 136.739161 34.896172 
L 139.08042 33.450068 
L 141.421678 39.694607 
L 143.762937 36.736668 
L 146.104196 36.736668 
L 148.445455 34.896172 
L 150.786713 36.013616 
L 197.611888 35.65209 
L 244.437063 36.375142 
L 291.262238 34.896172 
L 338.087413 34.896172 
L 384.912587 36.013616 
L 431.737762 35.290564 
L 478.562937 37.492586 
L 525.388112 37.098194 
L 572.213287 36.375142 
L 619.038462 36.736668 
L 665.863636 35.65209 
" clip-path="url(#p57f963f26e)" style="fill: none; stroke: #ffd06e; stroke-width: 1.5; stroke-linecap: square"/>
   </g>
   <g id="LineCollection_2">
    <path d="M 57.136364 38.938689 
L 665.863636 38.938689 
" clip-path="url(#p57f963f26e)" style="fill: none; stroke-dasharray: 1.5,2.475; stroke-dashoffset: 0; stroke: #ffd06e; stroke-opacity: 0.5; stroke-width: 1.5"/>
   </g>
   <g id="line2d_17">
    <path d="M 57.136364 173.3606 
L 57.604615 167.477587 
L 58.072867 161.233049 
L 58.541119 160.115605 
L 59.009371 155.711562 
L 59.477622 150.584467 
L 59.945874 145.06298 
L 60.414126 141.776381 
L 60.882378 139.212833 
L 61.350629 132.573903 
L 61.818881 122.319713 
L 62.287133 111.671131 
L 62.755385 101.02255 
L 63.223636 93.660567 
L 63.691888 90.373968 
L 64.16014 83.735037 
L 64.628392 81.17149 
L 65.096643 82.65046 
L 65.564895 79.330994 
L 66.033147 78.607943 
L 66.501399 78.607943 
L 66.96965 73.086456 
L 67.437902 72.001878 
L 67.906154 70.522908 
L 68.374406 69.076805 
L 68.842657 64.639896 
L 69.310909 66.480391 
L 69.779161 65.395813 
L 70.247413 59.151275 
L 70.715664 59.512801 
L 71.183916 58.033831 
L 71.652168 59.512801 
L 72.12042 58.789749 
L 72.588671 60.99177 
L 73.056923 55.108758 
L 73.525175 55.108758 
L 73.993427 53.268262 
L 74.461678 56.587727 
L 74.92993 56.587727 
L 75.398182 57.310779 
L 75.866434 47.746775 
L 76.334685 53.629788 
L 76.802937 52.906736 
L 77.271189 49.587271 
L 77.739441 53.991314 
L 78.207692 49.981663 
L 78.675944 50.343189 
L 79.144196 45.939146 
L 79.612448 46.300672 
L 80.080699 48.502693 
L 80.548951 45.183228 
L 82.89021 47.023724 
L 85.231469 42.258155 
L 87.572727 37.854112 
L 89.913986 37.098194 
L 92.255245 35.65209 
L 94.596503 38.215637 
L 96.937762 36.375142 
L 99.279021 31.971099 
L 101.62028 31.971099 
L 103.961538 31.609573 
L 106.302797 28.651634 
L 108.644056 27.928582 
L 110.985315 26.449612 
L 113.326573 26.844004 
L 115.667832 23.163013 
L 118.009091 25.365034 
L 120.35035 21.684043 
L 122.691608 23.886065 
L 125.032867 23.886065 
L 127.374126 25.365034 
L 129.715385 20.205073 
L 132.056643 21.684043 
L 134.397902 22.045569 
L 136.739161 18.75897 
L 139.08042 20.960991 
L 141.421678 19.120496 
L 143.762937 17.641526 
L 146.104196 18.75897 
L 148.445455 18.75897 
L 150.786713 19.843547 
L 197.611888 17.28 
L 244.437063 18.003052 
L 291.262238 19.482022 
L 338.087413 18.397444 
L 384.912587 18.75897 
L 431.737762 19.482022 
L 478.562937 19.120496 
L 525.388112 21.322517 
L 572.213287 18.003052 
L 619.038462 20.960991 
L 665.863636 19.482022 
" clip-path="url(#p57f963f26e)" style="fill: none; stroke: #386795; stroke-width: 1.5; stroke-linecap: square"/>
   </g>
   <g id="LineCollection_3">
    <path d="M 57.136364 29.440417 
L 665.863636 29.440417 
" clip-path="url(#p57f963f26e)" style="fill: none; stroke-dasharray: 1.5,2.475; stroke-dashoffset: 0; stroke: #386795; stroke-opacity: 0.5; stroke-width: 1.5"/>
   </g>
   <g id="patch_3">
    <path d="M 26.7 228.96 
L 26.7 7.2 
" style="fill: none; stroke: #000000; stroke-width: 0.8; stroke-linejoin: miter; stroke-linecap: square"/>
   </g>
   <g id="patch_4">
    <path d="M 696.3 228.96 
L 696.3 7.2 
" style="fill: none; stroke: #000000; stroke-width: 0.8; stroke-linejoin: miter; stroke-linecap: square"/>
   </g>
   <g id="patch_5">
    <path d="M 26.7 228.96 
L 696.3 228.96 
" style="fill: none; stroke: #000000; stroke-width: 0.8; stroke-linejoin: miter; stroke-linecap: square"/>
   </g>
   <g id="patch_6">
    <path d="M 26.7 7.2 
L 696.3 7.2 
" style="fill: none; stroke: #000000; stroke-width: 0.8; stroke-linejoin: miter; stroke-linecap: square"/>
   </g>
   <g id="legend_1">
    <g id="patch_7">
     <path d="M 588.18125 223.96 
L 689.3 223.96 
Q 691.3 223.96 691.3 221.96 
L 691.3 178.831875 
Q 691.3 176.831875 689.3 176.831875 
L 588.18125 176.831875 
Q 586.18125 176.831875 586.18125 178.831875 
L 586.18125 221.96 
Q 586.18125 223.96 588.18125 223.96 
z
" style="fill: #ffffff; opacity: 0.8; stroke: #cccccc; stroke-linejoin: miter"/>
    </g>
    <g id="line2d_18">
     <path d="M 590.18125 184.331875 
L 600.18125 184.331875 
L 610.18125 184.331875 
" style="fill: none; stroke: #e86254; stroke-width: 1.5; stroke-linecap: square"/>
    </g>
    <g id="text_15">
     <!-- LSTM -->
     <g transform="translate(618.18125 187.831875) scale(0.1 -0.1)">
      <defs>
       <path id="TimesNewRomanPSMT-4c" d="M 3669 1172 
L 3772 1150 
L 3409 0 
L 128 0 
L 128 116 
L 288 116 
Q 556 116 672 291 
Q 738 391 738 753 
L 738 3488 
Q 738 3884 650 3984 
Q 528 4122 288 4122 
L 128 4122 
L 128 4238 
L 2047 4238 
L 2047 4122 
Q 1709 4125 1573 4059 
Q 1438 3994 1388 3894 
Q 1338 3794 1338 3416 
L 1338 753 
Q 1338 494 1388 397 
Q 1425 331 1503 300 
Q 1581 269 1991 269 
L 2300 269 
Q 2788 269 2984 341 
Q 3181 413 3343 595 
Q 3506 778 3669 1172 
z
" transform="scale(0.015625)"/>
       <path id="TimesNewRomanPSMT-53" d="M 2934 4334 
L 2934 2869 
L 2819 2869 
Q 2763 3291 2617 3541 
Q 2472 3791 2203 3937 
Q 1934 4084 1647 4084 
Q 1322 4084 1109 3886 
Q 897 3688 897 3434 
Q 897 3241 1031 3081 
Q 1225 2847 1953 2456 
Q 2547 2138 2764 1967 
Q 2981 1797 3098 1565 
Q 3216 1334 3216 1081 
Q 3216 600 2842 251 
Q 2469 -97 1881 -97 
Q 1697 -97 1534 -69 
Q 1438 -53 1133 45 
Q 828 144 747 144 
Q 669 144 623 97 
Q 578 50 556 -97 
L 441 -97 
L 441 1356 
L 556 1356 
Q 638 900 775 673 
Q 913 447 1195 297 
Q 1478 147 1816 147 
Q 2206 147 2432 353 
Q 2659 559 2659 841 
Q 2659 997 2573 1156 
Q 2488 1316 2306 1453 
Q 2184 1547 1640 1851 
Q 1097 2156 867 2337 
Q 638 2519 519 2737 
Q 400 2956 400 3219 
Q 400 3675 750 4004 
Q 1100 4334 1641 4334 
Q 1978 4334 2356 4169 
Q 2531 4091 2603 4091 
Q 2684 4091 2736 4139 
Q 2788 4188 2819 4334 
L 2934 4334 
z
" transform="scale(0.015625)"/>
       <path id="TimesNewRomanPSMT-54" d="M 3703 4238 
L 3750 3244 
L 3631 3244 
Q 3597 3506 3538 3619 
Q 3441 3800 3280 3886 
Q 3119 3972 2856 3972 
L 2259 3972 
L 2259 734 
Q 2259 344 2344 247 
Q 2463 116 2709 116 
L 2856 116 
L 2856 0 
L 1059 0 
L 1059 116 
L 1209 116 
Q 1478 116 1591 278 
Q 1659 378 1659 734 
L 1659 3972 
L 1150 3972 
Q 853 3972 728 3928 
Q 566 3869 450 3700 
Q 334 3531 313 3244 
L 194 3244 
L 244 4238 
L 3703 4238 
z
" transform="scale(0.015625)"/>
       <path id="TimesNewRomanPSMT-4d" d="M 2619 0 
L 981 3566 
L 981 734 
Q 981 344 1066 247 
Q 1181 116 1431 116 
L 1581 116 
L 1581 0 
L 106 0 
L 106 116 
L 256 116 
Q 525 116 638 278 
Q 706 378 706 734 
L 706 3503 
Q 706 3784 644 3909 
Q 600 4000 483 4061 
Q 366 4122 106 4122 
L 106 4238 
L 1306 4238 
L 2844 922 
L 4356 4238 
L 5556 4238 
L 5556 4122 
L 5409 4122 
Q 5138 4122 5025 3959 
Q 4956 3859 4956 3503 
L 4956 734 
Q 4956 344 5044 247 
Q 5159 116 5409 116 
L 5556 116 
L 5556 0 
L 3756 0 
L 3756 116 
L 3906 116 
Q 4178 116 4288 278 
Q 4356 378 4356 734 
L 4356 3566 
L 2722 0 
L 2619 0 
z
" transform="scale(0.015625)"/>
      </defs>
      <use xlink:href="#TimesNewRomanPSMT-4c"/>
      <use xlink:href="#TimesNewRomanPSMT-53" x="61.083984"/>
      <use xlink:href="#TimesNewRomanPSMT-54" x="116.699219"/>
      <use xlink:href="#TimesNewRomanPSMT-4d" x="177.783203"/>
     </g>
    </g>
    <g id="line2d_19">
     <path d="M 590.18125 198.470938 
L 600.18125 198.470938 
L 610.18125 198.470938 
" style="fill: none; stroke: #ffd06e; stroke-width: 1.5; stroke-linecap: square"/>
    </g>
    <g id="text_16">
     <!-- BiLSTM -->
     <g transform="translate(618.18125 201.970938) scale(0.1 -0.1)">
      <defs>
       <path id="TimesNewRomanPSMT-42" d="M 2956 2163 
Q 3397 2069 3616 1863 
Q 3919 1575 3919 1159 
Q 3919 844 3719 555 
Q 3519 266 3170 133 
Q 2822 0 2106 0 
L 106 0 
L 106 116 
L 266 116 
Q 531 116 647 284 
Q 719 394 719 750 
L 719 3488 
Q 719 3881 628 3984 
Q 506 4122 266 4122 
L 106 4122 
L 106 4238 
L 1938 4238 
Q 2450 4238 2759 4163 
Q 3228 4050 3475 3764 
Q 3722 3478 3722 3106 
Q 3722 2788 3528 2536 
Q 3334 2284 2956 2163 
z
M 1319 2331 
Q 1434 2309 1582 2298 
Q 1731 2288 1909 2288 
Q 2366 2288 2595 2386 
Q 2825 2484 2947 2687 
Q 3069 2891 3069 3131 
Q 3069 3503 2766 3765 
Q 2463 4028 1881 4028 
Q 1569 4028 1319 3959 
L 1319 2331 
z
M 1319 306 
Q 1681 222 2034 222 
Q 2600 222 2897 476 
Q 3194 731 3194 1106 
Q 3194 1353 3059 1581 
Q 2925 1809 2622 1940 
Q 2319 2072 1872 2072 
Q 1678 2072 1540 2065 
Q 1403 2059 1319 2044 
L 1319 306 
z
" transform="scale(0.015625)"/>
       <path id="TimesNewRomanPSMT-69" d="M 928 4444 
Q 1059 4444 1151 4351 
Q 1244 4259 1244 4128 
Q 1244 3997 1151 3903 
Q 1059 3809 928 3809 
Q 797 3809 703 3903 
Q 609 3997 609 4128 
Q 609 4259 701 4351 
Q 794 4444 928 4444 
z
M 1188 2947 
L 1188 647 
Q 1188 378 1227 289 
Q 1266 200 1342 156 
Q 1419 113 1622 113 
L 1622 0 
L 231 0 
L 231 113 
Q 441 113 512 153 
Q 584 194 626 287 
Q 669 381 669 647 
L 669 1750 
Q 669 2216 641 2353 
Q 619 2453 572 2492 
Q 525 2531 444 2531 
Q 356 2531 231 2484 
L 188 2597 
L 1050 2947 
L 1188 2947 
z
" transform="scale(0.015625)"/>
      </defs>
      <use xlink:href="#TimesNewRomanPSMT-42"/>
      <use xlink:href="#TimesNewRomanPSMT-69" x="66.699219"/>
      <use xlink:href="#TimesNewRomanPSMT-4c" x="94.482422"/>
      <use xlink:href="#TimesNewRomanPSMT-53" x="155.566406"/>
      <use xlink:href="#TimesNewRomanPSMT-54" x="211.181641"/>
      <use xlink:href="#TimesNewRomanPSMT-4d" x="272.265625"/>
     </g>
    </g>
    <g id="line2d_20">
     <path d="M 590.18125 213.8725 
L 600.18125 213.8725 
L 610.18125 213.8725 
" style="fill: none; stroke: #386795; stroke-width: 1.5; stroke-linecap: square"/>
    </g>
    <g id="text_17">
     <!-- BiLSTM(单层) -->
     <g transform="translate(618.18125 217.3725) scale(0.1 -0.1)">
      <defs>
       <path id="SourceHanSerifCN-Heavy-42" d="M 263 4563 
L 263 4781 
L 2516 4781 
Q 3128 4781 3497 4636 
Q 3866 4491 4028 4237 
Q 4191 3984 4191 3659 
Q 4191 3419 4069 3198 
Q 3947 2978 3653 2811 
Q 3359 2644 2847 2553 
Q 3716 2469 4095 2150 
Q 4475 1831 4475 1331 
Q 4475 1097 4373 861 
Q 4272 625 4030 429 
Q 3788 234 3364 117 
Q 2941 0 2291 0 
L 263 0 
L 263 219 
L 838 275 
Q 847 778 848 1295 
Q 850 1813 850 2328 
L 850 2559 
Q 850 3050 848 3536 
Q 847 4022 838 4513 
L 263 4563 
z
M 1919 2388 
Q 1919 1816 1922 1283 
Q 1925 750 1941 238 
L 2259 238 
Q 2772 238 3065 511 
Q 3359 784 3359 1313 
Q 3359 1869 3081 2128 
Q 2803 2388 2222 2388 
L 1919 2388 
z
M 1941 4538 
Q 1925 4069 1922 3591 
Q 1919 3113 1919 2619 
L 2169 2619 
Q 2659 2619 2904 2881 
Q 3150 3144 3150 3628 
Q 3150 4059 2934 4298 
Q 2719 4538 2234 4538 
L 1941 4538 
z
" transform="scale(0.015625)"/>
       <path id="SourceHanSerifCN-Heavy-69" d="M 1159 4191 
Q 931 4191 770 4339 
Q 609 4488 609 4722 
Q 609 4944 770 5092 
Q 931 5241 1159 5241 
Q 1388 5241 1548 5092 
Q 1709 4944 1709 4722 
Q 1709 4488 1548 4339 
Q 1388 4191 1159 4191 
z
M 647 0 
L 238 0 
L 238 197 
L 653 238 
L 666 1522 
L 666 2034 
Q 666 2353 661 2567 
Q 656 2781 647 3009 
L 172 3059 
L 172 3213 
L 1644 3597 
L 1728 3541 
L 1703 2509 
L 1703 1522 
Q 1703 1344 1704 1114 
Q 1706 884 1709 653 
Q 1713 422 1716 238 
L 2106 197 
L 2106 0 
L 647 0 
z
" transform="scale(0.015625)"/>
       <path id="SourceHanSerifCN-Heavy-4c" d="M 263 4563 
L 263 4781 
L 2578 4781 
L 2578 4563 
L 1953 4506 
Q 1944 4022 1942 3542 
Q 1941 3063 1941 2631 
L 1941 2216 
Q 1941 1741 1942 1245 
Q 1944 750 1953 250 
L 3284 250 
L 3597 1434 
L 3950 1434 
L 3963 0 
L 263 0 
L 269 219 
L 838 275 
Q 847 756 848 1223 
Q 850 1691 850 2075 
L 850 2528 
Q 850 3028 848 3523 
Q 847 4019 838 4513 
L 263 4563 
z
" transform="scale(0.015625)"/>
       <path id="SourceHanSerifCN-Heavy-53" d="M 1819 -128 
Q 1425 -128 1020 -29 
Q 616 69 325 256 
L 372 1356 
L 744 1356 
L 1081 244 
Q 1225 191 1375 169 
Q 1525 147 1709 147 
Q 2184 147 2436 359 
Q 2688 572 2688 947 
Q 2688 1269 2534 1462 
Q 2381 1656 1997 1831 
L 1691 1966 
Q 1047 2256 712 2615 
Q 378 2975 378 3553 
Q 378 3984 597 4287 
Q 816 4591 1209 4750 
Q 1603 4909 2125 4909 
Q 2503 4909 2836 4812 
Q 3169 4716 3425 4544 
L 3372 3494 
L 3003 3494 
L 2675 4563 
Q 2578 4606 2478 4623 
Q 2378 4641 2259 4641 
Q 1841 4641 1586 4439 
Q 1331 4238 1331 3878 
Q 1331 3547 1509 3348 
Q 1688 3150 2028 2994 
L 2363 2841 
Q 2841 2628 3130 2412 
Q 3419 2197 3547 1933 
Q 3675 1669 3675 1306 
Q 3675 669 3197 270 
Q 2719 -128 1819 -128 
z
" transform="scale(0.015625)"/>
       <path id="SourceHanSerifCN-Heavy-54" d="M 147 3397 
L 172 4781 
L 4397 4781 
L 4422 3397 
L 4050 3397 
L 3725 4531 
L 2841 4531 
Q 2831 4038 2829 3538 
Q 2828 3038 2828 2528 
L 2828 2253 
Q 2828 1763 2829 1267 
Q 2831 772 2841 281 
L 3494 219 
L 3494 0 
L 1081 0 
L 1081 219 
L 1728 281 
Q 1738 763 1739 1255 
Q 1741 1747 1741 2247 
L 1741 2528 
Q 1741 3031 1739 3531 
Q 1738 4031 1728 4531 
L 844 4531 
L 525 3397 
L 147 3397 
z
" transform="scale(0.015625)"/>
       <path id="SourceHanSerifCN-Heavy-4d" d="M 4531 0 
L 3975 0 
L 3975 219 
L 4538 275 
Q 4553 766 4550 1234 
Q 4547 1703 4556 2094 
L 4575 4134 
L 3047 0 
L 2713 0 
L 1141 4134 
L 1166 2216 
L 1166 313 
L 1888 219 
L 1888 0 
L 153 0 
L 153 219 
L 850 306 
L 878 4500 
L 256 4563 
L 256 4781 
L 2003 4781 
L 3272 1388 
L 4538 4781 
L 6209 4781 
L 6209 4563 
L 5650 4513 
Q 5638 4019 5634 3523 
Q 5631 3028 5631 2528 
L 5631 2247 
Q 5631 1747 5634 1253 
Q 5638 759 5650 275 
L 6228 219 
L 6228 0 
L 4531 0 
z
" transform="scale(0.015625)"/>
       <path id="SourceHanSerifCN-Heavy-28" d="M 1319 2016 
Q 1319 1413 1422 897 
Q 1525 381 1762 -105 
Q 2000 -591 2406 -1106 
L 2253 -1247 
Q 1428 -566 989 211 
Q 550 988 550 2016 
Q 550 3044 989 3823 
Q 1428 4603 2253 5281 
L 2406 5141 
Q 1978 4613 1742 4127 
Q 1506 3641 1412 3131 
Q 1319 2622 1319 2016 
z
" transform="scale(0.015625)"/>
       <path id="SourceHanSerifCN-Heavy-5355" d="M 1478 5375 
Q 1991 5306 2292 5151 
Q 2594 4997 2723 4806 
Q 2853 4616 2847 4436 
Q 2841 4256 2733 4132 
Q 2625 4009 2450 3989 
Q 2275 3969 2075 4103 
Q 1997 4428 1808 4761 
Q 1619 5094 1428 5344 
L 1478 5375 
z
M 4519 2894 
L 4519 3725 
L 3669 3725 
L 3669 2894 
L 4519 2894 
z
M 4519 2713 
L 3669 2713 
L 3669 1844 
L 4519 1844 
L 4519 2713 
z
M 1863 2894 
L 2706 2894 
L 2706 3725 
L 1863 3725 
L 1863 2894 
z
M 1863 2713 
L 1863 1844 
L 2706 1844 
L 2706 2713 
L 1863 2713 
z
M 5313 1528 
Q 5313 1528 5405 1461 
Q 5497 1394 5640 1286 
Q 5784 1178 5943 1056 
Q 6103 934 6234 825 
Q 6206 722 6041 722 
L 3669 722 
L 3669 -366 
Q 3669 -403 3462 -498 
Q 3256 -594 2888 -594 
L 2706 -594 
L 2706 722 
L 206 722 
L 153 903 
L 2706 903 
L 2706 1663 
L 1863 1663 
L 1863 1575 
Q 1863 1528 1744 1459 
Q 1625 1391 1442 1336 
Q 1259 1281 1069 1281 
L 934 1281 
L 934 4281 
L 1919 3903 
L 3431 3903 
Q 3584 4188 3767 4619 
Q 3950 5050 4103 5472 
L 5228 4978 
Q 5200 4925 5131 4892 
Q 5063 4859 4953 4872 
Q 4641 4588 4291 4338 
Q 3941 4088 3609 3903 
L 4453 3903 
L 4863 4341 
L 5684 3719 
Q 5659 3684 5604 3650 
Q 5550 3616 5459 3597 
L 5459 1656 
Q 5456 1625 5329 1564 
Q 5203 1503 5023 1453 
Q 4844 1403 4684 1403 
L 4519 1403 
L 4519 1663 
L 3669 1663 
L 3669 903 
L 4806 903 
L 5313 1528 
z
" transform="scale(0.015625)"/>
       <path id="SourceHanSerifCN-Heavy-5c42" d="M 781 5088 
L 781 5381 
L 1838 5025 
L 4738 5025 
L 5147 5478 
L 6016 4831 
Q 5988 4794 5923 4755 
Q 5859 4716 5759 4691 
L 5759 3647 
Q 5756 3625 5620 3581 
Q 5484 3538 5300 3500 
Q 5116 3463 4966 3463 
L 4872 3463 
Q 4947 3403 5087 3290 
Q 5228 3178 5383 3050 
Q 5538 2922 5656 2809 
Q 5647 2756 5595 2731 
Q 5544 2706 5472 2706 
L 1997 2706 
L 1947 2888 
L 4325 2888 
L 4800 3519 
L 4800 3744 
L 1703 3744 
L 1703 3256 
Q 1703 2941 1690 2592 
Q 1678 2244 1625 1888 
L 4928 1888 
L 5416 2534 
Q 5416 2534 5505 2464 
Q 5594 2394 5731 2283 
Q 5869 2172 6019 2047 
Q 6169 1922 6291 1813 
Q 6263 1709 6106 1709 
L 3284 1709 
L 4063 1306 
Q 4041 1263 3984 1236 
Q 3928 1209 3834 1222 
Q 3575 1016 3175 794 
Q 2775 572 2369 409 
Q 2847 406 3484 412 
Q 4122 419 4819 428 
Q 4672 653 4509 861 
Q 4347 1069 4191 1241 
L 4244 1281 
Q 4869 1169 5251 969 
Q 5634 769 5820 533 
Q 6006 297 6031 76 
Q 6056 -144 5957 -298 
Q 5859 -453 5675 -489 
Q 5491 -525 5259 -391 
Q 5203 -241 5126 -89 
Q 5050 63 4953 213 
Q 4416 78 3669 -86 
Q 2922 -250 2009 -422 
Q 1966 -481 1911 -515 
Q 1856 -550 1806 -569 
L 1522 409 
Q 1522 409 1615 429 
Q 1709 450 1766 481 
Q 1963 569 2184 781 
Q 2406 994 2603 1245 
Q 2800 1497 2919 1709 
L 1672 1709 
L 1619 1881 
Q 1553 1428 1390 979 
Q 1228 531 928 125 
Q 628 -281 141 -616 
L 91 -575 
Q 413 -13 558 632 
Q 703 1278 742 1948 
Q 781 2619 781 3250 
L 781 5088 
z
M 1703 3922 
L 4800 3922 
L 4800 4844 
L 1703 4844 
L 1703 3922 
z
" transform="scale(0.015625)"/>
       <path id="SourceHanSerifCN-Heavy-29" d="M 1356 2016 
Q 1356 2622 1253 3137 
Q 1150 3653 912 4139 
Q 675 4625 269 5141 
L 422 5281 
Q 1247 4597 1686 3820 
Q 2125 3044 2125 2016 
Q 2125 988 1686 208 
Q 1247 -572 422 -1247 
L 269 -1106 
Q 697 -578 933 -93 
Q 1169 391 1262 902 
Q 1356 1413 1356 2016 
z
" transform="scale(0.015625)"/>
      </defs>
      <use xlink:href="#SourceHanSerifCN-Heavy-42"/>
      <use xlink:href="#SourceHanSerifCN-Heavy-69" x="72.705078"/>
      <use xlink:href="#SourceHanSerifCN-Heavy-4c" x="108.496094"/>
      <use xlink:href="#SourceHanSerifCN-Heavy-53" x="173.583984"/>
      <use xlink:href="#SourceHanSerifCN-Heavy-54" x="234.765625"/>
      <use xlink:href="#SourceHanSerifCN-Heavy-4d" x="306.152344"/>
      <use xlink:href="#SourceHanSerifCN-Heavy-28" x="407.568359"/>
      <use xlink:href="#SourceHanSerifCN-Heavy-5355" x="449.365234"/>
      <use xlink:href="#SourceHanSerifCN-Heavy-5c42" x="549.365234"/>
      <use xlink:href="#SourceHanSerifCN-Heavy-29" x="649.365234"/>
     </g>
    </g>
   </g>
  </g>
 </g>
 <defs>
  <clipPath id="p57f963f26e">
   <rect x="26.7" y="7.2" width="669.6" height="221.76"/>
  </clipPath>
 </defs>
</svg>
