<?xml version="1.0" encoding="utf-8" standalone="no"?>
<!DOCTYPE svg PUBLIC "-//W3C//DTD SVG 1.1//EN"
  "http://www.w3.org/Graphics/SVG/1.1/DTD/svg11.dtd">
<svg xmlns:xlink="http://www.w3.org/1999/xlink" width="703.5pt" height="252.242812pt" viewBox="0 0 703.5 252.242812" xmlns="http://www.w3.org/2000/svg" version="1.1">
 <metadata>
  <rdf:RDF xmlns:dc="http://purl.org/dc/elements/1.1/" xmlns:cc="http://creativecommons.org/ns#" xmlns:rdf="http://www.w3.org/1999/02/22-rdf-syntax-ns#">
   <cc:Work>
    <dc:type rdf:resource="http://purl.org/dc/dcmitype/StillImage"/>
    <dc:date>2024-01-10T15:36:29.284272</dc:date>
    <dc:format>image/svg+xml</dc:format>
    <dc:creator>
     <cc:Agent>
      <dc:title>Matplotlib v3.8.2, https://matplotlib.org/</dc:title>
     </cc:Agent>
    </dc:creator>
   </cc:Work>
  </rdf:RDF>
 </metadata>
 <defs>
  <style type="text/css">*{stroke-linejoin: round; stroke-linecap: butt}</style>
 </defs>
 <g id="figure_1">
  <g id="patch_1">
   <path d="M 0 252.242812 
L 703.5 252.242812 
L 703.5 0 
L 0 0 
z
" style="fill: #ffffff"/>
  </g>
  <g id="axes_1">
   <g id="patch_2">
    <path d="M 26.7 228.96 
L 696.3 228.96 
L 696.3 7.2 
L 26.7 7.2 
z
" style="fill: #ffffff"/>
   </g>
   <g id="PathCollection_1">
    <defs>
     <path id="m7b3d8f4b39" d="M 0 3 
C 0.795609 3 1.55874 2.683901 2.12132 2.12132 
C 2.683901 1.55874 3 0.795609 3 0 
C 3 -0.795609 2.683901 -1.55874 2.12132 -2.12132 
C 1.55874 -2.683901 0.795609 -3 0 -3 
C -0.795609 -3 -1.55874 -2.683901 -2.12132 -2.12132 
C -2.683901 -1.55874 -3 -0.795609 -3 0 
C -3 0.795609 -2.683901 1.55874 -2.12132 2.12132 
C -1.55874 2.683901 -0.795609 3 0 3 
z
" style="stroke: #e86254; stroke-opacity: 0.5"/>
    </defs>
    <g clip-path="url(#pf877468b57)">
     <use xlink:href="#m7b3d8f4b39" x="132.056643" y="33.501077" style="fill: #e86254; fill-opacity: 0.5; stroke: #e86254; stroke-opacity: 0.5"/>
    </g>
   </g>
   <g id="PathCollection_2">
    <defs>
     <path id="m78a5ab0947" d="M 0 3 
C 0.795609 3 1.55874 2.683901 2.12132 2.12132 
C 2.683901 1.55874 3 0.795609 3 0 
C 3 -0.795609 2.683901 -1.55874 2.12132 -2.12132 
C 1.55874 -2.683901 0.795609 -3 0 -3 
C -0.795609 -3 -1.55874 -2.683901 -2.12132 -2.12132 
C -2.683901 -1.55874 -3 -0.795609 -3 0 
C -3 0.795609 -2.683901 1.55874 -2.12132 2.12132 
C -1.55874 2.683901 -0.795609 3 0 3 
z
" style="stroke: #73bcd5; stroke-opacity: 0.5"/>
    </defs>
    <g clip-path="url(#pf877468b57)">
     <use xlink:href="#m78a5ab0947" x="197.611888" y="20.686089" style="fill: #73bcd5; fill-opacity: 0.5; stroke: #73bcd5; stroke-opacity: 0.5"/>
    </g>
   </g>
   <g id="PathCollection_3">
    <defs>
     <path id="ma205a27325" d="M 0 3 
C 0.795609 3 1.55874 2.683901 2.12132 2.12132 
C 2.683901 1.55874 3 0.795609 3 0 
C 3 -0.795609 2.683901 -1.55874 2.12132 -2.12132 
C 1.55874 -2.683901 0.795609 -3 0 -3 
C -0.795609 -3 -1.55874 -2.683901 -2.12132 -2.12132 
C -2.683901 -1.55874 -3 -0.795609 -3 0 
C -3 0.795609 -2.683901 1.55874 -2.12132 2.12132 
C -1.55874 2.683901 -0.795609 3 0 3 
z
" style="stroke: #386795; stroke-opacity: 0.5"/>
    </defs>
    <g clip-path="url(#pf877468b57)">
     <use xlink:href="#ma205a27325" x="197.611888" y="21.428009" style="fill: #386795; fill-opacity: 0.5; stroke: #386795; stroke-opacity: 0.5"/>
    </g>
   </g>
   <g id="matplotlib.axis_1">
    <g id="xtick_1">
     <g id="line2d_1">
      <defs>
       <path id="m79754148ad" d="M 0 0 
L 0 3.5 
" style="stroke: #000000; stroke-width: 0.8"/>
      </defs>
      <g>
       <use xlink:href="#m79754148ad" x="57.136364" y="228.96" style="stroke: #000000; stroke-width: 0.8"/>
      </g>
     </g>
     <g id="text_1">
      <!-- 0 -->
      <g transform="translate(54.636364 242.90375) scale(0.1 -0.1)">
       <defs>
        <path id="TimesNewRomanPSMT-30" d="M 231 2094 
Q 231 2819 450 3342 
Q 669 3866 1031 4122 
Q 1313 4325 1613 4325 
Q 2100 4325 2488 3828 
Q 2972 3213 2972 2159 
Q 2972 1422 2759 906 
Q 2547 391 2217 158 
Q 1888 -75 1581 -75 
Q 975 -75 572 641 
Q 231 1244 231 2094 
z
M 844 2016 
Q 844 1141 1059 588 
Q 1238 122 1591 122 
Q 1759 122 1940 273 
Q 2122 425 2216 781 
Q 2359 1319 2359 2297 
Q 2359 3022 2209 3506 
Q 2097 3866 1919 4016 
Q 1791 4119 1609 4119 
Q 1397 4119 1231 3928 
Q 1006 3669 925 3112 
Q 844 2556 844 2016 
z
" transform="scale(0.015625)"/>
       </defs>
       <use xlink:href="#TimesNewRomanPSMT-30"/>
      </g>
     </g>
    </g>
    <g id="xtick_2">
     <g id="line2d_2">
      <g>
       <use xlink:href="#m79754148ad" x="150.786713" y="228.96" style="stroke: #000000; stroke-width: 0.8"/>
      </g>
     </g>
     <g id="text_2">
      <!-- 200 -->
      <g transform="translate(143.286713 242.90375) scale(0.1 -0.1)">
       <defs>
        <path id="TimesNewRomanPSMT-32" d="M 2934 816 
L 2638 0 
L 138 0 
L 138 116 
Q 1241 1122 1691 1759 
Q 2141 2397 2141 2925 
Q 2141 3328 1894 3587 
Q 1647 3847 1303 3847 
Q 991 3847 742 3664 
Q 494 3481 375 3128 
L 259 3128 
Q 338 3706 661 4015 
Q 984 4325 1469 4325 
Q 1984 4325 2329 3994 
Q 2675 3663 2675 3213 
Q 2675 2891 2525 2569 
Q 2294 2063 1775 1497 
Q 997 647 803 472 
L 1909 472 
Q 2247 472 2383 497 
Q 2519 522 2628 598 
Q 2738 675 2819 816 
L 2934 816 
z
" transform="scale(0.015625)"/>
       </defs>
       <use xlink:href="#TimesNewRomanPSMT-32"/>
       <use xlink:href="#TimesNewRomanPSMT-30" x="50"/>
       <use xlink:href="#TimesNewRomanPSMT-30" x="100"/>
      </g>
     </g>
    </g>
    <g id="xtick_3">
     <g id="line2d_3">
      <g>
       <use xlink:href="#m79754148ad" x="244.437063" y="228.96" style="stroke: #000000; stroke-width: 0.8"/>
      </g>
     </g>
     <g id="text_3">
      <!-- 400 -->
      <g transform="translate(236.937063 242.90375) scale(0.1 -0.1)">
       <defs>
        <path id="TimesNewRomanPSMT-34" d="M 2978 1563 
L 2978 1119 
L 2409 1119 
L 2409 0 
L 1894 0 
L 1894 1119 
L 100 1119 
L 100 1519 
L 2066 4325 
L 2409 4325 
L 2409 1563 
L 2978 1563 
z
M 1894 1563 
L 1894 3666 
L 406 1563 
L 1894 1563 
z
" transform="scale(0.015625)"/>
       </defs>
       <use xlink:href="#TimesNewRomanPSMT-34"/>
       <use xlink:href="#TimesNewRomanPSMT-30" x="50"/>
       <use xlink:href="#TimesNewRomanPSMT-30" x="100"/>
      </g>
     </g>
    </g>
    <g id="xtick_4">
     <g id="line2d_4">
      <g>
       <use xlink:href="#m79754148ad" x="338.087413" y="228.96" style="stroke: #000000; stroke-width: 0.8"/>
      </g>
     </g>
     <g id="text_4">
      <!-- 600 -->
      <g transform="translate(330.587413 242.90375) scale(0.1 -0.1)">
       <defs>
        <path id="TimesNewRomanPSMT-36" d="M 2869 4325 
L 2869 4209 
Q 2456 4169 2195 4045 
Q 1934 3922 1679 3669 
Q 1425 3416 1258 3105 
Q 1091 2794 978 2366 
Q 1428 2675 1881 2675 
Q 2316 2675 2634 2325 
Q 2953 1975 2953 1425 
Q 2953 894 2631 456 
Q 2244 -75 1606 -75 
Q 1172 -75 869 213 
Q 275 772 275 1663 
Q 275 2231 503 2743 
Q 731 3256 1154 3653 
Q 1578 4050 1965 4187 
Q 2353 4325 2688 4325 
L 2869 4325 
z
M 925 2138 
Q 869 1716 869 1456 
Q 869 1156 980 804 
Q 1091 453 1309 247 
Q 1469 100 1697 100 
Q 1969 100 2183 356 
Q 2397 613 2397 1088 
Q 2397 1622 2184 2012 
Q 1972 2403 1581 2403 
Q 1463 2403 1327 2353 
Q 1191 2303 925 2138 
z
" transform="scale(0.015625)"/>
       </defs>
       <use xlink:href="#TimesNewRomanPSMT-36"/>
       <use xlink:href="#TimesNewRomanPSMT-30" x="50"/>
       <use xlink:href="#TimesNewRomanPSMT-30" x="100"/>
      </g>
     </g>
    </g>
    <g id="xtick_5">
     <g id="line2d_5">
      <g>
       <use xlink:href="#m79754148ad" x="431.737762" y="228.96" style="stroke: #000000; stroke-width: 0.8"/>
      </g>
     </g>
     <g id="text_5">
      <!-- 800 -->
      <g transform="translate(424.237762 242.90375) scale(0.1 -0.1)">
       <defs>
        <path id="TimesNewRomanPSMT-38" d="M 1228 2134 
Q 725 2547 579 2797 
Q 434 3047 434 3316 
Q 434 3728 753 4026 
Q 1072 4325 1600 4325 
Q 2113 4325 2425 4047 
Q 2738 3769 2738 3413 
Q 2738 3175 2569 2928 
Q 2400 2681 1866 2347 
Q 2416 1922 2594 1678 
Q 2831 1359 2831 1006 
Q 2831 559 2490 242 
Q 2150 -75 1597 -75 
Q 994 -75 656 303 
Q 388 606 388 966 
Q 388 1247 577 1523 
Q 766 1800 1228 2134 
z
M 1719 2469 
Q 2094 2806 2194 3001 
Q 2294 3197 2294 3444 
Q 2294 3772 2109 3958 
Q 1925 4144 1606 4144 
Q 1288 4144 1088 3959 
Q 888 3775 888 3528 
Q 888 3366 970 3203 
Q 1053 3041 1206 2894 
L 1719 2469 
z
M 1375 2016 
Q 1116 1797 991 1539 
Q 866 1281 866 981 
Q 866 578 1086 336 
Q 1306 94 1647 94 
Q 1984 94 2187 284 
Q 2391 475 2391 747 
Q 2391 972 2272 1150 
Q 2050 1481 1375 2016 
z
" transform="scale(0.015625)"/>
       </defs>
       <use xlink:href="#TimesNewRomanPSMT-38"/>
       <use xlink:href="#TimesNewRomanPSMT-30" x="50"/>
       <use xlink:href="#TimesNewRomanPSMT-30" x="100"/>
      </g>
     </g>
    </g>
    <g id="xtick_6">
     <g id="line2d_6">
      <g>
       <use xlink:href="#m79754148ad" x="525.388112" y="228.96" style="stroke: #000000; stroke-width: 0.8"/>
      </g>
     </g>
     <g id="text_6">
      <!-- 1000 -->
      <g transform="translate(515.388112 242.90375) scale(0.1 -0.1)">
       <defs>
        <path id="TimesNewRomanPSMT-31" d="M 750 3822 
L 1781 4325 
L 1884 4325 
L 1884 747 
Q 1884 391 1914 303 
Q 1944 216 2037 169 
Q 2131 122 2419 116 
L 2419 0 
L 825 0 
L 825 116 
Q 1125 122 1212 167 
Q 1300 213 1334 289 
Q 1369 366 1369 747 
L 1369 3034 
Q 1369 3497 1338 3628 
Q 1316 3728 1258 3775 
Q 1200 3822 1119 3822 
Q 1003 3822 797 3725 
L 750 3822 
z
" transform="scale(0.015625)"/>
       </defs>
       <use xlink:href="#TimesNewRomanPSMT-31"/>
       <use xlink:href="#TimesNewRomanPSMT-30" x="50"/>
       <use xlink:href="#TimesNewRomanPSMT-30" x="100"/>
       <use xlink:href="#TimesNewRomanPSMT-30" x="150"/>
      </g>
     </g>
    </g>
    <g id="xtick_7">
     <g id="line2d_7">
      <g>
       <use xlink:href="#m79754148ad" x="619.038462" y="228.96" style="stroke: #000000; stroke-width: 0.8"/>
      </g>
     </g>
     <g id="text_7">
      <!-- 1200 -->
      <g transform="translate(609.038462 242.90375) scale(0.1 -0.1)">
       <use xlink:href="#TimesNewRomanPSMT-31"/>
       <use xlink:href="#TimesNewRomanPSMT-32" x="50"/>
       <use xlink:href="#TimesNewRomanPSMT-30" x="100"/>
       <use xlink:href="#TimesNewRomanPSMT-30" x="150"/>
      </g>
     </g>
    </g>
   </g>
   <g id="matplotlib.axis_2">
    <g id="ytick_1">
     <g id="line2d_8">
      <defs>
       <path id="m0e0a0a23df" d="M 0 0 
L -3.5 0 
" style="stroke: #000000; stroke-width: 0.8"/>
      </defs>
      <g>
       <use xlink:href="#m0e0a0a23df" x="26.7" y="222.454707" style="stroke: #000000; stroke-width: 0.8"/>
      </g>
     </g>
     <g id="text_8">
      <!-- 0.1 -->
      <g transform="translate(7.2 225.926582) scale(0.1 -0.1)">
       <defs>
        <path id="TimesNewRomanPSMT-2e" d="M 800 606 
Q 947 606 1047 504 
Q 1147 403 1147 259 
Q 1147 116 1045 14 
Q 944 -88 800 -88 
Q 656 -88 554 14 
Q 453 116 453 259 
Q 453 406 554 506 
Q 656 606 800 606 
z
" transform="scale(0.015625)"/>
       </defs>
       <use xlink:href="#TimesNewRomanPSMT-30"/>
       <use xlink:href="#TimesNewRomanPSMT-2e" x="50"/>
       <use xlink:href="#TimesNewRomanPSMT-31" x="75"/>
      </g>
     </g>
    </g>
    <g id="ytick_2">
     <g id="line2d_9">
      <g>
       <use xlink:href="#m0e0a0a23df" x="26.7" y="188.731054" style="stroke: #000000; stroke-width: 0.8"/>
      </g>
     </g>
     <g id="text_9">
      <!-- 0.2 -->
      <g transform="translate(7.2 192.202929) scale(0.1 -0.1)">
       <use xlink:href="#TimesNewRomanPSMT-30"/>
       <use xlink:href="#TimesNewRomanPSMT-2e" x="50"/>
       <use xlink:href="#TimesNewRomanPSMT-32" x="75"/>
      </g>
     </g>
    </g>
    <g id="ytick_3">
     <g id="line2d_10">
      <g>
       <use xlink:href="#m0e0a0a23df" x="26.7" y="155.0074" style="stroke: #000000; stroke-width: 0.8"/>
      </g>
     </g>
     <g id="text_10">
      <!-- 0.3 -->
      <g transform="translate(7.2 158.479275) scale(0.1 -0.1)">
       <defs>
        <path id="TimesNewRomanPSMT-33" d="M 325 3431 
Q 506 3859 782 4092 
Q 1059 4325 1472 4325 
Q 1981 4325 2253 3994 
Q 2459 3747 2459 3466 
Q 2459 3003 1878 2509 
Q 2269 2356 2469 2072 
Q 2669 1788 2669 1403 
Q 2669 853 2319 450 
Q 1863 -75 997 -75 
Q 569 -75 414 31 
Q 259 138 259 259 
Q 259 350 332 419 
Q 406 488 509 488 
Q 588 488 669 463 
Q 722 447 909 348 
Q 1097 250 1169 231 
Q 1284 197 1416 197 
Q 1734 197 1970 444 
Q 2206 691 2206 1028 
Q 2206 1275 2097 1509 
Q 2016 1684 1919 1775 
Q 1784 1900 1550 2001 
Q 1316 2103 1072 2103 
L 972 2103 
L 972 2197 
Q 1219 2228 1467 2375 
Q 1716 2522 1828 2728 
Q 1941 2934 1941 3181 
Q 1941 3503 1739 3701 
Q 1538 3900 1238 3900 
Q 753 3900 428 3381 
L 325 3431 
z
" transform="scale(0.015625)"/>
       </defs>
       <use xlink:href="#TimesNewRomanPSMT-30"/>
       <use xlink:href="#TimesNewRomanPSMT-2e" x="50"/>
       <use xlink:href="#TimesNewRomanPSMT-33" x="75"/>
      </g>
     </g>
    </g>
    <g id="ytick_4">
     <g id="line2d_11">
      <g>
       <use xlink:href="#m0e0a0a23df" x="26.7" y="121.283747" style="stroke: #000000; stroke-width: 0.8"/>
      </g>
     </g>
     <g id="text_11">
      <!-- 0.4 -->
      <g transform="translate(7.2 124.755622) scale(0.1 -0.1)">
       <use xlink:href="#TimesNewRomanPSMT-30"/>
       <use xlink:href="#TimesNewRomanPSMT-2e" x="50"/>
       <use xlink:href="#TimesNewRomanPSMT-34" x="75"/>
      </g>
     </g>
    </g>
    <g id="ytick_5">
     <g id="line2d_12">
      <g>
       <use xlink:href="#m0e0a0a23df" x="26.7" y="87.560094" style="stroke: #000000; stroke-width: 0.8"/>
      </g>
     </g>
     <g id="text_12">
      <!-- 0.5 -->
      <g transform="translate(7.2 91.031969) scale(0.1 -0.1)">
       <defs>
        <path id="TimesNewRomanPSMT-35" d="M 2778 4238 
L 2534 3706 
L 1259 3706 
L 981 3138 
Q 1809 3016 2294 2522 
Q 2709 2097 2709 1522 
Q 2709 1188 2573 903 
Q 2438 619 2231 419 
Q 2025 219 1772 97 
Q 1413 -75 1034 -75 
Q 653 -75 479 54 
Q 306 184 306 341 
Q 306 428 378 495 
Q 450 563 559 563 
Q 641 563 702 538 
Q 763 513 909 409 
Q 1144 247 1384 247 
Q 1750 247 2026 523 
Q 2303 800 2303 1197 
Q 2303 1581 2056 1914 
Q 1809 2247 1375 2428 
Q 1034 2569 447 2591 
L 1259 4238 
L 2778 4238 
z
" transform="scale(0.015625)"/>
       </defs>
       <use xlink:href="#TimesNewRomanPSMT-30"/>
       <use xlink:href="#TimesNewRomanPSMT-2e" x="50"/>
       <use xlink:href="#TimesNewRomanPSMT-35" x="75"/>
      </g>
     </g>
    </g>
    <g id="ytick_6">
     <g id="line2d_13">
      <g>
       <use xlink:href="#m0e0a0a23df" x="26.7" y="53.83644" style="stroke: #000000; stroke-width: 0.8"/>
      </g>
     </g>
     <g id="text_13">
      <!-- 0.6 -->
      <g transform="translate(7.2 57.308315) scale(0.1 -0.1)">
       <use xlink:href="#TimesNewRomanPSMT-30"/>
       <use xlink:href="#TimesNewRomanPSMT-2e" x="50"/>
       <use xlink:href="#TimesNewRomanPSMT-36" x="75"/>
      </g>
     </g>
    </g>
    <g id="ytick_7">
     <g id="line2d_14">
      <g>
       <use xlink:href="#m0e0a0a23df" x="26.7" y="20.112787" style="stroke: #000000; stroke-width: 0.8"/>
      </g>
     </g>
     <g id="text_14">
      <!-- 0.7 -->
      <g transform="translate(7.2 23.584662) scale(0.1 -0.1)">
       <defs>
        <path id="TimesNewRomanPSMT-37" d="M 644 4238 
L 2916 4238 
L 2916 4119 
L 1503 -88 
L 1153 -88 
L 2419 3728 
L 1253 3728 
Q 900 3728 750 3644 
Q 488 3500 328 3200 
L 238 3234 
L 644 4238 
z
" transform="scale(0.015625)"/>
       </defs>
       <use xlink:href="#TimesNewRomanPSMT-30"/>
       <use xlink:href="#TimesNewRomanPSMT-2e" x="50"/>
       <use xlink:href="#TimesNewRomanPSMT-37" x="75"/>
      </g>
     </g>
    </g>
   </g>
   <g id="line2d_15">
    <path d="M 57.136364 126.544637 
L 57.604615 123.172272 
L 58.072867 117.135738 
L 58.541119 106.951194 
L 59.009371 104.320749 
L 59.477622 96.800375 
L 59.945874 98.284215 
L 60.414126 92.281405 
L 60.882378 94.54089 
L 61.350629 91.876721 
L 61.818881 88.875316 
L 62.287133 86.244871 
L 62.755385 81.354941 
L 63.223636 77.948852 
L 63.691888 77.948852 
L 64.16014 79.466417 
L 64.628392 73.800843 
L 65.096643 73.429883 
L 65.564895 71.170398 
L 66.033147 72.283279 
L 66.501399 70.799438 
L 66.96965 71.541358 
L 67.437902 64.020984 
L 67.906154 68.910913 
L 68.374406 65.133864 
L 68.842657 60.985855 
L 69.310909 62.503419 
L 69.779161 59.09733 
L 70.247413 64.020984 
L 70.715664 64.020984 
L 71.183916 59.09733 
L 71.652168 57.613489 
L 72.12042 57.98445 
L 72.588671 56.837845 
L 73.056923 55.354005 
L 73.525175 55.354005 
L 73.993427 54.2074 
L 74.461678 54.2074 
L 74.92993 54.578361 
L 75.398182 51.576956 
L 75.866434 51.576956 
L 76.334685 52.689836 
L 76.802937 53.46548 
L 77.271189 49.688431 
L 77.739441 53.46548 
L 78.207692 50.059391 
L 78.675944 50.430351 
L 79.144196 49.317471 
L 79.612448 51.205995 
L 80.080699 47.057986 
L 80.548951 47.428946 
L 82.89021 43.651897 
L 85.231469 46.316066 
L 87.572727 45.540422 
L 89.913986 42.909977 
L 92.255245 41.392412 
L 94.596503 41.021452 
L 96.937762 40.279532 
L 99.279021 40.279532 
L 101.62028 40.650492 
L 103.961538 41.021452 
L 106.302797 37.649087 
L 108.644056 38.020047 
L 110.985315 39.503888 
L 113.326573 36.873443 
L 115.667832 37.649087 
L 118.009091 37.244403 
L 120.35035 37.244403 
L 122.691608 37.244403 
L 125.032867 33.872037 
L 127.374126 35.760562 
L 129.715385 35.389602 
L 132.056643 33.501077 
L 134.397902 36.502482 
L 136.739161 36.131522 
L 139.08042 34.613958 
L 141.421678 36.131522 
L 143.762937 36.873443 
L 146.104196 35.760562 
L 148.445455 36.131522 
L 150.786713 34.984918 
L 197.611888 34.984918 
L 244.437063 36.131522 
L 291.262238 35.760562 
L 338.087413 34.613958 
L 384.912587 36.131522 
L 431.737762 36.502482 
L 478.562937 35.389602 
L 525.388112 34.984918 
L 572.213287 36.873443 
L 619.038462 37.244403 
L 665.863636 36.502482 
" clip-path="url(#pf877468b57)" style="fill: none; stroke: #e86254; stroke-width: 1.5; stroke-linecap: square"/>
   </g>
   <g id="LineCollection_1">
    <path d="M 57.136364 42.606464 
L 665.863636 42.606464 
" clip-path="url(#pf877468b57)" style="fill: none; stroke-dasharray: 1.5,2.475; stroke-dashoffset: 0; stroke: #e86254; stroke-opacity: 0.5; stroke-width: 1.5"/>
   </g>
   <g id="line2d_16">
    <path d="M 57.136364 33.501077 
L 57.604615 33.872037 
L 58.072867 33.501077 
L 58.541119 33.872037 
L 59.009371 33.096393 
L 59.477622 32.354473 
L 59.945874 31.983513 
L 60.414126 32.354473 
L 60.882378 31.612553 
L 61.350629 31.612553 
L 61.818881 28.982108 
L 62.287133 26.722623 
L 62.755385 25.576019 
L 63.223636 25.205059 
L 63.691888 24.058454 
L 64.16014 22.945574 
L 64.628392 22.574614 
L 65.096643 21.79897 
L 65.564895 21.428009 
L 66.033147 20.686089 
L 66.501399 20.686089 
L 66.96965 20.686089 
L 67.437902 20.686089 
L 67.906154 21.428009 
L 68.374406 21.428009 
L 68.842657 21.428009 
L 69.310909 21.428009 
L 69.779161 21.428009 
L 70.247413 21.428009 
L 70.715664 21.428009 
L 71.183916 21.428009 
L 71.652168 21.428009 
L 72.12042 21.428009 
L 72.588671 21.428009 
L 73.056923 21.428009 
L 73.525175 21.428009 
L 73.993427 21.057049 
L 74.461678 21.057049 
L 74.92993 21.057049 
L 75.398182 21.057049 
L 75.866434 21.057049 
L 76.334685 20.686089 
L 76.802937 20.686089 
L 77.271189 20.686089 
L 77.739441 20.686089 
L 78.207692 20.686089 
L 78.675944 20.686089 
L 79.144196 20.686089 
L 79.612448 20.686089 
L 80.080699 20.686089 
L 80.548951 20.686089 
L 82.89021 20.686089 
L 85.231469 20.686089 
L 87.572727 20.686089 
L 89.913986 20.686089 
L 92.255245 20.686089 
L 94.596503 20.686089 
L 96.937762 20.686089 
L 99.279021 20.686089 
L 101.62028 20.686089 
L 103.961538 20.686089 
L 106.302797 20.686089 
L 108.644056 20.686089 
L 110.985315 20.686089 
L 113.326573 20.686089 
L 115.667832 20.686089 
L 118.009091 20.686089 
L 120.35035 20.686089 
L 122.691608 20.686089 
L 125.032867 20.686089 
L 127.374126 20.686089 
L 129.715385 20.686089 
L 132.056643 20.686089 
L 134.397902 20.686089 
L 136.739161 20.686089 
L 139.08042 20.686089 
L 141.421678 20.686089 
L 143.762937 20.686089 
L 146.104196 20.686089 
L 148.445455 20.686089 
L 150.786713 20.686089 
L 197.611888 20.686089 
L 244.437063 20.686089 
L 291.262238 20.686089 
L 338.087413 20.686089 
L 384.912587 20.686089 
L 431.737762 20.686089 
L 478.562937 20.686089 
L 525.388112 20.686089 
L 572.213287 20.686089 
L 619.038462 20.686089 
L 665.863636 20.686089 
" clip-path="url(#pf877468b57)" style="fill: none; stroke: #73bcd5; stroke-width: 1.5; stroke-linecap: square"/>
   </g>
   <g id="LineCollection_2">
    <path d="M 57.136364 17.28 
L 665.863636 17.28 
" clip-path="url(#pf877468b57)" style="fill: none; stroke-dasharray: 1.5,2.475; stroke-dashoffset: 0; stroke: #73bcd5; stroke-opacity: 0.5; stroke-width: 1.5"/>
   </g>
   <g id="line2d_17">
    <path d="M 57.136364 218.50904 
L 57.604615 218.50904 
L 58.072867 218.88 
L 58.541119 218.88 
L 59.009371 218.88 
L 59.477622 218.50904 
L 59.945874 218.50904 
L 60.414126 218.50904 
L 60.882378 218.50904 
L 61.350629 218.13808 
L 61.818881 218.13808 
L 62.287133 218.13808 
L 62.755385 218.13808 
L 63.223636 218.13808 
L 63.691888 218.13808 
L 64.16014 217.733396 
L 64.628392 217.733396 
L 65.096643 217.733396 
L 65.564895 217.733396 
L 66.033147 217.733396 
L 66.501399 217.362436 
L 66.96965 217.362436 
L 67.437902 217.362436 
L 67.906154 217.362436 
L 68.374406 217.362436 
L 68.842657 216.991475 
L 69.310909 216.620515 
L 69.779161 216.620515 
L 70.247413 216.620515 
L 70.715664 216.620515 
L 71.183916 216.249555 
L 71.652168 216.249555 
L 72.12042 216.249555 
L 72.588671 216.249555 
L 73.056923 215.844871 
L 73.525175 215.844871 
L 73.993427 215.844871 
L 74.461678 215.473911 
L 74.92993 215.473911 
L 75.398182 215.473911 
L 75.866434 215.473911 
L 76.334685 215.102951 
L 76.802937 215.102951 
L 77.271189 214.731991 
L 77.739441 214.731991 
L 78.207692 214.36103 
L 78.675944 214.36103 
L 79.144196 213.99007 
L 79.612448 213.99007 
L 80.080699 213.99007 
L 80.548951 212.472506 
L 82.89021 210.954941 
L 85.231469 209.842061 
L 87.572727 207.582576 
L 89.913986 203.805527 
L 92.255245 203.063607 
L 94.596503 199.657518 
L 96.937762 195.880468 
L 99.279021 180.435035 
L 101.62028 173.656581 
L 103.961538 164.989602 
L 106.302797 159.728712 
L 108.644056 148.026604 
L 110.985315 138.246745 
L 113.326573 125.060796 
L 115.667832 119.766183 
L 118.009091 111.874848 
L 120.35035 103.578829 
L 122.691608 97.913255 
L 125.032867 87.357752 
L 127.374126 78.319813 
L 129.715385 70.799438 
L 132.056643 62.503419 
L 134.397902 53.46548 
L 136.739161 46.316066 
L 139.08042 43.651897 
L 141.421678 39.908571 
L 143.762937 39.908571 
L 146.104196 35.389602 
L 148.445455 33.096393 
L 150.786713 30.465948 
L 197.611888 21.428009 
L 244.437063 21.428009 
L 291.262238 21.428009 
L 338.087413 21.428009 
L 384.912587 21.428009 
L 431.737762 21.428009 
L 478.562937 21.428009 
L 525.388112 21.428009 
L 572.213287 21.428009 
L 619.038462 21.428009 
L 665.863636 21.428009 
" clip-path="url(#pf877468b57)" style="fill: none; stroke: #386795; stroke-width: 1.5; stroke-linecap: square"/>
   </g>
   <g id="LineCollection_3">
    <path d="M 57.136364 19.573208 
L 665.863636 19.573208 
" clip-path="url(#pf877468b57)" style="fill: none; stroke-dasharray: 1.5,2.475; stroke-dashoffset: 0; stroke: #386795; stroke-opacity: 0.5; stroke-width: 1.5"/>
   </g>
   <g id="patch_3">
    <path d="M 26.7 228.96 
L 26.7 7.2 
" style="fill: none; stroke: #000000; stroke-width: 0.8; stroke-linejoin: miter; stroke-linecap: square"/>
   </g>
   <g id="patch_4">
    <path d="M 696.3 228.96 
L 696.3 7.2 
" style="fill: none; stroke: #000000; stroke-width: 0.8; stroke-linejoin: miter; stroke-linecap: square"/>
   </g>
   <g id="patch_5">
    <path d="M 26.7 228.96 
L 696.3 228.96 
" style="fill: none; stroke: #000000; stroke-width: 0.8; stroke-linejoin: miter; stroke-linecap: square"/>
   </g>
   <g id="patch_6">
    <path d="M 26.7 7.2 
L 696.3 7.2 
" style="fill: none; stroke: #000000; stroke-width: 0.8; stroke-linejoin: miter; stroke-linecap: square"/>
   </g>
   <g id="legend_1">
    <g id="patch_7">
     <path d="M 524.170313 223.96 
L 689.3 223.96 
Q 691.3 223.96 691.3 221.96 
L 691.3 177.452187 
Q 691.3 175.452187 689.3 175.452187 
L 524.170313 175.452187 
Q 522.170313 175.452187 522.170313 177.452187 
L 522.170313 221.96 
Q 522.170313 223.96 524.170313 223.96 
z
" style="fill: #ffffff; opacity: 0.8; stroke: #cccccc; stroke-linejoin: miter"/>
    </g>
    <g id="line2d_18">
     <path d="M 526.170313 183.070937 
L 536.170313 183.070937 
L 546.170313 183.070937 
" style="fill: none; stroke: #e86254; stroke-width: 1.5; stroke-linecap: square"/>
    </g>
    <g id="text_15">
     <!-- 使用上下文信息 -->
     <g transform="translate(554.170313 186.570937) scale(0.1 -0.1)">
      <defs>
       <path id="SimSun-4f7f" d="M 2875 3150 
L 2875 2100 
L 3825 2100 
Q 3850 2825 3850 3150 
L 2875 3150 
z
M 4175 3150 
Q 4175 2800 4150 2100 
L 5150 2100 
L 5150 3150 
L 4175 3150 
z
M 5475 3100 
L 5475 2425 
Q 5475 2100 5500 1800 
L 5150 1675 
L 5150 1950 
L 4150 1950 
Q 4125 1175 3875 600 
Q 4275 275 4875 75 
Q 5475 -125 6075 -150 
L 6075 -250 
Q 5700 -300 5600 -575 
Q 4525 -325 3725 350 
Q 3425 25 2925 -225 
Q 2425 -475 1875 -650 
L 1825 -550 
Q 2400 -325 2850 -25 
Q 3300 275 3500 575 
Q 3200 925 2825 1650 
L 2900 1700 
Q 3325 1100 3625 825 
Q 3800 1300 3825 1950 
L 2875 1950 
L 2875 1825 
L 2525 1675 
Q 2550 2075 2550 2562 
Q 2550 3050 2525 3500 
L 2875 3300 
L 3850 3300 
L 3850 4025 
L 2975 4025 
Q 2650 4025 2375 3950 
L 2150 4175 
L 3850 4175 
L 3850 4525 
Q 3850 4775 3825 5225 
L 4350 5000 
L 4175 4825 
L 4175 4175 
L 5300 4175 
L 5600 4475 
L 6050 4025 
L 4175 4025 
L 4175 3300 
L 5100 3300 
L 5275 3525 
L 5650 3225 
L 5475 3100 
z
M 1675 3175 
L 1675 -450 
L 1325 -625 
Q 1350 -75 1350 350 
L 1350 3200 
Q 900 2475 350 1900 
L 275 1950 
Q 700 2525 1112 3400 
Q 1525 4275 1800 5250 
L 2325 4925 
L 2125 4800 
Q 1725 3925 1500 3525 
L 1875 3325 
L 1675 3175 
z
" transform="scale(0.015625)"/>
       <path id="SimSun-7528" d="M 3400 3150 
L 3400 1825 
L 5075 1825 
L 5075 3150 
L 3400 3150 
z
M 4075 100 
Q 4725 50 4900 62 
Q 5075 75 5075 400 
L 5075 1675 
L 3400 1675 
Q 3400 75 3425 -225 
L 3050 -400 
Q 3075 1025 3075 1675 
L 1425 1675 
Q 1250 350 375 -600 
L 300 -550 
Q 775 225 950 1025 
Q 1125 1825 1125 3225 
Q 1125 4625 1100 5075 
L 1475 4825 
L 5050 4825 
L 5225 5100 
L 5625 4800 
L 5425 4600 
L 5425 225 
Q 5450 -400 4875 -575 
Q 4825 -150 4075 -25 
L 4075 100 
z
M 1475 4675 
L 1475 3300 
L 3075 3300 
L 3075 4675 
L 1475 4675 
z
M 3400 4675 
L 3400 3300 
L 5075 3300 
L 5075 4675 
L 3400 4675 
z
M 1475 3150 
Q 1450 2100 1425 1825 
L 3075 1825 
L 3075 3150 
L 1475 3150 
z
" transform="scale(0.015625)"/>
       <path id="SimSun-4e0a" d="M 2725 5175 
L 3400 4875 
L 3125 4675 
L 3125 3000 
L 4600 3000 
L 4975 3375 
L 5500 2850 
L 3125 2850 
L 3125 25 
L 5175 25 
L 5575 425 
L 6125 -125 
L 1125 -125 
Q 800 -125 525 -200 
L 300 25 
L 2750 25 
L 2750 4225 
Q 2750 4675 2725 5175 
z
" transform="scale(0.015625)"/>
       <path id="SimSun-4e0b" d="M 450 4575 
L 5075 4575 
L 5450 4950 
L 5975 4425 
L 3250 4425 
L 3250 3125 
Q 4750 2675 4987 2412 
Q 5225 2150 5225 1950 
Q 5225 1875 5162 1737 
Q 5100 1600 5050 1600 
Q 4950 1600 4700 1925 
Q 4350 2400 3250 3000 
L 3250 450 
Q 3250 -75 3275 -425 
L 2850 -600 
Q 2875 325 2875 675 
L 2875 4425 
L 1275 4425 
Q 950 4425 675 4350 
L 450 4575 
z
" transform="scale(0.015625)"/>
       <path id="SimSun-6587" d="M 2825 5150 
Q 3175 4925 3337 4737 
Q 3500 4550 3500 4425 
Q 3500 4300 3400 4162 
Q 3300 4025 3225 4025 
Q 3150 4025 3100 4275 
Q 3025 4675 2750 5100 
L 2825 5150 
z
M 450 3875 
L 5100 3875 
L 5500 4275 
L 6050 3725 
L 4500 3725 
Q 4175 2100 3400 1025 
Q 4400 125 6025 0 
L 6025 -100 
Q 5550 -175 5475 -475 
Q 3950 -25 3175 825 
Q 2000 -250 325 -575 
L 300 -500 
Q 1925 -25 2975 1050 
Q 2250 2125 1950 3725 
L 1275 3725 
Q 950 3725 675 3650 
L 450 3875 
z
M 2100 3725 
Q 2450 2275 3175 1300 
Q 3825 2275 4100 3725 
L 2100 3725 
z
" transform="scale(0.015625)"/>
       <path id="SimSun-4fe1" d="M 3425 5125 
L 3500 5200 
Q 4000 4900 4125 4737 
Q 4250 4575 4250 4500 
Q 4250 4350 4050 4150 
L 5200 4150 
L 5500 4450 
L 5950 4000 
L 2850 4000 
Q 2525 4000 2250 3925 
L 2025 4150 
L 3850 4150 
Q 3850 4625 3425 5125 
z
M 3000 1300 
L 3000 150 
L 5050 150 
L 5050 1300 
L 3000 1300 
z
M 2475 3250 
L 4875 3250 
L 5175 3550 
L 5625 3100 
L 3225 3100 
Q 2975 3100 2700 3025 
L 2475 3250 
z
M 2425 2325 
L 4900 2325 
L 5200 2625 
L 5650 2175 
L 3250 2175 
Q 2925 2175 2650 2100 
L 2425 2325 
z
M 2650 1675 
L 3000 1450 
L 5000 1450 
L 5225 1700 
L 5575 1400 
L 5375 1250 
L 5375 50 
Q 5375 -200 5400 -325 
L 5050 -475 
L 5050 0 
L 3000 0 
L 3000 -350 
L 2650 -500 
Q 2675 -100 2675 500 
Q 2675 1100 2650 1675 
z
M 1550 3150 
L 1550 -525 
L 1200 -650 
Q 1225 -150 1225 200 
L 1225 3025 
Q 750 2325 300 1900 
L 250 1975 
Q 900 2875 1300 3862 
Q 1700 4850 1775 5225 
L 2275 4925 
L 2075 4800 
Q 1675 3925 1450 3475 
L 1750 3300 
L 1550 3150 
z
" transform="scale(0.015625)"/>
       <path id="SimSun-606f" d="M 2800 5275 
L 3325 5050 
Q 3150 4950 3000 4825 
Q 2850 4700 2750 4550 
L 4500 4550 
L 4725 4825 
L 5125 4500 
L 4925 4325 
L 4925 2800 
Q 4925 2300 4950 1800 
L 4550 1650 
L 4550 1925 
L 1925 1925 
L 1925 1725 
L 1525 1600 
Q 1550 2150 1550 3137 
Q 1550 4125 1525 4775 
L 1925 4550 
L 2600 4550 
Q 2800 5025 2800 5275 
z
M 1925 4400 
L 1925 3725 
L 4550 3725 
L 4550 4400 
L 1925 4400 
z
M 1925 3575 
L 1925 2925 
L 4550 2925 
L 4550 3575 
L 1925 3575 
z
M 1925 2775 
L 1925 2075 
L 4550 2075 
L 4550 2775 
L 1925 2775 
z
M 2775 1725 
L 2825 1800 
Q 3225 1625 3450 1475 
Q 3675 1325 3687 1137 
Q 3700 950 3600 837 
Q 3500 725 3450 725 
Q 3350 725 3300 925 
Q 3175 1250 2775 1725 
z
M 4975 1175 
L 5025 1250 
Q 5500 975 5712 787 
Q 5925 600 5912 387 
Q 5900 175 5800 75 
Q 5700 -25 5675 -25 
Q 5575 -25 5500 275 
Q 5375 650 4975 1175 
z
M 1225 1200 
L 1325 1200 
Q 1325 475 1250 225 
Q 1175 -25 1037 -62 
Q 900 -100 775 -100 
Q 650 -100 587 -50 
Q 525 0 525 50 
Q 525 125 725 300 
Q 1000 500 1225 1200 
z
M 2000 200 
Q 2000 1025 1975 1450 
L 2550 1175 
L 2350 1025 
L 2350 300 
Q 2325 -100 2700 -50 
L 4175 -50 
Q 4375 -75 4425 237 
Q 4475 550 4475 950 
L 4600 950 
Q 4625 625 4650 375 
Q 4675 125 4925 50 
Q 4800 -350 4200 -350 
L 2525 -350 
Q 1975 -375 2000 200 
z
" transform="scale(0.015625)"/>
      </defs>
      <use xlink:href="#SimSun-4f7f"/>
      <use xlink:href="#SimSun-7528" x="100"/>
      <use xlink:href="#SimSun-4e0a" x="200"/>
      <use xlink:href="#SimSun-4e0b" x="300"/>
      <use xlink:href="#SimSun-6587" x="400"/>
      <use xlink:href="#SimSun-4fe1" x="500"/>
      <use xlink:href="#SimSun-606f" x="600"/>
     </g>
    </g>
    <g id="line2d_19">
     <path d="M 526.170313 198.4725 
L 536.170313 198.4725 
L 546.170313 198.4725 
" style="fill: none; stroke: #73bcd5; stroke-width: 1.5; stroke-linecap: square"/>
    </g>
    <g id="text_16">
     <!-- 不使用上下文信息-Base -->
     <g transform="translate(554.170313 201.9725) scale(0.1 -0.1)">
      <defs>
       <path id="SourceHanSerifCN-Heavy-4e0d" d="M 3816 3188 
Q 4547 3125 5017 2945 
Q 5488 2766 5739 2530 
Q 5991 2294 6059 2059 
Q 6128 1825 6053 1647 
Q 5978 1469 5795 1403 
Q 5613 1338 5363 1447 
Q 5194 1747 4930 2059 
Q 4666 2372 4361 2653 
Q 4056 2934 3769 3144 
L 3816 3188 
z
M 197 4738 
L 4728 4738 
L 5259 5409 
Q 5259 5409 5356 5336 
Q 5453 5263 5603 5147 
Q 5753 5031 5917 4901 
Q 6081 4772 6216 4659 
Q 6188 4556 6022 4556 
L 4256 4556 
Q 3994 4069 3591 3597 
L 3853 3500 
Q 3838 3456 3794 3425 
Q 3750 3394 3653 3378 
L 3653 -409 
Q 3647 -434 3526 -482 
Q 3406 -531 3231 -570 
Q 3056 -609 2888 -609 
L 2706 -609 
L 2706 2725 
Q 2166 2275 1527 1900 
Q 888 1525 191 1269 
L 159 1319 
Q 631 1628 1070 2014 
Q 1509 2400 1881 2829 
Q 2253 3259 2531 3700 
Q 2809 4141 2963 4556 
L 250 4556 
L 197 4738 
z
" transform="scale(0.015625)"/>
       <path id="SourceHanSerifCN-Heavy-4f7f" d="M 3578 5453 
L 4716 5344 
Q 4706 5278 4659 5231 
Q 4613 5184 4488 5166 
L 4488 4459 
L 4872 4459 
L 5363 5106 
Q 5363 5106 5453 5036 
Q 5544 4966 5683 4855 
Q 5822 4744 5975 4619 
Q 6128 4494 6253 4384 
Q 6238 4331 6186 4306 
Q 6134 4281 6069 4281 
L 4488 4281 
L 4488 3634 
L 4972 3634 
L 5369 4072 
L 6188 3450 
Q 6159 3413 6096 3372 
Q 6034 3331 5931 3309 
L 5931 1947 
Q 5931 1919 5809 1866 
Q 5688 1813 5514 1767 
Q 5341 1722 5191 1722 
L 5038 1722 
L 5038 2047 
L 4488 2047 
Q 4478 1650 4392 1312 
Q 4306 975 4134 697 
Q 4619 541 5186 470 
Q 5753 400 6344 409 
L 6338 331 
Q 6072 247 5876 4 
Q 5681 -238 5631 -588 
Q 4997 -488 4508 -308 
Q 4019 -128 3653 159 
Q 3003 -369 1703 -609 
L 1672 -544 
Q 2766 -97 3206 609 
Q 3047 819 2919 1070 
Q 2791 1322 2694 1625 
L 2759 1656 
Q 2875 1472 3040 1312 
Q 3206 1153 3413 1025 
Q 3494 1250 3533 1504 
Q 3572 1759 3578 2047 
L 3022 2047 
L 3022 1900 
Q 3022 1863 2908 1800 
Q 2794 1738 2620 1688 
Q 2447 1638 2266 1638 
L 2144 1638 
L 2144 3988 
L 3059 3634 
L 3578 3634 
L 3578 4281 
L 2125 4281 
L 2075 4459 
L 3578 4459 
L 3578 5453 
z
M 5038 2228 
L 5038 3456 
L 4488 3456 
L 4488 2228 
L 5038 2228 
z
M 3022 2228 
L 3578 2228 
L 3578 3456 
L 3022 3456 
L 3022 2228 
z
M 1269 5478 
L 2497 5113 
Q 2472 5050 2408 5012 
Q 2344 4975 2234 4978 
Q 2091 4600 1923 4265 
Q 1756 3931 1569 3634 
L 1906 3506 
Q 1888 3459 1842 3428 
Q 1797 3397 1703 3378 
L 1703 -353 
Q 1700 -384 1592 -445 
Q 1484 -506 1320 -557 
Q 1156 -609 978 -609 
L 813 -609 
L 813 2681 
Q 644 2513 467 2364 
Q 291 2216 103 2081 
L 31 2125 
Q 284 2534 525 3078 
Q 766 3622 961 4237 
Q 1156 4853 1269 5478 
z
" transform="scale(0.015625)"/>
       <path id="SourceHanSerifCN-Heavy-7528" d="M 1778 3278 
L 1778 2956 
Q 1778 2703 1770 2436 
Q 1763 2169 1728 1900 
L 2731 1900 
L 2731 3278 
L 1778 3278 
z
M 1778 3456 
L 2731 3456 
L 2731 4769 
L 1778 4769 
L 1778 3456 
z
M 872 4947 
L 872 5300 
L 1913 4947 
L 4666 4947 
L 5088 5434 
L 5947 4756 
Q 5906 4713 5840 4669 
Q 5775 4625 5663 4603 
L 5663 488 
Q 5663 188 5589 -18 
Q 5516 -225 5280 -348 
Q 5044 -472 4556 -513 
Q 4544 -297 4514 -139 
Q 4484 19 4416 116 
Q 4344 216 4234 287 
Q 4125 359 3884 403 
L 3884 488 
Q 3884 488 3976 481 
Q 4069 475 4198 467 
Q 4328 459 4443 453 
Q 4559 447 4609 447 
Q 4684 447 4711 483 
Q 4738 519 4738 575 
L 4738 1722 
L 3641 1722 
L 3641 -269 
Q 3641 -313 3447 -413 
Q 3253 -513 2900 -513 
L 2731 -513 
L 2731 1722 
L 1703 1722 
Q 1634 1306 1476 903 
Q 1319 500 1016 134 
Q 713 -231 219 -531 
L 159 -488 
Q 494 3 644 570 
Q 794 1138 833 1744 
Q 872 2350 872 2950 
L 872 4947 
z
M 4738 3278 
L 3641 3278 
L 3641 1900 
L 4738 1900 
L 4738 3278 
z
M 4738 3456 
L 4738 4769 
L 3641 4769 
L 3641 3456 
L 4738 3456 
z
" transform="scale(0.015625)"/>
       <path id="SourceHanSerifCN-Heavy-4e0a" d="M 159 -84 
L 2472 -84 
L 2472 5369 
L 3731 5253 
Q 3722 5181 3675 5134 
Q 3628 5088 3494 5069 
L 3494 2900 
L 4325 2900 
L 4850 3578 
Q 4850 3578 4945 3504 
Q 5041 3431 5189 3315 
Q 5338 3200 5498 3069 
Q 5659 2938 5791 2822 
Q 5766 2719 5606 2719 
L 3494 2719 
L 3494 -84 
L 4750 -84 
L 5288 603 
Q 5288 603 5384 528 
Q 5481 453 5632 336 
Q 5784 219 5950 87 
Q 6116 -44 6253 -159 
Q 6225 -263 6059 -263 
L 213 -263 
L 159 -84 
z
" transform="scale(0.015625)"/>
       <path id="SourceHanSerifCN-Heavy-4e0b" d="M 5319 5509 
Q 5319 5509 5417 5434 
Q 5516 5359 5669 5240 
Q 5822 5122 5987 4989 
Q 6153 4856 6291 4744 
Q 6263 4641 6094 4641 
L 3566 4641 
L 3566 3531 
Q 4359 3419 4865 3192 
Q 5372 2966 5636 2689 
Q 5900 2413 5964 2148 
Q 6028 1884 5936 1690 
Q 5844 1497 5636 1434 
Q 5428 1372 5153 1503 
Q 4969 1831 4709 2164 
Q 4450 2497 4153 2806 
Q 3856 3116 3566 3372 
L 3566 -331 
Q 3566 -366 3466 -431 
Q 3366 -497 3186 -553 
Q 3006 -609 2759 -609 
L 2572 -609 
L 2572 4641 
L 213 4641 
L 159 4819 
L 4781 4819 
L 5319 5509 
z
" transform="scale(0.015625)"/>
       <path id="SourceHanSerifCN-Heavy-6587" d="M 2450 5453 
Q 3013 5428 3338 5287 
Q 3663 5147 3798 4951 
Q 3934 4756 3918 4564 
Q 3903 4372 3776 4236 
Q 3650 4100 3451 4078 
Q 3253 4056 3028 4213 
Q 2969 4544 2797 4869 
Q 2625 5194 2413 5422 
L 2450 5453 
z
M 4078 3803 
L 1697 3803 
Q 1906 3044 2301 2484 
Q 2697 1925 3225 1522 
Q 3591 2028 3795 2600 
Q 4000 3172 4078 3803 
z
M 5253 4684 
Q 5253 4684 5348 4607 
Q 5444 4531 5587 4411 
Q 5731 4291 5887 4156 
Q 6044 4022 6169 3903 
Q 6141 3803 5984 3803 
L 5197 3803 
Q 5053 3009 4739 2328 
Q 4425 1647 3891 1094 
Q 4425 806 5025 612 
Q 5625 419 6259 294 
L 6241 219 
Q 5891 166 5648 -48 
Q 5406 -263 5281 -616 
Q 4684 -409 4168 -131 
Q 3653 147 3225 531 
Q 2663 131 1913 -153 
Q 1163 -438 197 -603 
L 172 -538 
Q 1028 -250 1672 136 
Q 2316 522 2778 991 
Q 2356 1506 2053 2195 
Q 1750 2884 1588 3803 
L 288 3803 
L 238 3981 
L 4738 3981 
L 5253 4684 
z
" transform="scale(0.015625)"/>
       <path id="SourceHanSerifCN-Heavy-4fe1" d="M 3328 5503 
Q 3844 5494 4139 5372 
Q 4434 5250 4551 5076 
Q 4669 4903 4644 4729 
Q 4619 4556 4492 4434 
Q 4366 4313 4177 4297 
Q 3988 4281 3775 4428 
Q 3744 4716 3603 4998 
Q 3463 5281 3291 5472 
L 3328 5503 
z
M 5172 2969 
Q 5172 2969 5247 2906 
Q 5322 2844 5437 2745 
Q 5553 2647 5679 2536 
Q 5806 2425 5906 2328 
Q 5878 2228 5728 2228 
L 2497 2228 
L 2444 2406 
L 4763 2406 
L 5172 2969 
z
M 5184 3909 
Q 5184 3909 5259 3846 
Q 5334 3784 5448 3686 
Q 5563 3588 5688 3477 
Q 5813 3366 5913 3272 
Q 5894 3169 5734 3169 
L 2444 3169 
L 2394 3347 
L 4775 3347 
L 5184 3909 
z
M 5522 4856 
Q 5522 4856 5605 4789 
Q 5688 4722 5813 4615 
Q 5938 4509 6075 4389 
Q 6213 4269 6322 4166 
Q 6294 4063 6144 4063 
L 2059 4063 
L 2009 4244 
L 5075 4244 
L 5522 4856 
z
M 1978 3547 
Q 1963 3497 1919 3467 
Q 1875 3438 1778 3419 
L 1778 -347 
Q 1772 -381 1662 -443 
Q 1553 -506 1384 -557 
Q 1216 -609 1038 -609 
L 863 -609 
L 863 2584 
Q 547 2231 172 1953 
L 103 1997 
Q 338 2428 559 3001 
Q 781 3575 959 4215 
Q 1138 4856 1234 5497 
L 2509 5141 
Q 2466 4997 2247 4997 
Q 1991 4269 1650 3669 
L 1978 3547 
z
M 3378 -319 
Q 3378 -363 3262 -430 
Q 3147 -497 2967 -550 
Q 2788 -603 2597 -603 
L 2472 -603 
L 2472 1947 
L 3425 1581 
L 4728 1581 
L 5141 2022 
L 5972 1394 
Q 5944 1356 5883 1315 
Q 5822 1275 5722 1253 
L 5722 -281 
Q 5719 -309 5592 -367 
Q 5466 -425 5287 -472 
Q 5109 -519 4953 -519 
L 4794 -519 
L 4794 -31 
L 3378 -31 
L 3378 -319 
z
M 4794 1403 
L 3378 1403 
L 3378 147 
L 4794 147 
L 4794 1403 
z
" transform="scale(0.015625)"/>
       <path id="SourceHanSerifCN-Heavy-606f" d="M 1209 1434 
Q 1384 1034 1387 715 
Q 1391 397 1275 183 
Q 1159 -31 984 -122 
Q 806 -222 606 -164 
Q 406 -106 344 97 
Q 288 294 384 434 
Q 481 575 647 653 
Q 828 734 984 950 
Q 1141 1166 1125 1434 
L 1209 1434 
z
M 4703 1497 
Q 5259 1409 5587 1228 
Q 5916 1047 6058 826 
Q 6200 606 6194 401 
Q 6188 197 6073 58 
Q 5959 -81 5776 -101 
Q 5594 -122 5381 31 
Q 5328 416 5122 803 
Q 4916 1191 4653 1459 
L 4703 1497 
z
M 2884 1791 
Q 3325 1697 3562 1540 
Q 3800 1384 3881 1207 
Q 3963 1031 3922 875 
Q 3881 719 3759 623 
Q 3638 528 3472 534 
Q 3306 541 3134 691 
Q 3144 975 3053 1262 
Q 2963 1550 2828 1759 
L 2884 1791 
z
M 2156 1831 
Q 2156 1753 1925 1656 
L 2847 1588 
Q 2828 1453 2644 1428 
L 2644 481 
Q 2644 419 2681 395 
Q 2719 372 2872 372 
L 3603 372 
Q 3756 372 3906 372 
Q 4056 372 4134 378 
Q 4272 384 4344 469 
Q 4413 550 4502 728 
Q 4591 906 4716 1191 
L 4775 1191 
L 4794 447 
Q 4991 381 5055 298 
Q 5119 216 5119 91 
Q 5119 -100 4978 -209 
Q 4838 -319 4484 -364 
Q 4131 -409 3494 -409 
L 2713 -409 
Q 2313 -409 2097 -351 
Q 1881 -294 1798 -139 
Q 1716 16 1716 306 
L 1716 1581 
Q 1638 1563 1553 1550 
Q 1469 1538 1381 1538 
L 1247 1538 
L 1247 5069 
L 2206 4697 
L 2731 4697 
L 2803 5497 
L 4166 5300 
Q 4147 5209 4076 5165 
Q 4006 5122 3897 5106 
L 3281 4697 
L 4250 4697 
L 4659 5153 
L 5491 4513 
Q 5463 4475 5400 4433 
Q 5338 4391 5241 4372 
L 5241 1850 
Q 5234 1825 5106 1770 
Q 4978 1716 4800 1670 
Q 4622 1625 4466 1625 
L 4313 1625 
L 4313 2016 
L 2156 2016 
L 2156 1831 
z
M 4313 2194 
L 4313 2859 
L 2156 2859 
L 2156 2194 
L 4313 2194 
z
M 4313 3878 
L 4313 4519 
L 2156 4519 
L 2156 3878 
L 4313 3878 
z
M 4313 3700 
L 2156 3700 
L 2156 3041 
L 4313 3041 
L 4313 3700 
z
" transform="scale(0.015625)"/>
       <path id="SourceHanSerifCN-Heavy-2d" d="M 288 1613 
L 288 2081 
L 2156 2081 
L 2156 1613 
L 288 1613 
z
" transform="scale(0.015625)"/>
       <path id="SourceHanSerifCN-Heavy-42" d="M 263 4563 
L 263 4781 
L 2516 4781 
Q 3128 4781 3497 4636 
Q 3866 4491 4028 4237 
Q 4191 3984 4191 3659 
Q 4191 3419 4069 3198 
Q 3947 2978 3653 2811 
Q 3359 2644 2847 2553 
Q 3716 2469 4095 2150 
Q 4475 1831 4475 1331 
Q 4475 1097 4373 861 
Q 4272 625 4030 429 
Q 3788 234 3364 117 
Q 2941 0 2291 0 
L 263 0 
L 263 219 
L 838 275 
Q 847 778 848 1295 
Q 850 1813 850 2328 
L 850 2559 
Q 850 3050 848 3536 
Q 847 4022 838 4513 
L 263 4563 
z
M 1919 2388 
Q 1919 1816 1922 1283 
Q 1925 750 1941 238 
L 2259 238 
Q 2772 238 3065 511 
Q 3359 784 3359 1313 
Q 3359 1869 3081 2128 
Q 2803 2388 2222 2388 
L 1919 2388 
z
M 1941 4538 
Q 1925 4069 1922 3591 
Q 1919 3113 1919 2619 
L 2169 2619 
Q 2659 2619 2904 2881 
Q 3150 3144 3150 3628 
Q 3150 4059 2934 4298 
Q 2719 4538 2234 4538 
L 1941 4538 
z
" transform="scale(0.015625)"/>
       <path id="SourceHanSerifCN-Heavy-61" d="M 3016 -103 
Q 2703 -103 2520 45 
Q 2338 194 2266 447 
Q 2103 269 1953 144 
Q 1803 19 1622 -45 
Q 1441 -109 1184 -109 
Q 772 -109 511 125 
Q 250 359 250 763 
Q 250 1053 375 1267 
Q 500 1481 798 1648 
Q 1097 1816 1619 1959 
L 2241 2125 
L 2241 2516 
Q 2241 3016 2103 3197 
Q 1966 3378 1600 3378 
Q 1459 3378 1331 3353 
L 1288 2900 
Q 1272 2569 1130 2430 
Q 988 2291 806 2291 
Q 447 2291 359 2625 
Q 403 3072 812 3337 
Q 1222 3603 1966 3603 
Q 2647 3603 2948 3292 
Q 3250 2981 3250 2284 
L 3250 563 
Q 3250 381 3298 309 
Q 3347 238 3438 238 
Q 3509 238 3571 288 
Q 3634 338 3725 481 
L 3841 397 
Q 3716 131 3520 14 
Q 3325 -103 3016 -103 
z
M 2241 634 
L 2241 1953 
Q 2128 1919 2033 1889 
Q 1938 1859 1869 1838 
Q 1556 1703 1379 1475 
Q 1203 1247 1203 897 
Q 1203 609 1336 467 
Q 1469 325 1684 325 
Q 1784 325 1914 386 
Q 2044 447 2241 634 
z
" transform="scale(0.015625)"/>
       <path id="SourceHanSerifCN-Heavy-73" d="M 1522 -109 
Q 1150 -109 845 -28 
Q 541 53 256 213 
L 306 1081 
L 716 1081 
L 909 238 
Q 1034 188 1161 164 
Q 1288 141 1441 141 
Q 1806 141 2000 272 
Q 2194 403 2194 666 
Q 2194 869 2070 1016 
Q 1947 1163 1563 1275 
L 1191 1394 
Q 759 1525 517 1781 
Q 275 2038 275 2444 
Q 275 2950 654 3276 
Q 1034 3603 1741 3603 
Q 2063 3603 2327 3528 
Q 2591 3453 2875 3316 
L 2828 2509 
L 2463 2509 
L 2222 3263 
Q 2119 3313 2012 3336 
Q 1906 3359 1766 3359 
Q 1469 3359 1291 3220 
Q 1113 3081 1113 2841 
Q 1113 2669 1239 2525 
Q 1366 2381 1741 2272 
L 2119 2156 
Q 2622 2003 2853 1736 
Q 3084 1469 3084 1075 
Q 3084 513 2668 202 
Q 2253 -109 1522 -109 
z
" transform="scale(0.015625)"/>
       <path id="SourceHanSerifCN-Heavy-65" d="M 2069 -109 
Q 1525 -109 1109 109 
Q 694 328 459 745 
Q 225 1163 225 1759 
Q 225 2356 479 2767 
Q 734 3178 1146 3390 
Q 1559 3603 2028 3603 
Q 2525 3603 2861 3408 
Q 3197 3213 3369 2881 
Q 3541 2550 3541 2144 
Q 3541 1925 3494 1753 
L 1319 1753 
Q 1344 1009 1655 678 
Q 1966 347 2431 347 
Q 2772 347 2997 480 
Q 3222 613 3378 838 
L 3500 756 
Q 3300 338 2933 114 
Q 2566 -109 2069 -109 
z
M 1319 1984 
L 2181 1984 
Q 2403 1984 2484 2107 
Q 2566 2231 2566 2528 
Q 2566 2956 2405 3167 
Q 2244 3378 1984 3378 
Q 1719 3378 1528 3054 
Q 1338 2731 1319 1984 
z
" transform="scale(0.015625)"/>
      </defs>
      <use xlink:href="#SourceHanSerifCN-Heavy-4e0d"/>
      <use xlink:href="#SourceHanSerifCN-Heavy-4f7f" x="100"/>
      <use xlink:href="#SourceHanSerifCN-Heavy-7528" x="200"/>
      <use xlink:href="#SourceHanSerifCN-Heavy-4e0a" x="300"/>
      <use xlink:href="#SourceHanSerifCN-Heavy-4e0b" x="400"/>
      <use xlink:href="#SourceHanSerifCN-Heavy-6587" x="500"/>
      <use xlink:href="#SourceHanSerifCN-Heavy-4fe1" x="600"/>
      <use xlink:href="#SourceHanSerifCN-Heavy-606f" x="700"/>
      <use xlink:href="#SourceHanSerifCN-Heavy-2d" x="800"/>
      <use xlink:href="#SourceHanSerifCN-Heavy-42" x="838.183594"/>
      <use xlink:href="#SourceHanSerifCN-Heavy-61" x="910.888672"/>
      <use xlink:href="#SourceHanSerifCN-Heavy-73" x="970.800781"/>
      <use xlink:href="#SourceHanSerifCN-Heavy-65" x="1022.021484"/>
     </g>
    </g>
    <g id="line2d_20">
     <path d="M 526.170313 214.302187 
L 536.170313 214.302187 
L 546.170313 214.302187 
" style="fill: none; stroke: #386795; stroke-width: 1.5; stroke-linecap: square"/>
    </g>
    <g id="text_17">
     <!-- 不使用上下文信息-Large(冻结) -->
     <g transform="translate(554.170313 217.802187) scale(0.1 -0.1)">
      <defs>
       <path id="SimSun-4e0d" d="M 3375 3175 
L 3375 775 
Q 3375 25 3400 -375 
L 2975 -550 
Q 3000 400 3000 1100 
L 3000 3300 
Q 2000 1775 400 850 
L 350 950 
Q 1175 1550 1937 2462 
Q 2700 3375 3175 4600 
L 1225 4600 
Q 900 4600 625 4525 
L 400 4750 
L 5150 4750 
L 5525 5125 
L 6050 4600 
L 3675 4600 
Q 3450 4175 3175 3600 
L 3600 3350 
L 3375 3175 
z
M 3900 3100 
L 3975 3175 
Q 5575 2125 5737 1875 
Q 5900 1625 5900 1475 
Q 5900 1375 5825 1237 
Q 5750 1100 5700 1100 
Q 5600 1100 5400 1500 
Q 5100 2025 3900 3100 
z
" transform="scale(0.015625)"/>
       <path id="TimesNewRomanPSMT-2d" d="M 259 1672 
L 1875 1672 
L 1875 1200 
L 259 1200 
L 259 1672 
z
" transform="scale(0.015625)"/>
       <path id="TimesNewRomanPSMT-4c" d="M 3669 1172 
L 3772 1150 
L 3409 0 
L 128 0 
L 128 116 
L 288 116 
Q 556 116 672 291 
Q 738 391 738 753 
L 738 3488 
Q 738 3884 650 3984 
Q 528 4122 288 4122 
L 128 4122 
L 128 4238 
L 2047 4238 
L 2047 4122 
Q 1709 4125 1573 4059 
Q 1438 3994 1388 3894 
Q 1338 3794 1338 3416 
L 1338 753 
Q 1338 494 1388 397 
Q 1425 331 1503 300 
Q 1581 269 1991 269 
L 2300 269 
Q 2788 269 2984 341 
Q 3181 413 3343 595 
Q 3506 778 3669 1172 
z
" transform="scale(0.015625)"/>
       <path id="TimesNewRomanPSMT-61" d="M 1822 413 
Q 1381 72 1269 19 
Q 1100 -59 909 -59 
Q 613 -59 420 144 
Q 228 347 228 678 
Q 228 888 322 1041 
Q 450 1253 767 1440 
Q 1084 1628 1822 1897 
L 1822 2009 
Q 1822 2438 1686 2597 
Q 1550 2756 1291 2756 
Q 1094 2756 978 2650 
Q 859 2544 859 2406 
L 866 2225 
Q 866 2081 792 2003 
Q 719 1925 600 1925 
Q 484 1925 411 2006 
Q 338 2088 338 2228 
Q 338 2497 613 2722 
Q 888 2947 1384 2947 
Q 1766 2947 2009 2819 
Q 2194 2722 2281 2516 
Q 2338 2381 2338 1966 
L 2338 994 
Q 2338 584 2353 492 
Q 2369 400 2405 369 
Q 2441 338 2488 338 
Q 2538 338 2575 359 
Q 2641 400 2828 588 
L 2828 413 
Q 2478 -56 2159 -56 
Q 2006 -56 1915 50 
Q 1825 156 1822 413 
z
M 1822 616 
L 1822 1706 
Q 1350 1519 1213 1441 
Q 966 1303 859 1153 
Q 753 1003 753 825 
Q 753 600 887 451 
Q 1022 303 1197 303 
Q 1434 303 1822 616 
z
" transform="scale(0.015625)"/>
       <path id="TimesNewRomanPSMT-72" d="M 1038 2947 
L 1038 2303 
Q 1397 2947 1775 2947 
Q 1947 2947 2059 2842 
Q 2172 2738 2172 2600 
Q 2172 2478 2090 2393 
Q 2009 2309 1897 2309 
Q 1788 2309 1652 2417 
Q 1516 2525 1450 2525 
Q 1394 2525 1328 2463 
Q 1188 2334 1038 2041 
L 1038 669 
Q 1038 431 1097 309 
Q 1138 225 1241 169 
Q 1344 113 1538 113 
L 1538 0 
L 72 0 
L 72 113 
Q 291 113 397 181 
Q 475 231 506 341 
Q 522 394 522 644 
L 522 1753 
Q 522 2253 501 2348 
Q 481 2444 426 2487 
Q 372 2531 291 2531 
Q 194 2531 72 2484 
L 41 2597 
L 906 2947 
L 1038 2947 
z
" transform="scale(0.015625)"/>
       <path id="TimesNewRomanPSMT-67" d="M 966 1044 
Q 703 1172 562 1401 
Q 422 1631 422 1909 
Q 422 2334 742 2640 
Q 1063 2947 1563 2947 
Q 1972 2947 2272 2747 
L 2878 2747 
Q 3013 2747 3034 2739 
Q 3056 2731 3066 2713 
Q 3084 2684 3084 2613 
Q 3084 2531 3069 2500 
Q 3059 2484 3036 2475 
Q 3013 2466 2878 2466 
L 2506 2466 
Q 2681 2241 2681 1891 
Q 2681 1491 2375 1206 
Q 2069 922 1553 922 
Q 1341 922 1119 984 
Q 981 866 932 777 
Q 884 688 884 625 
Q 884 572 936 522 
Q 988 472 1138 450 
Q 1225 438 1575 428 
Q 2219 413 2409 384 
Q 2700 344 2873 169 
Q 3047 -6 3047 -263 
Q 3047 -616 2716 -925 
Q 2228 -1381 1444 -1381 
Q 841 -1381 425 -1109 
Q 191 -953 191 -784 
Q 191 -709 225 -634 
Q 278 -519 444 -313 
Q 466 -284 763 25 
Q 600 122 533 198 
Q 466 275 466 372 
Q 466 481 555 628 
Q 644 775 966 1044 
z
M 1509 2797 
Q 1278 2797 1122 2612 
Q 966 2428 966 2047 
Q 966 1553 1178 1281 
Q 1341 1075 1591 1075 
Q 1828 1075 1981 1253 
Q 2134 1431 2134 1813 
Q 2134 2309 1919 2591 
Q 1759 2797 1509 2797 
z
M 934 0 
Q 788 -159 713 -296 
Q 638 -434 638 -550 
Q 638 -700 819 -813 
Q 1131 -1006 1722 -1006 
Q 2284 -1006 2551 -807 
Q 2819 -609 2819 -384 
Q 2819 -222 2659 -153 
Q 2497 -84 2016 -72 
Q 1313 -53 934 0 
z
" transform="scale(0.015625)"/>
       <path id="TimesNewRomanPSMT-65" d="M 681 1784 
Q 678 1147 991 784 
Q 1303 422 1725 422 
Q 2006 422 2214 576 
Q 2422 731 2563 1106 
L 2659 1044 
Q 2594 616 2278 264 
Q 1963 -88 1488 -88 
Q 972 -88 605 314 
Q 238 716 238 1394 
Q 238 2128 614 2539 
Q 991 2950 1559 2950 
Q 2041 2950 2350 2633 
Q 2659 2316 2659 1784 
L 681 1784 
z
M 681 1966 
L 2006 1966 
Q 1991 2241 1941 2353 
Q 1863 2528 1708 2628 
Q 1553 2728 1384 2728 
Q 1125 2728 920 2526 
Q 716 2325 681 1966 
z
" transform="scale(0.015625)"/>
       <path id="TimesNewRomanPSMT-28" d="M 1988 -1253 
L 1988 -1369 
Q 1516 -1131 1200 -813 
Q 750 -359 506 256 
Q 263 872 263 1534 
Q 263 2503 741 3301 
Q 1219 4100 1988 4444 
L 1988 4313 
Q 1603 4100 1356 3731 
Q 1109 3363 987 2797 
Q 866 2231 866 1616 
Q 866 947 969 400 
Q 1050 -31 1165 -292 
Q 1281 -553 1476 -793 
Q 1672 -1034 1988 -1253 
z
" transform="scale(0.015625)"/>
       <path id="SimSun-51bb" d="M 3875 2275 
Q 3875 2875 3850 3500 
L 4400 3225 
L 4225 3050 
L 4225 2275 
L 5025 2275 
L 5325 2575 
L 5750 2125 
L 4225 2125 
L 4225 0 
Q 4225 -450 3725 -625 
Q 3625 -275 2975 -100 
L 2975 0 
Q 3675 -75 3775 -50 
Q 3875 -25 3875 150 
L 3875 2125 
L 2625 2125 
L 2400 1950 
L 2075 2325 
Q 2275 2350 2512 2775 
Q 2750 3200 3075 3900 
L 2550 3900 
L 2325 3850 
L 2125 4050 
L 3125 4050 
Q 3375 4700 3525 5225 
L 4025 4900 
L 3825 4750 
L 3500 4050 
L 5200 4050 
L 5500 4350 
L 5925 3900 
L 3450 3900 
Q 3050 3100 2600 2275 
L 3875 2275 
z
M 2950 1775 
L 3425 1400 
Q 3200 1275 2700 725 
Q 2200 175 1600 -250 
L 1550 -175 
Q 2025 300 2387 800 
Q 2750 1300 2950 1775 
z
M 4625 1500 
L 4700 1575 
Q 5750 725 5787 387 
Q 5825 50 5725 -25 
Q 5625 -100 5575 -100 
Q 5475 -100 5400 125 
Q 5300 450 5125 762 
Q 4950 1075 4625 1500 
z
M 2175 4500 
Q 1450 2400 1325 2037 
Q 1200 1675 1175 1287 
Q 1150 900 1200 475 
Q 1225 50 1037 62 
Q 850 75 750 187 
Q 650 300 650 425 
Q 650 575 700 700 
Q 800 1000 825 1350 
Q 850 1700 250 1825 
L 250 1950 
Q 475 1900 650 1900 
Q 800 1900 950 1975 
Q 1100 2050 2050 4550 
L 2175 4500 
z
M 475 4825 
L 550 4900 
Q 1375 4350 1375 4087 
Q 1375 3825 1275 3750 
Q 1175 3675 1150 3675 
Q 1025 3675 925 4000 
Q 800 4425 475 4825 
z
" transform="scale(0.015625)"/>
       <path id="SimSun-7ed3" d="M 4050 3900 
Q 4050 4925 4025 5250 
L 4625 4925 
L 4375 4750 
L 4375 3900 
L 5300 3900 
L 5600 4200 
L 6025 3750 
L 4375 3750 
L 4375 2625 
L 5050 2625 
L 5350 2925 
L 5775 2475 
L 3650 2475 
Q 3325 2475 3050 2400 
L 2825 2625 
L 4050 2625 
L 4050 3750 
L 3425 3750 
Q 3100 3750 2825 3675 
L 2600 3900 
L 4050 3900 
z
M 3025 -600 
Q 3050 -50 3050 675 
Q 3050 1400 3025 1925 
L 3425 1700 
L 5125 1700 
L 5350 1925 
L 5700 1575 
L 5475 1425 
L 5475 400 
Q 5475 -150 5500 -375 
L 5150 -525 
L 5150 -25 
L 3375 -25 
L 3375 -425 
L 3025 -600 
z
M 3375 1550 
L 3375 125 
L 5150 125 
L 5150 1550 
L 3375 1550 
z
M 975 1550 
L 2700 1825 
L 2700 1725 
Q 2400 1650 1750 1462 
Q 1100 1275 800 1050 
L 525 1500 
Q 725 1575 900 1750 
Q 1075 1925 1725 2825 
Q 1425 2775 1150 2712 
Q 875 2650 625 2500 
L 400 2950 
Q 650 2950 987 3662 
Q 1325 4375 1525 5125 
L 2050 4850 
L 1825 4725 
Q 1300 3725 800 2950 
L 1800 2975 
Q 2100 3450 2275 3850 
L 2725 3525 
L 2500 3400 
Q 1800 2475 975 1550 
z
M 650 -250 
L 400 225 
Q 750 275 1237 387 
Q 1725 500 2750 800 
L 2775 700 
Q 925 -25 650 -250 
z
" transform="scale(0.015625)"/>
       <path id="TimesNewRomanPSMT-29" d="M 144 4313 
L 144 4444 
Q 619 4209 934 3891 
Q 1381 3434 1625 2820 
Q 1869 2206 1869 1541 
Q 1869 572 1392 -226 
Q 916 -1025 144 -1369 
L 144 -1253 
Q 528 -1038 776 -670 
Q 1025 -303 1145 264 
Q 1266 831 1266 1447 
Q 1266 2113 1163 2663 
Q 1084 3094 967 3353 
Q 850 3613 656 3853 
Q 463 4094 144 4313 
z
" transform="scale(0.015625)"/>
      </defs>
      <use xlink:href="#SimSun-4e0d"/>
      <use xlink:href="#SimSun-4f7f" x="100"/>
      <use xlink:href="#SimSun-7528" x="200"/>
      <use xlink:href="#SimSun-4e0a" x="300"/>
      <use xlink:href="#SimSun-4e0b" x="400"/>
      <use xlink:href="#SimSun-6587" x="500"/>
      <use xlink:href="#SimSun-4fe1" x="600"/>
      <use xlink:href="#SimSun-606f" x="700"/>
      <use xlink:href="#TimesNewRomanPSMT-2d" x="800"/>
      <use xlink:href="#TimesNewRomanPSMT-4c" x="833.300781"/>
      <use xlink:href="#TimesNewRomanPSMT-61" x="894.384766"/>
      <use xlink:href="#TimesNewRomanPSMT-72" x="938.769531"/>
      <use xlink:href="#TimesNewRomanPSMT-67" x="970.320312"/>
      <use xlink:href="#TimesNewRomanPSMT-65" x="1020.320312"/>
      <use xlink:href="#TimesNewRomanPSMT-28" x="1064.705078"/>
      <use xlink:href="#SimSun-51bb" x="1098.005859"/>
      <use xlink:href="#SimSun-7ed3" x="1198.005859"/>
      <use xlink:href="#TimesNewRomanPSMT-29" x="1298.005859"/>
     </g>
    </g>
   </g>
  </g>
 </g>
 <defs>
  <clipPath id="pf877468b57">
   <rect x="26.7" y="7.2" width="669.6" height="221.76"/>
  </clipPath>
 </defs>
</svg>
