<?xml version="1.0" encoding="utf-8" standalone="no"?>
<!DOCTYPE svg PUBLIC "-//W3C//DTD SVG 1.1//EN"
  "http://www.w3.org/Graphics/SVG/1.1/DTD/svg11.dtd">
<svg xmlns:xlink="http://www.w3.org/1999/xlink" width="703.5pt" height="252.242813pt" viewBox="0 0 703.5 252.242813" xmlns="http://www.w3.org/2000/svg" version="1.1">
 <metadata>
  <rdf:RDF xmlns:dc="http://purl.org/dc/elements/1.1/" xmlns:cc="http://creativecommons.org/ns#" xmlns:rdf="http://www.w3.org/1999/02/22-rdf-syntax-ns#">
   <cc:Work>
    <dc:type rdf:resource="http://purl.org/dc/dcmitype/StillImage"/>
    <dc:date>2024-01-10T15:36:28.297771</dc:date>
    <dc:format>image/svg+xml</dc:format>
    <dc:creator>
     <cc:Agent>
      <dc:title>Matplotlib v3.8.2, https://matplotlib.org/</dc:title>
     </cc:Agent>
    </dc:creator>
   </cc:Work>
  </rdf:RDF>
 </metadata>
 <defs>
  <style type="text/css">*{stroke-linejoin: round; stroke-linecap: butt}</style>
 </defs>
 <g id="figure_1">
  <g id="patch_1">
   <path d="M 0 252.242813 
L 703.5 252.242813 
L 703.5 0 
L 0 0 
z
" style="fill: #ffffff"/>
  </g>
  <g id="axes_1">
   <g id="patch_2">
    <path d="M 26.7 228.96 
L 696.3 228.96 
L 696.3 7.2 
L 26.7 7.2 
z
" style="fill: #ffffff"/>
   </g>
   <g id="PathCollection_1">
    <defs>
     <path id="m10c3d98b32" d="M 0 3 
C 0.795609 3 1.55874 2.683901 2.12132 2.12132 
C 2.683901 1.55874 3 0.795609 3 0 
C 3 -0.795609 2.683901 -1.55874 2.12132 -2.12132 
C 1.55874 -2.683901 0.795609 -3 0 -3 
C -0.795609 -3 -1.55874 -2.683901 -2.12132 -2.12132 
C -2.683901 -1.55874 -3 -0.795609 -3 0 
C -3 0.795609 -2.683901 1.55874 -2.12132 2.12132 
C -1.55874 2.683901 -0.795609 3 0 3 
z
" style="stroke: #e86254; stroke-opacity: 0.5"/>
    </defs>
    <g clip-path="url(#p8e39d28f8e)">
     <use xlink:href="#m10c3d98b32" x="384.912587" y="17.28" style="fill: #e86254; fill-opacity: 0.5; stroke: #e86254; stroke-opacity: 0.5"/>
    </g>
   </g>
   <g id="PathCollection_2">
    <defs>
     <path id="m430f01a3b1" d="M 0 3 
C 0.795609 3 1.55874 2.683901 2.12132 2.12132 
C 2.683901 1.55874 3 0.795609 3 0 
C 3 -0.795609 2.683901 -1.55874 2.12132 -2.12132 
C 1.55874 -2.683901 0.795609 -3 0 -3 
C -0.795609 -3 -1.55874 -2.683901 -2.12132 -2.12132 
C -2.683901 -1.55874 -3 -0.795609 -3 0 
C -3 0.795609 -2.683901 1.55874 -2.12132 2.12132 
C -1.55874 2.683901 -0.795609 3 0 3 
z
" style="stroke: #ffd06e; stroke-opacity: 0.5"/>
    </defs>
    <g clip-path="url(#p8e39d28f8e)">
     <use xlink:href="#m430f01a3b1" x="619.038462" y="20.143636" style="fill: #ffd06e; fill-opacity: 0.5; stroke: #ffd06e; stroke-opacity: 0.5"/>
    </g>
   </g>
   <g id="PathCollection_3">
    <defs>
     <path id="m28acc348ed" d="M 0 3 
C 0.795609 3 1.55874 2.683901 2.12132 2.12132 
C 2.683901 1.55874 3 0.795609 3 0 
C 3 -0.795609 2.683901 -1.55874 2.12132 -2.12132 
C 1.55874 -2.683901 0.795609 -3 0 -3 
C -0.795609 -3 -1.55874 -2.683901 -2.12132 -2.12132 
C -2.683901 -1.55874 -3 -0.795609 -3 0 
C -3 0.795609 -2.683901 1.55874 -2.12132 2.12132 
C -1.55874 2.683901 -0.795609 3 0 3 
z
" style="stroke: #386795; stroke-opacity: 0.5"/>
    </defs>
    <g clip-path="url(#p8e39d28f8e)">
     <use xlink:href="#m28acc348ed" x="665.863636" y="20.493636" style="fill: #386795; fill-opacity: 0.5; stroke: #386795; stroke-opacity: 0.5"/>
    </g>
   </g>
   <g id="matplotlib.axis_1">
    <g id="xtick_1">
     <g id="line2d_1">
      <defs>
       <path id="m9f390b57a8" d="M 0 0 
L 0 3.5 
" style="stroke: #000000; stroke-width: 0.8"/>
      </defs>
      <g>
       <use xlink:href="#m9f390b57a8" x="57.136364" y="228.96" style="stroke: #000000; stroke-width: 0.8"/>
      </g>
     </g>
     <g id="text_1">
      <!-- 0 -->
      <g transform="translate(54.636364 242.90375) scale(0.1 -0.1)">
       <defs>
        <path id="TimesNewRomanPSMT-30" d="M 231 2094 
Q 231 2819 450 3342 
Q 669 3866 1031 4122 
Q 1313 4325 1613 4325 
Q 2100 4325 2488 3828 
Q 2972 3213 2972 2159 
Q 2972 1422 2759 906 
Q 2547 391 2217 158 
Q 1888 -75 1581 -75 
Q 975 -75 572 641 
Q 231 1244 231 2094 
z
M 844 2016 
Q 844 1141 1059 588 
Q 1238 122 1591 122 
Q 1759 122 1940 273 
Q 2122 425 2216 781 
Q 2359 1319 2359 2297 
Q 2359 3022 2209 3506 
Q 2097 3866 1919 4016 
Q 1791 4119 1609 4119 
Q 1397 4119 1231 3928 
Q 1006 3669 925 3112 
Q 844 2556 844 2016 
z
" transform="scale(0.015625)"/>
       </defs>
       <use xlink:href="#TimesNewRomanPSMT-30"/>
      </g>
     </g>
    </g>
    <g id="xtick_2">
     <g id="line2d_2">
      <g>
       <use xlink:href="#m9f390b57a8" x="150.786713" y="228.96" style="stroke: #000000; stroke-width: 0.8"/>
      </g>
     </g>
     <g id="text_2">
      <!-- 200 -->
      <g transform="translate(143.286713 242.90375) scale(0.1 -0.1)">
       <defs>
        <path id="TimesNewRomanPSMT-32" d="M 2934 816 
L 2638 0 
L 138 0 
L 138 116 
Q 1241 1122 1691 1759 
Q 2141 2397 2141 2925 
Q 2141 3328 1894 3587 
Q 1647 3847 1303 3847 
Q 991 3847 742 3664 
Q 494 3481 375 3128 
L 259 3128 
Q 338 3706 661 4015 
Q 984 4325 1469 4325 
Q 1984 4325 2329 3994 
Q 2675 3663 2675 3213 
Q 2675 2891 2525 2569 
Q 2294 2063 1775 1497 
Q 997 647 803 472 
L 1909 472 
Q 2247 472 2383 497 
Q 2519 522 2628 598 
Q 2738 675 2819 816 
L 2934 816 
z
" transform="scale(0.015625)"/>
       </defs>
       <use xlink:href="#TimesNewRomanPSMT-32"/>
       <use xlink:href="#TimesNewRomanPSMT-30" x="50"/>
       <use xlink:href="#TimesNewRomanPSMT-30" x="100"/>
      </g>
     </g>
    </g>
    <g id="xtick_3">
     <g id="line2d_3">
      <g>
       <use xlink:href="#m9f390b57a8" x="244.437063" y="228.96" style="stroke: #000000; stroke-width: 0.8"/>
      </g>
     </g>
     <g id="text_3">
      <!-- 400 -->
      <g transform="translate(236.937063 242.90375) scale(0.1 -0.1)">
       <defs>
        <path id="TimesNewRomanPSMT-34" d="M 2978 1563 
L 2978 1119 
L 2409 1119 
L 2409 0 
L 1894 0 
L 1894 1119 
L 100 1119 
L 100 1519 
L 2066 4325 
L 2409 4325 
L 2409 1563 
L 2978 1563 
z
M 1894 1563 
L 1894 3666 
L 406 1563 
L 1894 1563 
z
" transform="scale(0.015625)"/>
       </defs>
       <use xlink:href="#TimesNewRomanPSMT-34"/>
       <use xlink:href="#TimesNewRomanPSMT-30" x="50"/>
       <use xlink:href="#TimesNewRomanPSMT-30" x="100"/>
      </g>
     </g>
    </g>
    <g id="xtick_4">
     <g id="line2d_4">
      <g>
       <use xlink:href="#m9f390b57a8" x="338.087413" y="228.96" style="stroke: #000000; stroke-width: 0.8"/>
      </g>
     </g>
     <g id="text_4">
      <!-- 600 -->
      <g transform="translate(330.587413 242.90375) scale(0.1 -0.1)">
       <defs>
        <path id="TimesNewRomanPSMT-36" d="M 2869 4325 
L 2869 4209 
Q 2456 4169 2195 4045 
Q 1934 3922 1679 3669 
Q 1425 3416 1258 3105 
Q 1091 2794 978 2366 
Q 1428 2675 1881 2675 
Q 2316 2675 2634 2325 
Q 2953 1975 2953 1425 
Q 2953 894 2631 456 
Q 2244 -75 1606 -75 
Q 1172 -75 869 213 
Q 275 772 275 1663 
Q 275 2231 503 2743 
Q 731 3256 1154 3653 
Q 1578 4050 1965 4187 
Q 2353 4325 2688 4325 
L 2869 4325 
z
M 925 2138 
Q 869 1716 869 1456 
Q 869 1156 980 804 
Q 1091 453 1309 247 
Q 1469 100 1697 100 
Q 1969 100 2183 356 
Q 2397 613 2397 1088 
Q 2397 1622 2184 2012 
Q 1972 2403 1581 2403 
Q 1463 2403 1327 2353 
Q 1191 2303 925 2138 
z
" transform="scale(0.015625)"/>
       </defs>
       <use xlink:href="#TimesNewRomanPSMT-36"/>
       <use xlink:href="#TimesNewRomanPSMT-30" x="50"/>
       <use xlink:href="#TimesNewRomanPSMT-30" x="100"/>
      </g>
     </g>
    </g>
    <g id="xtick_5">
     <g id="line2d_5">
      <g>
       <use xlink:href="#m9f390b57a8" x="431.737762" y="228.96" style="stroke: #000000; stroke-width: 0.8"/>
      </g>
     </g>
     <g id="text_5">
      <!-- 800 -->
      <g transform="translate(424.237762 242.90375) scale(0.1 -0.1)">
       <defs>
        <path id="TimesNewRomanPSMT-38" d="M 1228 2134 
Q 725 2547 579 2797 
Q 434 3047 434 3316 
Q 434 3728 753 4026 
Q 1072 4325 1600 4325 
Q 2113 4325 2425 4047 
Q 2738 3769 2738 3413 
Q 2738 3175 2569 2928 
Q 2400 2681 1866 2347 
Q 2416 1922 2594 1678 
Q 2831 1359 2831 1006 
Q 2831 559 2490 242 
Q 2150 -75 1597 -75 
Q 994 -75 656 303 
Q 388 606 388 966 
Q 388 1247 577 1523 
Q 766 1800 1228 2134 
z
M 1719 2469 
Q 2094 2806 2194 3001 
Q 2294 3197 2294 3444 
Q 2294 3772 2109 3958 
Q 1925 4144 1606 4144 
Q 1288 4144 1088 3959 
Q 888 3775 888 3528 
Q 888 3366 970 3203 
Q 1053 3041 1206 2894 
L 1719 2469 
z
M 1375 2016 
Q 1116 1797 991 1539 
Q 866 1281 866 981 
Q 866 578 1086 336 
Q 1306 94 1647 94 
Q 1984 94 2187 284 
Q 2391 475 2391 747 
Q 2391 972 2272 1150 
Q 2050 1481 1375 2016 
z
" transform="scale(0.015625)"/>
       </defs>
       <use xlink:href="#TimesNewRomanPSMT-38"/>
       <use xlink:href="#TimesNewRomanPSMT-30" x="50"/>
       <use xlink:href="#TimesNewRomanPSMT-30" x="100"/>
      </g>
     </g>
    </g>
    <g id="xtick_6">
     <g id="line2d_6">
      <g>
       <use xlink:href="#m9f390b57a8" x="525.388112" y="228.96" style="stroke: #000000; stroke-width: 0.8"/>
      </g>
     </g>
     <g id="text_6">
      <!-- 1000 -->
      <g transform="translate(515.388112 242.90375) scale(0.1 -0.1)">
       <defs>
        <path id="TimesNewRomanPSMT-31" d="M 750 3822 
L 1781 4325 
L 1884 4325 
L 1884 747 
Q 1884 391 1914 303 
Q 1944 216 2037 169 
Q 2131 122 2419 116 
L 2419 0 
L 825 0 
L 825 116 
Q 1125 122 1212 167 
Q 1300 213 1334 289 
Q 1369 366 1369 747 
L 1369 3034 
Q 1369 3497 1338 3628 
Q 1316 3728 1258 3775 
Q 1200 3822 1119 3822 
Q 1003 3822 797 3725 
L 750 3822 
z
" transform="scale(0.015625)"/>
       </defs>
       <use xlink:href="#TimesNewRomanPSMT-31"/>
       <use xlink:href="#TimesNewRomanPSMT-30" x="50"/>
       <use xlink:href="#TimesNewRomanPSMT-30" x="100"/>
       <use xlink:href="#TimesNewRomanPSMT-30" x="150"/>
      </g>
     </g>
    </g>
    <g id="xtick_7">
     <g id="line2d_7">
      <g>
       <use xlink:href="#m9f390b57a8" x="619.038462" y="228.96" style="stroke: #000000; stroke-width: 0.8"/>
      </g>
     </g>
     <g id="text_7">
      <!-- 1200 -->
      <g transform="translate(609.038462 242.90375) scale(0.1 -0.1)">
       <use xlink:href="#TimesNewRomanPSMT-31"/>
       <use xlink:href="#TimesNewRomanPSMT-32" x="50"/>
       <use xlink:href="#TimesNewRomanPSMT-30" x="100"/>
       <use xlink:href="#TimesNewRomanPSMT-30" x="150"/>
      </g>
     </g>
    </g>
   </g>
   <g id="matplotlib.axis_2">
    <g id="ytick_1">
     <g id="line2d_8">
      <defs>
       <path id="m44c5c07763" d="M 0 0 
L -3.5 0 
" style="stroke: #000000; stroke-width: 0.8"/>
      </defs>
      <g>
       <use xlink:href="#m44c5c07763" x="26.7" y="198.070909" style="stroke: #000000; stroke-width: 0.8"/>
      </g>
     </g>
     <g id="text_8">
      <!-- 0.1 -->
      <g transform="translate(7.2 201.542784) scale(0.1 -0.1)">
       <defs>
        <path id="TimesNewRomanPSMT-2e" d="M 800 606 
Q 947 606 1047 504 
Q 1147 403 1147 259 
Q 1147 116 1045 14 
Q 944 -88 800 -88 
Q 656 -88 554 14 
Q 453 116 453 259 
Q 453 406 554 506 
Q 656 606 800 606 
z
" transform="scale(0.015625)"/>
       </defs>
       <use xlink:href="#TimesNewRomanPSMT-30"/>
       <use xlink:href="#TimesNewRomanPSMT-2e" x="50"/>
       <use xlink:href="#TimesNewRomanPSMT-31" x="75"/>
      </g>
     </g>
    </g>
    <g id="ytick_2">
     <g id="line2d_9">
      <g>
       <use xlink:href="#m44c5c07763" x="26.7" y="166.252727" style="stroke: #000000; stroke-width: 0.8"/>
      </g>
     </g>
     <g id="text_9">
      <!-- 0.2 -->
      <g transform="translate(7.2 169.724602) scale(0.1 -0.1)">
       <use xlink:href="#TimesNewRomanPSMT-30"/>
       <use xlink:href="#TimesNewRomanPSMT-2e" x="50"/>
       <use xlink:href="#TimesNewRomanPSMT-32" x="75"/>
      </g>
     </g>
    </g>
    <g id="ytick_3">
     <g id="line2d_10">
      <g>
       <use xlink:href="#m44c5c07763" x="26.7" y="134.434545" style="stroke: #000000; stroke-width: 0.8"/>
      </g>
     </g>
     <g id="text_10">
      <!-- 0.3 -->
      <g transform="translate(7.2 137.90642) scale(0.1 -0.1)">
       <defs>
        <path id="TimesNewRomanPSMT-33" d="M 325 3431 
Q 506 3859 782 4092 
Q 1059 4325 1472 4325 
Q 1981 4325 2253 3994 
Q 2459 3747 2459 3466 
Q 2459 3003 1878 2509 
Q 2269 2356 2469 2072 
Q 2669 1788 2669 1403 
Q 2669 853 2319 450 
Q 1863 -75 997 -75 
Q 569 -75 414 31 
Q 259 138 259 259 
Q 259 350 332 419 
Q 406 488 509 488 
Q 588 488 669 463 
Q 722 447 909 348 
Q 1097 250 1169 231 
Q 1284 197 1416 197 
Q 1734 197 1970 444 
Q 2206 691 2206 1028 
Q 2206 1275 2097 1509 
Q 2016 1684 1919 1775 
Q 1784 1900 1550 2001 
Q 1316 2103 1072 2103 
L 972 2103 
L 972 2197 
Q 1219 2228 1467 2375 
Q 1716 2522 1828 2728 
Q 1941 2934 1941 3181 
Q 1941 3503 1739 3701 
Q 1538 3900 1238 3900 
Q 753 3900 428 3381 
L 325 3431 
z
" transform="scale(0.015625)"/>
       </defs>
       <use xlink:href="#TimesNewRomanPSMT-30"/>
       <use xlink:href="#TimesNewRomanPSMT-2e" x="50"/>
       <use xlink:href="#TimesNewRomanPSMT-33" x="75"/>
      </g>
     </g>
    </g>
    <g id="ytick_4">
     <g id="line2d_11">
      <g>
       <use xlink:href="#m44c5c07763" x="26.7" y="102.616364" style="stroke: #000000; stroke-width: 0.8"/>
      </g>
     </g>
     <g id="text_11">
      <!-- 0.4 -->
      <g transform="translate(7.2 106.088239) scale(0.1 -0.1)">
       <use xlink:href="#TimesNewRomanPSMT-30"/>
       <use xlink:href="#TimesNewRomanPSMT-2e" x="50"/>
       <use xlink:href="#TimesNewRomanPSMT-34" x="75"/>
      </g>
     </g>
    </g>
    <g id="ytick_5">
     <g id="line2d_12">
      <g>
       <use xlink:href="#m44c5c07763" x="26.7" y="70.798182" style="stroke: #000000; stroke-width: 0.8"/>
      </g>
     </g>
     <g id="text_12">
      <!-- 0.5 -->
      <g transform="translate(7.2 74.270057) scale(0.1 -0.1)">
       <defs>
        <path id="TimesNewRomanPSMT-35" d="M 2778 4238 
L 2534 3706 
L 1259 3706 
L 981 3138 
Q 1809 3016 2294 2522 
Q 2709 2097 2709 1522 
Q 2709 1188 2573 903 
Q 2438 619 2231 419 
Q 2025 219 1772 97 
Q 1413 -75 1034 -75 
Q 653 -75 479 54 
Q 306 184 306 341 
Q 306 428 378 495 
Q 450 563 559 563 
Q 641 563 702 538 
Q 763 513 909 409 
Q 1144 247 1384 247 
Q 1750 247 2026 523 
Q 2303 800 2303 1197 
Q 2303 1581 2056 1914 
Q 1809 2247 1375 2428 
Q 1034 2569 447 2591 
L 1259 4238 
L 2778 4238 
z
" transform="scale(0.015625)"/>
       </defs>
       <use xlink:href="#TimesNewRomanPSMT-30"/>
       <use xlink:href="#TimesNewRomanPSMT-2e" x="50"/>
       <use xlink:href="#TimesNewRomanPSMT-35" x="75"/>
      </g>
     </g>
    </g>
    <g id="ytick_6">
     <g id="line2d_13">
      <g>
       <use xlink:href="#m44c5c07763" x="26.7" y="38.98" style="stroke: #000000; stroke-width: 0.8"/>
      </g>
     </g>
     <g id="text_13">
      <!-- 0.6 -->
      <g transform="translate(7.2 42.451875) scale(0.1 -0.1)">
       <use xlink:href="#TimesNewRomanPSMT-30"/>
       <use xlink:href="#TimesNewRomanPSMT-2e" x="50"/>
       <use xlink:href="#TimesNewRomanPSMT-36" x="75"/>
      </g>
     </g>
    </g>
   </g>
   <g id="line2d_14">
    <path d="M 57.136364 218.498182 
L 57.604615 218.148182 
L 58.072867 217.798182 
L 58.541119 217.798182 
L 59.009371 217.448182 
L 59.477622 216.016364 
L 59.945874 217.098182 
L 60.414126 218.498182 
L 60.882378 218.498182 
L 61.350629 218.88 
L 61.818881 216.748182 
L 62.287133 211.052727 
L 62.755385 205.357273 
L 63.223636 197.18 
L 63.691888 191.834545 
L 64.16014 185.820909 
L 64.628392 175.511818 
L 65.096643 170.166364 
L 65.564895 164.820909 
L 66.033147 158.775455 
L 66.501399 150.248182 
L 66.96965 146.684545 
L 67.437902 141.720909 
L 67.906154 132.111818 
L 68.374406 129.28 
L 68.842657 119.670909 
L 69.310909 116.489091 
L 69.779161 113.625455 
L 70.247413 111.143636 
L 70.715664 106.53 
L 71.183916 105.448182 
L 71.652168 101.184545 
L 72.12042 103.316364 
L 72.588671 100.134545 
L 73.056923 95.520909 
L 73.525175 98.352727 
L 73.993427 91.225455 
L 74.461678 93.357273 
L 74.92993 88.393636 
L 75.398182 84.48 
L 75.866434 90.175455 
L 76.334685 79.516364 
L 76.802937 86.961818 
L 77.271189 79.866364 
L 77.739441 76.652727 
L 78.207692 81.648182 
L 78.675944 71.689091 
L 79.144196 72.739091 
L 79.612448 78.434545 
L 80.080699 71.689091 
L 80.548951 73.120909 
L 82.89021 67.075455 
L 85.231469 65.643636 
L 87.572727 64.561818 
L 89.913986 59.248182 
L 92.255245 52.852727 
L 94.596503 43.243636 
L 96.937762 41.111818 
L 99.279021 36.498182 
L 101.62028 34.016364 
L 103.961538 29.720909 
L 106.302797 31.152727 
L 108.644056 29.370909 
L 110.985315 25.839091 
L 113.326573 24.757273 
L 115.667832 22.975455 
L 118.009091 22.275455 
L 120.35035 20.843636 
L 122.691608 21.925455 
L 125.032867 19.411818 
L 127.374126 18.011818 
L 129.715385 19.411818 
L 132.056643 19.061818 
L 134.397902 20.843636 
L 136.739161 18.711818 
L 139.08042 20.493636 
L 141.421678 20.143636 
L 143.762937 18.711818 
L 146.104196 18.711818 
L 148.445455 19.793636 
L 150.786713 18.711818 
L 197.611888 19.411818 
L 244.437063 21.193636 
L 291.262238 19.411818 
L 338.087413 19.411818 
L 384.912587 17.28 
L 431.737762 19.793636 
L 478.562937 19.793636 
L 525.388112 18.011818 
L 572.213287 19.793636 
L 619.038462 19.411818 
L 665.863636 20.143636 
" clip-path="url(#p8e39d28f8e)" style="fill: none; stroke: #e86254; stroke-width: 1.5; stroke-linecap: square"/>
   </g>
   <g id="LineCollection_1">
    <path d="M 57.136364 29.116364 
L 665.863636 29.116364 
" clip-path="url(#p8e39d28f8e)" style="fill: none; stroke-dasharray: 1.5,2.475; stroke-dashoffset: 0; stroke: #e86254; stroke-opacity: 0.5; stroke-width: 1.5"/>
   </g>
   <g id="line2d_15">
    <path d="M 57.136364 194.348182 
L 57.604615 192.566364 
L 58.072867 192.916364 
L 58.541119 192.566364 
L 59.009371 193.266364 
L 59.477622 190.084545 
L 59.945874 190.084545 
L 60.414126 188.652727 
L 60.882378 189.002727 
L 61.350629 186.870909 
L 61.818881 185.439091 
L 62.287133 182.257273 
L 62.755385 178.693636 
L 63.223636 172.998182 
L 63.691888 169.466364 
L 64.16014 161.989091 
L 64.628392 152.73 
L 65.096643 147.066364 
L 65.564895 134.975455 
L 66.033147 127.148182 
L 66.501399 116.139091 
L 66.96965 111.875455 
L 67.437902 110.793636 
L 67.906154 106.18 
L 68.374406 102.266364 
L 68.842657 101.916364 
L 69.310909 92.307273 
L 69.779161 88.743636 
L 70.247413 81.648182 
L 70.715664 82.698182 
L 71.183916 78.434545 
L 71.652168 79.516364 
L 72.12042 79.166364 
L 72.588671 75.602727 
L 73.056923 68.475455 
L 73.525175 77.034545 
L 73.993427 71.339091 
L 74.461678 67.075455 
L 74.92993 70.257273 
L 75.398182 67.075455 
L 75.866434 71.689091 
L 76.334685 67.075455 
L 76.802937 64.561818 
L 77.271189 65.993636 
L 77.739441 59.598182 
L 78.207692 71.689091 
L 78.675944 66.725455 
L 79.144196 58.548182 
L 79.612448 64.561818 
L 80.080699 68.475455 
L 80.548951 59.248182 
L 82.89021 58.898182 
L 85.231469 62.811818 
L 87.572727 55.334545 
L 89.913986 54.984545 
L 92.255245 52.502727 
L 94.596503 52.502727 
L 96.937762 49.639091 
L 99.279021 52.502727 
L 101.62028 48.939091 
L 103.961538 41.461818 
L 106.302797 42.893636 
L 108.644056 38.28 
L 110.985315 41.811818 
L 113.326573 39.33 
L 115.667832 30.802727 
L 118.009091 36.498182 
L 120.35035 37.198182 
L 122.691608 31.502727 
L 125.032867 37.548182 
L 127.374126 32.584545 
L 129.715385 32.234545 
L 132.056643 31.884545 
L 134.397902 27.970909 
L 136.739161 29.370909 
L 139.08042 27.239091 
L 141.421678 29.370909 
L 143.762937 25.107273 
L 146.104196 23.707273 
L 148.445455 25.457273 
L 150.786713 24.407273 
L 197.611888 22.975455 
L 244.437063 22.975455 
L 291.262238 24.057273 
L 338.087413 22.975455 
L 384.912587 21.193636 
L 431.737762 21.575455 
L 478.562937 21.575455 
L 525.388112 21.925455 
L 572.213287 22.275455 
L 619.038462 20.143636 
L 665.863636 22.625455 
" clip-path="url(#p8e39d28f8e)" style="fill: none; stroke: #ffd06e; stroke-width: 1.5; stroke-linecap: square"/>
   </g>
   <g id="LineCollection_2">
    <path d="M 57.136364 24.534545 
L 665.863636 24.534545 
" clip-path="url(#p8e39d28f8e)" style="fill: none; stroke-dasharray: 1.5,2.475; stroke-dashoffset: 0; stroke: #ffd06e; stroke-opacity: 0.5; stroke-width: 1.5"/>
   </g>
   <g id="line2d_16">
    <path d="M 57.136364 149.198182 
L 57.604615 146.684545 
L 58.072867 142.420909 
L 58.541119 135.325455 
L 59.009371 128.198182 
L 59.477622 119.320909 
L 59.945874 112.575455 
L 60.414126 98.352727 
L 60.882378 92.657273 
L 61.350629 81.998182 
L 61.818881 66.343636 
L 62.287133 56.766364 
L 62.755385 50.720909 
L 63.223636 48.239091 
L 63.691888 46.807273 
L 64.16014 42.543636 
L 64.628392 43.243636 
L 65.096643 42.193636 
L 65.564895 41.811818 
L 66.033147 39.68 
L 66.501399 40.061818 
L 66.96965 38.28 
L 67.437902 34.366364 
L 67.906154 36.848182 
L 68.374406 36.148182 
L 68.842657 34.366364 
L 69.310909 34.716364 
L 69.779161 32.934545 
L 70.247413 33.284545 
L 70.715664 34.716364 
L 71.183916 31.884545 
L 71.652168 31.152727 
L 72.12042 31.502727 
L 72.588671 31.884545 
L 73.056923 31.502727 
L 73.525175 32.584545 
L 73.993427 31.884545 
L 74.461678 31.502727 
L 74.92993 29.720909 
L 75.398182 30.102727 
L 75.866434 28.670909 
L 76.334685 31.152727 
L 76.802937 27.589091 
L 77.271189 29.720909 
L 77.739441 27.970909 
L 78.207692 26.539091 
L 78.675944 27.589091 
L 79.144196 26.539091 
L 79.612448 28.670909 
L 80.080699 24.407273 
L 80.548951 26.189091 
L 82.89021 24.057273 
L 85.231469 24.057273 
L 87.572727 24.057273 
L 89.913986 25.107273 
L 92.255245 23.325455 
L 94.596503 22.975455 
L 96.937762 22.975455 
L 99.279021 22.625455 
L 101.62028 21.575455 
L 103.961538 20.843636 
L 106.302797 21.575455 
L 108.644056 20.843636 
L 110.985315 21.193636 
L 113.326573 22.625455 
L 115.667832 22.275455 
L 118.009091 22.975455 
L 120.35035 21.575455 
L 122.691608 24.407273 
L 125.032867 25.107273 
L 127.374126 21.925455 
L 129.715385 24.407273 
L 132.056643 21.925455 
L 134.397902 22.275455 
L 136.739161 21.193636 
L 139.08042 22.625455 
L 141.421678 20.843636 
L 143.762937 21.925455 
L 146.104196 21.193636 
L 148.445455 23.325455 
L 150.786713 21.193636 
L 197.611888 22.625455 
L 244.437063 23.707273 
L 291.262238 21.575455 
L 338.087413 21.925455 
L 384.912587 21.575455 
L 431.737762 21.925455 
L 478.562937 22.975455 
L 525.388112 21.925455 
L 572.213287 21.925455 
L 619.038462 21.575455 
L 665.863636 20.493636 
" clip-path="url(#p8e39d28f8e)" style="fill: none; stroke: #386795; stroke-width: 1.5; stroke-linecap: square"/>
   </g>
   <g id="LineCollection_3">
    <path d="M 57.136364 32.520909 
L 665.863636 32.520909 
" clip-path="url(#p8e39d28f8e)" style="fill: none; stroke-dasharray: 1.5,2.475; stroke-dashoffset: 0; stroke: #386795; stroke-opacity: 0.5; stroke-width: 1.5"/>
   </g>
   <g id="patch_3">
    <path d="M 26.7 228.96 
L 26.7 7.2 
" style="fill: none; stroke: #000000; stroke-width: 0.8; stroke-linejoin: miter; stroke-linecap: square"/>
   </g>
   <g id="patch_4">
    <path d="M 696.3 228.96 
L 696.3 7.2 
" style="fill: none; stroke: #000000; stroke-width: 0.8; stroke-linejoin: miter; stroke-linecap: square"/>
   </g>
   <g id="patch_5">
    <path d="M 26.7 228.96 
L 696.3 228.96 
" style="fill: none; stroke: #000000; stroke-width: 0.8; stroke-linejoin: miter; stroke-linecap: square"/>
   </g>
   <g id="patch_6">
    <path d="M 26.7 7.2 
L 696.3 7.2 
" style="fill: none; stroke: #000000; stroke-width: 0.8; stroke-linejoin: miter; stroke-linecap: square"/>
   </g>
   <g id="legend_1">
    <g id="patch_7">
     <path d="M 630.63125 223.96 
L 689.3 223.96 
Q 691.3 223.96 691.3 221.96 
L 691.3 178.831875 
Q 691.3 176.831875 689.3 176.831875 
L 630.63125 176.831875 
Q 628.63125 176.831875 628.63125 178.831875 
L 628.63125 221.96 
Q 628.63125 223.96 630.63125 223.96 
z
" style="fill: #ffffff; opacity: 0.8; stroke: #cccccc; stroke-linejoin: miter"/>
    </g>
    <g id="line2d_17">
     <path d="M 632.63125 184.331875 
L 642.63125 184.331875 
L 652.63125 184.331875 
" style="fill: none; stroke: #e86254; stroke-width: 1.5; stroke-linecap: square"/>
    </g>
    <g id="text_14">
     <!-- LSTM -->
     <g transform="translate(660.63125 187.831875) scale(0.1 -0.1)">
      <defs>
       <path id="TimesNewRomanPSMT-4c" d="M 3669 1172 
L 3772 1150 
L 3409 0 
L 128 0 
L 128 116 
L 288 116 
Q 556 116 672 291 
Q 738 391 738 753 
L 738 3488 
Q 738 3884 650 3984 
Q 528 4122 288 4122 
L 128 4122 
L 128 4238 
L 2047 4238 
L 2047 4122 
Q 1709 4125 1573 4059 
Q 1438 3994 1388 3894 
Q 1338 3794 1338 3416 
L 1338 753 
Q 1338 494 1388 397 
Q 1425 331 1503 300 
Q 1581 269 1991 269 
L 2300 269 
Q 2788 269 2984 341 
Q 3181 413 3343 595 
Q 3506 778 3669 1172 
z
" transform="scale(0.015625)"/>
       <path id="TimesNewRomanPSMT-53" d="M 2934 4334 
L 2934 2869 
L 2819 2869 
Q 2763 3291 2617 3541 
Q 2472 3791 2203 3937 
Q 1934 4084 1647 4084 
Q 1322 4084 1109 3886 
Q 897 3688 897 3434 
Q 897 3241 1031 3081 
Q 1225 2847 1953 2456 
Q 2547 2138 2764 1967 
Q 2981 1797 3098 1565 
Q 3216 1334 3216 1081 
Q 3216 600 2842 251 
Q 2469 -97 1881 -97 
Q 1697 -97 1534 -69 
Q 1438 -53 1133 45 
Q 828 144 747 144 
Q 669 144 623 97 
Q 578 50 556 -97 
L 441 -97 
L 441 1356 
L 556 1356 
Q 638 900 775 673 
Q 913 447 1195 297 
Q 1478 147 1816 147 
Q 2206 147 2432 353 
Q 2659 559 2659 841 
Q 2659 997 2573 1156 
Q 2488 1316 2306 1453 
Q 2184 1547 1640 1851 
Q 1097 2156 867 2337 
Q 638 2519 519 2737 
Q 400 2956 400 3219 
Q 400 3675 750 4004 
Q 1100 4334 1641 4334 
Q 1978 4334 2356 4169 
Q 2531 4091 2603 4091 
Q 2684 4091 2736 4139 
Q 2788 4188 2819 4334 
L 2934 4334 
z
" transform="scale(0.015625)"/>
       <path id="TimesNewRomanPSMT-54" d="M 3703 4238 
L 3750 3244 
L 3631 3244 
Q 3597 3506 3538 3619 
Q 3441 3800 3280 3886 
Q 3119 3972 2856 3972 
L 2259 3972 
L 2259 734 
Q 2259 344 2344 247 
Q 2463 116 2709 116 
L 2856 116 
L 2856 0 
L 1059 0 
L 1059 116 
L 1209 116 
Q 1478 116 1591 278 
Q 1659 378 1659 734 
L 1659 3972 
L 1150 3972 
Q 853 3972 728 3928 
Q 566 3869 450 3700 
Q 334 3531 313 3244 
L 194 3244 
L 244 4238 
L 3703 4238 
z
" transform="scale(0.015625)"/>
       <path id="TimesNewRomanPSMT-4d" d="M 2619 0 
L 981 3566 
L 981 734 
Q 981 344 1066 247 
Q 1181 116 1431 116 
L 1581 116 
L 1581 0 
L 106 0 
L 106 116 
L 256 116 
Q 525 116 638 278 
Q 706 378 706 734 
L 706 3503 
Q 706 3784 644 3909 
Q 600 4000 483 4061 
Q 366 4122 106 4122 
L 106 4238 
L 1306 4238 
L 2844 922 
L 4356 4238 
L 5556 4238 
L 5556 4122 
L 5409 4122 
Q 5138 4122 5025 3959 
Q 4956 3859 4956 3503 
L 4956 734 
Q 4956 344 5044 247 
Q 5159 116 5409 116 
L 5556 116 
L 5556 0 
L 3756 0 
L 3756 116 
L 3906 116 
Q 4178 116 4288 278 
Q 4356 378 4356 734 
L 4356 3566 
L 2722 0 
L 2619 0 
z
" transform="scale(0.015625)"/>
      </defs>
      <use xlink:href="#TimesNewRomanPSMT-4c"/>
      <use xlink:href="#TimesNewRomanPSMT-53" x="61.083984"/>
      <use xlink:href="#TimesNewRomanPSMT-54" x="116.699219"/>
      <use xlink:href="#TimesNewRomanPSMT-4d" x="177.783203"/>
     </g>
    </g>
    <g id="line2d_18">
     <path d="M 632.63125 199.733438 
L 642.63125 199.733438 
L 652.63125 199.733438 
" style="fill: none; stroke: #ffd06e; stroke-width: 1.5; stroke-linecap: square"/>
    </g>
    <g id="text_15">
     <!-- RNN -->
     <g transform="translate(660.63125 203.233438) scale(0.1 -0.1)">
      <defs>
       <path id="SourceHanSerifCN-Heavy-52" d="M 263 4563 
L 263 4781 
L 2572 4781 
Q 3413 4781 3859 4465 
Q 4306 4150 4306 3578 
Q 4306 3316 4176 3077 
Q 4047 2838 3748 2661 
Q 3450 2484 2944 2406 
Q 3363 2353 3600 2214 
Q 3838 2075 3953 1848 
Q 4069 1622 4122 1306 
L 4319 256 
L 4891 219 
L 4891 0 
Q 4694 -47 4531 -72 
Q 4369 -97 4128 -97 
Q 3688 -97 3442 54 
Q 3197 206 3150 594 
L 2963 1478 
Q 2897 1872 2747 2065 
Q 2597 2259 2228 2259 
L 1919 2259 
Q 1919 1756 1922 1261 
Q 1925 766 1941 275 
L 2528 219 
L 2528 0 
L 263 0 
L 263 219 
L 838 275 
Q 847 759 848 1253 
Q 850 1747 850 2247 
L 850 2528 
Q 850 3028 848 3523 
Q 847 4019 838 4513 
L 263 4563 
z
M 1941 4538 
Q 1925 4053 1922 3550 
Q 1919 3047 1919 2497 
L 2291 2497 
Q 2650 2497 2867 2640 
Q 3084 2784 3184 3026 
Q 3284 3269 3284 3559 
Q 3284 4034 3032 4286 
Q 2781 4538 2297 4538 
L 1941 4538 
z
" transform="scale(0.015625)"/>
       <path id="SourceHanSerifCN-Heavy-4e" d="M 3872 -13 
L 1113 3975 
L 1184 1472 
L 1184 306 
L 1997 219 
L 1997 0 
L 225 0 
L 225 219 
L 850 313 
L 850 4359 
L 750 4513 
L 263 4563 
L 263 4781 
L 1838 4781 
L 4178 1403 
L 4153 3059 
L 4153 4475 
L 3291 4563 
L 3291 4781 
L 5069 4781 
L 5069 4563 
L 4434 4475 
L 4434 -13 
L 3872 -13 
z
" transform="scale(0.015625)"/>
      </defs>
      <use xlink:href="#SourceHanSerifCN-Heavy-52"/>
      <use xlink:href="#SourceHanSerifCN-Heavy-4e" x="77.001953"/>
      <use xlink:href="#SourceHanSerifCN-Heavy-4e" x="159.521484"/>
     </g>
    </g>
    <g id="line2d_19">
     <path d="M 632.63125 214.320938 
L 642.63125 214.320938 
L 652.63125 214.320938 
" style="fill: none; stroke: #386795; stroke-width: 1.5; stroke-linecap: square"/>
    </g>
    <g id="text_16">
     <!-- GRU -->
     <g transform="translate(660.63125 217.820938) scale(0.1 -0.1)">
      <defs>
       <path id="TimesNewRomanPSMT-47" d="M 3928 4334 
L 4038 2997 
L 3928 2997 
Q 3763 3497 3500 3750 
Q 3122 4116 2528 4116 
Q 1719 4116 1297 3475 
Q 944 2934 944 2188 
Q 944 1581 1178 1081 
Q 1413 581 1792 348 
Q 2172 116 2572 116 
Q 2806 116 3025 175 
Q 3244 234 3447 350 
L 3447 1575 
Q 3447 1894 3398 1992 
Q 3350 2091 3248 2142 
Q 3147 2194 2891 2194 
L 2891 2313 
L 4531 2313 
L 4531 2194 
L 4453 2194 
Q 4209 2194 4119 2031 
Q 4056 1916 4056 1575 
L 4056 278 
Q 3697 84 3347 -6 
Q 2997 -97 2569 -97 
Q 1341 -97 703 691 
Q 225 1281 225 2053 
Q 225 2613 494 3125 
Q 813 3734 1369 4063 
Q 1834 4334 2469 4334 
Q 2700 4334 2889 4296 
Q 3078 4259 3425 4131 
Q 3600 4066 3659 4066 
Q 3719 4066 3761 4120 
Q 3803 4175 3813 4334 
L 3928 4334 
z
" transform="scale(0.015625)"/>
       <path id="TimesNewRomanPSMT-52" d="M 4325 0 
L 3194 0 
L 1759 1981 
Q 1600 1975 1500 1975 
Q 1459 1975 1412 1976 
Q 1366 1978 1316 1981 
L 1316 750 
Q 1316 350 1403 253 
Q 1522 116 1759 116 
L 1925 116 
L 1925 0 
L 109 0 
L 109 116 
L 269 116 
Q 538 116 653 291 
Q 719 388 719 750 
L 719 3488 
Q 719 3888 631 3984 
Q 509 4122 269 4122 
L 109 4122 
L 109 4238 
L 1653 4238 
Q 2328 4238 2648 4139 
Q 2969 4041 3192 3777 
Q 3416 3513 3416 3147 
Q 3416 2756 3161 2468 
Q 2906 2181 2372 2063 
L 3247 847 
Q 3547 428 3762 290 
Q 3978 153 4325 116 
L 4325 0 
z
M 1316 2178 
Q 1375 2178 1419 2176 
Q 1463 2175 1491 2175 
Q 2097 2175 2405 2437 
Q 2713 2700 2713 3106 
Q 2713 3503 2464 3751 
Q 2216 4000 1806 4000 
Q 1625 4000 1316 3941 
L 1316 2178 
z
" transform="scale(0.015625)"/>
       <path id="TimesNewRomanPSMT-55" d="M 3053 4122 
L 3053 4238 
L 4553 4238 
L 4553 4122 
L 4394 4122 
Q 4144 4122 4009 3913 
Q 3944 3816 3944 3463 
L 3944 1744 
Q 3944 1106 3817 754 
Q 3691 403 3320 151 
Q 2950 -100 2313 -100 
Q 1619 -100 1259 140 
Q 900 381 750 788 
Q 650 1066 650 1831 
L 650 3488 
Q 650 3878 542 4000 
Q 434 4122 194 4122 
L 34 4122 
L 34 4238 
L 1866 4238 
L 1866 4122 
L 1703 4122 
Q 1441 4122 1328 3956 
Q 1250 3844 1250 3488 
L 1250 1641 
Q 1250 1394 1295 1075 
Q 1341 756 1459 578 
Q 1578 400 1801 284 
Q 2025 169 2350 169 
Q 2766 169 3094 350 
Q 3422 531 3542 814 
Q 3663 1097 3663 1772 
L 3663 3488 
Q 3663 3884 3575 3984 
Q 3453 4122 3213 4122 
L 3053 4122 
z
" transform="scale(0.015625)"/>
      </defs>
      <use xlink:href="#TimesNewRomanPSMT-47"/>
      <use xlink:href="#TimesNewRomanPSMT-52" x="72.216797"/>
      <use xlink:href="#TimesNewRomanPSMT-55" x="138.916016"/>
     </g>
    </g>
   </g>
  </g>
 </g>
 <defs>
  <clipPath id="p8e39d28f8e">
   <rect x="26.7" y="7.2" width="669.6" height="221.76"/>
  </clipPath>
 </defs>
</svg>
