<?xml version="1.0" encoding="utf-8" standalone="no"?>
<!DOCTYPE svg PUBLIC "-//W3C//DTD SVG 1.1//EN"
  "http://www.w3.org/Graphics/SVG/1.1/DTD/svg11.dtd">
<svg xmlns:xlink="http://www.w3.org/1999/xlink" width="703.5pt" height="252.242812pt" viewBox="0 0 703.5 252.242812" xmlns="http://www.w3.org/2000/svg" version="1.1">
 <metadata>
  <rdf:RDF xmlns:dc="http://purl.org/dc/elements/1.1/" xmlns:cc="http://creativecommons.org/ns#" xmlns:rdf="http://www.w3.org/1999/02/22-rdf-syntax-ns#">
   <cc:Work>
    <dc:type rdf:resource="http://purl.org/dc/dcmitype/StillImage"/>
    <dc:date>2024-01-10T15:36:24.836023</dc:date>
    <dc:format>image/svg+xml</dc:format>
    <dc:creator>
     <cc:Agent>
      <dc:title>Matplotlib v3.8.2, https://matplotlib.org/</dc:title>
     </cc:Agent>
    </dc:creator>
   </cc:Work>
  </rdf:RDF>
 </metadata>
 <defs>
  <style type="text/css">*{stroke-linejoin: round; stroke-linecap: butt}</style>
 </defs>
 <g id="figure_1">
  <g id="patch_1">
   <path d="M 0 252.242812 
L 703.5 252.242812 
L 703.5 0 
L 0 0 
z
" style="fill: #ffffff"/>
  </g>
  <g id="axes_1">
   <g id="patch_2">
    <path d="M 26.7 228.96 
L 696.3 228.96 
L 696.3 7.2 
L 26.7 7.2 
z
" style="fill: #ffffff"/>
   </g>
   <g id="PathCollection_1">
    <defs>
     <path id="ma78a400ae9" d="M 0 3 
C 0.795609 3 1.55874 2.683901 2.12132 2.12132 
C 2.683901 1.55874 3 0.795609 3 0 
C 3 -0.795609 2.683901 -1.55874 2.12132 -2.12132 
C 1.55874 -2.683901 0.795609 -3 0 -3 
C -0.795609 -3 -1.55874 -2.683901 -2.12132 -2.12132 
C -2.683901 -1.55874 -3 -0.795609 -3 0 
C -3 0.795609 -2.683901 1.55874 -2.12132 2.12132 
C -1.55874 2.683901 -0.795609 3 0 3 
z
" style="stroke: #e86254; stroke-opacity: 0.5"/>
    </defs>
    <g clip-path="url(#pc45f12f50c)">
     <use xlink:href="#ma78a400ae9" x="141.421678" y="17.28" style="fill: #e86254; fill-opacity: 0.5; stroke: #e86254; stroke-opacity: 0.5"/>
    </g>
   </g>
   <g id="PathCollection_2">
    <defs>
     <path id="mc851f15c9f" d="M 0 3 
C 0.795609 3 1.55874 2.683901 2.12132 2.12132 
C 2.683901 1.55874 3 0.795609 3 0 
C 3 -0.795609 2.683901 -1.55874 2.12132 -2.12132 
C 1.55874 -2.683901 0.795609 -3 0 -3 
C -0.795609 -3 -1.55874 -2.683901 -2.12132 -2.12132 
C -2.683901 -1.55874 -3 -0.795609 -3 0 
C -3 0.795609 -2.683901 1.55874 -2.12132 2.12132 
C -1.55874 2.683901 -0.795609 3 0 3 
z
" style="stroke: #386795; stroke-opacity: 0.5"/>
    </defs>
    <g clip-path="url(#pc45f12f50c)">
     <use xlink:href="#mc851f15c9f" x="384.912587" y="22.370023" style="fill: #386795; fill-opacity: 0.5; stroke: #386795; stroke-opacity: 0.5"/>
    </g>
   </g>
   <g id="matplotlib.axis_1">
    <g id="xtick_1">
     <g id="line2d_1">
      <defs>
       <path id="m2c9bacaa81" d="M 0 0 
L 0 3.5 
" style="stroke: #000000; stroke-width: 0.8"/>
      </defs>
      <g>
       <use xlink:href="#m2c9bacaa81" x="57.136364" y="228.96" style="stroke: #000000; stroke-width: 0.8"/>
      </g>
     </g>
     <g id="text_1">
      <!-- 0 -->
      <g transform="translate(54.636364 242.90375) scale(0.1 -0.1)">
       <defs>
        <path id="TimesNewRomanPSMT-30" d="M 231 2094 
Q 231 2819 450 3342 
Q 669 3866 1031 4122 
Q 1313 4325 1613 4325 
Q 2100 4325 2488 3828 
Q 2972 3213 2972 2159 
Q 2972 1422 2759 906 
Q 2547 391 2217 158 
Q 1888 -75 1581 -75 
Q 975 -75 572 641 
Q 231 1244 231 2094 
z
M 844 2016 
Q 844 1141 1059 588 
Q 1238 122 1591 122 
Q 1759 122 1940 273 
Q 2122 425 2216 781 
Q 2359 1319 2359 2297 
Q 2359 3022 2209 3506 
Q 2097 3866 1919 4016 
Q 1791 4119 1609 4119 
Q 1397 4119 1231 3928 
Q 1006 3669 925 3112 
Q 844 2556 844 2016 
z
" transform="scale(0.015625)"/>
       </defs>
       <use xlink:href="#TimesNewRomanPSMT-30"/>
      </g>
     </g>
    </g>
    <g id="xtick_2">
     <g id="line2d_2">
      <g>
       <use xlink:href="#m2c9bacaa81" x="150.786713" y="228.96" style="stroke: #000000; stroke-width: 0.8"/>
      </g>
     </g>
     <g id="text_2">
      <!-- 200 -->
      <g transform="translate(143.286713 242.90375) scale(0.1 -0.1)">
       <defs>
        <path id="TimesNewRomanPSMT-32" d="M 2934 816 
L 2638 0 
L 138 0 
L 138 116 
Q 1241 1122 1691 1759 
Q 2141 2397 2141 2925 
Q 2141 3328 1894 3587 
Q 1647 3847 1303 3847 
Q 991 3847 742 3664 
Q 494 3481 375 3128 
L 259 3128 
Q 338 3706 661 4015 
Q 984 4325 1469 4325 
Q 1984 4325 2329 3994 
Q 2675 3663 2675 3213 
Q 2675 2891 2525 2569 
Q 2294 2063 1775 1497 
Q 997 647 803 472 
L 1909 472 
Q 2247 472 2383 497 
Q 2519 522 2628 598 
Q 2738 675 2819 816 
L 2934 816 
z
" transform="scale(0.015625)"/>
       </defs>
       <use xlink:href="#TimesNewRomanPSMT-32"/>
       <use xlink:href="#TimesNewRomanPSMT-30" x="50"/>
       <use xlink:href="#TimesNewRomanPSMT-30" x="100"/>
      </g>
     </g>
    </g>
    <g id="xtick_3">
     <g id="line2d_3">
      <g>
       <use xlink:href="#m2c9bacaa81" x="244.437063" y="228.96" style="stroke: #000000; stroke-width: 0.8"/>
      </g>
     </g>
     <g id="text_3">
      <!-- 400 -->
      <g transform="translate(236.937063 242.90375) scale(0.1 -0.1)">
       <defs>
        <path id="TimesNewRomanPSMT-34" d="M 2978 1563 
L 2978 1119 
L 2409 1119 
L 2409 0 
L 1894 0 
L 1894 1119 
L 100 1119 
L 100 1519 
L 2066 4325 
L 2409 4325 
L 2409 1563 
L 2978 1563 
z
M 1894 1563 
L 1894 3666 
L 406 1563 
L 1894 1563 
z
" transform="scale(0.015625)"/>
       </defs>
       <use xlink:href="#TimesNewRomanPSMT-34"/>
       <use xlink:href="#TimesNewRomanPSMT-30" x="50"/>
       <use xlink:href="#TimesNewRomanPSMT-30" x="100"/>
      </g>
     </g>
    </g>
    <g id="xtick_4">
     <g id="line2d_4">
      <g>
       <use xlink:href="#m2c9bacaa81" x="338.087413" y="228.96" style="stroke: #000000; stroke-width: 0.8"/>
      </g>
     </g>
     <g id="text_4">
      <!-- 600 -->
      <g transform="translate(330.587413 242.90375) scale(0.1 -0.1)">
       <defs>
        <path id="TimesNewRomanPSMT-36" d="M 2869 4325 
L 2869 4209 
Q 2456 4169 2195 4045 
Q 1934 3922 1679 3669 
Q 1425 3416 1258 3105 
Q 1091 2794 978 2366 
Q 1428 2675 1881 2675 
Q 2316 2675 2634 2325 
Q 2953 1975 2953 1425 
Q 2953 894 2631 456 
Q 2244 -75 1606 -75 
Q 1172 -75 869 213 
Q 275 772 275 1663 
Q 275 2231 503 2743 
Q 731 3256 1154 3653 
Q 1578 4050 1965 4187 
Q 2353 4325 2688 4325 
L 2869 4325 
z
M 925 2138 
Q 869 1716 869 1456 
Q 869 1156 980 804 
Q 1091 453 1309 247 
Q 1469 100 1697 100 
Q 1969 100 2183 356 
Q 2397 613 2397 1088 
Q 2397 1622 2184 2012 
Q 1972 2403 1581 2403 
Q 1463 2403 1327 2353 
Q 1191 2303 925 2138 
z
" transform="scale(0.015625)"/>
       </defs>
       <use xlink:href="#TimesNewRomanPSMT-36"/>
       <use xlink:href="#TimesNewRomanPSMT-30" x="50"/>
       <use xlink:href="#TimesNewRomanPSMT-30" x="100"/>
      </g>
     </g>
    </g>
    <g id="xtick_5">
     <g id="line2d_5">
      <g>
       <use xlink:href="#m2c9bacaa81" x="431.737762" y="228.96" style="stroke: #000000; stroke-width: 0.8"/>
      </g>
     </g>
     <g id="text_5">
      <!-- 800 -->
      <g transform="translate(424.237762 242.90375) scale(0.1 -0.1)">
       <defs>
        <path id="TimesNewRomanPSMT-38" d="M 1228 2134 
Q 725 2547 579 2797 
Q 434 3047 434 3316 
Q 434 3728 753 4026 
Q 1072 4325 1600 4325 
Q 2113 4325 2425 4047 
Q 2738 3769 2738 3413 
Q 2738 3175 2569 2928 
Q 2400 2681 1866 2347 
Q 2416 1922 2594 1678 
Q 2831 1359 2831 1006 
Q 2831 559 2490 242 
Q 2150 -75 1597 -75 
Q 994 -75 656 303 
Q 388 606 388 966 
Q 388 1247 577 1523 
Q 766 1800 1228 2134 
z
M 1719 2469 
Q 2094 2806 2194 3001 
Q 2294 3197 2294 3444 
Q 2294 3772 2109 3958 
Q 1925 4144 1606 4144 
Q 1288 4144 1088 3959 
Q 888 3775 888 3528 
Q 888 3366 970 3203 
Q 1053 3041 1206 2894 
L 1719 2469 
z
M 1375 2016 
Q 1116 1797 991 1539 
Q 866 1281 866 981 
Q 866 578 1086 336 
Q 1306 94 1647 94 
Q 1984 94 2187 284 
Q 2391 475 2391 747 
Q 2391 972 2272 1150 
Q 2050 1481 1375 2016 
z
" transform="scale(0.015625)"/>
       </defs>
       <use xlink:href="#TimesNewRomanPSMT-38"/>
       <use xlink:href="#TimesNewRomanPSMT-30" x="50"/>
       <use xlink:href="#TimesNewRomanPSMT-30" x="100"/>
      </g>
     </g>
    </g>
    <g id="xtick_6">
     <g id="line2d_6">
      <g>
       <use xlink:href="#m2c9bacaa81" x="525.388112" y="228.96" style="stroke: #000000; stroke-width: 0.8"/>
      </g>
     </g>
     <g id="text_6">
      <!-- 1000 -->
      <g transform="translate(515.388112 242.90375) scale(0.1 -0.1)">
       <defs>
        <path id="TimesNewRomanPSMT-31" d="M 750 3822 
L 1781 4325 
L 1884 4325 
L 1884 747 
Q 1884 391 1914 303 
Q 1944 216 2037 169 
Q 2131 122 2419 116 
L 2419 0 
L 825 0 
L 825 116 
Q 1125 122 1212 167 
Q 1300 213 1334 289 
Q 1369 366 1369 747 
L 1369 3034 
Q 1369 3497 1338 3628 
Q 1316 3728 1258 3775 
Q 1200 3822 1119 3822 
Q 1003 3822 797 3725 
L 750 3822 
z
" transform="scale(0.015625)"/>
       </defs>
       <use xlink:href="#TimesNewRomanPSMT-31"/>
       <use xlink:href="#TimesNewRomanPSMT-30" x="50"/>
       <use xlink:href="#TimesNewRomanPSMT-30" x="100"/>
       <use xlink:href="#TimesNewRomanPSMT-30" x="150"/>
      </g>
     </g>
    </g>
    <g id="xtick_7">
     <g id="line2d_7">
      <g>
       <use xlink:href="#m2c9bacaa81" x="619.038462" y="228.96" style="stroke: #000000; stroke-width: 0.8"/>
      </g>
     </g>
     <g id="text_7">
      <!-- 1200 -->
      <g transform="translate(609.038462 242.90375) scale(0.1 -0.1)">
       <use xlink:href="#TimesNewRomanPSMT-31"/>
       <use xlink:href="#TimesNewRomanPSMT-32" x="50"/>
       <use xlink:href="#TimesNewRomanPSMT-30" x="100"/>
       <use xlink:href="#TimesNewRomanPSMT-30" x="150"/>
      </g>
     </g>
    </g>
   </g>
   <g id="matplotlib.axis_2">
    <g id="ytick_1">
     <g id="line2d_8">
      <defs>
       <path id="m581998fbf1" d="M 0 0 
L -3.5 0 
" style="stroke: #000000; stroke-width: 0.8"/>
      </defs>
      <g>
       <use xlink:href="#m581998fbf1" x="26.7" y="209.647752" style="stroke: #000000; stroke-width: 0.8"/>
      </g>
     </g>
     <g id="text_8">
      <!-- 0.1 -->
      <g transform="translate(7.2 213.119627) scale(0.1 -0.1)">
       <defs>
        <path id="TimesNewRomanPSMT-2e" d="M 800 606 
Q 947 606 1047 504 
Q 1147 403 1147 259 
Q 1147 116 1045 14 
Q 944 -88 800 -88 
Q 656 -88 554 14 
Q 453 116 453 259 
Q 453 406 554 506 
Q 656 606 800 606 
z
" transform="scale(0.015625)"/>
       </defs>
       <use xlink:href="#TimesNewRomanPSMT-30"/>
       <use xlink:href="#TimesNewRomanPSMT-2e" x="50"/>
       <use xlink:href="#TimesNewRomanPSMT-31" x="75"/>
      </g>
     </g>
    </g>
    <g id="ytick_2">
     <g id="line2d_9">
      <g>
       <use xlink:href="#m581998fbf1" x="26.7" y="174.544148" style="stroke: #000000; stroke-width: 0.8"/>
      </g>
     </g>
     <g id="text_9">
      <!-- 0.2 -->
      <g transform="translate(7.2 178.016023) scale(0.1 -0.1)">
       <use xlink:href="#TimesNewRomanPSMT-30"/>
       <use xlink:href="#TimesNewRomanPSMT-2e" x="50"/>
       <use xlink:href="#TimesNewRomanPSMT-32" x="75"/>
      </g>
     </g>
    </g>
    <g id="ytick_3">
     <g id="line2d_10">
      <g>
       <use xlink:href="#m581998fbf1" x="26.7" y="139.440543" style="stroke: #000000; stroke-width: 0.8"/>
      </g>
     </g>
     <g id="text_10">
      <!-- 0.3 -->
      <g transform="translate(7.2 142.912418) scale(0.1 -0.1)">
       <defs>
        <path id="TimesNewRomanPSMT-33" d="M 325 3431 
Q 506 3859 782 4092 
Q 1059 4325 1472 4325 
Q 1981 4325 2253 3994 
Q 2459 3747 2459 3466 
Q 2459 3003 1878 2509 
Q 2269 2356 2469 2072 
Q 2669 1788 2669 1403 
Q 2669 853 2319 450 
Q 1863 -75 997 -75 
Q 569 -75 414 31 
Q 259 138 259 259 
Q 259 350 332 419 
Q 406 488 509 488 
Q 588 488 669 463 
Q 722 447 909 348 
Q 1097 250 1169 231 
Q 1284 197 1416 197 
Q 1734 197 1970 444 
Q 2206 691 2206 1028 
Q 2206 1275 2097 1509 
Q 2016 1684 1919 1775 
Q 1784 1900 1550 2001 
Q 1316 2103 1072 2103 
L 972 2103 
L 972 2197 
Q 1219 2228 1467 2375 
Q 1716 2522 1828 2728 
Q 1941 2934 1941 3181 
Q 1941 3503 1739 3701 
Q 1538 3900 1238 3900 
Q 753 3900 428 3381 
L 325 3431 
z
" transform="scale(0.015625)"/>
       </defs>
       <use xlink:href="#TimesNewRomanPSMT-30"/>
       <use xlink:href="#TimesNewRomanPSMT-2e" x="50"/>
       <use xlink:href="#TimesNewRomanPSMT-33" x="75"/>
      </g>
     </g>
    </g>
    <g id="ytick_4">
     <g id="line2d_11">
      <g>
       <use xlink:href="#m581998fbf1" x="26.7" y="104.336939" style="stroke: #000000; stroke-width: 0.8"/>
      </g>
     </g>
     <g id="text_11">
      <!-- 0.4 -->
      <g transform="translate(7.2 107.808814) scale(0.1 -0.1)">
       <use xlink:href="#TimesNewRomanPSMT-30"/>
       <use xlink:href="#TimesNewRomanPSMT-2e" x="50"/>
       <use xlink:href="#TimesNewRomanPSMT-34" x="75"/>
      </g>
     </g>
    </g>
    <g id="ytick_5">
     <g id="line2d_12">
      <g>
       <use xlink:href="#m581998fbf1" x="26.7" y="69.233334" style="stroke: #000000; stroke-width: 0.8"/>
      </g>
     </g>
     <g id="text_12">
      <!-- 0.5 -->
      <g transform="translate(7.2 72.705209) scale(0.1 -0.1)">
       <defs>
        <path id="TimesNewRomanPSMT-35" d="M 2778 4238 
L 2534 3706 
L 1259 3706 
L 981 3138 
Q 1809 3016 2294 2522 
Q 2709 2097 2709 1522 
Q 2709 1188 2573 903 
Q 2438 619 2231 419 
Q 2025 219 1772 97 
Q 1413 -75 1034 -75 
Q 653 -75 479 54 
Q 306 184 306 341 
Q 306 428 378 495 
Q 450 563 559 563 
Q 641 563 702 538 
Q 763 513 909 409 
Q 1144 247 1384 247 
Q 1750 247 2026 523 
Q 2303 800 2303 1197 
Q 2303 1581 2056 1914 
Q 1809 2247 1375 2428 
Q 1034 2569 447 2591 
L 1259 4238 
L 2778 4238 
z
" transform="scale(0.015625)"/>
       </defs>
       <use xlink:href="#TimesNewRomanPSMT-30"/>
       <use xlink:href="#TimesNewRomanPSMT-2e" x="50"/>
       <use xlink:href="#TimesNewRomanPSMT-35" x="75"/>
      </g>
     </g>
    </g>
    <g id="ytick_6">
     <g id="line2d_13">
      <g>
       <use xlink:href="#m581998fbf1" x="26.7" y="34.12973" style="stroke: #000000; stroke-width: 0.8"/>
      </g>
     </g>
     <g id="text_13">
      <!-- 0.6 -->
      <g transform="translate(7.2 37.601605) scale(0.1 -0.1)">
       <use xlink:href="#TimesNewRomanPSMT-30"/>
       <use xlink:href="#TimesNewRomanPSMT-2e" x="50"/>
       <use xlink:href="#TimesNewRomanPSMT-36" x="75"/>
      </g>
     </g>
    </g>
   </g>
   <g id="line2d_14">
    <path d="M 57.136364 218.88 
L 57.604615 218.88 
L 58.072867 218.88 
L 58.541119 218.88 
L 59.009371 218.88 
L 59.477622 218.88 
L 59.945874 218.458757 
L 60.414126 218.458757 
L 60.882378 218.458757 
L 61.350629 218.458757 
L 61.818881 218.072617 
L 62.287133 217.686477 
L 62.755385 217.686477 
L 63.223636 217.300338 
L 63.691888 217.300338 
L 64.16014 216.528059 
L 64.628392 215.720676 
L 65.096643 214.948396 
L 65.564895 214.562257 
L 66.033147 214.141013 
L 66.501399 214.141013 
L 66.96965 214.141013 
L 67.437902 213.754874 
L 67.906154 213.754874 
L 68.374406 212.982594 
L 68.842657 211.402932 
L 69.310909 211.789072 
L 69.779161 210.630653 
L 70.247413 209.050991 
L 70.715664 208.278711 
L 71.183916 205.54063 
L 71.652168 202.767446 
L 72.12042 198.063563 
L 72.588671 194.939342 
L 73.056923 188.655797 
L 73.525175 180.441553 
L 73.993427 171.806067 
L 74.461678 163.942859 
L 74.92993 158.466697 
L 75.398182 152.569291 
L 75.866434 147.479269 
L 76.334685 140.037305 
L 76.802937 134.947282 
L 77.271189 126.311795 
L 77.739441 120.02825 
L 78.207692 116.904029 
L 78.675944 113.358565 
L 79.144196 107.46116 
L 79.612448 100.019196 
L 80.080699 95.315313 
L 80.548951 90.61143 
L 82.89021 73.340456 
L 85.231469 62.353028 
L 87.572727 54.524924 
L 89.913986 47.855239 
L 92.255245 41.185555 
L 94.596503 37.253951 
L 96.937762 34.902009 
L 99.279021 33.357451 
L 101.62028 31.391649 
L 103.961538 27.460045 
L 106.302797 26.687766 
L 108.644056 23.528442 
L 110.985315 22.756162 
L 113.326573 21.56264 
L 115.667832 21.56264 
L 118.009091 21.983883 
L 120.35035 21.1765 
L 122.691608 20.79036 
L 125.032867 20.404221 
L 127.374126 19.631941 
L 129.715385 19.631941 
L 132.056643 19.631941 
L 134.397902 18.824559 
L 136.739161 18.052279 
L 139.08042 17.66614 
L 141.421678 17.28 
L 143.762937 17.28 
L 146.104196 17.66614 
L 148.445455 17.66614 
L 150.786713 17.66614 
L 197.611888 17.28 
L 244.437063 17.28 
L 291.262238 17.28 
L 338.087413 17.28 
L 384.912587 17.28 
L 431.737762 17.28 
L 478.562937 17.28 
L 525.388112 17.28 
L 572.213287 17.28 
L 619.038462 17.28 
L 665.863636 17.28 
" clip-path="url(#pc45f12f50c)" style="fill: none; stroke: #e86254; stroke-width: 1.5; stroke-linecap: square"/>
   </g>
   <g id="LineCollection_1">
    <path d="M 57.136364 32.058617 
L 665.863636 32.058617 
" clip-path="url(#pc45f12f50c)" style="fill: none; stroke-dasharray: 1.5,2.475; stroke-dashoffset: 0; stroke: #e86254; stroke-opacity: 0.5; stroke-width: 1.5"/>
   </g>
   <g id="line2d_15">
    <path d="M 57.136364 197.291283 
L 57.604615 194.939342 
L 58.072867 192.97354 
L 58.541119 194.553202 
L 59.009371 192.5874 
L 59.477622 192.5874 
L 59.945874 192.5874 
L 60.414126 192.201261 
L 60.882378 189.849319 
L 61.350629 190.235459 
L 61.818881 190.235459 
L 62.287133 188.655797 
L 62.755385 184.759297 
L 63.223636 183.565774 
L 63.691888 179.248031 
L 64.16014 178.089612 
L 64.628392 176.50995 
L 65.096643 169.454125 
L 65.564895 166.716044 
L 66.033147 158.852836 
L 66.501399 149.83121 
L 66.96965 143.547665 
L 67.437902 138.843782 
L 67.906154 135.719561 
L 68.374406 131.787958 
L 68.842657 126.311795 
L 69.310909 126.697935 
L 69.779161 119.255971 
L 70.247413 117.676309 
L 70.715664 111.006624 
L 71.183916 108.654682 
L 71.652168 111.778903 
L 72.12042 109.813101 
L 72.588671 104.336939 
L 73.056923 103.143416 
L 73.525175 102.757277 
L 73.993427 105.530461 
L 74.461678 98.439533 
L 74.92993 97.281114 
L 75.398182 92.191092 
L 75.866434 89.031767 
L 76.334685 91.769849 
L 76.802937 94.12179 
L 77.271189 92.191092 
L 77.739441 92.577231 
L 78.207692 87.487209 
L 78.675944 87.873348 
L 79.144196 84.327884 
L 79.612448 85.521407 
L 80.080699 84.327884 
L 80.548951 80.010141 
L 82.89021 74.533979 
L 85.231469 67.478154 
L 87.572727 61.194609 
L 89.913986 54.911064 
L 92.255245 48.241379 
L 94.596503 46.275577 
L 96.937762 43.537496 
L 99.279021 43.537496 
L 101.62028 42.765217 
L 103.961538 40.799415 
L 106.302797 37.675194 
L 108.644056 34.902009 
L 110.985315 37.253951 
L 113.326573 31.777789 
L 115.667832 31.777789 
L 118.009091 31.777789 
L 120.35035 31.005509 
L 122.691608 29.811987 
L 125.032867 31.777789 
L 127.374126 31.777789 
L 129.715385 29.425847 
L 132.056643 28.232325 
L 134.397902 27.460045 
L 136.739161 27.073906 
L 139.08042 29.425847 
L 141.421678 24.721964 
L 143.762937 25.108104 
L 146.104196 25.880383 
L 148.445455 26.687766 
L 150.786713 25.494243 
L 197.611888 24.335824 
L 244.437063 24.721964 
L 291.262238 25.494243 
L 338.087413 24.721964 
L 384.912587 22.370023 
L 431.737762 23.914581 
L 478.562937 27.846185 
L 525.388112 23.142302 
L 572.213287 23.914581 
L 619.038462 25.880383 
L 665.863636 23.142302 
" clip-path="url(#pc45f12f50c)" style="fill: none; stroke: #386795; stroke-width: 1.5; stroke-linecap: square"/>
   </g>
   <g id="LineCollection_2">
    <path d="M 57.136364 39.500582 
L 665.863636 39.500582 
" clip-path="url(#pc45f12f50c)" style="fill: none; stroke-dasharray: 1.5,2.475; stroke-dashoffset: 0; stroke: #386795; stroke-opacity: 0.5; stroke-width: 1.5"/>
   </g>
   <g id="patch_3">
    <path d="M 26.7 228.96 
L 26.7 7.2 
" style="fill: none; stroke: #000000; stroke-width: 0.8; stroke-linejoin: miter; stroke-linecap: square"/>
   </g>
   <g id="patch_4">
    <path d="M 696.3 228.96 
L 696.3 7.2 
" style="fill: none; stroke: #000000; stroke-width: 0.8; stroke-linejoin: miter; stroke-linecap: square"/>
   </g>
   <g id="patch_5">
    <path d="M 26.7 228.96 
L 696.3 228.96 
" style="fill: none; stroke: #000000; stroke-width: 0.8; stroke-linejoin: miter; stroke-linecap: square"/>
   </g>
   <g id="patch_6">
    <path d="M 26.7 7.2 
L 696.3 7.2 
" style="fill: none; stroke: #000000; stroke-width: 0.8; stroke-linejoin: miter; stroke-linecap: square"/>
   </g>
   <g id="legend_1">
    <g id="patch_7">
     <path d="M 552.351562 223.96 
L 689.3 223.96 
Q 691.3 223.96 691.3 221.96 
L 691.3 191.767812 
Q 691.3 189.767812 689.3 189.767812 
L 552.351562 189.767812 
Q 550.351562 189.767812 550.351562 191.767812 
L 550.351562 221.96 
Q 550.351562 223.96 552.351562 223.96 
z
" style="fill: #ffffff; opacity: 0.8; stroke: #cccccc; stroke-linejoin: miter"/>
    </g>
    <g id="line2d_16">
     <path d="M 554.351562 198.530312 
L 564.351562 198.530312 
L 574.351562 198.530312 
" style="fill: none; stroke: #e86254; stroke-width: 1.5; stroke-linecap: square"/>
    </g>
    <g id="text_14">
     <!-- 冻结BERT(BASE)参数 -->
     <g transform="translate(582.351562 202.030312) scale(0.1 -0.1)">
      <defs>
       <path id="SourceHanSerifCN-Heavy-51bb" d="M 4609 1894 
Q 5191 1734 5531 1498 
Q 5872 1263 6014 1006 
Q 6156 750 6142 525 
Q 6128 300 6000 156 
Q 5872 13 5670 0 
Q 5469 -13 5241 166 
Q 5169 613 4973 1058 
Q 4778 1503 4556 1863 
L 4609 1894 
z
M 3616 1678 
Q 3572 1547 3353 1556 
Q 3022 978 2601 543 
Q 2181 109 1703 -178 
L 1631 -128 
Q 1794 141 1958 502 
Q 2122 863 2262 1270 
Q 2403 1678 2497 2088 
L 3616 1678 
z
M 397 5197 
Q 919 5119 1217 4951 
Q 1516 4784 1633 4582 
Q 1750 4381 1725 4193 
Q 1700 4006 1575 3882 
Q 1450 3759 1262 3751 
Q 1075 3744 872 3903 
Q 838 4241 688 4578 
Q 538 4916 347 5166 
L 397 5197 
z
M 447 1381 
Q 534 1381 571 1397 
Q 609 1413 672 1503 
Q 722 1575 764 1640 
Q 806 1706 878 1832 
Q 950 1959 1081 2206 
Q 1213 2453 1438 2878 
Q 1663 3303 2016 3975 
L 2106 3956 
Q 2022 3706 1919 3378 
Q 1816 3050 1714 2722 
Q 1613 2394 1536 2131 
Q 1459 1869 1428 1747 
Q 1388 1594 1356 1426 
Q 1325 1259 1331 1147 
Q 1338 1009 1389 900 
Q 1441 791 1503 678 
Q 1566 566 1609 422 
Q 1653 278 1644 72 
Q 1634 -184 1446 -342 
Q 1259 -500 972 -500 
Q 844 -500 714 -431 
Q 584 -363 531 -178 
Q 594 141 609 430 
Q 625 719 594 917 
Q 563 1116 488 1166 
Q 334 1256 147 1275 
L 147 1381 
Q 147 1381 208 1381 
Q 269 1381 341 1381 
Q 413 1381 447 1381 
z
M 4294 5197 
Q 4272 5134 4208 5090 
Q 4144 5047 4013 5056 
L 3738 4366 
L 4769 4366 
L 5269 4966 
Q 5269 4966 5358 4900 
Q 5447 4834 5587 4729 
Q 5728 4625 5883 4508 
Q 6038 4391 6163 4288 
Q 6153 4234 6101 4209 
Q 6050 4184 5978 4184 
L 3669 4184 
L 3016 2597 
L 3675 2597 
L 3675 3725 
L 4744 3616 
Q 4731 3553 4681 3504 
Q 4631 3456 4506 3438 
L 4506 2597 
L 4709 2597 
L 5141 3163 
Q 5141 3163 5219 3100 
Q 5297 3038 5419 2939 
Q 5541 2841 5675 2730 
Q 5809 2619 5919 2522 
Q 5891 2419 5734 2419 
L 4506 2419 
L 4506 409 
Q 4506 122 4434 -100 
Q 4363 -322 4134 -459 
Q 3906 -597 3444 -634 
Q 3434 -422 3407 -262 
Q 3381 -103 3316 -6 
Q 3247 91 3136 164 
Q 3025 238 2784 275 
L 2784 359 
Q 2784 359 2875 353 
Q 2966 347 3094 339 
Q 3222 331 3337 325 
Q 3453 319 3500 319 
Q 3572 319 3597 350 
Q 3622 381 3622 428 
L 3622 2419 
L 2969 2419 
L 2741 2163 
L 1925 2625 
Q 1959 2656 2009 2693 
Q 2059 2731 2113 2772 
Q 2247 3041 2409 3419 
Q 2572 3797 2725 4184 
L 1966 4184 
L 1913 4366 
L 2791 4366 
Q 2919 4706 3023 5006 
Q 3128 5306 3181 5497 
L 4294 5197 
z
" transform="scale(0.015625)"/>
       <path id="SourceHanSerifCN-Heavy-7ed3" d="M 122 653 
Q 347 684 765 764 
Q 1184 844 1703 953 
Q 2222 1063 2747 1184 
L 2759 1131 
Q 2456 884 1953 536 
Q 1450 188 709 -244 
Q 659 -384 519 -428 
L 122 653 
z
M 2356 4984 
Q 2338 4944 2283 4911 
Q 2228 4878 2138 4884 
Q 1972 4675 1737 4447 
Q 1503 4219 1239 4005 
Q 975 3791 722 3628 
L 1581 3669 
Q 1781 4028 1875 4300 
L 2925 3750 
Q 2900 3706 2839 3678 
Q 2778 3650 2681 3659 
Q 2484 3416 2181 3128 
Q 1878 2841 1528 2564 
Q 1178 2288 838 2075 
Q 1188 2106 1639 2153 
Q 2091 2200 2559 2253 
L 2566 2181 
Q 2294 2019 1806 1759 
Q 1319 1500 684 1216 
Q 616 1128 525 1088 
L 122 2059 
Q 122 2059 226 2086 
Q 331 2113 391 2156 
Q 572 2278 787 2523 
Q 1003 2769 1203 3066 
Q 1075 2994 931 2925 
Q 788 2856 634 2784 
Q 578 2719 506 2688 
L 103 3653 
Q 103 3653 195 3678 
Q 288 3703 341 3738 
Q 459 3838 596 4041 
Q 734 4244 864 4495 
Q 994 4747 1092 4995 
Q 1191 5244 1234 5434 
L 2356 4984 
z
M 3694 141 
L 4844 141 
L 4844 1747 
L 3694 1747 
L 3694 141 
z
M 2841 2272 
L 3763 1925 
L 4819 1925 
L 5234 2394 
L 5997 1813 
Q 5963 1769 5906 1736 
Q 5850 1703 5741 1684 
L 5741 -391 
Q 5741 -416 5545 -495 
Q 5350 -575 5006 -575 
L 4844 -575 
L 4844 -38 
L 3694 -38 
L 3694 -428 
Q 3694 -472 3508 -550 
Q 3322 -628 2994 -628 
L 2841 -628 
L 2841 2272 
z
M 5550 4716 
Q 5550 4716 5626 4656 
Q 5703 4597 5823 4500 
Q 5944 4403 6075 4293 
Q 6206 4184 6309 4091 
Q 6281 3988 6131 3988 
L 4678 3988 
L 4678 2841 
L 4997 2841 
L 5409 3378 
Q 5409 3378 5536 3276 
Q 5663 3175 5834 3033 
Q 6006 2891 6144 2766 
Q 6125 2663 5972 2663 
L 2759 2663 
L 2706 2841 
L 3781 2841 
L 3781 3988 
L 2534 3988 
L 2484 4166 
L 3781 4166 
L 3781 5459 
L 4909 5369 
Q 4903 5297 4858 5253 
Q 4813 5209 4678 5184 
L 4678 4166 
L 5131 4166 
L 5550 4716 
z
" transform="scale(0.015625)"/>
       <path id="SourceHanSerifCN-Heavy-42" d="M 263 4563 
L 263 4781 
L 2516 4781 
Q 3128 4781 3497 4636 
Q 3866 4491 4028 4237 
Q 4191 3984 4191 3659 
Q 4191 3419 4069 3198 
Q 3947 2978 3653 2811 
Q 3359 2644 2847 2553 
Q 3716 2469 4095 2150 
Q 4475 1831 4475 1331 
Q 4475 1097 4373 861 
Q 4272 625 4030 429 
Q 3788 234 3364 117 
Q 2941 0 2291 0 
L 263 0 
L 263 219 
L 838 275 
Q 847 778 848 1295 
Q 850 1813 850 2328 
L 850 2559 
Q 850 3050 848 3536 
Q 847 4022 838 4513 
L 263 4563 
z
M 1919 2388 
Q 1919 1816 1922 1283 
Q 1925 750 1941 238 
L 2259 238 
Q 2772 238 3065 511 
Q 3359 784 3359 1313 
Q 3359 1869 3081 2128 
Q 2803 2388 2222 2388 
L 1919 2388 
z
M 1941 4538 
Q 1925 4069 1922 3591 
Q 1919 3113 1919 2619 
L 2169 2619 
Q 2659 2619 2904 2881 
Q 3150 3144 3150 3628 
Q 3150 4059 2934 4298 
Q 2719 4538 2234 4538 
L 1941 4538 
z
" transform="scale(0.015625)"/>
       <path id="SourceHanSerifCN-Heavy-45" d="M 3547 3506 
L 3263 4531 
L 1953 4531 
Q 1944 4050 1942 3556 
Q 1941 3063 1941 2553 
L 2809 2553 
L 2906 3231 
L 3225 3231 
L 3225 1684 
L 2906 1684 
L 2816 2322 
L 1941 2322 
L 1941 2303 
Q 1941 1772 1942 1261 
Q 1944 750 1953 250 
L 3391 250 
L 3688 1325 
L 4044 1325 
L 4056 0 
L 263 0 
L 263 219 
L 838 275 
Q 847 759 848 1253 
Q 850 1747 850 2247 
L 850 2528 
Q 850 3028 848 3523 
Q 847 4019 838 4513 
L 263 4563 
L 263 4781 
L 3922 4781 
L 3916 3506 
L 3547 3506 
z
" transform="scale(0.015625)"/>
       <path id="SourceHanSerifCN-Heavy-52" d="M 263 4563 
L 263 4781 
L 2572 4781 
Q 3413 4781 3859 4465 
Q 4306 4150 4306 3578 
Q 4306 3316 4176 3077 
Q 4047 2838 3748 2661 
Q 3450 2484 2944 2406 
Q 3363 2353 3600 2214 
Q 3838 2075 3953 1848 
Q 4069 1622 4122 1306 
L 4319 256 
L 4891 219 
L 4891 0 
Q 4694 -47 4531 -72 
Q 4369 -97 4128 -97 
Q 3688 -97 3442 54 
Q 3197 206 3150 594 
L 2963 1478 
Q 2897 1872 2747 2065 
Q 2597 2259 2228 2259 
L 1919 2259 
Q 1919 1756 1922 1261 
Q 1925 766 1941 275 
L 2528 219 
L 2528 0 
L 263 0 
L 263 219 
L 838 275 
Q 847 759 848 1253 
Q 850 1747 850 2247 
L 850 2528 
Q 850 3028 848 3523 
Q 847 4019 838 4513 
L 263 4563 
z
M 1941 4538 
Q 1925 4053 1922 3550 
Q 1919 3047 1919 2497 
L 2291 2497 
Q 2650 2497 2867 2640 
Q 3084 2784 3184 3026 
Q 3284 3269 3284 3559 
Q 3284 4034 3032 4286 
Q 2781 4538 2297 4538 
L 1941 4538 
z
" transform="scale(0.015625)"/>
       <path id="SourceHanSerifCN-Heavy-54" d="M 147 3397 
L 172 4781 
L 4397 4781 
L 4422 3397 
L 4050 3397 
L 3725 4531 
L 2841 4531 
Q 2831 4038 2829 3538 
Q 2828 3038 2828 2528 
L 2828 2253 
Q 2828 1763 2829 1267 
Q 2831 772 2841 281 
L 3494 219 
L 3494 0 
L 1081 0 
L 1081 219 
L 1728 281 
Q 1738 763 1739 1255 
Q 1741 1747 1741 2247 
L 1741 2528 
Q 1741 3031 1739 3531 
Q 1738 4031 1728 4531 
L 844 4531 
L 525 3397 
L 147 3397 
z
" transform="scale(0.015625)"/>
       <path id="SourceHanSerifCN-Heavy-28" d="M 1319 2016 
Q 1319 1413 1422 897 
Q 1525 381 1762 -105 
Q 2000 -591 2406 -1106 
L 2253 -1247 
Q 1428 -566 989 211 
Q 550 988 550 2016 
Q 550 3044 989 3823 
Q 1428 4603 2253 5281 
L 2406 5141 
Q 1978 4613 1742 4127 
Q 1506 3641 1412 3131 
Q 1319 2622 1319 2016 
z
" transform="scale(0.015625)"/>
       <path id="SourceHanSerifCN-Heavy-41" d="M 2081 3909 
L 1409 1741 
L 2772 1741 
L 2081 3909 
z
M 2613 0 
L 2613 225 
L 3231 294 
L 2847 1516 
L 1338 1516 
L 959 300 
L 1550 219 
L 1550 0 
L 91 0 
L 91 219 
L 628 300 
L 2131 4800 
L 2797 4800 
L 4347 269 
L 4794 225 
L 4794 0 
L 2613 0 
z
" transform="scale(0.015625)"/>
       <path id="SourceHanSerifCN-Heavy-53" d="M 1819 -128 
Q 1425 -128 1020 -29 
Q 616 69 325 256 
L 372 1356 
L 744 1356 
L 1081 244 
Q 1225 191 1375 169 
Q 1525 147 1709 147 
Q 2184 147 2436 359 
Q 2688 572 2688 947 
Q 2688 1269 2534 1462 
Q 2381 1656 1997 1831 
L 1691 1966 
Q 1047 2256 712 2615 
Q 378 2975 378 3553 
Q 378 3984 597 4287 
Q 816 4591 1209 4750 
Q 1603 4909 2125 4909 
Q 2503 4909 2836 4812 
Q 3169 4716 3425 4544 
L 3372 3494 
L 3003 3494 
L 2675 4563 
Q 2578 4606 2478 4623 
Q 2378 4641 2259 4641 
Q 1841 4641 1586 4439 
Q 1331 4238 1331 3878 
Q 1331 3547 1509 3348 
Q 1688 3150 2028 2994 
L 2363 2841 
Q 2841 2628 3130 2412 
Q 3419 2197 3547 1933 
Q 3675 1669 3675 1306 
Q 3675 669 3197 270 
Q 2719 -128 1819 -128 
z
" transform="scale(0.015625)"/>
       <path id="SourceHanSerifCN-Heavy-29" d="M 1356 2016 
Q 1356 2622 1253 3137 
Q 1150 3653 912 4139 
Q 675 4625 269 5141 
L 422 5281 
Q 1247 4597 1686 3820 
Q 2125 3044 2125 2016 
Q 2125 988 1686 208 
Q 1247 -572 422 -1247 
L 269 -1106 
Q 697 -578 933 -93 
Q 1169 391 1262 902 
Q 1356 1413 1356 2016 
z
" transform="scale(0.015625)"/>
       <path id="SourceHanSerifCN-Heavy-53c2" d="M 5619 550 
Q 5541 472 5375 538 
Q 4997 291 4462 75 
Q 3928 -141 3297 -298 
Q 2666 -456 1984 -539 
Q 1303 -622 628 -603 
L 609 -513 
Q 1216 -416 1834 -233 
Q 2453 -50 3022 195 
Q 3591 441 4055 719 
Q 4519 997 4819 1288 
L 5619 550 
z
M 4788 1472 
Q 4719 1394 4556 1447 
Q 4259 1244 3840 1048 
Q 3422 853 2931 683 
Q 2441 513 1919 388 
Q 1397 263 891 206 
L 856 294 
Q 1297 434 1755 640 
Q 2213 847 2639 1092 
Q 3066 1338 3420 1595 
Q 3775 1853 4006 2094 
L 4788 1472 
z
M 4084 2291 
Q 4028 2219 3859 2266 
Q 3616 2075 3272 1879 
Q 2928 1684 2525 1501 
Q 2122 1319 1694 1170 
Q 1266 1022 850 928 
L 813 1013 
Q 1159 1175 1517 1397 
Q 1875 1619 2211 1870 
Q 2547 2122 2826 2375 
Q 3106 2628 3291 2853 
L 4084 2291 
z
M 3781 4863 
Q 4303 4853 4629 4737 
Q 4956 4622 5120 4451 
Q 5284 4281 5312 4106 
Q 5341 3931 5262 3798 
Q 5184 3666 5029 3619 
Q 4875 3572 4672 3669 
Q 4594 3844 4453 4031 
Q 4200 3966 3875 3886 
Q 3550 3806 3163 3725 
L 3597 3513 
Q 3572 3459 3517 3434 
Q 3463 3409 3347 3419 
L 3194 3206 
L 4897 3206 
L 5363 3809 
Q 5363 3809 5448 3742 
Q 5534 3675 5665 3572 
Q 5797 3469 5940 3350 
Q 6084 3231 6203 3128 
Q 6175 3028 6016 3028 
L 4166 3028 
Q 4413 2834 4758 2687 
Q 5103 2541 5490 2444 
Q 5878 2347 6253 2303 
L 6247 2234 
Q 6006 2166 5843 1958 
Q 5681 1750 5613 1428 
Q 5022 1669 4630 2064 
Q 4238 2459 3988 3028 
L 3053 3028 
Q 2581 2481 1868 2034 
Q 1156 1588 191 1375 
L 153 1447 
Q 734 1741 1192 2153 
Q 1650 2566 1978 3028 
L 294 3028 
L 244 3206 
L 2100 3206 
Q 2153 3294 2203 3376 
Q 2253 3459 2297 3547 
L 1484 3384 
Q 1450 3338 1409 3308 
Q 1369 3278 1325 3256 
L 953 4178 
Q 953 4178 1047 4197 
Q 1141 4216 1197 4244 
Q 1378 4309 1586 4457 
Q 1794 4606 1989 4792 
Q 2184 4978 2340 5162 
Q 2497 5347 2578 5484 
L 3628 5075 
Q 3609 5028 3550 4995 
Q 3491 4963 3384 4972 
Q 3103 4766 2670 4548 
Q 2238 4331 1813 4172 
Q 2297 4169 2959 4172 
Q 3622 4175 4347 4178 
Q 4203 4363 4042 4528 
Q 3881 4694 3731 4819 
L 3781 4863 
z
" transform="scale(0.015625)"/>
       <path id="SourceHanSerifCN-Heavy-6570" d="M 3481 4991 
Q 3438 4856 3238 4856 
Q 3066 4675 2866 4495 
Q 2666 4316 2484 4191 
L 2394 4238 
Q 2438 4428 2488 4714 
Q 2538 5000 2578 5275 
L 3481 4991 
z
M 434 5247 
Q 816 5163 1020 5028 
Q 1225 4894 1292 4744 
Q 1359 4594 1320 4462 
Q 1281 4331 1173 4253 
Q 1066 4175 919 4183 
Q 772 4191 628 4319 
Q 622 4556 545 4800 
Q 469 5044 378 5216 
L 434 5247 
z
M 3041 4575 
Q 3041 4575 3148 4481 
Q 3256 4388 3404 4255 
Q 3553 4122 3669 4006 
Q 3650 3903 3500 3903 
L 2259 3903 
L 2259 3809 
Q 2684 3772 2929 3655 
Q 3175 3538 3275 3383 
Q 3375 3228 3358 3079 
Q 3341 2931 3239 2829 
Q 3138 2728 2980 2711 
Q 2822 2694 2644 2809 
Q 2594 3016 2486 3223 
Q 2378 3431 2259 3609 
L 2259 2706 
Q 2259 2678 2153 2629 
Q 2047 2581 1889 2542 
Q 1731 2503 1575 2503 
L 1563 2503 
L 2253 2259 
Q 2228 2213 2170 2178 
Q 2113 2144 1966 2156 
L 1844 1906 
L 2381 1906 
L 2816 2322 
L 3531 1703 
Q 3478 1625 3284 1600 
Q 3188 1366 3063 1152 
Q 2938 938 2778 750 
Q 3041 600 3109 423 
Q 3178 247 3112 98 
Q 3047 -50 2895 -122 
Q 2744 -194 2559 -134 
Q 2484 -53 2381 23 
Q 2278 100 2163 172 
Q 1406 -372 213 -588 
L 172 -506 
Q 647 -331 1020 -93 
Q 1394 144 1678 441 
Q 1369 584 1047 695 
Q 725 806 441 856 
Q 544 1013 667 1245 
Q 791 1478 916 1728 
L 288 1728 
L 231 1906 
L 997 1906 
Q 1200 2341 1294 2597 
L 1428 2553 
L 1428 3138 
Q 1172 2916 861 2733 
Q 550 2550 197 2400 
L 141 2484 
Q 478 2763 728 3136 
Q 978 3509 1131 3903 
L 244 3903 
L 191 4084 
L 1428 4084 
L 1428 5478 
L 2472 5381 
Q 2459 5325 2417 5283 
Q 2375 5241 2259 5222 
L 2259 4084 
L 2688 4084 
L 3041 4575 
z
M 2406 1728 
L 1747 1728 
Q 1656 1556 1557 1375 
Q 1459 1194 1363 1031 
Q 1772 1022 2081 972 
Q 2288 1313 2406 1728 
z
M 5075 5191 
Q 5056 5128 4997 5084 
Q 4938 5041 4825 5038 
Q 4759 4763 4684 4505 
Q 4609 4247 4519 4006 
L 5106 4006 
L 5556 4603 
Q 5556 4603 5636 4536 
Q 5716 4469 5842 4366 
Q 5969 4263 6106 4147 
Q 6244 4031 6356 3928 
Q 6328 3828 6169 3828 
L 5869 3828 
Q 5797 3063 5608 2377 
Q 5419 1691 5031 1119 
Q 5559 559 6322 219 
L 6303 153 
Q 5978 81 5787 -108 
Q 5597 -297 5509 -609 
Q 5197 -381 4958 -95 
Q 4719 191 4531 531 
Q 4156 166 3643 -120 
Q 3131 -406 2444 -603 
L 2413 -544 
Q 3059 -188 3506 254 
Q 3953 697 4238 1209 
Q 4113 1550 4027 1931 
Q 3941 2313 3878 2725 
Q 3753 2550 3617 2387 
Q 3481 2225 3328 2081 
L 3250 2125 
Q 3409 2563 3536 3116 
Q 3663 3669 3745 4272 
Q 3828 4875 3853 5459 
L 5075 5191 
z
M 4453 3828 
Q 4259 3350 4025 2956 
Q 4209 2316 4506 1813 
Q 4684 2278 4767 2784 
Q 4850 3291 4872 3828 
L 4453 3828 
z
" transform="scale(0.015625)"/>
      </defs>
      <use xlink:href="#SourceHanSerifCN-Heavy-51bb"/>
      <use xlink:href="#SourceHanSerifCN-Heavy-7ed3" x="100"/>
      <use xlink:href="#SourceHanSerifCN-Heavy-42" x="200"/>
      <use xlink:href="#SourceHanSerifCN-Heavy-45" x="272.705078"/>
      <use xlink:href="#SourceHanSerifCN-Heavy-52" x="340.087891"/>
      <use xlink:href="#SourceHanSerifCN-Heavy-54" x="417.089844"/>
      <use xlink:href="#SourceHanSerifCN-Heavy-28" x="488.476562"/>
      <use xlink:href="#SourceHanSerifCN-Heavy-42" x="530.273438"/>
      <use xlink:href="#SourceHanSerifCN-Heavy-41" x="602.978516"/>
      <use xlink:href="#SourceHanSerifCN-Heavy-53" x="679.101562"/>
      <use xlink:href="#SourceHanSerifCN-Heavy-45" x="740.283203"/>
      <use xlink:href="#SourceHanSerifCN-Heavy-29" x="807.666016"/>
      <use xlink:href="#SourceHanSerifCN-Heavy-53c2" x="849.462891"/>
      <use xlink:href="#SourceHanSerifCN-Heavy-6570" x="949.462891"/>
     </g>
    </g>
    <g id="line2d_17">
     <path d="M 554.351562 214.320937 
L 564.351562 214.320937 
L 574.351562 214.320937 
" style="fill: none; stroke: #386795; stroke-width: 1.5; stroke-linecap: square"/>
    </g>
    <g id="text_15">
     <!-- 冻结BERT(LARGE)参数 -->
     <g transform="translate(582.351562 217.820937) scale(0.1 -0.1)">
      <defs>
       <path id="SimSun-51bb" d="M 3875 2275 
Q 3875 2875 3850 3500 
L 4400 3225 
L 4225 3050 
L 4225 2275 
L 5025 2275 
L 5325 2575 
L 5750 2125 
L 4225 2125 
L 4225 0 
Q 4225 -450 3725 -625 
Q 3625 -275 2975 -100 
L 2975 0 
Q 3675 -75 3775 -50 
Q 3875 -25 3875 150 
L 3875 2125 
L 2625 2125 
L 2400 1950 
L 2075 2325 
Q 2275 2350 2512 2775 
Q 2750 3200 3075 3900 
L 2550 3900 
L 2325 3850 
L 2125 4050 
L 3125 4050 
Q 3375 4700 3525 5225 
L 4025 4900 
L 3825 4750 
L 3500 4050 
L 5200 4050 
L 5500 4350 
L 5925 3900 
L 3450 3900 
Q 3050 3100 2600 2275 
L 3875 2275 
z
M 2950 1775 
L 3425 1400 
Q 3200 1275 2700 725 
Q 2200 175 1600 -250 
L 1550 -175 
Q 2025 300 2387 800 
Q 2750 1300 2950 1775 
z
M 4625 1500 
L 4700 1575 
Q 5750 725 5787 387 
Q 5825 50 5725 -25 
Q 5625 -100 5575 -100 
Q 5475 -100 5400 125 
Q 5300 450 5125 762 
Q 4950 1075 4625 1500 
z
M 2175 4500 
Q 1450 2400 1325 2037 
Q 1200 1675 1175 1287 
Q 1150 900 1200 475 
Q 1225 50 1037 62 
Q 850 75 750 187 
Q 650 300 650 425 
Q 650 575 700 700 
Q 800 1000 825 1350 
Q 850 1700 250 1825 
L 250 1950 
Q 475 1900 650 1900 
Q 800 1900 950 1975 
Q 1100 2050 2050 4550 
L 2175 4500 
z
M 475 4825 
L 550 4900 
Q 1375 4350 1375 4087 
Q 1375 3825 1275 3750 
Q 1175 3675 1150 3675 
Q 1025 3675 925 4000 
Q 800 4425 475 4825 
z
" transform="scale(0.015625)"/>
       <path id="SimSun-7ed3" d="M 4050 3900 
Q 4050 4925 4025 5250 
L 4625 4925 
L 4375 4750 
L 4375 3900 
L 5300 3900 
L 5600 4200 
L 6025 3750 
L 4375 3750 
L 4375 2625 
L 5050 2625 
L 5350 2925 
L 5775 2475 
L 3650 2475 
Q 3325 2475 3050 2400 
L 2825 2625 
L 4050 2625 
L 4050 3750 
L 3425 3750 
Q 3100 3750 2825 3675 
L 2600 3900 
L 4050 3900 
z
M 3025 -600 
Q 3050 -50 3050 675 
Q 3050 1400 3025 1925 
L 3425 1700 
L 5125 1700 
L 5350 1925 
L 5700 1575 
L 5475 1425 
L 5475 400 
Q 5475 -150 5500 -375 
L 5150 -525 
L 5150 -25 
L 3375 -25 
L 3375 -425 
L 3025 -600 
z
M 3375 1550 
L 3375 125 
L 5150 125 
L 5150 1550 
L 3375 1550 
z
M 975 1550 
L 2700 1825 
L 2700 1725 
Q 2400 1650 1750 1462 
Q 1100 1275 800 1050 
L 525 1500 
Q 725 1575 900 1750 
Q 1075 1925 1725 2825 
Q 1425 2775 1150 2712 
Q 875 2650 625 2500 
L 400 2950 
Q 650 2950 987 3662 
Q 1325 4375 1525 5125 
L 2050 4850 
L 1825 4725 
Q 1300 3725 800 2950 
L 1800 2975 
Q 2100 3450 2275 3850 
L 2725 3525 
L 2500 3400 
Q 1800 2475 975 1550 
z
M 650 -250 
L 400 225 
Q 750 275 1237 387 
Q 1725 500 2750 800 
L 2775 700 
Q 925 -25 650 -250 
z
" transform="scale(0.015625)"/>
       <path id="TimesNewRomanPSMT-42" d="M 2956 2163 
Q 3397 2069 3616 1863 
Q 3919 1575 3919 1159 
Q 3919 844 3719 555 
Q 3519 266 3170 133 
Q 2822 0 2106 0 
L 106 0 
L 106 116 
L 266 116 
Q 531 116 647 284 
Q 719 394 719 750 
L 719 3488 
Q 719 3881 628 3984 
Q 506 4122 266 4122 
L 106 4122 
L 106 4238 
L 1938 4238 
Q 2450 4238 2759 4163 
Q 3228 4050 3475 3764 
Q 3722 3478 3722 3106 
Q 3722 2788 3528 2536 
Q 3334 2284 2956 2163 
z
M 1319 2331 
Q 1434 2309 1582 2298 
Q 1731 2288 1909 2288 
Q 2366 2288 2595 2386 
Q 2825 2484 2947 2687 
Q 3069 2891 3069 3131 
Q 3069 3503 2766 3765 
Q 2463 4028 1881 4028 
Q 1569 4028 1319 3959 
L 1319 2331 
z
M 1319 306 
Q 1681 222 2034 222 
Q 2600 222 2897 476 
Q 3194 731 3194 1106 
Q 3194 1353 3059 1581 
Q 2925 1809 2622 1940 
Q 2319 2072 1872 2072 
Q 1678 2072 1540 2065 
Q 1403 2059 1319 2044 
L 1319 306 
z
" transform="scale(0.015625)"/>
       <path id="TimesNewRomanPSMT-45" d="M 1338 4006 
L 1338 2331 
L 2269 2331 
Q 2631 2331 2753 2441 
Q 2916 2584 2934 2947 
L 3050 2947 
L 3050 1472 
L 2934 1472 
Q 2891 1781 2847 1869 
Q 2791 1978 2662 2040 
Q 2534 2103 2269 2103 
L 1338 2103 
L 1338 706 
Q 1338 425 1363 364 
Q 1388 303 1450 267 
Q 1513 231 1688 231 
L 2406 231 
Q 2766 231 2928 281 
Q 3091 331 3241 478 
Q 3434 672 3638 1063 
L 3763 1063 
L 3397 0 
L 131 0 
L 131 116 
L 281 116 
Q 431 116 566 188 
Q 666 238 702 338 
Q 738 438 738 747 
L 738 3500 
Q 738 3903 656 3997 
Q 544 4122 281 4122 
L 131 4122 
L 131 4238 
L 3397 4238 
L 3444 3309 
L 3322 3309 
Q 3256 3644 3176 3769 
Q 3097 3894 2941 3959 
Q 2816 4006 2500 4006 
L 1338 4006 
z
" transform="scale(0.015625)"/>
       <path id="TimesNewRomanPSMT-52" d="M 4325 0 
L 3194 0 
L 1759 1981 
Q 1600 1975 1500 1975 
Q 1459 1975 1412 1976 
Q 1366 1978 1316 1981 
L 1316 750 
Q 1316 350 1403 253 
Q 1522 116 1759 116 
L 1925 116 
L 1925 0 
L 109 0 
L 109 116 
L 269 116 
Q 538 116 653 291 
Q 719 388 719 750 
L 719 3488 
Q 719 3888 631 3984 
Q 509 4122 269 4122 
L 109 4122 
L 109 4238 
L 1653 4238 
Q 2328 4238 2648 4139 
Q 2969 4041 3192 3777 
Q 3416 3513 3416 3147 
Q 3416 2756 3161 2468 
Q 2906 2181 2372 2063 
L 3247 847 
Q 3547 428 3762 290 
Q 3978 153 4325 116 
L 4325 0 
z
M 1316 2178 
Q 1375 2178 1419 2176 
Q 1463 2175 1491 2175 
Q 2097 2175 2405 2437 
Q 2713 2700 2713 3106 
Q 2713 3503 2464 3751 
Q 2216 4000 1806 4000 
Q 1625 4000 1316 3941 
L 1316 2178 
z
" transform="scale(0.015625)"/>
       <path id="TimesNewRomanPSMT-54" d="M 3703 4238 
L 3750 3244 
L 3631 3244 
Q 3597 3506 3538 3619 
Q 3441 3800 3280 3886 
Q 3119 3972 2856 3972 
L 2259 3972 
L 2259 734 
Q 2259 344 2344 247 
Q 2463 116 2709 116 
L 2856 116 
L 2856 0 
L 1059 0 
L 1059 116 
L 1209 116 
Q 1478 116 1591 278 
Q 1659 378 1659 734 
L 1659 3972 
L 1150 3972 
Q 853 3972 728 3928 
Q 566 3869 450 3700 
Q 334 3531 313 3244 
L 194 3244 
L 244 4238 
L 3703 4238 
z
" transform="scale(0.015625)"/>
       <path id="TimesNewRomanPSMT-28" d="M 1988 -1253 
L 1988 -1369 
Q 1516 -1131 1200 -813 
Q 750 -359 506 256 
Q 263 872 263 1534 
Q 263 2503 741 3301 
Q 1219 4100 1988 4444 
L 1988 4313 
Q 1603 4100 1356 3731 
Q 1109 3363 987 2797 
Q 866 2231 866 1616 
Q 866 947 969 400 
Q 1050 -31 1165 -292 
Q 1281 -553 1476 -793 
Q 1672 -1034 1988 -1253 
z
" transform="scale(0.015625)"/>
       <path id="TimesNewRomanPSMT-4c" d="M 3669 1172 
L 3772 1150 
L 3409 0 
L 128 0 
L 128 116 
L 288 116 
Q 556 116 672 291 
Q 738 391 738 753 
L 738 3488 
Q 738 3884 650 3984 
Q 528 4122 288 4122 
L 128 4122 
L 128 4238 
L 2047 4238 
L 2047 4122 
Q 1709 4125 1573 4059 
Q 1438 3994 1388 3894 
Q 1338 3794 1338 3416 
L 1338 753 
Q 1338 494 1388 397 
Q 1425 331 1503 300 
Q 1581 269 1991 269 
L 2300 269 
Q 2788 269 2984 341 
Q 3181 413 3343 595 
Q 3506 778 3669 1172 
z
" transform="scale(0.015625)"/>
       <path id="TimesNewRomanPSMT-41" d="M 2928 1419 
L 1288 1419 
L 1000 750 
Q 894 503 894 381 
Q 894 284 986 211 
Q 1078 138 1384 116 
L 1384 0 
L 50 0 
L 50 116 
Q 316 163 394 238 
Q 553 388 747 847 
L 2238 4334 
L 2347 4334 
L 3822 809 
Q 4000 384 4145 257 
Q 4291 131 4550 116 
L 4550 0 
L 2878 0 
L 2878 116 
Q 3131 128 3220 200 
Q 3309 272 3309 375 
Q 3309 513 3184 809 
L 2928 1419 
z
M 2841 1650 
L 2122 3363 
L 1384 1650 
L 2841 1650 
z
" transform="scale(0.015625)"/>
       <path id="TimesNewRomanPSMT-47" d="M 3928 4334 
L 4038 2997 
L 3928 2997 
Q 3763 3497 3500 3750 
Q 3122 4116 2528 4116 
Q 1719 4116 1297 3475 
Q 944 2934 944 2188 
Q 944 1581 1178 1081 
Q 1413 581 1792 348 
Q 2172 116 2572 116 
Q 2806 116 3025 175 
Q 3244 234 3447 350 
L 3447 1575 
Q 3447 1894 3398 1992 
Q 3350 2091 3248 2142 
Q 3147 2194 2891 2194 
L 2891 2313 
L 4531 2313 
L 4531 2194 
L 4453 2194 
Q 4209 2194 4119 2031 
Q 4056 1916 4056 1575 
L 4056 278 
Q 3697 84 3347 -6 
Q 2997 -97 2569 -97 
Q 1341 -97 703 691 
Q 225 1281 225 2053 
Q 225 2613 494 3125 
Q 813 3734 1369 4063 
Q 1834 4334 2469 4334 
Q 2700 4334 2889 4296 
Q 3078 4259 3425 4131 
Q 3600 4066 3659 4066 
Q 3719 4066 3761 4120 
Q 3803 4175 3813 4334 
L 3928 4334 
z
" transform="scale(0.015625)"/>
       <path id="TimesNewRomanPSMT-29" d="M 144 4313 
L 144 4444 
Q 619 4209 934 3891 
Q 1381 3434 1625 2820 
Q 1869 2206 1869 1541 
Q 1869 572 1392 -226 
Q 916 -1025 144 -1369 
L 144 -1253 
Q 528 -1038 776 -670 
Q 1025 -303 1145 264 
Q 1266 831 1266 1447 
Q 1266 2113 1163 2663 
Q 1084 3094 967 3353 
Q 850 3613 656 3853 
Q 463 4094 144 4313 
z
" transform="scale(0.015625)"/>
       <path id="SimSun-53c2" d="M 4700 3900 
Q 3500 3825 3125 3800 
Q 2925 3475 2725 3150 
L 5300 3150 
L 5625 3475 
L 6075 3000 
L 3750 3000 
Q 4325 2400 4950 2150 
Q 5575 1900 6100 1825 
L 6100 1750 
Q 5750 1675 5600 1450 
Q 5025 1675 4487 2062 
Q 3950 2450 3625 3000 
L 2675 3000 
Q 2250 2450 1750 2050 
Q 1250 1650 325 1225 
L 300 1325 
Q 1200 1850 1625 2262 
Q 2050 2675 2275 3000 
L 800 3000 
L 575 2950 
L 375 3150 
L 2350 3150 
Q 2450 3300 2675 3775 
Q 1650 3725 1325 3575 
L 1150 4025 
Q 1550 4050 2125 4487 
Q 2700 4925 2925 5225 
L 3300 4825 
L 3000 4750 
Q 1925 4125 1575 3975 
L 4625 4000 
Q 4300 4300 3850 4550 
L 3900 4650 
Q 4700 4375 5000 4175 
Q 5300 3975 5300 3775 
Q 5300 3725 5250 3587 
Q 5200 3450 5125 3450 
Q 5075 3450 5025 3525 
Q 4900 3700 4700 3900 
z
M 3250 2700 
L 3650 2300 
L 3450 2250 
Q 2125 1300 1075 1025 
L 1050 1125 
Q 1850 1450 2412 1875 
Q 2975 2300 3250 2700 
z
M 3950 1950 
L 4350 1550 
L 4075 1500 
Q 2425 425 1100 225 
L 1075 325 
Q 2250 675 2875 1075 
Q 3500 1475 3950 1950 
z
M 4800 1250 
L 5175 825 
L 4925 775 
Q 3475 -75 2587 -287 
Q 1700 -500 650 -550 
L 650 -450 
Q 2050 -300 3137 187 
Q 4225 675 4800 1250 
z
" transform="scale(0.015625)"/>
       <path id="SimSun-6570" d="M 1875 1525 
Q 1675 1200 1500 900 
Q 1825 825 2275 725 
Q 2500 975 2725 1525 
L 1875 1525 
z
M 850 4900 
Q 1325 4600 1425 4450 
Q 1525 4300 1525 4225 
Q 1525 4100 1437 3975 
Q 1350 3850 1300 3850 
Q 1225 3850 1150 4100 
Q 1050 4450 775 4850 
L 850 4900 
z
M 3000 4975 
L 3450 4675 
Q 3250 4625 3100 4425 
Q 2925 4225 2525 3825 
L 2450 3875 
Q 2925 4625 3000 4975 
z
M 1875 5250 
L 2425 5000 
L 2225 4825 
L 2225 3675 
L 2850 3675 
L 3125 3950 
L 3550 3525 
L 2225 3525 
L 2225 3300 
Q 2800 3175 2937 3062 
Q 3075 2950 3075 2775 
Q 3075 2700 3050 2587 
Q 3025 2475 2975 2475 
Q 2925 2475 2800 2650 
Q 2600 2925 2225 3175 
L 2225 2400 
L 1925 2200 
L 2275 2050 
Q 2150 2000 1950 1675 
L 2725 1675 
L 2900 1900 
L 3275 1575 
L 3050 1450 
Q 2800 875 2600 650 
Q 3000 550 3137 437 
Q 3275 325 3275 150 
Q 3275 -25 3200 -25 
Q 3125 -25 3025 75 
Q 2750 275 2400 425 
Q 1525 -275 325 -500 
L 300 -425 
Q 1450 -50 2100 550 
Q 1600 725 1125 800 
Q 1225 950 1525 1525 
L 1200 1525 
Q 875 1525 600 1450 
L 375 1675 
L 1575 1675 
Q 1675 1925 1775 2275 
L 1900 2225 
L 1900 3250 
Q 1225 2475 350 2050 
L 300 2125 
Q 1225 2775 1700 3525 
L 1250 3525 
Q 925 3525 650 3450 
L 425 3675 
L 1900 3675 
Q 1900 4575 1875 5250 
z
M 3925 3525 
Q 4050 2075 4525 1100 
Q 4925 1950 5025 3525 
L 3925 3525 
z
M 4050 5250 
L 4625 4925 
Q 4425 4850 4325 4625 
Q 4225 4400 3950 3675 
L 5375 3675 
L 5675 3975 
L 6125 3525 
L 5400 3525 
Q 5250 1675 4750 775 
Q 5325 75 6100 -100 
L 6100 -200 
Q 5625 -275 5600 -500 
Q 4950 -50 4525 525 
Q 3700 -275 2550 -650 
L 2500 -575 
Q 3650 -50 4325 800 
Q 3850 1975 3825 3375 
Q 3575 2725 3100 2150 
L 3025 2200 
Q 3625 3200 4050 5250 
z
" transform="scale(0.015625)"/>
      </defs>
      <use xlink:href="#SimSun-51bb"/>
      <use xlink:href="#SimSun-7ed3" x="100"/>
      <use xlink:href="#TimesNewRomanPSMT-42" x="200"/>
      <use xlink:href="#TimesNewRomanPSMT-45" x="266.699219"/>
      <use xlink:href="#TimesNewRomanPSMT-52" x="327.783203"/>
      <use xlink:href="#TimesNewRomanPSMT-54" x="388.482422"/>
      <use xlink:href="#TimesNewRomanPSMT-28" x="449.566406"/>
      <use xlink:href="#TimesNewRomanPSMT-4c" x="482.867188"/>
      <use xlink:href="#TimesNewRomanPSMT-41" x="543.951172"/>
      <use xlink:href="#TimesNewRomanPSMT-52" x="616.167969"/>
      <use xlink:href="#TimesNewRomanPSMT-47" x="682.867188"/>
      <use xlink:href="#TimesNewRomanPSMT-45" x="755.083984"/>
      <use xlink:href="#TimesNewRomanPSMT-29" x="816.167969"/>
      <use xlink:href="#SimSun-53c2" x="849.46875"/>
      <use xlink:href="#SimSun-6570" x="949.46875"/>
     </g>
    </g>
   </g>
  </g>
 </g>
 <defs>
  <clipPath id="pc45f12f50c">
   <rect x="26.7" y="7.2" width="669.6" height="221.76"/>
  </clipPath>
 </defs>
</svg>
