<?xml version="1.0" encoding="utf-8" standalone="no"?>
<!DOCTYPE svg PUBLIC "-//W3C//DTD SVG 1.1//EN"
  "http://www.w3.org/Graphics/SVG/1.1/DTD/svg11.dtd">
<svg xmlns:xlink="http://www.w3.org/1999/xlink" width="708.5pt" height="252.242812pt" viewBox="0 0 708.5 252.242812" xmlns="http://www.w3.org/2000/svg" version="1.1">
 <metadata>
  <rdf:RDF xmlns:dc="http://purl.org/dc/elements/1.1/" xmlns:cc="http://creativecommons.org/ns#" xmlns:rdf="http://www.w3.org/1999/02/22-rdf-syntax-ns#">
   <cc:Work>
    <dc:type rdf:resource="http://purl.org/dc/dcmitype/StillImage"/>
    <dc:date>2024-01-10T15:36:27.109725</dc:date>
    <dc:format>image/svg+xml</dc:format>
    <dc:creator>
     <cc:Agent>
      <dc:title>Matplotlib v3.8.2, https://matplotlib.org/</dc:title>
     </cc:Agent>
    </dc:creator>
   </cc:Work>
  </rdf:RDF>
 </metadata>
 <defs>
  <style type="text/css">*{stroke-linejoin: round; stroke-linecap: butt}</style>
 </defs>
 <g id="figure_1">
  <g id="patch_1">
   <path d="M 0 252.242812 
L 708.5 252.242812 
L 708.5 0 
L 0 0 
z
" style="fill: #ffffff"/>
  </g>
  <g id="axes_1">
   <g id="patch_2">
    <path d="M 31.7 228.96 
L 701.3 228.96 
L 701.3 7.2 
L 31.7 7.2 
z
" style="fill: #ffffff"/>
   </g>
   <g id="PathCollection_1">
    <defs>
     <path id="md04f96de4d" d="M 0 3 
C 0.795609 3 1.55874 2.683901 2.12132 2.12132 
C 2.683901 1.55874 3 0.795609 3 0 
C 3 -0.795609 2.683901 -1.55874 2.12132 -2.12132 
C 1.55874 -2.683901 0.795609 -3 0 -3 
C -0.795609 -3 -1.55874 -2.683901 -2.12132 -2.12132 
C -2.683901 -1.55874 -3 -0.795609 -3 0 
C -3 0.795609 -2.683901 1.55874 -2.12132 2.12132 
C -1.55874 2.683901 -0.795609 3 0 3 
z
" style="stroke: #e86254; stroke-opacity: 0.5"/>
    </defs>
    <g clip-path="url(#p9554a71088)">
     <use xlink:href="#md04f96de4d" x="137.056643" y="17.28" style="fill: #e86254; fill-opacity: 0.5; stroke: #e86254; stroke-opacity: 0.5"/>
    </g>
   </g>
   <g id="PathCollection_2">
    <defs>
     <path id="m5d2339c4af" d="M 0 3 
C 0.795609 3 1.55874 2.683901 2.12132 2.12132 
C 2.683901 1.55874 3 0.795609 3 0 
C 3 -0.795609 2.683901 -1.55874 2.12132 -2.12132 
C 1.55874 -2.683901 0.795609 -3 0 -3 
C -0.795609 -3 -1.55874 -2.683901 -2.12132 -2.12132 
C -2.683901 -1.55874 -3 -0.795609 -3 0 
C -3 0.795609 -2.683901 1.55874 -2.12132 2.12132 
C -1.55874 2.683901 -0.795609 3 0 3 
z
" style="stroke: #386795; stroke-opacity: 0.5"/>
    </defs>
    <g clip-path="url(#p9554a71088)">
     <use xlink:href="#m5d2339c4af" x="132.374126" y="26.267604" style="fill: #386795; fill-opacity: 0.5; stroke: #386795; stroke-opacity: 0.5"/>
    </g>
   </g>
   <g id="matplotlib.axis_1">
    <g id="xtick_1">
     <g id="line2d_1">
      <defs>
       <path id="m36fb6f0221" d="M 0 0 
L 0 3.5 
" style="stroke: #000000; stroke-width: 0.8"/>
      </defs>
      <g>
       <use xlink:href="#m36fb6f0221" x="62.136364" y="228.96" style="stroke: #000000; stroke-width: 0.8"/>
      </g>
     </g>
     <g id="text_1">
      <!-- 0 -->
      <g transform="translate(59.636364 242.90375) scale(0.1 -0.1)">
       <defs>
        <path id="TimesNewRomanPSMT-30" d="M 231 2094 
Q 231 2819 450 3342 
Q 669 3866 1031 4122 
Q 1313 4325 1613 4325 
Q 2100 4325 2488 3828 
Q 2972 3213 2972 2159 
Q 2972 1422 2759 906 
Q 2547 391 2217 158 
Q 1888 -75 1581 -75 
Q 975 -75 572 641 
Q 231 1244 231 2094 
z
M 844 2016 
Q 844 1141 1059 588 
Q 1238 122 1591 122 
Q 1759 122 1940 273 
Q 2122 425 2216 781 
Q 2359 1319 2359 2297 
Q 2359 3022 2209 3506 
Q 2097 3866 1919 4016 
Q 1791 4119 1609 4119 
Q 1397 4119 1231 3928 
Q 1006 3669 925 3112 
Q 844 2556 844 2016 
z
" transform="scale(0.015625)"/>
       </defs>
       <use xlink:href="#TimesNewRomanPSMT-30"/>
      </g>
     </g>
    </g>
    <g id="xtick_2">
     <g id="line2d_2">
      <g>
       <use xlink:href="#m36fb6f0221" x="155.786713" y="228.96" style="stroke: #000000; stroke-width: 0.8"/>
      </g>
     </g>
     <g id="text_2">
      <!-- 200 -->
      <g transform="translate(148.286713 242.90375) scale(0.1 -0.1)">
       <defs>
        <path id="TimesNewRomanPSMT-32" d="M 2934 816 
L 2638 0 
L 138 0 
L 138 116 
Q 1241 1122 1691 1759 
Q 2141 2397 2141 2925 
Q 2141 3328 1894 3587 
Q 1647 3847 1303 3847 
Q 991 3847 742 3664 
Q 494 3481 375 3128 
L 259 3128 
Q 338 3706 661 4015 
Q 984 4325 1469 4325 
Q 1984 4325 2329 3994 
Q 2675 3663 2675 3213 
Q 2675 2891 2525 2569 
Q 2294 2063 1775 1497 
Q 997 647 803 472 
L 1909 472 
Q 2247 472 2383 497 
Q 2519 522 2628 598 
Q 2738 675 2819 816 
L 2934 816 
z
" transform="scale(0.015625)"/>
       </defs>
       <use xlink:href="#TimesNewRomanPSMT-32"/>
       <use xlink:href="#TimesNewRomanPSMT-30" x="50"/>
       <use xlink:href="#TimesNewRomanPSMT-30" x="100"/>
      </g>
     </g>
    </g>
    <g id="xtick_3">
     <g id="line2d_3">
      <g>
       <use xlink:href="#m36fb6f0221" x="249.437063" y="228.96" style="stroke: #000000; stroke-width: 0.8"/>
      </g>
     </g>
     <g id="text_3">
      <!-- 400 -->
      <g transform="translate(241.937063 242.90375) scale(0.1 -0.1)">
       <defs>
        <path id="TimesNewRomanPSMT-34" d="M 2978 1563 
L 2978 1119 
L 2409 1119 
L 2409 0 
L 1894 0 
L 1894 1119 
L 100 1119 
L 100 1519 
L 2066 4325 
L 2409 4325 
L 2409 1563 
L 2978 1563 
z
M 1894 1563 
L 1894 3666 
L 406 1563 
L 1894 1563 
z
" transform="scale(0.015625)"/>
       </defs>
       <use xlink:href="#TimesNewRomanPSMT-34"/>
       <use xlink:href="#TimesNewRomanPSMT-30" x="50"/>
       <use xlink:href="#TimesNewRomanPSMT-30" x="100"/>
      </g>
     </g>
    </g>
    <g id="xtick_4">
     <g id="line2d_4">
      <g>
       <use xlink:href="#m36fb6f0221" x="343.087413" y="228.96" style="stroke: #000000; stroke-width: 0.8"/>
      </g>
     </g>
     <g id="text_4">
      <!-- 600 -->
      <g transform="translate(335.587413 242.90375) scale(0.1 -0.1)">
       <defs>
        <path id="TimesNewRomanPSMT-36" d="M 2869 4325 
L 2869 4209 
Q 2456 4169 2195 4045 
Q 1934 3922 1679 3669 
Q 1425 3416 1258 3105 
Q 1091 2794 978 2366 
Q 1428 2675 1881 2675 
Q 2316 2675 2634 2325 
Q 2953 1975 2953 1425 
Q 2953 894 2631 456 
Q 2244 -75 1606 -75 
Q 1172 -75 869 213 
Q 275 772 275 1663 
Q 275 2231 503 2743 
Q 731 3256 1154 3653 
Q 1578 4050 1965 4187 
Q 2353 4325 2688 4325 
L 2869 4325 
z
M 925 2138 
Q 869 1716 869 1456 
Q 869 1156 980 804 
Q 1091 453 1309 247 
Q 1469 100 1697 100 
Q 1969 100 2183 356 
Q 2397 613 2397 1088 
Q 2397 1622 2184 2012 
Q 1972 2403 1581 2403 
Q 1463 2403 1327 2353 
Q 1191 2303 925 2138 
z
" transform="scale(0.015625)"/>
       </defs>
       <use xlink:href="#TimesNewRomanPSMT-36"/>
       <use xlink:href="#TimesNewRomanPSMT-30" x="50"/>
       <use xlink:href="#TimesNewRomanPSMT-30" x="100"/>
      </g>
     </g>
    </g>
    <g id="xtick_5">
     <g id="line2d_5">
      <g>
       <use xlink:href="#m36fb6f0221" x="436.737762" y="228.96" style="stroke: #000000; stroke-width: 0.8"/>
      </g>
     </g>
     <g id="text_5">
      <!-- 800 -->
      <g transform="translate(429.237762 242.90375) scale(0.1 -0.1)">
       <defs>
        <path id="TimesNewRomanPSMT-38" d="M 1228 2134 
Q 725 2547 579 2797 
Q 434 3047 434 3316 
Q 434 3728 753 4026 
Q 1072 4325 1600 4325 
Q 2113 4325 2425 4047 
Q 2738 3769 2738 3413 
Q 2738 3175 2569 2928 
Q 2400 2681 1866 2347 
Q 2416 1922 2594 1678 
Q 2831 1359 2831 1006 
Q 2831 559 2490 242 
Q 2150 -75 1597 -75 
Q 994 -75 656 303 
Q 388 606 388 966 
Q 388 1247 577 1523 
Q 766 1800 1228 2134 
z
M 1719 2469 
Q 2094 2806 2194 3001 
Q 2294 3197 2294 3444 
Q 2294 3772 2109 3958 
Q 1925 4144 1606 4144 
Q 1288 4144 1088 3959 
Q 888 3775 888 3528 
Q 888 3366 970 3203 
Q 1053 3041 1206 2894 
L 1719 2469 
z
M 1375 2016 
Q 1116 1797 991 1539 
Q 866 1281 866 981 
Q 866 578 1086 336 
Q 1306 94 1647 94 
Q 1984 94 2187 284 
Q 2391 475 2391 747 
Q 2391 972 2272 1150 
Q 2050 1481 1375 2016 
z
" transform="scale(0.015625)"/>
       </defs>
       <use xlink:href="#TimesNewRomanPSMT-38"/>
       <use xlink:href="#TimesNewRomanPSMT-30" x="50"/>
       <use xlink:href="#TimesNewRomanPSMT-30" x="100"/>
      </g>
     </g>
    </g>
    <g id="xtick_6">
     <g id="line2d_6">
      <g>
       <use xlink:href="#m36fb6f0221" x="530.388112" y="228.96" style="stroke: #000000; stroke-width: 0.8"/>
      </g>
     </g>
     <g id="text_6">
      <!-- 1000 -->
      <g transform="translate(520.388112 242.90375) scale(0.1 -0.1)">
       <defs>
        <path id="TimesNewRomanPSMT-31" d="M 750 3822 
L 1781 4325 
L 1884 4325 
L 1884 747 
Q 1884 391 1914 303 
Q 1944 216 2037 169 
Q 2131 122 2419 116 
L 2419 0 
L 825 0 
L 825 116 
Q 1125 122 1212 167 
Q 1300 213 1334 289 
Q 1369 366 1369 747 
L 1369 3034 
Q 1369 3497 1338 3628 
Q 1316 3728 1258 3775 
Q 1200 3822 1119 3822 
Q 1003 3822 797 3725 
L 750 3822 
z
" transform="scale(0.015625)"/>
       </defs>
       <use xlink:href="#TimesNewRomanPSMT-31"/>
       <use xlink:href="#TimesNewRomanPSMT-30" x="50"/>
       <use xlink:href="#TimesNewRomanPSMT-30" x="100"/>
       <use xlink:href="#TimesNewRomanPSMT-30" x="150"/>
      </g>
     </g>
    </g>
    <g id="xtick_7">
     <g id="line2d_7">
      <g>
       <use xlink:href="#m36fb6f0221" x="624.038462" y="228.96" style="stroke: #000000; stroke-width: 0.8"/>
      </g>
     </g>
     <g id="text_7">
      <!-- 1200 -->
      <g transform="translate(614.038462 242.90375) scale(0.1 -0.1)">
       <use xlink:href="#TimesNewRomanPSMT-31"/>
       <use xlink:href="#TimesNewRomanPSMT-32" x="50"/>
       <use xlink:href="#TimesNewRomanPSMT-30" x="100"/>
       <use xlink:href="#TimesNewRomanPSMT-30" x="150"/>
      </g>
     </g>
    </g>
   </g>
   <g id="matplotlib.axis_2">
    <g id="ytick_1">
     <g id="line2d_8">
      <defs>
       <path id="m5c9a4eb1cd" d="M 0 0 
L -3.5 0 
" style="stroke: #000000; stroke-width: 0.8"/>
      </defs>
      <g>
       <use xlink:href="#m5c9a4eb1cd" x="31.7" y="207.481087" style="stroke: #000000; stroke-width: 0.8"/>
      </g>
     </g>
     <g id="text_8">
      <!-- 0.40 -->
      <g transform="translate(7.2 210.952962) scale(0.1 -0.1)">
       <defs>
        <path id="TimesNewRomanPSMT-2e" d="M 800 606 
Q 947 606 1047 504 
Q 1147 403 1147 259 
Q 1147 116 1045 14 
Q 944 -88 800 -88 
Q 656 -88 554 14 
Q 453 116 453 259 
Q 453 406 554 506 
Q 656 606 800 606 
z
" transform="scale(0.015625)"/>
       </defs>
       <use xlink:href="#TimesNewRomanPSMT-30"/>
       <use xlink:href="#TimesNewRomanPSMT-2e" x="50"/>
       <use xlink:href="#TimesNewRomanPSMT-34" x="75"/>
       <use xlink:href="#TimesNewRomanPSMT-30" x="125"/>
      </g>
     </g>
    </g>
    <g id="ytick_2">
     <g id="line2d_9">
      <g>
       <use xlink:href="#m5c9a4eb1cd" x="31.7" y="170.946111" style="stroke: #000000; stroke-width: 0.8"/>
      </g>
     </g>
     <g id="text_9">
      <!-- 0.45 -->
      <g transform="translate(7.2 174.417986) scale(0.1 -0.1)">
       <defs>
        <path id="TimesNewRomanPSMT-35" d="M 2778 4238 
L 2534 3706 
L 1259 3706 
L 981 3138 
Q 1809 3016 2294 2522 
Q 2709 2097 2709 1522 
Q 2709 1188 2573 903 
Q 2438 619 2231 419 
Q 2025 219 1772 97 
Q 1413 -75 1034 -75 
Q 653 -75 479 54 
Q 306 184 306 341 
Q 306 428 378 495 
Q 450 563 559 563 
Q 641 563 702 538 
Q 763 513 909 409 
Q 1144 247 1384 247 
Q 1750 247 2026 523 
Q 2303 800 2303 1197 
Q 2303 1581 2056 1914 
Q 1809 2247 1375 2428 
Q 1034 2569 447 2591 
L 1259 4238 
L 2778 4238 
z
" transform="scale(0.015625)"/>
       </defs>
       <use xlink:href="#TimesNewRomanPSMT-30"/>
       <use xlink:href="#TimesNewRomanPSMT-2e" x="50"/>
       <use xlink:href="#TimesNewRomanPSMT-34" x="75"/>
       <use xlink:href="#TimesNewRomanPSMT-35" x="125"/>
      </g>
     </g>
    </g>
    <g id="ytick_3">
     <g id="line2d_10">
      <g>
       <use xlink:href="#m5c9a4eb1cd" x="31.7" y="134.411134" style="stroke: #000000; stroke-width: 0.8"/>
      </g>
     </g>
     <g id="text_10">
      <!-- 0.50 -->
      <g transform="translate(7.2 137.883009) scale(0.1 -0.1)">
       <use xlink:href="#TimesNewRomanPSMT-30"/>
       <use xlink:href="#TimesNewRomanPSMT-2e" x="50"/>
       <use xlink:href="#TimesNewRomanPSMT-35" x="75"/>
       <use xlink:href="#TimesNewRomanPSMT-30" x="125"/>
      </g>
     </g>
    </g>
    <g id="ytick_4">
     <g id="line2d_11">
      <g>
       <use xlink:href="#m5c9a4eb1cd" x="31.7" y="97.876158" style="stroke: #000000; stroke-width: 0.8"/>
      </g>
     </g>
     <g id="text_11">
      <!-- 0.55 -->
      <g transform="translate(7.2 101.348033) scale(0.1 -0.1)">
       <use xlink:href="#TimesNewRomanPSMT-30"/>
       <use xlink:href="#TimesNewRomanPSMT-2e" x="50"/>
       <use xlink:href="#TimesNewRomanPSMT-35" x="75"/>
       <use xlink:href="#TimesNewRomanPSMT-35" x="125"/>
      </g>
     </g>
    </g>
    <g id="ytick_5">
     <g id="line2d_12">
      <g>
       <use xlink:href="#m5c9a4eb1cd" x="31.7" y="61.341182" style="stroke: #000000; stroke-width: 0.8"/>
      </g>
     </g>
     <g id="text_12">
      <!-- 0.60 -->
      <g transform="translate(7.2 64.813057) scale(0.1 -0.1)">
       <use xlink:href="#TimesNewRomanPSMT-30"/>
       <use xlink:href="#TimesNewRomanPSMT-2e" x="50"/>
       <use xlink:href="#TimesNewRomanPSMT-36" x="75"/>
       <use xlink:href="#TimesNewRomanPSMT-30" x="125"/>
      </g>
     </g>
    </g>
    <g id="ytick_6">
     <g id="line2d_13">
      <g>
       <use xlink:href="#m5c9a4eb1cd" x="31.7" y="24.806205" style="stroke: #000000; stroke-width: 0.8"/>
      </g>
     </g>
     <g id="text_13">
      <!-- 0.65 -->
      <g transform="translate(7.2 28.27808) scale(0.1 -0.1)">
       <use xlink:href="#TimesNewRomanPSMT-30"/>
       <use xlink:href="#TimesNewRomanPSMT-2e" x="50"/>
       <use xlink:href="#TimesNewRomanPSMT-36" x="75"/>
       <use xlink:href="#TimesNewRomanPSMT-35" x="125"/>
      </g>
     </g>
    </g>
   </g>
   <g id="line2d_14">
    <path d="M 62.136364 218.88 
L 62.604615 211.573005 
L 63.072867 198.493483 
L 63.541119 176.426357 
L 64.009371 170.726901 
L 64.477622 154.432302 
L 64.945874 157.647379 
L 65.414126 144.640928 
L 65.882378 149.536615 
L 66.350629 143.764088 
L 66.818881 137.260863 
L 67.287133 131.561406 
L 67.755385 120.966263 
L 68.223636 113.586198 
L 68.691888 113.586198 
L 69.16014 116.874346 
L 69.628392 104.598594 
L 70.096643 103.794824 
L 70.564895 98.899137 
L 71.033147 101.310446 
L 71.501399 98.095368 
L 71.96965 99.702907 
L 72.437902 83.408307 
L 72.906154 94.003451 
L 73.374406 85.819616 
L 73.842657 76.832012 
L 74.310909 80.120159 
L 74.779161 72.740094 
L 75.247413 83.408307 
L 75.715664 83.408307 
L 76.183916 72.740094 
L 76.652168 69.525016 
L 77.12042 70.328786 
L 77.588671 67.844407 
L 78.056923 64.629329 
L 78.525175 64.629329 
L 78.993427 62.144951 
L 79.461678 62.144951 
L 79.92993 62.948721 
L 80.398182 56.445495 
L 80.866434 56.445495 
L 81.334685 58.856803 
L 81.802937 60.537412 
L 82.271189 52.353577 
L 82.739441 60.537412 
L 83.207692 53.157347 
L 83.675944 53.961116 
L 84.144196 51.549808 
L 84.612448 55.641725 
L 85.080699 46.654121 
L 85.548951 47.457891 
L 87.89021 39.274056 
L 90.231469 45.046582 
L 92.572727 43.365973 
L 94.913986 37.666517 
L 97.255245 34.378369 
L 99.596503 33.574599 
L 101.937762 31.967061 
L 104.279021 31.967061 
L 106.62028 32.77083 
L 108.961538 33.574599 
L 111.302797 26.267604 
L 113.644056 27.071374 
L 115.985315 30.286452 
L 118.326573 24.586995 
L 120.667832 26.267604 
L 123.009091 25.390765 
L 125.35035 25.390765 
L 127.691608 25.390765 
L 130.032867 18.083769 
L 132.374126 22.175687 
L 134.715385 21.371917 
L 137.056643 17.28 
L 139.397902 23.783226 
L 141.739161 22.979456 
L 144.08042 19.691308 
L 146.421678 22.979456 
L 148.762937 24.586995 
L 151.104196 22.175687 
L 153.445455 22.979456 
L 155.786713 20.495078 
L 202.611888 20.495078 
L 249.437063 22.979456 
L 296.262238 22.175687 
L 343.087413 19.691308 
L 389.912587 22.979456 
L 436.737762 23.783226 
L 483.562937 21.371917 
L 530.388112 20.495078 
L 577.213287 24.586995 
L 624.038462 25.390765 
L 670.863636 23.783226 
" clip-path="url(#p9554a71088)" style="fill: none; stroke: #e86254; stroke-width: 1.5; stroke-linecap: square"/>
   </g>
   <g id="LineCollection_1">
    <path d="M 62.136364 37.008887 
L 670.863636 37.008887 
" clip-path="url(#p9554a71088)" style="fill: none; stroke-dasharray: 1.5,2.475; stroke-dashoffset: 0; stroke: #e86254; stroke-opacity: 0.5; stroke-width: 1.5"/>
   </g>
   <g id="line2d_15">
    <path d="M 62.136364 200.977862 
L 62.604615 195.205335 
L 63.072867 181.322044 
L 63.541119 178.910736 
L 64.009371 165.831214 
L 64.477622 154.432302 
L 64.945874 146.248467 
L 65.414126 138.868402 
L 65.882378 131.561406 
L 66.350629 126.665719 
L 66.818881 116.070576 
L 67.287133 101.310446 
L 67.755385 96.414759 
L 68.223636 89.107764 
L 68.691888 84.212077 
L 69.16014 77.635781 
L 69.628392 73.616934 
L 70.096643 68.721247 
L 70.564895 66.236868 
L 71.033147 66.236868 
L 71.501399 60.537412 
L 71.96965 61.341182 
L 72.437902 55.641725 
L 72.906154 51.549808 
L 73.374406 53.961116 
L 73.842657 47.457891 
L 74.310909 45.850352 
L 74.779161 46.654121 
L 75.247413 49.06543 
L 75.715664 49.942269 
L 76.183916 49.06543 
L 76.652168 45.850352 
L 77.12042 45.850352 
L 77.588671 45.046582 
L 78.056923 42.562204 
L 78.525175 40.077825 
L 78.993427 44.169743 
L 79.461678 38.470286 
L 79.92993 44.169743 
L 80.398182 38.470286 
L 80.866434 39.274056 
L 81.334685 36.058978 
L 81.802937 36.862747 
L 82.271189 32.77083 
L 82.739441 36.058978 
L 83.207692 35.182138 
L 83.675944 35.182138 
L 84.144196 36.058978 
L 84.612448 36.862747 
L 85.080699 36.862747 
L 85.548951 33.574599 
L 87.89021 39.274056 
L 90.231469 34.378369 
L 92.572727 34.378369 
L 94.913986 32.77083 
L 97.255245 32.77083 
L 99.596503 30.286452 
L 101.937762 28.678913 
L 104.279021 29.482682 
L 106.62028 36.058978 
L 108.961538 33.574599 
L 111.302797 35.182138 
L 113.644056 29.482682 
L 115.985315 30.286452 
L 118.326573 32.77083 
L 120.667832 29.482682 
L 123.009091 29.482682 
L 125.35035 31.967061 
L 127.691608 30.286452 
L 130.032867 27.875143 
L 132.374126 26.267604 
L 134.715385 28.678913 
L 137.056643 31.967061 
L 139.397902 31.163291 
L 141.739161 34.378369 
L 144.08042 32.77083 
L 146.421678 33.574599 
L 148.762937 33.574599 
L 151.104196 35.182138 
L 153.445455 32.77083 
L 155.786713 30.286452 
L 202.611888 29.482682 
L 249.437063 34.378369 
L 296.262238 30.286452 
L 343.087413 27.071374 
L 389.912587 29.482682 
L 436.737762 32.77083 
L 483.562937 31.163291 
L 530.388112 29.482682 
L 577.213287 28.678913 
L 624.038462 29.482682 
L 670.863636 30.286452 
" clip-path="url(#p9554a71088)" style="fill: none; stroke: #386795; stroke-width: 1.5; stroke-linecap: square"/>
   </g>
   <g id="LineCollection_2">
    <path d="M 62.136364 40.954665 
L 670.863636 40.954665 
" clip-path="url(#p9554a71088)" style="fill: none; stroke-dasharray: 1.5,2.475; stroke-dashoffset: 0; stroke: #386795; stroke-opacity: 0.5; stroke-width: 1.5"/>
   </g>
   <g id="patch_3">
    <path d="M 31.7 228.96 
L 31.7 7.2 
" style="fill: none; stroke: #000000; stroke-width: 0.8; stroke-linejoin: miter; stroke-linecap: square"/>
   </g>
   <g id="patch_4">
    <path d="M 701.3 228.96 
L 701.3 7.2 
" style="fill: none; stroke: #000000; stroke-width: 0.8; stroke-linejoin: miter; stroke-linecap: square"/>
   </g>
   <g id="patch_5">
    <path d="M 31.7 228.96 
L 701.3 228.96 
" style="fill: none; stroke: #000000; stroke-width: 0.8; stroke-linejoin: miter; stroke-linecap: square"/>
   </g>
   <g id="patch_6">
    <path d="M 31.7 7.2 
L 701.3 7.2 
" style="fill: none; stroke: #000000; stroke-width: 0.8; stroke-linejoin: miter; stroke-linecap: square"/>
   </g>
   <g id="legend_1">
    <g id="patch_7">
     <path d="M 612.3 223.96 
L 694.3 223.96 
Q 696.3 223.96 696.3 221.96 
L 696.3 192.852187 
Q 696.3 190.852187 694.3 190.852187 
L 612.3 190.852187 
Q 610.3 190.852187 610.3 192.852187 
L 610.3 221.96 
Q 610.3 223.96 612.3 223.96 
z
" style="fill: #ffffff; opacity: 0.8; stroke: #cccccc; stroke-linejoin: miter"/>
    </g>
    <g id="line2d_16">
     <path d="M 614.3 199.614687 
L 624.3 199.614687 
L 634.3 199.614687 
" style="fill: none; stroke: #e86254; stroke-width: 1.5; stroke-linecap: square"/>
    </g>
    <g id="text_14">
     <!-- 单层全连接 -->
     <g transform="translate(642.3 203.114687) scale(0.1 -0.1)">
      <defs>
       <path id="SourceHanSerifCN-Heavy-5355" d="M 1478 5375 
Q 1991 5306 2292 5151 
Q 2594 4997 2723 4806 
Q 2853 4616 2847 4436 
Q 2841 4256 2733 4132 
Q 2625 4009 2450 3989 
Q 2275 3969 2075 4103 
Q 1997 4428 1808 4761 
Q 1619 5094 1428 5344 
L 1478 5375 
z
M 4519 2894 
L 4519 3725 
L 3669 3725 
L 3669 2894 
L 4519 2894 
z
M 4519 2713 
L 3669 2713 
L 3669 1844 
L 4519 1844 
L 4519 2713 
z
M 1863 2894 
L 2706 2894 
L 2706 3725 
L 1863 3725 
L 1863 2894 
z
M 1863 2713 
L 1863 1844 
L 2706 1844 
L 2706 2713 
L 1863 2713 
z
M 5313 1528 
Q 5313 1528 5405 1461 
Q 5497 1394 5640 1286 
Q 5784 1178 5943 1056 
Q 6103 934 6234 825 
Q 6206 722 6041 722 
L 3669 722 
L 3669 -366 
Q 3669 -403 3462 -498 
Q 3256 -594 2888 -594 
L 2706 -594 
L 2706 722 
L 206 722 
L 153 903 
L 2706 903 
L 2706 1663 
L 1863 1663 
L 1863 1575 
Q 1863 1528 1744 1459 
Q 1625 1391 1442 1336 
Q 1259 1281 1069 1281 
L 934 1281 
L 934 4281 
L 1919 3903 
L 3431 3903 
Q 3584 4188 3767 4619 
Q 3950 5050 4103 5472 
L 5228 4978 
Q 5200 4925 5131 4892 
Q 5063 4859 4953 4872 
Q 4641 4588 4291 4338 
Q 3941 4088 3609 3903 
L 4453 3903 
L 4863 4341 
L 5684 3719 
Q 5659 3684 5604 3650 
Q 5550 3616 5459 3597 
L 5459 1656 
Q 5456 1625 5329 1564 
Q 5203 1503 5023 1453 
Q 4844 1403 4684 1403 
L 4519 1403 
L 4519 1663 
L 3669 1663 
L 3669 903 
L 4806 903 
L 5313 1528 
z
" transform="scale(0.015625)"/>
       <path id="SourceHanSerifCN-Heavy-5c42" d="M 781 5088 
L 781 5381 
L 1838 5025 
L 4738 5025 
L 5147 5478 
L 6016 4831 
Q 5988 4794 5923 4755 
Q 5859 4716 5759 4691 
L 5759 3647 
Q 5756 3625 5620 3581 
Q 5484 3538 5300 3500 
Q 5116 3463 4966 3463 
L 4872 3463 
Q 4947 3403 5087 3290 
Q 5228 3178 5383 3050 
Q 5538 2922 5656 2809 
Q 5647 2756 5595 2731 
Q 5544 2706 5472 2706 
L 1997 2706 
L 1947 2888 
L 4325 2888 
L 4800 3519 
L 4800 3744 
L 1703 3744 
L 1703 3256 
Q 1703 2941 1690 2592 
Q 1678 2244 1625 1888 
L 4928 1888 
L 5416 2534 
Q 5416 2534 5505 2464 
Q 5594 2394 5731 2283 
Q 5869 2172 6019 2047 
Q 6169 1922 6291 1813 
Q 6263 1709 6106 1709 
L 3284 1709 
L 4063 1306 
Q 4041 1263 3984 1236 
Q 3928 1209 3834 1222 
Q 3575 1016 3175 794 
Q 2775 572 2369 409 
Q 2847 406 3484 412 
Q 4122 419 4819 428 
Q 4672 653 4509 861 
Q 4347 1069 4191 1241 
L 4244 1281 
Q 4869 1169 5251 969 
Q 5634 769 5820 533 
Q 6006 297 6031 76 
Q 6056 -144 5957 -298 
Q 5859 -453 5675 -489 
Q 5491 -525 5259 -391 
Q 5203 -241 5126 -89 
Q 5050 63 4953 213 
Q 4416 78 3669 -86 
Q 2922 -250 2009 -422 
Q 1966 -481 1911 -515 
Q 1856 -550 1806 -569 
L 1522 409 
Q 1522 409 1615 429 
Q 1709 450 1766 481 
Q 1963 569 2184 781 
Q 2406 994 2603 1245 
Q 2800 1497 2919 1709 
L 1672 1709 
L 1619 1881 
Q 1553 1428 1390 979 
Q 1228 531 928 125 
Q 628 -281 141 -616 
L 91 -575 
Q 413 -13 558 632 
Q 703 1278 742 1948 
Q 781 2619 781 3250 
L 781 5088 
z
M 1703 3922 
L 4800 3922 
L 4800 4844 
L 1703 4844 
L 1703 3922 
z
" transform="scale(0.015625)"/>
       <path id="SourceHanSerifCN-Heavy-5168" d="M 3519 4863 
Q 3275 4472 2901 4094 
Q 2528 3716 2073 3375 
Q 1619 3034 1123 2756 
Q 628 2478 141 2291 
L 103 2356 
Q 513 2641 914 3027 
Q 1316 3413 1659 3842 
Q 2003 4272 2243 4692 
Q 2484 5113 2572 5466 
L 3969 5100 
Q 3950 5028 3872 4993 
Q 3794 4959 3616 4941 
Q 3838 4644 4163 4423 
Q 4488 4203 4864 4045 
Q 5241 3888 5623 3780 
Q 6006 3672 6344 3597 
L 6338 3494 
Q 6128 3434 5973 3281 
Q 5819 3128 5722 2934 
Q 5625 2741 5594 2553 
Q 5144 2803 4736 3129 
Q 4328 3456 4012 3882 
Q 3697 4309 3519 4863 
z
M 409 -197 
L 2694 -197 
L 2694 1203 
L 1153 1203 
L 1100 1381 
L 2694 1381 
L 2694 2591 
L 1388 2591 
L 1338 2772 
L 3897 2772 
L 4325 3316 
Q 4325 3316 4406 3256 
Q 4488 3197 4611 3101 
Q 4734 3006 4868 2898 
Q 5003 2791 5113 2694 
Q 5084 2591 4934 2591 
L 3675 2591 
L 3675 1381 
L 4288 1381 
L 4750 1959 
Q 4750 1959 4833 1895 
Q 4916 1831 5047 1732 
Q 5178 1634 5323 1520 
Q 5469 1406 5588 1306 
Q 5559 1203 5403 1203 
L 3675 1203 
L 3675 -197 
L 4825 -197 
L 5306 422 
Q 5306 422 5393 355 
Q 5481 288 5618 180 
Q 5756 72 5904 -48 
Q 6053 -169 6175 -275 
Q 6163 -328 6109 -353 
Q 6056 -378 5991 -378 
L 459 -378 
L 409 -197 
z
" transform="scale(0.015625)"/>
       <path id="SourceHanSerifCN-Heavy-8fde" d="M 441 5325 
Q 956 5216 1257 5030 
Q 1559 4844 1684 4634 
Q 1809 4425 1800 4234 
Q 1791 4044 1678 3919 
Q 1566 3794 1391 3780 
Q 1216 3766 1019 3909 
Q 950 4272 765 4640 
Q 581 5009 384 5294 
L 441 5325 
z
M 5209 4978 
Q 5209 4978 5295 4908 
Q 5381 4838 5514 4725 
Q 5647 4613 5789 4488 
Q 5931 4363 6047 4256 
Q 6019 4153 5863 4153 
L 3578 4153 
Q 3453 3797 3325 3440 
Q 3197 3084 3097 2809 
L 3622 2809 
L 3622 3859 
L 4769 3756 
Q 4759 3694 4712 3645 
Q 4666 3597 4531 3578 
L 4531 2809 
L 4641 2809 
L 5063 3391 
Q 5063 3391 5141 3327 
Q 5219 3263 5337 3161 
Q 5456 3059 5586 2945 
Q 5716 2831 5819 2731 
Q 5791 2631 5638 2631 
L 4531 2631 
L 4531 1684 
L 4947 1684 
L 5388 2291 
Q 5388 2291 5469 2223 
Q 5550 2156 5675 2051 
Q 5800 1947 5936 1828 
Q 6072 1709 6181 1606 
Q 6153 1503 5997 1503 
L 4531 1503 
L 4531 569 
Q 4531 538 4417 484 
Q 4303 431 4131 389 
Q 3959 347 3781 347 
L 3622 347 
L 3622 1503 
L 1931 1503 
L 1881 1684 
L 3622 1684 
L 3622 2631 
L 3072 2631 
L 2747 2247 
L 1913 2759 
Q 1963 2797 2023 2842 
Q 2084 2888 2156 2925 
Q 2263 3169 2386 3494 
Q 2509 3819 2625 4153 
L 1997 4153 
L 1947 4331 
L 2688 4331 
Q 2803 4678 2893 4986 
Q 2984 5294 3028 5484 
L 4159 5172 
Q 4138 5109 4075 5065 
Q 4013 5022 3878 5038 
L 3641 4331 
L 4744 4331 
L 5209 4978 
z
M 831 684 
L 831 2913 
L 197 2913 
L 159 3097 
L 728 3097 
L 1153 3653 
L 2041 2944 
Q 1997 2897 1919 2859 
Q 1841 2822 1703 2797 
L 1703 819 
Q 1950 603 2287 479 
Q 2625 356 3111 306 
Q 3597 256 4288 256 
Q 4816 256 5291 267 
Q 5766 278 6297 306 
L 6297 238 
Q 6044 175 5900 -33 
Q 5756 -241 5728 -506 
Q 5522 -506 5222 -506 
Q 4922 -506 4600 -506 
Q 4278 -506 4006 -506 
Q 3322 -506 2876 -389 
Q 2431 -272 2128 -23 
Q 1825 225 1569 616 
Q 1500 719 1444 712 
Q 1388 706 1331 616 
Q 1272 500 1165 320 
Q 1059 141 942 -64 
Q 825 -269 728 -459 
Q 747 -553 659 -609 
L 97 263 
Q 259 344 454 459 
Q 650 575 831 684 
z
" transform="scale(0.015625)"/>
       <path id="SourceHanSerifCN-Heavy-63a5" d="M 2956 4313 
Q 3372 4203 3592 4040 
Q 3813 3878 3881 3708 
Q 3950 3538 3906 3392 
Q 3863 3247 3741 3162 
Q 3619 3078 3459 3090 
Q 3300 3103 3144 3250 
Q 3144 3525 3067 3801 
Q 2991 4078 2900 4288 
L 2956 4313 
z
M 5491 2597 
Q 5491 2597 5572 2534 
Q 5653 2472 5778 2370 
Q 5903 2269 6040 2156 
Q 6178 2044 6291 1947 
Q 6281 1894 6229 1869 
Q 6178 1844 6113 1844 
L 5522 1844 
Q 5409 1469 5257 1162 
Q 5106 856 4897 603 
Q 5350 463 5584 306 
Q 5819 150 5881 -1 
Q 5944 -153 5881 -278 
Q 5819 -403 5673 -478 
Q 5528 -553 5347 -556 
Q 5166 -559 4997 -469 
Q 4863 -344 4678 -208 
Q 4494 -72 4263 63 
Q 3859 -175 3286 -342 
Q 2713 -509 1906 -616 
L 1869 -531 
Q 2475 -350 2925 -131 
Q 3375 88 3694 372 
Q 3416 506 3098 632 
Q 2781 759 2431 863 
Q 2531 1038 2654 1302 
Q 2778 1566 2900 1844 
L 2059 1844 
L 2009 2022 
L 2975 2022 
Q 3188 2525 3272 2816 
L 4378 2566 
Q 4363 2509 4308 2467 
Q 4253 2425 4097 2419 
L 3916 2022 
L 5050 2022 
L 5491 2597 
z
M 3366 897 
Q 3563 872 3741 847 
Q 3919 822 4078 794 
Q 4397 1238 4538 1844 
L 3834 1844 
Q 3722 1597 3600 1347 
Q 3478 1097 3366 897 
z
M 5288 5088 
Q 5288 5088 5364 5027 
Q 5441 4966 5559 4870 
Q 5678 4775 5808 4665 
Q 5938 4556 6041 4459 
Q 6013 4359 5863 4359 
L 2484 4359 
L 2431 4538 
L 3969 4538 
Q 3838 4569 3731 4659 
Q 3738 4872 3656 5083 
Q 3575 5294 3469 5428 
L 3506 5459 
Q 3919 5459 4161 5379 
Q 4403 5300 4504 5176 
Q 4606 5053 4597 4922 
Q 4588 4791 4495 4686 
Q 4403 4581 4263 4538 
L 4872 4538 
L 5288 5088 
z
M 1984 4500 
Q 1984 4500 2090 4392 
Q 2197 4284 2337 4134 
Q 2478 3984 2578 3859 
Q 2559 3756 2413 3756 
L 1691 3756 
L 1691 2900 
L 2456 3156 
L 2472 3097 
L 2388 3022 
L 4306 3022 
Q 4409 3319 4493 3687 
Q 4578 4056 4622 4347 
L 5691 4084 
Q 5659 3950 5453 3950 
Q 5275 3744 5008 3491 
Q 4741 3238 4459 3022 
L 4934 3022 
L 5363 3559 
Q 5363 3559 5442 3500 
Q 5522 3441 5644 3347 
Q 5766 3253 5897 3147 
Q 6028 3041 6138 2944 
Q 6109 2841 5959 2841 
L 2400 2841 
L 2356 2994 
Q 2225 2875 2058 2734 
Q 1891 2594 1691 2431 
L 1691 459 
Q 1691 150 1623 -69 
Q 1556 -288 1336 -419 
Q 1116 -550 659 -594 
Q 644 -359 616 -193 
Q 588 -28 525 84 
Q 456 197 348 272 
Q 241 347 25 391 
L 25 481 
Q 25 481 111 476 
Q 197 472 317 464 
Q 438 456 547 451 
Q 656 447 703 447 
Q 775 447 800 472 
Q 825 497 825 544 
L 825 1772 
L 634 1631 
Q 591 1484 459 1434 
L 97 2419 
Q 213 2447 402 2503 
Q 591 2559 825 2631 
L 825 3756 
L 178 3756 
L 128 3938 
L 825 3938 
L 825 5472 
L 1925 5369 
Q 1916 5297 1862 5251 
Q 1809 5206 1691 5191 
L 1691 4019 
L 1984 4500 
z
" transform="scale(0.015625)"/>
      </defs>
      <use xlink:href="#SourceHanSerifCN-Heavy-5355"/>
      <use xlink:href="#SourceHanSerifCN-Heavy-5c42" x="100"/>
      <use xlink:href="#SourceHanSerifCN-Heavy-5168" x="200"/>
      <use xlink:href="#SourceHanSerifCN-Heavy-8fde" x="300"/>
      <use xlink:href="#SourceHanSerifCN-Heavy-63a5" x="400"/>
     </g>
    </g>
    <g id="line2d_17">
     <path d="M 614.3 214.320937 
L 624.3 214.320937 
L 634.3 214.320937 
" style="fill: none; stroke: #386795; stroke-width: 1.5; stroke-linecap: square"/>
    </g>
    <g id="text_15">
     <!-- 双层全连接 -->
     <g transform="translate(642.3 217.820937) scale(0.1 -0.1)">
      <defs>
       <path id="SimSun-53cc" d="M 500 4375 
L 2625 4375 
L 2800 4625 
L 3225 4300 
L 3000 4125 
Q 2650 2850 2300 2100 
Q 2725 1600 2875 1312 
Q 3025 1025 3025 825 
Q 3025 675 2962 537 
Q 2900 400 2875 400 
Q 2800 400 2700 700 
Q 2525 1150 2100 1800 
Q 1375 650 300 -50 
L 250 25 
Q 1325 1000 1875 2050 
Q 1550 2600 825 3500 
L 900 3550 
Q 1500 2975 2050 2350 
Q 2450 3325 2650 4225 
L 1325 4225 
Q 1000 4225 725 4150 
L 500 4375 
z
M 3200 4400 
L 5125 4400 
L 5325 4675 
L 5725 4350 
L 5500 4175 
Q 5200 2275 4675 1275 
Q 5275 325 6025 75 
L 6025 -25 
Q 5600 -75 5500 -300 
Q 4875 275 4450 1000 
Q 3650 50 2425 -475 
L 2375 -400 
Q 3725 450 4275 1325 
Q 3725 2650 3625 4250 
L 3425 4175 
L 3200 4400 
z
M 3750 4250 
Q 3925 2700 4475 1625 
Q 4875 2525 5150 4250 
L 3750 4250 
z
" transform="scale(0.015625)"/>
       <path id="SimSun-5c42" d="M 2075 2775 
L 4775 2775 
L 5075 3075 
L 5525 2625 
L 2900 2625 
Q 2525 2625 2300 2550 
L 2075 2775 
z
M 4350 850 
Q 4825 575 5162 300 
Q 5500 25 5525 -175 
Q 5550 -375 5450 -487 
Q 5350 -600 5325 -600 
Q 5250 -600 5225 -525 
Q 5125 -350 4975 -75 
Q 3800 -175 3087 -275 
Q 2375 -375 2150 -525 
L 1900 -50 
Q 2225 -25 2700 575 
Q 3175 1175 3350 1625 
L 2400 1625 
Q 2075 1625 1800 1550 
L 1575 1775 
L 5225 1775 
L 5550 2100 
L 6025 1625 
L 3425 1625 
L 3900 1300 
Q 3675 1225 3275 825 
Q 2875 400 2350 -50 
L 4925 25 
Q 4700 375 4275 775 
L 4350 850 
z
M 1550 4675 
L 1550 3825 
L 5050 3825 
L 5050 4675 
L 1550 4675 
z
M 250 -575 
Q 725 150 925 925 
Q 1125 1700 1150 2462 
Q 1175 3225 1175 3862 
Q 1175 4500 1150 5025 
L 1550 4825 
L 5025 4825 
L 5275 5075 
L 5625 4725 
L 5425 4575 
Q 5425 4300 5425 4012 
Q 5425 3725 5450 3525 
L 5050 3375 
L 5050 3675 
L 1550 3675 
Q 1550 2925 1475 2150 
Q 1400 1375 1162 700 
Q 925 25 325 -650 
L 250 -575 
z
" transform="scale(0.015625)"/>
       <path id="SimSun-5168" d="M 3125 4725 
Q 2375 3475 1525 2800 
L 4225 2800 
L 4500 3050 
Q 3675 3725 3125 4725 
z
M 2900 5250 
L 3425 4950 
L 3225 4825 
Q 3550 4275 4275 3650 
Q 5000 3025 6100 2850 
L 6100 2750 
Q 5725 2675 5625 2400 
Q 5075 2600 4500 3050 
L 4925 2650 
L 3350 2650 
L 3350 1425 
L 4400 1425 
L 4700 1725 
L 5150 1275 
L 3350 1275 
L 3350 -150 
L 5075 -150 
L 5425 225 
L 5950 -300 
L 1325 -300 
Q 1000 -300 725 -375 
L 500 -150 
L 3000 -150 
L 3000 1275 
L 2075 1275 
Q 1750 1275 1475 1200 
L 1250 1425 
L 3000 1425 
L 3000 2650 
L 2200 2650 
Q 1875 2650 1625 2575 
L 1450 2750 
Q 900 2350 275 2100 
L 250 2175 
Q 1225 2750 1875 3550 
Q 2525 4350 2900 5250 
z
" transform="scale(0.015625)"/>
       <path id="SimSun-8fde" d="M 2475 2800 
Q 2825 3300 3175 4050 
L 2675 4050 
Q 2425 4050 2150 3975 
L 1925 4200 
L 3225 4200 
Q 3475 4750 3625 5275 
L 4150 4925 
L 3900 4800 
L 3600 4200 
L 5050 4200 
L 5425 4550 
L 5875 4050 
L 3550 4050 
L 2825 2675 
L 3800 2675 
Q 3800 3125 3775 3650 
L 4400 3425 
L 4125 3225 
L 4125 2675 
L 4800 2675 
L 5125 3000 
L 5575 2525 
L 4125 2525 
L 4125 1575 
L 5250 1575 
L 5625 1925 
L 6075 1425 
L 4125 1425 
Q 4125 825 4150 300 
L 3775 150 
Q 3800 775 3800 1425 
L 2625 1425 
Q 2400 1425 2125 1350 
L 1900 1575 
L 3800 1575 
L 3800 2525 
L 2825 2525 
L 2575 2300 
L 2225 2700 
L 2475 2800 
z
M 725 4950 
L 800 5000 
Q 1250 4725 1412 4537 
Q 1575 4350 1562 4200 
Q 1550 4050 1437 3950 
Q 1325 3850 1300 3850 
Q 1200 3850 1150 4150 
Q 1050 4525 725 4950 
z
M 1625 800 
Q 1825 575 2225 350 
Q 2625 125 3400 75 
Q 4175 25 4850 50 
Q 5525 75 6150 150 
L 6150 50 
Q 5675 -75 5625 -375 
Q 4500 -375 3775 -337 
Q 3050 -300 2575 -112 
Q 2100 75 1825 375 
Q 1550 650 1437 650 
Q 1325 650 1050 325 
Q 775 0 725 -175 
L 325 175 
Q 575 375 1275 825 
L 1275 2875 
L 1100 2875 
Q 775 2875 500 2800 
L 275 3025 
L 1225 3025 
L 1425 3275 
L 1825 2950 
L 1625 2775 
L 1625 800 
z
" transform="scale(0.015625)"/>
       <path id="SimSun-63a5" d="M 2500 4275 
L 5150 4275 
L 5425 4550 
L 5850 4125 
L 3275 4125 
Q 2950 4125 2725 4050 
L 2500 4275 
z
M 3100 4025 
Q 3650 3650 3712 3525 
Q 3775 3400 3775 3350 
Q 3775 3250 3675 3137 
Q 3575 3025 3525 3025 
Q 3450 3025 3400 3250 
Q 3325 3550 3025 3975 
L 3100 4025 
z
M 3975 2450 
L 3625 1800 
L 5425 1800 
L 5725 2100 
L 6150 1650 
L 5100 1650 
Q 4725 850 4475 550 
Q 4975 375 5325 187 
Q 5675 0 5737 -137 
Q 5800 -275 5800 -375 
Q 5800 -450 5762 -512 
Q 5725 -575 5675 -575 
Q 5600 -575 5450 -425 
Q 5225 -175 4987 -25 
Q 4750 125 4300 325 
Q 3900 -25 3337 -275 
Q 2775 -525 1800 -600 
L 1800 -500 
Q 2325 -425 2887 -212 
Q 3450 0 3975 450 
Q 3400 675 2725 800 
Q 2975 1225 3225 1650 
L 2325 1650 
L 2100 1600 
L 1900 1800 
L 3275 1800 
Q 3525 2375 3675 2825 
L 2575 2825 
L 2350 2775 
L 2150 2975 
L 4250 2975 
Q 4350 3200 4462 3475 
Q 4575 3750 4675 4100 
L 5175 3750 
L 4950 3700 
Q 4600 3200 4400 2975 
L 5325 2975 
L 5625 3275 
L 6075 2825 
L 3725 2825 
L 4175 2550 
L 3975 2450 
z
M 3100 875 
Q 3650 775 4150 650 
Q 4475 1075 4700 1650 
L 3575 1650 
Q 3350 1275 3100 875 
z
M 3600 5225 
Q 4050 4975 4175 4850 
Q 4300 4725 4300 4650 
Q 4300 4550 4200 4425 
Q 4100 4300 4075 4300 
Q 4000 4300 3950 4500 
Q 3850 4800 3525 5175 
L 3600 5225 
z
M 1650 2400 
L 2350 2700 
L 2400 2625 
L 1650 2175 
L 1650 50 
Q 1650 -350 1150 -575 
Q 1200 -300 525 -25 
L 525 75 
Q 1075 -25 1200 -12 
Q 1325 0 1325 200 
L 1325 2000 
Q 650 1600 550 1450 
L 225 1875 
Q 675 2000 1325 2275 
L 1325 3675 
L 800 3675 
L 500 3625 
L 300 3825 
L 1325 3825 
Q 1325 4850 1300 5275 
L 1850 5000 
L 1650 4825 
L 1650 3825 
L 1975 3825 
L 2250 4100 
L 2675 3675 
L 1650 3675 
L 1650 2400 
z
" transform="scale(0.015625)"/>
      </defs>
      <use xlink:href="#SimSun-53cc"/>
      <use xlink:href="#SimSun-5c42" x="100"/>
      <use xlink:href="#SimSun-5168" x="200"/>
      <use xlink:href="#SimSun-8fde" x="300"/>
      <use xlink:href="#SimSun-63a5" x="400"/>
     </g>
    </g>
   </g>
  </g>
 </g>
 <defs>
  <clipPath id="p9554a71088">
   <rect x="31.7" y="7.2" width="669.6" height="221.76"/>
  </clipPath>
 </defs>
</svg>
