<?xml version="1.0" encoding="utf-8" standalone="no"?>
<!DOCTYPE svg PUBLIC "-//W3C//DTD SVG 1.1//EN"
  "http://www.w3.org/Graphics/SVG/1.1/DTD/svg11.dtd">
<svg xmlns:xlink="http://www.w3.org/1999/xlink" width="703.5pt" height="252.242813pt" viewBox="0 0 703.5 252.242813" xmlns="http://www.w3.org/2000/svg" version="1.1">
 <metadata>
  <rdf:RDF xmlns:dc="http://purl.org/dc/elements/1.1/" xmlns:cc="http://creativecommons.org/ns#" xmlns:rdf="http://www.w3.org/1999/02/22-rdf-syntax-ns#">
   <cc:Work>
    <dc:type rdf:resource="http://purl.org/dc/dcmitype/StillImage"/>
    <dc:date>2024-01-10T15:36:24.255237</dc:date>
    <dc:format>image/svg+xml</dc:format>
    <dc:creator>
     <cc:Agent>
      <dc:title>Matplotlib v3.8.2, https://matplotlib.org/</dc:title>
     </cc:Agent>
    </dc:creator>
   </cc:Work>
  </rdf:RDF>
 </metadata>
 <defs>
  <style type="text/css">*{stroke-linejoin: round; stroke-linecap: butt}</style>
 </defs>
 <g id="figure_1">
  <g id="patch_1">
   <path d="M 0 252.242813 
L 703.5 252.242813 
L 703.5 0 
L 0 0 
z
" style="fill: #ffffff"/>
  </g>
  <g id="axes_1">
   <g id="patch_2">
    <path d="M 26.7 228.96 
L 696.3 228.96 
L 696.3 7.2 
L 26.7 7.2 
z
" style="fill: #ffffff"/>
   </g>
   <g id="PathCollection_1">
    <defs>
     <path id="m46b49757b5" d="M 0 3 
C 0.795609 3 1.55874 2.683901 2.12132 2.12132 
C 2.683901 1.55874 3 0.795609 3 0 
C 3 -0.795609 2.683901 -1.55874 2.12132 -2.12132 
C 1.55874 -2.683901 0.795609 -3 0 -3 
C -0.795609 -3 -1.55874 -2.683901 -2.12132 -2.12132 
C -2.683901 -1.55874 -3 -0.795609 -3 0 
C -3 0.795609 -2.683901 1.55874 -2.12132 2.12132 
C -1.55874 2.683901 -0.795609 3 0 3 
z
" style="stroke: #e86254; stroke-opacity: 0.5"/>
    </defs>
    <g clip-path="url(#p422f042d4d)">
     <use xlink:href="#m46b49757b5" x="384.912587" y="17.28" style="fill: #e86254; fill-opacity: 0.5; stroke: #e86254; stroke-opacity: 0.5"/>
    </g>
   </g>
   <g id="PathCollection_2">
    <defs>
     <path id="m3f7b0bdd65" d="M 0 3 
C 0.795609 3 1.55874 2.683901 2.12132 2.12132 
C 2.683901 1.55874 3 0.795609 3 0 
C 3 -0.795609 2.683901 -1.55874 2.12132 -2.12132 
C 1.55874 -2.683901 0.795609 -3 0 -3 
C -0.795609 -3 -1.55874 -2.683901 -2.12132 -2.12132 
C -2.683901 -1.55874 -3 -0.795609 -3 0 
C -3 0.795609 -2.683901 1.55874 -2.12132 2.12132 
C -1.55874 2.683901 -0.795609 3 0 3 
z
" style="stroke: #ffd06e; stroke-opacity: 0.5"/>
    </defs>
    <g clip-path="url(#p422f042d4d)">
     <use xlink:href="#m3f7b0bdd65" x="141.421678" y="23.707273" style="fill: #ffd06e; fill-opacity: 0.5; stroke: #ffd06e; stroke-opacity: 0.5"/>
    </g>
   </g>
   <g id="PathCollection_3">
    <defs>
     <path id="m8412c3c148" d="M 0 3 
C 0.795609 3 1.55874 2.683901 2.12132 2.12132 
C 2.683901 1.55874 3 0.795609 3 0 
C 3 -0.795609 2.683901 -1.55874 2.12132 -2.12132 
C 1.55874 -2.683901 0.795609 -3 0 -3 
C -0.795609 -3 -1.55874 -2.683901 -2.12132 -2.12132 
C -2.683901 -1.55874 -3 -0.795609 -3 0 
C -3 0.795609 -2.683901 1.55874 -2.12132 2.12132 
C -1.55874 2.683901 -0.795609 3 0 3 
z
" style="stroke: #386795; stroke-opacity: 0.5"/>
    </defs>
    <g clip-path="url(#p422f042d4d)">
     <use xlink:href="#m8412c3c148" x="58.072867" y="146.684545" style="fill: #386795; fill-opacity: 0.5; stroke: #386795; stroke-opacity: 0.5"/>
    </g>
   </g>
   <g id="matplotlib.axis_1">
    <g id="xtick_1">
     <g id="line2d_1">
      <defs>
       <path id="ma1bc79d3f5" d="M 0 0 
L 0 3.5 
" style="stroke: #000000; stroke-width: 0.8"/>
      </defs>
      <g>
       <use xlink:href="#ma1bc79d3f5" x="57.136364" y="228.96" style="stroke: #000000; stroke-width: 0.8"/>
      </g>
     </g>
     <g id="text_1">
      <!-- 0 -->
      <g transform="translate(54.636364 242.90375) scale(0.1 -0.1)">
       <defs>
        <path id="TimesNewRomanPSMT-30" d="M 231 2094 
Q 231 2819 450 3342 
Q 669 3866 1031 4122 
Q 1313 4325 1613 4325 
Q 2100 4325 2488 3828 
Q 2972 3213 2972 2159 
Q 2972 1422 2759 906 
Q 2547 391 2217 158 
Q 1888 -75 1581 -75 
Q 975 -75 572 641 
Q 231 1244 231 2094 
z
M 844 2016 
Q 844 1141 1059 588 
Q 1238 122 1591 122 
Q 1759 122 1940 273 
Q 2122 425 2216 781 
Q 2359 1319 2359 2297 
Q 2359 3022 2209 3506 
Q 2097 3866 1919 4016 
Q 1791 4119 1609 4119 
Q 1397 4119 1231 3928 
Q 1006 3669 925 3112 
Q 844 2556 844 2016 
z
" transform="scale(0.015625)"/>
       </defs>
       <use xlink:href="#TimesNewRomanPSMT-30"/>
      </g>
     </g>
    </g>
    <g id="xtick_2">
     <g id="line2d_2">
      <g>
       <use xlink:href="#ma1bc79d3f5" x="150.786713" y="228.96" style="stroke: #000000; stroke-width: 0.8"/>
      </g>
     </g>
     <g id="text_2">
      <!-- 200 -->
      <g transform="translate(143.286713 242.90375) scale(0.1 -0.1)">
       <defs>
        <path id="TimesNewRomanPSMT-32" d="M 2934 816 
L 2638 0 
L 138 0 
L 138 116 
Q 1241 1122 1691 1759 
Q 2141 2397 2141 2925 
Q 2141 3328 1894 3587 
Q 1647 3847 1303 3847 
Q 991 3847 742 3664 
Q 494 3481 375 3128 
L 259 3128 
Q 338 3706 661 4015 
Q 984 4325 1469 4325 
Q 1984 4325 2329 3994 
Q 2675 3663 2675 3213 
Q 2675 2891 2525 2569 
Q 2294 2063 1775 1497 
Q 997 647 803 472 
L 1909 472 
Q 2247 472 2383 497 
Q 2519 522 2628 598 
Q 2738 675 2819 816 
L 2934 816 
z
" transform="scale(0.015625)"/>
       </defs>
       <use xlink:href="#TimesNewRomanPSMT-32"/>
       <use xlink:href="#TimesNewRomanPSMT-30" x="50"/>
       <use xlink:href="#TimesNewRomanPSMT-30" x="100"/>
      </g>
     </g>
    </g>
    <g id="xtick_3">
     <g id="line2d_3">
      <g>
       <use xlink:href="#ma1bc79d3f5" x="244.437063" y="228.96" style="stroke: #000000; stroke-width: 0.8"/>
      </g>
     </g>
     <g id="text_3">
      <!-- 400 -->
      <g transform="translate(236.937063 242.90375) scale(0.1 -0.1)">
       <defs>
        <path id="TimesNewRomanPSMT-34" d="M 2978 1563 
L 2978 1119 
L 2409 1119 
L 2409 0 
L 1894 0 
L 1894 1119 
L 100 1119 
L 100 1519 
L 2066 4325 
L 2409 4325 
L 2409 1563 
L 2978 1563 
z
M 1894 1563 
L 1894 3666 
L 406 1563 
L 1894 1563 
z
" transform="scale(0.015625)"/>
       </defs>
       <use xlink:href="#TimesNewRomanPSMT-34"/>
       <use xlink:href="#TimesNewRomanPSMT-30" x="50"/>
       <use xlink:href="#TimesNewRomanPSMT-30" x="100"/>
      </g>
     </g>
    </g>
    <g id="xtick_4">
     <g id="line2d_4">
      <g>
       <use xlink:href="#ma1bc79d3f5" x="338.087413" y="228.96" style="stroke: #000000; stroke-width: 0.8"/>
      </g>
     </g>
     <g id="text_4">
      <!-- 600 -->
      <g transform="translate(330.587413 242.90375) scale(0.1 -0.1)">
       <defs>
        <path id="TimesNewRomanPSMT-36" d="M 2869 4325 
L 2869 4209 
Q 2456 4169 2195 4045 
Q 1934 3922 1679 3669 
Q 1425 3416 1258 3105 
Q 1091 2794 978 2366 
Q 1428 2675 1881 2675 
Q 2316 2675 2634 2325 
Q 2953 1975 2953 1425 
Q 2953 894 2631 456 
Q 2244 -75 1606 -75 
Q 1172 -75 869 213 
Q 275 772 275 1663 
Q 275 2231 503 2743 
Q 731 3256 1154 3653 
Q 1578 4050 1965 4187 
Q 2353 4325 2688 4325 
L 2869 4325 
z
M 925 2138 
Q 869 1716 869 1456 
Q 869 1156 980 804 
Q 1091 453 1309 247 
Q 1469 100 1697 100 
Q 1969 100 2183 356 
Q 2397 613 2397 1088 
Q 2397 1622 2184 2012 
Q 1972 2403 1581 2403 
Q 1463 2403 1327 2353 
Q 1191 2303 925 2138 
z
" transform="scale(0.015625)"/>
       </defs>
       <use xlink:href="#TimesNewRomanPSMT-36"/>
       <use xlink:href="#TimesNewRomanPSMT-30" x="50"/>
       <use xlink:href="#TimesNewRomanPSMT-30" x="100"/>
      </g>
     </g>
    </g>
    <g id="xtick_5">
     <g id="line2d_5">
      <g>
       <use xlink:href="#ma1bc79d3f5" x="431.737762" y="228.96" style="stroke: #000000; stroke-width: 0.8"/>
      </g>
     </g>
     <g id="text_5">
      <!-- 800 -->
      <g transform="translate(424.237762 242.90375) scale(0.1 -0.1)">
       <defs>
        <path id="TimesNewRomanPSMT-38" d="M 1228 2134 
Q 725 2547 579 2797 
Q 434 3047 434 3316 
Q 434 3728 753 4026 
Q 1072 4325 1600 4325 
Q 2113 4325 2425 4047 
Q 2738 3769 2738 3413 
Q 2738 3175 2569 2928 
Q 2400 2681 1866 2347 
Q 2416 1922 2594 1678 
Q 2831 1359 2831 1006 
Q 2831 559 2490 242 
Q 2150 -75 1597 -75 
Q 994 -75 656 303 
Q 388 606 388 966 
Q 388 1247 577 1523 
Q 766 1800 1228 2134 
z
M 1719 2469 
Q 2094 2806 2194 3001 
Q 2294 3197 2294 3444 
Q 2294 3772 2109 3958 
Q 1925 4144 1606 4144 
Q 1288 4144 1088 3959 
Q 888 3775 888 3528 
Q 888 3366 970 3203 
Q 1053 3041 1206 2894 
L 1719 2469 
z
M 1375 2016 
Q 1116 1797 991 1539 
Q 866 1281 866 981 
Q 866 578 1086 336 
Q 1306 94 1647 94 
Q 1984 94 2187 284 
Q 2391 475 2391 747 
Q 2391 972 2272 1150 
Q 2050 1481 1375 2016 
z
" transform="scale(0.015625)"/>
       </defs>
       <use xlink:href="#TimesNewRomanPSMT-38"/>
       <use xlink:href="#TimesNewRomanPSMT-30" x="50"/>
       <use xlink:href="#TimesNewRomanPSMT-30" x="100"/>
      </g>
     </g>
    </g>
    <g id="xtick_6">
     <g id="line2d_6">
      <g>
       <use xlink:href="#ma1bc79d3f5" x="525.388112" y="228.96" style="stroke: #000000; stroke-width: 0.8"/>
      </g>
     </g>
     <g id="text_6">
      <!-- 1000 -->
      <g transform="translate(515.388112 242.90375) scale(0.1 -0.1)">
       <defs>
        <path id="TimesNewRomanPSMT-31" d="M 750 3822 
L 1781 4325 
L 1884 4325 
L 1884 747 
Q 1884 391 1914 303 
Q 1944 216 2037 169 
Q 2131 122 2419 116 
L 2419 0 
L 825 0 
L 825 116 
Q 1125 122 1212 167 
Q 1300 213 1334 289 
Q 1369 366 1369 747 
L 1369 3034 
Q 1369 3497 1338 3628 
Q 1316 3728 1258 3775 
Q 1200 3822 1119 3822 
Q 1003 3822 797 3725 
L 750 3822 
z
" transform="scale(0.015625)"/>
       </defs>
       <use xlink:href="#TimesNewRomanPSMT-31"/>
       <use xlink:href="#TimesNewRomanPSMT-30" x="50"/>
       <use xlink:href="#TimesNewRomanPSMT-30" x="100"/>
       <use xlink:href="#TimesNewRomanPSMT-30" x="150"/>
      </g>
     </g>
    </g>
    <g id="xtick_7">
     <g id="line2d_7">
      <g>
       <use xlink:href="#ma1bc79d3f5" x="619.038462" y="228.96" style="stroke: #000000; stroke-width: 0.8"/>
      </g>
     </g>
     <g id="text_7">
      <!-- 1200 -->
      <g transform="translate(609.038462 242.90375) scale(0.1 -0.1)">
       <use xlink:href="#TimesNewRomanPSMT-31"/>
       <use xlink:href="#TimesNewRomanPSMT-32" x="50"/>
       <use xlink:href="#TimesNewRomanPSMT-30" x="100"/>
       <use xlink:href="#TimesNewRomanPSMT-30" x="150"/>
      </g>
     </g>
    </g>
   </g>
   <g id="matplotlib.axis_2">
    <g id="ytick_1">
     <g id="line2d_8">
      <defs>
       <path id="ma92f70893a" d="M 0 0 
L -3.5 0 
" style="stroke: #000000; stroke-width: 0.8"/>
      </defs>
      <g>
       <use xlink:href="#ma92f70893a" x="26.7" y="198.070909" style="stroke: #000000; stroke-width: 0.8"/>
      </g>
     </g>
     <g id="text_8">
      <!-- 0.1 -->
      <g transform="translate(7.2 201.542784) scale(0.1 -0.1)">
       <defs>
        <path id="TimesNewRomanPSMT-2e" d="M 800 606 
Q 947 606 1047 504 
Q 1147 403 1147 259 
Q 1147 116 1045 14 
Q 944 -88 800 -88 
Q 656 -88 554 14 
Q 453 116 453 259 
Q 453 406 554 506 
Q 656 606 800 606 
z
" transform="scale(0.015625)"/>
       </defs>
       <use xlink:href="#TimesNewRomanPSMT-30"/>
       <use xlink:href="#TimesNewRomanPSMT-2e" x="50"/>
       <use xlink:href="#TimesNewRomanPSMT-31" x="75"/>
      </g>
     </g>
    </g>
    <g id="ytick_2">
     <g id="line2d_9">
      <g>
       <use xlink:href="#ma92f70893a" x="26.7" y="166.252727" style="stroke: #000000; stroke-width: 0.8"/>
      </g>
     </g>
     <g id="text_9">
      <!-- 0.2 -->
      <g transform="translate(7.2 169.724602) scale(0.1 -0.1)">
       <use xlink:href="#TimesNewRomanPSMT-30"/>
       <use xlink:href="#TimesNewRomanPSMT-2e" x="50"/>
       <use xlink:href="#TimesNewRomanPSMT-32" x="75"/>
      </g>
     </g>
    </g>
    <g id="ytick_3">
     <g id="line2d_10">
      <g>
       <use xlink:href="#ma92f70893a" x="26.7" y="134.434545" style="stroke: #000000; stroke-width: 0.8"/>
      </g>
     </g>
     <g id="text_10">
      <!-- 0.3 -->
      <g transform="translate(7.2 137.90642) scale(0.1 -0.1)">
       <defs>
        <path id="TimesNewRomanPSMT-33" d="M 325 3431 
Q 506 3859 782 4092 
Q 1059 4325 1472 4325 
Q 1981 4325 2253 3994 
Q 2459 3747 2459 3466 
Q 2459 3003 1878 2509 
Q 2269 2356 2469 2072 
Q 2669 1788 2669 1403 
Q 2669 853 2319 450 
Q 1863 -75 997 -75 
Q 569 -75 414 31 
Q 259 138 259 259 
Q 259 350 332 419 
Q 406 488 509 488 
Q 588 488 669 463 
Q 722 447 909 348 
Q 1097 250 1169 231 
Q 1284 197 1416 197 
Q 1734 197 1970 444 
Q 2206 691 2206 1028 
Q 2206 1275 2097 1509 
Q 2016 1684 1919 1775 
Q 1784 1900 1550 2001 
Q 1316 2103 1072 2103 
L 972 2103 
L 972 2197 
Q 1219 2228 1467 2375 
Q 1716 2522 1828 2728 
Q 1941 2934 1941 3181 
Q 1941 3503 1739 3701 
Q 1538 3900 1238 3900 
Q 753 3900 428 3381 
L 325 3431 
z
" transform="scale(0.015625)"/>
       </defs>
       <use xlink:href="#TimesNewRomanPSMT-30"/>
       <use xlink:href="#TimesNewRomanPSMT-2e" x="50"/>
       <use xlink:href="#TimesNewRomanPSMT-33" x="75"/>
      </g>
     </g>
    </g>
    <g id="ytick_4">
     <g id="line2d_11">
      <g>
       <use xlink:href="#ma92f70893a" x="26.7" y="102.616364" style="stroke: #000000; stroke-width: 0.8"/>
      </g>
     </g>
     <g id="text_11">
      <!-- 0.4 -->
      <g transform="translate(7.2 106.088239) scale(0.1 -0.1)">
       <use xlink:href="#TimesNewRomanPSMT-30"/>
       <use xlink:href="#TimesNewRomanPSMT-2e" x="50"/>
       <use xlink:href="#TimesNewRomanPSMT-34" x="75"/>
      </g>
     </g>
    </g>
    <g id="ytick_5">
     <g id="line2d_12">
      <g>
       <use xlink:href="#ma92f70893a" x="26.7" y="70.798182" style="stroke: #000000; stroke-width: 0.8"/>
      </g>
     </g>
     <g id="text_12">
      <!-- 0.5 -->
      <g transform="translate(7.2 74.270057) scale(0.1 -0.1)">
       <defs>
        <path id="TimesNewRomanPSMT-35" d="M 2778 4238 
L 2534 3706 
L 1259 3706 
L 981 3138 
Q 1809 3016 2294 2522 
Q 2709 2097 2709 1522 
Q 2709 1188 2573 903 
Q 2438 619 2231 419 
Q 2025 219 1772 97 
Q 1413 -75 1034 -75 
Q 653 -75 479 54 
Q 306 184 306 341 
Q 306 428 378 495 
Q 450 563 559 563 
Q 641 563 702 538 
Q 763 513 909 409 
Q 1144 247 1384 247 
Q 1750 247 2026 523 
Q 2303 800 2303 1197 
Q 2303 1581 2056 1914 
Q 1809 2247 1375 2428 
Q 1034 2569 447 2591 
L 1259 4238 
L 2778 4238 
z
" transform="scale(0.015625)"/>
       </defs>
       <use xlink:href="#TimesNewRomanPSMT-30"/>
       <use xlink:href="#TimesNewRomanPSMT-2e" x="50"/>
       <use xlink:href="#TimesNewRomanPSMT-35" x="75"/>
      </g>
     </g>
    </g>
    <g id="ytick_6">
     <g id="line2d_13">
      <g>
       <use xlink:href="#ma92f70893a" x="26.7" y="38.98" style="stroke: #000000; stroke-width: 0.8"/>
      </g>
     </g>
     <g id="text_13">
      <!-- 0.6 -->
      <g transform="translate(7.2 42.451875) scale(0.1 -0.1)">
       <use xlink:href="#TimesNewRomanPSMT-30"/>
       <use xlink:href="#TimesNewRomanPSMT-2e" x="50"/>
       <use xlink:href="#TimesNewRomanPSMT-36" x="75"/>
      </g>
     </g>
    </g>
   </g>
   <g id="line2d_14">
    <path d="M 57.136364 218.498182 
L 57.604615 218.148182 
L 58.072867 217.798182 
L 58.541119 217.798182 
L 59.009371 217.448182 
L 59.477622 216.016364 
L 59.945874 217.098182 
L 60.414126 218.498182 
L 60.882378 218.498182 
L 61.350629 218.88 
L 61.818881 216.748182 
L 62.287133 211.052727 
L 62.755385 205.357273 
L 63.223636 197.18 
L 63.691888 191.834545 
L 64.16014 185.820909 
L 64.628392 175.511818 
L 65.096643 170.166364 
L 65.564895 164.820909 
L 66.033147 158.775455 
L 66.501399 150.248182 
L 66.96965 146.684545 
L 67.437902 141.720909 
L 67.906154 132.111818 
L 68.374406 129.28 
L 68.842657 119.670909 
L 69.310909 116.489091 
L 69.779161 113.625455 
L 70.247413 111.143636 
L 70.715664 106.53 
L 71.183916 105.448182 
L 71.652168 101.184545 
L 72.12042 103.316364 
L 72.588671 100.134545 
L 73.056923 95.520909 
L 73.525175 98.352727 
L 73.993427 91.225455 
L 74.461678 93.357273 
L 74.92993 88.393636 
L 75.398182 84.48 
L 75.866434 90.175455 
L 76.334685 79.516364 
L 76.802937 86.961818 
L 77.271189 79.866364 
L 77.739441 76.652727 
L 78.207692 81.648182 
L 78.675944 71.689091 
L 79.144196 72.739091 
L 79.612448 78.434545 
L 80.080699 71.689091 
L 80.548951 73.120909 
L 82.89021 67.075455 
L 85.231469 65.643636 
L 87.572727 64.561818 
L 89.913986 59.248182 
L 92.255245 52.852727 
L 94.596503 43.243636 
L 96.937762 41.111818 
L 99.279021 36.498182 
L 101.62028 34.016364 
L 103.961538 29.720909 
L 106.302797 31.152727 
L 108.644056 29.370909 
L 110.985315 25.839091 
L 113.326573 24.757273 
L 115.667832 22.975455 
L 118.009091 22.275455 
L 120.35035 20.843636 
L 122.691608 21.925455 
L 125.032867 19.411818 
L 127.374126 18.011818 
L 129.715385 19.411818 
L 132.056643 19.061818 
L 134.397902 20.843636 
L 136.739161 18.711818 
L 139.08042 20.493636 
L 141.421678 20.143636 
L 143.762937 18.711818 
L 146.104196 18.711818 
L 148.445455 19.793636 
L 150.786713 18.711818 
L 197.611888 19.411818 
L 244.437063 21.193636 
L 291.262238 19.411818 
L 338.087413 19.411818 
L 384.912587 17.28 
L 431.737762 19.793636 
L 478.562937 19.793636 
L 525.388112 18.011818 
L 572.213287 19.793636 
L 619.038462 19.411818 
L 665.863636 20.143636 
" clip-path="url(#p422f042d4d)" style="fill: none; stroke: #e86254; stroke-width: 1.5; stroke-linecap: square"/>
   </g>
   <g id="LineCollection_1">
    <path d="M 57.136364 29.116364 
L 665.863636 29.116364 
" clip-path="url(#p422f042d4d)" style="fill: none; stroke-dasharray: 1.5,2.475; stroke-dashoffset: 0; stroke: #e86254; stroke-opacity: 0.5; stroke-width: 1.5"/>
   </g>
   <g id="line2d_15">
    <path d="M 57.136364 206.439091 
L 57.604615 206.439091 
L 58.072867 206.439091 
L 58.541119 206.439091 
L 59.009371 206.439091 
L 59.477622 206.439091 
L 59.945874 206.057273 
L 60.414126 206.057273 
L 60.882378 206.057273 
L 61.350629 206.057273 
L 61.818881 205.707273 
L 62.287133 205.357273 
L 62.755385 205.357273 
L 63.223636 205.007273 
L 63.691888 205.007273 
L 64.16014 204.307273 
L 64.628392 203.575455 
L 65.096643 202.875455 
L 65.564895 202.525455 
L 66.033147 202.143636 
L 66.501399 202.143636 
L 66.96965 202.143636 
L 67.437902 201.793636 
L 67.906154 201.793636 
L 68.374406 201.093636 
L 68.842657 199.661818 
L 69.310909 200.011818 
L 69.779161 198.961818 
L 70.247413 197.53 
L 70.715664 196.83 
L 71.183916 194.348182 
L 71.652168 191.834545 
L 72.12042 187.570909 
L 72.588671 184.739091 
L 73.056923 179.043636 
L 73.525175 171.598182 
L 73.993427 163.770909 
L 74.461678 156.643636 
L 74.92993 151.68 
L 75.398182 146.334545 
L 75.866434 141.720909 
L 76.334685 134.975455 
L 76.802937 130.361818 
L 77.271189 122.534545 
L 77.739441 116.839091 
L 78.207692 114.007273 
L 78.675944 110.793636 
L 79.144196 105.448182 
L 79.612448 98.702727 
L 80.080699 94.439091 
L 80.548951 90.175455 
L 82.89021 74.520909 
L 85.231469 64.561818 
L 87.572727 57.466364 
L 89.913986 51.420909 
L 92.255245 45.375455 
L 94.596503 41.811818 
L 96.937762 39.68 
L 99.279021 38.28 
L 101.62028 36.498182 
L 103.961538 32.934545 
L 106.302797 32.234545 
L 108.644056 29.370909 
L 110.985315 28.670909 
L 113.326573 27.589091 
L 115.667832 27.589091 
L 118.009091 27.970909 
L 120.35035 27.239091 
L 122.691608 26.889091 
L 125.032867 26.539091 
L 127.374126 25.839091 
L 129.715385 25.839091 
L 132.056643 25.839091 
L 134.397902 25.107273 
L 136.739161 24.407273 
L 139.08042 24.057273 
L 141.421678 23.707273 
L 143.762937 23.707273 
L 146.104196 24.057273 
L 148.445455 24.057273 
L 150.786713 24.057273 
L 197.611888 23.707273 
L 244.437063 23.707273 
L 291.262238 23.707273 
L 338.087413 23.707273 
L 384.912587 23.707273 
L 431.737762 23.707273 
L 478.562937 23.707273 
L 525.388112 23.707273 
L 572.213287 23.707273 
L 619.038462 23.707273 
L 665.863636 23.707273 
" clip-path="url(#p422f042d4d)" style="fill: none; stroke: #ffd06e; stroke-width: 1.5; stroke-linecap: square"/>
   </g>
   <g id="LineCollection_2">
    <path d="M 57.136364 37.102727 
L 665.863636 37.102727 
" clip-path="url(#p422f042d4d)" style="fill: none; stroke-dasharray: 1.5,2.475; stroke-dashoffset: 0; stroke: #ffd06e; stroke-opacity: 0.5; stroke-width: 1.5"/>
   </g>
   <g id="line2d_16">
    <path d="M 57.136364 147.066364 
L 57.604615 147.066364 
L 58.072867 146.684545 
L 58.541119 146.684545 
L 59.009371 146.684545 
L 59.477622 146.684545 
L 59.945874 146.684545 
L 60.414126 146.684545 
L 60.882378 146.684545 
L 61.350629 147.066364 
L 61.818881 147.416364 
L 62.287133 149.898182 
L 62.755385 149.898182 
L 63.223636 148.848182 
L 63.691888 148.466364 
L 64.16014 148.466364 
L 64.628392 148.116364 
L 65.096643 148.116364 
L 65.564895 150.248182 
L 66.033147 150.248182 
L 66.501399 150.248182 
L 66.96965 150.248182 
L 67.437902 151.68 
L 67.906154 151.68 
L 68.374406 153.461818 
L 68.842657 156.643636 
L 69.310909 157.375455 
L 69.779161 157.375455 
L 70.247413 157.375455 
L 70.715664 157.375455 
L 71.183916 155.943636 
L 71.652168 155.943636 
L 72.12042 155.943636 
L 72.588671 155.593636 
L 73.056923 155.593636 
L 73.525175 155.593636 
L 73.993427 155.593636 
L 74.461678 155.243636 
L 74.92993 155.593636 
L 75.398182 155.593636 
L 75.866434 155.243636 
L 76.334685 155.243636 
L 76.802937 155.243636 
L 77.271189 155.243636 
L 77.739441 155.243636 
L 78.207692 155.243636 
L 78.675944 155.243636 
L 79.144196 154.861818 
L 79.612448 154.861818 
L 80.080699 154.861818 
L 80.548951 154.861818 
L 82.89021 154.861818 
L 85.231469 155.243636 
L 87.572727 155.243636 
L 89.913986 155.243636 
L 92.255245 155.243636 
L 94.596503 154.861818 
L 96.937762 154.861818 
L 99.279021 154.861818 
L 101.62028 154.861818 
L 103.961538 154.511818 
L 106.302797 154.511818 
L 108.644056 154.511818 
L 110.985315 154.861818 
L 113.326573 154.861818 
L 115.667832 154.861818 
L 118.009091 154.861818 
L 120.35035 154.861818 
L 122.691608 154.861818 
L 125.032867 154.861818 
L 127.374126 154.861818 
L 129.715385 154.861818 
L 132.056643 154.861818 
L 134.397902 154.861818 
L 136.739161 154.861818 
L 139.08042 154.861818 
L 141.421678 154.861818 
L 143.762937 154.861818 
L 146.104196 154.511818 
L 148.445455 154.511818 
L 150.786713 154.511818 
L 197.611888 154.511818 
L 244.437063 154.511818 
L 291.262238 154.511818 
L 338.087413 154.511818 
L 384.912587 154.511818 
L 431.737762 154.511818 
L 478.562937 154.511818 
L 525.388112 154.511818 
L 572.213287 154.511818 
L 619.038462 154.511818 
L 665.863636 154.511818 
" clip-path="url(#p422f042d4d)" style="fill: none; stroke: #386795; stroke-width: 1.5; stroke-linecap: square"/>
   </g>
   <g id="LineCollection_3">
    <path d="M 57.136364 119.002727 
L 665.863636 119.002727 
" clip-path="url(#p422f042d4d)" style="fill: none; stroke-dasharray: 1.5,2.475; stroke-dashoffset: 0; stroke: #386795; stroke-opacity: 0.5; stroke-width: 1.5"/>
   </g>
   <g id="patch_3">
    <path d="M 26.7 228.96 
L 26.7 7.2 
" style="fill: none; stroke: #000000; stroke-width: 0.8; stroke-linejoin: miter; stroke-linecap: square"/>
   </g>
   <g id="patch_4">
    <path d="M 696.3 228.96 
L 696.3 7.2 
" style="fill: none; stroke: #000000; stroke-width: 0.8; stroke-linejoin: miter; stroke-linecap: square"/>
   </g>
   <g id="patch_5">
    <path d="M 26.7 228.96 
L 696.3 228.96 
" style="fill: none; stroke: #000000; stroke-width: 0.8; stroke-linejoin: miter; stroke-linecap: square"/>
   </g>
   <g id="patch_6">
    <path d="M 26.7 7.2 
L 696.3 7.2 
" style="fill: none; stroke: #000000; stroke-width: 0.8; stroke-linejoin: miter; stroke-linecap: square"/>
   </g>
   <g id="legend_1">
    <g id="patch_7">
     <path d="M 592.34375 223.96 
L 689.3 223.96 
Q 691.3 223.96 691.3 221.96 
L 691.3 178.6725 
Q 691.3 176.6725 689.3 176.6725 
L 592.34375 176.6725 
Q 590.34375 176.6725 590.34375 178.6725 
L 590.34375 221.96 
Q 590.34375 223.96 592.34375 223.96 
z
" style="fill: #ffffff; opacity: 0.8; stroke: #cccccc; stroke-linejoin: miter"/>
    </g>
    <g id="line2d_17">
     <path d="M 594.34375 185.435 
L 604.34375 185.435 
L 614.34375 185.435 
" style="fill: none; stroke: #e86254; stroke-width: 1.5; stroke-linecap: square"/>
    </g>
    <g id="text_14">
     <!-- 全参微调 -->
     <g transform="translate(622.34375 188.935) scale(0.1 -0.1)">
      <defs>
       <path id="SourceHanSerifCN-Heavy-5168" d="M 3519 4863 
Q 3275 4472 2901 4094 
Q 2528 3716 2073 3375 
Q 1619 3034 1123 2756 
Q 628 2478 141 2291 
L 103 2356 
Q 513 2641 914 3027 
Q 1316 3413 1659 3842 
Q 2003 4272 2243 4692 
Q 2484 5113 2572 5466 
L 3969 5100 
Q 3950 5028 3872 4993 
Q 3794 4959 3616 4941 
Q 3838 4644 4163 4423 
Q 4488 4203 4864 4045 
Q 5241 3888 5623 3780 
Q 6006 3672 6344 3597 
L 6338 3494 
Q 6128 3434 5973 3281 
Q 5819 3128 5722 2934 
Q 5625 2741 5594 2553 
Q 5144 2803 4736 3129 
Q 4328 3456 4012 3882 
Q 3697 4309 3519 4863 
z
M 409 -197 
L 2694 -197 
L 2694 1203 
L 1153 1203 
L 1100 1381 
L 2694 1381 
L 2694 2591 
L 1388 2591 
L 1338 2772 
L 3897 2772 
L 4325 3316 
Q 4325 3316 4406 3256 
Q 4488 3197 4611 3101 
Q 4734 3006 4868 2898 
Q 5003 2791 5113 2694 
Q 5084 2591 4934 2591 
L 3675 2591 
L 3675 1381 
L 4288 1381 
L 4750 1959 
Q 4750 1959 4833 1895 
Q 4916 1831 5047 1732 
Q 5178 1634 5323 1520 
Q 5469 1406 5588 1306 
Q 5559 1203 5403 1203 
L 3675 1203 
L 3675 -197 
L 4825 -197 
L 5306 422 
Q 5306 422 5393 355 
Q 5481 288 5618 180 
Q 5756 72 5904 -48 
Q 6053 -169 6175 -275 
Q 6163 -328 6109 -353 
Q 6056 -378 5991 -378 
L 459 -378 
L 409 -197 
z
" transform="scale(0.015625)"/>
       <path id="SourceHanSerifCN-Heavy-53c2" d="M 5619 550 
Q 5541 472 5375 538 
Q 4997 291 4462 75 
Q 3928 -141 3297 -298 
Q 2666 -456 1984 -539 
Q 1303 -622 628 -603 
L 609 -513 
Q 1216 -416 1834 -233 
Q 2453 -50 3022 195 
Q 3591 441 4055 719 
Q 4519 997 4819 1288 
L 5619 550 
z
M 4788 1472 
Q 4719 1394 4556 1447 
Q 4259 1244 3840 1048 
Q 3422 853 2931 683 
Q 2441 513 1919 388 
Q 1397 263 891 206 
L 856 294 
Q 1297 434 1755 640 
Q 2213 847 2639 1092 
Q 3066 1338 3420 1595 
Q 3775 1853 4006 2094 
L 4788 1472 
z
M 4084 2291 
Q 4028 2219 3859 2266 
Q 3616 2075 3272 1879 
Q 2928 1684 2525 1501 
Q 2122 1319 1694 1170 
Q 1266 1022 850 928 
L 813 1013 
Q 1159 1175 1517 1397 
Q 1875 1619 2211 1870 
Q 2547 2122 2826 2375 
Q 3106 2628 3291 2853 
L 4084 2291 
z
M 3781 4863 
Q 4303 4853 4629 4737 
Q 4956 4622 5120 4451 
Q 5284 4281 5312 4106 
Q 5341 3931 5262 3798 
Q 5184 3666 5029 3619 
Q 4875 3572 4672 3669 
Q 4594 3844 4453 4031 
Q 4200 3966 3875 3886 
Q 3550 3806 3163 3725 
L 3597 3513 
Q 3572 3459 3517 3434 
Q 3463 3409 3347 3419 
L 3194 3206 
L 4897 3206 
L 5363 3809 
Q 5363 3809 5448 3742 
Q 5534 3675 5665 3572 
Q 5797 3469 5940 3350 
Q 6084 3231 6203 3128 
Q 6175 3028 6016 3028 
L 4166 3028 
Q 4413 2834 4758 2687 
Q 5103 2541 5490 2444 
Q 5878 2347 6253 2303 
L 6247 2234 
Q 6006 2166 5843 1958 
Q 5681 1750 5613 1428 
Q 5022 1669 4630 2064 
Q 4238 2459 3988 3028 
L 3053 3028 
Q 2581 2481 1868 2034 
Q 1156 1588 191 1375 
L 153 1447 
Q 734 1741 1192 2153 
Q 1650 2566 1978 3028 
L 294 3028 
L 244 3206 
L 2100 3206 
Q 2153 3294 2203 3376 
Q 2253 3459 2297 3547 
L 1484 3384 
Q 1450 3338 1409 3308 
Q 1369 3278 1325 3256 
L 953 4178 
Q 953 4178 1047 4197 
Q 1141 4216 1197 4244 
Q 1378 4309 1586 4457 
Q 1794 4606 1989 4792 
Q 2184 4978 2340 5162 
Q 2497 5347 2578 5484 
L 3628 5075 
Q 3609 5028 3550 4995 
Q 3491 4963 3384 4972 
Q 3103 4766 2670 4548 
Q 2238 4331 1813 4172 
Q 2297 4169 2959 4172 
Q 3622 4175 4347 4178 
Q 4203 4363 4042 4528 
Q 3881 4694 3731 4819 
L 3781 4863 
z
" transform="scale(0.015625)"/>
       <path id="SourceHanSerifCN-Heavy-5fae" d="M 2059 2234 
L 2059 2463 
L 2888 2169 
L 3200 2169 
L 3500 2472 
L 4091 1978 
Q 4066 1950 4014 1919 
Q 3963 1888 3872 1869 
L 3872 897 
L 4353 1081 
L 4378 1013 
Q 4272 888 4061 650 
Q 3850 413 3591 153 
Q 3553 63 3498 0 
Q 3444 -63 3384 -97 
L 2956 609 
Q 3097 700 3133 756 
Q 3169 813 3169 903 
L 3169 1991 
L 2778 1991 
L 2778 1703 
Q 2778 1488 2743 1208 
Q 2709 928 2596 628 
Q 2484 328 2261 48 
Q 2038 -231 1656 -447 
L 1600 -391 
Q 1819 -59 1916 308 
Q 2013 675 2036 1034 
Q 2059 1394 2059 1703 
L 2059 2234 
z
M 4306 4775 
Q 4297 4725 4262 4689 
Q 4228 4653 4141 4641 
L 4141 3334 
Q 4141 3300 3997 3248 
Q 3853 3197 3700 3188 
Q 3781 3109 3906 2990 
Q 4031 2872 4122 2772 
Q 4094 2669 3956 2669 
L 1913 2669 
L 1863 2847 
L 3316 2847 
L 3547 3188 
L 3541 3328 
L 2522 3328 
L 2369 3138 
L 1778 3406 
L 1888 3525 
L 1888 3584 
L 1850 3584 
Q 1734 3431 1595 3257 
Q 1456 3084 1294 2906 
L 1806 2713 
Q 1775 2628 1606 2591 
L 1606 -341 
Q 1603 -375 1514 -440 
Q 1425 -506 1283 -561 
Q 1141 -616 972 -616 
L 825 -616 
L 825 2413 
Q 656 2250 476 2095 
Q 297 1941 109 1806 
L 44 1869 
Q 269 2213 480 2636 
Q 691 3059 858 3473 
Q 1025 3888 1119 4197 
L 1888 3788 
L 1888 4863 
Q 1847 4847 1753 4856 
Q 1475 4566 1064 4227 
Q 653 3888 191 3641 
L 134 3706 
Q 325 3959 509 4279 
Q 694 4600 839 4917 
Q 984 5234 1069 5478 
L 2003 4941 
Q 1963 4878 1894 4863 
L 2706 4744 
L 2706 5403 
L 3513 5325 
Q 3509 5272 3470 5234 
Q 3431 5197 3334 5178 
L 3334 3506 
L 3541 3506 
L 3541 4844 
L 4306 4775 
z
M 2491 4097 
L 2491 3506 
L 2706 3506 
L 2706 4697 
Q 2675 4616 2491 4588 
L 2491 4097 
z
M 5509 5275 
Q 5481 5131 5275 5113 
Q 5216 4813 5144 4522 
Q 5072 4231 4984 3963 
L 5203 3963 
L 5588 4441 
Q 5588 4441 5706 4353 
Q 5825 4266 5989 4136 
Q 6153 4006 6291 3884 
Q 6263 3781 6119 3781 
L 5947 3781 
Q 5884 3038 5731 2375 
Q 5578 1713 5259 1147 
Q 5469 847 5733 600 
Q 5997 353 6322 166 
L 6303 103 
Q 6013 31 5842 -145 
Q 5672 -322 5600 -616 
Q 5356 -378 5175 -78 
Q 4994 222 4863 575 
Q 4556 213 4136 -93 
Q 3716 -400 3156 -641 
L 3103 -569 
Q 3666 -191 4045 265 
Q 4425 722 4666 1241 
Q 4588 1578 4534 1947 
Q 4481 2316 4447 2713 
Q 4363 2559 4263 2420 
Q 4163 2281 4056 2156 
L 3969 2203 
Q 4116 2634 4231 3170 
Q 4347 3706 4422 4290 
Q 4497 4875 4519 5447 
L 5509 5275 
z
M 4891 1825 
Q 5034 2275 5103 2767 
Q 5172 3259 5191 3781 
L 4928 3781 
Q 4850 3553 4761 3340 
Q 4672 3128 4569 2931 
Q 4628 2625 4706 2350 
Q 4784 2075 4891 1825 
z
" transform="scale(0.015625)"/>
       <path id="SourceHanSerifCN-Heavy-8c03" d="M 550 5403 
Q 1072 5347 1362 5195 
Q 1653 5044 1758 4853 
Q 1863 4663 1825 4489 
Q 1788 4316 1648 4216 
Q 1509 4116 1319 4147 
L 2022 3559 
Q 1994 3525 1928 3490 
Q 1863 3456 1734 3438 
L 1734 1141 
L 2222 1409 
Q 2263 1744 2273 2092 
Q 2284 2441 2284 2797 
L 2284 5294 
L 3225 4966 
L 5081 4966 
L 5453 5388 
L 6222 4788 
Q 6188 4750 6123 4711 
Q 6059 4672 5959 4653 
L 5959 353 
Q 5959 75 5893 -120 
Q 5828 -316 5615 -431 
Q 5403 -547 4959 -588 
Q 4947 -391 4917 -247 
Q 4888 -103 4819 -13 
Q 4747 78 4636 151 
Q 4525 225 4300 263 
L 4300 347 
Q 4300 347 4389 340 
Q 4478 334 4604 326 
Q 4731 319 4847 312 
Q 4963 306 5019 306 
Q 5094 306 5120 342 
Q 5147 378 5147 434 
L 5147 2203 
Q 5097 2134 4934 2094 
L 4934 788 
Q 4931 769 4832 728 
Q 4734 688 4601 655 
Q 4469 622 4359 622 
L 4238 622 
L 4238 922 
L 3916 922 
L 3916 691 
Q 3916 659 3828 609 
Q 3741 559 3605 520 
Q 3469 481 3322 481 
L 3225 481 
L 3225 2656 
L 3938 2375 
L 4178 2375 
L 4494 2719 
L 5147 2228 
L 5147 2791 
L 5131 2791 
L 3109 2791 
L 3097 2834 
L 3097 2797 
Q 3097 2350 3058 1890 
Q 3019 1431 2875 990 
Q 2731 550 2420 151 
Q 2109 -247 1569 -569 
L 1503 -519 
Q 1803 -141 1962 292 
Q 2122 725 2194 1191 
Q 2059 978 1857 687 
Q 1656 397 1409 72 
Q 1375 -94 1301 -203 
Q 1228 -313 1147 -366 
L 513 563 
Q 763 706 830 784 
Q 897 863 897 972 
L 897 3584 
L 178 3584 
L 122 3763 
L 909 3763 
L 1300 4147 
Q 1181 4166 1063 4250 
Q 994 4547 828 4848 
Q 663 5150 500 5369 
L 550 5403 
z
M 4581 4569 
Q 4572 4516 4536 4480 
Q 4500 4444 4409 4428 
L 4409 3928 
L 4434 3928 
L 4709 4366 
Q 4709 4366 4782 4291 
Q 4856 4216 4957 4108 
Q 5059 4000 5147 3897 
L 5147 4788 
L 3097 4788 
L 3097 2969 
L 3681 2969 
L 3681 3750 
L 3188 3750 
L 3138 3928 
L 3681 3928 
L 3681 4659 
L 4581 4569 
z
M 4756 3469 
Q 4756 3469 4884 3339 
Q 5013 3209 5147 3059 
L 5147 3794 
Q 5109 3750 5025 3750 
L 4409 3750 
L 4409 2969 
L 4447 2969 
L 4756 3469 
z
M 3916 1100 
L 4238 1100 
L 4238 2194 
L 3916 2194 
L 3916 1100 
z
" transform="scale(0.015625)"/>
      </defs>
      <use xlink:href="#SourceHanSerifCN-Heavy-5168"/>
      <use xlink:href="#SourceHanSerifCN-Heavy-53c2" x="100"/>
      <use xlink:href="#SourceHanSerifCN-Heavy-5fae" x="200"/>
      <use xlink:href="#SourceHanSerifCN-Heavy-8c03" x="300"/>
     </g>
    </g>
    <g id="line2d_18">
     <path d="M 594.34375 200.102188 
L 604.34375 200.102188 
L 614.34375 200.102188 
" style="fill: none; stroke: #ffd06e; stroke-width: 1.5; stroke-linecap: square"/>
    </g>
    <g id="text_15">
     <!-- 冻结BERT参数 -->
     <g transform="translate(622.34375 203.602188) scale(0.1 -0.1)">
      <defs>
       <path id="SimSun-51bb" d="M 3875 2275 
Q 3875 2875 3850 3500 
L 4400 3225 
L 4225 3050 
L 4225 2275 
L 5025 2275 
L 5325 2575 
L 5750 2125 
L 4225 2125 
L 4225 0 
Q 4225 -450 3725 -625 
Q 3625 -275 2975 -100 
L 2975 0 
Q 3675 -75 3775 -50 
Q 3875 -25 3875 150 
L 3875 2125 
L 2625 2125 
L 2400 1950 
L 2075 2325 
Q 2275 2350 2512 2775 
Q 2750 3200 3075 3900 
L 2550 3900 
L 2325 3850 
L 2125 4050 
L 3125 4050 
Q 3375 4700 3525 5225 
L 4025 4900 
L 3825 4750 
L 3500 4050 
L 5200 4050 
L 5500 4350 
L 5925 3900 
L 3450 3900 
Q 3050 3100 2600 2275 
L 3875 2275 
z
M 2950 1775 
L 3425 1400 
Q 3200 1275 2700 725 
Q 2200 175 1600 -250 
L 1550 -175 
Q 2025 300 2387 800 
Q 2750 1300 2950 1775 
z
M 4625 1500 
L 4700 1575 
Q 5750 725 5787 387 
Q 5825 50 5725 -25 
Q 5625 -100 5575 -100 
Q 5475 -100 5400 125 
Q 5300 450 5125 762 
Q 4950 1075 4625 1500 
z
M 2175 4500 
Q 1450 2400 1325 2037 
Q 1200 1675 1175 1287 
Q 1150 900 1200 475 
Q 1225 50 1037 62 
Q 850 75 750 187 
Q 650 300 650 425 
Q 650 575 700 700 
Q 800 1000 825 1350 
Q 850 1700 250 1825 
L 250 1950 
Q 475 1900 650 1900 
Q 800 1900 950 1975 
Q 1100 2050 2050 4550 
L 2175 4500 
z
M 475 4825 
L 550 4900 
Q 1375 4350 1375 4087 
Q 1375 3825 1275 3750 
Q 1175 3675 1150 3675 
Q 1025 3675 925 4000 
Q 800 4425 475 4825 
z
" transform="scale(0.015625)"/>
       <path id="SimSun-7ed3" d="M 4050 3900 
Q 4050 4925 4025 5250 
L 4625 4925 
L 4375 4750 
L 4375 3900 
L 5300 3900 
L 5600 4200 
L 6025 3750 
L 4375 3750 
L 4375 2625 
L 5050 2625 
L 5350 2925 
L 5775 2475 
L 3650 2475 
Q 3325 2475 3050 2400 
L 2825 2625 
L 4050 2625 
L 4050 3750 
L 3425 3750 
Q 3100 3750 2825 3675 
L 2600 3900 
L 4050 3900 
z
M 3025 -600 
Q 3050 -50 3050 675 
Q 3050 1400 3025 1925 
L 3425 1700 
L 5125 1700 
L 5350 1925 
L 5700 1575 
L 5475 1425 
L 5475 400 
Q 5475 -150 5500 -375 
L 5150 -525 
L 5150 -25 
L 3375 -25 
L 3375 -425 
L 3025 -600 
z
M 3375 1550 
L 3375 125 
L 5150 125 
L 5150 1550 
L 3375 1550 
z
M 975 1550 
L 2700 1825 
L 2700 1725 
Q 2400 1650 1750 1462 
Q 1100 1275 800 1050 
L 525 1500 
Q 725 1575 900 1750 
Q 1075 1925 1725 2825 
Q 1425 2775 1150 2712 
Q 875 2650 625 2500 
L 400 2950 
Q 650 2950 987 3662 
Q 1325 4375 1525 5125 
L 2050 4850 
L 1825 4725 
Q 1300 3725 800 2950 
L 1800 2975 
Q 2100 3450 2275 3850 
L 2725 3525 
L 2500 3400 
Q 1800 2475 975 1550 
z
M 650 -250 
L 400 225 
Q 750 275 1237 387 
Q 1725 500 2750 800 
L 2775 700 
Q 925 -25 650 -250 
z
" transform="scale(0.015625)"/>
       <path id="TimesNewRomanPSMT-42" d="M 2956 2163 
Q 3397 2069 3616 1863 
Q 3919 1575 3919 1159 
Q 3919 844 3719 555 
Q 3519 266 3170 133 
Q 2822 0 2106 0 
L 106 0 
L 106 116 
L 266 116 
Q 531 116 647 284 
Q 719 394 719 750 
L 719 3488 
Q 719 3881 628 3984 
Q 506 4122 266 4122 
L 106 4122 
L 106 4238 
L 1938 4238 
Q 2450 4238 2759 4163 
Q 3228 4050 3475 3764 
Q 3722 3478 3722 3106 
Q 3722 2788 3528 2536 
Q 3334 2284 2956 2163 
z
M 1319 2331 
Q 1434 2309 1582 2298 
Q 1731 2288 1909 2288 
Q 2366 2288 2595 2386 
Q 2825 2484 2947 2687 
Q 3069 2891 3069 3131 
Q 3069 3503 2766 3765 
Q 2463 4028 1881 4028 
Q 1569 4028 1319 3959 
L 1319 2331 
z
M 1319 306 
Q 1681 222 2034 222 
Q 2600 222 2897 476 
Q 3194 731 3194 1106 
Q 3194 1353 3059 1581 
Q 2925 1809 2622 1940 
Q 2319 2072 1872 2072 
Q 1678 2072 1540 2065 
Q 1403 2059 1319 2044 
L 1319 306 
z
" transform="scale(0.015625)"/>
       <path id="TimesNewRomanPSMT-45" d="M 1338 4006 
L 1338 2331 
L 2269 2331 
Q 2631 2331 2753 2441 
Q 2916 2584 2934 2947 
L 3050 2947 
L 3050 1472 
L 2934 1472 
Q 2891 1781 2847 1869 
Q 2791 1978 2662 2040 
Q 2534 2103 2269 2103 
L 1338 2103 
L 1338 706 
Q 1338 425 1363 364 
Q 1388 303 1450 267 
Q 1513 231 1688 231 
L 2406 231 
Q 2766 231 2928 281 
Q 3091 331 3241 478 
Q 3434 672 3638 1063 
L 3763 1063 
L 3397 0 
L 131 0 
L 131 116 
L 281 116 
Q 431 116 566 188 
Q 666 238 702 338 
Q 738 438 738 747 
L 738 3500 
Q 738 3903 656 3997 
Q 544 4122 281 4122 
L 131 4122 
L 131 4238 
L 3397 4238 
L 3444 3309 
L 3322 3309 
Q 3256 3644 3176 3769 
Q 3097 3894 2941 3959 
Q 2816 4006 2500 4006 
L 1338 4006 
z
" transform="scale(0.015625)"/>
       <path id="TimesNewRomanPSMT-52" d="M 4325 0 
L 3194 0 
L 1759 1981 
Q 1600 1975 1500 1975 
Q 1459 1975 1412 1976 
Q 1366 1978 1316 1981 
L 1316 750 
Q 1316 350 1403 253 
Q 1522 116 1759 116 
L 1925 116 
L 1925 0 
L 109 0 
L 109 116 
L 269 116 
Q 538 116 653 291 
Q 719 388 719 750 
L 719 3488 
Q 719 3888 631 3984 
Q 509 4122 269 4122 
L 109 4122 
L 109 4238 
L 1653 4238 
Q 2328 4238 2648 4139 
Q 2969 4041 3192 3777 
Q 3416 3513 3416 3147 
Q 3416 2756 3161 2468 
Q 2906 2181 2372 2063 
L 3247 847 
Q 3547 428 3762 290 
Q 3978 153 4325 116 
L 4325 0 
z
M 1316 2178 
Q 1375 2178 1419 2176 
Q 1463 2175 1491 2175 
Q 2097 2175 2405 2437 
Q 2713 2700 2713 3106 
Q 2713 3503 2464 3751 
Q 2216 4000 1806 4000 
Q 1625 4000 1316 3941 
L 1316 2178 
z
" transform="scale(0.015625)"/>
       <path id="TimesNewRomanPSMT-54" d="M 3703 4238 
L 3750 3244 
L 3631 3244 
Q 3597 3506 3538 3619 
Q 3441 3800 3280 3886 
Q 3119 3972 2856 3972 
L 2259 3972 
L 2259 734 
Q 2259 344 2344 247 
Q 2463 116 2709 116 
L 2856 116 
L 2856 0 
L 1059 0 
L 1059 116 
L 1209 116 
Q 1478 116 1591 278 
Q 1659 378 1659 734 
L 1659 3972 
L 1150 3972 
Q 853 3972 728 3928 
Q 566 3869 450 3700 
Q 334 3531 313 3244 
L 194 3244 
L 244 4238 
L 3703 4238 
z
" transform="scale(0.015625)"/>
       <path id="SimSun-53c2" d="M 4700 3900 
Q 3500 3825 3125 3800 
Q 2925 3475 2725 3150 
L 5300 3150 
L 5625 3475 
L 6075 3000 
L 3750 3000 
Q 4325 2400 4950 2150 
Q 5575 1900 6100 1825 
L 6100 1750 
Q 5750 1675 5600 1450 
Q 5025 1675 4487 2062 
Q 3950 2450 3625 3000 
L 2675 3000 
Q 2250 2450 1750 2050 
Q 1250 1650 325 1225 
L 300 1325 
Q 1200 1850 1625 2262 
Q 2050 2675 2275 3000 
L 800 3000 
L 575 2950 
L 375 3150 
L 2350 3150 
Q 2450 3300 2675 3775 
Q 1650 3725 1325 3575 
L 1150 4025 
Q 1550 4050 2125 4487 
Q 2700 4925 2925 5225 
L 3300 4825 
L 3000 4750 
Q 1925 4125 1575 3975 
L 4625 4000 
Q 4300 4300 3850 4550 
L 3900 4650 
Q 4700 4375 5000 4175 
Q 5300 3975 5300 3775 
Q 5300 3725 5250 3587 
Q 5200 3450 5125 3450 
Q 5075 3450 5025 3525 
Q 4900 3700 4700 3900 
z
M 3250 2700 
L 3650 2300 
L 3450 2250 
Q 2125 1300 1075 1025 
L 1050 1125 
Q 1850 1450 2412 1875 
Q 2975 2300 3250 2700 
z
M 3950 1950 
L 4350 1550 
L 4075 1500 
Q 2425 425 1100 225 
L 1075 325 
Q 2250 675 2875 1075 
Q 3500 1475 3950 1950 
z
M 4800 1250 
L 5175 825 
L 4925 775 
Q 3475 -75 2587 -287 
Q 1700 -500 650 -550 
L 650 -450 
Q 2050 -300 3137 187 
Q 4225 675 4800 1250 
z
" transform="scale(0.015625)"/>
       <path id="SimSun-6570" d="M 1875 1525 
Q 1675 1200 1500 900 
Q 1825 825 2275 725 
Q 2500 975 2725 1525 
L 1875 1525 
z
M 850 4900 
Q 1325 4600 1425 4450 
Q 1525 4300 1525 4225 
Q 1525 4100 1437 3975 
Q 1350 3850 1300 3850 
Q 1225 3850 1150 4100 
Q 1050 4450 775 4850 
L 850 4900 
z
M 3000 4975 
L 3450 4675 
Q 3250 4625 3100 4425 
Q 2925 4225 2525 3825 
L 2450 3875 
Q 2925 4625 3000 4975 
z
M 1875 5250 
L 2425 5000 
L 2225 4825 
L 2225 3675 
L 2850 3675 
L 3125 3950 
L 3550 3525 
L 2225 3525 
L 2225 3300 
Q 2800 3175 2937 3062 
Q 3075 2950 3075 2775 
Q 3075 2700 3050 2587 
Q 3025 2475 2975 2475 
Q 2925 2475 2800 2650 
Q 2600 2925 2225 3175 
L 2225 2400 
L 1925 2200 
L 2275 2050 
Q 2150 2000 1950 1675 
L 2725 1675 
L 2900 1900 
L 3275 1575 
L 3050 1450 
Q 2800 875 2600 650 
Q 3000 550 3137 437 
Q 3275 325 3275 150 
Q 3275 -25 3200 -25 
Q 3125 -25 3025 75 
Q 2750 275 2400 425 
Q 1525 -275 325 -500 
L 300 -425 
Q 1450 -50 2100 550 
Q 1600 725 1125 800 
Q 1225 950 1525 1525 
L 1200 1525 
Q 875 1525 600 1450 
L 375 1675 
L 1575 1675 
Q 1675 1925 1775 2275 
L 1900 2225 
L 1900 3250 
Q 1225 2475 350 2050 
L 300 2125 
Q 1225 2775 1700 3525 
L 1250 3525 
Q 925 3525 650 3450 
L 425 3675 
L 1900 3675 
Q 1900 4575 1875 5250 
z
M 3925 3525 
Q 4050 2075 4525 1100 
Q 4925 1950 5025 3525 
L 3925 3525 
z
M 4050 5250 
L 4625 4925 
Q 4425 4850 4325 4625 
Q 4225 4400 3950 3675 
L 5375 3675 
L 5675 3975 
L 6125 3525 
L 5400 3525 
Q 5250 1675 4750 775 
Q 5325 75 6100 -100 
L 6100 -200 
Q 5625 -275 5600 -500 
Q 4950 -50 4525 525 
Q 3700 -275 2550 -650 
L 2500 -575 
Q 3650 -50 4325 800 
Q 3850 1975 3825 3375 
Q 3575 2725 3100 2150 
L 3025 2200 
Q 3625 3200 4050 5250 
z
" transform="scale(0.015625)"/>
      </defs>
      <use xlink:href="#SimSun-51bb"/>
      <use xlink:href="#SimSun-7ed3" x="100"/>
      <use xlink:href="#TimesNewRomanPSMT-42" x="200"/>
      <use xlink:href="#TimesNewRomanPSMT-45" x="266.699219"/>
      <use xlink:href="#TimesNewRomanPSMT-52" x="327.783203"/>
      <use xlink:href="#TimesNewRomanPSMT-54" x="388.482422"/>
      <use xlink:href="#SimSun-53c2" x="449.566406"/>
      <use xlink:href="#SimSun-6570" x="549.566406"/>
     </g>
    </g>
    <g id="line2d_19">
     <path d="M 594.34375 214.320938 
L 604.34375 214.320938 
L 614.34375 214.320938 
" style="fill: none; stroke: #386795; stroke-width: 1.5; stroke-linecap: square"/>
    </g>
    <g id="text_16">
     <!-- 重置BERT参数 -->
     <g transform="translate(622.34375 217.820938) scale(0.1 -0.1)">
      <defs>
       <path id="SimSun-91cd" d="M 3325 2275 
L 3325 1600 
L 4575 1600 
L 4575 2275 
L 3325 2275 
z
M 1400 1150 
Q 1425 1750 1425 2300 
Q 1425 2850 1400 3425 
L 1775 3225 
L 3000 3225 
L 3000 3800 
L 1400 3800 
Q 1075 3800 800 3725 
L 575 3950 
L 3000 3950 
L 3000 4550 
Q 1700 4500 1125 4475 
L 1125 4575 
Q 2350 4650 3350 4812 
Q 4350 4975 4725 5175 
L 5100 4725 
Q 4800 4750 4475 4725 
Q 4125 4675 3325 4600 
L 3325 3950 
L 4975 3950 
L 5350 4300 
L 5825 3800 
L 3325 3800 
L 3325 3225 
L 4550 3225 
L 4725 3475 
L 5100 3175 
L 4900 3000 
Q 4900 1950 4925 1325 
L 4575 1150 
L 4575 1450 
L 3325 1450 
L 3325 775 
L 4675 775 
L 5000 1100 
L 5450 625 
L 3325 625 
L 3325 -125 
L 5200 -125 
L 5600 275 
L 6100 -275 
L 1100 -275 
Q 775 -275 500 -350 
L 275 -125 
L 3000 -125 
L 3000 625 
L 1725 625 
Q 1400 625 1125 550 
L 900 775 
L 3000 775 
L 3000 1450 
L 1775 1450 
L 1775 1300 
L 1400 1150 
z
M 1775 3075 
L 1775 2425 
L 3000 2425 
L 3000 3075 
L 1775 3075 
z
M 1775 2275 
L 1775 1600 
L 3000 1600 
L 3000 2275 
L 1775 2275 
z
M 3325 3075 
L 3325 2425 
L 4575 2425 
L 4575 3075 
L 3325 3075 
z
" transform="scale(0.015625)"/>
       <path id="SimSun-7f6e" d="M 1400 4750 
L 1400 3925 
L 2375 3925 
L 2375 4750 
L 1400 4750 
z
M 2725 4750 
L 2725 3925 
L 3700 3925 
L 3700 4750 
L 2725 4750 
z
M 4025 4750 
L 4025 3925 
L 5025 3925 
L 5025 4750 
L 4025 4750 
z
M 1025 5100 
L 1400 4925 
L 5000 4925 
L 5175 5150 
L 5550 4875 
L 5400 4725 
Q 5400 4400 5400 4162 
Q 5400 3925 5425 3675 
L 5025 3550 
L 5025 3750 
L 1400 3750 
L 1400 3625 
L 1025 3500 
Q 1050 4000 1050 4425 
Q 1050 4850 1025 5100 
z
M 1900 350 
L 1900 -200 
L 4450 -200 
L 4450 350 
L 1900 350 
z
M 675 3225 
L 2900 3225 
Q 2925 3500 2925 3750 
L 3500 3550 
L 3325 3450 
L 3250 3225 
L 4850 3225 
L 5200 3500 
L 5650 3050 
L 3225 3050 
Q 3150 2800 3075 2575 
L 4400 2575 
L 4575 2850 
L 5000 2550 
L 4800 2325 
L 4800 -200 
L 5300 -200 
L 5675 125 
L 6175 -375 
L 1125 -375 
Q 750 -375 450 -450 
L 200 -200 
L 1525 -200 
L 1525 2100 
Q 1525 2375 1500 2750 
L 1900 2575 
L 2800 2575 
L 2875 3050 
L 1575 3050 
Q 1225 3050 925 2975 
L 675 3225 
z
M 1900 2400 
L 1900 1900 
L 4450 1900 
L 4450 2400 
L 1900 2400 
z
M 1900 1725 
L 1900 1225 
L 4450 1225 
L 4450 1725 
L 1900 1725 
z
M 1900 1050 
L 1900 525 
L 4450 525 
L 4450 1050 
L 1900 1050 
z
" transform="scale(0.015625)"/>
      </defs>
      <use xlink:href="#SimSun-91cd"/>
      <use xlink:href="#SimSun-7f6e" x="100"/>
      <use xlink:href="#TimesNewRomanPSMT-42" x="200"/>
      <use xlink:href="#TimesNewRomanPSMT-45" x="266.699219"/>
      <use xlink:href="#TimesNewRomanPSMT-52" x="327.783203"/>
      <use xlink:href="#TimesNewRomanPSMT-54" x="388.482422"/>
      <use xlink:href="#SimSun-53c2" x="449.566406"/>
      <use xlink:href="#SimSun-6570" x="549.566406"/>
     </g>
    </g>
   </g>
  </g>
 </g>
 <defs>
  <clipPath id="p422f042d4d">
   <rect x="26.7" y="7.2" width="669.6" height="221.76"/>
  </clipPath>
 </defs>
</svg>
